<?xml version="1.0" encoding="UTF-8"?>
<svg id="Layer_2" data-name="Layer 2" xmlns="http://www.w3.org/2000/svg" viewBox="0 0 400.19 277.28">
  <defs>
    <style>
      .cls-1 {
        fill: #d35772;
      }

      .cls-2 {
        fill: #e5d4e0;
      }

      .cls-3 {
        fill: #ff6b82;
      }
    </style>
  </defs>
  <g id="Layer_1-2" data-name="Layer 1">
    <g>
      <path class="cls-2" d="M10.01,267.76c-.3,2.86,15.1,6.55,17,7,25.68,6.05,47.29-.39,56-3,30.57-9.15,28.24-18.76,47-20,15.67-1.04,19.75,5.5,50,13,0,0,17.54,4.35,42,7,12.37,1.34,21.76,1.09,27.16,1.07,80.03-.27,114.9-5.89,135.84-21.07,2.84-2.06,11.32-8.21,10-12-1.37-3.93-12.63-3.35-18-3-47.3,3.12-108.03,19.91-156,19-53.01-1-58.24-23-98-13-22.24,5.59-32.62,15.5-66,20-24.74,3.34-46.64,1.62-47,5Z"/>
      <path class="cls-3" d="M72.67,2.58c18.25-8.47,21.55,6.47,75,8,51.29,1.47,62.53-11.88,102-4,9.58,1.91,22.04,5.32,40,4,21.37-1.57,26.77-8.08,36-6,20.31,4.57,25.37,43.07,35,85,23.43,101.99,51.63,127.28,34,150-2.9,3.73-8.23,8.94-75,18-61.98,8.41-92.97,12.61-116,9-45.96-7.21-55.23-24.26-87-17-21.29,4.86-27,14.77-54,19-15.85,2.48-42.8,6.71-56-6-16.32-15.71.01-46.12,20-124C50.27,46.63,46.59,14.68,72.67,2.58Z"/>
      <path class="cls-1" d="M13.01,221.76c-1.62-.15-6.57,11.92-3,24,.87,2.93,3.24,10.96,11,15,7.74,4.03,17.51,2.34,18,0,.6-2.88-13.45-3.68-21-15-7.28-10.92-3.33-23.84-5-24Z"/>
      <path class="cls-1" d="M319.75,6.76c-.89,1.22,7.2,6.83,13.26,16,7.65,11.57,8.43,23.3,9,29,1.31,12.99,8.54,36.33,23,83,13.62,43.96,26.72,71.61,25,92-.17,2.06-1.21,12.41,1,13,1.74.47,4.68-5.38,4.99-6,6.98-13.9-2.52-34.5-5.02-40-8.84-19.49-14.25-38.33-25.08-76-8.16-28.39-12.2-42.59-15.05-61-2.38-15.37-4.1-33.42-17.84-44-5.35-4.12-12.48-7.07-13.26-6Z"/>
    </g>
  </g>
</svg>