<?xml version="1.0" encoding="UTF-8"?>
<svg id="Layer_2" data-name="Layer 2" xmlns="http://www.w3.org/2000/svg" viewBox="0 0 154.68 110.61">
  <defs>
    <style>
      .cls-1 {
        fill: none;
        stroke: #000;
        stroke-miterlimit: 10;
      }

      .cls-2 {
        fill: #fff;
      }

      .cls-3 {
        fill: #947500;
      }

      .cls-4 {
        fill: #666;
      }

      .cls-5 {
        fill: #d4b200;
      }
    </style>
  </defs>
  <g id="Layer_1-2" data-name="Layer 1">
    <g>
      <ellipse class="cls-5" cx="120.52" cy="53.9" rx="54" ry="34" transform="translate(57.25 169.77) rotate(-85.46)"/>
      <ellipse class="cls-3" cx="120.93" cy="55.16" rx="26.72" ry="21.29" transform="translate(50.46 167.85) rotate(-82.5)"/>
      <path d="M6.52,75.9c-.14,4.66.19,11.85,3,20,1.81,5.25,2.9,8.45,6,11,6.63,5.44,18.43,4.73,24-1,.97-1,2.18-2.59,5-15,1.4-6.18,2.37-11.35,3-15"/>
      <path class="cls-4" d="M53.52,58.9c-1.78,12.42-11.33,30-26.5,30S2.3,71.32.52,58.9c-1.67-11.67,2.41-26.57,11-30,2.85-1.14,3.65,0,15.5,0s12.65-1.14,15.5,0c8.59,3.43,12.67,18.33,11,30Z"/>
      <ellipse cx="26.52" cy="54.9" rx="2" ry="4"/>
      <path class="cls-1" d="M25.52,54.9h28"/>
      <path class="cls-1" d="M25.52,53.9c3.13-2.36,7.64-6.36,11.5-12.5,2.97-4.73,4.59-9.19,5.5-12.5"/>
      <path class="cls-1" d="M26.02,51.4c-2.32-2.16-5.34-5.43-8-10-2.94-5.04-4.31-9.74-5-13"/>
      <path class="cls-1" d="M26.02,54.4c-8.67.33-17.33.67-26,1"/>
      <path class="cls-1" d="M26.02,58.4c-1.94,2.69-4.56,5.84-8,9-3.95,3.63-7.83,6.21-11,8"/>
      <path class="cls-1" d="M26.52,55.9c1.51,3.09,4.45,8.11,9.67,12.62,4.48,3.87,8.9,5.85,11.83,6.88"/>
      <path class="cls-2" d="M17.52,30.9c.9.85,4.07,3.66,9,4,6.17.42,10.31-3.35,11-4h-20Z"/>
    </g>
  </g>
</svg>