<?xml version="1.0" encoding="UTF-8"?>
<svg id="Layer_2" data-name="Layer 2" xmlns="http://www.w3.org/2000/svg" viewBox="0 0 93.49 68.62">
  <defs>
    <style>
      .cls-1 {
        fill: none;
        stroke: #ffe69a;
        stroke-miterlimit: 10;
        stroke-width: 3px;
      }

      .cls-2 {
        fill: #ffe69a;
      }
    </style>
  </defs>
  <g id="Layer_3" data-name="Layer 3">
    <rect class="cls-2" x="0" y="12.15" width="18.59" height="42.69" rx="5.36" ry="5.36"/>
    <path class="cls-2" d="M62.05,68.62c-5.95-.4-13.78-1.54-22.49-4.59-8.42-2.95-13.12-4.6-16.18-9.19-2.17-3.25-1.76-5.36-1.72-22.36.04-15.43-.28-17.36,1.72-20.33,3.22-4.77,8.44-6.25,17.44-8.82C49.1.97,56.67.14,62.97,0c1.81,9.54,3.26,21.57,2.98,35.46-.26,12.92-1.94,24.13-3.9,33.16Z"/>
    <path class="cls-1" d="M70.89,3.5c2.24,6.67,4.66,16.58,4.43,28.7-.24,12.48-3.21,22.57-5.8,29.24"/>
    <path class="cls-1" d="M79.88,8.57c1.95,5.74,4.07,14.28,3.86,24.72-.21,10.75-2.8,19.43-5.06,25.18"/>
    <path class="cls-1" d="M89.04,15.71c1.49,4.16,3.1,10.34,2.94,17.89-.16,7.78-2.14,14.07-3.86,18.23"/>
  </g>
</svg>