<?xml version="1.0" encoding="UTF-8"?>
<svg id="Layer_2" data-name="Layer 2" xmlns="http://www.w3.org/2000/svg" viewBox="0 0 2412.26 882.03">
  <defs>
    <style>
      .cls-1 {
        fill: #fff6e3;
      }

      .cls-2 {
        fill: none;
        stroke: #e0bdbd;
        stroke-miterlimit: 10;
        stroke-width: .5px;
      }
    </style>
  </defs>
  <g id="Layer_1-2" data-name="Layer 1">
    <rect class="cls-1" y="1.09" width="2412.26" height="879.6"/>
    <path class="cls-2" d="M2078.66,2.34v878.81"/>
    <path class="cls-2" d="M264.95,1.39v878.81"/>
    <path class="cls-2" d="M622.44.8v878.81"/>
    <path class="cls-2" d="M1953.29,1.75v878.81"/>
    <path class="cls-2" d="M1993.19,2.14v878.81"/>
    <path class="cls-2" d="M2019.16,2.34v878.81"/>
    <path class="cls-2" d="M1836.18,2.04v878.81"/>
    <path class="cls-2" d="M1876.07,2.44v878.81"/>
    <path class="cls-2" d="M1902.05,2.63v878.81"/>
    <path class="cls-2" d="M662.34,1.19v878.81"/>
    <path class="cls-2" d="M688.31,1.39v878.81"/>
    <path class="cls-2" d="M497.07.22v878.81"/>
    <path class="cls-2" d="M536.97.61v878.81"/>
    <path class="cls-2" d="M562.94.8v878.81"/>
    <path class="cls-2" d="M379.96.51v878.81"/>
    <path class="cls-2" d="M419.86.9v878.81"/>
    <path class="cls-2" d="M445.83,1.09v878.81"/>
    <path class="cls-2" d="M304.85,1.78v878.81"/>
    <path class="cls-2" d="M330.82,1.97v878.81"/>
    <path class="cls-2" d="M139.58.8v878.81"/>
    <path class="cls-2" d="M179.48,1.19v878.81"/>
    <path class="cls-2" d="M205.45,1.39v878.81"/>
    <path class="cls-2" d="M997.21,2.04v878.81"/>
    <path class="cls-2" d="M1354.7,1.46v878.81"/>
    <path class="cls-2" d="M1394.6,1.85v878.81"/>
    <path class="cls-2" d="M1420.57,2.04v878.81"/>
    <path class="cls-2" d="M1229.33.88v878.81"/>
    <path class="cls-2" d="M1269.23,1.27v878.81"/>
    <path class="cls-2" d="M1295.2,1.46v878.81"/>
    <path class="cls-2" d="M1112.22,1.17v878.81"/>
    <path class="cls-2" d="M1152.12,1.56v878.81"/>
    <path class="cls-2" d="M1178.09,1.75v878.81"/>
    <path class="cls-2" d="M1037.11,2.44v878.81"/>
    <path class="cls-2" d="M1063.08,2.63v878.81"/>
    <path class="cls-2" d="M871.84,1.46v878.81"/>
    <path class="cls-2" d="M911.74,1.85v878.81"/>
    <path class="cls-2" d="M937.71,2.04v878.81"/>
    <path class="cls-2" d="M754.73,1.75v878.81"/>
    <path class="cls-2" d="M794.63,2.14v878.81"/>
    <path class="cls-2" d="M820.6,2.34v878.81"/>
    <path class="cls-2" d="M1721.16,2.92v878.81"/>
    <path class="cls-2" d="M2118.56,1.19v878.81"/>
    <path class="cls-2" d="M2144.53,1.39v878.81"/>
    <path class="cls-2" d="M1761.06,1.78v878.81"/>
    <path class="cls-2" d="M1787.04,1.97v878.81"/>
    <path class="cls-2" d="M1595.8,2.34v878.81"/>
    <path class="cls-2" d="M1635.7,2.73v878.81"/>
    <path class="cls-2" d="M1661.67,2.92v878.81"/>
    <path class="cls-2" d="M1478.68,2.63v878.81"/>
    <path class="cls-2" d="M1518.58,3.02v878.81"/>
    <path class="cls-2" d="M1544.56,3.21v878.81"/>
    <path class="cls-2" d="M22.47,1.09v878.81"/>
    <path class="cls-2" d="M62.37,1.49v878.81"/>
    <path class="cls-2" d="M88.34,1.68v878.81"/>
    <path class="cls-2" d="M2196.06,1.46v878.81"/>
    <path class="cls-2" d="M2235.96.32v878.81"/>
    <path class="cls-2" d="M2261.93.51v878.81"/>
    <path class="cls-2" d="M2325,0v878.81"/>
    <path class="cls-2" d="M2364.9.39v878.81"/>
    <path class="cls-2" d="M2390.88.58v878.81"/>
    <path class="cls-2" d="M2273.76.88v878.81"/>
  </g>
</svg>