<?xml version="1.0" encoding="UTF-8"?>
<svg id="Layer_2" data-name="Layer 2" xmlns="http://www.w3.org/2000/svg" viewBox="0 0 2412.26 1177.43">
  <defs>
    <style>
      .cls-1 {
        fill: #97ff52;
      }

      .cls-2 {
        fill: #fff;
      }

      .cls-3 {
        fill: #aafeff;
      }

      .cls-4 {
        fill: #75dd52;
      }

      .cls-5 {
        fill: #6fcb52;
      }
    </style>
  </defs>
  <g id="Layer_1-2" data-name="Layer 1">
    <rect class="cls-3" width="2411.38" height="869.16"/>
    <path class="cls-5" d="M434.42,547.27c339.03-138.12,915-308.34,1586.46-183.95,142.09,26.32,272.44,62.87,390.51,104.56.29,236.51.59,473.03.88,709.54h-1029.75c-316.03-210.05-632.06-420.11-948.09-630.16Z"/>
    <path class="cls-4" d="M0,333.98c174.62-15.41,421.44-23.3,712.95,14.68,232.74,30.32,649.44,110.14,645.61,169.23-2.91,44.78-248.21,92.1-1358.55,96.76v-280.66Z"/>
    <path class="cls-1" d="M0,607c1294.09-191.78,1975.68-182.52,2044.72,27.82,38.67,117.8-114.8,298.67-460.43,542.61H0v-570.43Z"/>
    <path class="cls-2" d="M333.23,55.15c30.13-10.54,82.19-24.23,146.75-18.34,43.19,3.94,78.2,15.37,102.73,25.68,28.38-11.36,70.58-24.92,122.9-29.35,97.68-8.27,209.44,17.09,210.96,45.86,1.58,30.17-118.39,57.86-130.24,60.53-84.7,19.11-158.01,11.18-205.45,1.83-48.85,17.39-117.78,35.97-201.78,40.36-66.01,3.45-122.9-2.83-166.93-11.01-46.77,11.22-159.2,35.4-174.27,3.67-11.09-23.36,34.1-69.61,69.71-93.55,86.46-58.16,190.97-34.99,225.63-25.68Z"/>
    <path class="cls-2" d="M1301.79,150.84c-1.32-23.18,42.72-49.98,78.88-59.78,94.71-25.65,143.9,63.05,225.63,28.78,11.87-4.98,32.38-15.88,60.54-13.28,24.87,2.29,59.1,15.43,60.54,35.42,1.23,17.09-21.74,35.71-42.19,42.07-26.07,8.11-43.84-5.01-66.04-11.07-47.94-13.09-72.52,18.75-124.74,33.21-89.85,24.88-190.68-21.31-192.61-55.35Z"/>
    <path class="cls-2" d="M2411.38,180.08v78.43c-38.12.92-69.32-5.18-87.83-9.77-19.13,7.54-54.75,19.32-102.98,22.56-36.3,2.44-66.38-.86-85.96-4.06-27.96,11.28-61.97,10.52-84.39-1.18-17.48-9.13-31.11-26.57-22.01-40.91,10.6-16.69,50.48-26.72,89.89-15.34,7.84-6.89,23.6-18.62,49.52-25.95,41.62-11.77,80.63-4.09,95.39-1.18,27.67,5.45,47.23,14.74,58.7,21.23,9.83-5.96,32.86-18.24,67.88-22.41,4.59-.55,12.22-1.29,21.79-1.42Z"/>
  </g>
</svg>