<?xml version="1.0" encoding="UTF-8"?>
<svg id="Layer_2" data-name="Layer 2" xmlns="http://www.w3.org/2000/svg" viewBox="0 0 234.12 245.17">
  <defs>
    <style>
      .cls-1 {
        fill: #c72b00;
      }

      .cls-1, .cls-2, .cls-3, .cls-4, .cls-5, .cls-6, .cls-7, .cls-8, .cls-9, .cls-10, .cls-11 {
        stroke: #000;
        stroke-miterlimit: 10;
      }

      .cls-2 {
        fill: none;
      }

      .cls-12, .cls-4 {
        fill: #fff;
      }

      .cls-3, .cls-13 {
        fill: #333;
      }

      .cls-5 {
        fill: #632e00;
      }

      .cls-6 {
        fill: #ffac3f;
      }

      .cls-14, .cls-7 {
        fill: #682d00;
      }

      .cls-8 {
        fill: #666;
      }

      .cls-9 {
        fill: #582d00;
      }

      .cls-10 {
        fill: #f39800;
      }

      .cls-11 {
        fill: #ff9321;
      }
    </style>
  </defs>
  <g id="Layer_1-2" data-name="Layer 1">
    <g>
      <path class="cls-6" d="M100.17,194.4c.84,2.3-.28,3.22,0,9.31.22,4.7.96,5.69,1.55,6.2,1.11.97,1.97.51,5.43,1.55,2.65.8,3.98,1.2,4.65,2.33,1.08,1.82.33,4.93-1.55,6.2-2.25,1.52-6.36.59-8.53-3.1-.77,1.14-2,2.64-3.88,3.88-5.3,3.5-13.62,3.51-15.51,0-.85-1.57-.46-3.95.78-5.43,2.49-2.98,6.94-.52,9.31-3.1,1.06-1.15,1.09-2.64,0-10.86-1.29-9.72-1.86-11.67-.78-12.41,1.78-1.21,7.08,1.46,8.53,5.43Z"/>
      <path class="cls-6" d="M97.85,193.62c-1.37,1.8-3.3,4.44-5.43,7.76-4.96,7.73-7.9,12.43-6.2,15.51,1.07,1.94,3.98,3.23,5.43,3.88,2.38,1.06,3.73.98,4.65,2.33.92,1.34,1.02,3.52,0,4.65-1.33,1.48-4.15.74-6.98,0-2.97-.78-5.3-2.01-6.98-3.1-.37,1.04-1.05,2.52-2.33,3.88-2.39,2.54-4.44,2.1-7.76,3.88-5.32,2.84-4.66,6.44-9.31,7.76-.55.16-4.28,1.21-6.2-.78-1.8-1.86-.86-5.16-.78-5.43,1.17-3.88,6.11-6.53,12.41-6.98-6.35.49-11.27,1.08-14.73,1.55-2.35.32-4.98.71-6.2-.78-1.02-1.24-.73-3.36,0-4.65,1.55-2.74,6.22-3.76,11.63-2.33-1.42-1.11-2.04-2.74-1.55-3.88.68-1.6,3.26-1.56,3.88-1.55,1.97.03,2.75.95,4.65,1.55,1.37.43,3.4.72,6.2,0,2.34-2.16,5.17-5.21,7.76-9.31,3.77-5.98,5.43-11.67,6.2-15.51,1.4-4.21,5.72-5.96,8.53-4.65,2.01.94,3.28,3.45,3.1,6.2Z"/>
      <path class="cls-5" d="M81.56,73.42c-7.91-9.16-18.4-21.73-30.24-37.22-.41-4.65,1.66-9.14,5.43-11.63,4.4-2.91,10.37-2.63,14.73.78.21-1.82,1.14-7.82,6.2-12.41,8.27-7.5,19.63-4.05,20.16-3.88.92-1.11,6.85-8.06,17.06-8.53,10.26-.47,16.83,5.96,17.84,6.98,1.39-1.07,7.62-5.57,16.29-4.65,10.81,1.15,16.38,9.77,17.06,10.86,1.23-.5,9.67-3.77,18.61.78,9.02,4.59,11.33,13.46,11.63,14.73,1.17.02,9.31.26,14.73,6.98,4.48,5.55,5.36,13.36,2.33,20.16,1.24.21,9.96,1.85,14.73,10.08,5.83,10.04.29,20.42,0,20.94,1.23,1.34,4.93,5.71,5.43,12.41.65,8.62-4.49,14.48-5.43,15.51.42.85,4.08,8.6,0,16.29-2.64,4.97-7.02,7.1-8.53,7.76.23,2.11.47,7.14-2.33,12.41-4.32,8.16-12.5,10.47-13.96,10.86-.25,1.15-1.61,6.72-6.98,10.08-3.52,2.2-7.01,2.35-8.53,2.33-3.61-2.81-9.04-7.08-15.51-12.41-15.05-12.39-50.57-42.68-90.73-89.18Z"/>
      <path class="cls-5" d="M95.52,67.22c.44-1.4,1.3-3.52,3.1-5.43,2.58-2.73,5.53-3.41,12.41-5.43,7.51-2.21,8.44-2.71,10.08-3.1,13.67-3.26,39.06,10.14,54.29,30.24,6.38,8.43,8.84,15.2,10.86,20.94,3.49,9.92,2.95,14.45,2.33,17.06-1.12,4.72-3.64,8.1-5.43,10.08.27.78,3.39,10.39-2.33,17.06-1.74,2.03-3.8,3.2-5.43,3.88-.39,1.19-2.41,6.91-8.53,10.08-5.24,2.72-10.2,1.85-11.63,1.55-19.9-32.31-39.81-64.63-59.71-96.94Z"/>
      <path class="cls-11" d="M81.56,46.28c.75-2.1,2.62-6.43,6.98-10.08,5.99-5.01,12.66-5.39,14.73-5.43,2.37-1.53,6.33-3.64,11.63-4.65,6.91-1.32,12.58-.09,15.51.78,2.32-.67,7.98-1.95,14.73,0,6.08,1.76,9.94,5.25,11.63,6.98,2.44-.1,8.57-.02,14.73,3.88,4.07,2.58,6.49,5.78,7.76,7.76,1.79.32,7.67,1.62,12.41,6.98,5.06,5.72,5.39,12.22,5.43,13.96,2.22,1.74,5.77,4.97,8.53,10.08,3.3,6.1,3.82,11.78,3.88,14.73,1.09,1.51,3.54,5.34,3.88,10.86.32,5.26-1.46,9.2-2.33,10.86.31,2.74.57,8.5-2.33,14.73-1.66,3.57-3.79,6.12-5.43,7.76-.43,2.56-1.52,7.02-4.65,11.63-2.66,3.92-5.72,6.37-7.76,7.76-.85,1.77-2.67,4.98-6.2,7.76-2.99,2.34-5.94,3.39-7.76,3.88,1.55,1.29,3.1,2.58,4.65,3.88,1.54.01,5.83-.16,10.08-3.1,3.93-2.73,5.61-6.31,6.2-7.76,2.31-1.2,6.49-3.74,10.08-8.53,3.7-4.94,4.96-9.83,5.43-12.41,1.63-1.7,4.65-5.33,6.2-10.86,1.79-6.36.64-11.68,0-13.96,1.09-1.57,4.39-6.77,3.88-13.96-.38-5.36-2.7-9.17-3.88-10.86.15-3.25.03-10.87-4.65-18.61-2.79-4.6-6.18-7.57-8.53-9.31-.76-3.08-2.69-9.05-7.76-14.73-4.24-4.76-8.85-7.28-11.63-8.53-.96-2-3.82-7.27-10.08-10.86-6.81-3.9-13.37-3.37-15.51-3.1-1.57-1.8-6.17-6.61-13.96-8.53-7.28-1.79-13.22-.03-15.51.78-1.79-1.03-8.01-4.33-16.29-3.1-8.32,1.24-13.33,6.25-14.73,7.76-2.11-.32-8.18-.97-14.73,2.33-6.81,3.43-9.91,8.98-10.86,10.86,2.07,4.14,4.14,8.27,6.2,12.41Z"/>
      <path class="cls-11" d="M97.07,67.22c.58-1.21,1.94-3.58,4.65-5.43,3.95-2.7,8.08-2.45,9.31-2.33,1.02-.77,4.76-3.4,10.08-3.1,6.4.35,10.2,4.65,10.86,5.43,1.24-.77,5.44-3.17,10.86-2.33,8.55,1.34,12.17,9.52,12.41,10.08,1.72.28,7.12,1.4,11.63,6.2,4.36,4.64,5.22,9.88,5.43,11.63,1.59,1.15,5.57,4.32,7.76,10.08,2.29,6.04,1.25,11.3.78,13.18.54.46,4.99,4.44,4.65,10.86-.32,6.18-4.82,9.63-5.43,10.08,2.5,3.76,2.81,8.53.78,12.41-2.62,5-7.86,6.08-8.53,6.2-.16.77-1.43,6.39-6.98,9.31-5.12,2.7-10.04,1.06-10.86.78,1.29,2.07,2.58,4.14,3.88,6.2,1.15.34,5.53,1.46,10.08-.78,6.82-3.35,7.71-11.13,7.76-11.63,1.17-.32,6.3-1.86,9.31-6.98,4.3-7.32.23-15.08,0-15.51.8-.57,5.3-3.89,6.2-10.08,1.01-6.93-3.3-11.78-3.88-12.41.44-1.01,4.07-9.8-.78-17.84-2.45-4.07-5.97-6.11-7.76-6.98-.15-1.61-.98-8.56-6.98-13.96-5.33-4.79-11.39-5.33-13.18-5.43-.95-2.03-2.99-5.63-6.98-8.53-7.21-5.24-15.25-4.17-17.06-3.88-6.48-4.96-14.31-5.8-19.39-2.33-2.58,1.77-3.94,4.31-4.65,6.2-4.5-2.58-10.04-2.26-13.96.78-5.09,3.95-4.69,10.36-4.65,10.86,1.55-.26,3.1-.52,4.65-.78Z"/>
      <path class="cls-11" d="M127.32,77.3c.89-.44,5.1-2.4,10.08-.78,6.19,2.02,8.3,7.85,8.53,8.53,1.56.07,5.21.46,8.53,3.1,6.24,4.97,5.5,13.29,5.43,13.96,1.43,1.37,3.98,4.18,5.43,8.53,2.03,6.09.6,11.33,0,13.18.61,1.72,1.66,5.47.78,10.08-1.16,6.05-4.9,9.7-6.2,10.86-1.81,1.03-3.62,2.07-5.43,3.1-.52-1.55-1.03-3.1-1.55-4.65,1.42-.81,4.22-2.69,6.2-6.2,3.12-5.55,1.89-11.08,1.55-12.41.45-.72,3.12-5.21,1.55-10.86-1.58-5.68-6.23-8.15-6.98-8.53-.21-2.05-.85-5.59-3.1-9.31-3.08-5.11-7.39-7.58-9.31-8.53-.47-.96-2.03-3.8-5.43-5.43-4.82-2.31-9.41-.31-10.08,0v-4.65Z"/>
      <path class="cls-11" d="M135.07,89.71c.27-.09,5.37-1.74,9.31,1.55,3.2,2.68,4.23,7.47,2.33,11.63.95.42,4.94,2.31,6.98,6.98,2.31,5.28.35,10.05,0,10.86.64,2.21,1.44,6.09.78,10.86-.79,5.67-3.26,9.68-4.65,11.63-1.55-1.29-3.1-2.58-4.65-3.88,1.17-1.15,3.47-3.73,4.65-7.76,1.36-4.62.46-8.51,0-10.08.34-1.56.66-4.06,0-6.98-1.34-5.95-5.72-9.21-6.98-10.08.15-.45,1.21-3.75-.78-6.98-2.09-3.39-5.78-3.83-6.2-3.88-.26-1.29-.52-2.59-.78-3.88Z"/>
      <path class="cls-3" d="M102.5,194.4c5.07,10.14,19.05,16.98,27.14,20.94,10.88,5.33,25.03,9.54,26.37,6.98.69-1.32-1.66-5.1-18.61-17.06,6.84,3.69,12.77,5.76,17.06,6.98,6.45,1.83,7.43,1.24,7.76.78,1.53-2.21-6.07-9.92-7.76-11.63-4.28-4.34-8.47-7.33-11.63-9.31,3.03,1.81,6.92,3.61,11.63,4.65,2.93.65,6.8,1.51,7.76,0,1-1.57-1.67-4.96-3.88-7.76-2.53-3.21-5.09-5.49-6.98-6.98,6.29,2.8,9.91,3.58,10.86,2.33,1.29-1.7-2.33-7.13-10.86-16.29.43.22,8.42,4.33,10.08,2.33,1.25-1.5-1.25-6.25-6.2-11.63,3.13.8,4.94.8,5.43,0,.75-1.23-1.58-4.33-6.98-9.31,2.27-.16,3.56-.68,3.88-1.55.66-1.82-2.96-5.18-10.86-10.08,2.38-.55,3.67-1.33,3.88-2.33.43-2.11-3.96-5.21-13.18-9.31-29.83,22.63-43.14,51.77-34.9,68.24Z"/>
      <path class="cls-2" d="M71.48,25.34c6.98,14.48,13.96,28.95,20.94,43.43"/>
      <path class="cls-9" d="M4.01,124.61c-5.24,10.14-3.34,20.73-2.33,26.37.43,2.4,4.48,23.03,23.27,34.12,5.44,3.21,10.54,4.69,13.96,5.43,1.01,1.01,14.14,13.8,31.8,10.08,11.76-2.48,18.38-10.78,20.16-13.18,8.02-4.65,43.74-26.46,49.63-65.14,1.41-9.23,4.47-29.32-8.53-43.43-10.95-11.88-26.71-12.39-27.92-12.41-10.54-.18-18.24,4.28-25.59,8.53-10.15,5.87-13.86,10.91-20.94,17.06-25.57,22.22-44.34,14.82-53.51,32.57Z"/>
      <path class="cls-1" d="M46.28,126.54c2.26.79,5.32,1.42,7.76,0,5.54-3.23,2.18-13.57,3.88-25.59,2.52-17.85,13.18-17.83,19.78-39.94,3.07-10.29,6.46-21.66.39-29.86-7.22-9.76-24.73-10.81-35.67-4.65-1.6.9-6.33,3.64-9.31,9.31-.43.82-5.5,10.96,0,20.16,2.58,4.31,6.32,6.47,8.14,7.37-.56,8.1-2.65,13.89-4.27,17.45-7.29,16.08-24.02,28.86-24.82,29.47-5.25,3.98-10.35,6.79-10.08,10.86.18,2.81,2.9,5.84,6.2,6.98,2.83.97,5.31.29,6.2,0,.27.78,1.63,4.51,5.43,6.2,3.99,1.77,9.02.57,12.41-3.1.19.3,2.51,3.85,6.2,3.88,3.73.03,7.46-3.52,7.76-8.53Z"/>
      <path class="cls-7" d="M77.68,167.26c1.08,4.03,3.22,9.85,7.76,15.51,5.74,7.17,14.83,13.46,17.06,11.63.82-.68,1.01-2.71-1.55-8.53,2.99,4.93,6.91,7.1,8.53,6.2,1.53-.85,1.73-4.82,0-9.31,2.71,4.98,7.36,6.62,9.31,5.43,1.86-1.13,2.5-5.6,0-10.08,2.3,3.91,6.67,4.61,8.53,3.1,1.61-1.3,1.97-4.75,0-7.76,2,3.05,6.13,3.57,8.53,1.55,2.1-1.76,2.58-5.18.78-7.76,2.33,0,4.46-1.19,5.43-3.1,1.28-2.52.38-5.92-2.33-7.76.64-.54,2.04-1.87,2.33-3.88.43-2.98-1.72-6.27-5.43-7.76.75-.01,2.94-.14,3.88-1.55,1.26-1.89.12-5.82-3.88-8.53.19-.77.41-2.2,0-3.88-.66-2.68-2.49-4.19-3.1-4.65.72-.7,1.57-1.79,1.55-3.1-.02-1.82-1.71-3.36-5.43-5.43-3.06-1.7-7.68-3.87-13.96-5.43-.52,1.81-1.03,3.62-1.55,5.43,1.13.71,3.46,2.4,4.65,5.43,1.67,4.25.44,9.37-3.1,13.18.22.89,1.31,5.62-1.55,10.08-1.8,2.82-4.29,4.14-5.43,4.65-.06.47-.69,4.78-4.65,6.98-3.19,1.77-6.33.96-6.98.78-.13.58-.74,3.04-3.1,4.65-3.14,2.13-6.63.91-6.98.78-.37.58-1.57,2.25-3.88,3.1-2.59.95-4.83.22-5.43,0Z"/>
      <path class="cls-8" d="M57.52,219.22h-6.2c.56-.74,1.56-1.79,3.1-2.33.71-.25,2.39-.83,3.1,0,.66.76.05,2.2,0,2.33Z"/>
      <path class="cls-8" d="M111.03,219.99c1.55-.26,3.1-.52,4.65-.78-.07-.55-.32-2.01-1.55-3.1-.41-.36-.99-.88-1.55-.78-.93.18-1.56,2.05-1.55,4.65Z"/>
      <path class="cls-8" d="M47.44,225.42c-.95-.26-1.84.41-2.33.78-1.89,1.42-2.24,3.8-2.33,4.65.67-.51,1.71-1.17,3.1-1.55,1.74-.47,2.7-.13,3.1-.78.52-.83-.25-2.74-1.55-3.1Z"/>
      <path class="cls-8" d="M59.07,239.38c.29-.63.39-1.51,0-2.33-.43-.9-1.41-1.65-2.33-1.55-1.51.17-2.2,2.58-2.33,3.88-.22,2.32,1.09,4.09,1.55,4.65.33-1.64.99-2.56,1.55-3.1.65-.63,1.19-.78,1.55-1.55Z"/>
      <path class="cls-8" d="M96.3,223.09c1.08-.95,2.91-.09,3.1,0,1.81.85,2.26,2.81,2.33,3.1-1.81.26-3.62.52-5.43.78-.99-1.44-.87-3.12,0-3.88Z"/>
      <path class="cls-10" d="M46.66,47.83c-1.58-.08-3.81-.41-6.2-1.55-5.6-2.66-7.9-7.76-8.53-9.31-1.7-.21-4.12-.36-6.98,0-3.18.41-9.42,1.2-13.96,6.2-4.23,4.66-4.62,10.37-4.65,12.41,3.2-2.29,5.92-2.92,7.76-3.1,4.07-.4,6.46,1.2,17.06,4.65,5.42,1.77,6.48,1.9,7.76,1.55,4.58-1.25,6.77-7.26,7.76-10.86Z"/>
      <path d="M46.28,47.44c-3.9,4.24-9.79,6.57-15.55,5.83-7.02-.65-14.35-7.65-20.89-1.99-1.5,1.02-2.76,2.41-3.88,3.92.78-1.71,1.85-3.32,3.25-4.69,12.07-8.9,17.55,10.36,37.07-3.06h0Z"/>
      <path class="cls-1" d="M28.83,33.87c-4.03,1.16-6.04,4.71-7.76,7.76-3.37,5.98-3.84,11.89-3.88,14.73-.08,5.29,1.23,5.33.78,10.08-.5,5.22-2.13,5.83-2.33,10.86-.07,1.68-.33,8.44,3.1,10.08,1.72.82,3.74.05,3.88,0,1.95-.77,2.82-2.53,3.1-3.1,1.82-3.68-1.34-8.16-3.1-13.18-3.48-9.94-1.3-21.52,3.88-28.69,1.88-2.61,3.96-4.35,5.43-5.43.78-1.03,1.55-2.07,2.33-3.1-1.28-.33-3.26-.62-5.43,0Z"/>
      <path d="M77.27,167.54c-5.57-8.2-6.6-18.92-3.47-28.2-2.78,9.27-1.45,19.78,4.29,27.63,0,0-.82.57-.82.57h0Z"/>
      <path d="M38.72,190.98c-12.63-5.27-17.48-18.36-13.93-31.13.45-1.71.99-3.39,1.71-5.01-.68,1.63-1.18,3.32-1.59,5.04-3.18,12.56,1.7,25.31,14.19,30.17,0,0-.38.92-.38.92h0Z"/>
      <circle class="cls-4" cx="48.2" cy="36.25" r="7.38"/>
      <circle class="cls-13" cx="46.87" cy="36.09" r="5.68"/>
      <circle cx="44.9" cy="36.15" r="3.44"/>
      <circle class="cls-12" cx="48.21" cy="33.1" r="2.71"/>
      <path class="cls-2" d="M97.85,9.06c4.39,15.77,8.79,31.54,13.18,47.31"/>
      <path class="cls-2" d="M132.74,7.5c-1.55,13.7-3.1,27.4-4.65,41.1"/>
      <path class="cls-2" d="M166.09,13.71c-6.2,13.44-12.41,26.88-18.61,40.33"/>
      <path class="cls-2" d="M196.34,29.22c-12.41,11.89-24.82,23.78-37.22,35.67"/>
      <path class="cls-2" d="M213.4,56.36c-11.89,7.24-23.78,14.48-35.67,21.71"/>
      <path class="cls-2" d="M228.13,87.38c-12.93,2.59-25.85,5.17-38.78,7.76"/>
      <path class="cls-2" d="M228.13,115.3c-13.44-2.07-26.88-4.14-40.33-6.2"/>
      <path class="cls-2" d="M219.6,139.34c-11.37-2.58-22.75-5.17-34.12-7.76"/>
      <path class="cls-2" d="M203.31,162.6c-6.72-4.14-13.44-8.27-20.16-12.41"/>
      <path class="cls-11" d="M111.03,56.36v10.86"/>
      <path class="cls-11" d="M135.07,52.48c-2.07,7.76-4.14,15.51-6.2,23.27"/>
      <path class="cls-11" d="M159.11,64.89c-4.39,6.72-8.79,13.44-13.18,20.16"/>
      <path class="cls-11" d="M179.27,84.28c-6.98,2.84-13.96,5.69-20.94,8.53"/>
      <path class="cls-11" d="M187.8,109.1c-7.24,1.55-14.48,3.1-21.71,4.65"/>
      <path class="cls-11" d="M185.48,131.58h-19.39"/>
      <path class="cls-11" d="M176.17,154.07c-4.65-4.14-9.31-8.27-13.96-12.41"/>
      <path class="cls-11" d="M145.93,85.05c-2.07,1.29-4.14,2.59-6.2,3.88"/>
      <path class="cls-11" d="M159.89,102.12c-2.58,1.55-5.17,3.1-7.76,4.65"/>
      <path class="cls-11" d="M165.32,123.83h-10.86"/>
      <path class="cls-11" d="M153.68,120.73c-4.39.52-8.79,1.03-13.18,1.55"/>
      <path class="cls-11" d="M146.7,102.89c-1.55.52-3.1,1.03-4.65,1.55"/>
      <g>
        <path class="cls-14" d="M100.95,185.87c-.79-.91-1.58-1.94-2.33-3.1-3.33-5.13-4.34-10.35-4.65-13.96"/>
        <path d="M100.57,186.2c-4.03-4.89-6.26-11.11-6.6-17.39.67,6.17,3.16,12.17,7.36,16.73,0,0-.76.65-.76.65h0Z"/>
      </g>
      <g>
        <path class="cls-14" d="M109.48,182.77c-1.3-2.21-2.64-4.8-3.88-7.76-1.42-3.39-2.41-6.54-3.1-9.31"/>
        <path d="M109.05,183.02c-3-5.44-5.21-11.29-6.55-17.31,1.66,5.94,4.17,11.62,7.41,16.81l-.86.51h0Z"/>
      </g>
      <g>
        <path class="cls-14" d="M118.79,178.11c-1.04-1.65-2.09-3.46-3.1-5.43-2.14-4.18-3.62-8.14-4.65-11.63"/>
        <path d="M118.36,178.38c-3.08-5.4-5.8-11.3-7.33-17.33,1.84,5.91,4.83,11.6,8.18,16.79,0,0-.84.54-.84.54h0Z"/>
      </g>
      <g>
        <path class="cls-14" d="M127.32,173.46c-1.27-1.76-2.61-3.82-3.88-6.2-1.81-3.4-3.03-6.58-3.88-9.31"/>
        <path d="M126.91,173.76c-3.31-4.84-5.79-10.21-7.35-15.8,1.88,5.5,4.65,10.66,8.16,15.22l-.81.59h0Z"/>
      </g>
      <g>
        <path class="cls-14" d="M136.62,167.26c-1.69-1.17-3.57-2.69-5.43-4.65-4.49-4.76-6.67-9.84-7.76-13.18"/>
        <path d="M136.34,167.67c-6.19-4.43-10.74-10.99-12.9-18.25,2.45,7.08,7.2,13.35,13.47,17.42,0,0-.57.82-.57.82h0Z"/>
      </g>
      <g>
        <path class="cls-14" d="M139.72,156.4c-2.24-.77-5.36-2.14-8.53-4.65-2.01-1.59-3.54-3.24-4.65-4.65"/>
        <path d="M139.56,156.87c-5.2-1.95-9.77-5.39-13.02-9.78,3.51,4.18,8.22,7.26,13.35,8.83l-.32.95h0Z"/>
      </g>
      <g>
        <path class="cls-14" d="M136.62,144.77c-2.32-.72-4.95-1.71-7.76-3.1-2.04-1.01-3.85-2.07-5.43-3.1"/>
        <path d="M136.47,145.25c-4.65-1.62-9.05-3.88-13.04-6.68,4.17,2.53,8.67,4.45,13.33,5.73l-.3.95h0Z"/>
      </g>
      <g>
        <path class="cls-14" d="M136.62,134.69c-1.82-.31-3.93-.79-6.2-1.55-2.78-.93-5.11-2.05-6.98-3.1"/>
        <path d="M136.54,135.18c-4.65-.95-9.1-2.7-13.1-5.15,4.16,2.15,8.68,3.56,13.27,4.16l-.17.99h0Z"/>
      </g>
      <g>
        <path class="cls-14" d="M133.52,126.16c-1.58-.19-4.19-.71-6.98-2.33-2.2-1.28-3.71-2.78-4.65-3.88"/>
        <path d="M133.46,126.65c-4.58-.7-8.79-3.16-11.57-6.7,3.05,3.33,7.32,5.37,11.69,5.71l-.12.99h0Z"/>
      </g>
      <path class="cls-2" d="M138.17,206.03c-3.28-2.16-7.02-4.95-10.86-8.53-3.47-3.24-6.28-6.44-8.53-9.31"/>
      <path class="cls-2" d="M142.83,192.07c-2.13-1.39-4.52-3.18-6.98-5.43-2.96-2.71-5.24-5.41-6.98-7.76"/>
      <path class="cls-2" d="M151.36,181.99c-1.76-1.39-3.58-2.94-5.43-4.65-3.71-3.44-6.78-6.88-9.31-10.08"/>
      <path class="cls-2" d="M151.36,168.03c-3.1-3.1-6.2-6.2-9.31-9.31"/>
      <path class="cls-2" d="M155.23,158.73c-5.17-4.91-10.34-9.82-15.51-14.73"/>
      <path class="cls-2" d="M153.68,149.42c-4.65-3.88-9.31-7.76-13.96-11.63"/>
      <path class="cls-11" d="M146.7,137.79c-2.84-1.81-5.69-3.62-8.53-5.43"/>
      <path d="M75.36,162.6c3.7.92,7.41-1.15,9.04-4.44,0,0,.37.07.37.07,3.88.87,7.9-1.72,8.88-5.54,4.17,1.35,9.05-.59,9.98-5.16,2.02-1.1,3.71-2.79,4.78-4.82,1.09-2.02,1.54-4.37,1.34-6.66,4.04-4.33,4.13-11.47.51-16.11,3.28,3.21,4.57,8.37,2.76,12.68-.56,1.44-1.36,2.78-2.39,3.94l.12-.37c.4,4.85-2.2,9.75-6.46,12.1,0,0,.24-.31.24-.31-.76,3.36-3.9,5.96-7.35,6.08-1.13.08-2.23-.01-3.35-.3,0,0,.61-.33.61-.33-1.25,4.07-5.72,6.7-9.88,5.76,0,0,.54-.25.54-.25-1.72,3.46-6.23,5.07-9.75,3.64h0Z"/>
      <path d="M73.03,156.4c3.6,1.17,7.2-1.27,8.04-4.76,0,0,.15-.58.15-.58,0,0,.54.23.54.23,3.88,1.73,8.09-.92,8.61-5.03,0,0,.09-.59.09-.59,4.2,1.68,8.51-1.77,7.67-6.23,0,0-.11-.65-.11-.65,5.35.91,7.85-4.31,4.85-8.46,0,0-.31-.43-.31-.43,3.9-2.15,4.68-7.5,1.49-10.73,3.83,2.98,3.7,8.69-.51,11.28,0,0,.13-.72.13-.72,1.43,1.93,1.96,4.61.96,6.87-.95,2.36-3.65,3.49-6.07,3.23,0,0,.54-.6.54-.6.99,4.86-3.67,9.08-8.39,7.56,0,0,.64-.42.64-.42-.35,2.24-1.55,4.31-3.51,5.48-1.95,1.16-4.42,1.23-6.49.34,0,0,.69-.35.69-.35-.78,4.02-5.39,6.38-9.02,4.54h0Z"/>
      <g>
        <path class="cls-12" d="M29.6,145.54c.34.42,1.63,1.92,3.88,2.33,2.97.53,5.14-1.3,5.43-1.55"/>
        <path d="M29.6,145.54c2.8,2.29,6.15,2.48,9.31.78-1.08,1.43-2.98,2.27-4.87,2.12-1.88-.14-3.65-1.28-4.44-2.9h0Z"/>
      </g>
      <g>
        <path class="cls-12" d="M38.91,151.75c.35.33,3.06,2.85,6.98,2.33,3.2-.43,5.03-2.61,5.43-3.1"/>
        <path d="M38.91,151.75c3.85,2.69,8.89,2.5,12.41-.78-2.45,4.53-9.42,4.84-12.41.78h0Z"/>
      </g>
      <g>
        <path class="cls-12" d="M37.36,161.05c.28.32,1.9,2.16,4.65,2.33,2.55.15,4.28-1.24,4.65-1.55"/>
        <path d="M37.36,161.05c2.8,2.14,6.25,2.4,9.31.78-2.22,3.02-7.58,2.59-9.31-.78h0Z"/>
      </g>
      <g>
        <path class="cls-12" d="M55.19,165.71c.63.44,3.02,1.98,6.2,1.55,1.85-.25,3.18-1.05,3.88-1.55"/>
        <path d="M55.19,165.71c3.38,1.43,6.72,1.52,10.08,0-2.52,2.86-7.55,2.75-10.08,0h0Z"/>
      </g>
      <g>
        <path class="cls-12" d="M10.22,143.22c.56.59,1.85,1.78,3.88,2.33,3.08.82,5.6-.45,6.2-.78"/>
        <path d="M10.22,143.22c3.07,2.19,6.49,2.63,10.08,1.55-2.9,2.52-8.09,1.82-10.08-1.55h0Z"/>
      </g>
      <g>
        <path class="cls-12" d="M17.19,152.52c.67.46,2.33,1.47,4.65,1.55,1.77.06,3.15-.45,3.88-.78"/>
        <path d="M17.19,152.52c2.88,1.1,5.5,1.34,8.53.78-2.42,1.97-6.5,1.59-8.53-.78h0Z"/>
      </g>
      <g>
        <path class="cls-12" d="M7.11,157.18c.39.39,2.35,2.3,5.43,2.33,2.42.02,4.1-1.14,4.65-1.55"/>
        <path d="M7.11,157.18c3.14,2.1,6.66,2.41,10.08.78-2.57,3.04-8.01,2.54-10.08-.78h0Z"/>
      </g>
      <g>
        <path class="cls-12" d="M14.09,168.03c.19.25,1.86,2.34,4.65,2.33,2.12-.01,3.53-1.23,3.88-1.55"/>
        <path d="M14.09,168.03c2.6,2.07,5.61,2.43,8.53.78-.46.7-1.14,1.25-1.93,1.6-2.36,1.15-5.57-.04-6.6-2.37h0Z"/>
      </g>
      <g>
        <path class="cls-12" d="M27.28,163.38c.34.42,1.63,1.92,3.88,2.33,2.97.53,5.14-1.3,5.43-1.55"/>
        <path d="M27.28,163.38c2.8,2.29,6.15,2.48,9.31.78-2.22,3.1-7.67,2.72-9.31-.78h0Z"/>
      </g>
      <g>
        <path class="cls-12" d="M34.26,172.69c.17.23,1.8,2.33,4.65,2.33.29,0,2.94-.05,4.65-2.33"/>
        <path d="M34.26,172.69c2.78,2.42,6.59,2.37,9.31,0-1.66,3.7-7.63,3.7-9.31,0h0Z"/>
      </g>
      <g>
        <path class="cls-12" d="M43.56,169.58c.17.23,1.8,2.33,4.65,2.33.29,0,2.94-.05,4.65-2.33"/>
        <path d="M43.56,169.58c2.78,2.42,6.59,2.37,9.31,0-1.66,3.7-7.63,3.7-9.31,0h0Z"/>
      </g>
      <g>
        <path class="cls-12" d="M29.6,180.44c.59.45,1.94,1.36,3.88,1.55,2.85.29,4.92-1.17,5.43-1.55"/>
        <path d="M29.6,180.44c3.12,1.46,6.18,1.4,9.31,0-2.23,2.72-7.07,2.79-9.31,0h0Z"/>
      </g>
      <g>
        <path class="cls-12" d="M43.56,185.87c.65.32,2.39,1.08,4.65.78,2.57-.34,4.17-1.83,4.65-2.33"/>
        <path d="M43.56,185.87c3.35.83,6.4.31,9.31-1.55-1.82,3.03-6.6,3.83-9.31,1.55h0Z"/>
      </g>
      <g>
        <path class="cls-12" d="M52.87,178.11c.96,1.64,2.79,2.55,4.65,2.33,1.76-.21,3.26-1.42,3.88-3.1"/>
        <path d="M52.87,178.11c2.49,2.75,6.58,2.38,8.53-.78-.11.92-.6,1.8-1.32,2.45-2.14,2.1-6.32,1.24-7.21-1.67h0Z"/>
      </g>
      <g>
        <path class="cls-12" d="M59.07,157.18c.83.25,2.94.76,5.43,0,1.98-.6,3.26-1.71,3.88-2.33"/>
        <path d="M59.07,157.18c3.44.26,6.4-.47,9.31-2.33-1.84,2.97-6.29,4.06-9.31,2.33h0Z"/>
      </g>
      <g>
        <path class="cls-12" d="M51.32,143.99c.78.34,1.83.69,3.1.78,3.56.25,6.18-1.69,6.98-2.33"/>
        <path d="M51.32,143.99c3.61.82,6.83.12,10.08-1.55-2.28,2.88-7.07,3.8-10.08,1.55h0Z"/>
      </g>
      <g>
        <path class="cls-12" d="M55.97,192.07c.61.31,2.03.94,3.88.78,2.63-.23,4.26-1.89,4.65-2.33"/>
        <path d="M55.97,192.07c3.12.78,5.86.23,8.53-1.55-1.56,2.94-6.07,3.78-8.53,1.55h0Z"/>
      </g>
      <g>
        <path class="cls-12" d="M64.5,182.77c1.93,1.8,4.63,2.41,6.98,1.55,2.69-.99,3.72-3.47,3.88-3.88"/>
        <path d="M64.5,182.77c3.68,2.57,8.6,1.61,10.86-2.33-.22,1.1-.8,2.14-1.61,2.96-2.45,2.61-7.17,2.25-9.24-.64h0Z"/>
      </g>
      <g>
        <path class="cls-12" d="M66.83,172.69c.32.21,2.22,1.38,4.65.78,2.59-.64,3.72-2.78,3.88-3.1"/>
        <path d="M66.83,172.69c3.13,1.14,6.35.29,8.53-2.33-.83,3.61-6.02,4.99-8.53,2.33h0Z"/>
      </g>
      <g>
        <path class="cls-12" d="M74.58,190.52c.66.14,1.78.3,3.1,0,2.13-.48,3.42-1.8,3.88-2.33"/>
        <path d="M74.58,190.52c2.68-.16,4.72-.88,6.98-2.33-1.12,2.48-4.58,3.67-6.98,2.33h0Z"/>
      </g>
      <g>
        <path class="cls-12" d="M65.28,195.95c.28.19,2.24,1.47,4.65.78,1.89-.54,2.85-1.94,3.1-2.33"/>
        <path d="M65.28,195.95c2.88,1,5.5.53,7.76-1.55-.97,3.17-5.67,4.02-7.76,1.55h0Z"/>
      </g>
      <path d="M14.14,127.73c3.51-3.14,6.89-6.67,9.65-10.49-2.49,4.02-5.66,7.83-8.96,11.22,0,0-.68-.73-.68-.73h0Z"/>
      <path d="M32.21,132.41c-.35-4.78.36-9.6,2.05-14.01-1.37,4.52-1.72,9.3-1.05,13.91l-.99.11h0Z"/>
      <path d="M46.22,127.93c-2.41-5.16-3.05-11.05-1.88-16.51-.84,5.52.16,11.25,2.77,16.06l-.89.45h0Z"/>
      <g>
        <path class="cls-12" d="M38.91,136.24c.11.16,1.77,2.45,4.65,2.33,1.99-.08,3.78-1.28,4.65-3.1"/>
        <path d="M38.91,136.24c2.87,2.66,6.96,2.37,9.31-.78-.22.94-.8,1.81-1.58,2.45-2.36,2.06-6.47,1.2-7.73-1.67h0Z"/>
      </g>
      <g>
        <path class="cls-12" d="M62.17,116.07c.43.07,3.12.59,4.65,3.1,1.27,2.09,1.26,4.77,0,6.98"/>
        <path d="M62.17,116.07c5-.09,7.91,6.33,4.65,10.08.35-1.05.55-2.09.55-3.13,0-3.23-2.1-5.82-5.2-6.95h0Z"/>
      </g>
      <g>
        <path class="cls-12" d="M61.4,100.56c.7.15,1.95.53,3.1,1.55,2.29,2.03,2.33,4.92,2.33,5.43"/>
        <path d="M61.4,100.56c3.5-.14,6.28,3.67,5.43,6.98-.76-3.19-2.4-5.59-5.43-6.98h0Z"/>
      </g>
      <g>
        <path class="cls-12" d="M71.48,109.1c.31.07,4.15,1.04,5.43,4.65.75,2.1.23,3.98,0,4.65"/>
        <path d="M71.48,109.1c4.41.15,7.77,5.37,5.43,9.31.68-4.22-1.64-7.6-5.43-9.31h0Z"/>
      </g>
      <g>
        <path class="cls-12" d="M66.83,87.38c.44-.08,3.62-.63,6.2,1.55,2.17,1.83,3.08,4.86,2.33,7.76"/>
        <path d="M66.83,87.38c5.54-1.97,10.89,3.98,8.53,9.31.12-1.27.01-2.51-.31-3.66-.96-3.65-4.53-5.81-8.22-5.64h0Z"/>
      </g>
      <path d="M72.26,147.09c3.98,1.39,8.82-.96,9.71-5.17,2.65.23,5.5-.62,7.39-2.55,1.83-1.78,2.73-4.43,2.56-6.98l-.02-.33.28-.15c2.17-1.16,3.95-3.07,4.86-5.35.88-2.35,1.27-4.88.8-7.39.74,1.81,1,3.88.73,5.84-.71,3.31-2.94,6.21-5.92,7.78,0,0,.26-.48.26-.48.1,1.43-.11,2.85-.58,4.19-1.39,4.14-5.74,6.72-10.03,6.43,0,0,.52-.37.52-.37-1.25,4.61-6.38,7.06-10.56,4.52h0Z"/>
      <g>
        <path class="cls-12" d="M72.26,100.56c.62.13,2.45.62,3.88,2.33,1.91,2.28,1.61,4.97,1.55,5.43"/>
        <path d="M72.26,100.56c3.75-.11,6.76,4.28,5.43,7.76-.33-3.55-2.16-6.28-5.43-7.76h0Z"/>
      </g>
      <g>
        <path class="cls-12" d="M73.03,125.38c.57.93,1.79,3.21,1.55,6.2-.1,1.28-.45,2.34-.78,3.1"/>
        <path d="M73.03,125.38c2.36,2.35,2.81,6.62.78,9.31.63-3.28.31-6.16-.78-9.31h0Z"/>
      </g>
      <g>
        <path class="cls-12" d="M83.11,109.1c.69,1,1.99,3.15,2.33,6.2.31,2.84-.35,5.08-.78,6.2"/>
        <path d="M83.11,109.1c3.12,3.13,3.81,8.6,1.55,12.41.84-4.33.33-8.42-1.55-12.41h0Z"/>
      </g>
      <g>
        <path class="cls-12" d="M79.23,87.38c.57.08,2,.36,3.1,1.55,1.44,1.54,1.74,3.99.78,6.2"/>
        <path d="M79.23,87.38c4.04-.42,6.25,4.75,3.88,7.76.14-.86.22-1.67.16-2.47-.09-2.48-1.7-4.47-4.04-5.29h0Z"/>
      </g>
      <g>
        <path class="cls-12" d="M76.91,75.75c2.26-.67,4.67-.08,6.2,1.55,1.76,1.87,1.59,4.26,1.55,4.65"/>
        <path d="M76.91,75.75c4.01-2.16,9.08,1.78,7.75,6.2-.31-4.02-3.79-6.7-7.75-6.2h0Z"/>
      </g>
      <g>
        <path class="cls-12" d="M92.42,92.81c.34.29,2.17,1.92,2.33,4.65.19,3.19-2.06,5.19-2.33,5.43"/>
        <path d="M92.42,92.81c3.77,2.06,3.68,8.04,0,10.08,2.35-3.02,2.46-7.01,0-10.08h0Z"/>
      </g>
      <g>
        <path class="cls-12" d="M93.97,78.85c.51.06,3.63.44,5.43,3.1,1.79,2.65,1.53,6.46-.78,9.31"/>
        <path d="M93.97,78.85c4.6-.25,8.16,4.43,6.8,8.82-.36,1.39-1.14,2.64-2.14,3.59,3.07-4.97,1.28-11.01-4.65-12.41h0Z"/>
      </g>
      <g>
        <path class="cls-12" d="M97.85,103.67c.34.29,2.17,1.92,2.33,4.65.19,3.19-2.06,5.19-2.33,5.43"/>
        <path d="M97.85,103.67c3.77,2.06,3.68,8.04,0,10.08,2.35-3.02,2.46-7.01,0-10.08h0Z"/>
      </g>
      <g>
        <path class="cls-12" d="M106.38,95.14c2.37,2.02,3.28,5.14,2.33,7.76-.96,2.64-3.42,3.69-3.88,3.88"/>
        <path d="M106.38,95.14c4.76,2.82,4.04,10.36-1.55,11.63,4.45-2.58,4.84-7.9,1.55-11.63h0Z"/>
      </g>
      <g>
        <path class="cls-12" d="M115.68,96.69c.53.93,1.65,3.17,1.55,6.2-.09,2.59-1.02,4.5-1.55,5.43"/>
        <path d="M115.68,96.69c2.72,3.15,2.74,8.48,0,11.63,1.4-3.89,1.39-7.74,0-11.63h0Z"/>
      </g>
      <g>
        <path class="cls-12" d="M107.15,81.95c2.29.03,4.38,1.2,5.43,3.1,1.34,2.44.75,5.7-1.55,7.76"/>
        <path d="M107.15,81.95c4.25-.7,7.84,3.82,6.25,7.83-.43,1.27-1.31,2.33-2.37,3.03,3.5-4.13,1.61-10.05-3.88-10.86h0Z"/>
      </g>
      <g>
        <path class="cls-12" d="M97.07,68.77c2.28-1.23,5.04-.43,6.2,1.55.97,1.66.68,3.9-.78,5.43"/>
        <path d="M97.07,68.77c2.99-2.43,7.85.24,7.13,4.13-.17,1.16-.81,2.21-1.71,2.85,2.7-4.11-.83-8.45-5.43-6.98h0Z"/>
      </g>
      <g>
        <path class="cls-12" d="M113.36,73.42c.25.06,4.28,1.04,5.43,4.65.53,1.67.21,3.16,0,3.88"/>
        <path d="M113.36,73.42c4.09.06,7.57,4.75,5.43,8.53.07-.97.04-1.89-.15-2.77-.6-2.77-2.74-4.49-5.28-5.76h0Z"/>
      </g>
      <g>
        <path class="cls-12" d="M123.44,88.93c3.45,2.83,4.52,6.83,3.1,9.31-.25.43-1.04,1.64-3.1,2.33"/>
        <path d="M123.44,88.93c4.56,2.34,6.48,10.48,0,11.63,5.23-2.43,3.13-8.31,0-11.63h0Z"/>
      </g>
      <g>
        <path class="cls-12" d="M131.19,102.89c.33.64,1.32,2.75.78,5.43-.7,3.45-3.41,5.15-3.88,5.43"/>
        <path d="M131.19,102.89c2.83,3.49,1.05,9.37-3.1,10.86,3.13-2.73,4.41-6.82,3.1-10.86h0Z"/>
      </g>
      <g>
        <path class="cls-12" d="M133.52,92.81c.64.42,2.28,1.63,3.1,3.88,1.27,3.49-.52,6.56-.78,6.98"/>
        <path d="M133.52,92.81c4.18,1.65,5.31,7.61,2.33,10.86,1.48-3.93.79-7.96-2.33-10.86h0Z"/>
      </g>
      <g>
        <path class="cls-12" d="M123.44,78.85c1.5-.24,3.01.36,3.88,1.55.98,1.35.99,3.23,0,4.65"/>
        <path d="M123.44,78.85c3.66-1.53,6.83,3.58,3.88,6.2,1.17-3.03-.62-5.96-3.88-6.2h0Z"/>
      </g>
      <g>
        <path class="cls-12" d="M138.17,113.75c1.22,1.71,1.19,3.94,0,5.43-1.4,1.75-3.7,1.57-3.88,1.55"/>
        <path d="M138.17,113.75c2.2,1.85,1.54,5.94-1.24,6.88-.87.32-1.8.36-2.64.1.85-.15,1.64-.41,2.31-.8,2.16-1.25,2.5-3.99,1.57-6.17h0Z"/>
      </g>
    </g>
  </g>
</svg>