<?xml version="1.0" encoding="UTF-8"?>
<svg id="Layer_2" data-name="Layer 2" xmlns="http://www.w3.org/2000/svg" viewBox="0 0 195.4 155.6">
  <defs>
    <style>
      .cls-1 {
        fill: none;
      }

      .cls-1, .cls-2, .cls-3, .cls-4 {
        stroke: #000;
        stroke-miterlimit: 10;
      }

      .cls-5, .cls-2 {
        fill: #fff;
      }

      .cls-3 {
        fill: #f47524;
      }

      .cls-4 {
        fill: #faac5b;
      }

      .cls-6 {
        fill: #333;
      }
    </style>
  </defs>
  <g id="Layer_1-2" data-name="Layer 1">
    <g>
      <path class="cls-4" d="M5.4,102.06c0,2.18.21,4.93,1,8,1.44,5.6,4.12,9.63,6,12-.75-2.34-1.46-5.02-2-8-.75-4.12-.99-7.84-1-11-.4.09-1.13.19-2,0-1-.22-1.68-.73-2-1Z"/>
      <path class="cls-4" d="M38.4,118.06c-.01-3.16.23-6.89,1-11,1.35-7.2,3.83-12.94,6-17-1.22-.78-2.59-1.76-4-3-1.18-1.03-2.17-2.05-3-3-.8,2.39-1.51,5.06-2,8-1.81,10.79.11,20.02,2,26Z"/>
      <path class="cls-4" d="M54.4,66.06c8.46-3.28,23.66-7.92,43-7,20.47.97,35.85,7.71,44,12,.44,4.64.59,13.89-5,22-9.09,13.2-26.68,13.69-38,14-12.26.34-31.74.88-41-13-7.22-10.81-4.06-24.13-3-28Z"/>
      <path class="cls-3" d="M54.4,66.06c.71-2.39,2.1-5.84,5-9,3.11-3.38,7.66-6.1,20-8,3-.46,13.98-2.03,36,0,16.05,1.48,19.51,3.17,22,6,4.48,5.08,4.38,12.16,4,16-5.66-2.9-13.78-6.46-24-9-17.21-4.27-30.8-3.27-34-3-11.42.97-21.2,3.82-29,7Z"/>
      <path class="cls-1" d="M83.4,67.06c2.18.88,5.25,1.81,9,2,7.63.39,13.43-2.5,16-4"/>
      <path class="cls-3" d="M54.4,66.06c0-.65-.05-4.39-3-7-1.49-1.32-3.1-1.8-4-2-.11-1.38-.39-3.1-1-5-.85-2.62-2.03-4.63-3-6,.52-1.35,1.14-3.46,1-6-.32-6.03-4.53-7.69-5-14-.29-3.89,1.07-6.4,0-7-1.65-.92-5.12,4.89-8,4-2.8-.87-2.99-7.45-3-8-.16-7.97,4.86-13.33,4-14-.71-.55-4.84,2.45-8,7-6.21,8.95-5.35,19.15-5,22,.07.61.32,2.53,1,5,1.93,7.06,5.51,12.07,8,15-1.16,2.26-1.11,4.09-1,5,.5,4.19,4.48,7.85,10,9,.61,1.32,1.27,2.65,2,4,4.38,8.1,9.84,14.32,15,19-.84-2.08-1.8-5.17-2-9-.29-5.37,1.04-9.61,2-12Z"/>
      <path class="cls-3" d="M39.4,68.06c-.41-.28-2.52-1.65-5-1-.88.23-1.55.65-2,1-.86.09-2.33.32-4,1-3.65,1.5-3.71,3.32-10,10-1.74,1.85-3.53,3.61-3,5,.19.5.64.81,1,1-3.72,3.02-6.32,5.91-8,8-2.78,3.46-4.88,6.12-4,8,.82,1.75,3.76,2.44,6,2,2.61-.51,4.08-2.52,6-5,1.98-2.56,4.96-6.32,9-11,.25-.21.62-.54,1-1,1.26-1.54,1.57-3.22,2-6,.69-4.47.64-4.84,1-5,1.25-.55,3.45,3.13,8,8,3.79,4.06,3.2,2.51,10,9,4.23,4.03,6.25,6.35,10,7,1.63.28,3.04.16,4,0-1.82-1.73-4.13-4.35-6-8-.92-1.8-1.56-3.5-2-5-2.52-2.45-5.27-5.43-8-9-2.43-3.17-4.4-6.23-6-9Z"/>
      <path class="cls-3" d="M65.4,102.06c-.55.85-1.5,2.05-3,3-2.28,1.43-4.08,1.15-7,2-3.11.91-3.05,1.81-6,3-3.53,1.42-6.68,1.28-13,1-4.77-.21-7.16-.32-9-1-1.82-.67-3.29-1.57-5-1-.79.26-1.69.86-3,3-1.77,2.89-2.18,5.17-3,8-.48,1.66-1.38,4.78-3,8-1.94,3.86-3.92,7.8-7,8-2.06.13-4.06-1.45-5-3-2.19-3.6-.34-9.77,5-15,.23-1.68.77-3.81,2-6,3.86-6.86,11.37-8.65,13-9-.23-.95-.11-1.62,0-2,2.1-7.15,27.78-5.18,30-5,3.58.3,6.43.74,8,1,.58.65,1.25,1.32,2,2,1.4,1.26,2.77,2.24,4,3Z"/>
      <path class="cls-1" d="M21.4,103.06c-.14.52-.37,1.65,0,3,.47,1.71,1.59,2.68,2,3"/>
      <path class="cls-1" d="M6.4,118.06c1.1.14,2.48.42,4,1,2.28.88,3.94,2.08,5,3"/>
      <path class="cls-1" d="M16.4,85.06c.81.39,1.82.77,3,1,3.6.71,6.6-.38,8-1"/>
      <path class="cls-1" d="M29.4,75.06c-.15-.63-.32-1.72,0-3,.61-2.45,2.53-3.71,3-4"/>
      <path class="cls-1" d="M28.4,50.06c1.4.17,3.09.23,5,0,4.71-.58,8.15-2.66,10-4"/>
      <path class="cls-1" d="M37.4,64.06c1.25-.26,3.07-.8,5-2,2.69-1.67,4.23-3.77,5-5"/>
      <path class="cls-4" d="M31.4,24.06c.43.48,1.19.9,2,1,1.51.19,2.7-.76,3-1,1.72-1.38,1.78-3.75,2-9,.33-8.06.46-8.85,0-9-1.49-.49-4.91,7.29-6,10-2.12,5.25-1.82,7.09-1,8Z"/>
      <path class="cls-4" d="M9.4,134.06c.52,1.89,1.17,3.91,2,6,2.32,5.85,5.29,10.5,8,14-2.08-1.11-4.55-2.71-7-5-5.37-5.01-7.86-10.67-9-14,.18.17,1.33,1.17,3,1,1.96-.2,2.91-1.84,3-2Z"/>
      <path class="cls-4" d="M187.12,131.05c-.83,1.78-1.82,3.65-2.99,5.57-3.28,5.37-7,9.44-10.27,12.43,2.24-.74,4.94-1.9,7.75-3.73,6.15-4.02,9.56-9.17,11.25-12.26-.21.13-1.51.93-3.13.47-1.9-.53-2.56-2.31-2.62-2.48Z"/>
      <path class="cls-4" d="M191.45,101.57c0,2.18-.21,4.93-1,8-1.44,5.6-4.12,9.63-6,12,.75-2.34,1.46-5.02,2-8,.75-4.12.99-7.84,1-11,.4.09,1.13.19,2,0,1-.22,1.68-.73,2-1Z"/>
      <path class="cls-4" d="M158.45,117.57c.01-3.16-.23-6.89-1-11-1.35-7.2-3.83-12.94-6-17,1.22-.78,2.59-1.76,4-3,1.18-1.03,2.17-2.05,3-3,.8,2.39,1.51,5.06,2,8,1.81,10.79-.11,20.02-2,26Z"/>
      <path class="cls-3" d="M141.4,67.06c.76-6.33,3.22-10.74,6-11,.53-.05,1.21.04,2.05.51.11-1.38.39-3.1,1-5,.85-2.62,2.03-4.63,3-6-.52-1.35-1.14-3.46-1-6,.32-6.03,4.53-7.69,5-14,.29-3.89-1.07-6.4,0-7,1.65-.92,5.12,4.89,8,4,2.8-.87,2.99-7.45,3-8,.16-7.97-4.86-13.33-4-14,.71-.55,4.84,2.45,8,7,6.21,8.95,5.35,19.15,5,22-.07.61-.32,2.53-1,5-1.93,7.06-5.51,12.07-8,15,1.16,2.26,1.11,4.09,1,5-.5,4.19-4.48,7.85-10,9-.59,1.31-1.25,2.65-2,4-5.08,9.17-12.05,15.39-18.05,19.49.8-2.43,1.58-5.46,2-9,.52-4.33.35-8.09,0-11Z"/>
      <path class="cls-3" d="M157.45,67.57c.41-.28,2.52-1.65,5-1,.88.23,1.55.65,2,1,.86.09,2.33.32,4,1,3.65,1.5,3.71,3.32,10,10,1.74,1.85,3.53,3.61,3,5-.19.5-.64.81-1,1,3.72,3.02,6.32,5.91,8,8,2.78,3.46,4.88,6.12,4,8-.82,1.75-3.76,2.44-6,2-2.61-.51-4.08-2.52-6-5-1.98-2.56-4.96-6.32-9-11-.25-.21-.62-.54-1-1-1.26-1.54-1.57-3.22-2-6-.69-4.47-.64-4.84-1-5-1.25-.55-3.45,3.13-8,8-3.79,4.06-3.2,2.51-10,9-4.65,4.44-7.25,6.43-10,7-2.86.6-5.39.04-7.05-.51,1.6-1.86,3.34-4.19,5-7,1.26-2.14,2.24-4.17,3-6,2.86-1.46,7.08-4.07,11.05-8.49,2.94-3.27,4.81-6.51,6-9Z"/>
      <path class="cls-3" d="M128.4,101.06c2.38,1.93,4.49,2.83,5.98,3.3,1.66.53,3.46.97,6.84,1.96,3.04.89,2.98,1.77,5.87,2.93,3.45,1.39,6.53,1.25,12.71.98,4.67-.21,7-.31,8.8-.98,1.78-.66,3.22-1.53,4.89-.98.78.26,1.66.84,2.93,2.93,1.73,2.83,2.13,5.06,2.93,7.82.47,1.62,1.35,4.68,2.93,7.82,1.9,3.77,3.83,7.63,6.84,7.82,2.02.13,3.97-1.42,4.89-2.93,2.14-3.52.33-9.55-4.89-14.67-.23-1.64-.75-3.72-1.96-5.87-3.77-6.71-11.11-8.46-12.71-8.8.07-.24.17-.67.13-1.18-.14-1.66-1.65-2.76-2.19-3.16-3.64-2.67-17.74-1.74-27.27-2.5-3.85-.31-7.15-.91-9.73-1.5-.6,1.09-1.54,2.54-3,4-.88.88-2.2,2.01-4,3Z"/>
      <path class="cls-1" d="M174.45,102.57c.14.52.37,1.65,0,3-.47,1.71-1.59,2.68-2,3"/>
      <path class="cls-1" d="M189.45,117.57c-1.1.14-2.48.42-4,1-2.28.88-3.94,2.08-5,3"/>
      <path class="cls-1" d="M180.45,84.57c-.81.39-1.82.77-3,1-3.6.71-6.6-.38-8-1"/>
      <path class="cls-1" d="M167.45,74.57c.15-.63.32-1.72,0-3-.61-2.45-2.53-3.71-3-4"/>
      <path class="cls-1" d="M168.45,49.57c-1.4.17-3.09.23-5,0-4.71-.58-8.15-2.66-10-4"/>
      <path class="cls-1" d="M159.45,63.57c-1.25-.26-3.07-.8-5-2-2.69-1.67-4.23-3.77-5-5"/>
      <path class="cls-4" d="M165.45,23.57c-.43.48-1.19.9-2,1-1.51.19-2.7-.76-3-1-1.72-1.38-1.78-3.75-2-9-.33-8.06-.46-8.85,0-9,1.49-.49,4.91,7.29,6,10,2.12,5.25,1.82,7.09,1,8Z"/>
      <path class="cls-1" d="M19.4,30.06c.41.38,2.23,1.99,5,2,.58,0,3.26-.06,5-2,1.95-2.16,2.04-5.89,0-9"/>
      <path class="cls-1" d="M177.4,28.06c-.25.25-2.65,2.57-6,2-.35-.06-4.06-.75-5-4-.74-2.55.79-4.71,1-5"/>
      <circle class="cls-2" cx="116.28" cy="45.82" r="10.99"/>
      <circle class="cls-6" cx="116.6" cy="45.58" r="8.46"/>
      <circle cx="115.98" cy="45.68" r="5.13"/>
      <circle class="cls-5" cx="121.45" cy="40.59" r="3.47"/>
      <circle class="cls-2" cx="79.28" cy="45.82" r="10.99"/>
      <circle class="cls-6" cx="79.6" cy="45.58" r="8.46"/>
      <circle cx="78.98" cy="45.68" r="5.13"/>
      <circle class="cls-5" cx="84.45" cy="40.59" r="3.47"/>
    </g>
  </g>
</svg>