<?xml version="1.0" encoding="UTF-8"?>
<svg id="Layer_2" data-name="Layer 2" xmlns="http://www.w3.org/2000/svg" viewBox="0 0 138.06 184.52">
  <defs>
    <style>
      .cls-1, .cls-2 {
        fill: #fff;
      }

      .cls-2, .cls-3, .cls-4, .cls-5 {
        stroke: #000;
        stroke-miterlimit: 10;
      }

      .cls-3 {
        fill: #ffc656;
      }

      .cls-4 {
        fill: #79b0df;
      }

      .cls-6 {
        fill: #333;
      }

      .cls-5 {
        fill: #fcaf26;
      }
    </style>
  </defs>
  <g id="Layer_1-2" data-name="Layer 1">
    <g>
      <path class="cls-4" d="M20.57,72.18c-1.4-3.54-3.02-8.69-3.58-15.05-.36-3.98-2.25-25.2,13.62-41.57C45.03.68,63.81.45,67.88.5c5.3.07,22.99,1.13,36.56,15.77,1.13,1.22,14.66,16.3,12.9,37.99-.58,7.12-2.62,12.79-4.3,16.49.9,3.23,2.22,8.21,3.58,14.34,5.46,24.48,8.71,39.04,4.3,54.48-1.28,4.47-4.6,16.11-15.05,25.09-17.93,15.4-42.53,10.64-53.04,8.6-10.53-2.04-26.13-5.06-34.41-17.92-3.81-5.91-5.02-12.29-5.02-25.8,0-13.75,1.27-33.47,7.17-57.34Z"/>
      <path class="cls-5" d="M42.08,171.1c-2.34.1-5.59.43-9.32,1.43-6.71,1.8-11.21,4.77-12.19,3.58-.28-.34-.32-1.09.72-2.87-1.47,1.78-2.98,2.56-3.58,2.15-.51-.34-.42-1.58,0-2.87-4.07,1.59-4.83.98-5.02.72-.71-.99,1.65-3.99,3.58-5.73,1.5-1.36,4.41-3.47,9.32-4.3,1.56.97,3.24,1.93,5.02,2.87,4.05,2.13,7.92,3.76,11.47,5.02Z"/>
      <path class="cls-5" d="M82.22,174.69c-1.84,4.67-2.31,7.3-1.43,7.88.66.44,2.1-.28,4.3-2.15.13.37.35.88.72,1.43.48.73.84,1.27,1.43,1.43.56.15,1.09-.14,2.15-.72.56-.31,1.31-.77,2.15-1.43.6,1.79,1.31,2.75,2.15,2.87,2.25.32,5.35-5.42,9.32-17.2-2.05,1.59-4.91,3.47-8.6,5.02-4.83,2.02-9.18,2.67-12.19,2.87Z"/>
      <path class="cls-4" d="M19.14,77.92C5.52,89.37,2.23,100.46,1.22,105.87,0,112.45.24,120.93,2.65,121.64c1.06.31,1.99-1.04,5.73-2.87,2.28-1.11,4.31-1.76,5.73-2.15.21-5.57.66-11.56,1.43-17.92.92-7.54,2.18-14.49,3.58-20.79Z"/>
      <path class="cls-4" d="M110.17,83.65c3.49,1.29,8.34,3.6,12.9,7.88,10.96,10.28,14.63,26.6,11.47,28.67-1.05.69-1.95-.79-7.17-2.15-3.4-.88-6.33-1.07-12.19-1.43-6.45-.4-7.94-.11-10.04-1.43-2.45-1.55-3.67-4-4.3-5.73"/>
      <path class="cls-2" d="M31.33,80.07c-2.2-1.79-5.17-4.59-7.88-8.6-2.03-3.01-5.86-8.81-6.45-17.2-.18-2.48-.5-11.2,5.02-19.35,2.33-3.44,5.04-7.44,9.32-7.88,5.02-.52,10.61,4.02,13.62,11.47,2.16-2.24,5.46-5.24,10.04-7.88,4.5-2.6,14.31-8.28,23.65-5.73,11.83,3.22,20.09,18.88,17.92,32.97-2.51,16.28-17.91,23.71-19.35,24.37.67.47,1.68,1.2,2.87,2.15,3.1,2.48,14.36,12.04,25.09,45.16,4.11,12.7,4.16,16.57,3.58,20.07-1.64,9.9-8.19,16.16-9.32,17.2-11.85,11.01-29.65,8.87-43.72,7.17-9.47-1.14-15.75-3.46-19.35-5.02-4.25-1.84-9.95-4.29-14.34-8.6-9.67-9.49-9.09-24.12-8.6-36.56.34-8.62,1.22-25.15,12.9-38.71,1.92-2.22,3.72-3.9,5.02-5.02Z"/>
      <path class="cls-4" d="M121.64,138.13c1.61.1,3.83.3,6.45.72,5.8.93,8.7,1.4,9.32,2.87,1.3,3.08-6.34,9.24-10.75,12.19-6.69,4.47-13.14,6.32-17.2,7.17,2.41-2.68,5.33-6.48,7.88-11.47,2.2-4.3,3.5-8.28,4.3-11.47Z"/>
      <path class="cls-2" d="M14.84,105.16c-2.5,1.52-5.8,3.99-8.6,7.88-1.81,2.52-3.56,5.84-2.87,6.45.57.5,2.34-1.18,6.45-2.87,1.79-.73,3.31-1.18,4.3-1.43-.07-1.31-.08-2.75,0-4.3.11-2.14.39-4.06.72-5.73Z"/>
      <path class="cls-2" d="M97.99,101.57c.62-.79,1.91-.73,2.15-.72,3.52.16,4.25,5.12,9.32,7.88.44.24,1.72.64,4.3,1.43,7.22,2.23,8.6,2.12,12.19,3.58,3.84,1.57,7.38,3.79,7.17,4.3-.18.43-2.89-.68-7.88-1.43-3.74-.56-3.99-.2-9.32-.72-5.7-.55-8.59-.85-10.75-2.15-3.14-1.89-4.66-4.56-5.73-6.45-.88-1.55-2.49-4.39-1.43-5.73Z"/>
      <path class="cls-5" d="M34.91,56.41c-.08-.47,1.28-.71,2.87-2.15,1.73-1.57,1.6-2.64,2.87-3.58,1.51-1.12,3.42-.91,5.02-.72,5.67.7,10.43,4.81,12.19,6.45-2.94.38-5.39.59-7.17.72-3.53.24-6.17.16-11.47,0-2.24-.07-4.21-.16-4.3-.72Z"/>
      <path class="cls-3" d="M34.91,56.41c-.08.31,2.33.84,5.73,2.87,2.33,1.39,2.36,1.84,3.58,2.15,1.4.36,2.71.1,6.45-1.43,3.16-1.3,7.35-3.02,7.17-3.58-.14-.42-2.47.37-7.17.72-1.56.12-4.77.29-8.6,0-4.33-.32-7.08-1.05-7.17-.72Z"/>
      <circle class="cls-2" cx="72.36" cy="44.54" r="10.99"/>
      <circle class="cls-6" cx="69.69" cy="44.3" r="8.46"/>
      <circle cx="68.07" cy="44.39" r="5.13"/>
      <circle class="cls-1" cx="71.54" cy="39.3" r="3.47"/>
      <circle class="cls-2" cx="28.69" cy="43.21" r="8.32"/>
      <circle class="cls-6" cx="26.93" cy="43.03" r="6.4"/>
      <circle cx="26.46" cy="43.1" r="3.88"/>
      <circle class="cls-1" cx="30.6" cy="39.25" r="2.62"/>
    </g>
  </g>
</svg>