<?xml version="1.0" encoding="UTF-8"?>
<svg id="Layer_2" data-name="Layer 2" xmlns="http://www.w3.org/2000/svg" viewBox="0 0 218.89 232.05">
  <defs>
    <style>
      .cls-1 {
        fill: none;
      }

      .cls-1, .cls-2, .cls-3, .cls-4, .cls-5, .cls-6 {
        stroke: #000;
        stroke-miterlimit: 10;
      }

      .cls-7, .cls-3 {
        fill: #d1cfcb;
      }

      .cls-2 {
        fill: #807d78;
      }

      .cls-8, .cls-5 {
        fill: #fff;
      }

      .cls-4 {
        fill: #fffaef;
      }

      .cls-9 {
        fill: #333;
      }

      .cls-6 {
        fill: #f89b63;
      }
    </style>
  </defs>
  <g id="Layer_1-2" data-name="Layer 1">
    <g>
      <path class="cls-3" d="M24.5,46.5c1.78-1.46,3.86-.72,6-1,5.5-.72,7.9-7.72,11-12,6.41-8.86,19.44-11.2,27-11,13.12.34,25.9,8.75,31,20,3.93,8.67,2.48,17.26,0,32-2.71,16.11-6.8,20.51-4,29,2.92,8.86,10.56,13.78,14,16,10.4,6.71,16.7,4.13,31,8,4.53,1.23,20.13,5.64,33,18,11.02,10.59,21.03,27.98,16,37-.27.49-2.31,4.14-6,5-4.08.95-7.34-2.17-11-4-7.12-3.57-14.25-1.51-22,0-20.69,4.04-44.74,4.01-51,4-20.73-.03-34.75-.04-47-10-1.04-.84-15.78-13.19-17-32-.74-11.43,3.68-22.81,5-26,2.68-6.44,4.54-7.85,6-14,1.03-4.34,3.18-13.36-1-21-3.54-6.46-7.36-4.19-15-13-.98-1.13-8.04-9.47-8-19,.02-3.9,1.21-5.35,2-6Z"/>
      <path class="cls-4" d="M22.5,56.5c1.61.52,3.9-2.09,5-4,.89-1.55,2.68-4.67,1-7-1.47-2.03-4.88-2.47-7-1-2.54,1.76-2.07,5.45-2,6,.14,1.07.51,1.91,1,3,.82,1.83,1.23,2.75,2,3Z"/>
      <path class="cls-1" d="M26.5,66.5c.54.34,2.02,1.16,4,1,3.07-.25,4.77-2.66,5-3"/>
      <path class="cls-4" d="M44.5,110.5c.98-.93,3.05-2.61,6-3,5.37-.7,9.47,3.45,10,4,4.18,4.36,2.8,9.4,4,25,.67,8.7,1,13.04,2,15,4.7,9.23,17.56,11.49,33,14,27.06,4.39,42,5,42,5,1.11.04,3.08.11,5.41.64,1.47.33,4.46,1.1,7.59,3.36,3.29,2.38,5.09,5.25,6,7-8.37,1.7-20.8,3.84-36,5-35.87,2.74-56.54,4.32-72-9-11.15-9.61-18.21-25.8-17-42,.89-11.89,6-20.64,9-25Z"/>
      <g>
        <path class="cls-7" d="M94.5,152.5c-2.17,5.38-3.93,12.52-2,20,3.76,14.57,18.95,20.47,17,25-1.92,4.46-17.76,1.26-19,1-6.49-1.35-15.63-3.26-21-11-3.74-5.39-3.84-11.01-4-21-.14-8.4.97-15.31,2-20"/>
        <path d="M94.5,152.5c-4.48,11.12-3.36,22.88,4.93,31.85,1.87,2.14,3.96,4.08,6.05,6.04,1.55,1.52,3.33,2.94,4.33,4.97,2.6,8.05-17.22,4.17-21.14,3.26-15.03-3-23.69-10.41-23.35-26.47-.32-8.59.13-17.28,2.19-25.65-1.76,8.44-2,17.05-1.56,25.62,0,18.17,10.87,23.72,27.13,26.34,3.42.67,20.95,3.06,14.8-4.43-2.86-3.17-6.28-5.86-9.02-9.19-8.28-9.26-9.3-21.22-4.35-32.35h0Z"/>
      </g>
      <path class="cls-3" d="M36.5,153.5c-.58,10.35-3.84,14.86-7,17-5.04,3.41-12.39,2.54-14,7-.12.34-.63,1.76,0,3,1.18,2.32,5.07,1.57,13,2,5.74.31,11.7,1.14,17,0,1.05-.22,2.65-.65,4-2,1.39-1.39,1.83-3.08,2-4-2.57-2.13-5.93-5.38-9-10-3.31-4.97-5.05-9.67-6-13Z"/>
      <path class="cls-4" d="M175.5,185.5c-1.23,1.97-3.28,5.17-6,9-7.26,10.22-10.84,13.08-13,20-1.4,4.48-2.19,10.9,0,12,1.86.94,5.32-2.29,7-4-.85,2.64-.33,5.19,1,6,1.64.99,5.22-.19,7-4-.25,3.69.54,6.59,2,7,1.7.49,3.93-2.54,5-4,2.94-4,3.8-8.02,4-9,2.18-10.68,2.03-26.87,2-29,2.09,3.66,3.29,6.82,4,9,2.8,8.63,1.52,13.1,5,21,.4.91,3.8,8.5,6,8,1.73-.39,1.96-5.58,2-8,1.26,4.63,5.03,6.73,7,6,1.81-.67,3.14-4.11,2-8,1.46,2.79,3.46,4.35,5,4,.24-.05,1.16-.31,2-2,2.28-4.59-.48-10.86-1-12-4.01-8.79-12.41-14.54-16-17-.96-.66-3.35-2.25-6-5-1.88-1.95-3.19-3.77-4-5-1.62,4.1-5.16,6.86-9,7-2.96.11-5.16-1.36-6-2Z"/>
      <ellipse class="cls-2" cx="90" cy="50" rx="3.5" ry="4.5"/>
      <ellipse class="cls-2" cx="93.5" cy="64.5" rx="4" ry="3" transform="translate(1.12 130.59) rotate(-70.18)"/>
      <circle class="cls-2" cx="84.5" cy="76.5" r="4"/>
      <ellipse class="cls-2" cx="91" cy="86.5" rx="2.5" ry="2"/>
      <ellipse class="cls-2" cx="85" cy="93" rx="2.5" ry="4.5" transform="translate(-29.1 39.56) rotate(-22.48)"/>
      <ellipse class="cls-2" cx="92" cy="104.5" rx="1.5" ry="1"/>
      <circle class="cls-2" cx="89.5" cy="113.5" r="3"/>
      <ellipse class="cls-2" cx="105" cy="123.5" rx="4.5" ry="4"/>
      <ellipse class="cls-2" cx="93.5" cy="123" rx="3" ry="2.5"/>
      <ellipse class="cls-2" cx="101" cy="133" rx="3.5" ry="1.5"/>
      <circle class="cls-2" cx="113.5" cy="133.5" r="3"/>
      <ellipse class="cls-2" cx="124.5" cy="129.5" rx="2" ry="3" transform="translate(-49.9 172.57) rotate(-60)"/>
      <ellipse class="cls-2" cx="136" cy="138" rx="2.5" ry="1.5"/>
      <ellipse class="cls-2" cx="127" cy="140.5" rx="2.5" ry="3"/>
      <circle class="cls-2" cx="134.5" cy="130.5" r="1"/>
      <circle class="cls-2" cx="147.5" cy="138.5" r="2"/>
      <circle class="cls-2" cx="143.5" cy="146.5" r="2"/>
      <ellipse class="cls-2" cx="160.5" cy="143" rx="3" ry="4.5" transform="translate(-54.44 139.92) rotate(-40.88)"/>
      <circle class="cls-2" cx="153" cy="147" r="2.5"/>
      <circle class="cls-2" cx="167.5" cy="151.5" r="2"/>
      <circle class="cls-2" cx="83.5" cy="64.5" r="1"/>
      <circle class="cls-2" cx="94" cy="74" r="1.5"/>
      <path d="M18.5,55.5c-.76,4.73-5.23,8.71-10,9,4.35-1.74,7.83-4.79,10-9h0Z"/>
      <path d="M20.5,58.5c-.4,4.45-3.14,8.75-7,11,2.96-3.37,5.21-6.89,7-11h0Z"/>
      <circle class="cls-6" cx="22" cy="22" r="21.5"/>
      <circle class="cls-5" cx="57.38" cy="49.27" r="14.82"/>
      <circle class="cls-9" cx="54.92" cy="47.24" r="11.41"/>
      <circle cx="53.15" cy="45.88" r="6.92"/>
      <circle class="cls-8" cx="62.09" cy="48.23" r="4.67"/>
    </g>
  </g>
</svg>