<?xml version="1.0" encoding="UTF-8"?>
<svg id="Layer_2" data-name="Layer 2" xmlns="http://www.w3.org/2000/svg" viewBox="0 0 472.16 279.65">
  <defs>
    <style>
      .cls-1 {
        fill: none;
      }

      .cls-1, .cls-2, .cls-3, .cls-4 {
        stroke: #000;
        stroke-miterlimit: 10;
      }

      .cls-5, .cls-2 {
        fill: #fff;
      }

      .cls-3 {
        fill: #164ea2;
      }

      .cls-4 {
        fill: #1f2b5e;
      }

      .cls-6 {
        fill: #333;
      }
    </style>
  </defs>
  <g id="Layer_1-2" data-name="Layer 1">
    <g>
      <path class="cls-3" d="M11.5,179.88c-1.58-9.01-2.91-22.79,0-39,8.24-45.84,43.07-70.33,47-73,2.96-2.01,43.51-28.67,89-16,30.96,8.63,53.27,32.43,81,62,17.21,23.45,35.77,35.21,47,41,16.54,8.53,25.13,8.21,28,8,20.73-1.56,33.73-19.72,38-26,6-8.82,15.92-23.43,11-37-2.67-7.35-8.58-11.32-20-19-15.96-10.72-21.17-8.65-29-17-1.54-1.65-11.77-12.82-11-28,1.08-21.31,23.19-38.15,29-35,3.1,1.68-1.35,7.45,2,15,7.67,17.29,42.1,12.09,49,30,.68,1.76.91,3.28,1,4,.47-.8,1.45-2.36,3-4,14.15-15.02,40.23.23,59-14,8.56-6.49,12-12,12-12,3.84-6.15,4.5-11.4,9-13,2.89-1.03,6.15-.11,8,1,10.37,6.21,10.37,38.58-6,58-6.26,7.43-13,10.68-24,16-29.42,14.22-42.29,7.3-51,19-7.28,9.78.55,16.18-6,39-4.56,15.9-12.36,26.69-17,33,0,0-15.68,21.32-41,35-51.97,28.08-117.91,2.46-124,0-17.45,6.86-31.55,8.53-40,9-64.71,3.62-110.86-45.6-143-25-1.98,1.27-3.41,2.48-4,3-4.86-.6-8.14-4.49-8-8,.17-4.14,5.13-8.31,11-7Z"/>
      <path class="cls-2" d="M8.5,194.88c-.12.34-1.26,3.9,1,7,1.79,2.45,4.46,2.92,5,3,1.78,2.14,4.51,5.32,8,9,57,60,139.76,64.48,159,65,26.26.7,64.73,1.74,106-21,57.86-31.88,79.27-87.35,85-104-6.79,12.99-19.79,32.97-43,48-58.44,37.85-127.04,9.05-134,6-7.4,2.9-18.37,6.44-32,8-28.79,3.3-52.33-4.17-64-8-19.95-6.55-33.28-14.75-56-20-5.68-1.31-17.18-3.65-28,2-3.22,1.68-5.56,3.64-7,5Z"/>
      <path d="M332.5,210.88c-37.94,26.32-88.35,33.04-131.89,17.68-6.2-2.16-12.26-4.73-18.11-7.68,5.93,2.81,12.04,5.21,18.27,7.22,43.69,14.58,93.21,7.94,131.73-17.22h0Z"/>
      <path d="M301.5,233.88c-42.3,23.87-93.61,20.69-136.92,1.12-6.17-2.75-12.2-5.81-18.08-9.12,5.96,3.17,12.06,6.07,18.28,8.67,43.28,18.8,94.23,21.94,136.72-.67h0Z"/>
      <path d="M303.5,238.88c-56.68,25.49-121.49,28.11-175.7-4.93-7.46-4.49-14.56-9.57-21.3-15.07,6.84,5.36,14.02,10.3,21.55,14.64,54.46,32.29,118.45,29.57,175.45,5.36h0Z"/>
      <path d="M291.5,248.88c-61.71,26.82-140.69,29.64-193.77-16.92-7.4-6.37-14.13-13.48-20.23-21.08,6.22,7.5,13.07,14.48,20.55,20.71,53.78,45.89,131.09,42.82,193.45,17.29h0Z"/>
      <path d="M273.5,259.88c-57.31,23.59-124.65,19.38-177.8-12.86-17.61-10.54-33.59-23.79-47.2-39.14,34.55,37.8,83.46,62.22,134.66,65.65,30.59,2.21,61.73-2.61,90.34-13.65h0Z"/>
      <path d="M111.5,266.88c-27.64-10.09-52.75-26.94-72.78-48.46-2.84-3.1-5.6-6.26-8.22-9.54,22.1,25.24,49.99,45.2,81,58h0Z"/>
      <path class="cls-3" d="M39.5,229.88c-2.1,3.52-4.9,9.46-5,17-.19,14.86,10.24,28.1,14,27,2.69-.79.04-8.38,5-15,4.13-5.52,11.34-7.43,18-8-5.31-2.76-11.04-6.06-17-10-5.6-3.7-10.59-7.42-15-11Z"/>
      <path class="cls-3" d="M267.5,200.88c18.07,2.27,30.15,7.98,38,13,12.6,8.06,16.11,15.48,32,22,3.35,1.38,8.14,3.08,8,5-.26,3.54-17.01,4.92-18,5-35.36,2.77-70.17-17.35-80-25-1-.78-3.76-3-8-5-6.77-3.2-13.27-3.94-18-4"/>
      <ellipse class="cls-4" cx="125" cy="69.88" rx="8.5" ry="3"/>
      <path d="M7.82,194.15c10.89-10.4,25.96-10.14,39.53-6.17,13.33,3.38,26.01,8.89,38.63,14.15,43.97,18.91,89.44,21.01,130.52-6.25-30.56,21.14-69.47,26.26-105.01,16.21-17.74-4.52-34.25-12.77-51.47-18.69-12.64-3.89-26.45-8.84-39.56-4.57-4.2,1.38-8.08,3.7-11.27,6.77l-1.37-1.45h0Z"/>
      <path class="cls-1" d="M49.5,236.88c-1.99,1.74-6.36,6.06-8,13-3.06,12.92,6.14,23.08,7,24"/>
      <path d="M14.36,204.4c4.28-1.14,10.75-2.62,15.14-3.52-2.64.75-8.66,2.43-11.17,3.29,0,0-3.69,1.18-3.69,1.18l-.29-.96h0Z"/>
      <circle class="cls-2" cx="198.66" cy="178.38" r="16"/>
      <circle class="cls-6" cx="199.13" cy="178.03" r="12.32"/>
      <circle cx="198.23" cy="178.17" r="7.47"/>
      <circle class="cls-5" cx="206.19" cy="170.76" r="5.04"/>
    </g>
  </g>
</svg>