<?xml version="1.0" encoding="UTF-8"?>
<svg id="Layer_2" data-name="Layer 2" xmlns="http://www.w3.org/2000/svg" viewBox="0 0 284.25 287.03">
  <defs>
    <style>
      .cls-1 {
        fill: none;
      }

      .cls-1, .cls-2, .cls-3, .cls-4, .cls-5, .cls-6 {
        stroke: #000;
        stroke-miterlimit: 10;
      }

      .cls-2 {
        fill: #ff6440;
      }

      .cls-7, .cls-4 {
        fill: #fff;
      }

      .cls-3 {
        fill: #ffb076;
      }

      .cls-8 {
        fill: #333;
      }

      .cls-6 {
        fill: #999;
      }
    </style>
  </defs>
  <g id="Layer_1-2" data-name="Layer 1">
    <g>
      <path class="cls-6" d="M211.53,123.5c3.03.27,7.29.99,12,3,6.33,2.7,10.59,6.49,13,9h-5c3.24,1.96,8.45,5.69,13,12,4.19,5.82,6.09,11.44,7,15-1.67-1-3.33-2-5-3,2.98,4.24,6.19,9.57,9,16,1.71,3.91,3.01,7.62,4,11-1.67-.67-3.33-1.33-5-2,1.18,3.02,2.79,6.43,5,10,4.25,6.87,9.13,11.74,13,15h-6c1.24,1.59,3.77,4.85,7,9,8.68,11.13,10.99,13.96,10,16-1.25,2.57-6.89,2.2-10,2-3.84-.25-11.47-1.44-20-8,.47,1.47.83,3.27,0,4-1.49,1.32-6.03-1.52-8-3-2.34-1.75-6.82-5.93-9-15,0,3.09-.53,3.86-1,4-1.89.55-6.88-8.07-9-17-.69-2.89-1.29-6.71-1-16,.35-11.37,1.66-19.11,2-22,1-8.63-1.18-21.58-16-40Z"/>
      <path class="cls-6" d="M131.53,195.5c-.11,1.83-.05,4.71,1,8,.85,2.64,2.04,4.65,3,6,.67-1,1.33-2,2-3,.15,1.37.57,3.63,2,6,2.29,3.81,5.69,5.45,7,6v-4c1.25,1.49,3.24,3.68,6,6,3.74,3.14,5.56,3.71,7,6,.51.8,1.85,3.22,1,10-.9,7.16-2.11,16.82-9,21-3.72,2.25-6.13,1.11-13,5-2.27,1.29-4.2,2.65-5,5-.56,1.64-.89,4.76,1,6,1.56,1.02,3.68.14,4,0,.21.46,1.04,2.11,3,3,2.42,1.1,4.64.16,5,0,1.08.4,2.82.92,5,1,4.68.18,10.7-1.67,13-6,.91-1.72.75-2.89,1-5,.74-6.26,3.81-9.6,7-15,3.66-6.19,8.35-14.14,8-23-.29-7.35-3.79-8.49-5-16-.97-6.06-.09-13.99,6-24-6.15-.71-14-1.04-23,0-11.25,1.3-20.42,4.28-27,7Z"/>
      <path class="cls-6" d="M39.53,164.5c-.02,3.64.29,8.94,2,15,1.58,5.62,3.65,9.34,5,12,4.35,8.54,6.25,15.68,9,26,3.71,13.94,7.61,38.08,0,42-1.55.8-2.72.31-7,2-3.43,1.35-7.44,2.92-8,6-.24,1.29.13,2.83,1,4,1.05,1.41,2.5,1.87,3,2,.07.35.45,2,2,3,1.46.94,3.4.93,5,0,.86.67,2.21,1.54,4,2,7.09,1.84,14.16-4.47,17-7,9.52-8.49,9.36-38.16,0-75"/>
      <path class="cls-6" d="M14.53,6.5c.56-.93,5.74.73,10,3,7.73,4.12,10.56,8.96,18,12,5.65,2.31,8.02.97,13,2,13.74,2.85,21.17,17.76,24,23,6.72,12.44,4.09,18,12,28,3.85,4.86,8.03,8.05,11,10-.44.34-1.12.76-2,1-2.15.58-3.77-.39-4,0-.3.53,2.55,2.35,5,5,2.01,2.18,3.24,4.38,4,6-1.67-.33-3.33-.67-5-1,.2,1.52.68,3.73,2,6,3.86,6.65,11.9,8.65,19,10,23.03,4.36,43.56,3.16,46,3,16.71-1.08,18.14-2.72,25-1,16.09,4.03,25.18,17.33,27,20,11.67,17.09,9.44,36.24,9,40-1.63,13.99-5.71,13.94-5,25,.98,15.36,9.76,17.64,9,32-.33,6.18-2.43,14.76-6,22-1.4,2.84-3.85,7.15-6,14-1.44,4.59-.97,4.66-2,7-3.04,6.87-10.31,13.45-16,12-1.89-.48-3.2-1.89-4-3-1.4,1.21-3.31,1.6-5,1-2.12-.75-2.89-2.71-3-3-.27.21-2.24,1.68-4,1-2.1-.81-2.42-4.04-2-6,.55-2.57,2.61-4.03,4-5,3.29-2.28,5.39-1.77,8-3,2.84-1.35,4.31-3.84,7-10,5.97-13.66,8.95-20.5,8-27-.33-2.28-.98-6.67-4-11-3.33-4.77-7.13-5.99-11-12-1.57-2.44-2.49-4.63-3-6v6c-1.51-.54-4.56-1.89-7-5-4.29-5.47-3.2-11.92-3-13l-3,3c-1-1.33-2-2.67-3-4-3.93-.37-9.86-.68-17,0-6.7.64-11.65,1.88-23,5-23.09,6.35-21.27,6.36-25,7-5.17.89-19.05,3.28-33-2-17.39-6.59-26.02-21.75-33-34-6.33-11.11-11.94-20.96-12-34-.14-28.31,25.97-47.18,30-50,.13-1.04.19-2.41,0-4-.2-1.64-.61-3-1-4,1.67,1,3.33,2,5,3,.45-2.67.71-6.76-1-11-2.39-5.93-7.49-9.33-13-13-6.43-4.29-7.89-3.62-11-7-3.49-3.79-2.58-5.64-6-12-3.45-6.41-7.67-10.65-13-16-6.28-6.3-10.55-9.09-10-10Z"/>
      <path class="cls-4" d="M7.53,12.5c-1.84,3.1-1.95,6.04-2,8-.15,6.15,2.53,10.83,4,13-1.1.13-3.11.54-5,2-2.87,2.21-4.28,5.9-4,9,.1,1.15.57,3.65,10,12,5.43,4.81,6.76,5.14,9,8,3.11,3.98,4.4,8.17,5,11,1.15,6.24.17,10.36-1,13-.64,1.45-1.42,2.65-3,6-1.38,2.92-2.37,5.37-3,7,1.67-.67,3.33-1.33,5-2-1.11,2.27-2.44,5.68-3,10-.73,5.65.22,10.27,1,13,.49-.89,1.14-1.93,2-3,1.04-1.29,2.1-2.27,3-3-1.31,2.08-3.09,5.61-3,10,.05,2.52,1.04,5.05,3,10,2.46,6.2,3.53,7.54,5,12,1.12,3.39,1.7,6.23,2,8,1.33-.67,2.67-1.33,4-2,.47,2.48,1.12,5.17,2,8,1.72,5.54,3.9,10.22,6,14,.67-1.67,1.33-3.33,2-5,.89,2.64,2.39,6.23,5,10,7.25,10.48,19.23,16.85,21,15,1.12-1.17-2.3-5.14-6-12-4.03-7.47-8.32-18.2-10-33,2.33-5.67,4.67-11.33,7-17,1,1.67,2,3.33,3,5,1.22-1.72,3.31-5.16,4-10,.88-6.23-1.09-11.07-2-13,1.67,1,3.33,2,5,3,.61-2.06,1.27-5.19,1-9-.4-5.74-2.68-9.93-4-12h5c-.52-1.48-1.42-3.65-3-6-1.45-2.15-2.45-2.95-4-5-1.14-1.52-2.65-3.81-4-7,.13-1.04.19-2.41,0-4-.2-1.64-.61-3-1-4,1.67,1,3.33,2,5,3,.28-2.16.45-5.86-1-10-.57-1.62-1.79-4.48-5-8-7.27-7.97-13.07-6.51-19-13-3.52-3.85-1.04-3.88-6-12-4.12-6.73-8.76-11.51-17-20-2.48-2.55-4.57-4.61-6-6-1.39.59-4.77,2.25-7,6Z"/>
      <path class="cls-1" d="M64.53,80.5c.27.75,1.06,3.24,0,6-.56,1.45-1.42,2.44-2,3-1-1.67-2-3.33-3-5-.18,1.35-.76,4.25-3,7-3.31,4.05-7.85,4.84-9,5,.33-2.33.67-4.67,1-7-1.53,1-3.2,2-5,3-2.09,1.15-4.1,2.15-6,3l-3-9"/>
      <path class="cls-2" d="M13.53,38.5c-2.93-.42-5.34.44-6,2-.69,1.61.67,3.53,1,4,3.67,5.2,14.44,3.29,16,3"/>
      <path class="cls-1" d="M9.53,33.5c1.63,2.35,3.91,5.18,7,8,3.63,3.31,7.19,5.53,10,7"/>
      <path class="cls-5" d="M21.53,16.5c2.55-2.41,1.22-7.21,1-8-.79-2.85-3.42-7.97-8-8-4.92-.03-8.96,5.85-8,10,.45,1.94,1.89,3.1,3,4,3.15,2.54,9.1,4.74,12,2Z"/>
      <path class="cls-6" d="M76.53,47.5c2.5-.08,6.58.12,11,2,1.25.53,3.81,1.74,13,11,7.48,7.54,8.62,9.59,8,11-.44,1-1.63,1.35-4,2-4.13,1.14-7.26.98-10,1-6.97.05-6.96,1.25-11,1-3.03-.19-7.56-1.13-13-5"/>
      <path class="cls-3" d="M79.53,56.5c.13,1.07.2,2.44,0,4-.34,2.67-1.28,4.73-2,6,1.56.64,3.97,1.49,7,2,1.32.22,10.79,1.81,12-1,.98-2.26-3.65-6.81-8-9-3.56-1.8-6.95-2.03-9-2Z"/>
      <path class="cls-1" d="M36.53,154.5c1.95-.97,4.51-2.52,7-5,4.46-4.44,6.26-9.38,7-12"/>
      <path class="cls-1" d="M24.53,75.5c.49.89,1.14,1.93,2,3,1.04,1.29,2.1,2.27,3,3"/>
      <path class="cls-6" d="M114.53,162.5c-2.05,6.46-4.29,11.5-6,15-3.39,6.92-5.07,8.43-6,13-1.2,5.94.55,8.75,1,15,.35,4.83-.5,5.89-4,21-6.85,29.59-5.79,35.08-5,38,.58,2.16,1.34,4.11,1,7-.87,7.3-8.11,14.97-16,15-2.1,0-3.84-.53-5-1-.44.29-1.94,1.2-4,1-2.29-.22-3.68-1.65-4-2-.49.13-3.83.94-6-1-2.19-1.95-2.04-5.66-1-8,2.49-5.58,10.2-3.67,15-9,2.11-2.34,2.7-5.02,3-15,.3-9.82.45-30.86-4-51-.4-1.8-.67-2.88-1-4-2.5-8.56-5.82-12.11-9-19-1.26-2.73-2.85-6.75-4-12"/>
      <path class="cls-1" d="M177.53,188.5c-.72-1.33-1.62-3.37-2-6-.59-4.08.38-7.36,1-9-1,1.33-2,2.67-3,4-.34-2.92-.5-6.68,0-11,.57-4.95,1.83-9.02,3-12"/>
      <path class="cls-1" d="M44.53,273.5c0-.32.11-2.57,2-4,1.21-.92,2.51-1,3-1"/>
      <path class="cls-1" d="M51.53,276.5c-.1-.24-.66-1.61,0-3,.66-1.38,2.27-2.21,4-2"/>
      <path class="cls-1" d="M66.53,284.5c-.14-.33-.83-2.09,0-4,1.09-2.51,3.82-2.97,4-3"/>
      <path class="cls-1" d="M74.53,285.5c-.14-.37-.77-2.07,0-4,.84-2.09,2.68-2.87,3-3"/>
      <path class="cls-1" d="M138.53,273.5c-.43-1.41-.04-2.96,1-4s2.59-1.43,4-1"/>
      <path class="cls-1" d="M146.53,276.5c-1.23-1.54-1.19-3.68,0-5,.96-1.07,2.53-1.46,4-1"/>
      <path class="cls-1" d="M190.53,280.5c-.09-.2-.69-1.56,0-3,.54-1.14,1.7-1.91,3-2"/>
      <path class="cls-1" d="M198.53,282.5c-.06-.11-1.1-2.07,0-4,.97-1.69,2.79-1.97,3-2"/>
      <circle class="cls-4" cx="46.83" cy="40.38" r="9.78"/>
      <circle class="cls-8" cx="47.15" cy="40.54" r="7.53"/>
      <circle cx="46.82" cy="40.09" r="4.57"/>
      <circle class="cls-7" cx="53.12" cy="42.23" r="3.08"/>
    </g>
  </g>
</svg>