<?xml version="1.0" encoding="UTF-8"?>
<svg id="Layer_2" data-name="Layer 2" xmlns="http://www.w3.org/2000/svg" viewBox="0 0 87.67 84.21">
  <defs>
    <style>
      .cls-1 {
        fill: #fff;
      }

      .cls-2 {
        fill: #bf4a27;
      }

      .cls-3 {
        fill: #231f20;
      }

      .cls-4 {
        fill: #333;
      }

      .cls-5 {
        fill: #a43022;
      }
    </style>
  </defs>
  <g id="Layer_1-2" data-name="Layer 1">
    <g>
      <path class="cls-3" d="M55.67,51.21c-.03,4.11-.51,7.52-1,10-1.03,5.26-1.61,8-4,10-3.08,2.58-7.72,2.69-8,2-.1-.24.36-.52,2-2,1.96-1.77,3.14-2.83,4-4,1.05-1.43,1.39-2.69,2-5,.48-1.83,1.02-4.56,1-8,1.33-1,2.67-2,4-3Z"/>
      <path class="cls-3" d="M42.67,56.21c-.31,1.43-.88,3.57-2,6-.9,1.95-2.83,6.02-7,9-1.32.94-4.26,3.05-6,2-.68-.41-1.23-1.34-1-2,.41-1.2,3.03-.45,5-2,1.26-.99,1.49-2.32,2-4,1.47-4.88,4.7-11.16,7-11,.48.03,1.2.37,2,2Z"/>
      <path class="cls-5" d="M38.67,51.21c-.37-1.29-1.29-4.41-4-7-4.18-4.01-9.72-4-12-4-9.9,0-16.2,7.07-17,8-1.2,1.38-7.76,8.98-5,15,1.65,3.61,5.81,4.8,10,6,2.97.85,12.29,3.01,21-2,2.3-1.32,5.51-3.17,7-7,1.48-3.8.44-7.44,0-9Z"/>
      <path class="cls-2" d="M36.67,51.21c-1.26-3.64.77-6.98,2-9,2.87-4.72,7.37-6.47,9-7,2.45-.8,6.16-2.01,9,0,2.93,2.07,2.99,6.17,3,7,.1,6.94-6.83,11.3-8,12-1.99,1.2-5.9,3.54-10,2-.33-.13-3.78-1.48-5-5Z"/>
      <path class="cls-2" d="M54.67,37.21c-1.11-.92-4.18-3.53-5-8-1.17-6.39,3.26-11.2,4-12,4.21-4.57,9.73-4.95,11-5,1.39-.06,5.86-.06,10,3,3.59,2.65,7.91,8.31,6,13-.86,2.11-2.71,3.34-4,4,.21.78.35,1.86,0,3-1.1,3.56-6.15,4.61-8,5-1.28.27-8.27,1.73-14-3Z"/>
      <path class="cls-3" d="M60.67,16.21c-1.44-2.85-1.31-4.81-1-6,1.22-4.75,7.68-6.75,7-9-.19-.62-.82-.92-1-1-2.43-1.12-7.45,2.52-9,7-1.42,4.11.43,7.93,1,9"/>
      <path class="cls-3" d="M59.67,43.21c1,.37,2.44.98,4,2,2.24,1.46,3.24,2.77,6,6,6.41,7.49,7.92,8.43,9,9,.35.18,1.57.79,4,2,4.04,2.01,5.07,2.5,5,3-.1.7-2.26,1.08-4,1-.8-.04-3.25-.25-7-3-2.58-1.89-4.18-3.81-6-6-1.58-1.9-2.56-3.34-5-6-1.44-1.57-2.44-2.53-4-3-1.62-.49-3.11-.24-4,0,.67-1.67,1.33-3.33,2-5Z"/>
      <path class="cls-3" d="M71.67,13.21c.45-2.11,1.33-3.31,2-4,2.01-2.06,4.23-1.66,6-4,.67-.89,1.48-2.44,1-3-.74-.86-4.51.72-7,3-2.6,2.38-3.59,5.32-4,7,.67.33,1.33.67,2,1Z"/>
      <path d="M76.67,32.21c-2.64,1.72-5.88,2.5-9,2,3.15.14,6.2-.58,9-2h0Z"/>
      <path class="cls-3" d="M47.67,51.21c.58.15.89.77,1,1,1.4,2.86-2.45,15.21-3,17-2.18,7.08-2.38,9.33-5,12-.89.91-3.09,3.08-6,3-1.79-.05-3.93-.95-4-2-.06-.91,1.46-1.71,2-2,1.8-.95,2.81-.48,4-1,1.44-.63,1.86-2.16,3-6,.99-3.34,2.02-6.66,3-10,1.93-6.55,1.98-6.29,2-7,.03-1.13-.07-2.76,1-4,.12-.14,1.08-1.23,2-1Z"/>
      <path class="cls-3" d="M54.67,47.21c.37-.69,1-1,1-1,.88-.43,1.81-.07,2,0,1.18.45,1.78,1.58,2,2,2.6,5.04,5.56,9.88,8,15,2.39,5.02,3.85,7.45,6,8,.28.07,1.48.34,3,1,1.18.51,3.09,1.33,3,2-.09.69-2.33,1.05-4,1-3.3-.09-5.68-1.77-6-2-2.29-1.66-2.5-3.25-5-8-1.13-2.15-3.11-5.92-6-10-2.01-2.84-4.85-6.39-4-8Z"/>
      <path class="cls-2" d="M29.67,41.21c-.89,2.1-1.88,5.19-2,9-.26,8,3.46,13.84,5,16-.99.88-2.66,2.12-5,3-2,.75-3.77.95-5,1-1.44-1.66-5.3-6.56-6-14-.77-8.25,2.85-14.25,4-16,1.28-.17,3-.27,5,0,1.6.22,2.95.61,4,1Z"/>
      <path class="cls-2" d="M7.67,46.21c-.71,2.02-1.96,6.45-1,12,.96,5.57,3.65,9.34,5,11-5.26-.38-9.69-3.09-11-7-1.29-3.85.8-7.75,2-10,1.59-2.96,3.63-4.9,5-6Z"/>
      <path class="cls-3" d="M35.67,56.21c-.59,2.01-1.53,4.8-3,8-1.84,4.01-3.52,7.57-7,11-3.8,3.75-7.12,4.75-8,5-2.13.59-5.52,1.04-6,0-.26-.58.43-1.5,1-2,1.46-1.27,3.22-.7,5-1,2.34-.4,3.73-2.15,6-5,1.25-1.57,2.21-3.09,6-11,2.31-4.81,2.98-6.4,5-8,.71-.57,3.22-2.43,6-2,1.38.21,1.89.85,2,1,.64.86.62,2.19,0,3-.53.7-1.36.81-3,1-.97.11-2.34.19-4,0Z"/>
      <circle class="cls-1" cx="78.29" cy="19.35" r="7.2"/>
      <circle class="cls-4" cx="78.12" cy="19.14" r="5.54"/>
      <circle cx="78.21" cy="19.55" r="3.36"/>
      <circle class="cls-1" cx="74.65" cy="16.19" r="2.27"/>
      <circle class="cls-1" cx="63.76" cy="22.13" r="8.09"/>
      <circle class="cls-4" cx="63.57" cy="21.9" r="6.23"/>
      <circle cx="63.67" cy="22.35" r="3.78"/>
      <circle class="cls-1" cx="59.67" cy="18.57" r="2.55"/>
    </g>
  </g>
</svg>