<?xml version="1.0" encoding="UTF-8"?>
<svg id="Layer_2" data-name="Layer 2" xmlns="http://www.w3.org/2000/svg" viewBox="0 0 172.66 245">
  <defs>
    <style>
      .cls-1 {
        fill: #221f1f;
      }

      .cls-2 {
        fill: #f0e81a;
      }

      .cls-2, .cls-3, .cls-4, .cls-5, .cls-6, .cls-7, .cls-8, .cls-9 {
        stroke: #221f1f;
        stroke-miterlimit: 10;
      }

      .cls-10 {
        fill: #5cb947;
      }

      .cls-3 {
        fill: #f7a492;
      }

      .cls-5 {
        fill: none;
      }

      .cls-6 {
        fill: #fff;
      }

      .cls-7 {
        fill: #5ab947;
      }

      .cls-8 {
        fill: #9dcb3b;
      }

      .cls-9 {
        fill: #f7ec33;
      }
    </style>
  </defs>
  <g id="Layer_1-2" data-name="Layer 1">
    <g>
      <path class="cls-8" d="M135.29,175.57c2.2,1.01,3.3,2.44,5.53,5.28,15.79,20.06,13.35,15.19,20.64,25.8,7.78,11.33,12.2,19.28,10.24,23.7-.18.4-.72,1.63-1.99,2.3-3.48,1.85-8.67-2.53-9.08-2.89.78,1.06,2.4,3.56,2.48,7.02.03,1.43.1,4.69-1.86,5.98-2.01,1.32-5.74.33-8.67-2.89.02.89-.05,3.15-1.44,4.13-1.9,1.32-6.01.1-9.08-4.13.09,1,.04,2.39-.83,3.1-1.44,1.16-4.29-.28-6.6-1.44-2.28-1.15-4.13-2.09-6.6-4.54-6.6-6.55-10.32-16.51-10.32-16.51-3.04-11.6-6.07-23.21-9.11-34.81,5.3-4.53,17.77-14.17,26.69-10.08Z"/>
      <path class="cls-9" d="M132.95,175.45c1.93.88,2.89,2.14,4.85,4.63,13.84,17.59,11.71,13.31,18.09,22.61,6.82,9.93,10.7,16.9,8.98,20.78-.15.35-.63,1.43-1.74,2.02-3.05,1.62-7.6-2.22-7.96-2.53.69.93,2.1,3.12,2.17,6.15.03,1.26.09,4.11-1.63,5.25-1.76,1.16-5.03.29-7.6-2.53.02.78-.04,2.77-1.27,3.62-1.66,1.16-5.27.09-7.96-3.62.08.88.04,2.1-.72,2.71-1.26,1.02-3.76-.24-5.79-1.27-2-1.01-3.62-1.83-5.79-3.98-5.79-5.74-9.05-14.47-9.05-14.47-2.66-10.17-5.32-20.35-7.98-30.52,4.65-3.97,15.57-12.42,23.4-8.84Z"/>
      <path class="cls-3" d="M60.75,171.35c-3.06.28-4.45,3.73-4.95,4.95-1.09,2.69-.63,5.13-.43,5.98.17.71,1.37,5.41,5.76,6.93,2.54.88,4.83.24,5.75-.08-2.32-3.51-2.61-6.22-2.41-8.09.34-3.17,2.16-4.65,1.34-6.77-.71-1.83-2.99-3.12-5.05-2.93Z"/>
      <path class="cls-3" d="M65.81,174.28c-2.14,1.92-1.69,5.32-1.34,8.01.2,1.51.7,5.3,3.71,7.64.74.58,1.98,1.5,3.71,1.44,2.33-.08,3.8-1.88,4.07-2.23-.58-1.03-1.39-2.8-1.39-5,0-4.03,2.71-5.6,2.02-7.7-.95-2.88-7.67-4.96-10.79-2.16Z"/>
      <path class="cls-9" d="M44.19,117.88c-1.15,1.59-1.64,3.07-2.63,6.01-2.96,8.82-2.27,16.49-1.86,19.6,1.17,8.75,4.94,17.02,6.4,16.72,1.42-.29,1.13-7.85,1.65-7.84.39,0,0,4.28,2.06,8.87,1.54,3.42,4.17,6.41,5.16,5.98,1.02-.44-.02-4.36.62-4.54.74-.2,1.77,5.16,5.16,8.67,3.33,3.45,7.15,3.27,13.41,4.54,12.39,2.52,11.34,6.06,23.32,8.46,6.29,1.26,12.69,2.46,19.4-.62,3.43-1.57,8.27-3.65,8.71-6.99,1.24-9.42-34.42-12.77-40.11-32.54-3.75-13.04,8.42-23.21,2.32-30.65-3.93-4.8-12.01-4.23-22.8-3.47-7.12.5-16.1,1.26-20.82,7.8Z"/>
      <path class="cls-8" d="M44.24,112.33c-.38.36-3.85,3.63-3.1,4.95.65,1.13,4.23.55,6.19,0,2.62-.74,3.65-1.79,4.75-1.24.92.47,1.02,1.63,1.44,3.51.29,1.28,1.81,7.92,3.51,8.05,1.69.13,3.58-6.16,3.71-6.6,1.04-3.52.8-5.58,1.65-5.78.93-.21,1.71,2.09,4.33,5.16,1.86,2.18,5.71,5.99,7.22,5.16.89-.49.71-2.43.41-5.57-.48-5.16-1.64-6.83-.83-7.64,1.24-1.22,4.59,1.95,10.73,3.3,5.05,1.11,11.98,1.08,13.21-1.65,1.17-2.6-3.31-6.57-2.48-7.43,1.14-1.17,9.42,6.27,11.56,4.54,1.54-1.24-1.24-6.33,0-7.02,1-.56,3.79,2.27,5.83,4.34,1.5,1.53,1.82,2.8,2.42,2.68.82-.16,1.55-2.59.83-4.54-1.2-3.25-6-3.98-5.78-4.95.18-.78,3.25-.34,3.51-1.24.26-.9-2.66-1.88-4.54-4.13-2.04-2.44-2.07-5.44-2.06-8.87.03-9.21.39-15.54.41-19.19.03-3.5-.23-8.59-1.6-14.83"/>
      <g>
        <path class="cls-10" d="M18.67,73.26c-1.37-3.3-4.38-11.88-1.8-22.09,1.3-5.13,3.54-8.82,4.66-10.43,7.2-10.33,23.87-14.65,42.04-11.49-1.83-.43-4.36-1.1-7.31-2.14-3.51-1.24-7.62-2.68-7.48-3.93.09-.82,1.98-1.23,3.12-1.47,4.02-.87,7.59.29,10.54,1.28,1.13.38,2.7.96,4.5,1.85-1.47-1.46-4.75-5.14-5.52-10.67-1.01-7.28,2.89-13.89,3.87-13.69.64.14-.28,3.14,1.34,7.58.25.69,1.17,3.06,3.17,5.47,1.84,2.21,3.07,2.62,6.49,5.1,2.6,1.89,5.7,4.13,8.3,7.21,1.38,1.63,3.2,4.18,4.67,7.9-.25-1.38-.78-5.32,1.26-9.62.38-.8,2.11-4.27,6.11-6.73,3.55-2.19,8.4-3.28,9.11-2.06.59,1.01-2.25,2.64-4.91,7.44-1.11,2-3.39,6.14-2.82,10.68.37,2.94,1.65,3.82,3.64,7.47,2.56,4.7,3.41,8.53,4.67,15.81,1.95,11.2.88,20.38.72,22.99-.28,4.35-.72,7.95-1.08,10.42"/>
        <path class="cls-1" d="M18.67,73.26c-3.93-9.19-3.95-20.1.61-29.09,7.88-15.91,28.67-17.86,44.35-15.26,0,0-.14.68-.14.68-2.9-.67-5.75-1.55-8.54-2.56-6.32-2-10.56-4.99-.79-6.01,4.54-.12,8.89,1.59,12.96,3.42,0,0-.49.69-.49.69-5.49-5.18-7.32-13.51-4.57-20.53.36-1.03,2.4-5.95,3.79-4.24.18.36.15.53.18.74.03,2.33.24,4.64,1.07,6.82,1.45,4.15,4.48,7.24,8.2,9.44,6.06,4.07,11.81,9.18,14.34,16.23,0,0-.79.23-.79.23-1.87-9.54,5.63-18.44,15.1-19.33,1.51-.12,3.06.65,1.64,2.36-4.14,4.84-8.54,11.14-7.05,17.83,1.1,3.13,3.52,5.71,4.68,8.86,2.55,6.27,3.42,13.08,4.11,19.76.7,8.96-.18,17.96-1.38,26.84,1.09-8.87,1.85-17.89,1.03-26.81-.79-6.61-1.72-13.39-4.26-19.58-1.2-3.19-3.63-5.7-4.75-8.92-1.39-5.7,1.66-11.34,4.94-15.8.8-1.12,1.89-2.05,2.51-3.22.07-.21.05-.27-.07-.38-.27-.22-.86-.26-1.37-.24-2.14.17-4.28.98-6.22,1.98-5.93,3.02-9.41,9.96-8.1,16.5,0,0-.79.23-.79.23-1.06-2.66-2.49-5.18-4.3-7.39-3.67-4.53-8.75-7.48-13.4-10.91-4.12-3.57-6.27-9.02-6.12-14.42,0-.15-.05-.35-.04-.31.01,0,.02.02.08.08.07.03.12.03.16.03-3.6,4.21-4.42,11.16-2.57,16.45,1.15,3.5,3.71,6.41,6.35,8.91-4.6-2.26-9.61-4.59-14.83-4.51-1.64.16-3.65.3-4.97,1.28-.06.08-.05.13-.05.2.36.69,1.21,1.01,1.94,1.41,4.02,1.78,8.27,3.16,12.54,4.21,0,0-.14.68-.14.68-3.27-.54-6.56-.9-9.87-1.01-9.79-.19-20.25,1.63-27.96,8.04-10.17,8.85-12.04,24.55-7.01,36.64h0Z"/>
      </g>
      <path class="cls-6" d="M18.5,45.6c2.82-1.02,7.27-2.14,11.97-.73,6.91,2.06,9.17,8,13.35,7.21,2.9-.55,3-3.64,7.02-8.25,1.38-1.59,6.91-7.6,14.73-9.37,11.07-2.5,20.39,4.93,20.76,5.24,10.37,8.54,9.36,22.59,9.08,26.41-1.28,17.72-15.34,27.97-17.75,29.72-5.17,3.76-11.52,5.99-11.52,5.99-3.7,1.34-6.98,2.01-9.42,2.38"/>
      <path class="cls-2" d="M16.11,104.02c1.86-.83,4.6-1.68,7.22-.72,3.34,1.23,3.46,4.27,6.87,7.23,5,4.33,11.74,3.88,12.71,3.8,1.93-.16,9.18-.75,12.59-6.93,3.65-6.6-.34-13.64-.56-14.03-1.05.88-2.66,1.96-4.76,2.21-3.07.36-4.82-1.33-8.88-2.33,0,0-2.91-.72-7.29-.57-8.67.3-16.06,9.06-17.89,11.34Z"/>
      <path class="cls-2" d="M8.46,92.7c-2.13-2.38-7.92-9.49-7.96-19.48-.04-12.18,8.5-20.07,13.42-24.61,1.36-1.26,21.31-19.25,35.68-11.62,6.79,3.61,9.45,11.4,9.96,12.91,1.92,5.63-.07,6.8.41,20.43.31,9,1.27,11.1-.43,15.21-.32.78-3.61,8.45-9.49,9.23-5.3.7-7.87-4.83-13.8-7.51-5-2.26-13.36-2.92-27.79,5.44Z"/>
      <ellipse class="cls-5" cx="74.98" cy="61.38" rx="11.34" ry="12.61"/>
      <ellipse class="cls-4" cx="71.53" cy="62.72" rx="7.02" ry="8.34"/>
      <path class="cls-1" d="M81.82,50.98c1.85-.52,3.51-1.83,4.31-3.61.85-1.78.79-3.96.09-5.86,1.37,2.77,1.02,6.52-1.37,8.71-.78.75-1.7,1.33-2.73,1.71l-.31-.95h0Z"/>
      <path class="cls-1" d="M83.98,52.95c1.85.52,3.94.25,5.56-.85,1.65-1.08,2.73-2.98,3.11-4.97-.26,3.08-2.51,6.1-5.68,6.74-1.05.24-2.15.25-3.22.05l.23-.97h0Z"/>
      <path class="cls-1" d="M85.49,55.94c2.57,2.05,6.45,1,8.06-1.84-1.39,3.2-5.58,4.63-8.61,2.67,0,0,.55-.83.55-.83h0Z"/>
      <path class="cls-1" d="M68.19,42.97c1.98-4.1,7.55-4.71,10.28-1,.86,1.08,1.31,2.42,1.37,3.73-.44-1.24-1.1-2.34-1.96-3.22-2.77-3.01-7.06-2.43-9.69.49h0Z"/>
      <path class="cls-7" d="M135.29,175.57c-.48,2.03-11.08,1.11-13,.93-8.92-.84-18.08-1.7-26.04-8.44-4.55-3.85-6.74-7.95-8.67-11.56-2.26-4.22-8.95-16.75-5.16-31.37,2.45-9.43,8.01-14.89,9.29-16.1,2.55-2.41,5.07-4.79,8.87-5.37,8.98-1.36,16.58,8.68,17.33,9.7,4.43,6.01,2.42,8.56,7.22,21.87,3.26,9.04,4.89,13.55,8.87,17.75,6.21,6.55,14.35,9.09,13.62,11.56-.31,1.06-2.1,1.57-3.1,1.86-2.53.73-4.68-.11-5.37-.41.51.44,1.35,1.13,2.48,1.86,1.51.97,2.26,1.2,2.27,1.65.01.88-2.84,1.6-3.92,1.86-2,.48-4.94.98-8.67.83,2,1.05,4.19,2.41,3.96,3.39Z"/>
      <path class="cls-3" d="M89.06,180.26c.9-.99.09-4.03-1.61-5.8-1.94-2.01-5.03-2.33-7.35-1.35-3.75,1.58-4.68,6.21-5.02,7.92-.24,1.21-.95,4.76.9,8.11.51.93,1.91,3.46,4.48,3.86,2.97.47,6.15-2.11,6.1-4.06-.03-1.18-1.24-1.3-1.97-3.28-.6-1.62-.73-4.06.36-5.02,1.26-1.12,3.23.59,4.12-.39Z"/>
      <path class="cls-3" d="M99.96,181.05c1.04-1.05.1-4.31-1.86-6.19-2.24-2.15-5.78-2.49-8.46-1.44-4.32,1.69-5.38,6.63-5.78,8.46-.28,1.3-1.1,5.09,1.03,8.67.59.99,2.2,3.7,5.16,4.13,3.42.5,7.07-2.26,7.02-4.33-.03-1.26-1.42-1.38-2.27-3.51-.69-1.73-.84-4.34.41-5.37,1.45-1.19,3.72.63,4.75-.41Z"/>
      <path class="cls-8" d="M129.82,169.59c-.37,1.58-8.63.86-10.13.72-6.94-.65-14.08-1.33-20.28-6.58-3.54-3-5.25-6.19-6.75-9-1.76-3.29-6.97-13.05-4.02-24.43,1.91-7.34,6.24-11.59,7.23-12.53,1.98-1.87,3.95-3.73,6.91-4.18,7-1.06,12.91,6.76,13.5,7.55,3.45,4.68,1.88,6.67,5.62,17.03,2.54,7.04,3.81,10.55,6.91,13.82,4.84,5.1,11.17,7.08,10.61,9-.24.82-1.64,1.22-2.41,1.45-1.97.57-3.64-.09-4.18-.32.4.35,1.05.88,1.93,1.45,1.18.76,1.76.93,1.77,1.29,0,.69-2.21,1.24-3.05,1.45-1.56.38-3.85.76-6.75.64,1.56.81,3.27,1.88,3.09,2.64Z"/>
    </g>
  </g>
</svg>