<?xml version="1.0" encoding="UTF-8"?>
<svg id="Layer_2" data-name="Layer 2" xmlns="http://www.w3.org/2000/svg" viewBox="0 0 100.9 98.11">
  <defs>
    <style>
      .cls-1 {
        fill: none;
      }

      .cls-1, .cls-2, .cls-3, .cls-4 {
        stroke: #000;
        stroke-miterlimit: 10;
      }

      .cls-2 {
        fill: #da2e27;
      }

      .cls-5, .cls-3 {
        fill: #fff;
      }

      .cls-6 {
        fill: #333;
      }

      .cls-4 {
        fill: #231f20;
      }
    </style>
  </defs>
  <g id="Layer_1-2" data-name="Layer 1">
    <g>
      <path class="cls-4" d="M22.4,53.59c-.03,1.75-4.13,2.78-5,3-2.94.74-5.49.36-7,0,.01,2.12-.27,5.46-2,9-1,2.05-2.52,4.21-3,4-.53-.23.8-3.06,1-8,.13-3.25-.37-3.74,0-5,.62-2.09,3.15-4.6,12-6,2.26.69,4.02,1.85,4,3Z"/>
      <path class="cls-4" d="M22.4,84.59c.66.26,2.73-3.09,4-6,1.22-2.79,1.75-5.29,2-7,.52-.18,1.23-.49,2-1,.83-.56,1.87-1.25,2-2,.21-1.2-1.8-2.87-5-4-.93,1.05-2.18,2.71-3,5-.75,2.11-.57,3.17-1,7-.63,5.56-1.52,7.79-1,8Z"/>
      <path class="cls-4" d="M46.4,77.59c.71,1.12,1.96,2.74,4,4,.7.44,1.38.76,2,1-.41,1.8-.8,4.69,0,8,.9,3.7,3.14,7.27,4,7,.76-.24-.46-3.2,0-9,.35-4.37,1.33-6.29,0-8-.76-.98-1.84-1.32-4-2-2.46-.77-4.58-.96-6-1Z"/>
      <path class="cls-4" d="M86.4,34.59c1.2.93,2.78.43,5,0,5.82-1.14,8.96-.47,9-1,.03-.49-2.98-.99-9-2-4.06-.68-5.5-.78-6,0-.5.78.05,2.27,1,3Z"/>
      <path class="cls-4" d="M67.4,15.59c1.85.2,3.33.36,5,0,3.67-.79,6.23-3.63,6-4-.22-.36-2.78,1.92-7,2-1.33.03-2.06-.18-4,0-1.48.14-4,.53-4,1,0,.56,3.57.95,4,1Z"/>
      <path class="cls-4" d="M46.4,15.59c.52-.98.19-1.93,0-4-.12-1.28-.18-2.97,0-5,1.96-.07,4.9-.45,8-2,2.75-1.38,5.27-3.5,5-4-.26-.49-2.94,1.11-8,2-4.47.79-5.55.09-7,1-1.89,1.18-3.48,4.51-2,14,2.56-.33,3.58-1.2,4-2Z"/>
      <path class="cls-2" d="M15.4,35.59c-2.68-.28-4.45-3.12-5-4-2.05-3.29-2.05-7.65,0-11,2.53-4.14,7.01-4.87,8-5,.56-.07,6.04-.8,8,2,3.37,4.82-4.71,18.65-11,18Z"/>
      <path class="cls-2" d="M22.4,53.59c-4.62-1.12-6.56-9.19-7-11-1.67-6.95.85-12.54,2-15,.65-1.38,3.5-7.13,10-11,2.68-1.6,6.43-3.83,11-3,2.5.45,5.55,1.87,7,4,6.33,9.27-13.24,38.37-23,36Z"/>
      <path class="cls-2" d="M22.4,53.59c-.06-4.03,1.54-7.16,2-8,3.5-6.43,9.16-6.06,15-14,2.22-3.02,2.77-4.95,3-6,.87-4.06-.85-5.87,0-8,1.57-3.9,9.98-4.42,15-4,15.15,1.28,24.44,13.26,25,14,2.04,2.71,8.59,11.43,7,23-1.3,9.43-7.25,15.29-10,18-2.38,2.34-8.74,8.44-19,10-14.13,2.15-24.47-6-27-8-3.52-2.78-10.86-8.57-11-17Z"/>
      <path class="cls-1" d="M40.4,30.59c5.51.96,18.53,4,30,15,7.17,6.87,11,14.23,13,19"/>
      <path class="cls-4" d="M42.4,30.59c-2.16,3.96-.37,8.14,0,9,.34.79,2.03,4.74,6,6,5.01,1.59,11.05-1.94,13-7,1.28-3.32,1.13-8.18-2-11-2.76-2.49-6.44-2.15-8-2-1.35.13-6.61.62-9,5Z"/>
      <path class="cls-4" d="M65.4,15.59c-.23.08-2.59.98-3,3-.47,2.33,2,4.38,4,5,1.62.5,4.2.48,5-1,.79-1.46-.63-3.48-1-4-1.61-2.28-4.18-2.85-5-3Z"/>
      <path class="cls-4" d="M83.4,28.59c-.63-.21-2.23-.63-4,0-3.17,1.14-3.93,4.63-4,5-.64,3.24,1.2,6.61,4,8,.42.21,3.68,1.83,6,0,1.79-1.42,2.33-4.35,1-7l-3-6Z"/>
      <circle class="cls-4" cx="59.9" cy="64.09" r="7.5"/>
      <path class="cls-4" d="M33.4,62.59c.59-2.04,2.68-2.87,3-3,2.33-.93,5.36-.22,7,2,1.42,1.93,1.87,5.14,0,7-2,1.99-5.29,1.08-7,0-1.75-1.11-3.71-3.55-3-6Z"/>
      <path class="cls-1" d="M14.4,17.59c-.35-.32-1.78-1.71-2-4-.2-2.06.71-3.56,1-4"/>
      <path class="cls-1" d="M9.4,23.59c-.62-.39-1.66-.92-3-1-3.46-.22-5.76,2.68-6,3"/>
      <circle class="cls-4" cx="33.4" cy="47.59" r="3"/>
      <circle class="cls-3" cx="17.14" cy="15.52" r="4.69"/>
      <circle class="cls-6" cx="17.17" cy="15.35" r="3.61"/>
      <circle cx="17" cy="15.56" r="2.19"/>
      <circle class="cls-5" cx="17.31" cy="12.38" r="1.48"/>
      <circle class="cls-3" cx="9.72" cy="24.15" r="4.69"/>
      <circle class="cls-6" cx="9.75" cy="23.98" r="3.61"/>
      <circle cx="9.58" cy="24.19" r="2.19"/>
      <circle class="cls-5" cx="9.9" cy="21.01" r="1.48"/>
    </g>
  </g>
</svg>