<?xml version="1.0" encoding="UTF-8"?>
<svg id="Layer_2" data-name="Layer 2" xmlns="http://www.w3.org/2000/svg" viewBox="0 0 302.42 171.76">
  <defs>
    <style>
      .cls-1 {
        fill: none;
      }

      .cls-1, .cls-2 {
        stroke: #000;
        stroke-miterlimit: 10;
      }

      .cls-2, .cls-3 {
        fill: #ffdfa1;
      }

      .cls-4 {
        fill: #fff;
      }

      .cls-5 {
        fill: #c2a3c0;
      }

      .cls-6 {
        fill: #e3c395;
      }

      .cls-7 {
        fill: #333;
      }

      .cls-8 {
        fill: #d4c1de;
      }

      .cls-9 {
        fill: #f7b7d3;
      }

      .cls-10 {
        fill: #b492c4;
      }

      .cls-11 {
        fill: #edcae0;
      }
    </style>
  </defs>
  <g id="Layer_1-2" data-name="Layer 1">
    <g>
      <circle class="cls-3" cx="150.85" cy="67.26" r="3"/>
      <path class="cls-3" d="M151.35,68.76c-3.05.07-5.67,7.41-6,13-.37,6.25,2.08,11.14,3.5,13.5-1.1,3.81-2.22,9.33-2,16,.28,8.65,2.68,15.42,4.5,19.5,1.57-4.89,3.14-11.53,3.5-19.5.28-6.24-.26-11.67-1-16,1.47-2.14,4.21-6.84,4-13-.21-6.22-3.42-13.57-6.5-13.5Z"/>
      <path class="cls-8" d="M154.85,72.26c3.18-6.83,8.22-16.15,16-26,6.73-8.51,26.24-33.2,59-42,29.82-8.01,67.47-3.32,72,11,1.74,5.5-.66,14.78-5,21-3.61,5.18-6.15,4.76-10,11-4.33,7.02-2.57,9.87-7,15-3.93,4.54-6.11,3.22-10,8-4,4.91-2.99,7.88-6,12-4.25,5.81-11.58,7.18-16,8-12.94,2.41-15.63-3.62-39-7-7.4-1.07-15.79-2.28-26-2-2.59.07-7.31.23-14,0-5.11-.17-9.28-.64-12-1-.67-2.67-1.33-5.33-2-8Z"/>
      <path class="cls-11" d="M156.85,80.26c.47,1.22,1.66,4.8.44,9.06-.85,2.99-2.51,4.97-3.44,5.94,2.09,3.82,5.23,10.1,7.92,18.26,3.54,10.71,3.29,15.69,7.17,32.26,4.71,20.12,7.87,25.97,10.75,25.99,2.4,0,3.1-4.04,8.06-5.38,3.84-1.03,4.85,1.01,8.06,0,4.88-1.54,4.09-6.72,9.86-9.86,3.79-2.06,5.18-.39,8.06-2.69,3.29-2.62,2.12-5.29,5.38-8.96,3.03-3.4,4.79-1.94,8.96-5.38,4.99-4.11,3.47-7.03,8.06-10.75,4.63-3.75,7.57-1.54,10.75-5.38,3.1-3.74,2.9-9.9.95-14.11-1.26-2.72-3.51-5.22-14-10-14.09-6.42-18.57-5.82-32-12-6.97-3.21-7.08-3.98-11-5-6.96-1.82-11.31-.62-22-1-5.3-.19-9.54-.67-12-1Z"/>
      <path class="cls-1" d="M149.85,64.26c-.95-5.65-3.02-9.44-5-12-3.64-4.71-7.08-5.44-10-10-2.57-4.02-3.09-8.45-3-12"/>
      <path class="cls-1" d="M151.56,63.85c.95-5.65,3.02-9.44,5-12,3.64-4.71,7.08-5.44,10-10,2.57-4.02,3.09-8.45,3-12"/>
      <path class="cls-10" d="M155.85,74.26c-.86-.88,10.76-14.27,24-27,15.81-15.19,25.9-24.7,42-31,1.9-.74,30.71-11.75,38-2,1.81,2.43,2.33,6.19,1,9-3.3,6.93-16,4.02-32,7-15.32,2.85-25.62,9.6-43,21-18.91,12.4-29.2,23.82-30,23Z"/>
      <path class="cls-10" d="M156.85,77.26c-.28-.44,5.88-4.62,17-13,10.3-7.76,9.48-7.54,13-10,4.18-2.93,16.11-10.78,33-15,7-1.75,23.49-5.87,27,0,1.39,2.33.52,5.79-1,8-3.62,5.26-10.85,3.25-24,5-11.63,1.55-20.54,5.08-33,10-8.04,3.18-15.23,6.63-16,7-9.9,4.77-15.73,8.42-16,8Z"/>
      <path class="cls-10" d="M157.85,78.26c-.23-1.09,9.69-2.91,36-11,0,0,7.54-2.32,21-4,10.45-1.3,13.01-.6,14,1,1.57,2.54-.67,7.49-4,10-3.29,2.48-7.13,2.19-11,2-7.32-.36-14.68.49-22,0-20.4-1.36-33.73,3.29-34,2Z"/>
      <circle class="cls-10" cx="277.85" cy="21.26" r="11"/>
      <circle class="cls-10" cx="263.71" cy="46.74" r="8.14"/>
      <circle class="cls-10" cx="245.13" cy="71.31" r="6.72"/>
      <path class="cls-5" d="M288.85,44.26c-15.99-9.33-34.92-13.24-53.24-10.7-18.2,2.75-35.92,9.25-51.49,19.08-7.81,4.91-15.08,10.69-21.78,17.04-2.21,2.14-4.39,4.33-6.49,6.58,8.09-9.32,17.49-17.52,27.86-24.27,20.75-13,45.6-21.78,70.34-19.63,12.32,1.22,24.32,5.35,34.8,11.9h0Z"/>
      <path class="cls-5" d="M271.35,68.76c-31.59-19.94-69.49-17.69-101.2.7-4.43,2.49-8.7,5.27-12.8,8.3,7.95-6.38,16.8-11.63,26.17-15.7,28.45-12.71,61.9-11.12,87.83,6.7h0Z"/>
      <path class="cls-4" d="M157.85,84.26c19.99,2.7,37.5,13.79,53.37,25.62,2.24,1.75,4.47,3.52,6.63,5.38-2.29-1.68-4.58-3.37-6.92-4.98-6.95-4.92-14.17-9.45-21.56-13.68-9.74-5.85-20.42-9.92-31.53-12.33h0Z"/>
      <path class="cls-4" d="M156.85,89.26c17.27,10.41,32.63,24.08,45,40-13.39-15.03-28.49-28.48-45-40h0Z"/>
      <path class="cls-4" d="M155.85,93.26c10.08,7.75,17.63,18.69,21.58,30.76.54,1.73,1.04,3.47,1.42,5.24-4.54-13.7-12.47-26.13-23-36h0Z"/>
      <circle class="cls-9" cx="175.59" cy="131.15" r="4"/>
      <circle class="cls-9" cx="203.59" cy="132.15" r="4"/>
      <circle class="cls-9" cx="220.6" cy="117.16" r="4"/>
      <path class="cls-4" d="M172.85,115.26c6.88,3.69,12.02,10.32,14.25,17.77.29,1.07.58,2.14.75,3.23-.39-1.03-.76-2.07-1.21-3.07-2.91-7.08-7.74-13.25-13.79-17.93h0Z"/>
      <circle class="cls-9" cx="188.59" cy="140.15" r="4"/>
      <path class="cls-4" d="M172.85,134.26c-.56,8,1.6,16,7,22-6.51-5-9.03-14.21-7-22h0Z"/>
      <circle class="cls-9" cx="183.59" cy="157.15" r="4"/>
      <path class="cls-4" d="M186.85,113.26c11.94.39,23.55,6.95,30,17-.97-1.12-1.94-2.23-3-3.26-7.21-7.38-16.83-12.13-27-13.74h0Z"/>
      <circle class="cls-9" cx="218.59" cy="133.15" r="4"/>
      <path class="cls-4" d="M199.85,132.26c-2.02,1.91-2.81,4.56-2.46,7.27.09.9.25,1.8.46,2.73-.59-.76-.98-1.65-1.23-2.59-.85-2.79.34-6.37,3.23-7.41h0Z"/>
      <circle class="cls-9" cx="200.59" cy="145.15" r="4"/>
      <path class="cls-4" d="M188.85,95.26c7.83,1.27,15.61,3.07,23,6-7.76-1.6-15.49-3.4-23-6h0Z"/>
      <circle class="cls-9" cx="215.59" cy="103.15" r="4"/>
      <circle class="cls-9" cx="185.59" cy="102.15" r="4"/>
      <path class="cls-4" d="M157.85,87.26c8.72,2.21,17,6.35,24,12,0,0-2.94-1.65-2.94-1.65-6.8-3.9-13.86-7.26-21.06-10.35h0Z"/>
      <circle class="cls-9" cx="166.59" cy="107.15" r="4"/>
      <path class="cls-4" d="M155.85,91.26c5.02.9,9.49,5.72,9,11-1-4.97-4.59-8.74-9-11h0Z"/>
      <circle class="cls-9" cx="170.59" cy="88.15" r="4"/>
      <path class="cls-4" d="M220.85,113.26c5.26-1.54,11.28-.8,16,2-5.3-1.49-10.5-2.14-16-2h0Z"/>
      <circle class="cls-9" cx="239.59" cy="118.15" r="4"/>
      <path class="cls-8" d="M147.57,71.89c-3.18-6.83-8.22-16.15-16-26-6.73-8.51-26.24-33.2-59-42C42.75-4.12,5.1.57.57,14.89c-1.74,5.5.66,14.78,5,21,3.61,5.18,6.15,4.76,10,11,4.33,7.02,2.57,9.87,7,15,3.93,4.54,6.11,3.22,10,8,4,4.91,2.99,7.88,6,12,4.25,5.81,11.58,7.18,16,8,12.94,2.41,15.63-3.62,39-7,7.4-1.07,15.79-2.28,26-2,2.59.07,7.31.23,14,0,5.11-.17,9.28-.64,12-1,.67-2.67,1.33-5.33,2-8Z"/>
      <path class="cls-11" d="M145.57,79.89c-.47,1.22-1.66,4.8-.44,9.06.85,2.99,2.51,4.97,3.44,5.94-2.09,3.82-5.23,10.1-7.92,18.26-3.54,10.71-3.29,15.69-7.17,32.26-4.71,20.12-7.87,25.97-10.75,25.99-2.4,0-3.1-4.04-8.06-5.38-3.84-1.03-4.85,1.01-8.06,0-4.88-1.54-4.09-6.72-9.86-9.86-3.79-2.06-5.18-.39-8.06-2.69-3.29-2.62-2.12-5.29-5.38-8.96-3.03-3.4-4.79-1.94-8.96-5.38-4.99-4.11-3.47-7.03-8.06-10.75-4.63-3.75-7.57-1.54-10.75-5.38-3.1-3.74-2.9-9.9-.95-14.11,1.26-2.72,3.51-5.22,14-10,14.09-6.42,18.57-5.82,32-12,6.97-3.21,7.08-3.98,11-5,6.96-1.82,11.31-.62,22-1,5.3-.19,9.54-.67,12-1Z"/>
      <path class="cls-10" d="M146.57,73.89c.86-.88-10.76-14.27-24-27-15.81-15.19-25.9-24.7-42-31-1.9-.74-30.71-11.75-38-2-1.81,2.43-2.33,6.19-1,9,3.3,6.93,16,4.02,32,7,15.32,2.85,25.62,9.6,43,21,18.91,12.4,29.2,23.82,30,23Z"/>
      <path class="cls-10" d="M145.57,76.89c.28-.44-5.88-4.62-17-13-10.3-7.76-9.48-7.54-13-10-4.18-2.93-16.11-10.78-33-15-7-1.75-23.49-5.87-27,0-1.39,2.33-.52,5.79,1,8,3.62,5.26,10.85,3.25,24,5,11.63,1.55,20.54,5.08,33,10,8.04,3.18,15.23,6.63,16,7,9.9,4.77,15.73,8.42,16,8Z"/>
      <path class="cls-10" d="M144.57,77.89c.23-1.09-9.69-2.91-36-11,0,0-7.54-2.32-21-4-10.45-1.3-13.01-.6-14,1-1.57,2.54.67,7.49,4,10,3.29,2.48,7.13,2.19,11,2,7.32-.36,14.68.49,22,0,20.4-1.36,33.73,3.29,34,2Z"/>
      <circle class="cls-10" cx="24.57" cy="20.89" r="11"/>
      <circle class="cls-10" cx="38.72" cy="46.38" r="8.14"/>
      <circle class="cls-10" cx="57.29" cy="70.95" r="6.72"/>
      <path class="cls-5" d="M13.57,43.89c10.49-6.55,22.48-10.68,34.8-11.9,24.74-2.15,49.59,6.63,70.34,19.63,10.37,6.75,19.77,14.95,27.86,24.27-2.1-2.26-4.28-4.44-6.49-6.58-6.7-6.34-13.97-12.12-21.78-17.04-15.57-9.83-33.29-16.33-51.49-19.08-18.32-2.54-37.25,1.37-53.24,10.7h0Z"/>
      <path class="cls-5" d="M31.07,68.39c25.94-17.82,59.38-19.41,87.83-6.7,9.37,4.07,18.23,9.32,26.17,15.7-4.1-3.02-8.36-5.81-12.8-8.3-31.71-18.4-69.62-20.64-101.2-.7h0Z"/>
      <path class="cls-4" d="M144.57,83.89c-11.1,2.42-21.78,6.48-31.53,12.33-7.39,4.24-14.6,8.77-21.56,13.68-2.34,1.61-4.62,3.3-6.92,4.98,2.15-1.86,4.38-3.63,6.63-5.38,15.87-11.83,33.39-22.92,53.37-25.62h0Z"/>
      <path class="cls-4" d="M145.57,88.89c-16.51,11.52-31.61,24.97-45,40,12.37-15.92,27.73-29.59,45-40h0Z"/>
      <path class="cls-4" d="M146.57,92.89c-10.53,9.87-18.46,22.3-23,36,.38-1.77.88-3.51,1.42-5.24,3.95-12.07,11.5-23.01,21.58-30.76h0Z"/>
      <circle class="cls-9" cx="126.84" cy="130.79" r="4"/>
      <circle class="cls-9" cx="98.84" cy="131.78" r="4"/>
      <circle class="cls-9" cx="81.82" cy="116.79" r="4"/>
      <path class="cls-4" d="M129.57,114.89c-6.06,4.68-10.88,10.85-13.79,17.93-.45,1-.82,2.03-1.21,3.07.17-1.09.45-2.16.75-3.23,2.23-7.44,7.37-14.08,14.25-17.77h0Z"/>
      <circle class="cls-9" cx="113.84" cy="139.78" r="4"/>
      <path class="cls-4" d="M129.57,133.89c2.03,7.79-.49,17-7,22,5.4-6,7.56-14,7-22h0Z"/>
      <circle class="cls-9" cx="118.84" cy="156.78" r="4"/>
      <path class="cls-4" d="M115.57,112.89c-10.17,1.61-19.79,6.36-27,13.74-1.06,1.03-2.03,2.14-3,3.26,6.45-10.05,18.06-16.61,30-17h0Z"/>
      <circle class="cls-9" cx="83.84" cy="132.78" r="4"/>
      <path class="cls-4" d="M102.57,131.89c3.95,1.48,4.4,6.97,2,10,.21-.93.37-1.83.46-2.73.35-2.71-.44-5.36-2.46-7.27h0Z"/>
      <circle class="cls-9" cx="101.84" cy="144.78" r="4"/>
      <path class="cls-4" d="M113.57,94.89c-7.51,2.6-15.24,4.4-23,6,7.39-2.93,15.17-4.73,23-6h0Z"/>
      <circle class="cls-9" cx="86.84" cy="102.78" r="4"/>
      <circle class="cls-9" cx="116.84" cy="101.78" r="4"/>
      <path class="cls-4" d="M144.57,86.89c-7.2,3.09-14.26,6.45-21.06,10.35,0,0-2.94,1.65-2.94,1.65,7-5.65,15.28-9.79,24-12h0Z"/>
      <circle class="cls-9" cx="135.84" cy="106.78" r="4"/>
      <path class="cls-4" d="M146.57,90.89c-4.41,2.26-8,6.03-9,11-.49-5.28,3.98-10.1,9-11h0Z"/>
      <circle class="cls-9" cx="131.84" cy="87.78" r="4"/>
      <path class="cls-4" d="M81.57,112.89c-5.5-.14-10.7.51-16,2,4.72-2.8,10.74-3.54,16-2h0Z"/>
      <circle class="cls-9" cx="62.84" cy="117.78" r="4"/>
      <circle class="cls-2" cx="132.35" cy="28.76" r="1.5"/>
      <circle class="cls-2" cx="169.35" cy="28.76" r="1.5"/>
      <path class="cls-6" d="M145.85,87.26c4.09.69,7.91.68,12,0-3.6,2.04-8.4,2.05-12,0h0Z"/>
      <path class="cls-6" d="M146.85,91.26c3.44.71,6.56.69,10,0-2.85,2.05-7.15,2.06-10,0h0Z"/>
      <path class="cls-6" d="M148.85,95.26c1.88.67,3.13.74,5,0-.82,2.06-4.16,1.96-5,0h0Z"/>
      <path class="cls-6" d="M147.85,98.26c2.48.69,4.51.67,7,0-1.69,2.01-5.32,2.02-7,0h0Z"/>
      <path class="cls-6" d="M147.85,102.26c2.48.69,4.51.67,7,0-1.69,2.01-5.32,2.02-7,0h0Z"/>
      <path class="cls-6" d="M146.85,107.26c2.77.66,5.28.64,8,0-2.1,2-5.9,2-8,0h0Z"/>
      <path class="cls-6" d="M146.85,112.26c2.77.66,5.28.64,8,0-2.1,2-5.9,2-8,0h0Z"/>
      <path class="cls-6" d="M146.85,117.26c2.77.66,5.28.64,8,0-2.1,2-5.9,2-8,0h0Z"/>
      <path class="cls-6" d="M147.85,122.26c1.99-.68,4.01-.69,6,0-1.99.69-4.01.68-6,0h0Z"/>
      <circle class="cls-4" cx="146.75" cy="64.19" r="3.19"/>
      <circle class="cls-7" cx="146.68" cy="64.1" r="2.46"/>
      <circle cx="146.72" cy="64.28" r="1.49"/>
      <circle class="cls-4" cx="145.14" cy="62.79" r="1.01"/>
      <circle class="cls-4" cx="154.49" cy="63.94" r="3.19"/>
      <circle class="cls-7" cx="154.41" cy="63.85" r="2.46"/>
      <circle cx="154.45" cy="64.02" r="1.49"/>
      <circle class="cls-4" cx="152.88" cy="62.53" r="1.01"/>
    </g>
  </g>
</svg>