<?xml version="1.0" encoding="UTF-8"?>
<svg id="Layer_2" data-name="Layer 2" xmlns="http://www.w3.org/2000/svg" viewBox="0 0 273.57 273.35">
  <defs>
    <style>
      .cls-1 {
        fill: none;
      }

      .cls-1, .cls-2, .cls-3, .cls-4, .cls-5 {
        stroke: #000;
        stroke-miterlimit: 10;
      }

      .cls-2, .cls-6 {
        fill: #ffd28c;
      }

      .cls-7, .cls-4 {
        fill: #fff;
      }

      .cls-3 {
        fill: #fbae56;
      }

      .cls-8 {
        fill: #333;
      }

      .cls-5 {
        fill: #231f20;
      }
    </style>
  </defs>
  <g id="Layer_1-2" data-name="Layer 1">
    <g>
      <path class="cls-3" d="M117.14,233.72c-1.61.17-4.57.62-8,2-3.02,1.22-7.54,3.04-9,7-.11.3-1.13,3.14,0,4,.58.44,1.48.19,2,0,.07.35.45,2,2,3,1.46.94,3.4.93,5,0,.86.61,2.21,1.44,4,2,4.73,1.48,8.74-.13,12-1,11.28-3.01,17.61,1.69,19-1,1.64-3.18-6-12.1-15-15-5.23-1.68-10.42-1.17-12-1Z"/>
      <path class="cls-3" d="M38.14,78.72c-1.2,5.37,4.18,7.63,4,17-.18,9.52-5.82,11.97-8,21-2,8.29,1.3,16.31,8,32,3.55,8.33,8.95,19.48,17,32,.45,3.14,4.49,31.56,3,46-.53,5.14-1.72,8.11-4,10-1.88,1.56-3.29,1.11-9,4-2.95,1.5-4.23,2.43-5,4-.28.57-1.58,3.44,0,5,1.09,1.08,3.2,1.16,5,0,.23.34,1.93,2.75,5,3,1.98.16,3.46-.66,4-1,.9.41,2.28.9,4,1,2.06.12,2.86-.43,6-1,4.2-.76,4.83-.16,6-1,2.28-1.65,2.05-5.54,2-7-.22-6.01,1.43,2.2,5-31,.63-5.81,1.35-13.26,2-22,3.11,1.32,7.44,3.69,11,8,6.14,7.45,3.71,13.11,9,22,4.54,7.63,11.05,11.51,17,15,9.78,5.73,19.13,7.44,25,8-5.56-.3-10.03.31-13.05.92-3.04.62-5.21,1.39-6.95,2.08-6.15,2.45-8.13,5.43-9,7-.56,1.01-2.07,3.72-1,6,.13.28.67,1.43,2,2,1.4.6,2.71.12,3,0,.2.29,1.17,1.63,3,2,2.17.44,3.78-.82,4-1,.87.34,2.25.81,4,1,3.37.37,6.01-.5,7-.83,5.63-1.84,11.29-3.59,17-5.17,9.8-2.71,25.61-5.25,32-9,.88-.52,2.19-1.41,3-3,1.35-2.64.52-5.58,0-7,2.78-2.22,6.63-5.78,10-11,8.12-12.59,7.57-25.76,7-36-.4-7.13-1.95-29.67-18-52-5.86-8.15-17.4-24.22-37-31-5.04-1.75-15.7-4.63-32-11-6.27-2.45-10.21-4.18-14-8-7.55-7.62-5.41-14.38-10-20-11.79-14.43-54.83-5.17-58,9Z"/>
      <path class="cls-2" d="M143.14,194.72c-1.79-7.72-6.65-12.12-10-16-3.26-3.78-4.43-6.55-6.02-9.4-2.28-4.09-5.1-10.21-6.98-18.6-11.57,13.31-17.69,25.73-21,34-5.26,13.15-4.52,18.55-4,21,1.89,8.88,9.21,16.44,12.44,20.49,1.16,1.46,2.59,2.91,4.56,4.51,6.52,5.29,13.14,7.9,16,9,6.73,2.59,12.72,3.59,17,4-3.83-17.68-3.33-29.37-2-37,.37-2.12,1.26-6.54,0-12Z"/>
      <path class="cls-3" d="M120.14,150.72c1.17,18.98-1.86,33.25-5,43-3.24,10.05-10.29,22.03-14,36-1.33,5-3.5,9.85-4,15-.42,4.31-.17,8.21-3,11-1.35,1.33-3.16,2.15-5,3-3.34,1.53-4.49,1.21-5,1-1.07-.44-1.68-1.37-2-2-.52.32-2.45,1.4-5,1-2.15-.34-3.52-1.54-4-2-1.12.41-2.8.81-4,0-2.13-1.43-1.75-6.03,0-9,1.88-3.18,4.43-2.96,8-6,3.05-2.6,4.38-5.48,6-9,2.09-4.53,3.15-9.18,4-22,1.46-21.97-.3-28.59-1-31-1.27-4.36-2.85-7.78-4-10"/>
      <path class="cls-1" d="M83.14,190.72c-2.53-1.41-5.22-3.06-8-5-4.33-3.02-7.98-6.12-11-9"/>
      <path class="cls-3" d="M163.14,167.72c-1.23,4.87-3.67,11.67-9,18-6.32,7.51-10.57,7.08-15,14-6.24,9.74-4.48,20.97-4,24,.78,4.97,2.04,12.98,9,19,8.42,7.28,18.94,6.24,21,6"/>
      <path class="cls-1" d="M112.14,121.72c-1.29,4.73-4.2,12.92-11,21-5.73,6.81-11.93,10.81-16,13"/>
      <path class="cls-1" d="M44.14,152.72c1.31,2.33,3.22,5.18,6,8,5.08,5.17,10.57,7.73,14,9"/>
      <path class="cls-1" d="M49.14,249.72c-.04-.63-.05-2.3,1-4,1.34-2.18,3.47-2.85,4-3"/>
      <path class="cls-1" d="M58.14,251.72c-.19-.59-.61-2.18,0-4,.96-2.83,3.63-3.86,4-4"/>
      <path class="cls-1" d="M73.14,256.72c-.14-.33-.83-2.09,0-4,1.09-2.51,3.82-2.97,4-3"/>
      <path class="cls-1" d="M82.14,257.72c-.21-.63-.79-2.63,0-5,.21-.63.95-2.58,3-4"/>
      <path class="cls-1" d="M102.14,246.72c0-.47.09-1.76,1-3,1.08-1.47,2.58-1.9,3-2"/>
      <path class="cls-1" d="M109.14,249.72c-.88-1.35-.85-2.98,0-4,.69-.82,1.69-.97,2-1"/>
      <path class="cls-1" d="M120.14,261.72c-.19-.59-.61-2.18,0-4,.96-2.83,3.63-3.86,4-4"/>
      <path class="cls-1" d="M127.14,262.72c-.15-.63-.32-1.72,0-3,.61-2.45,2.53-3.71,3-4"/>
      <path class="cls-3" d="M206.14,183.72c1.77,1.35,4.47,3.24,8,5,9.5,4.74,15.86,4.06,24,6,2.99.71,15.12,3.6,24,13,1.14,1.21,14.53,15.81,10,31-2.33,7.81-8.19,11.74-19,19-15.07,10.11-28.22,12.61-36,14-14.54,2.59-19.96.25-23-2-.84-.62-5.41-3.99-5-8,.14-1.42,1.04-4.11,9-8,5.75-2.8,11.08-4.24,21-6,12.37-2.2,15.77-2.05,22-5,4.65-2.2,8.37-4.02,10-8,2.47-6.04-1.17-13.88-6-18-3.83-3.27-8.55-4.18-18-6-4.71-.91-7.62-1.05-12-3-3.61-1.61-6.29-3.57-8-5,.13-2.76.15-5.77,0-9-.17-3.64-.54-6.99-1-10Z"/>
      <path class="cls-3" d="M28.14,48.72c-1.84-3.98-4.33-10.15-6-18-.87-4.1-5.3-24.88,1-28,3.01-1.49,7.38,1.65,16,8,7.71,5.68,13.37,11.18,17,15,3.02-.9,7.11-1.8,12-2,4.83-.2,8.94.36,12,1,2.49-3.52,6.1-8.13,11-13,7.27-7.23,12.41-12.35,16-11,5.03,1.89,4.4,15.49,4,24-.4,8.55-1.84,15.47-3,20,1.31,3.59,3.29,10.8,1,19-2.4,8.57-8.2,13.66-12,17-3.94,3.46-3,1.41-14,9-4.97,3.43-7.6,5.53-12,6-3.01.32-5.33-.28-8-1-5.2-1.4-7.9-3.39-14-7-11.56-6.85-11.24-5.29-14-8-6.14-6.03-7.58-13.61-8-16-1.19-6.74.13-12.23,1-15Z"/>
      <path class="cls-1" d="M31.14,4.72c4.05,5.06,6.99,9.6,9,13,6.86,11.58,5.56,14.2,5,15-.91,1.3-2.11.98-5,3-2.42,1.69-4.01,3.61-5,5"/>
      <path class="cls-1" d="M105.14.72c-5.26,5.85-8.77,11.19-11,15-2.64,4.5-7.63,13.02-5,16,1.05,1.19,2.47.54,5,2,2.68,1.55,4.16,4.05,5,6"/>
      <path class="cls-2" d="M42.14,83.72c3.16-11.41,13.33-19.51,25-20,12.12-.51,23.25,7.28,27,19-2.19,1.47-4.2,2.81-6,4-11.1,7.36-13.44,8.69-17,9-3.4.3-6.17-.48-8-1-3.61-1.02-5.59-2.41-10-5-2.55-1.5-6.28-3.61-11-6Z"/>
      <path class="cls-6" d="M56.14,26.72c-2.49,6.94-2.02,9.25-1,10,1.44,1.06,3.76-1.21,6,0,2.54,1.37,1.25,5.21,4,7,1.69,1.1,4.27,1,6,0,3.2-1.86,2.37-6.14,5-7,2.09-.68,3.77,1.66,5,1,1.06-.57,1.5-3.2-1-12-3.06-.64-7.17-1.2-12-1-4.89.2-8.98,1.1-12,2Z"/>
      <path class="cls-5" d="M62.14,71.72c.54-.91,2.21-.95,5-1,2.94-.06,5.41-.11,6,1,1.13,2.14-5.34,7.47-6,8-.39-.35-6.29-5.84-5-8Z"/>
      <path class="cls-1" d="M67.14,79.72v3"/>
      <path class="cls-1" d="M54.14,82.72c.49.6,2.18,2.5,5,3,4.56.81,7.8-2.78,8-3,.57.6,2.65,2.65,6,3,4.54.47,7.61-2.6,8-3"/>
      <path class="cls-1" d="M50.14,72.72c-4.54-2.87-13.17-7.49-25-9-11.02-1.4-19.94.51-25,2"/>
      <path class="cls-1" d="M44.14,74.72c-4.3-1.38-12.2-3.29-22-2-8.13,1.07-14.3,3.92-18,6"/>
      <path class="cls-1" d="M47.14,76.72c-3.61-.22-10.38-.16-18,3-8.55,3.55-13.69,9.13-16,12"/>
      <path class="cls-1" d="M89.14,71.72c2.91-3.03,8.5-8.01,17-11,13.4-4.71,25.1-1.32,29,0"/>
      <path class="cls-1" d="M89.14,74.72c2.91-2,10.8-6.86,22-7,11.8-.15,20.14,5.03,23,7"/>
      <path class="cls-1" d="M90.14,76.72c3.62-.95,11.51-2.49,21,0,10.04,2.63,16.37,8.34,19,11"/>
      <path class="cls-4" d="M68.14,23.72v17"/>
      <path class="cls-4" d="M62.14,24.72v7"/>
      <path class="cls-4" d="M75.14,23.72v8"/>
      <path class="cls-2" d="M124.14,102.72c-.85,1.1,2.19,3.85,1,6-1.37,2.47-6.29.48-8,3-2.02,2.98,2.5,9.31,3,10,.81,1.11,1.99,2.73,4,4,5.9,3.73,15.18,2.08,16-1,.88-3.29-8.05-7.35-7-10,.99-2.48,9.32-.14,10-2,1.01-2.79-17.1-12.45-19-10Z"/>
      <path class="cls-2" d="M146.14,134.72c-1.41,5.32-2.12,7.97-1,10,2.82,5.1,14,4.61,15,2,.8-2.08-4.85-5.61-4-7,.85-1.39,6.48,2.16,9,0,2.22-1.9,1.5-7.77-1-9-2.48-1.22-5.04,2.98-9,2-3.32-.82-4.09-4.4-6-4-1.46.3-2.1,2.62-3,6Z"/>
      <path class="cls-2" d="M154.14,109.72c-.84.71-3.42,3.1-4,7-.45,3.05.24,7.62,3,9,2.6,1.31,4.35-1.58,9-1,3.46.43,6.05,2.47,8,4,4.16,3.27,4.72,5.95,7,6,1.2.03,2.9-.68,5-4-2.63-3.79-7.08-9.21-14-14-5.23-3.62-10.22-5.74-14-7Z"/>
      <path class="cls-2" d="M138.14,131.72c-2.79-.68-6.2,1.81-6,4,.15,1.58,2.17,2.89,4,3,2.48.14,5.17-1.89,5-4-.12-1.49-1.64-2.66-3-3Z"/>
      <circle class="cls-4" cx="85.45" cy="53.44" r="9.71"/>
      <circle class="cls-8" cx="85.74" cy="53.24" r="7.48"/>
      <circle cx="85.19" cy="53.3" r="4.53"/>
      <circle class="cls-7" cx="90.2" cy="48.99" r="3.06"/>
      <circle class="cls-4" cx="52.16" cy="53.48" r="9.71"/>
      <circle class="cls-8" cx="52.45" cy="53.28" r="7.48"/>
      <circle cx="51.9" cy="53.34" r="4.53"/>
      <circle class="cls-7" cx="56.91" cy="49.04" r="3.06"/>
    </g>
  </g>
</svg>