<?xml version="1.0" encoding="UTF-8"?>
<svg id="Layer_2" data-name="Layer 2" xmlns="http://www.w3.org/2000/svg" viewBox="0 0 272.93 272.35">
  <defs>
    <style>
      .cls-1 {
        stroke: #000;
        stroke-miterlimit: 10;
        stroke-width: .5px;
      }

      .cls-1, .cls-2 {
        fill: none;
      }

      .cls-3 {
        fill: #b34400;
      }

      .cls-4 {
        fill: #db9a56;
      }

      .cls-5 {
        fill: #fff;
      }

      .cls-6 {
        fill: #231f20;
      }

      .cls-7 {
        fill: #fbae56;
      }

      .cls-8 {
        fill: #333;
      }

      .cls-9 {
        fill: #cf5400;
      }

      .cls-10 {
        fill: #df9c58;
      }

      .cls-11 {
        fill: #ffd28c;
      }

      .cls-12 {
        fill: #e7c280;
      }
    </style>
  </defs>
  <g id="Layer_1-2" data-name="Layer 1">
    <g>
      <path class="cls-7" d="M117,233.22c-1.61.17-4.57.62-8,2-3.02,1.22-7.54,3.04-9,7-.11.3-1.13,3.14,0,4,.58.44,1.48.19,2,0,.07.35.45,2,2,3,1.46.94,3.4.93,5,0,.86.61,2.21,1.44,4,2,4.73,1.48,8.74-.13,12-1,11.28-3.01,17.61,1.69,19-1,1.64-3.18-6-12.1-15-15-5.23-1.68-10.42-1.17-12-1Z"/>
      <path class="cls-7" d="M38,78.22c-1.2,5.37,4.18,7.63,4,17-.18,9.52-5.82,11.97-8,21-2,8.29,1.3,16.31,8,32,3.55,8.33,8.95,19.48,17,32,.45,3.14,4.49,31.56,3,46-.53,5.14-1.72,8.11-4,10-1.88,1.56-3.29,1.11-9,4-2.95,1.5-4.23,2.43-5,4-.28.57-1.58,3.44,0,5,1.09,1.08,3.2,1.16,5,0,.23.34,1.93,2.75,5,3,1.98.16,3.46-.66,4-1,.9.41,2.28.9,4,1,2.06.12,2.86-.43,6-1,4.2-.76,4.83-.16,6-1,2.28-1.65,2.05-5.54,2-7-.22-6.01,1.43,2.2,5-31,.63-5.81,1.35-13.26,2-22,3.11,1.32,7.44,3.69,11,8,6.14,7.45,3.71,13.11,9,22,4.54,7.63,11.05,11.51,17,15,9.78,5.73,19.13,7.44,25,8-5.56-.3-10.03.31-13.05.92-3.04.62-5.21,1.39-6.95,2.08-6.15,2.45-8.13,5.43-9,7-.56,1.01-2.07,3.72-1,6,.13.28.67,1.43,2,2,1.4.6,2.71.12,3,0,.2.29,1.17,1.63,3,2,2.17.44,3.78-.82,4-1,.87.34,2.25.81,4,1,3.37.37,6.01-.5,7-.83,5.63-1.84,11.29-3.59,17-5.17,9.8-2.71,25.61-5.25,32-9,.88-.52,2.19-1.41,3-3,1.35-2.64.52-5.58,0-7,2.78-2.22,6.63-5.78,10-11,8.12-12.59,7.57-25.76,7-36-.4-7.13-1.95-29.67-18-52-5.86-8.15-17.4-24.22-37-31-5.04-1.75-15.7-4.63-32-11-6.27-2.45-10.21-4.18-14-8-7.55-7.62-5.41-14.38-10-20-11.79-14.43-54.83-5.17-58,9Z"/>
      <path class="cls-4" d="M65.5,175.72c-.35.56,3.65,4.04,11,9,5.33,3.59,9.89,6.26,13,8-.77-3.48-2.01-8.33-4-14-.55-1.55-3.66-10.31-5-10-1.23.29,1.13,7.69-2,10-3.74,2.76-12.49-3.82-13-3Z"/>
      <path class="cls-11" d="M143,194.22c-1.79-7.72-6.65-12.12-10-16-3.26-3.78-4.43-6.55-6.02-9.4-2.28-4.09-5.1-10.21-6.98-18.6-11.57,13.31-17.69,25.73-21,34-5.26,13.15-4.52,18.55-4,21,1.89,8.88,9.21,16.44,12.44,20.49,1.16,1.46,2.59,2.91,4.56,4.51,6.52,5.29,13.14,7.9,16,9,6.73,2.59,12.72,3.59,17,4-3.83-17.68-3.33-29.37-2-37,.37-2.12,1.26-6.54,0-12Z"/>
      <path class="cls-7" d="M120,150.22c1.17,18.98-1.86,33.25-5,43-3.24,10.05-10.29,22.03-14,36-1.33,5-3.5,9.85-4,15-.42,4.31-.17,8.21-3,11-1.35,1.33-3.16,2.15-5,3-3.34,1.53-4.49,1.21-5,1-1.07-.44-1.68-1.37-2-2-.52.32-2.45,1.4-5,1-2.15-.34-3.52-1.54-4-2-1.12.41-2.8.81-4,0-2.13-1.43-1.75-6.03,0-9,1.88-3.18,4.43-2.96,8-6,3.05-2.6,4.38-5.48,6-9,2.09-4.53,3.15-9.18,4-22,1.46-21.97-.3-28.59-1-31-1.27-4.36-2.85-7.78-4-10"/>
      <path class="cls-2" d="M83,190.22c-2.53-1.41-5.22-3.06-8-5-4.33-3.02-7.98-6.12-11-9"/>
      <g>
        <path class="cls-7" d="M163,167.22c-1.23,4.87-3.67,11.67-9,18-6.32,7.51-10.57,7.08-15,14-6.24,9.74-4.48,20.97-4,24,.78,4.97,2.04,12.98,9,19,8.42,7.28,18.94,6.24,21,6"/>
        <path class="cls-10" d="M163,167.22c-2.03,8.93-6.68,17.46-13.89,23.27-1.8,1.46-3.75,2.68-5.48,4.11-7.01,5.91-9.26,15.73-8.63,24.56.82,11.71,4.75,22.76,16.58,27.23,4.22,1.66,8.87,2.21,13.42,1.83-4.53.61-9.24.17-13.59-1.37-12.34-4.45-16.42-15.48-17.36-27.62-.75-9.12,1.77-19.24,9.04-25.29,1.8-1.48,3.77-2.66,5.56-4.05,7.22-5.59,11.95-13.94,14.36-22.67h0Z"/>
      </g>
      <path class="cls-4" d="M112,121.22c-3.2,14.63-13.46,27.59-27,34,1.58-.99,3.14-1.99,4.63-3.1,10.55-7.56,18.37-18.58,22.37-30.9h0Z"/>
      <path class="cls-4" d="M44,152.22c4.32,6.46,10.13,11.86,17.02,15.48.97.55,1.98,1.02,2.98,1.52-8.68-2.41-16.26-8.79-20-17h0Z"/>
      <path class="cls-4" d="M48.5,249.24c-.09-3.3,2.33-6.35,5.5-7.03-2.91.96-4.9,3.96-4.5,6.97,0,0-1,.06-1,.06h0Z"/>
      <path class="cls-4" d="M38.5,85.72c2.58,2.16,13.88,11.13,30.65,10.5,16.98-.64,27.64-10.66,30-13,.58.3,2.09,1.17,3,3,1.1,2.21.43,4.54,0,6-2.83,9.64-4.24,14.46-6.5,17.5-4.12,5.55-7.6,6.07-13.5,10.5-4.84,3.63-11.13,9.75-16.5,20.5-3.74-1.81-13.37-7.09-19.5-18.5-3.88-7.22-4.79-13.98-5-18,.6-1.42,1.18-3.28,1.35-5.5.51-6.48-2.77-11.36-4-13Z"/>
      <path class="cls-4" d="M57.52,251.37c-1.06-3.41,1.13-7.19,4.48-8.15-1.5.67-2.79,1.84-3.43,3.3-.65,1.43-.65,3.1-.1,4.55,0,0-.95.31-.95.31h0Z"/>
      <path class="cls-4" d="M72.54,256.41c-1.28-3.29,1.06-6.87,4.46-7.19-3.07.6-4.99,4.02-3.54,6.81,0,0-.92.38-.92.38h0Z"/>
      <path class="cls-4" d="M81.53,257.37c-1.01-3.42.46-7.33,3.47-9.16-2.68,2.01-3.77,5.78-2.53,8.84,0,0-.95.32-.95.32h0Z"/>
      <path class="cls-4" d="M101.5,246.21c.16-2.47,2.11-4.62,4.5-4.99-2.15.67-3.67,2.81-3.5,5.01,0,0-1-.02-1-.02h0Z"/>
      <path class="cls-4" d="M108.58,249.49c-1.31-2.1-.29-5.28,2.42-5.27-.54.1-1.05.32-1.45.66-1.23,1.01-1.06,2.94-.13,4.06,0,0-.84.55-.84.55h0Z"/>
      <path class="cls-9" d="M37.5,80.72c3.03,2.32,15.34,11.19,33,10,16.48-1.11,27.05-10.26,30-13,.58.3,2.09,1.17,3,3,1.1,2.21.43,4.54,0,6-2.83,9.64-4.24,14.46-6.5,17.5-4.12,5.55-7.6,6.07-13.5,10.5-4.84,3.63-11.13,9.75-16.5,20.5-3.74-1.81-13.37-7.09-19.5-18.5-3.88-7.22-4.79-13.98-5-18-1.29-1.98-2.95-5.01-4-9-.95-3.61-1.08-6.76-1-9Z"/>
      <path class="cls-4" d="M119.52,261.37c-1.06-3.41,1.13-7.19,4.48-8.15-1.5.67-2.79,1.84-3.43,3.3-.65,1.43-.65,3.1-.1,4.55,0,0-.95.31-.95.31h0Z"/>
      <path class="cls-4" d="M126.51,262.33c-.58-2.85.97-5.82,3.49-7.12-2.2,1.5-3.36,4.36-2.51,6.88,0,0-.97.23-.97.23h0Z"/>
      <path class="cls-7" d="M206,183.22c1.77,1.35,4.47,3.24,8,5,9.5,4.74,15.86,4.06,24,6,2.99.71,15.12,3.6,24,13,1.14,1.21,14.53,15.81,10,31-2.33,7.81-8.19,11.74-19,19-15.07,10.11-28.22,12.61-36,14-14.54,2.59-19.96.25-23-2-.84-.62-5.41-3.99-5-8,.14-1.42,1.04-4.11,9-8,5.75-2.8,11.08-4.24,21-6,12.37-2.2,15.77-2.05,22-5,4.65-2.2,8.37-4.02,10-8,2.47-6.04-1.17-13.88-6-18-3.83-3.27-8.55-4.18-18-6-4.71-.91-7.62-1.05-12-3-3.61-1.61-6.29-3.57-8-5,.13-2.76.15-5.77,0-9-.17-3.64-.54-6.99-1-10Z"/>
      <path class="cls-7" d="M28,48.22c-1.84-3.98-4.33-10.15-6-18-.87-4.1-5.3-24.88,1-28,3.01-1.49,7.38,1.65,16,8,7.71,5.68,13.37,11.18,17,15,3.02-.9,7.11-1.8,12-2,4.83-.2,8.94.36,12,1,2.49-3.52,6.1-8.13,11-13C98.27,3.98,103.41-1.13,107,.22c5.03,1.89,4.4,15.49,4,24-.4,8.55-1.84,15.47-3,20,1.31,3.59,3.29,10.8,1,19-2.4,8.57-8.2,13.66-12,17-3.94,3.46-3,1.41-14,9-4.97,3.43-7.6,5.53-12,6-3.01.32-5.33-.28-8-1-5.2-1.4-7.9-3.39-14-7-11.56-6.85-11.24-5.29-14-8-6.14-6.03-7.58-13.61-8-16-1.19-6.74.13-12.23,1-15Z"/>
      <path class="cls-2" d="M31,4.22c4.05,5.06,6.99,9.6,9,13,6.86,11.58,5.56,14.2,5,15-.91,1.3-2.11.98-5,3-2.42,1.69-4.01,3.61-5,5"/>
      <path class="cls-2" d="M105,.22c-5.26,5.85-8.77,11.19-11,15-2.64,4.5-7.63,13.02-5,16,1.05,1.19,2.47.54,5,2,2.68,1.55,4.16,4.05,5,6"/>
      <path class="cls-11" d="M42,83.22c3.16-11.41,13.33-19.51,25-20,12.12-.51,23.25,7.28,27,19-2.19,1.47-4.2,2.81-6,4-11.1,7.36-13.44,8.69-17,9-3.4.3-6.17-.48-8-1-3.61-1.02-5.59-2.41-10-5-2.55-1.5-6.28-3.61-11-6Z"/>
      <path class="cls-11" d="M56,26.22c-2.49,6.94-2.02,9.25-1,10,1.44,1.06,3.76-1.21,6,0,2.54,1.37,1.25,5.21,4,7,1.69,1.1,4.27,1,6,0,3.2-1.86,2.37-6.14,5-7,2.09-.68,3.77,1.66,5,1,1.06-.57,1.5-3.2-1-12-3.06-.64-7.17-1.2-12-1-4.89.2-8.98,1.1-12,2Z"/>
      <path class="cls-6" d="M62,71.22c.54-.91,2.21-.95,5-1,2.94-.06,5.41-.11,6,1,1.13,2.14-5.34,7.47-6,8-.39-.35-6.29-5.84-5-8Z"/>
      <path class="cls-1" d="M67,79.22v3"/>
      <path d="M54,82.22c3.4,4.2,9.61,3.8,13-.18,1.78,1.93,4.34,3.16,6.99,3.14,2.6,0,5.13-1.16,7.01-2.96-3.68,4.04-10.37,4.17-14.09.08,0,0,.18,0,.18,0-3.49,3.92-9.81,4.28-13.09-.08h0Z"/>
      <path class="cls-9" d="M101.31,77.62c-.36-1.51,2.54-3.52,4.55-4.39,3.43-1.48,6.73-.7,8.06-.3-.17.58-1.52,4.87-5.48,6.16-2.93.96-6.76.09-7.13-1.47Z"/>
      <path d="M50,72.22c-14.82-9.05-33.26-11.63-50-7,16.59-5.32,35.51-2.67,50,7h0Z"/>
      <path d="M44,74.22c-13.22-3.95-27.83-2.5-40,4,11.87-7.14,26.95-8.63,40-4h0Z"/>
      <path d="M47,76.22c-12.88-.53-25.7,5.14-34,15,7.79-10.36,21.09-16.24,34-15h0Z"/>
      <path d="M89,71.22c11.26-12.62,30.24-16.92,46-11-1.99-.63-4.01-1.12-6.06-1.47-14.36-2.74-29.7,2.03-39.94,12.46h0Z"/>
      <path d="M89,74.22c13.01-9.6,31.99-9.59,45,0-13.35-8.92-31.66-8.95-45,0h0Z"/>
      <path d="M90,76.22c14.01-4.15,30.08.28,40,11-10.38-10.16-25.88-14.44-40-11h0Z"/>
      <path class="cls-11" d="M124,102.22c-.85,1.1,2.19,3.85,1,6-1.37,2.47-6.29.48-8,3-2.02,2.98,2.5,9.31,3,10,.81,1.11,1.99,2.73,4,4,5.9,3.73,15.18,2.08,16-1,.88-3.29-8.05-7.35-7-10,.99-2.48,9.32-.14,10-2,1.01-2.79-17.1-12.45-19-10Z"/>
      <path class="cls-11" d="M146,134.22c-1.41,5.32-2.12,7.97-1,10,2.82,5.1,14,4.61,15,2,.8-2.08-4.85-5.61-4-7,.85-1.39,6.48,2.16,9,0,2.22-1.9,1.5-7.77-1-9-2.48-1.22-5.04,2.98-9,2-3.32-.82-4.09-4.4-6-4-1.46.3-2.1,2.62-3,6Z"/>
      <path class="cls-11" d="M154,110.22c-.84.71-3.42,3.1-4,7-.45,3.05.24,7.62,3,9,2.6,1.31,4.35-1.58,9-1,3.46.43,6.05,2.47,8,4,4.16,3.27,4.72,5.95,7,6,1.2.03,2.9-.68,5-4-2.63-3.79-7.08-9.21-14-14-5.23-3.62-10.22-5.74-14-7Z"/>
      <path class="cls-11" d="M138,131.22c-2.79-.68-6.2,1.81-6,4,.15,1.58,2.17,2.89,4,3,2.48.14,5.17-1.89,5-4-.12-1.49-1.64-2.66-3-3Z"/>
      <circle class="cls-5" cx="85.31" cy="52.94" r="9.71"/>
      <circle class="cls-8" cx="85.6" cy="52.74" r="7.48"/>
      <circle cx="85.05" cy="52.8" r="4.53"/>
      <circle class="cls-5" cx="90.06" cy="48.49" r="3.06"/>
      <circle class="cls-5" cx="52.02" cy="52.98" r="9.71"/>
      <circle class="cls-8" cx="52.31" cy="52.78" r="7.48"/>
      <circle cx="51.76" cy="52.84" r="4.53"/>
      <circle class="cls-5" cx="56.77" cy="48.54" r="3.06"/>
      <path class="cls-4" d="M100.5,38.72c-1.03.18-1.5-4.33-5.5-6.5-2.42-1.31-4.04-.63-5-2-.8-1.14-.61-2.93,1.5-7.5,2.89-6.26,6.09-10.62,7.5-12.5,4.45-5.94,6.68-8.91,7.5-8.5,1.39.69-4.05,9.23-5,23-.48,6.91.27,13.78-1,14Z"/>
      <path class="cls-4" d="M33.94,40.76c1.03.18,1.5-4.33,5.5-6.5,2.42-1.31,4.04-.63,5-2,.8-1.14.61-2.93-1.5-7.5-2.89-6.26-6.09-10.62-7.5-12.5-4.45-5.94-6.68-8.91-7.5-8.5-1.39.69,4.05,9.23,5,23,.48,6.91-.27,13.78,1,14Z"/>
      <path class="cls-9" d="M42,98.22c2.1,1.38,4.77,2.83,8,4,7.4,2.67,14.02,2.47,18,2"/>
      <path class="cls-3" d="M102.5,83.72c-.35-.08-1.09,5.35-4.5,11.5-1.22,2.19-3.42,6.08-7.5,9.5-5.35,4.49-8.84,5.16-12.5,7.5-4.42,2.82-9.43,8.74-11.5,22.5,4.6-12.35,10.38-17.57,15-20,1.91-1.01,6.87-3.21,12-8,1.78-1.66,3.5-3.3,5-6,1.45-2.61,1.98-5.11,3-10,.57-2.76,1.31-6.93,1-7Z"/>
      <path class="cls-12" d="M121.5,154.72c.33,0,2.46,14.87-1,33-2.86,14.98-7.79,23.08-9,25-2.19,3.49-4.37,6.17-6,8,1.45-3.77,3.55-9.28,6-16,4.51-12.39,6.8-18.69,8-24,3.4-14.99,1.71-26,2-26Z"/>
    </g>
  </g>
</svg>