<?xml version="1.0" encoding="UTF-8"?>
<svg id="Layer_2" data-name="Layer 2" xmlns="http://www.w3.org/2000/svg" viewBox="0 0 124.14 114.27">
  <defs>
    <style>
      .cls-1 {
        fill: #2f8d43;
      }

      .cls-2 {
        fill: #99cc62;
      }

      .cls-3 {
        fill: #fff;
      }

      .cls-4 {
        fill: #333;
      }
    </style>
  </defs>
  <g id="Layer_1-2" data-name="Layer 1">
    <g>
      <ellipse class="cls-2" cx="111.8" cy="102" rx="12.87" ry="10.18" transform="translate(-34.6 63.66) rotate(-27.7)"/>
      <ellipse class="cls-2" cx="99.16" cy="97.08" rx="13.68" ry="10.77" transform="translate(-11.14 181.29) rotate(-81.76)"/>
      <ellipse class="cls-2" cx="87.99" cy="92.42" rx="14.89" ry="11.79" transform="translate(-16.09 166.26) rotate(-81.76)"/>
      <ellipse class="cls-2" cx="71.66" cy="89.12" rx="15.48" ry="12.55" transform="translate(-26.81 147.26) rotate(-81.76)"/>
      <ellipse class="cls-2" cx="57.62" cy="92.6" rx="16.19" ry="13.93" transform="translate(-42.28 136.35) rotate(-81.76)"/>
      <ellipse class="cls-2" cx="38.32" cy="94.73" rx="17.5" ry="15.06" transform="translate(-60.93 119.08) rotate(-81.76)"/>
      <ellipse class="cls-2" cx="23.58" cy="89.14" rx="17.5" ry="15.06" transform="translate(-33.69 16.88) rotate(-23.58)"/>
      <ellipse class="cls-2" cx="19.89" cy="73.87" rx="16.57" ry="12.87"/>
      <ellipse class="cls-2" cx="19.93" cy="55.57" rx="12.8" ry="16.57" transform="translate(-37.92 67.32) rotate(-81.76)"/>
      <ellipse class="cls-2" cx="22.46" cy="34" rx="21" ry="17"/>
      <path class="cls-1" d="M29.46,59c-1.75.4-2.86,3.09-2,5,.46,1.02,1.59,2.06,3,2,1.64-.07,2.85-1.59,3-3,.24-2.23-2.14-4.43-4-4Z"/>
      <path class="cls-1" d="M6.5,55.87c-1.42-1.1-4.2-.26-5.14,1.62-.5,1.01-.58,2.54.35,3.59,1.09,1.22,3.03,1.2,4.22.42,1.88-1.23,2.07-4.46.56-5.63Z"/>
      <path class="cls-1" d="M5.38,74.34c-1.16-.79-3.78.25-4.84,1.98-.57.92-.82,2.25-.09,3.05.85.93,2.62.69,3.78-.11,1.84-1.27,2.38-4.08,1.15-4.91Z"/>
      <path class="cls-1" d="M12.97,98.42c-1.64-.45-3.86,1.41-4.06,3.47-.11,1.11.33,2.53,1.52,3.12,1.39.68,3.12-.1,3.93-1.26,1.27-1.84.36-4.85-1.39-5.33Z"/>
      <path class="cls-1" d="M30.07,78.29c-1.27,1.09-1.02,3.79.52,4.99.82.64,2.21,1.01,3.34.35,1.32-.77,1.66-2.54,1.17-3.77-.77-1.94-3.68-2.72-5.03-1.57Z"/>
      <path class="cls-1" d="M36.03,95.07c-1.58.4-2.58,3.09-1.81,5,.42,1.02,1.44,2.06,2.71,2,1.48-.07,2.57-1.59,2.71-3,.22-2.23-1.93-4.43-3.61-4Z"/>
      <path class="cls-1" d="M29.89,105.29c-1.61-.3-3.64,1.73-3.73,3.79-.05,1.1.45,2.47,1.63,2.95,1.37.55,3.01-.37,3.72-1.6,1.12-1.94.08-4.83-1.62-5.14Z"/>
      <path class="cls-1" d="M42.43,107.18c-1.55.52-2.34,3.28-1.42,5.12.49.99,1.6,1.94,2.86,1.79,1.47-.18,2.45-1.78,2.48-3.2.04-2.24-2.27-4.26-3.92-3.71Z"/>
      <path class="cls-1" d="M50.82,103.92c-1.28-.21-2.95,1.52-3.06,3.25-.06.93.31,2.06,1.24,2.43,1.09.43,2.41-.37,3.01-1.41.94-1.64.17-4.04-1.19-4.27Z"/>
      <path class="cls-1" d="M60.46,105.56c-1.43.35-2.26,2.33-1.5,3.68.41.73,1.37,1.44,2.52,1.35,1.34-.1,2.3-1.24,2.38-2.27.13-1.62-1.88-3.14-3.4-2.77Z"/>
      <path class="cls-1" d="M73.65,100.48c-1.42.23-2.53,2.6-2.02,4.4.27.97,1.08,2,2.19,2.05,1.3.06,2.39-1.23,2.63-2.5.39-2.01-1.3-4.2-2.8-3.95Z"/>
      <path class="cls-1" d="M85.58,103.62c-1.25.25-2.14,2.32-1.61,3.85.29.82,1.05,1.67,2.04,1.67,1.16,0,2.08-1.14,2.24-2.25.26-1.74-1.34-3.54-2.67-3.28Z"/>
      <path class="cls-1" d="M98.46,106.24c-1.31-.22-3.01,1.57-3.13,3.33-.06.95.31,2.11,1.27,2.49,1.11.44,2.46-.39,3.07-1.45.96-1.68.18-4.14-1.21-4.37Z"/>
      <path class="cls-1" d="M110.33,109.17c-1.18-.22-2.68,1.28-2.75,2.8-.04.81.33,1.82,1.19,2.17,1.01.41,2.21-.28,2.73-1.18.83-1.43.07-3.56-1.18-3.79Z"/>
      <path d="M27.46,21c-.79-9.27,6.72-17.67,16-18-9.19.68-16.43,8.78-16,18h0Z"/>
      <path d="M19.46,20C23.36,10.6,17.71.81,7.46,0c10.38.44,16.28,10.67,12,20h0Z"/>
      <g>
        <path class="cls-2" d="M16.36,43.38c.66.48,2.13,1.4,4.19,1.56,1.26.1,2.3-.12,2.98-.32"/>
        <path d="M16.36,43.38c2.14,1.34,4.7,1.81,7.17,1.23-2.36.93-5.25.41-7.17-1.23h0Z"/>
      </g>
      <circle class="cls-3" cx="10.5" cy="29.75" r="9.71"/>
      <circle class="cls-4" cx="10.79" cy="29.55" r="7.48"/>
      <circle cx="10.24" cy="29.62" r="4.53"/>
      <circle class="cls-3" cx="15.25" cy="25.31" r="3.06"/>
      <circle class="cls-3" cx="33.5" cy="33.75" r="9.71"/>
      <circle class="cls-4" cx="33.79" cy="33.55" r="7.48"/>
      <circle cx="33.24" cy="33.62" r="4.53"/>
      <circle class="cls-3" cx="38.25" cy="29.31" r="3.06"/>
    </g>
  </g>
</svg>