<?xml version="1.0" encoding="UTF-8"?>
<svg id="Layer_2" data-name="Layer 2" xmlns="http://www.w3.org/2000/svg" viewBox="0 0 288.85 337.15">
  <defs>
    <style>
      .cls-1 {
        fill: #fff;
      }

      .cls-2 {
        fill: none;
      }

      .cls-3 {
        fill: #333;
      }

      .cls-4 {
        fill: #efefef;
      }

      .cls-5 {
        fill: #ccc;
      }

      .cls-6 {
        fill: #ffc7af;
      }

      .cls-7 {
        fill: #ff5e23;
      }

      .cls-8 {
        fill: #e4e4e4;
      }

      .cls-9 {
        fill: #bebec0;
      }
    </style>
  </defs>
  <g id="Layer_1-2" data-name="Layer 1">
    <g>
      <path class="cls-5" d="M160.72,218.33c.37,6.47,5.3,13.05,9,18,6.94,9.28,10.13,8.15,14,15,5.33,9.45,5.14,22.01,0,30-1.3,2.02-3.26,5.07-7,7-4.03,2.08-6.09.78-9,3-3.02,2.3-4.92,6.82-4,11,1.04,4.74,5.28,7.06,7,8,7.88,4.32,16.73.88,19,0,6.98-2.71,10.97-7.5,13-10,2.13-2.62,3.96-5.58,10-26,4.71-15.93,5.05-19.06,4-23-1.13-4.26-2.75-5.17-5-12-1.85-5.62-2.55-10.44-3-15-2.35-23.89,2.75-34.07-2-38-9.02-7.46-47.1,12.98-46,32Z"/>
      <path class="cls-5" d="M34.72,206.33c-2.26,2.71,4.07,8.79,11,27,.46,1.21,7.53,20.26,8,45,.2,10.72-.89,19.34-6,22-2.41,1.25-4.61.61-8,3-1.06.75-5,3.62-6,9-.17.89-1.04,6.1,2,10,5.15,6.6,17.17,3.87,21,3,3.41-.78,8.64-1.96,13-6,5.71-5.28,5.58-11.42,8-26,3.46-20.86,5.49-19.04,8-38,1.36-10.27,1.83-18.9,2-25-39.43-24.53-50.57-26.91-53-24Z"/>
      <path class="cls-5" d="M116.22,86.83c2.16,3.21,6.28,8.44,13,12,19.81,10.49,37.92-6.45,66-3,19.74,2.42,33.35,13.56,40,19,3.79,3.1,35.97,30.17,34,65-1.06,18.79-11.32,26.59-7,46,2.31,10.39,5.33,8.52,10,23,5.43,16.85,4.82,30.16,4,48-.73,15.91-2.68,19.48-5,22-5.9,6.4-16.71,8.63-25,5-4.01-1.75-10.27-6.13-10-11,.24-4.41,5.62-5.25,9-12,1.87-3.72,1.94-6.87,2-13,.09-8.44.18-17.16-4-26-1.79-3.79-6.89-8.91-17-19-11.32-11.29-12.49-11.74-18-18-8.95-10.17-12.13-16.1-14-22-1.29-4.06-1.78-7.59-2-10-3.09,3.79-7.69,8.87-14,14-5.46,4.44-12.87,9.43-34,18-21.57,8.75-32.36,13.13-45.5,14.5-17.1,1.78-28.71-1.11-32-2-7.08-1.91-16.12-4.35-24-12-3.4-3.3-6.7-7.68-12.28-22.03-3.49-8.97-7.79-21.62-11.22-37.47,0,0-.62-8.29,0-15,1.86-20.04,40.94-46.26,97-64Z"/>
      <path class="cls-1" d="M47.72,186.33c1.93.33,4.65.45,7-1,2.96-1.82,3.03-4.71,5-5,3.08-.46,4.86,6.28,8,6,2.53-.22,4.88-4.91,5-9,.13-4.31-2.26-6.35-1-8,1-1.31,3.4-1.2,8-1,4.17.18,5.32.77,6,0,1.69-1.91-3.73-7.32-2-10,1.58-2.46,6.96.84,11-2,4.66-3.27,3.7-12.02,5-12,1.03.02.96,5.53,3,6,1.61.37,3.84-2.58,5-5,2.61-5.46,1.02-10.77,2-11,1.09-.25,3.01,6.22,4,6,.98-.22.51-6.97,0-14-.35-4.83-.68-7.81,0-8,1.09-.3,2.84,7.14,5,7,2.32-.15,5.48-9.11,3-17-1.71-5.44-5.75-9.27-5-10,.73-.71,4.42,3.04,6,2,1.85-1.21-.63-8-1-9-2.11-5.78-4.25-7.36-6.5-11.5-2.95-5.44-2.96-12.49-4.56-26.43-.28-2.44-.44-5.15-.44-8.57,0-8.84,1.04-13.3,0-24-1.01-10.43-1.76-18.11-6-20-5.21-2.32-14.49,4.63-23,16-2.98-1.38-9.13-3.72-17-3-4.73.43-8.49,1.82-11,3-2.52-8.92-7.49-15.7-13-16-3.89-.21-7.26,3.52-14,11-6.66,7.38-10.21,11.32-12,18-1.79,6.67-.86,12.54,0,16-4.2,6.67-6.59,12.69-8,17-4.13,12.67-6.61,31.77-2,41,.52,1.04,2.17,4.03,2,8-.04,1.06-.23,2.5-2,7-2.79,7.09-4.92,10.12-4,11,1.04,1.01,4.61-2.16,6-1,.98.81.06,3.05-1,7-1.64,6.11-3.23,12.06-1,14,1.6,1.39,3.98-.29,5,1,1.82,2.31-4.59,9.23-3,11,1.03,1.15,4.18-1.25,6,0,1.94,1.33,1.14,5.95,0,10,2.73.76,6.33,1.25,10,0,5.14-1.76,7.28-5.86,9-5,1.47.74,1.74,4.69,0,7-2.03,2.71-5.89,1.97-6,3-.15,1.44,7.04,5.2,13,3,2.86-1.05,3.82-2.88,5.5-2.5,2.38.54,3.46,4.91,4,9Z"/>
      <path class="cls-5" d="M138.72,206.33c-.69,7.67-1.7,18.7-3,32-.73,7.45-2.49,21.73-6,50-3.02,24.34-4.72,36.64-14,43-3.5,2.4-7.38,3.53-9,4-7.78,2.27-21.59,3.47-25-3-2.43-4.61,1.47-11.13,2-12,2.64-4.29,5.54-4.57,9-8,5.25-5.2,6.19-12.08,7-18,.85-6.19.08-9.75-3-26-4.54-23.96-4.15-22.95-5-26-1.96-7.07-5.25-16.83-11-28"/>
      <path class="cls-9" d="M192.72,192.33c-2.98-7.6-1.22-16.81,4-23-3.98,6.95-5.55,15.11-4,23h0Z"/>
      <path class="cls-5" d="M64.72,13.33c-17.12.87-28.43,11.79-39,22-7.5,7.24-15.05,14.54-19,27-1.87,5.9-5.48,17.31,0,29,5.68,12.12,17.42,16.63,21,18,3.3,1.27,9.24,3.07,30,1,26.7-2.66,40.22-4.2,48-14,4.72-5.94,5.98-12.6,7-18,2.12-11.21.04-20.69-2-30-1.37-6.25-2.06-9.37-4-13-4.97-9.27-12.93-13.77-17-16-2.77-1.52-12.39-6.64-25-6Z"/>
      <path class="cls-5" d="M78.72,25.33c.62-3.3,2.23-9.34,7-15,1.07-1.27,10.62-12.38,18-10,8.4,2.71,9.63,21.5,8,33-.87,6.09-2.64,10.9-4,14"/>
      <path class="cls-5" d="M55.72,28.33C52.54,12.25,46.74.43,40.72.33c-2.85-.05-6.57,3.64-14,11-4.01,3.97-6.02,5.96-8,9-4.86,7.45-5.82,14.52-6,16-.94,7.66.83,13.8,2,17"/>
      <path class="cls-4" d="M113.22,78.83c-.36,8.22-3.03,13.21-5,16-8.51,12.03-25.86,13.78-48,16-7.59.76-13.86.96-18,1,6.15,2.35,10.28,2.44,13,2,.78-.13,2.21-.42,4,0,2.87.67,3.31,2.36,6,4,3.58,2.18,8.39,2.58,12,1,1.23-.54,2.02-1.19,3-2,3.33-2.75,5.09-5.94,6-8,2.69.11,8.13-.04,14-3,2.52-1.27,7.7-3.97,11-10,4.1-7.49,2.51-14.97,2-17Z"/>
      <path class="cls-6" d="M50.72,31.33c-.61-3.92-2.06-10.24-6-17-2.98-5.11-4.62-7.93-7-8-5.61-.17-12.3,15.03-12,29,.11,5.03,1.11,9.17,2,12"/>
      <path class="cls-6" d="M85.72,30.33c.39-2.65,1.35-6.76,4-11,3.07-4.91,9.35-11.51,13-10,3.22,1.34,3.07,8.49,3,12-.18,8.63-3.33,15.54-6,20"/>
      <path class="cls-1" d="M113.72,71.33c-.23-.66-2.32-6.39-8-8-2.55-.72-4.78-.33-6,0-.04-1.99-.42-6.01-3-10-1.38-2.14-3.4-5.25-7-6-4.77-.99-8.83,2.89-10,4-4.63,4.42-4.96,10.38-5,12-.13-1.25-1.07-9.03-8-14-8.62-6.19-18.43-2.24-19-2-10.34,4.37-11.94,15.53-12,16-2.77.06-9.13.59-15,5-7.41,5.57-12.49,16.16-9.5,25.5,3.65,11.39,17.32,14.65,23,16,4.56,1.09,10.77.74,23,0,12.95-.78,19.42-1.18,26-3,8.62-2.39,15.98-4.43,22-11,8.03-8.76,8.55-20.01,8.5-24.5Z"/>
      <path class="cls-1" d="M44.72,104.33c1.78.55,4.62,1.51,8,3,6.85,3.02,8.3,4.88,14,7,5.04,1.87,8.29,3.08,12,2,5.56-1.62,8.24-7.23,9-9"/>
      <path class="cls-7" d="M69.72,107.33c.43,2.67,3.13,4.04,5,5,1.87.96,5.51,2.81,9,1,2.11-1.09,4.21-3.55,4-6-.43-4.9-10.1-9.17-15-6-1.79,1.16-3.39,3.6-3,6Z"/>
      <path class="cls-1" d="M80.72,68.33c1.27,2.79,3.48,7.15,7,12,3.85,5.29,5.72,6.3,7,10,1.7,4.91,1.98,13.46-3,16-3.54,1.81-8.91.16-13-4-1.37,1.21-6.2,5.19-13,5-7.76-.21-14.93-5.75-18-14"/>
      <path d="M69.72,88.33c1.13-3.51,6.22-4.8,9-5,3.7-.27,9.57.94,11,5,1.66,4.69-3.21,11.51-9,12-6.6.56-12.53-7.27-11-12Z"/>
      <path class="cls-5" d="M226.72,108.33c4.29,2.79,9.11,6.4,14,11,7.86,7.39,13.3,14.92,17,21,5-1.93,12.54-5.69,19-13,13.84-15.67,14.84-38.78,8-56-7.7-19.37-28.59-39.27-53-36-17.42,2.34-35.42,16.3-38,35-.33,2.36-2.32,18.84,10,30,8.41,7.62,20.22,9.8,30,7,2.55-.73,14.44-4.13,17-14,1.37-5.3.14-12.8-5-16-2.93-1.83-8.05-2.83-11,0-2.29,2.2-3.42,6.86-1,9,1.61,1.42,4.46,1.43,7,0"/>
      <path class="cls-2" d="M47.72,325.33c-.24-.44-3.47-6.69,0-13,2.38-4.33,7-7.02,12-7"/>
      <path class="cls-2" d="M39.72,325.33c-.44-.78-3.48-6.42-1-13,2.41-6.39,8.13-8.67,9-9"/>
      <path class="cls-2" d="M99.72,336.33c-2.59-7.59-1.08-14.53,3-17,.83-.5,2.43-1.22,5-1"/>
      <path class="cls-2" d="M87.72,336.33c-.43-1.56-2.31-9.04,2-16,1.91-3.08,4.35-4.95,6-6"/>
      <path class="cls-2" d="M173.72,311.33c-2.85-3.96-2.82-9.26,0-13,2.5-3.32,6.81-4.88,11-4"/>
      <path class="cls-2" d="M260.72,324.33c-.57-1.85-1.75-6.55,0-12,1.06-3.31,2.8-5.64,4-7"/>
      <path class="cls-2" d="M246.72,323.33c-.53-1.68-1.79-6.41,0-12,1.57-4.89,4.63-7.83,6-9"/>
      <path class="cls-2" d="M69.72,26.33c1.82,3.72,3.82,8.78,5,15,1.74,9.2.94,16.99,0,22"/>
      <path class="cls-2" d="M66.72,30.33c1.04,2.75,2.06,5.76,3,9,.81,2.8,1.46,5.47,2,8"/>
      <path class="cls-2" d="M76.72,30.33c.78,1.77,1.74,4.52,2,8,.3,3.9-.41,7.06-1,9"/>
      <circle class="cls-1" cx="57.47" cy="68.44" r="10.26"/>
      <circle class="cls-3" cx="57.23" cy="68.15" r="7.9"/>
      <circle cx="57.35" cy="68.72" r="4.79"/>
      <circle class="cls-1" cx="52.28" cy="63.93" r="3.24"/>
      <circle class="cls-1" cx="89.21" cy="68.57" r="7.2"/>
      <circle class="cls-3" cx="89.04" cy="68.37" r="5.54"/>
      <circle cx="89.13" cy="68.77" r="3.36"/>
      <circle class="cls-1" cx="85.57" cy="65.41" r="2.27"/>
      <path class="cls-4" d="M3.22,81.83c-.84,3.63-1.02,6.74-1,9,.02,2.22.09,6.75,2,12,1.6,4.39,2.63,4.18,3,7,.47,3.54-.81,6.53-2.5,10.5-2.14,5.01-4.3,7.68-3.5,8.5.94.97,4.52-2.17,6-1,.95.75.31,3.18-1,8-2.58,9.48-3.17,11.62-2,13,1.64,1.93,4.9.24,6,2,1.7,2.74-4.79,9.09-3.5,10.5.81.89,3.56-1.47,5.5-.5,2.25,1.12,2.09,6.07,1.5,10.5.9-.72,2.44-2.17,3.5-4.5.49-1.08,1.45-3.26,1-6-.04-.24-.84-4.84-3.5-5.5-1.9-.47-3.75,1.34-4,1-.4-.54,4.45-3.45,4-6-.44-2.48-5.32-1.82-7-5-1.22-2.32.67-4.01,2.5-12.5,1.49-6.9.82-8.5,0-9-1.05-.64-2.3.58-3,0-1.39-1.16,3.28-6.26,3.5-12.5.17-4.88-2.52-6.45-5-13-1.38-3.64-2.79-9.08-2.5-16.5Z"/>
      <path class="cls-8" d="M240.22,85.83c-.17.15-1.94,1.59-4,1-2.47-.71-2.95-3.66-3-4-.36-2.47,1.16-4.9,3-6,3.45-2.06,8.42.44,11,3,3.86,3.83,4.29,9.73,3,14-1.68,5.57-6.27,8.35-9,10-7.31,4.42-18.02,6.25-28,2-10.63-4.52-15.32-13.76-17-18-4.61-11.61-1.09-21.95,0-25,7.1-19.86,28.91-25.49,31-26-2.1.69-19.75,6.77-25,24-.82,2.68-4.16,13.63,2,24,4.2,7.07,12.69,13.65,22,13,8.21-.57,16.66-6.73,16-10-.19-.96-1.16-1.6-2-2Z"/>
      <path class="cls-9" d="M138.22,225.83c-.35-.05-.22-2.88,0-8,.31-7.1.52-11.99,1-12,.5-.01,1.42,5.3,1,11-.35,4.67-1.56,9.06-2,9Z"/>
      <path class="cls-9" d="M121.22,140.83c.75.13,1.05,17.82-7,37-9.91,23.59-27.43,37.48-28,37-.51-.43,12.69-12.14,23-34,10.33-21.9,11.24-40.14,12-40Z"/>
      <path class="cls-9" d="M90.22,174.83c.22.17-4.42,10.45-14,20-3.01,3-6.03,5.48-7,10-1.11,5.19,1.21,9.94,1,10-.56.17-4.86-5.22-4-11,.69-4.62,4.23-6.49,10-12,9.37-8.95,13.79-17.16,14-17Z"/>
      <path class="cls-9" d="M129.22,98.83c.58-.1,4.4,12.51,6,28,3.44,33.22-5.32,60.11-6,60-.54-.09,4.23-17.01,4-44-.22-25.3-4.7-43.88-4-44Z"/>
      <path class="cls-9" d="M207.72,155.33c-.54,7.04-.51,19.33,5,33,9.1,22.57,26.96,33.61,33,37-7.71-6.8-19.33-18.83-28-37-6.07-12.73-8.75-24.41-10-33Z"/>
      <path class="cls-9" d="M246.6,155.72c.66-.08,3.39,10.18,3.75,22.25.44,14.66-2.79,26.93-3.52,26.84-.63-.07.77-9.43.52-27.01-.2-14.25-1.33-22-.76-22.08Z"/>
      <path class="cls-9" d="M29.96,181.55c-.19.15,3.79,8.96,12,17.14,2.58,2.58,5.17,4.7,6,8.57.95,4.45-1.04,8.52-.86,8.57.48.15,4.16-4.48,3.43-9.43-.59-3.96-3.63-5.56-8.57-10.28-8.03-7.67-11.82-14.7-12-14.57Z"/>
    </g>
  </g>
</svg>