<?xml version="1.0" encoding="UTF-8"?>
<svg id="Layer_2" data-name="Layer 2" xmlns="http://www.w3.org/2000/svg" viewBox="0 0 286.31 338.36">
  <defs>
    <style>
      .cls-1 {
        fill: none;
      }

      .cls-1, .cls-2, .cls-3, .cls-4, .cls-5, .cls-6, .cls-7 {
        stroke: #000;
        stroke-miterlimit: 10;
      }

      .cls-2 {
        fill: #ccc;
      }

      .cls-8, .cls-3, .cls-6 {
        fill: #fff;
      }

      .cls-9 {
        fill: #333;
      }

      .cls-5 {
        fill: #ffc7af;
      }

      .cls-6 {
        stroke-width: .25px;
      }

      .cls-7 {
        fill: #ff5e23;
      }
    </style>
  </defs>
  <g id="Layer_1-2" data-name="Layer 1">
    <g>
      <path class="cls-2" d="M157.68,219.05c.37,6.47,5.3,13.05,9,18,6.94,9.28,10.13,8.15,14,15,5.33,9.45,5.14,22.01,0,30-1.3,2.02-3.26,5.07-7,7-4.03,2.08-6.09.78-9,3-3.02,2.3-4.92,6.82-4,11,1.04,4.74,5.28,7.06,7,8,7.88,4.32,16.73.88,19,0,6.98-2.71,10.97-7.5,13-10,2.13-2.62,3.96-5.58,10-26,4.71-15.93,5.05-19.06,4-23-1.13-4.26-2.75-5.17-5-12-1.85-5.62-2.55-10.44-3-15-2.35-23.89,2.75-34.07-2-38-9.02-7.46-47.1,12.98-46,32Z"/>
      <path class="cls-2" d="M31.68,207.05c-2.26,2.71,4.07,8.79,11,27,.46,1.21,7.53,20.26,8,45,.2,10.72-.89,19.34-6,22-2.41,1.25-4.61.61-8,3-1.06.75-5,3.62-6,9-.17.89-1.04,6.1,2,10,5.15,6.6,17.17,3.87,21,3,3.41-.78,8.64-1.96,13-6,5.71-5.28,5.58-11.42,8-26,3.46-20.86,5.49-19.04,8-38,1.36-10.27,1.83-18.9,2-25-39.43-24.53-50.57-26.91-53-24Z"/>
      <path class="cls-2" d="M113.18,87.55c2.16,3.21,6.28,8.44,13,12,19.81,10.49,37.92-6.45,66-3,19.74,2.42,33.35,13.56,40,19,3.79,3.1,35.97,30.17,34,65-1.06,18.79-11.32,26.59-7,46,2.31,10.39,5.33,8.52,10,23,5.43,16.85,4.82,30.16,4,48-.73,15.91-2.68,19.48-5,22-5.9,6.4-16.71,8.63-25,5-4.01-1.75-10.27-6.13-10-11,.24-4.41,5.62-5.25,9-12,1.87-3.72,1.94-6.87,2-13,.09-8.44.18-17.16-4-26-1.79-3.79-6.89-8.91-17-19-11.32-11.29-12.49-11.74-18-18-8.95-10.17-12.13-16.1-14-22-1.29-4.06-1.78-7.59-2-10-3.09,3.79-7.69,8.87-14,14-12.34,10.03-23.89,14.34-34,18-19.2,6.96-31.39,11.38-47,9-3.88-.59-12.64-4.4-30-12-32.83-14.37-35.43-16.54-38-20-8.12-10.94-9.23-25.73-10-36,0,0-.62-8.29,0-15,1.86-20.04,40.94-46.26,97-64Z"/>
      <path class="cls-6" d="M50.18,187.55c1.8-2.12,4.82-5.44,9-9,8.56-7.27,16.3-10.67,19-12,17.48-8.59,33.24-33.45,36-56,.89-7.27-.07-14.84-2-30-2.41-18.93-5-21.33-5-35,0-8.84,1.04-13.3,0-24-1.01-10.43-1.76-18.11-6-20-5.21-2.32-14.49,4.63-23,16-2.98-1.38-9.13-3.72-17-3-4.73.43-8.49,1.82-11,3-2.52-8.92-7.49-15.7-13-16-3.89-.21-7.26,3.52-14,11-6.66,7.38-10.21,11.32-12,18-1.79,6.67-.86,12.54,0,16-2.41,3.75-5.63,9.51-8,17-4.99,15.8-3.03,29.4,0,49,2.64,17.07,3.96,25.6,7,31,5.39,9.59,11.19,12.51,31,34,3.83,4.16,6.93,7.64,9,10Z"/>
      <path class="cls-2" d="M135.68,207.05c-.69,7.67-1.7,18.7-3,32-.73,7.45-2.49,21.73-6,50-3.02,24.34-4.72,36.64-14,43-3.5,2.4-7.38,3.53-9,4-7.78,2.27-21.59,3.47-25-3-2.43-4.61,1.47-11.13,2-12,2.64-4.29,5.54-4.57,9-8,5.25-5.2,6.19-12.08,7-18,.85-6.19.08-9.75-3-26-4.54-23.96-4.15-22.95-5-26-1.96-7.07-5.25-16.83-11-28"/>
      <path class="cls-1" d="M189.68,193.05c-.58-2.06-1.09-4.79-1-8,.2-7.25,3.33-12.56,5-15"/>
      <path class="cls-1" d="M126.68,99.05c4.83,2.94,12.86,8.82,18,19,5.26,10.43,4.77,20,4,32-.64,10.04-2.78,25.25-10,43"/>
      <path class="cls-1" d="M126.68,99.05c3.5,9.34,5.15,17.33,6,23,3.2,21.31-.46,39.13-3,51-1.09,5.07-2.2,9.22-3,12"/>
      <path class="cls-1" d="M119.68,119.05c.41,5.65.68,13.58,0,23-.78,10.84-1.76,24.43-8,39-3.27,7.64-10.68,21.82-27,35"/>
      <path class="cls-1" d="M88.68,176.05c-4.96,9.71-10.04,15.95-14,20-2.09,2.13-5.66,5.49-7,11-.87,3.58-.49,6.8,0,9"/>
      <path class="cls-1" d="M112.68,137.05c-.41,4.55-1.67,11.99-6,20-3.24,5.99-7.08,10.25-10,13"/>
      <path class="cls-1" d="M22.68,181.05c.47,3.22,1.65,7.85,5,12,3.92,4.84,7.86,5.39,13,10,2.71,2.43,6.22,6.42,9,13"/>
      <path class="cls-1" d="M11.68,128.05c.08,2.21.48,5.44,2,9,2.59,6.07,6.9,9.53,9,11"/>
      <path class="cls-1" d="M11.68,115.05c1.3,3.09,3.92,8.21,9,13,6.11,5.76,12.62,8.06,16,9"/>
      <path class="cls-1" d="M96.68,133.05c-.73,2.5-2.73,8.07-8,13-5.05,4.73-10.47,6.39-13,7"/>
      <path class="cls-1" d="M109.68,89.05c-1.02,5.12-3,11.86-7,19-7.88,14.05-19.11,21.62-25,25"/>
      <path class="cls-2" d="M61.68,14.05c-17.12.87-28.43,11.79-39,22-7.5,7.24-15.05,14.54-19,27-1.87,5.9-5.48,17.31,0,29,5.68,12.12,17.42,16.63,21,18,3.3,1.27,9.24,3.07,30,1,26.7-2.66,40.22-4.2,48-14,4.72-5.94,5.98-12.6,7-18,2.12-11.21.04-20.69-2-30-1.37-6.25-2.06-9.37-4-13-4.97-9.27-12.93-13.77-17-16-2.77-1.52-12.39-6.64-25-6Z"/>
      <path class="cls-2" d="M75.68,26.05c.39-2.25,1.19-5.49,3-9C83.74,7.22,95.25-1.85,101.68,1.05c4.9,2.21,5.43,10.74,6,20,.7,11.44-1.24,20.85-3,27-5.73-4.64-11.72-9.32-18-14-3.7-2.76-7.37-5.42-11-8Z"/>
      <path class="cls-2" d="M52.68,29.05C49.5,12.96,43.7,1.15,37.68,1.05c-2.85-.05-6.57,3.64-14,11-4.01,3.97-6.02,5.96-8,9-4.86,7.45-5.82,14.52-6,16-.94,7.66.83,13.8,2,17"/>
      <path class="cls-5" d="M47.68,32.05c-.61-3.92-2.06-10.24-6-17-2.98-5.11-4.62-7.93-7-8-5.61-.17-12.3,15.03-12,29,.11,5.03,1.11,9.17,2,12"/>
      <path class="cls-5" d="M82.68,31.05c.39-2.65,1.35-6.76,4-11,3.07-4.91,9.35-11.51,13-10,3.22,1.34,3.07,8.49,3,12-.18,8.63-3.33,15.54-6,20"/>
      <path class="cls-3" d="M110.68,72.05c-.23-.66-2.32-6.39-8-8-2.55-.72-4.78-.33-6,0-.04-1.99-.42-6.01-3-10-1.38-2.14-3.4-5.25-7-6-4.77-.99-8.83,2.89-10,4-4.63,4.42-4.96,10.38-5,12-.13-1.25-1.07-9.03-8-14-8.62-6.19-18.43-2.24-19-2-10.34,4.37-11.94,15.53-12,16-2.44-.02-9.13.26-15,5-7.69,6.21-10.76,17.29-8,25,5.18,14.46,30.42,16.03,46,17,16.49,1.03,29.03,1.81,40-7,13.14-10.55,14.72-27.38,15-32Z"/>
      <path class="cls-3" d="M41.68,105.05c1.78.55,4.62,1.51,8,3,6.85,3.02,8.3,4.88,14,7,5.04,1.87,8.29,3.08,12,2,5.56-1.62,8.24-7.23,9-9"/>
      <path class="cls-7" d="M66.68,108.05c.43,2.67,3.13,4.04,5,5,1.87.96,5.51,2.81,9,1,2.11-1.09,4.21-3.55,4-6-.43-4.9-10.1-9.17-15-6-1.79,1.16-3.39,3.6-3,6Z"/>
      <path class="cls-3" d="M77.68,69.05c1.27,2.79,3.48,7.15,7,12,3.85,5.29,5.72,6.3,7,10,1.7,4.91,1.98,13.46-3,16-3.54,1.81-8.91.16-13-4-1.37,1.21-6.2,5.19-13,5-7.76-.21-14.93-5.75-18-14"/>
      <path class="cls-4" d="M66.68,89.05c1.13-3.51,6.22-4.8,9-5,3.7-.27,9.57.94,11,5,1.66,4.69-3.21,11.51-9,12-6.6.56-12.53-7.27-11-12Z"/>
      <path class="cls-2" d="M223.68,109.05c4.29,2.79,9.11,6.4,14,11,7.86,7.39,13.3,14.92,17,21,5-1.93,12.54-5.69,19-13,13.84-15.67,14.84-38.78,8-56-7.7-19.37-28.59-39.27-53-36-17.42,2.34-35.42,16.3-38,35-.33,2.36-2.32,18.84,10,30,8.41,7.62,20.22,9.8,30,7,2.55-.73,14.44-4.13,17-14,1.37-5.3.14-12.8-5-16-2.93-1.83-8.05-2.83-11,0-2.29,2.2-3.42,6.86-1,9,1.61,1.42,4.46,1.43,7,0"/>
      <path class="cls-1" d="M44.68,326.05c-.24-.44-3.47-6.69,0-13,2.38-4.33,7-7.02,12-7"/>
      <path class="cls-1" d="M36.68,326.05c-.44-.78-3.48-6.42-1-13,2.41-6.39,8.13-8.67,9-9"/>
      <path class="cls-1" d="M96.68,337.05c-2.59-7.59-1.08-14.53,3-17,.83-.5,2.43-1.22,5-1"/>
      <path class="cls-1" d="M84.68,337.05c-.43-1.56-2.31-9.04,2-16,1.91-3.08,4.35-4.95,6-6"/>
      <path class="cls-1" d="M170.68,312.05c-2.85-3.96-2.82-9.26,0-13,2.5-3.32,6.81-4.88,11-4"/>
      <path class="cls-1" d="M257.68,325.05c-.57-1.85-1.75-6.55,0-12,1.06-3.31,2.8-5.64,4-7"/>
      <path class="cls-1" d="M243.68,324.05c-.53-1.68-1.79-6.41,0-12,1.57-4.89,4.63-7.83,6-9"/>
      <path class="cls-1" d="M204.68,153.05c-.91,6.07-2.79,23.84,7,43,9.87,19.31,25.55,28.21,31,31"/>
      <path class="cls-1" d="M242.68,157.05c2.09,6.15,4.56,15.92,4,28-.4,8.66-2.23,15.82-4,21"/>
      <path class="cls-1" d="M148.68,108.05c5.47.78,13.08,1.27,22,0,9.9-1.41,17.73-4.46,23-7"/>
      <path class="cls-1" d="M209.68,126.05c-5.75,7.79-9.5,15.29-12,22-4.78,12.83-3.44,18.57-9,28-3.97,6.74-8.51,10.36-17,17-7.35,5.75-18.57,13.39-34,20"/>
      <path class="cls-1" d="M66.68,27.05c1.82,3.72,3.82,8.78,5,15,1.74,9.2.94,16.99,0,22"/>
      <path class="cls-1" d="M63.68,31.05c1.04,2.75,2.06,5.76,3,9,.81,2.8,1.46,5.47,2,8"/>
      <path class="cls-1" d="M73.68,31.05c.78,1.77,1.74,4.52,2,8,.3,3.9-.41,7.06-1,9"/>
      <circle class="cls-3" cx="54.43" cy="69.15" r="10.26"/>
      <circle class="cls-9" cx="54.19" cy="68.86" r="7.9"/>
      <circle cx="54.31" cy="69.43" r="4.79"/>
      <circle class="cls-8" cx="49.24" cy="64.64" r="3.24"/>
      <circle class="cls-3" cx="86.17" cy="69.28" r="7.2"/>
      <circle class="cls-9" cx="86" cy="69.08" r="5.54"/>
      <circle cx="86.09" cy="69.48" r="3.36"/>
      <circle class="cls-8" cx="82.53" cy="66.12" r="2.27"/>
    </g>
  </g>
</svg>