<?xml version="1.0" encoding="UTF-8"?>
<svg id="Layer_2" data-name="Layer 2" xmlns="http://www.w3.org/2000/svg" viewBox="0 0 128.75 76.16">
  <defs>
    <style>
      .cls-1 {
        fill: #fff;
      }

      .cls-2 {
        fill: none;
      }

      .cls-3 {
        fill: #333;
      }

      .cls-4 {
        fill: #eba06b;
      }

      .cls-5 {
        fill: #ffae6b;
      }
    </style>
  </defs>
  <g id="Layer_1-2" data-name="Layer 1">
    <g>
      <path class="cls-5" d="M128.12,47.11c1.83-5.49-.61-10.73-4-18-2.78-5.97-6.47-13.9-15-20-9.45-6.76-19.41-7.39-29-8-7.85-.5-14.42.22-19,1C56.41.94,49.08-.39,40.12.11c-9.94.55-20.32,1.12-29,9C.9,18.39.26,31.26.12,34.11c-.25,4.97-.74,14.85,6,20,3.12,2.39,6.69,2.91,9,3,8.03,4.93,15.14,7.02,20,8,5.7,1.15,10.88,1.12,21,1,7.62-.09,14.37-.47,21-1,16.69-1.35,25.2-2.04,33-5,7.71-2.92,15.65-5.93,18-13Z"/>
      <path class="cls-1" d="M113.12,55.11c1.22,2.06-.97,5.96-3,8-2.31,2.32-5.04,2.86-6,3-.39.68-1.3,2.03-3,3-1.18.68-2.29.91-3,1,.65,1.92-.55,3.76-2,4-1.14.19-2.46-.61-3-2-1.05-.25-2.57-.78-4-2-.39-.33-.72-.67-1-1-1.92-.68-3.92-1.35-6-2-2.41-.75-4.74-1.41-7-2-3.35.53-8.83.82-14-2-11.44-6.25-11.86-22.58-12-28-.42-16.5,8.37-28.56,12-33,5.2-.81,11.64-1.37,19-1,5.69.29,10.74,1.07,15,2-3.07,3.47-10.79,13.19-11,27-.04,2.44-.29,19.11,9,24,7.86,4.14,17.84-2.64,20,1Z"/>
      <path d="M122.12,45.11c0-.99,1.66-1.85,3-2,.4-.04,2.32-.2,3,1,.43.75.13,1.63,0,2-.25.73-.95,1.91-2,2-.53.05-1.03-.3-2-1-1.33-.96-2-1.43-2-2Z"/>
      <path d="M126.56,48.35c-1.36,2.21-4.69,2.68-6.44.76.93.71,2.14,1,3.2.72,1.03-.24,1.92-1.04,2.36-1.96l.87.49h.01Z"/>
      <path class="cls-1" d="M75.12,63.11c-.82,4.42.07,6.19,1,7,1.24,1.08,2.61.5,5,2,2.05,1.29,3.04,2.96,3,3-.05.05-2.06-2.44-3-2-.81.38-.13,2.61-1,3-.75.34-1.59-1.19-3-1-1.09.15-1.46,1.19-2,1-.68-.24-.11-1.9-1-3-.81-1-2.05-.56-4-1-2.96-.67-4.88-2.77-6-4-1.64-1.8-2.52-3.67-3-5"/>
      <path class="cls-1" d="M15.12,57.11c1.73.39,2.75,1.67,3,2,.61.79,1.51,2.41,1,3-.48.55-2.11.11-4-1-.24,1.63-.77,1.93-1,2-.95.31-2.51-1.3-4-4-.31,2.82-1.09,4.94-2,5-1.06.07-2.63-2.65-2-5,.38-1.42,1.62-2.89,3-3,1.06-.08,1.27.72,3,1,1.5.25,1.71-.29,3,0Z"/>
      <path class="cls-5" d="M90.12,17.11c-2.77.35-4.5,2.31-6,4-2.32,2.61-1.67,3.51-4,6-2.32,2.49-4.07,2.79-4,4,.09,1.5,2.88,2.69,5,3,2.91.42,6.53-.54,9-3,2.59-2.58,2.59-5.49,5-6,1.47-.31,2.38.58,3,0,.96-.9-.02-4.1-2-6-.14-.14-2.61-2.43-6-2Z"/>
      <path class="cls-2" d="M90.12,66.11c.37.98,1,2.41,2,4,1.22,1.93,2.66,4.22,4,4,.94-.16,1.43-1.48,2-3,.87-2.34,1.03-4.47,1-6"/>
      <path class="cls-2" d="M87.12,67.11c.26.68.82,1.89,2,3,1.55,1.45,3.27,1.87,4,2"/>
      <path class="cls-1" d="M88.12,69.11c-1.15.02-2.99-.1-5-1-3.82-1.7-5.52-4.98-6-6"/>
      <path class="cls-1" d="M105.62,63.61c-.32.93-1.03,2.58-2.52,4.08-1.96,1.97-4.12,2.54-5.04,2.72"/>
      <path class="cls-1" d="M103.48,66.99c1.18-.1,3.05-.5,4.96-2.02,3.64-2.9,4.85-7.83,5.17-9.37"/>
      <path class="cls-4" d="M15.12,57.11c-4.24-6.48-4.7-15.09-1.56-22.12.46-.99.96-1.97,1.56-2.88-3.4,7.95-3.5,17.06,0,25h0Z"/>
      <circle class="cls-1" cx="105.07" cy="32.65" r="9.55"/>
      <circle class="cls-3" cx="104.86" cy="32.37" r="7.35"/>
      <circle cx="104.94" cy="32.91" r="4.46"/>
      <circle class="cls-1" cx="100.52" cy="28.15" r="3.01"/>
    </g>
  </g>
</svg>