<?xml version="1.0" encoding="UTF-8"?>
<svg id="Layer_2" data-name="Layer 2" xmlns="http://www.w3.org/2000/svg" viewBox="0 0 83 86.2">
  <defs>
    <style>
      .cls-1 {
        fill: #fff;
      }

      .cls-2 {
        fill: #333;
      }

      .cls-3 {
        fill: #ccc;
      }
    </style>
  </defs>
  <g id="Layer_1-2" data-name="Layer 1">
    <g>
      <path class="cls-1" d="M41,19.2c.81-1.38,1.97-3.37,2-6,.05-4.22-2.8-9.21-7-10-2.07-.39-4.98.15-6,2-.64,1.16-.1,2.79,1,6,.28.83,1.41,4.04,4,8,1.71,2.62,2.39,3,3,3,1.25,0,2.18-1.59,3-3Z"/>
      <path class="cls-3" d="M47,25.2c2.22-.42,4.75.57,13,9,6.63,6.77,9.92,10.19,9,12-1.08,2.12-6.61,1.22-8,1-7.77-1.25-12.33-6.93-14-9-2.13-2.65-5.43-6.75-4-10,.69-1.57,2.36-2.69,4-3Z"/>
      <path class="cls-3" d="M36,23.2c.73-2.49,3.04-3.76,5-4,2.15-.26,4.86.62,6,3,1.19,2.5.08,5.48-2,7-1.98,1.45-4.9,1.63-7,0-1.75-1.35-2.66-3.74-2-6Z"/>
      <path class="cls-1" d="M43,25.2c2.81-3.58,7.11-8.62,13-14C64.46,3.47,69.53-1.03,75,.2c4.16.94,8.03,5.07,8,9-.04,5.87-8.76,9.7-14,12-4.79,2.1-13.59,5.04-26,4Z"/>
      <path class="cls-3" d="M28,33.2c-9.33,7.33-18.67,14.67-28,22,8.33-8.33,16.67-16.67,25-25l3,3Z"/>
      <path d="M45,29.2c1.95,5,5.67,9.27,10.4,11.8-2.7,17.21,4.99,34.59,18.6,45.2-3.53-2.43-6.73-5.36-9.48-8.68-5.54-6.61-9.21-14.87-10.19-23.46-.5-4.29-.43-8.66.3-12.92l.18.38c-4.64-2.73-8.24-7.19-9.82-12.32h0Z"/>
      <path d="M41,30.2c1.61,6.66,3.17,13.35,4.45,20.07-1.79,10.6,4.09,20.79,12.55,26.93-9.18-5.45-15.5-16.27-13.45-27.07-1.22-5.8-2.53-13.47-3.55-19.93h0Z"/>
      <path d="M41,30.2c-1.32,5.93-3.03,14.08-4.54,18.83,2.92,7.72,7.21,14.85,12.54,21.17-6.03-5.81-10.64-13.11-13.51-20.98,1.71-6.38,3.51-12.73,5.51-19.02h0Z"/>
      <path d="M39,30.2c-2.58,5.5-5.93,12.41-8.51,17.03-.44,7.65,2.36,15.27,7.51,20.97-1.45-1.28-2.73-2.76-3.85-4.35-3.38-4.86-5.04-10.87-4.63-16.79,3.04-5.69,6.16-11.33,9.48-16.86h0Z"/>
      <path d="M34,34.2c-2.91,4.17-6.86,9.83-9.53,13.08-1.23,8.11.08,16.46,3.53,23.92-4.33-7.15-5.86-15.96-4.45-24.2,3.4-4.33,6.85-8.63,10.45-12.8h0Z"/>
      <path d="M62,36.2c.59,3.68-1.03,7.75-4,10,1.89-3.23,3.15-6.36,4-10h0Z"/>
      <path d="M58,32.2c1.3,3.94-1.85,8.63-6,9,3.54-1.87,5.69-4.99,6-9h0Z"/>
      <path d="M52,27.2c.83,3.88-1.4,8.33-5,10,2.7-2.89,4.33-6.11,5-10h0Z"/>
      <circle class="cls-1" cx="27.11" cy="24.2" r="6.54"/>
      <circle class="cls-2" cx="27.31" cy="24.07" r="5.04"/>
      <circle cx="26.94" cy="24.11" r="3.05"/>
      <circle class="cls-1" cx="30.31" cy="21.21" r="2.06"/>
      <circle class="cls-1" cx="32.06" cy="27.59" r="8.05"/>
      <circle class="cls-2" cx="32.3" cy="27.42" r="6.2"/>
      <circle cx="31.85" cy="27.48" r="3.76"/>
      <circle class="cls-1" cx="36" cy="23.9" r="2.54"/>
    </g>
  </g>
</svg>