<?xml version="1.0" encoding="UTF-8"?>
<svg id="Layer_2" data-name="Layer 2" xmlns="http://www.w3.org/2000/svg" viewBox="0 0 83.85 87.1">
  <defs>
    <style>
      .cls-1 {
        fill: none;
      }

      .cls-1, .cls-2, .cls-3 {
        stroke: #000;
        stroke-miterlimit: 10;
      }

      .cls-2 {
        fill: #ccc;
      }

      .cls-4, .cls-3 {
        fill: #fff;
      }

      .cls-5 {
        fill: #333;
      }
    </style>
  </defs>
  <g id="Layer_1-2" data-name="Layer 1">
    <g>
      <path class="cls-3" d="M41.35,19.7c.81-1.38,1.97-3.37,2-6,.05-4.22-2.8-9.21-7-10-2.07-.39-4.98.15-6,2-.64,1.16-.1,2.79,1,6,.28.83,1.41,4.04,4,8,1.71,2.62,2.39,3,3,3,1.25,0,2.18-1.59,3-3Z"/>
      <path class="cls-2" d="M47.35,25.7c2.22-.42,4.75.57,13,9,6.63,6.77,9.92,10.19,9,12-1.08,2.12-6.61,1.22-8,1-7.77-1.25-12.33-6.93-14-9-2.13-2.65-5.43-6.75-4-10,.69-1.57,2.36-2.69,4-3Z"/>
      <path class="cls-2" d="M36.35,23.7c.73-2.49,3.04-3.76,5-4,2.15-.26,4.86.62,6,3,1.19,2.5.08,5.48-2,7-1.98,1.45-4.9,1.63-7,0-1.75-1.35-2.66-3.74-2-6Z"/>
      <path class="cls-3" d="M43.35,25.7c2.81-3.58,7.11-8.62,13-14C64.81,3.97,69.88-.53,75.35.7c4.16.94,8.03,5.07,8,9-.04,5.87-8.76,9.7-14,12-4.79,2.1-13.59,5.04-26,4Z"/>
      <path class="cls-2" d="M28.35,33.7c-9.33,7.33-18.67,14.67-28,22,8.33-8.33,16.67-16.67,25-25l3,3Z"/>
      <path class="cls-1" d="M45.35,29.7c.6,1.71,1.76,4.34,4,7,2.16,2.56,4.45,4.11,6,5-.66,4.35-1.09,11.16,1,19,3.96,14.83,14.27,23.24,18,26"/>
      <path class="cls-1" d="M41.35,30.7c.67,3.33,1.33,6.67,2,10,.67,3.33,1.33,6.67,2,10-.35,2.24-.49,4.97,0,8,1.8,11.03,10.57,17.37,13,19"/>
      <path class="cls-1" d="M41.35,30.7c-1.67,6.33-3.33,12.67-5,19,1.28,3.43,3.17,7.59,6,12,2.35,3.67,4.8,6.65,7,9"/>
      <path class="cls-1" d="M39.35,30.7c-3,5.67-6,11.33-9,17-.14,2.45-.07,6.94,2,12,1.79,4.38,4.34,7.34,6,9"/>
      <path class="cls-1" d="M34.35,34.7c-3.33,4.33-6.67,8.67-10,13-.45,2.85-.78,7.04,0,12,.83,5.28,2.61,9.37,4,12"/>
      <path class="cls-1" d="M62.35,36.7c-.05,1.23-.25,3-1,5-.88,2.34-2.12,4.01-3,5"/>
      <path class="cls-1" d="M58.35,32.7c.08.79.19,2.85-1,5-1.6,2.89-4.38,3.81-5,4"/>
      <path class="cls-1" d="M52.35,27.7c.01,1.09-.11,2.94-1,5-1.18,2.73-3.07,4.32-4,5"/>
      <circle class="cls-3" cx="27.46" cy="24.7" r="6.54"/>
      <circle class="cls-5" cx="27.66" cy="24.57" r="5.04"/>
      <circle cx="27.29" cy="24.61" r="3.05"/>
      <circle class="cls-4" cx="30.66" cy="21.71" r="2.06"/>
      <circle class="cls-3" cx="32.41" cy="28.09" r="8.05"/>
      <circle class="cls-5" cx="32.66" cy="27.92" r="6.2"/>
      <circle cx="32.2" cy="27.98" r="3.76"/>
      <circle class="cls-4" cx="36.35" cy="24.4" r="2.54"/>
    </g>
  </g>
</svg>