<?xml version="1.0" encoding="UTF-8"?>
<svg id="Layer_2" data-name="Layer 2" xmlns="http://www.w3.org/2000/svg" viewBox="0 0 152.53 99.48">
  <defs>
    <style>
      .cls-1 {
        fill: #cc9300;
      }

      .cls-2 {
        fill: #ae7b00;
      }

      .cls-3 {
        fill: #fff;
      }

      .cls-4 {
        fill: #ffd996;
      }

      .cls-5 {
        fill: #333;
      }
    </style>
  </defs>
  <g id="Layer_1-2" data-name="Layer 1">
    <g>
      <path class="cls-4" d="M32.53,95.15c-18.97-13.28-25.16-48.6-12-61,6.45-6.08,18.29-7.34,26-3,10.74,6.05,12.51,22.42,13,27,.92,8.51-1.16,10.52,1,14,4.87,7.85,19.77,4.67,36,5,30.29.62,56.53,13.31,56,17-.42,2.94-17.84.46-55,2-45.06,1.87-53.65,6.94-65-1Z"/>
      <path class="cls-1" d="M53.53,39.15c1.62-14.91,12.77-24.9,14-26C81.54.61,106.88-.41,123.53,11.15c26.28,18.25,24.1,63.13,10,72-5.04,3.17-8.76.25-21.23-2.41-3.94-.84-8.79-1.77-18.77-2.59-22.64-1.85-29.62,4.28-35-1-1.97-1.93-2.64-8.62-4-22-.88-8.69-1.32-13.04-1-16Z"/>
      <path class="cls-2" d="M96.53,78.15c-7.98.34-16.12-2.45-22.21-7.67-3.06-2.71-4.76-6.65-5.48-10.59-2.73-16.31,8.85-33.4,25.69-35.12,8-1.04,16.66.84,22.75,6.35,5.98,5.45,9.2,14.18,7.31,22.16-1.97,8.35-10.86,12.56-18.8,12.87-7.31.38-18.62-1.64-18.82-10.81-.22-4.16,2.83-7.75,6.57-9.18-5.96,2.3-8.41,9.5-4.32,14.6,6.48,6.47,20.29,6,27.74,1.41,11.1-6.55,8.3-22.85-.31-30.33-5.89-5.26-14.27-7.08-21.99-6.11-16.41,1.65-27.6,18.16-25.19,34.07.67,3.86,2.26,7.67,5.2,10.34,5.89,5.27,13.96,8.21,21.88,8.03h0Z"/>
      <path class="cls-2" d="M27.53,68.15c.47,2.79,3.79,4.03,5.43,1.41.46-.7.64-1.56.57-2.41.17.84.06,1.76-.4,2.51-1.63,2.84-5.4,1.54-5.6-1.51h0Z"/>
      <path class="cls-4" d="M22.53,35.15c-2.33-8-4.67-16-7-24-2.41-.1-4.45-1.75-5-4-.58-2.38.61-5.08,3-6,2.26-.87,4.76.16,6,2,1.42,2.11,1.04,5.13-1,7,2.33,7.67,4.67,15.33,7,23"/>
      <path class="cls-4" d="M38.21,34.32c2.33-8,4.67-16,7-24,2.41-.1,4.45-1.75,5-4,.58-2.38-.61-5.08-3-6-2.26-.87-4.76.16-6,2-1.42,2.11-1.04,5.13,1,7-2.33,7.67-4.67,15.33-7,23"/>
      <circle class="cls-3" cx="14.01" cy="50.69" r="14.01"/>
      <circle class="cls-5" cx="14.43" cy="50.38" r="10.79"/>
      <circle cx="13.64" cy="50.5" r="6.54"/>
      <circle class="cls-3" cx="20.61" cy="44.01" r="4.42"/>
      <circle class="cls-3" cx="42.54" cy="48.17" r="14.01"/>
      <circle class="cls-5" cx="42.95" cy="47.86" r="10.79"/>
      <circle cx="42.16" cy="47.98" r="6.54"/>
      <circle class="cls-3" cx="49.13" cy="41.49" r="4.42"/>
    </g>
  </g>
</svg>