<?xml version="1.0" encoding="UTF-8"?>
<svg id="Layer_2" data-name="Layer 2" xmlns="http://www.w3.org/2000/svg" viewBox="0 0 115.95 58.05">
  <defs>
    <style>
      .cls-1 {
        fill: #ff1441;
      }

      .cls-2 {
        fill: #4b4dff;
      }

      .cls-3 {
        fill: #333;
      }

      .cls-4 {
        fill: #d6e300;
      }
    </style>
  </defs>
  <g id="Layer_1-2" data-name="Layer 1">
    <g>
      <path class="cls-4" d="M5.42,57.37c-7.54-4.02-8.36-29.83,5-38,.73-.45,6.47-3.83,13-2,14.27,4,19.69,29.96,13,36-2.02,1.82-5.78,2.42-8,1-3.68-2.35-.96-8.86-5-12-2.6-2.02-7.2-2.03-9,0-2.71,3.06,2.73,9.09,0,13-1.72,2.46-6.23,3.48-9,2Z"/>
      <path class="cls-1" d="M44.42,12.37c-1.05,1.89-1.58,4.21,4,24,3.45,12.25,4.32,13.72,6,15,7.63,5.81,24.57,1.93,27-7,1.54-5.68-2.73-13.58-8-15-4.49-1.21-8.63,2.57-10,1-1.19-1.36,1.77-4.41,3-10,.22-1,2.17-10.37-2-14-4.57-3.97-16.22-.81-20,6Z"/>
      <path class="cls-2" d="M95.42.37c-5.67-1.42-12.01,1.4-15,6-5.07,7.78,1.17,18.01,3,21,1.83,3,4.92,8.06,11,10,7.95,2.54,18.67-.98,21-8,1.36-4.1,0-9.8-3-11-3.87-1.55-7.83,5.48-13,4-3.11-.89-5.66-4.58-5-7,1.01-3.7,9.03-2.56,10-6,.83-2.93-3.86-7.71-9-9Z"/>
      <path class="cls-3" d="M14.42,26.37c.72-2.69,4.28-4.09,7-3,2.73,1.09,4.32,4.58,3,7-1.12,2.06-3.94,2.61-6,2-2.49-.74-4.69-3.42-4-6Z"/>
      <path class="cls-3" d="M50.77,17.37c.72-2.69,4.28-4.09,7-3,2.73,1.09,4.32,4.58,3,7-1.12,2.06-3.94,2.61-6,2-2.49-.74-4.69-3.42-4-6Z"/>
      <path class="cls-3" d="M61.77,39.37c.72-2.69,4.28-4.09,7-3,2.73,1.09,4.32,4.58,3,7-1.12,2.06-3.94,2.61-6,2-2.49-.74-4.69-3.42-4-6Z"/>
    </g>
  </g>
</svg>