<?xml version="1.0" encoding="UTF-8"?>
<svg id="Layer_2" data-name="Layer 2" xmlns="http://www.w3.org/2000/svg" viewBox="0 0 218 312">
  <defs>
    <style>
      .cls-1 {
        stroke: #ffd303;
      }

      .cls-1, .cls-2 {
        fill: none;
        stroke-miterlimit: 10;
      }

      .cls-2 {
        stroke: #763500;
      }

      .cls-3 {
        fill: #ffd303;
      }

      .cls-4 {
        fill: #ba5900;
      }

      .cls-5 {
        fill: #b35a00;
      }

      .cls-6 {
        fill: #e9a800;
      }
    </style>
  </defs>
  <g id="Layer_1-2" data-name="Layer 1">
    <g>
      <rect class="cls-3" width="171" height="312"/>
      <path class="cls-4" d="M171,0c15.67,4.33,31.33,8.67,47,13-.33,87.67-.67,175.33-1,263-15.33,12-30.67,24-46,36V0Z"/>
      <rect class="cls-5" x="13" y="16" width="141" height="77"/>
      <rect class="cls-5" x="13" y="106" width="141" height="77"/>
      <rect class="cls-6" x="13" y="193" width="143" height="103"/>
      <path class="cls-1" d="M84,192.5v103.5"/>
      <circle class="cls-3" cx="92" cy="246" r="4"/>
      <circle class="cls-3" cx="77" cy="246" r="4"/>
      <path class="cls-5" d="M13,16c7,4.67,14,9.33,21,14v63c-6.95-.03-13.89-.06-20.84-.1-.05-25.63-.11-51.27-.16-76.9Z"/>
      <path class="cls-5" d="M13.33,105.83c7,4.67,14,9.33,21,14v63c-7.06.03-14.11.05-21.17.08.06-25.69.11-51.39.17-77.08Z"/>
      <path class="cls-2" d="M34.44,93.51V30.51h120"/>
      <rect class="cls-5" x="34.16" y="119.9" width="120" height="63"/>
      <path class="cls-2" d="M33.66,183.4v-63h120"/>
      <path class="cls-2" d="M13.16,105.9c6.67,4.67,13.33,9.33,20,14"/>
      <path class="cls-2" d="M13.19,16.76c6.99,4.71,13.98,9.43,20.97,14.14"/>
    </g>
  </g>
</svg>