<?xml version="1.0" encoding="UTF-8"?>
<svg id="Layer_2" data-name="Layer 2" xmlns="http://www.w3.org/2000/svg" viewBox="0 0 105.44 110.76">
  <defs>
    <style>
      .cls-1 {
        opacity: .73;
      }

      .cls-2 {
        fill: none;
      }

      .cls-3 {
        fill: #291900;
      }

      .cls-4 {
        fill: #522f00;
      }

      .cls-5 {
        fill: #e9e9db;
      }

      .cls-6 {
        fill: #3e1f00;
      }
    </style>
  </defs>
  <g id="Layer_1-2" data-name="Layer 1">
    <g>
      <g class="cls-1">
        <path class="cls-5" d="M75.44,89.14c-3.39-1.95-5.9-1.77-7.06-1.57-5.98,1.06-11.06,8.95-10.98,19.62,4.71.52,9.42,1.05,14.12,1.57,1.31-6.54,2.62-13.08,3.92-19.62Z"/>
        <path class="cls-5" d="M90.51,47.09c-.81,12.43-9.31,25.24-22.75,29.82-13.57,4.62-25.17-1.52-26.68-2.35-10.27-5.66-16.9-16.51-17.26-28.25-.36-11.73,5.55-24.19,16.48-29.82,9.44-4.86,18.85-2.66,23.54-1.57,4.28,1,16.22,3.79,22.75,14.91,4.45,7.59,4.06,15.09,3.92,17.26Z"/>
        <path class="cls-5" d="M29.31,26.69c-.8-.62-4.06-3.28-4.71-7.85-.7-4.89,1.96-9.38,5.49-11.77,4.85-3.29,10.14-1.82,10.98-1.57,6.01,1.78,8.33,7.13,8.63,7.85-2.25.16-6.92.8-11.77,3.92-5.03,3.24-7.58,7.42-8.63,9.42Z"/>
        <path class="cls-5" d="M23.81,89.46c3.39-1.95,5.9-1.77,7.06-1.57,5.98,1.06,11.06,8.95,10.98,19.62-4.71.52-9.42,1.05-14.12,1.57-1.31-6.54-2.62-13.08-3.92-19.62Z"/>
        <path class="cls-5" d="M83.45,25.91c1.5-.7,4.62-1.9,8.63-1.57,1.73.14,5.97.49,9.42,3.92.5.5,4.3,4.41,3.92,10.2-.35,5.33-4.16,10.92-9.42,11.77-2.29.37-4.27-.26-5.49-.78.4-2.42.85-7.07-.78-12.55-1.65-5.52-4.61-9.19-6.28-10.98Z"/>
        <path class="cls-5" d="M32.45,21.98c-3.26-3.77-2.2-9.1.78-10.98,2.96-1.86,8.16-.56,10.2,3.92-1.48.41-3.42,1.1-5.49,2.35-2.6,1.57-4.38,3.38-5.49,4.71Z"/>
        <path class="cls-5" d="M87.37,32.18c.34-.36,2.37-2.41,5.49-2.35,2.38.05,5.07,1.31,6.28,3.92,1.25,2.69.49,5.88-1.57,7.85-1.85,1.76-4.56,2.36-7.06,1.57.09-1.44.04-3.69-.78-6.28-.66-2.07-1.6-3.65-2.35-4.71Z"/>
        <circle class="cls-5" cx="43.04" cy="41.21" r="3.53"/>
        <circle class="cls-5" cx="71.28" cy="49.05" r="3.53"/>
        <ellipse class="cls-5" cx="53.53" cy="57.33" rx="12.6" ry="14.22" transform="translate(-11.07 101.8) rotate(-81.51)"/>
        <path class="cls-5" d="M58.64,53.56c-.63,1.71-3.12,2.37-5.56,1.47-2.44-.9-3.9-3.02-3.27-4.73.63-1.71,3.12-2.37,5.56-1.47,2.44.9,3.9,3.02,3.27,4.73Z"/>
        <path class="cls-5" d="M52.85,54.94c-.43.5-1.22,1.56-1.57,3.14-.3,1.37-.14,2.51,0,3.14l1.57-6.28Z"/>
        <path class="cls-5" d="M43.43,54.15c.32.71,2.46,5.35,7.85,7.06,5.72,1.81,10.39-1.17,10.98-1.57l-18.83-5.49Z"/>
        <rect class="cls-5" x="39.68" y="26.81" width="9.25" height="3.12" transform="translate(-3.56 6.55) rotate(-8.13)"/>
        <rect class="cls-5" x="70.56" y="34.49" width="8.12" height="3.13" transform="translate(47.35 -42.21) rotate(45)"/>
        <path class="cls-5" d="M34.02,69.06c-1.07.97-2.58,2.51-3.92,4.71-3.55,5.79-3.28,11.65-3.14,14.12.16,2.76.46,7.79,3.92,12.55,4.3,5.91,10.68,7.55,14.91,8.63,4.4,1.13,9.54,2.44,14.91,0,4.7-2.14,7.04-6,8.63-8.63,3.98-6.57,3.96-13.04,3.92-15.69-.06-4.01-.87-7.26-1.57-9.42-2.76,1.22-14.84,6.18-27.46.78-4.66-1.99-8-4.8-10.2-7.06Z"/>
        <path class="cls-5" d="M41.86,75.34c-.3.53-.67,1.34-.78,2.35-.38,3.33,2.27,6.14,3.92,7.85,3.58,3.7,5.5,3.2,6.28,5.49.89,2.63-.66,6.13-3.14,7.85-3.31,2.29-7.39.76-9.42,0-6.24-2.34-8.84-8.14-9.42-9.42-.67-1.49-2.16-4.92-1.57-9.42.83-6.33,5.16-10.07,6.28-10.98.82.97,1.85,2.06,3.14,3.14,1.69,1.42,3.34,2.43,4.71,3.14Z"/>
        <path class="cls-5" d="M64.62,77.69c-.2.95-.61,2.4-1.57,3.92-1.99,3.16-4.96,4.48-5.49,4.71-2.57,1.1-3.43.37-4.71,1.57-1.77,1.67-1.62,4.49-1.57,5.49.05.98.16,3,1.57,4.71,2.6,3.13,7.35,2.43,7.85,2.35,3.55-.58,5.73-3.07,7.85-5.49,1.11-1.27,2.85-3.27,3.92-6.28,2.13-6-.01-11.56-.78-13.34-1.11.54-2.42,1.1-3.92,1.57-1.12.35-2.18.6-3.14.78Z"/>
        <path class="cls-5" d="M9.69,101.23c-1.33-2.63-2.22-4.41-2.35-7.06-.07-1.38-.25-5.06,2.35-7.85.48-.51,1.83-1.95,3.92-2.35,3.38-.64,6.29,1.89,8.63,3.92,1.86,1.62,5.82,5.07,7.06,10.98.36,1.7,1.57,7.52-1.57,10.2-1.38,1.18-3.18,1.39-4.71,1.57-.95.11-3.59.39-6.28-.78-3.48-1.52-5.02-4.59-7.06-8.63Z"/>
        <path class="cls-5" d="M10.48,90.25c1.88-.97,4.64,1.22,7.06,3.14,2.3,1.82,7.31,5.79,7.06,10.98-.04.74-.13,2.7-1.57,3.92-1.67,1.42-4.06.92-4.71.78-3.51-.73-5.52-3.87-7.06-6.28-1.01-1.57-2-3.16-2.35-5.49-.05-.31-.84-5.82,1.57-7.06Z"/>
        <path class="cls-5" d="M72.09,105.93h-.01l-.86.57-2.87,1.91c-.5-1.93-.33-4.18-.04-6.34.07-.55.15-1.09.23-1.62.18-1.25.59-3.81,1.87-6.75.64-1.47,1.5-3.01,2.65-4.54h.01v-.02c.21-.28.43-.56.67-.84.33-.4.69-.8,1.07-1.19,2.15-2.2,4.91-5.04,8.63-4.71,3.25.3,5.25,2.83,5.5,3.14,1.76,2.29,1.69,4.85,1.57,7.85,0,.1-.01.2-.01.31l-2.7,1.79h0s-15.71,10.44-15.71,10.44Z"/>
        <path class="cls-5" d="M71.55,108.59l-.18.15c-.17-.71-.2-1.48-.15-2.24.07-1.1.29-2.15.45-2.91.4-1.88,1.08-3.49,1.85-4.84,1.29-2.25,2.81-3.77,3.65-4.58.15-.15.31-.3.49-.47,1.72-1.65,4.57-4.12,7.35-3.45.29.07.96.24,1.57.78.76.68,1.1,1.64,1.21,2.67.07.59.06,1.2.01,1.79h0s-16.25,13.1-16.25,13.1Z"/>
      </g>
      <g>
        <path class="cls-6" d="M68.13,84.17c-3.39-1.95-5.9-1.77-7.06-1.57-5.98,1.06-11.06,8.95-10.98,19.62,4.71.52,9.42,1.05,14.12,1.57,1.31-6.54,2.62-13.08,3.92-19.62Z"/>
        <path class="cls-6" d="M83.2,42.13c-.81,12.43-9.31,25.24-22.75,29.82-13.57,4.62-25.17-1.52-26.68-2.35-10.27-5.66-16.9-16.51-17.26-28.25-.36-11.73,5.55-24.19,16.48-29.82,9.44-4.86,18.85-2.66,23.54-1.57,4.28,1,16.22,3.79,22.75,14.91,4.45,7.59,4.06,15.09,3.92,17.26Z"/>
        <path class="cls-6" d="M22,21.73c-.8-.62-4.06-3.28-4.71-7.85-.7-4.89,1.96-9.38,5.49-11.77,4.85-3.29,10.14-1.82,10.98-1.57,6.01,1.78,8.33,7.13,8.63,7.85-2.25.16-6.92.8-11.77,3.92-5.03,3.24-7.58,7.42-8.63,9.42Z"/>
        <path class="cls-6" d="M16.51,84.5c3.39-1.95,5.9-1.77,7.06-1.57,5.98,1.06,11.06,8.95,10.98,19.62-4.71.52-9.42,1.05-14.12,1.57-1.31-6.54-2.62-13.08-3.92-19.62Z"/>
        <path class="cls-6" d="M76.14,20.94c1.5-.7,4.62-1.9,8.63-1.57,1.73.14,5.97.49,9.42,3.92.5.5,4.3,4.41,3.92,10.2-.35,5.33-4.16,10.92-9.42,11.77-2.29.37-4.27-.26-5.49-.78.4-2.42.85-7.07-.78-12.55-1.65-5.52-4.61-9.19-6.28-10.98Z"/>
        <path class="cls-4" d="M25.14,17.02c-3.26-3.77-2.2-9.1.78-10.98,2.96-1.86,8.16-.56,10.2,3.92-1.48.41-3.42,1.1-5.49,2.35-2.6,1.57-4.38,3.38-5.49,4.71Z"/>
        <path class="cls-4" d="M80.06,27.22c.34-.36,2.37-2.41,5.49-2.35,2.38.05,5.07,1.31,6.28,3.92,1.25,2.69.49,5.88-1.57,7.85-1.85,1.76-4.56,2.36-7.06,1.57.09-1.44.04-3.69-.78-6.28-.66-2.07-1.6-3.65-2.35-4.71Z"/>
        <circle cx="35.73" cy="36.24" r="3.53"/>
        <circle cx="63.98" cy="44.09" r="3.53"/>
        <ellipse class="cls-4" cx="46.22" cy="52.36" rx="12.6" ry="14.22" transform="translate(-12.39 90.35) rotate(-81.51)"/>
        <path d="M51.33,48.6c-.63,1.71-3.12,2.37-5.56,1.47-2.44-.9-3.9-3.02-3.27-4.73.63-1.71,3.12-2.37,5.56-1.47,2.44.9,3.9,3.02,3.27,4.73Z"/>
        <path class="cls-3" d="M45.54,49.97c-.43.5-1.22,1.56-1.57,3.14-.3,1.37-.14,2.51,0,3.14"/>
        <path class="cls-2" d="M36.12,49.19c.32.71,2.46,5.35,7.85,7.06,5.72,1.81,10.39-1.17,10.98-1.57"/>
        <rect class="cls-3" x="32.37" y="21.84" width="9.25" height="3.12" transform="translate(-2.94 5.46) rotate(-8.13)"/>
        <rect class="cls-3" x="63.26" y="29.52" width="8.12" height="3.13" transform="translate(41.7 -38.49) rotate(45)"/>
        <path class="cls-6" d="M26.71,64.1c-1.07.97-2.58,2.51-3.92,4.71-3.55,5.79-3.28,11.65-3.14,14.12.16,2.76.46,7.79,3.92,12.55,4.3,5.91,10.68,7.55,14.91,8.63,4.4,1.13,9.54,2.44,14.91,0,4.7-2.14,7.04-6,8.63-8.63,3.98-6.57,3.96-13.04,3.92-15.69-.06-4.01-.87-7.26-1.57-9.42-2.76,1.22-14.84,6.18-27.46.78-4.66-1.99-8-4.8-10.2-7.06Z"/>
        <path class="cls-6" d="M34.55,70.38c-.3.53-.67,1.34-.78,2.35-.38,3.33,2.27,6.14,3.92,7.85,3.58,3.7,5.5,3.2,6.28,5.49.89,2.63-.66,6.13-3.14,7.85-3.31,2.29-7.39.76-9.42,0-6.24-2.34-8.84-8.14-9.42-9.42-.67-1.49-2.16-4.92-1.57-9.42.83-6.33,5.16-10.07,6.28-10.98.82.97,1.85,2.06,3.14,3.14,1.69,1.42,3.34,2.43,4.71,3.14Z"/>
        <path class="cls-6" d="M57.31,72.73c-.2.95-.61,2.4-1.57,3.92-1.99,3.16-4.96,4.48-5.49,4.71-2.57,1.1-3.43.37-4.71,1.57-1.77,1.67-1.62,4.49-1.57,5.49.05.98.16,3,1.57,4.71,2.6,3.13,7.35,2.43,7.85,2.35,3.55-.58,5.73-3.07,7.85-5.49,1.11-1.27,2.85-3.27,3.92-6.28,2.13-6-.01-11.56-.78-13.34-1.11.54-2.42,1.1-3.92,1.57-1.12.35-2.18.6-3.14.78Z"/>
        <path class="cls-6" d="M2.38,96.27c-1.33-2.63-2.22-4.41-2.35-7.06-.07-1.38-.25-5.06,2.35-7.85.48-.51,1.83-1.95,3.92-2.35,3.38-.64,6.29,1.89,8.63,3.92,1.86,1.62,5.82,5.07,7.06,10.98.36,1.7,1.57,7.52-1.57,10.2-1.38,1.18-3.18,1.39-4.71,1.57-.95.11-3.59.39-6.28-.78-3.48-1.52-5.02-4.59-7.06-8.63Z"/>
        <path class="cls-4" d="M3.17,85.28c1.88-.97,4.64,1.22,7.06,3.14,2.3,1.82,7.31,5.79,7.06,10.98-.04.74-.13,2.7-1.57,3.92-1.67,1.42-4.06.92-4.71.78-3.51-.73-5.52-3.87-7.06-6.28-1.01-1.57-2-3.16-2.35-5.49-.05-.31-.84-5.82,1.57-7.06Z"/>
        <path class="cls-6" d="M61.23,95.48c.32-2.15,1.3-8.22,6.28-13.34,2.15-2.21,4.91-5.05,8.63-4.71,3.24.29,5.25,2.82,5.49,3.14,1.76,2.29,1.7,4.84,1.57,7.85-.11,2.56-.39,7.57-3.92,12.55-1.63,2.29-4.49,6.33-9.42,7.06-.89.13-4.6.68-7.06-1.57-2.81-2.57-2.14-7.11-1.57-10.98Z"/>
        <path class="cls-4" d="M77.71,85.28c-3.06-.74-6.21,2.33-7.85,3.92-1.33,1.3-4.44,4.4-5.49,9.42-.39,1.83-1.14,5.43.78,7.06,1.06.9,2.5.82,3.14.78,3.09-.17,5.19-2.57,7.06-4.71,1.45-1.65,3.79-4.4,4.71-8.63.37-1.73,1.15-5.33-.78-7.06-.61-.54-1.28-.71-1.57-.78Z"/>
      </g>
    </g>
  </g>
</svg>