<?xml version="1.0" encoding="UTF-8"?>
<svg id="Layer_2" data-name="Layer 2" xmlns="http://www.w3.org/2000/svg" viewBox="0 0 113.22 77.27">
  <defs>
    <style>
      .cls-1 {
        fill: #00e3cd;
      }

      .cls-2 {
        fill: #dcd700;
      }

      .cls-3 {
        fill: #e31e00;
      }
    </style>
  </defs>
  <g id="Layer_1-2" data-name="Layer 1">
    <g>
      <path class="cls-3" d="M13,2.09C14.27-.2,18.18-.1,26,.09c4.69.11,7.03.17,8,1,5.17,4.43-5.73,25.02-9,31,3.33,2,6.67,4,10,6-1.67,3-3.33,6-5,9L0,35.09c1.33-3.33,2.67-6.67,4-10l12,3c2.33-6,4.67-12,7-18-.18.1-3.71,1.95-7,0-3.03-1.79-4.21-5.83-3-8Z"/>
      <path class="cls-1" d="M52,12.09c6.07-3.08,18.97,3.6,21,14,1.26,6.47-1.79,13.83-7,17-6.12,3.73-13.6.67-14,2-.26.87,2.68,3.08,17,9-2.33,3-4.67,6-7,9-8.67-4.67-17.33-9.33-26-14,1.72-7,4.69-9.76,7-11,5.57-3,11.12.74,15-3,2.05-1.98,3.17-5.59,2-8-2.09-4.29-10.13-2.03-12-6-1.29-2.74.85-7.4,4-9Z"/>
      <path class="cls-2" d="M96,31.09c6.57-1.75,19.01,8.22,17,18-1.06,5.15-5.93,9.27-12,11,.44,7.05-2.73,13.48-8,16-8.67,4.15-20.37-3.52-21-10-.3-3.05,1.78-6.7,4-7,2.83-.38,4.17,4.93,8,5,2.5.05,5.17-2.16,6-5,.86-2.94-.34-6.2-3-8,.3.16,3.59,1.79,7,0,2.17-1.13,4.27-3.59,4-6-.43-3.89-6.66-4.41-7-8-.23-2.44,2.34-5.29,5-6Z"/>
    </g>
  </g>
</svg>