<?xml version="1.0" encoding="UTF-8"?>
<svg id="Layer_2" data-name="Layer 2" xmlns="http://www.w3.org/2000/svg" viewBox="0 0 110 97">
  <defs>
    <style>
      .cls-1 {
        fill: #ff4906;
      }

      .cls-2 {
        fill: #fff;
      }

      .cls-3 {
        fill: #e22400;
      }

      .cls-4 {
        fill: #ff442e;
      }

      .cls-5 {
        fill: #ff1e03;
      }

      .cls-6 {
        fill: #ff4115;
      }
    </style>
  </defs>
  <g id="Layer_1-2" data-name="Layer 1">
    <g>
      <path class="cls-3" d="M87,97l15-15V22c-5,2.67-10,5.33-15,8v67Z"/>
      <rect class="cls-6" x="9" y="19" width="78" height="78"/>
      <polyline class="cls-2" points="42 56 42 19 52 19 52 56"/>
      <polyline class="cls-2" points="52 66 52 97 42 97 42 66"/>
      <rect class="cls-1" y="6" width="96" height="24"/>
      <polyline class="cls-2" points="41.66 56 87 56 87 66 41.66 66"/>
      <polyline class="cls-2" points="42 66 9 66 9 56 42 56"/>
      <path class="cls-5" d="M96,30V6c4.67-2,9.33-4,14-6v22c-4.67,2.67-9.33,5.33-14,8Z"/>
      <path class="cls-4" d="M0,6C8.33,4,16.67,2,25,0h85c-4.67,2-9.33,4-14,6H0Z"/>
    </g>
  </g>
</svg>