<?xml version="1.0" encoding="UTF-8"?>
<svg id="Layer_2" data-name="Layer 2" xmlns="http://www.w3.org/2000/svg" viewBox="0 0 283.32 287.56">
  <defs>
    <style>
      .cls-1 {
        fill: #b0c7ff;
      }

      .cls-2 {
        fill: #c17cff;
      }

      .cls-3 {
        fill: #e59aff;
      }

      .cls-4 {
        fill: #fff2f1;
      }

      .cls-5 {
        fill: #fff;
      }

      .cls-6 {
        fill: #ff8467;
      }

      .cls-7 {
        fill: #ff7d71;
      }

      .cls-8 {
        fill: #e37059;
      }

      .cls-9 {
        fill: #f0d0b4;
      }

      .cls-10 {
        fill: #ecc19c;
      }

      .cls-11 {
        fill: #512500;
      }

      .cls-12 {
        fill: #e5e8bb;
      }

      .cls-13 {
        fill: #8c6239;
      }
    </style>
  </defs>
  <g id="Layer_1-2" data-name="Layer 1">
    <g>
      <path class="cls-6" d="M87.05,226.01s-.03.02-.04.03c-.05.03-.08.06-.12.09-.11-.03-.23-.06-.35-.09.06-.04.11-.07.17-.11.11.03.22.05.34.08Z"/>
      <path class="cls-6" d="M131.55,193.07s-.05-.05-.06-.07h.01s.03.04.05.07Z"/>
      <g>
        <path class="cls-8" d="M238.41,177.42c-7.07,5.79-14.74,12.12-29.69,16.96-18.46,5.98-34.61,5.76-45.97,5.61-11.08-.15-27.55-.33-32.28-6.76-3.94-5.36,2.77-12,7.12-16.29,3.25-3.2,17.34-17.1,43.17-23.51,12.46-3.09,21.98-3.03,37.55-2.93,16.89.11,28.04.18,32.94,4.05,7.69,6.06-5.63,16.97-12.84,22.87Z"/>
        <path class="cls-8" d="M173.72,174.58c-3.19,2.88-10.46,5.2-16.25,5.17-5.78-.03-7.88-2.39-4.69-5.27s10.46-5.2,16.25-5.17c5.78.03,7.88,2.39,4.69,5.27Z"/>
        <path class="cls-8" d="M172.39,174.81c-2.48,2.24-8.14,4.04-12.64,4.02s-6.13-1.86-3.65-4.1,8.14-4.04,12.64-4.02,6.13,1.86,3.65,4.1Z"/>
        <path class="cls-8" d="M204.32,175.12c-3.19,2.88-1.09,5.24,4.69,5.27,5.78.03,13.06-2.29,16.25-5.17,3.19-2.88,1.09-5.24-4.69-5.27-5.78-.03-13.06,2.29-16.25,5.17Z"/>
        <path class="cls-8" d="M205.12,175.36c-2.48,2.24-.85,4.08,3.65,4.1s10.15-1.78,12.64-4.02c2.48-2.24.85-4.08-3.65-4.1s-10.15,1.78-12.64,4.02Z"/>
        <path class="cls-8" d="M207.72,151.61c-13.9,8.94-24.8,12.4-32.47,13.84-9.05,1.7-19.07,1.62-28.91,5.69-2.51,1.04-4.26,2.03-5.32,2.7-.22-.6-.88-1.62-3.29-1.96-4.72-.66-13.09,1.75-17.89,4.19-8.14,4.14-5.71,8.25-5.54,8.53,2.55,3.97,14.28,3.25,15.19,3.18-.4,1.79-.37,4.31,2.03,6.62,5.55,5.34,19.55,5.56,23.48,5.56l-2.57,2.32c-2.99.12-7.59.45-13.34,1.49-11.31,2.04-19.8,5.47-26.05,8.04-13.8,5.67-22.23,11.45-26.77,15.03-3.3-.77-8.02-2.32-8.74-5.48-1.54-6.77,16.22-16.54,15.3-16.64-1.05-.11-20.84,13.23-23.08,13.11-1.46-.08,2.72-5.06,9.58-10.06,6.97-5.08,12.15-6.85,19.55-12.73,3.08-2.45,4.77-4.19,5.99-5.41,7.11-7.11,20.56-18.62,30.57-25.51,7.98-5.49,26.81-18.45,57.02-26.16,24.86-6.35,44.3-5.77,50.62-5.59,5.88.17,30.04.88,36.95,10.28,4.72,6.41-1.07,13.49-10.33,24.83-12.62,15.45-20.06,14.6-35.95,32.48-6.29,7.08-9.96,12.66-22.87,18.55-9.01,4.11-18.62,6.6-25.27,8.04,2.38-2.74,5.07-6.69,5-10.86-.14-9.04-13.14-12.64-17.59-13.69l2.14-1.93c3.6-.05,12.73-.42,24.79-3.38,12.04-2.96,20.2-6.83,23.37-8.44,1.46.26,6.24.95,13.61-.32.94-.16,12.5-2.23,18.56-6.91,2.72-2.1,6.01-6,1.15-7.38-3.38-.96-9.56-.38-15.67,1.48,1.58-.87,3.57-2.13,3.42-3.09-.26-1.8-7.71-1.05-13.02-1.62-4.61-.49-9.72-2.2-10.83-7.83-1.42,1.11-2.87,2.55-2.73,3.87.12,1.19,1.48,1.71.96,1.95-.92.43-6.43-.64-9.15-1.6-2.7-.96-9.26-4.16-1.92-15.17Z"/>
        <path class="cls-8" d="M167.28,182.52c9.97-.08,19.93-.16,29.9-.25-.18,2.99-4.26,6.46-10.62,8.89-7.76,2.97-15.29,3.01-17.38,3.03-2.14.01-11.37.06-11.66-3.55-.19-2.41,3.67-5.56,9.76-8.12Z"/>
        <path class="cls-8" d="M141.02,173.84c-.2-.56-.85-1.61-3.29-1.96-4.7-.67-13.11,1.64-17.89,4.19-3.67,1.95-4.65,3.75-5.14,4.64-2.28,4.19,3.29,6.01,4.01,6.24,3.69,1.15,8.48.98,10.78.83.76-2.16,2.29-5.05,5.54-8.53,1.89-2.02,3.99-3.85,5.99-5.41Z"/>
        <path class="cls-8" d="M241.58,174.91c.83-.27,6.96-2.22,12.22-1.89,6.51.41,5.5,3.92,5.37,4.3-1.22,3.73-10.16,7.15-11.66,7.72-2.34.89-8.08,2.88-14.71,3.43-4.69.39-7.59-.13-8.88-.43,3.24-2.08,6.64-4.4,10.03-6.95,2.95-2.21,5.47-4.29,7.62-6.18Z"/>
        <path class="cls-8" d="M154.83,199.76l-2.57,2.32c-3.04.17-7.34.55-12.57,1.49-20.75,3.74-36.89,12.8-42.79,16.12-4.51,2.53-8.05,4.89-10.81,6.95,5.44,1.19,10.87,2.38,16.31,3.58,3.77-.57,7.71-1.08,11.79-1.5,22.2-2.28,38.08-.73,48,1.01,8-1.13,16.01-2.26,24.01-3.38,1.67-2.03,3.64-4.92,4.33-8.14,1.17-5.46-1.95-9.01-4.3-10.91-3.62-2.92-8.68-4.57-12.62-5.5l2.14-1.93c-6.98-.03-13.96-.07-20.94-.1Z"/>
        <path class="cls-8" d="M43.22,277.36c10.05.31,20.11.61,30.16.92,9.11-6.82,18.22-13.65,27.33-20.47-6.31,6.84-12.62,13.69-18.94,20.53,11.19-.21,22.37-.42,33.56-.64,15.84-13.14,31.69-26.28,47.53-39.42-.36-1.02-.73-2.47-.72-4.28.02-4.37,2.18-8.09,3.37-10.09,4.56-7.65,13.23-14.78,18.21-18.57-1.38-.65-2.98-1.32-4.84-1.97-1.77-.62-3.55-1.14-5.27-1.58-4.99,4.51-9.99,9.02-14.98,13.53-6.98-.03-13.96-.07-20.94-.1,4.85-4.38,9.7-8.76,14.55-13.15-2.1.11-4.74.33-7.84.74-3.34.45-6.31,1-8.69,1.51-7.97,7.84-15.92,14.21-22.05,18.79-5.19,3.88-10.35,6.98-18.03,10.15-5.23,2.16-10.07,3.67-13.44,4.62l-39,39.46Z"/>
        <path class="cls-8" d="M119.52,226.02c11.12.05,22.23.11,33.35.16-5.06,4.53-16.18,8.19-24.92,8.43-9.57.27-13.83-3.61-8.42-8.59Z"/>
        <path class="cls-8" d="M86.09,226.64c-11.56,7.26-17.91,12.9-21.5,16.61-2.96,3.06-4.62,5.41-2.19,6.21,2.71.89,9.06-.65,9.39-.73,5.36-1.33,8.81-3.53,13.91-6.93,4.81-3.22,10.5-7.11,16.72-11.58-2.52-.51-5.05-1.04-7.59-1.59-3-.65-5.9-1.32-8.72-1.99Z"/>
        <path class="cls-8" d="M185.93,226.44c-4.55,7.3-10.68,12.93-15.3,16.64-3.82,3.06-7.35,5.4-11.5,6.16-4.65.86-7.53-.73-7.67-.81-2.38-1.37-.95-3.58,1.5-6.99,2.32-3.23,5.27-7.14,8.96-11.62,3.61-.48,7.28-.98,11.02-1.5,4.41-.62,8.74-1.25,13-1.88Z"/>
        <path class="cls-8" d="M63.3,278.23c-1.01,1.03-2.54,2.5-4.71,4.25-2.31,1.87-2.99,2.17-3.34,2.32-3.01,1.23-6.87,1.2-14.47,1.1-6.99-.1-7.51-.53-7.67-.81-.71-1.22,2.57-3.73,7.11-5.02,4.13-1.17,7.38-.8,7.84-.74,1.09-.51,2.18-1.03,3.26-1.54,3.99.15,7.99.3,11.98.45Z"/>
        <path class="cls-8" d="M33.62,283.92c-.33.33-.66.77-.51,1.16.32.82,2.56.78,7.67.81,8.33.05,10.32.2,13.26-.71,1.29-.4,2.24-.85,2.83-1.15-7.76-.04-15.51-.07-23.27-.11Z"/>
        <path class="cls-8" d="M90.51,278.36c-1.27,1.03-2.98,2.49-4.71,4.25-1.84,1.87-1.82,2.18-1.79,2.32.26,1.25,4.15,1.26,11.9,1.22,7.13-.03,8.59-.45,9.39-.73,3.39-1.2,5.67-3.71,4.01-5.03-1.5-1.2-5.55-.86-6.12-.81.05-.52.11-1.04.16-1.55-4.28.11-8.56.22-12.84.33Z"/>
        <path class="cls-8" d="M107.36,284.28c-.39.33-1.04.77-2.06,1.16-2.12.81-4.25.75-9.39.73-8.36-.03-10.66.1-11.55-.83-.39-.41-.35-.86-.27-1.17,7.76.04,15.51.07,23.27.11Z"/>
        <path class="cls-8" d="M143.07,170.93c1.08.11,10.25-8.75,31.16-16.18,3.14-1.12,30.08-10.49,52.15-9.08,20.86,1.34,21.85,11.33,22.17,14.49.65,6.54-5.27,12.13-3.96,12.03,1.83-.14,17.65-11.3,14.58-20.92-.38-1.18-3.45-9.49-24.47-11-16.27-1.17-38.44,2.07-57.58,9.05-25.49,9.3-35.3,21.48-34.05,21.61Z"/>
        <path class="cls-8" d="M169.96,174.8c-1.47,1.33-4.82,2.4-7.49,2.38s-3.63-1.1-2.16-2.43,4.82-2.4,7.49-2.38,3.63,1.1,2.16,2.43Z"/>
        <path class="cls-8" d="M216.57,175.56c-1.47,1.33-4.82,2.4-7.49,2.38s-3.63-1.1-2.16-2.43,4.82-2.4,7.49-2.38,3.63,1.1,2.16,2.43Z"/>
        <path class="cls-8" d="M168.42,172.29c-1.58,1.43-5.2,2.58-8.07,2.57s-3.91-1.19-2.33-2.62,5.2-2.58,8.07-2.57,3.91,1.19,2.33,2.62Z"/>
        <path class="cls-8" d="M224.26,173.14c-1.58,1.43-5.2,2.58-8.07,2.57s-3.91-1.19-2.33-2.62,5.2-2.58,8.07-2.57,3.91,1.19,2.33,2.62Z"/>
      </g>
      <g>
        <path class="cls-12" d="M245.68,171.49c-.05.05-.11.1-.17.15-.9.81-1.8,1.59-2.68,2.32-.01.01-.02.01-.03.02-.12.11-.23.2-.34.3h-.01c-1.05.88-2.06,1.69-2.97,2.43-2.68,2.17-5.46,4.42-8.67,6.64-2.5,1.72-5.28,3.43-8.49,5.08-.05.02-.1.05-.15.07-3.12,1.58-6.64,3.1-10.75,4.5l-2.14.51c.53-.17,1.04-.34,1.55-.51h-34.23c-3.44.46-6.13.47-7.26.48-1.13.01-4.21.02-6.94-.48h-31.85s.03.04.05.07c-.03-.03-.05-.05-.06-.07h-.01s-.02-.04-.03-.05c-.13-.14-.24-.28-.35-.43-.57-.76-.89-1.54-1.05-2.35-.03-.13-.05-.26-.07-.39-.02-.17-.05-.33-.06-.5-.01-.18-.03-.36-.02-.54v-.2s0-.04.01-.05v-.07c.07-.82.29-1.64.63-2.45.23-.54.51-1.11.85-1.71,1.73-2.97,4.65-5.82,6.92-8.04.49-.47,1.19-1.16,2.14-2.03.03-.02.05-.05.08-.07.36-.33.77-.69,1.22-1.08h.01c6.24-5.43,19.51-15.24,40.28-20.32,12.62-3.09,22.25-3.03,38.02-2.93,11.77.08,20.78.13,26.88,1.41,2.77.59,4.94,1.42,6.49,2.63,5.84,4.54-.28,11.82-6.8,17.66Z"/>
        <path class="cls-12" d="M130.54,193h-30.8c2.14-1.77,3.45-3.11,4.46-4.1,2.53-2.5,5.85-5.55,9.55-8.74-1,2.06-.1,3.56.01,3.73,1.3,1.99,4.93,2.8,8.35,3.1.22.03.45.05.67.06,1.92.13,3.72.12,4.92.09.07,0,.15,0,.22,0,.1-.01.2-.01.29-.01.34-.01.66-.03.93-.05-.1.41-.17.87-.19,1.35v.07s-.01.03-.01.05v.2c-.01.18.01.36.02.54.01.17.04.33.06.5.02.13.04.26.07.39.2.9.63,1.85,1.41,2.78.01.01.02.03.03.04h.01Z"/>
        <path class="cls-12" d="M255.22,181.34c-.06.05-.12.09-.19.14-4.27,3.09-8.76,6.22-14.27,11.52h-29.34l-2.14.51c.53-.17,1.04-.34,1.55-.51,4.98-1.67,8.81-3.32,11.33-4.5.05-.02.1-.05.15-.07.75-.35,1.38-.66,1.87-.91,1.02.18,3.62.56,7.57.36.05,0,.1,0,.16-.01.15,0,.3-.01.46-.02.2-.01.42-.02.63-.04,1.5-.11,3.16-.3,4.97-.61.53-.09,4.32-.77,8.62-2.13.01,0,.03,0,.04,0,2.53-.79,5.25-1.84,7.59-3.14.08-.05.16-.09.24-.13.25-.14.52-.29.76-.45Z"/>
        <path class="cls-12" d="M271.16,166.75c-4.24,5.13-7.9,8.46-11.5,11.28-.01.01-.01.02-.02.02-.64.49-1.25.96-1.88,1.43,1.72-1.54,3.26-3.57,2.5-5.06-.04-.06-.08-.13-.12-.19-.05-.09-.12-.19-.22-.27-.04-.04-.08-.08-.12-.13-.08-.07-.16-.14-.25-.21-.38-.28-.91-.52-1.6-.71-3.32-.93-9.29-.42-15.28,1.31-.07.02-.14.04-.21.06h-.01c-.12.04-.24.07-.36.11.23-.13.48-.26.72-.41.01-.01.02-.01.03-.02,1.23-.7,2.45-1.58,2.68-2.32.02-.07.04-.13.04-.2,0,0-.01,0,0-.01,0-.05,0-.09-.01-.13,0-.01,0-.02-.01-.03h0c-.38-1.77-7.85-1.03-13.18-1.59-4.67-.49-9.86-2.2-10.97-7.83-1.44,1.11-2.91,2.55-2.77,3.88.12,1.18,1.49,1.7.97,1.94-.92.43-6.51-.63-9.26-1.6-2.73-.95-9.39-4.15-1.95-15.17-14.08,8.95-25.12,12.4-32.88,13.84-9.18,1.71-19.32,1.63-29.28,5.7-2.54,1.03-4.32,2.03-5.39,2.69,0-.03-.02-.06-.04-.09-.02-.05-.04-.09-.06-.14-.19-.37-.58-.86-1.41-1.23-.11-.05-.23-.1-.36-.15-.12-.04-.24-.08-.37-.12-.15-.05-.32-.09-.51-.13-.18-.03-.37-.07-.58-.1-.21-.03-.43-.05-.66-.07-.1-.01-.21-.02-.32-.02-4.84-.25-12.46,1.96-17.02,4.22,5.31-4.37,10.87-8.66,15.67-11.91,8.08-5.5,27.16-18.45,57.76-26.16,25.17-6.35,44.86-5.78,51.27-5.59,5.96.17,30.43.88,37.43,10.28,4.78,6.41-1.07,13.49-10.45,24.83Z"/>
        <path class="cls-12" d="M140.82,173.14c-.21-.56-.86-1.61-3.33-1.96-4.76-.67-13.28,1.64-18.12,4.19-3.72,1.95-4.71,3.75-5.2,4.64-2.31,4.19,3.33,6.01,4.06,6.24,3.74,1.15,8.59.98,10.92.83.77-2.16,2.32-5.05,5.61-8.53,1.91-2.02,4.04-3.85,6.07-5.41Z"/>
        <path class="cls-12" d="M242.67,174.2c.84-.27,7.05-2.22,12.38-1.89,6.59.41,5.57,3.92,5.44,4.3-1.23,3.73-10.29,7.15-11.81,7.72-2.37.89-8.19,2.88-14.9,3.43-4.75.39-7.69-.13-8.99-.43,3.28-2.08,6.73-4.4,10.16-6.95,2.98-2.21,5.54-4.29,7.72-6.18Z"/>
      </g>
      <path class="cls-12" d="M87.05,226.01s-.03.02-.04.03c-.05.03-.08.06-.12.09-.11-.03-.23-.06-.35-.09.06-.04.11-.07.17-.11.11.03.22.05.34.08Z"/>
      <path class="cls-12" d="M115.56,179.58c-.22.19-.44.38-.65.58.67-1.42,2.23-3.11,5.55-4.8.04-.02.07-.04.11-.05-1.71,1.42-3.39,2.86-5.01,4.27Z"/>
      <path class="cls-12" d="M131.55,193.07s-.05-.05-.06-.07h.01s.03.04.05.07Z"/>
      <path class="cls-12" d="M87.05,226.01s-.03.02-.04.03c-.05.03-.08.06-.12.09-.11-.03-.23-.06-.35-.09.06-.04.11-.07.17-.11.11.03.22.05.34.08Z"/>
      <g>
        <path class="cls-9" d="M116.9,84c-.61,10.83-1.23,22.67-10.12,31.81-10.98,11.28-26.18,11.03-36.87,10.84-10.43-.18-25.89-.37-36.87-12.29-9.15-9.93-9.75-22.35-10.12-30.36-.28-5.98-1.47-31.96,15.91-44.1,8.38-5.86,17.27-5.83,31.81-5.78,15.78.05,26.19.08,34.7,7.23,13.35,11.2,12.19,31.61,11.57,42.65Z"/>
        <circle class="cls-5" cx="44.24" cy="79.3" r="9.76"/>
        <circle class="cls-11" cx="45.41" cy="79.75" r="7.59"/>
        <circle class="cls-5" cx="92.68" cy="80.02" r="9.76"/>
        <circle class="cls-11" cx="91.51" cy="80.47" r="7.59"/>
        <path class="cls-13" d="M61.95,36.29c-3.72,16.75-10.28,23.28-15.91,26.03-6.65,3.25-16.01,3.19-20.97,10.84-1.26,1.95-1.86,3.82-2.17,5.06-.81-1.11-2.48-3.01-5.06-3.61-5.05-1.19-10.34,3.36-12.29,7.95-3.3,7.77,3.17,15.4,3.61,15.91,6.44,7.36,16.58,5.91,17.35,5.78,1.47,3.34,4.07,8.01,8.68,12.29,10.62,9.88,23.84,10.16,27.47,10.12v4.34c-2.66.25-6.57.91-10.84,2.89-8.39,3.89-12.74,10.35-15.91,15.18-6.98,10.66-8.87,21.49-9.4,28.2-3.85-1.41-9.82-4.24-13.74-10.12-8.37-12.57-1.94-30.91-2.89-31.09-1.09-.2-5.75,24.8-7.95,24.58-1.43-.14-2.67-9.44-1.45-18.8,1.25-9.51,4.23-12.85,5.06-23.86.35-4.58.12-7.84,0-10.12-.7-13.28-.04-34.82,2.17-47.72,1.77-10.29,5.93-34.55,26.03-49.16C50.29-1.04,68.91-.15,74.97.14c5.63.27,28.76,1.38,44.82,18.8,10.96,11.88,12.86,25.1,15.91,46.27,4.15,28.84-3.62,27.33,0,60.73,1.43,13.22,3.75,23.63-2.17,34.7-4.13,7.73-10.5,12.43-15.18,15.18-.6-5.12-2.17-12.5-6.51-20.24-9.41-16.82-25.16-23.39-30.36-25.3v-3.61c3.28-.13,11.38-.89,19.52-6.51,8.13-5.61,11.72-12.88,13.01-15.91,1.62.47,6.77,1.72,12.29-.72.71-.31,9.3-4.27,10.12-13.01.37-3.93-.58-11.21-6.51-13.74-4.12-1.76-9.25-.61-13.01,2.89.58-1.62,1.12-3.99,0-5.78-2.09-3.35-8.23-1.89-13.74-2.89-4.78-.87-11.28-4.01-18.07-14.46-.18,2.07-.04,4.77,1.45,7.23,1.34,2.21,3.12,3.16,2.89,3.61-.41.81-6.62-1.13-10.12-2.89-3.48-1.75-12.86-7.65-17.35-28.2Z"/>
        <path class="cls-7" d="M56.17,94.12c9.16-.24,18.31-.48,27.47-.72,2.9,5.55,2.67,12.04-.72,16.63-4.15,5.6-11.08,5.74-13.01,5.78-1.98.04-10.48.22-14.46-6.51-2.66-4.49-2.31-10.38.72-15.18Z"/>
        <path class="cls-10" d="M22.91,78.22c-.77-1.05-2.44-2.98-5.06-3.61-5.05-1.21-10.47,3.18-12.29,7.95-1.4,3.67-.46,7.01,0,8.68,2.18,7.8,9.22,11.16,10.12,11.57,4.6,2.1,8.87,1.75,10.84,1.45-1.51-4.02-3.06-9.42-3.61-15.91-.32-3.78-.25-7.19,0-10.12Z"/>
        <path class="cls-10" d="M117.26,79.3c.49-.51,4.18-4.19,9.4-3.61,6.45.71,9.12,7.23,9.4,7.95,2.7,6.95-2.09,13.38-2.89,14.46-1.25,1.68-4.54,5.43-10.12,6.51-3.95.76-7.18-.18-8.68-.72.87-3.89,1.64-8.25,2.17-13.01.46-4.14.67-8.02.72-11.57Z"/>
        <path class="cls-1" d="M62.31,126.29v4.34c-2.65.34-6.24,1.09-10.12,2.89-15.41,7.14-21.06,24.14-23.13,30.36-1.58,4.75-2.44,9.17-2.89,13.01,6.27,2.17,12.53,4.34,18.8,6.51,2.91-1.09,6.04-2.08,9.4-2.89,18.25-4.43,34.56-1.71,45.55,1.45,6.27-2.17,12.53-4.34,18.8-6.51-.53-3.78-1.67-9.18-4.34-15.18-4.52-10.17-11.05-16.73-15.18-20.24-6.36-5.41-12.74-8.42-17.35-10.12v-3.61h-19.52Z"/>
        <path class="cls-3" d="M38.46,271.61c9.64.48,19.28.96,28.92,1.45,1.45-12.77,2.89-25.54,4.34-38.32,1.17,12.78,2.34,25.57,3.51,38.35,10.16-.49,20.31-.99,30.47-1.48,1.2-24.58,2.41-49.16,3.61-73.74-1.39-1.9-3.21-4.58-5.06-7.95-4.47-8.13-6.28-15.06-7.23-18.8-3.62-14.27-2.9-27.61-2.17-34.7-1.95-1.2-4.11-2.42-6.51-3.61-2.28-1.13-4.46-2.09-6.51-2.89v25.3h-19.52v-24.58c-1.83.23-4.06.65-6.51,1.45-2.64.86-4.82,1.92-6.51,2.89.66,14.65-.18,26.58-1.16,35.14-.84,7.26-2.44,13.07-6.3,19.04-2.63,4.07-5.57,6.91-7.72,8.71l4.34,73.74Z"/>
        <path class="cls-2" d="M56.53,175.46h31.09c-.05,8.47-6.6,15.37-14.46,15.91-8.6.59-16.53-6.6-16.63-15.91Z"/>
        <path class="cls-9" d="M26.17,176.9c-3.27,13.61-3.37,24.15-2.89,31.09.4,5.73,1.27,10.11,4.34,11.57,3.43,1.63,7.73-1.29,7.95-1.45,3.61-2.52,4.55-6.64,5.78-13.01,1.16-6.02,2.44-13.32,3.61-21.69-2.85-.92-5.75-1.88-8.68-2.89-3.45-1.19-6.83-2.39-10.12-3.61Z"/>
        <path class="cls-9" d="M118.53,175.63c3.27,13.61,3.37,24.15,2.89,31.09-.4,5.73-1.27,10.11-4.34,11.57-3.43,1.63-7.73-1.29-7.95-1.45-3.61-2.52-4.55-6.64-5.78-13.01-1.16-6.02-2.44-13.32-3.61-21.69,2.85-.92,5.75-1.88,8.68-2.89,3.45-1.19,6.83-2.39,10.12-3.61Z"/>
        <path class="cls-4" d="M57.98,273.05c.12,1.93.21,4.67,0,7.95-.22,3.5-.55,4.07-.72,4.34-1.52,2.32-5.13,2.3-12.29,2.17-6.58-.12-7.5-.91-7.95-1.45-1.91-2.26-1.44-6.96,1.45-9.4,2.62-2.22,6.03-1.55,6.51-1.45.48-.96.96-1.93,1.45-2.89,3.86.24,7.71.48,11.57.72Z"/>
        <path d="M36.29,283.9c.03.61.18,1.44.72,2.17,1.14,1.52,3.17,1.43,7.95,1.45,7.78.03,9.78.29,11.57-1.45.78-.76,1.21-1.59,1.45-2.17h-21.69Z"/>
        <path class="cls-4" d="M83.35,273.05c-.12,1.93-.21,4.67,0,7.95.22,3.5.55,4.07.72,4.34,1.52,2.32,5.13,2.3,12.29,2.17,6.58-.12,7.5-.91,7.95-1.45,1.91-2.26,1.44-6.96-1.45-9.4-2.62-2.22-6.03-1.55-6.51-1.45-.48-.96-.96-1.93-1.45-2.89-3.86.24-7.71.48-11.57.72Z"/>
        <path d="M105.04,283.9c-.03.61-.18,1.44-.72,2.17-1.14,1.52-3.17,1.43-7.95,1.45-7.78.03-9.78.29-11.57-1.45-.78-.76-1.21-1.59-1.45-2.17,7.23,0,14.46,0,21.69,0Z"/>
        <path class="cls-1" d="M21.83,72.8c1.12.2.52-16.37,12.29-30.36,1.77-2.1,17.13-19.78,39.04-17.35,20.72,2.3,31.89,20.87,35.42,26.75,7.31,12.15,7.56,22.61,8.68,22.41,1.55-.28,4.77-21.17-7.95-39.04-1.56-2.2-12.93-17.62-33.98-20.24-16.28-2.03-33.52,4.2-44.1,17.35-14.1,17.52-10.69,40.26-9.4,40.49Z"/>
        <circle cx="46.24" cy="79.74" r="4.5"/>
        <circle cx="90.24" cy="80.74" r="4.5"/>
        <circle class="cls-5" cx="41.89" cy="75.09" r="4.85"/>
        <circle class="cls-5" cx="94.54" cy="76.18" r="4.85"/>
      </g>
    </g>
  </g>
</svg>