<?xml version="1.0" encoding="UTF-8"?>
<svg id="Layer_2" data-name="Layer 2" xmlns="http://www.w3.org/2000/svg" viewBox="0 0 2412.26 1179.87">
  <defs>
    <style>
      .cls-1 {
        stroke: #349700;
      }

      .cls-1, .cls-2, .cls-3, .cls-4, .cls-5, .cls-6 {
        stroke-miterlimit: 10;
      }

      .cls-1, .cls-2, .cls-3, .cls-6 {
        fill: none;
      }

      .cls-7 {
        fill: #b5ff0d;
      }

      .cls-8 {
        fill: #ff7a18;
      }

      .cls-2 {
        stroke: #c256ff;
      }

      .cls-9 {
        fill: #ff6259;
      }

      .cls-3 {
        stroke: #ff6ef1;
      }

      .cls-10 {
        fill: #acf5ff;
      }

      .cls-11 {
        fill: #ff8467;
      }

      .cls-12 {
        fill: #fff67f;
      }

      .cls-4 {
        stroke: #ffd3cb;
      }

      .cls-4, .cls-5 {
        fill: #fff;
      }

      .cls-13 {
        fill: #fff9e5;
      }

      .cls-14 {
        fill: #d7a5ff;
      }

      .cls-15 {
        fill: #ff7cf9;
      }

      .cls-16 {
        fill: #7ca2ff;
      }

      .cls-17 {
        fill: #fffc60;
      }

      .cls-18 {
        fill: #ffcfaf;
      }

      .cls-19 {
        fill: #f9ceff;
      }

      .cls-20 {
        fill: #ff94f5;
      }

      .cls-21 {
        fill: #d53300;
      }

      .cls-22 {
        fill: #ffe797;
      }

      .cls-5 {
        stroke: #fff4e6;
        stroke-width: 2px;
      }

      .cls-23 {
        fill: #ffbaa5;
      }

      .cls-24 {
        fill: #fffcc7;
      }

      .cls-25 {
        fill: #0027f4;
      }

      .cls-6 {
        stroke: #c79a00;
      }

      .cls-26 {
        fill: #c0a6ce;
      }

      .cls-27 {
        fill: #fff56a;
      }
    </style>
  </defs>
  <g id="Layer_1-2" data-name="Layer 1">
    <rect class="cls-13" x=".6" width="2411.65" height="730.3"/>
    <rect class="cls-24" y="730.92" width="2411.65" height="448.94"/>
    <path class="cls-11" d="M2113.89,1091.61H361.16c103.82-84.82,207.64-169.63,311.46-254.45h1135.91c101.78,84.82,203.57,169.63,305.35,254.45Z"/>
    <g>
      <path class="cls-8" d="M1705.69,787.19h-388.98c-9.71-43.23-19.41-86.47-29.12-129.7h446.92c-9.61,43.23-19.22,86.47-28.82,129.7Z"/>
      <path class="cls-22" d="M1742.59,698.01h-464.32c-3.33-17.68-6.66-35.36-9.99-53.04h489.69c-5.12,17.68-10.25,35.36-15.37,53.04Z"/>
      <path class="cls-12" d="M1421.25,779.5h-93.79c-6.15-24.09-12.3-48.17-18.45-72.26h127.61c-5.12,24.09-10.25,48.17-15.37,72.26Z"/>
      <path class="cls-12" d="M1558.88,779.5h-93.79c-6.15-24.09-12.3-48.17-18.45-72.26h127.61c-5.12,24.09-10.25,48.17-15.37,72.26Z"/>
      <path class="cls-12" d="M1695.71,779.5h-93.79c-6.15-24.09-12.3-48.17-18.45-72.26h127.61c-5.12,24.09-10.25,48.17-15.37,72.26Z"/>
      <ellipse class="cls-8" cx="1370.52" cy="723.38" rx="21.52" ry="6.92"/>
      <ellipse class="cls-8" cx="1511.97" cy="723.38" rx="21.52" ry="6.92"/>
      <ellipse class="cls-8" cx="1647.26" cy="723.38" rx="21.52" ry="6.92"/>
    </g>
    <g>
      <rect class="cls-10" x="1501.69" y="79.18" width="427.42" height="455.09"/>
      <rect class="cls-19" x="1501.69" y="488.15" width="425.88" height="47.66"/>
      <rect class="cls-19" x="1455.57" y="65.34" width="518.13" height="61.5"/>
      <path class="cls-5" d="M1713.86,127.61v359"/>
      <path class="cls-5" d="M1928.34,328.25h-427.42"/>
      <path class="cls-26" d="M1713.86,126.84c3.36,16.41,11.29,66.29-16.91,113.77-28.51,47.99-76.58,64.31-104.55,73.8-37.31,12.66-70.19,13.4-90.71,12.3,20.1,3.65,35.03,10.85,46.12,18.45,60.08,41.18,77.11,142.11,47.66,253.68-3.97-6.93-8.72-12.55-13.84-12.3-7.33.36-9.96,12.51-16.91,12.3-6.84-.2-8.5-12.07-15.37-12.3-7.11-.24-9.55,12.34-16.91,12.3-7.11-.03-9.42-11.78-16.91-12.3-5.4-.37-10.3,5.31-13.84,10.76V126.84h212.17Z"/>
      <path class="cls-26" d="M1716.94,126.84c-3.36,16.41-11.29,66.29,16.91,113.77,28.51,47.99,76.58,64.31,104.55,73.8,37.31,12.66,70.19,13.4,90.71,12.3-20.1,3.65-35.03,10.85-46.12,18.45-60.08,41.18-77.11,142.11-47.66,253.68,3.97-6.93,8.72-12.55,13.84-12.3,7.33.36,9.96,12.51,16.91,12.3,6.84-.2,8.5-12.07,15.37-12.3,7.11-.24,9.55,12.34,16.91,12.3,7.11-.03,9.42-11.78,16.91-12.3,5.4-.37,10.3,5.31,13.84,10.76,0-156.82,0-313.65,0-470.47-70.72,0-141.45,0-212.17,0Z"/>
    </g>
    <g>
      <rect class="cls-9" x="1937.46" y="669.05" width="135.3" height="135.3"/>
      <rect class="cls-7" x="2072.76" y="669.05" width="135.3" height="135.3"/>
      <rect class="cls-27" x="2072.76" y="533.76" width="135.3" height="135.3"/>
      <rect class="cls-14" x="2208.06" y="669.05" width="135.3" height="135.3"/>
      <rect class="cls-16" x="2208.06" y="533.76" width="135.3" height="135.3"/>
      <rect class="cls-20" x="2208.06" y="398.46" width="135.3" height="135.3"/>
      <path class="cls-21" d="M1937.46,669.05c-17.42,2.05-34.85,4.1-52.27,6.15-.51,38.95-1.02,77.9-1.54,116.85,17.94,4.1,35.87,8.2,53.81,12.3v-135.3Z"/>
      <path class="cls-17" d="M2072.76,533.71c-16.91,6.17-33.82,12.33-50.74,18.5-.51,38.95-1.02,77.9-1.54,116.85,17.42-.02,34.85-.03,52.27-.05v-135.3Z"/>
      <path class="cls-15" d="M2208.06,398.6c-16.91,6.17-33.82,12.33-50.74,18.5-.51,38.95-1.02,77.9-1.54,116.85,17.42-.02,34.85-.03,52.27-.05v-135.3Z"/>
      <rect class="cls-23" x="1946.69" y="678.28" width="118.39" height="118.39"/>
      <rect class="cls-25" x="2217.28" y="544.52" width="118.39" height="118.39"/>
      <circle class="cls-21" cx="2052.77" cy="739.78" r="6.15"/>
      <circle class="cls-16" cx="2324.91" cy="601.4" r="6.15"/>
      <path class="cls-1" d="M2072.76,786.67h107.62c9.22,5.89,18.45,11.79,27.67,17.68"/>
      <path class="cls-1" d="M2180.38,669.05v117.62"/>
      <path class="cls-6" d="M2073.53,558.36h107.62c9.22-8.2,18.45-16.4,27.67-24.6"/>
      <path class="cls-6" d="M2181.1,559.12v109.16"/>
      <path class="cls-3" d="M2208.77,422.54h107.62c9.22-8.2,18.45-16.4,27.67-24.6"/>
      <path class="cls-3" d="M2316.34,423.3v109.16"/>
      <path class="cls-2" d="M2207.28,786.69h108.85c9.33,5.89,18.66,11.79,27.99,17.68"/>
      <path class="cls-2" d="M2316.44,669.07v117.62"/>
    </g>
    <g>
      <rect class="cls-4" x="677.12" y="69.19" width="459.71" height="112.24"/>
      <rect class="cls-4" x="677.12" y="150.67" width="459.71" height="18.45"/>
      <rect class="cls-18" x="892.36" y="99.94" width="24.6" height="24.6"/>
    </g>
  </g>
</svg>