<?xml version="1.0" encoding="UTF-8"?>
<svg id="Layer_2" data-name="Layer 2" xmlns="http://www.w3.org/2000/svg" viewBox="0 0 101 276.2">
  <defs>
    <style>
      .cls-1 {
        stroke: #000;
      }

      .cls-1, .cls-2 {
        fill: none;
        stroke-miterlimit: 10;
      }

      .cls-2 {
        stroke: #e9e9db;
      }

      .cls-3 {
        fill: #ff5c37;
      }

      .cls-4 {
        fill: #e9e9db;
      }
    </style>
  </defs>
  <g id="Layer_1-2" data-name="Layer 1">
    <g>
      <g>
        <ellipse class="cls-4" cx="54" cy="67" rx="47" ry="55"/>
        <path class="cls-2" d="M54,122c-7.04,10.29-15.54,26.21-16,46-.47,20.17,7.75,29.62,10,51,1.38,13.12.68,32.39-10,57"/>
        <path class="cls-4" d="M46.5,120.5c2.06.37,4.6.63,7.5.5,1.65-.07,3.16-.26,4.5-.5,2.27,3.37,2.39,4.57,2,5-.66.73-2.62-.88-5,0-1.74.64-1.71,1.89-3,2-1.83.16-2.3-2.34-5-3-2.11-.52-3.65.56-4,0-.22-.35.08-1.28,3-4Z"/>
      </g>
      <g>
        <ellipse class="cls-3" cx="47" cy="55" rx="47" ry="55"/>
        <path class="cls-1" d="M47,110c-7.04,10.29-15.54,26.21-16,46-.47,20.17,7.75,29.62,10,51,1.38,13.12.68,32.39-10,57"/>
        <path class="cls-3" d="M39.5,108.5c2.06.37,4.6.63,7.5.5,1.65-.07,3.16-.26,4.5-.5,2.27,3.37,2.39,4.57,2,5-.66.73-2.62-.88-5,0-1.74.64-1.71,1.89-3,2-1.83.16-2.3-2.34-5-3-2.11-.52-3.65.56-4,0-.22-.35.08-1.28,3-4Z"/>
      </g>
    </g>
  </g>
</svg>