<?xml version="1.0" encoding="UTF-8"?>
<svg id="Layer_2" data-name="Layer 2" xmlns="http://www.w3.org/2000/svg" viewBox="0 0 2412.26 1179.8">
  <defs>
    <style>
      .cls-1 {
        fill: #a1554d;
      }

      .cls-2 {
        fill: #e7ebed;
      }

      .cls-3 {
        fill: #5b3b26;
      }

      .cls-4 {
        fill: #fff;
      }

      .cls-5 {
        fill: #8f2800;
      }

      .cls-6 {
        fill: #ecff99;
      }

      .cls-7 {
        fill: #e4d499;
      }

      .cls-8 {
        fill: #d6be66;
      }

      .cls-9 {
        fill: #d6c0b3;
      }

      .cls-10 {
        fill: #00bfba;
      }

      .cls-11 {
        fill: #bf3500;
      }

      .cls-12 {
        fill: #33c87c;
      }

      .cls-13 {
        fill: #8b73ab;
      }

      .cls-14 {
        fill: #7533c8;
      }

      .cls-15 {
        fill: #d67166;
      }

      .cls-16 {
        fill: #bca08a;
      }

      .cls-17 {
        fill: #7d6eff;
      }

      .cls-18 {
        fill: #c84133;
      }

      .cls-19 {
        fill: #93b2c5;
      }

      .cls-20 {
        fill: #ab886d;
      }

      .cls-21 {
        fill: gray;
      }

      .cls-22 {
        fill: #ba99e4;
      }

      .cls-23 {
        fill: #c6e2e9;
      }

      .cls-24 {
        fill: #66d69c;
      }

      .cls-25 {
        fill: #26c5cc;
      }

      .cls-26 {
        fill: #a7bed3;
      }
    </style>
  </defs>
  <g id="Layer_1-2" data-name="Layer 1">
    <path class="cls-4" d="M2410.49,1177.26H0c129.31-191.1,258.62-382.2,387.94-573.3h1636.38c128.72,191.1,257.45,382.2,386.17,573.3Z"/>
    <path class="cls-23" d="M2410.49,1177.26c-128.72-191.1-257.45-382.2-386.17-573.3H387.94C259.21,795.06,130.49,986.16,1.76,1177.26L0,0h2412.26l-1.76,1177.26Z"/>
    <rect class="cls-26" x="386.04" width="1638.13" height="603.96"/>
    <g>
      <rect class="cls-19" x="507.9" y="348.89" width="24.53" height="255.02"/>
      <rect class="cls-19" x="740.9" y="347.35" width="24.53" height="265.19"/>
      <rect class="cls-19" x="532.42" y="413.27" width="208.47" height="15.33"/>
      <rect class="cls-19" x="532.42" y="368.81" width="208.47" height="15.33"/>
      <rect class="cls-21" x="519.12" y="338.77" width="24.53" height="280.47"/>
      <rect class="cls-21" x="752.12" y="337.23" width="24.53" height="265.19"/>
      <rect class="cls-21" x="543.64" y="403.15" width="208.47" height="15.33"/>
      <rect class="cls-21" x="543.64" y="358.7" width="208.47" height="15.33"/>
    </g>
    <path class="cls-2" d="M2054.81,1178.39c-567.83.47-1135.66.94-1703.49,1.41,35.84-192.48,71.69-384.95,107.53-577.43,496.14.94,992.28,1.88,1488.42,2.82,35.84,191.06,71.69,382.13,107.53,573.19Z"/>
    <g>
      <path class="cls-19" d="M1743.44,153.34c21.96-14.82,43.92-29.64,65.88-44.45v536.09c-21.96,32.07-43.92,64.15-65.88,96.22V153.34Z"/>
      <path class="cls-19" d="M1292.77,153.34c17.85-14.82,35.7-29.64,53.54-44.45h463.01c-17.85,14.82-35.7,29.64-53.54,44.45h-463.01Z"/>
      <rect class="cls-9" x="1280.83" y="134.89" width="450.67" height="478.26"/>
      <path class="cls-20" d="M1731.5,134.89c17.37-14.82,34.75-29.64,52.12-44.45v536.09c-17.37,32.07-34.75,64.15-52.12,96.22V134.89Z"/>
      <rect class="cls-20" x="1305.36" y="530.38" width="400.08" height="82.78"/>
      <rect class="cls-16" x="1306.89" y="165.55" width="400.08" height="151.76"/>
      <rect class="cls-16" x="1305.36" y="347.97" width="400.08" height="151.76"/>
      <path class="cls-16" d="M1280.83,134.89c17.37-14.82,34.75-29.64,52.12-44.45h450.67c-17.37,14.82-34.75,29.64-52.12,44.45h-450.67Z"/>
      <rect class="cls-20" x="1345.21" y="165.55" width="361.76" height="111.9"/>
      <rect class="cls-20" x="1343.68" y="347.97" width="361.76" height="111.9"/>
    </g>
    <path class="cls-3" d="M2016.51,1177.26c-536.03.51-1072.05,1.02-1608.08,1.53,33.84-208.98,67.67-417.97,101.51-626.95,468.35,1.02,936.7,2.04,1405.06,3.07,33.84,207.45,67.67,414.9,101.51,622.35Z"/>
    <g>
      <path class="cls-4" d="M1343.4,177.81c3.88-4.1,7.76-8.21,11.64-12.31h25.47c-4.61,4.1-9.23,8.21-13.84,12.31h-23.27Z"/>
      <rect class="cls-6" x="1306.89" y="216.14" width="36.79" height="101.17"/>
      <rect class="cls-17" x="1461.71" y="216.14" width="36.79" height="101.17"/>
      <path class="cls-5" d="M1617.79,165.55v39.49c-9.1,3.7-18.21,7.39-27.31,11.09v-27.59c9.1-7.66,18.21-15.33,27.31-22.99Z"/>
      <rect class="cls-12" x="1343.4" y="177.81" width="23.27" height="140.06"/>
      <path class="cls-4" d="M1590.47,216.14l11.06-11.09h26.38l-.65,11.09h-36.79Z"/>
      <rect class="cls-15" x="1367.93" y="173.22" width="37.07" height="144.66"/>
      <path class="cls-13" d="M1461.71,200.81c7.66-6.25,15.31-12.49,22.97-18.74v17.04c-7.66,5.68-15.31,11.36-22.97,17.04v-15.33Z"/>
      <path class="cls-4" d="M1461.71,216.14c7.4-8.42,14.8-16.84,22.2-25.26,8.51-.01,17.01-.02,25.52-.03-3.64,8.43-7.29,16.86-10.93,25.29h-36.79Z"/>
      <path class="cls-1" d="M1404.99,173.22c4.86-2.55,9.72-5.11,14.58-7.66l8.2-.05v88.96h-23.06c.09-27.08.18-54.16.28-81.24Z"/>
      <rect class="cls-8" x="1404.72" y="254.46" width="18.67" height="63.42"/>
      <rect class="cls-11" x="1498.22" y="188.54" width="92.25" height="129.33"/>
      <rect class="cls-22" x="1423.11" y="200.81" width="38.6" height="117.07"/>
      <rect class="cls-6" x="1590.47" y="216.14" width="36.79" height="101.17"/>
      <rect class="cls-10" x="1626.99" y="179.35" width="32.47" height="138.53"/>
      <rect class="cls-18" x="1376.5" y="399.46" width="32.19" height="168.34" transform="translate(908.97 1876.22) rotate(-90)"/>
      <rect class="cls-15" x="1366.7" y="379.99" width="42.73" height="131.97" transform="translate(942.09 1834.04) rotate(-90)"/>
      <rect class="cls-24" x="1351.37" y="370.79" width="31.99" height="75.25" transform="translate(958.95 1775.79) rotate(-90)"/>
      <rect class="cls-22" x="1468.53" y="371.73" width="37.29" height="126.65" transform="translate(27.83 955.88) rotate(-35.95)"/>
      <rect class="cls-14" x="1519.3" y="389.53" width="40" height="105.35" transform="translate(33.55 987.84) rotate(-35.95)"/>
      <rect class="cls-7" x="1599.14" y="381.78" width="37.29" height="126.65" transform="translate(368.59 1565.32) rotate(-57.27)"/>
      <path class="cls-25" d="M1659.09,179.3c6.64-4.6,13.29-9.2,19.93-13.8v111.9c-6.64,13.28-13.29,26.57-19.93,39.86v-137.96Z"/>
      <path class="cls-4" d="M1659.09,179.3c6.64-4.6,13.29-9.2,19.93-13.8h-35.26c-5.62,4.6-11.24,9.2-16.86,13.8h32.19Z"/>
      <path class="cls-4" d="M1498.22,188.54c9.29-7.66,18.58-15.33,27.87-22.99h91.7c-9.1,7.66-18.21,15.33-27.31,22.99h-92.25Z"/>
      <path class="cls-4" d="M1423.11,200.81c8.01-6.25,16.02-12.49,24.04-18.74h37.53c-7.66,6.25-15.31,12.49-22.97,18.74h-38.6Z"/>
      <path class="cls-4" d="M1404.72,254.46c3.11-3.77,6.22-7.54,9.34-11.3,3.12.32,6.23.63,9.35.95l-.02,10.35h-18.67Z"/>
      <path class="cls-4" d="M1367.93,173.22c4.19-2.57,8.39-5.14,12.58-7.71,13.02.02,26.04.03,39.06.05-4.86,2.55-9.72,5.11-14.58,7.66h-37.07Z"/>
      <path class="cls-4" d="M1306.89,216.14c3.6-5.74,7.21-11.48,10.81-17.22h25.7c.09,5.74.18,11.48.28,17.22h-36.79Z"/>
    </g>
  </g>
</svg>