<?xml version="1.0" encoding="UTF-8"?>
<svg id="Layer_2" data-name="Layer 2" xmlns="http://www.w3.org/2000/svg" viewBox="0 0 86.02 57.65">
  <defs>
    <style>
      .cls-1, .cls-2, .cls-3 {
        stroke: #000;
      }

      .cls-1, .cls-2, .cls-3, .cls-4 {
        stroke-miterlimit: 10;
      }

      .cls-1, .cls-2, .cls-4 {
        fill: none;
      }

      .cls-1, .cls-3 {
        stroke-width: .5px;
      }

      .cls-2 {
        stroke-width: .75px;
      }

      .cls-3 {
        fill: #fff;
      }

      .cls-4 {
        stroke: #55351c;
      }

      .cls-5 {
        fill: #55351c;
      }

      .cls-6 {
        fill: #999;
      }
    </style>
  </defs>
  <g id="Layer_1-2" data-name="Layer 1">
    <g>
      <path class="cls-5" d="M36.64,29.89c2.76,2.62-1.34,4.79-9.15,4.86s-16.38-2-19.14-4.62,1.34-4.79,9.15-4.86c7.81-.07,16.38,2,19.14,4.62Z"/>
      <path class="cls-5" d="M77.65,29.56c2.76,2.62-1.34,4.79-9.15,4.86-7.81.07-16.38-2-19.14-4.62s1.34-4.79,9.15-4.86,16.38,2,19.14,4.62Z"/>
      <path class="cls-4" d="M7.51,28.25H2.51c-1.05,2.58-1.88,5.64-2,9.1-.3,8.72,4.07,15.68,7.5,19.9"/>
      <path class="cls-5" d="M54.05,32.28c-.72.14-2.33-.22-3.59-.8s-1.7-1.17-.98-1.31,2.33.22,3.59.8,1.7,1.17.98,1.31Z"/>
      <ellipse class="cls-5" cx="37.13" cy="31.38" rx="1.07" ry="1.82" transform="translate(-.02 62.74) rotate(-80.38)"/>
      <path class="cls-4" d="M77.51,30.25h6c.97,1.99,1.89,4.67,2,7.87.37,11-9.27,18.23-10.5,19.13"/>
      <ellipse class="cls-3" cx="20.51" cy="13.25" rx="14.5" ry="13"/>
      <ellipse class="cls-3" cx="60.51" cy="13.25" rx="14.5" ry="13"/>
      <path class="cls-1" d="M35.01,10.26c.59-.55,2.36-2.05,5-2.22,3.26-.21,5.49,1.76,6,2.22"/>
      <path class="cls-2" d="M7.51,6.25H2.51C1.46,10.78.63,16.17.51,22.25c-.3,15.34,4.07,27.58,7.5,35"/>
      <path class="cls-2" d="M73.51,6.75h6c1,4.35,1.78,9.38,2,15,.6,15.22-3.22,27.6-6.5,35.5"/>
      <ellipse class="cls-6" cx="46.91" cy="17.18" rx="1.72" ry="3.16" transform="translate(-3.01 19.05) rotate(-22.25)"/>
      <ellipse class="cls-6" cx="33.91" cy="17.32" rx="3.16" ry="1.72" transform="translate(5.04 42.14) rotate(-67.75)"/>
      <path class="cls-4" d="M37.51,31.75c1.2-.73,4.14-2.31,8-2,1.65.13,3.01.57,4,1"/>
    </g>
  </g>
</svg>