<?xml version="1.0" encoding="UTF-8"?>
<svg id="Layer_2" data-name="Layer 2" xmlns="http://www.w3.org/2000/svg" viewBox="0 0 35.03 39.99">
  <defs>
    <style>
      .cls-1 {
        stroke: #eadcd3;
      }

      .cls-1, .cls-2 {
        fill: none;
        stroke-miterlimit: 10;
      }

      .cls-2 {
        stroke: #55351c;
      }
    </style>
  </defs>
  <g id="Layer_1-2" data-name="Layer 1">
    <g>
      <path class="cls-2" d="M.37,18.88c12.79,14.43,25.11,23.04,30,20,6.9-4.3,1.51-33.43-10-36-5.42-1.21-12.74,3.35-14,9-2.11,9.44,13.38,18.94,16,17,1.07-.79.92-4.16-5-16"/>
      <path class="cls-1" d="M1.47,16.7c12.79,14.43,25.11,23.04,30,20,6.9-4.3,1.51-33.43-10-36-5.42-1.21-12.74,3.35-14,9-2.11,9.44,13.38,18.94,16,17,1.07-.79.92-4.16-5-16"/>
    </g>
  </g>
</svg>