<?xml version="1.0" encoding="UTF-8"?>
<svg id="Layer_2" data-name="Layer 2" xmlns="http://www.w3.org/2000/svg" viewBox="0 0 238.52 318.33">
  <defs>
    <style>
      .cls-1 {
        fill: #65330b;
      }

      .cls-2 {
        fill: #63370d;
      }

      .cls-3 {
        fill: #fff;
      }

      .cls-4 {
        fill: #6d3b17;
      }

      .cls-5, .cls-6 {
        fill: none;
      }

      .cls-6 {
        stroke: #63370d;
        stroke-miterlimit: 10;
      }

      .cls-7 {
        fill: #7e5923;
      }

      .cls-8 {
        fill: #231f20;
      }

      .cls-9 {
        fill: #333;
      }

      .cls-10 {
        fill: #ffdfb8;
      }
    </style>
  </defs>
  <g id="Layer_1-2" data-name="Layer 1">
    <g>
      <path class="cls-4" d="M41.51,48.03c-1.26.41-8.3,2.58-15.55-1.3-1.35-.72-6.71-3.79-9.07-10.37-2.07-5.76-1.79-14.05,3.89-19.44,6.47-6.14,15.42-4.22,16.85-3.89,11.59,2.7,15.39,15,15.55,15.55"/>
      <path class="cls-4" d="M20.78,287.77c-1.19-.67-2.96-1.62-5.18-2.59-5.81-2.54-8.96-3.91-11.66-2.59-3.33,1.62-3.87,6.26-3.89,6.48-.5,4.87,3.32,8.57,5.18,10.37,7.23,6.99,17.55,6.69,20.73,6.48"/>
      <path class="cls-4" d="M124.45,15.63c.3-1.86,1.31-6.46,5.18-10.37,1.7-1.72,5.83-5.88,11.66-5.18,4.66.56,9.19,4.08,10.37,9.07,1.2,5.06-1.63,9.14-2.59,10.37-3.78,4.85-9.52,5.15-10.37,5.18"/>
      <path class="cls-4" d="M136.12,121.9c1.79,2.44,4.47,6.05,7.78,10.37,19.9,25.95,23.15,25.87,31.1,37.58,4.95,7.29,21.34,31.45,16.85,59.61-.7,4.38-1.76,7.94-2.59,10.37,4.22,1.38,9.77,3.72,15.55,7.78,8.83,6.19,14.05,13.49,16.85,18.14.5-1.85,1.56-4.81,3.89-7.78,1.91-2.43,4.3-5.47,6.48-5.18,4.1.53,6.24,12.62,6.48,20.73.18,6.19-.56,16.33-6.48,28.51h-67.39c-1.26,1.27-3.04,2.6-5.18,2.59-2.52,0-3.68-1.86-5.18-1.3-1.62.61-1.29,3.16-2.59,6.48-1.13,2.87-3.51,6.38-6.48,7.78-4.04,1.89-9.62.07-14.26-3.89-7.09.76-62.13,6.49-88.12,1.3-5.52-1.1-11.25-3-15.55-7.78-5.24-5.81-5.85-13.07-6.48-22.03-1.09-15.43,1.92-27.26,2.59-29.81,1.98-7.54,4.51-13.62,15.55-33.69,20.4-37.1,21.6-34.22,23.33-42.77,2.24-11.11,1.14-20.63,7.78-36.29,1.9-4.48,3.82-8.02,5.18-10.37,9.24-.75,19.22-1.93,29.79-3.7,11.25-1.89,21.65-4.19,31.12-6.67Z"/>
      <path class="cls-2" d="M145,137.56c.43-.24,3.05,3.98,8,11,6.55,9.3,8.4,11.05,15,20,8.65,11.73,12.97,17.6,14.87,21.57,1.64,3.43,11.42,24.87,2.59,44.06-1.59,3.45-5.64,12.26-12.96,12.96-5.22.5-10.59-3.26-12.96-7.78-2.48-4.72-.33-7.71,1.3-20.73.68-5.47.89-11.85,1.3-24.62.25-7.74.36-11.66,0-14.26-.79-5.61-2.35-8.97-7.78-20.73-6.52-14.15-9.77-21.23-9.36-21.46Z"/>
      <path class="cls-2" d="M161.36,253.76c.2-2.13.18-6.32-5.18-15.55-.48-.83-1.38-2.44-7.04-10.57-4.42-6.34-6.63-9.51-7.13-10.08-8.64-9.78-17.58-7.76-30-19-1.84-1.67-3.21-3.13-4-4-.19-9.98-1.13-18.19-2-24-3.27-21.91-8.48-29.73-13-34-2.74-2.59-5.28-3.92-8-4-5.07-.14-8.88,4.16-10.47,5.86-15.19,16.35-13.74,45.37-12.96,68.68.71,21.14,3.2,26.2,6.48,29.81,8.97,9.87,25.78,11.09,33.69,11.66,14.32,1.04,19.94-2.53,27.21,2.59,5.41,3.81,5.65,8.15,12.96,11.66,2.5,1.2,9.18,4.42,14.26,1.3,4.48-2.75,5.04-8.8,5.18-10.37Z"/>
      <path class="cls-4" d="M115.38,128.38c8.76-1.91,17.14-3.8,27.21-9.07,8.51-4.46,16.86-9.04,22.03-18.14,7.32-12.91,3.66-27.14,1.3-36.29-6.05-23.46-22.46-36.62-27.21-40.17-13.03-9.74-25.64-12.4-28.51-12.96-5.55-1.07-27.13-5.25-46.65,7.78-13.62,9.09-18.95,21.94-23.33,32.4-3.17,7.58-8.48,20.7-6.48,37.58.81,6.81,2.09,17.65,10.37,27.21,8.42,9.74,19.24,12.45,25.92,14.26,14.95,4.03,27.45,1.31,45.36-2.59Z"/>
      <path class="cls-4" d="M162.03,247.6c.2-2.13.18-6.32-5.18-15.55-2.74-4.71-5.73-9.86-11.66-15.55-16.48-15.81-28.79-10.08-37.58-22.03-5-6.79-.3-7.67-6.48-29.81-3.81-13.63-8.51-29.71-19.44-32.4-1.14-.28-3.63-.89-6.48,0-15.11,4.74-13.8,43.56-12.96,68.68.71,21.14,3.2,26.2,6.48,29.81,8.97,9.87,25.78,11.09,33.69,11.66,14.32,1.04,19.94-2.53,27.21,2.59,5.41,3.81,5.65,8.15,12.96,11.66,2.5,1.2,9.18,4.42,14.26,1.3,4.48-2.75,5.04-8.8,5.18-10.37Z"/>
      <path class="cls-4" d="M145.19,137.45c.82-.71,8.92,6.53,16.85,15.55,9.25,10.52,18.49,21.04,24.62,37.58,3.5,9.45,10.2,27.52,2.59,44.06-1.59,3.45-5.64,12.26-12.96,12.96-5.22.5-10.59-3.26-12.96-7.78-2.48-4.72-.33-7.71,1.3-20.73.68-5.47.89-11.85,1.3-24.62.25-7.74.36-11.66,0-14.26-.56-3.96-1.84-9.43-7.78-20.73-7.47-14.23-13.73-21.36-12.96-22.03Z"/>
      <path class="cls-2" d="M128.41,268.83c-5.27.8-7.82,5.23-7.42,10.3,0,0-.8-1.52-.8-1.52-12.98-25.2-40.75-37.25-68.3-35.19,6.79-.53,13.65-.25,20.37.88,20.31,3.08,39.07,15.6,48.7,33.9,0,0-.81.21-.81.21-.13-4.66,3.49-8.99,8.14-9.57,0,0,.14.99.14.99h0Z"/>
      <path class="cls-6" d="M189.25,239.82c.16,2.72.19,5.77,0,9.07-.22,3.85-.71,7.33-1.3,10.37"/>
      <path class="cls-5" d="M164.63,302.03c2.02-1.35,4.24-3.05,6.48-5.18,4.31-4.09,7.19-8.32,9.07-11.66"/>
      <path class="cls-10" d="M105.01,88.2c.3-6.38.59-12.54,5.18-18.14,4.64-5.66,10.86-7.32,12.96-7.78.95-.21,12.16-2.46,20.73,5.18,8.1,7.21,10.57,20.31,5.18,28.51-3.69,5.61-9.84,7.09-18.14,9.07-7.39,1.77-18.07,4.32-23.33-1.3-3.16-3.38-2.94-8.19-2.59-15.55Z"/>
      <path class="cls-8" d="M125.75,72.65c-.47,2.86,5.4,8,10.37,6.48,4.1-1.25,6.66-6.77,5.18-9.07-1.09-1.7-4.24-1.46-6.48-1.3-2.56.19-8.63,1.21-9.07,3.89Z"/>
      <path d="M125.75,84.31c4.81,10.1,10.6,2.54,10-5.16,0,0,.74-.03.74-.03.08,2.79,1.18,6.14,3.86,7.37,3.02.95,4.56-3.75,4.85-6.06-.86,10.58-9.04,7.41-9.44-1.29,0,0,.74-.03.74-.03.79,8.21-6.43,16.25-10.73,5.21h0Z"/>
      <path class="cls-10" d="M45.4,38.96c-4.91.56-8.52-.56-10.37-1.3-2.93-1.17-7.07-2.81-7.78-6.48-.45-2.33.55-5.17,2.59-6.48,4-2.56,9.83,2.15,10.37,2.59,4.84,4.01,5.15,10.23,5.18,11.66Z"/>
      <path class="cls-10" d="M133.52,18.22c-.09-1.41-.04-3.91,1.3-6.48,1.01-1.94,3.73-5.81,6.48-5.18,1.33.3,2.24,1.57,2.59,2.59,1.03,3.02-2.09,6-2.59,6.48-2.91,2.79-6.81,2.65-7.78,2.59Z"/>
      <path class="cls-7" d="M150.37,259.26c1.12,1.27,4.11,4.52,5.18,3.89.93-.54.98-4.29-1.3-5.18-1.25-.49-2.87,0-3.89,1.3Z"/>
      <path class="cls-7" d="M156.85,257.97c.07,2.1,4.25,3.53,5.18,2.59.94-.94-.49-5.12-2.59-5.18-1.24-.04-2.63,1.35-2.59,2.59Z"/>
      <path class="cls-7" d="M160.74,252.78c0,2.61,3.16,4.38,3.89,3.89.99-.67-1.12-6.55-2.59-6.48-.72.04-1.29,1.49-1.3,2.59Z"/>
      <path class="cls-7" d="M164.63,241.12c-1.39.69-1.07,4.86,0,5.18.94.28,3.39-2.09,2.59-3.89-.44-.99-1.81-1.68-2.59-1.3Z"/>
      <path class="cls-7" d="M168.51,245.01c-2.18,1.13-2.09,4.82-1.3,5.18,1.02.47,4.68-3.95,3.89-5.18-.38-.59-1.75-.44-2.59,0Z"/>
      <path class="cls-7" d="M172.4,246.3c-2.27.94-2.27,4.53-1.3,5.18,1.25.84,5.57-2.15,5.18-3.89-.24-1.07-2.31-1.95-3.89-1.3Z"/>
      <ellipse class="cls-1" cx="140.65" cy="291.66" rx="12.31" ry="24.62"/>
      <ellipse class="cls-10" cx="133.52" cy="281.29" rx="2.59" ry="3.89"/>
      <ellipse class="cls-10" cx="146.48" cy="280" rx="2.59" ry="3.89"/>
      <ellipse class="cls-10" cx="140" cy="276.11" rx="2.59" ry="3.89"/>
      <ellipse class="cls-10" cx="141.3" cy="298.79" rx="6.48" ry="11.02"/>
      <path class="cls-7" d="M128.34,263.15c-.45,6.12-.29,7.73,0,7.78.37.05.55-2.43,2.59-3.89,1.32-.94,2.52-.81,2.59-1.3.07-.45-.9-1.22-5.18-2.59Z"/>
      <path class="cls-7" d="M133.52,265.74c-.36-.27-.12-1.62,2.59-6.48,3.64,3.62,4.16,4.81,3.89,5.18-.25.35-1.05-.15-2.59,0-2.33.22-3.45,1.62-3.89,1.3Z"/>
      <path class="cls-7" d="M140,264.45c-.15-.47.59-1.48,5.18-3.89,1.79,4.97,1.71,6.25,1.3,6.48-.38.21-.92-.53-2.59-1.3-2.3-1.04-3.71-.73-3.89-1.3Z"/>
      <circle class="cls-3" cx="101.43" cy="60.65" r="10.19"/>
      <circle class="cls-3" cx="136.98" cy="51.83" r="8.98"/>
      <circle class="cls-9" cx="101.12" cy="60.44" r="7.85"/>
      <circle class="cls-9" cx="136.8" cy="51.9" r="6.91"/>
      <circle cx="101.39" cy="60.96" r="4.76"/>
      <circle cx="136.81" cy="51.62" r="4.19"/>
      <circle class="cls-3" cx="95.26" cy="57.73" r="3.21"/>
      <circle class="cls-3" cx="131.99" cy="49.36" r="2.83"/>
      <path class="cls-1" d="M82,132.56c6.55,1.05,17.3,1.93,30-1,10.67-2.47,18.79-6.72,24-10-1.83,2.63-9.15,12.51-23,16-16.09,4.05-28.77-3.6-31-5Z"/>
    </g>
  </g>
</svg>