<?xml version="1.0" encoding="UTF-8"?>
<svg id="Layer_2" data-name="Layer 2" xmlns="http://www.w3.org/2000/svg" viewBox="0 0 197.86 246.06">
  <defs>
    <style>
      .cls-1 {
        fill: none;
        stroke: #cf6e19;
        stroke-miterlimit: 10;
      }

      .cls-2 {
        fill: #efd1ac;
      }

      .cls-3 {
        fill: #fff;
      }

      .cls-4 {
        fill: #cd7221;
      }

      .cls-5 {
        fill: #dd7e27;
      }

      .cls-6 {
        fill: #cd6e1b;
      }

      .cls-7 {
        fill: #2a1c0e;
      }

      .cls-8 {
        fill: #333;
      }

      .cls-9 {
        fill: #cf6e19;
      }

      .cls-10 {
        fill: #e9d1ac;
      }

      .cls-11 {
        fill: #ffdfb8;
      }
    </style>
  </defs>
  <g id="Layer_1-2" data-name="Layer 1">
    <g>
      <path class="cls-5" d="M83.58,160.05c-23.62-.86-33.48-7.39-37-10-3.74-2.77-10.78-8.14-13-17-1.44-5.76.08-9.25,2-20,3.21-18.05.75-18.55,3-26,6.04-20,27.8-29.64,31-31,18.86-8.04,35.8-3.48,41-2,5.98,1.71,19.9,5.68,30,19,10.77,14.21,10.24,29.89,10,37-.27,7.87-.92,27.19-15,40-12.58,11.44-28.39,10.86-52,10Z"/>
      <path class="cls-5" d="M171.58,168.05c1.15-.86,2.63-2.15,4-4,3.25-4.39,2.78-8.48,5-9,1.4-.33,2.85.97,4,2,2.02,1.81,2.74,4,3,5,.71-2.03,1.38-3.03,2-3,1.16.05,2.16,3.72,3,11,1.86-1.43,2.75-1.12,3-1,1.42.66,1.16,3.89,1,6-.16,2.09-.61,3.81-1,5,1.25-.41,1.76-.24,2,0,1.19,1.19-1.41,7.07-6,10-2.32,1.48-4.64,1.87-6,2"/>
      <path class="cls-5" d="M50.58,68.05c-2.34-4.78-5.08-8.03-7-10-10.24-10.5-23.33-11.55-29-12-5.12-.41-7.73-.58-10,1-6.96,4.85-3.93,19.5-3,24,1.41,6.84,3.51,16.97,13,24,9.39,6.95,19.88,6.31,23,6"/>
      <path class="cls-5" d="M138.58,76.05c1.28-1.89,3.22-4.42,6-7,8.49-7.86,18.06-9.85,24-11,9.33-1.81,21.24-4.12,26,2,2.37,3.04,1.9,6.8,1,14-1.1,8.8-2.14,17.14-9,25-1.3,1.49-9.43,10.5-23,12-5.52.61-10.1-.23-13-1"/>
      <path class="cls-7" d="M69.58,56.05c-.94-1.85-2.01-4.62-2-8,.02-3.96,1.52-5.14,2-10,.12-1.24.87-8.79-2-10-1.99-.84-4.76,1.77-5,2-4.72,4.55-2.26,13.15-2,14-4.36-.43-7.37-1.98-9-3-1.74-1.09-7.3-4.57-7-9,.16-2.27,1.78-3.83,3-5,5.25-5.05,11.37-3.19,13-7,.78-1.84.22-4.27-1-5-.96-.58-2.26-.03-8,3-5.22,2.76-6.38,3.49-7,3-1.33-1.06,1.35-6.64,2-8,2.92-6.08,5.74-7.71,5-10-.64-2-3.61-3.31-6-3-3.7.49-5.71,4.84-8,10-2.73,6.14-5.36,12.08-4,20,.38,2.24,1.47,8.09,6,13,4.59,4.97,8.65,4.58,14,10,3.21,3.25,5,6.69,6,9"/>
      <path class="cls-7" d="M123.73,59.45c1.28-1.78,2.86-4.52,3.39-8.06.62-4.16-.76-5.63-.48-10.8.07-1.32.51-9.35,3.71-10.16,2.22-.56,4.71,2.63,4.92,2.9,4.21,5.53.24,14.15-.16,15,4.64.25,8.04-.89,9.92-1.69,2-.86,8.39-3.61,8.79-8.3.2-2.4-1.25-4.3-2.34-5.73-4.69-6.14-11.41-5.18-12.5-9.44-.52-2.05.46-4.51,1.86-5.08,1.1-.45,2.37.33,7.9,4.44,5.02,3.73,6.13,4.69,6.85,4.27,1.57-.89-.34-7.17-.8-8.71-2.08-6.84-4.77-9.01-3.63-11.29.99-1.99,4.32-2.89,6.77-2.18,3.8,1.11,5.2,6,6.77,11.77,1.87,6.88,3.67,13.52.96,21.61-.76,2.28-2.84,8.24-8.39,12.66-5.35,4.26-9.46,3.34-16.29,8.22-3.54,2.53-5.95,5.27-7.41,7.16"/>
      <path class="cls-5" d="M67.58,158.05c-1.88,5.22-3.15,9.68-4,13-2.26,8.8-2.19,12-2,14,.33,3.48,1.27,6.24,2,8-1.94.38-4.87,1.18-8,3-2.42,1.41-8.11,4.71-10,11-1.36,4.53-.04,8.26,2,14,1.89,5.33,3.86,10.89,9,13,.9.37,4.54,1.87,8,0,2.72-1.47,3.72-4.16,4-5,.03,2.36.45,7.44,4,12,1.49,1.92,3.7,4.74,7,5,4.6.36,8.19-4.53,10-7,2.54-3.46,3.55-6.9,4-9,2.21.69,5.73,1.45,10,1,1.88-.2,6.44-.74,11-4,2.43-1.73,4.03-3.65,5-5,1.07.27,2.44.81,3,2,1.08,2.28-2.03,4.39-2,8,.03,3.34,2.75,6.82,6,8,3.81,1.39,7.56-.66,10-2,4.42-2.42,4.41-4.57,8-6,3.53-1.41,5.65-.17,10,0,0,0,8.9.34,17-5,7.73-5.1,10.4-13.16,12-18,1.28-3.87,4.18-12.64,1-23-3.02-9.82-9.73-15.32-13-18-3.1-2.54-7.87-6.45-15-8-7.84-1.7-18.21-.49-26,2-2.28.73-6.29,2.19-11,1-2.68-.68-4.7-1.98-6-3-7.34.35-15.38.41-24,0-7.89-.37-15.25-1.09-22-2Z"/>
      <path class="cls-9" d="M122.15,223.78c3.16-4.96,7.89-8.84,13.29-11.04l-.15.49c-6.6-9.9-4.56-23.37,4.28-31.18-8.57,7.86-10.41,21.21-3.72,30.82,0,0,.22.33.22.33l-.37.16c-5.24,2.25-9.75,6.12-12.71,10.96l-.85-.53h0Z"/>
      <path class="cls-1" d="M119.58,222.05c.89-1.29,2.57-4.07,3-8,.4-3.66-.46-6.55-1-8"/>
      <path class="cls-11" d="M94.58,160.05c-1.31,2.52-2.95,6.25-4,11-.84,3.82-2.43,11.05,0,19,2.08,6.8,6.39,10.1,5,12-1.17,1.6-4.21-.64-8,1-5.09,2.2-4.51,8.22-8,9-4.19.93-9.27-6.84-12-11-2.41-3.69-5.15-7.87-6-14-.67-4.85.21-8.57,2-16,1.32-5.5,2.85-9.95,4-13,3.72.86,8.09,1.61,13,2,5.26.41,9.98.32,14,0Z"/>
      <g>
        <path class="cls-5" d="M68.58,229.05c-.14-2.51-.05-6.99,2-12,.65-1.59,2.34-5.6,6-9,7.2-6.68,16.82-6.17,19-6"/>
        <path class="cls-4" d="M68.08,229.07c-.46-16.24,10.91-28.54,27.5-27.03-16.34-1.1-27.29,11-26.5,26.97,0,0-1,.05-1,.05h0Z"/>
      </g>
      <path class="cls-11" d="M37.58,95.05c.85-.84,1.7-1.67,2.55-2.51l4.45-2.49s4.86-1.76,11,0c8.32,2.38,15.88,15.8,18,34,1.23-.5,3.77-1.33,7-1,2.81.29,4.89,1.33,6,2,.72-3.24,2.11-7.93,5-13,3.12-5.48,10.44-18.33,23-19,10.05-.54,17.14,7.05,18,8,9.74,10.75,5.21,25.36,5,26,.36-.24,2.88-1.89,6-1,2.43.7,3.68,2.5,4,3-1.11,4.61-3.48,11.58-9,18-13.55,15.74-35.33,15.59-48.5,15.5-10.22-.07-32.92-.23-47.5-15.5-3.09-3.23-9.99-10.48-10-20,0-4.35,1.43-6.62,3-14,1.62-7.6,1.96-13.94,2-18Z"/>
      <ellipse cx="78.08" cy="130.55" rx="7.5" ry="4.5"/>
      <path d="M68.58,136.05c2.26,4.19,8.54,3.51,9.76-1.07,0,0,.48.09.48.09-.48,3.71,4.08,6.26,7,3.9.93-.68,1.59-1.75,1.76-2.93-.76,6.24-9.72,5.17-9.24-1.03,0,0,.48.09.48.09-1.37,4.89-8.09,5.6-10.24.93h0Z"/>
      <path class="cls-11" d="M39.58,83.05c-.61-1.98-1.56-4.77-3-8-1.84-4.13-3.58-8.02-7-12-3.51-4.08-7.08-6.26-10-8-5.22-3.12-13.01-7.79-17-5-.55.39-2.11,1.67-2.5,8.5-.71,12.64,3.85,22.18,4.5,23.5,2.74,5.55,5.65,11.46,12.5,15.5,7.67,4.52,15.49,3.9,18.5,3.5"/>
      <path class="cls-10" d="M37.57,95.55c-12.42-.17-24.35-7.44-30-18.5,5.84,10.74,17.82,17.68,30,17.5,0,0,0,1,0,1h0Z"/>
      <path class="cls-11" d="M146.58,89.05c.38.8,1.04,1.88,2,2,2.31.29,4.3-5.16,8-11,1.64-3.14,4.42-7.35,9-11,12.14-9.68,26.95-7.51,30-7,.81,3.57,1.67,9.45.5,16.5-.58,3.53-2.17,12.39-9.5,20.5-2.03,2.25-8.48,9.19-19.5,11.5-7.24,1.52-13.27.37-16.5-.5"/>
      <path class="cls-10" d="M150.71,103.56c11.34,3.57,24.01-.83,31.87-9.52-7.74,9.05-20.48,13.78-32.13,10.48,0,0,.27-.96.27-.96h0Z"/>
      <circle class="cls-3" cx="54.66" cy="113.05" r="12.49"/>
      <circle class="cls-3" cx="108.81" cy="119.05" r="12.49"/>
      <circle class="cls-8" cx="55.02" cy="112.78" r="9.62"/>
      <circle class="cls-8" cx="108.77" cy="118.78" r="9.62"/>
      <circle cx="54.32" cy="112.89" r="5.83"/>
      <circle cx="109.15" cy="118.89" r="5.83"/>
      <circle class="cls-3" cx="60.54" cy="107.1" r="3.94"/>
      <circle class="cls-3" cx="113.77" cy="113.1" r="3.94"/>
      <path class="cls-2" d="M67.08,160.55c.14-.45,5.13,1.4,13,2,4.87.37,9.26.28,13,0-.33,2-.67,4-1,6-2.17-.39-5.3-1.01-9-2-8.52-2.28-16.17-5.44-16-6Z"/>
      <path class="cls-6" d="M93.08,162.55c2.91.22,6.28.28,10,0,4.63-.35,8.67-1.13,12-2-3.53,2.06-8.23,4.34-14,6-3.67,1.06-7.06,1.66-10,2,.67-2,1.33-4,2-6Z"/>
    </g>
  </g>
</svg>