<?xml version="1.0" encoding="UTF-8"?>
<svg id="Layer_2" data-name="Layer 2" xmlns="http://www.w3.org/2000/svg" viewBox="0 0 252.36 352.02">
  <defs>
    <style>
      .cls-1 {
        stroke: #999;
        stroke-miterlimit: 10;
        stroke-width: .25px;
      }

      .cls-1, .cls-2 {
        fill: none;
      }

      .cls-3 {
        fill: #fff;
      }

      .cls-4 {
        fill: #626059;
      }

      .cls-5 {
        fill: #333;
      }

      .cls-6 {
        fill: #a4a29e;
      }

      .cls-7 {
        fill: #999;
      }

      .cls-8 {
        fill: #76746d;
      }

      .cls-9 {
        fill: #292928;
      }

      .cls-10 {
        fill: #8c8a8a;
      }
    </style>
  </defs>
  <g id="Layer_1-2" data-name="Layer 1">
    <g>
      <path class="cls-6" d="M83.11,295.34c-1.3,3.15-1.03,9.42-1,10,.21,4.36,1.24,8.4,2,10,3.27,6.87,20.75,8.75,42,3,2.14-3.25,9.09-14.57,5-23-7.16-14.76-43.47-10.94-48,0Z"/>
      <path class="cls-8" d="M73.11,258.34c-.57,3.44-1.14,9.7,1,17,1.6,5.45,4.12,9.48,6,12-2.09,4.37-1.5,8.26,0,9,1.46.73,4.75-1.07,7-5-.02,3.85,3.3,6.44,6,6,2.53-.41,4.78-3.52,4-7,0,4.58,3.51,7.41,6,7,1.99-.33,3.87-2.81,4-6,1.69,2.5,3.47,4.31,5,4,3.87-.78,3.99-14.64,4-16,.06-6.92.11-13.46-3-18-5.74-8.38-22.3-10.1-40-3Z"/>
      <path class="cls-6" d="M7.11,300.34c-1.27,1.71-6.6,8.91-4,16,1.5,4.1,4.99,6.35,6,7,4.49,2.9,6.83,1.22,11,3,6.58,2.8,5.2,8.85,14,18,2.47,2.57,8.3,8.63,12,7,2.01-.88,2.73-3.74,3-6,3.26,5.81,9.26,7.89,13,6,2.97-1.5,3.82-5.14,4-6,5.95,1.86,10.95-.07,12-3,.65-1.82-.28-3.83-1-5,.52-.02,4.09-.22,6-3,2.33-3.4.16-7.69,0-8-2.34-4.45-7.58-4.41-14-7-4.93-1.99-5.24-3.4-16-12-14.05-11.24-21.2-16.86-27-17-11.16-.28-18.69,9.58-19,10Z"/>
      <path class="cls-6" d="M159.11,290.34c2.44,5.52.96,11.23,0,14,2.93,1.62,7.94,5.04,10,11,.18.53,2.15,6.38,0,8-1.74,1.31-4.51-1.42-7,0-1.97,1.12-1.47,3.52-3,6-1.2,1.94-3.78,4.16-10,5-1.58,1.19-4.65,3.18-9,4-3.37.64-6.21.34-8,0-1.04.28-3.3.74-6,0-3.41-.93-5.36-3.19-6-4-2.06.71-6.54,1.89-11,0-8.81-3.73-12.68-17.36-8-23,1.73-2.08,4.34-2.75,6-3-.28-1.9-.49-4.69,0-8,0,0,.55-3.74,2-7,2.88-6.48,12.38-12.93,23-14,7.66-.77,22.42.61,27,11Z"/>
      <path class="cls-6" d="M239.11,287.34c2.36,3.66,6.16,10.82,6,20-.06,3.31-.19,7.61-3,12-2.58,4.02-6.1,6.08-8,7-1.56,1.02-4.31,2.51-8,3-1.96.26-3.67.18-5,0-1.38.25-3.5.45-6,0-3.35-.6-5.74-2.08-7-3-1.02.34-3.83,1.12-7,0-5.36-1.89-6.87-7.5-7-8-1.69-.7-4.41-2.14-6-5-.95-1.71-1.65-4.22,0-13,1.19-6.34,1.79-9.5,3-12,3.55-7.29,12.39-14.89,24-15,9.91-.09,19.13,5.29,24,14Z"/>
      <path class="cls-8" d="M237.11,60.34c5.26-6.44,6.91-14.55,4-21-1.59-3.53-4.18-5.75-6-7-.98-2.81-2.76-6.84-6-11-3.53-4.53-7.38-7.36-10-9,2.36-3.21,2.4-4.46,2-5-.61-.83-2.39-.25-6,0-2.55.18-4.64.1-6,0,3.19-5.57,2.24-6.76,2-7-1.3-1.29-6.07,1.37-9,3-2.67,1.49-4.7,2.97-6,4,.25-.57,2.54-5.8,1-7-1.35-1.05-4.96,1.53-7,3-3.78,2.71-6.35,5.71-8,8-4.51,2.71-9.25,6-14,10-18.57,15.63-28.09,34.34-33,47-6.18,1.22-15.98,4.02-26,11-15.79,11-22.54,25.69-25,32-4.68,6.44-11.29,14.84-20,24-5.25,5.52-10.48,11.02-18,17-16.97,13.49-21.7,10.41-31,20C1.72,186.15.31,204.11.11,207.34c-.94,14.9,4.38,26.2,7,31-1.61,7.59-2.95,17.07-3,28-.04,9.16.84,17.26,2,24-3.7,5.3-5.24,9.91-4,11,1.22,1.07,5.45-.99,10-5-1.49,5.94,1.36,10.59,4,11,2.33.36,5.68-2.42,7-7-.23,3.56,1.75,6.49,4,7,2.76.63,6.76-2.18,7-7,1.35,5.79,4.21,9.3,6,9,1.69-.28,3.07-4.08,3-9,4.62,4.96,8.74,7.91,10,7,1.23-.89-.16-5.5-3-11,2.5-3.61,5.85-9.33,8-17,2.2-7.82,2.28-14.58,2-19,1.55-2.27,3.92-6.36,5-12,.98-5.11.5-9.39,0-12,4.17-2.16,10.54-5.92,17-12,27.49-25.86,16.76-56.14,41-75,13.93-10.84,31.4-11.68,38-12,15.4-.74,27.48,3.28,34,6,2.15-.64,16.21-4.65,25,3,9.89,8.6,6.55,26.25,3,35-4.34,10.71-9.9,10.34-16,25-1.46,3.52-2.98,7.95-7,13-3.51,4.41-7.32,7.27-10,9-.45,4.9-.59,10.64,0,17,1.17,12.66,4.77,22.88,8,30-1.5,1.98-4.04,5.68-3,7,1.51,1.93,9.72-2.33,11-3-.37,1.23-1.4,5,0,6,1.41,1.01,5.01-.97,9-5,.45,3.93,1.69,6.92,3,7,1.4.09,3.22-3.12,4-8,.63,5.83,3.85,9.26,6,9,1.84-.22,3.54-3.21,4-7,4.09,4.97,8.32,7.13,10,6,1.42-.96,1.17-4.41,0-8,.83-5.93,2.19-15.38,4-27,4.89-31.31,7.03-39.53,6-53-.55-7.13-2.12-17.54-7-30,2.07-4.19,7.14-15.82,5-31-2.09-14.85-9.87-24.5-13-28-15.52-7.28-22.4-23.21-18-35,4.06-10.88,16.34-14.53,18-15Z"/>
      <path class="cls-4" d="M84.61,111.84c-2.18,3.53-7.27,12.84-6.95,25.71.32,12.64,5.67,21.55,8,25-1.31,4.74-3.66,15.76,0,29,3.47,12.54,10.53,20.53,14,24-8.54,19.4-6.4,29.97-3,36,6.68,11.87,26.63,21.14,25.95,32.29-.06,1-.21,3.19,1.05,4.71,1.02,1.22,3.96,1.8,13-2h10c.16-1.06.44-2.33.95-3.71.88-2.36,2.09-4.12,3.05-5.29,2.81-13.85,5.12-29.98,6-48,1.16-23.8-.48-44.79-3-62,1.62-5.45,3.4-13.79,3-24-.41-10.38-2.92-18.66-5-24"/>
      <path class="cls-6" d="M62.11,256.34c5.15,1.34,12.72,3.03,22,4,0,0,49.59,5.14,97-24,5.06-3.11,12.09-10.04,19-17,4-4.03,6.5-6.57,9.5-10.5,6.12-8.02,9.22-15.14,11.5-20.5,4.47-10.49,6.71-15.73,6.5-22.5-.13-4.06-.41-13.41-7.5-19.5-9.88-8.49-24.35-3.25-25-3-6.39-2.85-20.29-8.01-38-6-5.44.62-27.68,3.14-42,20-11.84,13.94-7.13,24.59-17,44-8.55,16.81-21.74,27.83-33,35,.54,2.58,1.09,6.89,0,12-.72,3.4-1.95,6.1-3,8Z"/>
      <path class="cls-8" d="M84.11,111.34c-1.86,4.56-4.82,13.51-4,25,.86,12.02,5.42,20.76,8,25-1.31,4.74-3.66,15.76,0,29,3.47,12.54,10.53,20.53,14,24-2.18,6.44-5.67,19.62-3,36,2.33,14.25,8.27,24.53,12,30-3.65,5.38-5.25,9.89-4,11,1.17,1.03,4.95-.83,9-4,.25,5.2,3.75,8.31,6,8,2.07-.28,4.29-3.61,4-8,.76,5.86,5.83,8.93,9,8,2.83-.83,5.22-5.15,4-10,.59,5.77,3.89,9.25,6,9,2-.24,4.16-3.96,4-9,5.64,4.25,8.98,5.92,10,5,1.21-1.08-.79-5.75-6-14,2.81-13.85,5.12-29.98,6-48,1.16-23.8-.48-44.79-3-62,1.62-5.45,3.4-13.79,3-24-.41-10.38-2.92-18.66-5-24"/>
      <path class="cls-6" d="M234.11,68.34c4.06-14.11,4.91-16.48,4-20-.23-.9-1.74-6.75-7-9-4.32-1.85-9.73-.65-14,3-1.47-1.37-6.5-5.72-14-6-7.61-.28-16.2,3.68-20,12-3.51,7.68-1.92,16.83,4,23-1.34,1.42-9.05,9.86-8,22,.83,9.62,6.66,15.65,9,18,.99.99,15.17,14.74,33,9,16.28-5.24,20.74-21.95,21-23,.97-.31,3.82-1.34,5-4,1.49-3.35-.72-6.93-2-9-3.75-6.07-10.23-8.26-13-9,.41-1.45,1.12-3.93,2-7Z"/>
      <path class="cls-1" d="M159.11,304.34c.48,3.68.84,7.69,1,12,.13,3.54.12,6.88,0,10"/>
      <path class="cls-2" d="M107.11,308.34c.83,1.41,2.1,3.22,4,5,1.42,1.34,2.83,2.31,4,3"/>
      <path class="cls-1" d="M77.11,337.34c-.03-1.77-.38-4.15-2-6-2.03-2.32-4.97-2.54-7-3-3.46-.78-8.08-3.11-13-10"/>
      <path class="cls-1" d="M66.11,345.34c-2.98-3.54-5.98-7.21-9-11-3.49-4.39-6.82-8.73-10-13"/>
      <path class="cls-1" d="M49.11,345.34c-4.33-6.33-8.67-12.67-13-19"/>
      <path class="cls-7" d="M194.11,150.34c.32,11.66-2.1,23.42-7,34,4.62-10.72,7.01-22.33,7-34h0Z"/>
      <g>
        <path class="cls-6" d="M206.11,82.34c-.21-.3-2.65-4.01-1-8,1.77-4.28,6.63-4.95,7-5,3.58-.44,4.1,1.91,8,2,5.01.11,6.41-3.72,11-3,.57.09,3.56.56,5,3,1.3,2.22.89,5.34-1,8"/>
        <path d="M206.11,82.34c-4.32-6.43.63-13.92,8.1-13.01,2.08.6,3.83,2.06,6.1,1.88,2.2.08,4.14-.97,6.01-2.02,1.91-1.11,4.25-1.33,6.33-.57,4.93,1.48,5.28,7.08,2.46,10.71,2.69-3.63,2.34-9.13-2.51-10.55-2.05-.74-4.3-.51-6.18.59-1.87,1.06-3.88,2.16-6.11,2.08-2.26.18-4.13-1.32-6.15-1.93-7.35-.92-12.17,6.45-8.05,12.81h0Z"/>
      </g>
      <path class="cls-9" d="M217.11,82.34c-1.09.83-3.69-.77-5-2-.77-.72-2.43-2.28-2-4,.23-.91,1.02-1.76,2-2,1.35-.34,2.5.6,3,1,2.4,1.94,3.25,6.04,2,7Z"/>
      <path class="cls-9" d="M227.11,80.34c-1.04-.53-.46-3.54,0-5,.44-1.39.87-2.73,2-3,1.19-.28,2.66.74,3,2,.29,1.09-.34,2.03-1,3-.96,1.42-2.99,3.51-4,3Z"/>
      <path d="M242.18,97.44c-12.86,8.93-30.2,6.58-43.07-1.1,9.76,5.58,21.62,8.57,32.69,5.58,3.66-.93,7.12-2.58,10.24-4.68l.14.21h0Z"/>
      <path class="cls-4" d="M225.11,120.34c1.28,1.48,2.74,3.47,4,6,2.38,4.79,2.91,9.23,3,12l-6-3c.54,1.68,1.27,4.08,2,7,1.1,4.4,1.87,7.54,1,8-.37.2-1.16-.03-3-2,.13,3.99.13,5.99,0,6-.15.01-.49-2.66-1-8,.67.33,1.33.67,2,1l-3-15c1.67.67,3.33,1.33,5,2-.1-1.53-.48-4.15-2-7-1.3-2.43-2.9-4.06-4-5,.67-.67,1.33-1.33,2-2Z"/>
      <path class="cls-1" d="M116.11,307.34c-1,4.67-2,9.33-3,14"/>
      <circle class="cls-3" cx="205.03" cy="58.7" r="7.42"/>
      <circle class="cls-3" cx="230.06" cy="58.7" r="7.42"/>
      <circle class="cls-5" cx="205.25" cy="58.54" r="5.71"/>
      <circle class="cls-5" cx="230.03" cy="58.54" r="5.71"/>
      <circle cx="204.83" cy="58.6" r="3.46"/>
      <circle cx="230.26" cy="58.6" r="3.46"/>
      <circle class="cls-3" cx="208.52" cy="55.17" r="2.34"/>
      <circle class="cls-3" cx="233" cy="55.17" r="2.34"/>
      <path class="cls-10" d="M93.61,208.84c.78,1.22,1.76,2.59,3,4,1.03,1.18,2.05,2.17,3,3-1.95,4.25-4.32,10.77-5,19-.97,11.76,2,21.06,4,26h3c-1.6-5.67-3.27-13.95-3-24,.26-9.63,2.2-17.52,4-23-2.33-2.67-4.67-5.33-7-8-.67,1-1.33,2-2,3Z"/>
      <path class="cls-4" d="M234.11,112.34c-2.74,3.17-11.6,12.6-26.5,15.5-2.17.42-13.57,2.48-26.68-2.73-4.91-1.95-14.11-5.61-20.32-15.27-8.1-12.6-5.25-26.32-4.5-29.5-.28,4.69-.35,17.02,8,27,5.38,6.44,11.93,9.11,19,12,6.26,2.56,13.99,5.71,24,5,13.58-.97,23.08-8.46,27-12Z"/>
    </g>
  </g>
</svg>