<?xml version="1.0" encoding="UTF-8"?>
<svg id="Layer_2" data-name="Layer 2" xmlns="http://www.w3.org/2000/svg" viewBox="0 0 221.63 309.26">
  <defs>
    <style>
      .cls-1 {
        fill: #ffe6b6;
      }

      .cls-2 {
        fill: #fff;
      }

      .cls-3 {
        fill: none;
      }

      .cls-4 {
        fill: #e7ceac;
      }

      .cls-5 {
        fill: #572d0e;
      }

      .cls-6 {
        fill: #231f20;
      }

      .cls-7 {
        fill: #333;
      }

      .cls-8 {
        fill: #efa61f;
      }

      .cls-9 {
        fill: #f36f37;
      }
    </style>
  </defs>
  <g id="Layer_1-2" data-name="Layer 1">
    <g>
      <path class="cls-1" d="M75.96,235.49c-.02,1.46-.2,3.59-1,6-.26.79-1.51,4.4-5,8-.73.75-9.71,9.77-19,7-1.77-.53-3.11-1.36-4-2-.22.16-4.58,3.07-9,1-2.45-1.15-3.61-3.21-4-4-1.22-.42-2.97-1.27-4-3-2.33-3.94.96-9.3,2-11,4.99-8.14,15.34-9.68,18-10"/>
      <path class="cls-1" d="M89.96,220.49c-1.47.15-2.44.85-4,2-5.05,3.71-9.32,10.83-7,15,.31.56.88,1.32,2,2-.06.45-.29,2.44,1,4,1.49,1.8,4.4,2.31,7,1,.23.3.56.66,1,1,0,0,.89.69,2,1,1.82.5,9.24-3.97,10-11,.83-7.61-6.45-15.55-12-15Z"/>
      <path class="cls-8" d="M115.96,121.49c1.68,2.68-.44,5.22,2,9,2.69,4.17,6.36,2.78,12,7,4.68,3.5,7.42,8.4,10,13,2.08,3.71,2.54,5.52,5,8,3.08,3.11,6.37,4.33,8,5,3.2,1.31,8.14,4.87,18,12,3.54,2.56,19.4,14.01,27,34,5.41,14.22,3.54,24.61,1,28-1.74,2.32-4,4-4,4-.57.42-3.08,2.24-6,3-4.78,1.25-9.12-.71-14-3-6.76-3.17-6.55-4.95-11-6-5.29-1.25-9.82.27-12,1-2.66.89-9.49,3.18-13,10-1.84,3.58-2.05,7.01-2,9-1.12.15-2.88.29-5,0-2.04-.28-4.53-.62-5-2-.4-1.16,1-1.95,1-4,0-1.31-.58-2.37-1-3-1.17-.11-2.91-.21-5,0-4.62.46-6.23,1.92-10,3-5.23,1.5-13.26,1.89-16-2-.76-1.08-.95-2.25-1-3,.8-.69,2.08-1.99,3-4,1.17-2.57,1.1-4.9,1-6-1.34-1.5-2.69-3.16-4-5-4.84-6.78-7.49-13.56-9-19-1.67,2.53-3.41,5.53-5,9-2.75,6-4.2,11.55-5,16-3.84-1.35-6.85-1.33-9-1-3.62.55-4.51,1.95-8,2-1.5.02-5.81.08-8-3-1.64-2.31-1.18-5.12-1-6,1.21-2,2.83-5.05,4-9,2-6.77,1.28-11.46,1-19-.36-9.54.24-16.4,1-25,1.08-12.23,2.5-16.61,4-20,2.19-4.94,4.93-8.6,7-11,.04-2.1.35-5.45,2-9,8.35-17.94,41.8-21.32,47-13Z"/>
      <path class="cls-8" d="M39.96,22.49c-1.1-1.83-2.99-4.51-6-7-1.77-1.46-9.15-7.57-17-6-8.24,1.65-12.2,10.82-14,15-5.97,13.83-1.29,27.3,0,31,4.62,13.28,13.81,20.93,18,24"/>
      <path class="cls-1" d="M24.96,45.49c-1.22-4.49-1.83-6.74-3-9-2.29-4.43-7.75-11.05-12-10-5.03,1.24-5.83,12.55-6,15-.74,10.51,3.58,18.47,5,21,1.27,2.26,8.02,15.19,13,14,4.59-1.1,6.2-13.82,5-22-.51-3.46-1.86-8.47-2-9Z"/>
      <path class="cls-1" d="M66.96,143.49c-.35,5.24-2.28,10.73-3,16-.17,1.27-1.27,10,2,19,2.77,7.63,5.64,7.06,14,21,2.43,4.05,4.09,6.83,6,11,3.21,7.03,3.58,10.3,7,16,1.96,3.26,3.42,5.7,6,8,9.41,8.41,25.21,7.39,28,12,.99,1.64,1,3,1,3,.02,2.09-1.4,2.84-1,4,.47,1.38,2.96,1.72,5,2,2.12.29,3.88.15,5,0,0-1.77.25-3.83,1-6,3.08-8.87,12.16-12.34,14-13-1.62-2.05-3.42-4.71-5-8-2.62-5.44-3.61-10.45-4-14-1.68-1.08-4.15-2.76-7-5-18.53-14.57-26.76-32.5-31-42-3.89-8.72-7.54-17.14-8-29-.22-5.78.38-10.62,1-14-3.16,2-7.16,4.16-12,6-6.54,2.48-12.46,3.54-17,4-.25.63-.64,1.68-1,3-.82,2.99-.96,5.35-1,6Z"/>
      <path class="cls-8" d="M59.96,134.49c6.23,2.19,20.99-.89,38-10,4.04.13,10.63-.16,18-3,3.48-1.34,18.37-7.07,24-22,3.31-8.77,1.92-16.73,1-22-1.18-6.73-2.99-9.37-8-21-9.59-22.27-6.74-22.12-11-27-10.57-12.11-25.71-14.74-33-16-12.9-2.23-23.26-.19-28,1-7.06,1.77-18.5,4.64-27,14-14.72,16.21-9.71,39.87-9,43-1.69,2.65-4.26,7.49-5,14-1.35,11.85,4.37,20.59,6,23,7.6,11.24,19.12,14.32,22,15,.71,1.66,2.17,4.47,5,7,0,0,2.85,2.54,7,4Z"/>
      <path class="cls-8" d="M99.96,21.49c1.85-1.44,4.73-3.8,8-7,6.64-6.51,7.78-9.58,12-12,6.47-3.71,13.78-2.24,15-2,13.5,2.71,20.91,18.65,23,29,3.01,14.87-2.6,29.83-12,39-2.99,2.92-5.93,4.83-8,6"/>
      <path class="cls-1" d="M124.96,41.49c1.54-.99,3.76-2.6,6-5,5.3-5.67,5.51-10.18,10-12,.3-.12,3.79-1.48,7,0,5.9,2.73,5.98,12.86,6,16,.08,10.2-4.84,17.77-7,21-2.78,4.16-5.79,7.1-8,9"/>
      <path class="cls-1" d="M99.96,124.49c1.41-1.67,3.12-3.76,4-7,2-7.39-2.22-13.82-3-15-1.2-1.83-3.05-4-6-6-7.24-4.91-13.96-3.96-34-4-16.59-.03-20.69-.7-24,3-4.45,4.98-3.16,13.06-3,14,.33,1.93,1.2,7.36,6,11,3.11,2.36,6.4,2.86,8,3,.98,2.14,2.77,5.31,6,8,11.1,9.24,27.89,3.42,32,2,8.72-3.02,12.81-7.58,14-9Z"/>
      <path class="cls-9" d="M50.96,111.49c.81-.16,1.86-.45,3-1,1.33-.64,2.32-1.39,3-2,1.67,1.1,4.82,2.81,9,3,9.33.42,15.33-7.12,16-8,.12,2.16.05,5.36-1,9-1.04,3.61-2.92,10.12-9,13-4.38,2.07-10.66,2.12-14-1-.77-.72-1.86-2.82-4-7-1.28-2.49-2.3-4.57-3-6Z"/>
      <path class="cls-6" d="M41.96,91.49c4.15.56,8.84.95,14,1,5.97.05,11.34-.37,16-1,.6,1.69,1.13,4.09,0,6-1.29,2.19-3.62,1.79-8,4-5.37,2.71-5.31,5.05-8,5-3.05-.06-3.04-3.07-9-6-2.61-1.28-4.06-1.42-5-3-1.12-1.88-.61-4.27,0-6Z"/>
      <path class="cls-1" d="M126.96,246.49c.39.64.9,1.67,1,3,.14,1.9-.66,3.37-1,4-3.02,5.67-2.14,6.91-5,11-1.63,2.33-7.25,10.37-15,10-2.61-.12-4.68-1.16-6-2-1.07.32-3.79.98-7,0-2.55-.77-4.21-2.21-5-3-1.07.61-4.38,2.31-7,1-3.73-1.87-3.78-8.69-2-13,1.16-2.81,3.05-4.45,6-7,3.44-2.98,6.72-4.86,9-6"/>
      <path class="cls-1" d="M194.96,241.49c-1.95,1.24-5.49,3.06-10,3-3.77-.05-6.62-1.4-10-3-6.11-2.9-6.67-4.88-11-6-3.85-.99-7.08-.37-9,0,0,0-10.35,2-16,11-1.3,2.06-1.74,3.88-2,5-.58,2.5-.24,3.5,0,4,.58,1.23,1.65,1.81,2,2,2.26,1.2,4.65.16,5,0,.31.55,1.82,3.11,5,4,4.34,1.22,7.77-1.79,8-2,.6.91,1.55,2.08,3,3,4.8,3.02,11.74,1.14,16-2,2.77-2.04,1.9-2.77,5-5,2.56-1.84,6.41-2.7,10-5,1.86-1.19,4.92-3.15,5-6,.04-1.26-.52-2.31-1-3Z"/>
      <path class="cls-8" d="M200.96,232.49c1.71.04,4.17.25,7,1,4.15,1.1,9.3,2.48,12,7,2.68,4.49,1.43,9.54,1,11-.35,1.19-1.88,5.8-10,11-4.13,2.64-6.82,3.42-18,7-15.28,4.89-18.28,6-22,9-3.41,2.76-5.41,5.48-8,9-7.37,10.03-6.67,14.95-13,19-1.21.77-7.01,4.3-11,2-.52-.3-1.82-1.16-3-4-.45-1.09-2.67-6.74,0-15,3.06-9.46,10.2-15.09,14-18,3.79-2.91,15.45-11.86,31-13,2.2-.16,8.99-.5,16-4,3.61-1.81,5.66-3.64,6-6,.29-1.99-.74-3.61-1-4-1.42-2.15-4.11-3.3-7-3"/>
      <path class="cls-4" d="M33.46,251.55c-.71-6.23,2.41-12.88,8.5-15.06-5.8,2.44-8.52,8.97-7.5,14.94,0,0-.99.12-.99.12h0Z"/>
      <path class="cls-4" d="M46.46,254.52c-.01-6.19.1-12.09,6.5-15.03-1.25.71-2.42,1.6-3.34,2.69-2.89,3.35-2.29,8.16-2.16,12.28,0,0-1,.06-1,.06h0Z"/>
      <path class="cls-4" d="M80.46,239.53c-.25-5.71,2.74-10.78,8.5-12.04-5.48,1.56-8.09,6.52-7.5,11.96,0,0-1,.08-1,.08h0Z"/>
      <path class="cls-4" d="M88.47,244.56c-.57-4.91,2.45-9.58,6.5-12.07-3.72,2.66-6.37,7.33-5.5,11.93,0,0-.99.14-.99.14h0Z"/>
      <path class="cls-4" d="M88.52,269.72c-2.58-5,.08-11.19,4.44-14.23-1.03.83-1.92,1.81-2.65,2.89-2.13,3.16-2.96,7.49-.91,10.87,0,0-.88.47-.88.47h0Z"/>
      <path class="cls-4" d="M100.61,272.84c-4.46-4.68-3.38-12.68,3.36-14.35-6.27,1.91-7.13,9.41-2.64,13.65,0,0-.71.7-.71.7h0Z"/>
      <path class="cls-4" d="M143.46,257.52c.25-6.04-.51-11.79,6.5-14.03-1.29.52-2.5,1.24-3.47,2.21-3.05,2.93-1.95,7.96-2.03,11.76,0,0-1,.05-1,.05h0Z"/>
      <path class="cls-4" d="M156.52,259.73c-2.84-5.2.57-12.32,6.44-13.24-1.34.34-2.6.98-3.64,1.86-3.11,2.58-4.04,7.45-1.92,10.9,0,0-.88.48-.88.48h0Z"/>
      <path class="cls-8" d="M134.96,172.49c-.63,2.1-1.3,5.25-1,9,.37,4.62,1.95,6.98,3,10,2.45,7.02.63,13.56-2,23-2.28,8.18-4.01,8.93-6,17-1.54,6.27-1.92,11.58-2,15-1.67-.34-4.16-.62-7,0-2.36.51-3.73,1.38-5,2-6.3,3.1-16,3.25-19-1-.37-.52-.88-1.46-1-3,1.59-1.25,3.55-3.23,4-6,.25-1.55-.15-2.21,0-4,.28-3.29,1.99-5.02,3-7,1.6-3.15.77-5.92,0-12-1.76-13.89-.6-9.07-2-18-2.67-17.07-4.19-17.31-4-25,.15-6.12,1.26-11.43,2-15,1.34-6.45,2.52-9.01,3-10,1.5-3.08,3.89-7.86,9-10,1.57-.66,3-.9,4-1"/>
      <path class="cls-3" d="M134.96,186.49c.65-.53,1.34-1.18,2-2,2.39-2.98,2.88-6.28,3-8"/>
      <path class="cls-3" d="M142.96,214.49c-.35-1.24-.75-2.95-1-5-.15-1.25-.66-6.1,1-13,1.51-6.28,2.43-10.11,6-13,2.73-2.21,5.64-2.76,7-3,7.77-1.38,14.22,3.08,17,5,7.64,5.28,10.81,12.66,12,16"/>
      <path class="cls-3" d="M126.96,246.49c-.03-.7-.05-1.74,0-3,.25-6.66,2.1-11.54,3-14,4.13-11.23,6.2-16.85,7-24,.44-3.96.83-7.44,0-12-.92-5.02-2.54-7.14-3-12-.4-4.26.36-7.8,1-10"/>
      <path class="cls-5" d="M99.96,138.49c-.21-1.61.65-3.5,2-4,1.15-.43,1.79.49,3,0,1.19-.48,1.1-1.58,2-2,2.1-.99,6.46,3.16,6,4-.33.6-2.73-1.17-5,0-1.39.72-1.14,1.72-3,3-.51.35-2.65,1.82-4,1-.81-.49-.94-1.57-1-2Z"/>
      <path class="cls-5" d="M102.96,142.49c-.32-.1-1.1-.29-2,0-.15.05-1.75.6-2,2-.21,1.16.59,2.47,2,3"/>
      <path class="cls-5" d="M113.96,156.49c.77-2.1-1.27-4.36-3-5-.85-.31-1.12-.05-4,0-3.22.05-3.18-.28-4,0-2.58.87-3.88,4.41-4,7-.06,1.22-.13,2.86,1,4,1.58,1.59,4.89,1.6,6,0,.59-.85.66-2.3,0-3-.6-.65-1.46-.28-2-1-.42-.56-.43-1.49,0-2,.64-.77,2.13-.46,3,0,1.21.64,1.08,1.52,2,2,1.43.75,4.27-.02,5-2Z"/>
      <path class="cls-5" d="M105.96,164.49c.48-.71,1.42-.89,2-1,1.68-.32,2.33.45,3,0,1.05-.71-.16-2.94,1-4,.73-.67,2.14-.62,3,0,1.06.77,1.02,2.2,1,3-.04,1.34-.59,2.3-1,3-.46.77-1.29,2.19-3,3-.38.18-3.17,1.5-5,0-1.17-.97-1.74-2.92-1-4Z"/>
      <path class="cls-5" d="M125.96,145.49c1.73.28,3.3,2.08,3,3-.22.69-1.5.91-2,1-1.46.26-1.91-.32-3,0-1.03.3-2.11,1.25-2,2,.11.76,1.36.7,3,2,.75.59,2.16,1.71,2,3-.17,1.31-1.86,1.95-2,2-1.47.53-3.08-.04-4-1-.59-.62-.79-1.28-1-2-.18-.64-.78-2.72,0-5,.87-2.56,3.49-5.4,6-5Z"/>
      <path class="cls-5" d="M131.96,155.49c.14-.56-.31-1.12-1-2-1.04-1.31-1.61-1.29-2-2-.78-1.44.03-4.42,2-5,1.61-.47,3.27.89,4,2,1.13,1.73,1.02,4.39,0,6-.35.56-.85,1.05-1,2-.13.82.13,1.17,0,2-.15.95-.67,1.59-1,2-.84,1.05-2.76,2.65-4,2-.82-.43-.96-1.64-1-2-.18-1.65.9-2.88,1-3,1.23-1.37,2.77-1.06,3-2Z"/>
      <path class="cls-5" d="M120.96,170.49c.88-.17,5.93-1.16,6-3,.03-.89-1.11-1.71-2-2-1.39-.45-2.64.23-4,1-1.9,1.07-4.42,3.14-4,4,.35.72,2.58.28,4,0Z"/>
      <path class="cls-5" d="M116.96,174.49c.52-.67,3.34.2,5,1,1.12.54,1.84,1.1,3,1,.23-.02,1.49-.13,2-1,.54-.92-.37-1.67,0-3,.26-.92,1.06-1.89,2-2,1.35-.15,2.67,1.52,3,3,.55,2.43-1.54,4.53-2,5-1.91,1.92-5.1,2.98-8,2-3.6-1.22-5.64-5.19-5-6Z"/>
      <path class="cls-5" d="M135.96,167.49c-.65,1.25.85,3.12,2,4,.37.29,2.12,1.62,4,1,.96-.32,2.1-1.2,2-2-.09-.73-1.11-.69-3-2-1.7-1.17-1.95-1.96-3-2-.75-.03-1.65.33-2,1Z"/>
      <path class="cls-5" d="M141.96,164.49c-1.47.58-3.11.15-4-1-.9-1.16-1.01-3.01,0-4,1.11-1.09,3.02-.6,4,0,1.05.64.83,1.28,2,2,1.14.71,1.63.27,3,1,.69.37,1.8.96,2,2,.23,1.21-.84,2.59-2,3-1.59.56-3.85-.56-5-3Z"/>
      <path class="cls-5" d="M108.96,188.49c-1.16.29-2.37.59-3,0-.65-.61-.54-2.06,0-3,1.38-2.4,6.49-3.04,10-1,.3.18,3.76,2.26,4,6,.02.35.19,3.64-2,5-1.48.92-3.68.74-4,0-.15-.35.23-.91,1-2,1.39-1.97,2.06-2.27,2-3-.06-.82-.96-1.37-2-2-.73-.45-1.72-1.05-3-1-1.15.05-1.27.57-3,1Z"/>
      <path class="cls-5" d="M109.96,196.49c1.27.08,2.45.16,3,1,.39.59.45,1.54,0,2-.57.59-1.49-.08-3,0-2.67.14-3.46,2.45-5,2-1.4-.41-1.92-2.66-2-3-.43-1.87.51-2.42,0-4-.52-1.62-1.68-1.58-2-3-.35-1.57.58-3.79,2-4,1.38-.2,2.94,1.52,3,3,.05,1.17-.87,1.45-1,3-.01.15-.16,2.21,1,3,.87.59,1.57-.14,4,0Z"/>
      <path class="cls-5" d="M119.96,202.49c.84.21.64,1.45,2,3,1.16,1.32,2.56,1.84,3,2,.56.2,2.91,1.04,5,0,1.53-.76,1.7-1.94,3-2,.76-.04,1.66.32,2,1,.58,1.17-.77,2.73-1,3-1.75,2.03-4.6,2.01-5,2-1.78-.04-1.8-.71-4-1-2.8-.37-3.41.63-5,0-1.79-.71-3.39-2.91-3-5,.32-1.71,1.97-3.25,3-3Z"/>
      <path class="cls-5" d="M126.96,197.49c-3.16-.05-5.15,3.56-6,3-.45-.29-.18-1.47,0-2,.34-1,.92-1.26,3-3,1.85-1.54,2.21-2.01,3-2,.77.01.95.47,2,1,2.22,1.13,3.37.07,5,1,1.39.79,2.6,2.72,2,4-.58,1.22-2.71,1.63-4,1-.93-.45-.88-1.18-2-2-1.03-.75-2.22-.99-3-1Z"/>
      <path class="cls-5" d="M153.96,180.49c-.35-.56-.9-1.6-1-3-.12-1.65.36-4.16,2-5,1.15-.59,1.66.27,4,0,2.31-.27,2.52-1.18,4-1,1.58.19,2.61,1.39,4,3,1.29,1.49,2.28,2.65,2,4-.24,1.12-1.31,2.17-2,2-1.04-.26-.4-3.11-2-4-.86-.48-1.23.25-3,0-2.08-.3-2.87-1.5-4-1-.42.19-.65.5-1,1-.82,1.15-.97,2.35-1,3-.67.33-1.33.67-2,1Z"/>
      <path class="cls-5" d="M173.96,183.49c.28-.87,1.88-.99,2-1,1.96-.13,3.49,1.47,4,2,.81.84.6.99,2,3,1.43,2.06,1.86,2.21,2,3,.15.84-.09,2.13-2,4-.49-.89-1.14-1.93-2-3-1.04-1.29-2.1-2.27-3-3,.84-.44,1.02-.77,1-1-.05-.65-1.63-.64-3-2-.34-.34-1.25-1.24-1-2Z"/>
      <path class="cls-5" d="M187.96,204.49c1.6-1.47,3.76-1.05,4-1,1.42.3,2.26,1.2,3,2,.44.48,1.79,1.93,2,4,.09.94-.15.99,0,2,.23,1.54.87,1.83,1,3,0,.08.2,2.01-1,3-1.57,1.3-4.66.25-5-1-.19-.68.56-1.03,1-3,.32-1.41.08-1.86,0-2-.3-.51-.85-.71-2-1-3.02-.76-3.51-.48-4-1-.95-1-.53-3.59,1-5Z"/>
      <path class="cls-5" d="M188.96,215.49c-1.97-2.7-2.48-2.61-3-4-.76-2.03-.03-3.21-1-4-.79-.65-2.14-.58-3,0-1.28.86-1.36,2.78-1,4,.61,2.09,2.46,1.99,3,4,.49,1.83-.79,2.89,0,4,.6.84,1.81.92,3,1,.67.04,3.45.23,4-1,.34-.76-.43-1.85-2-4Z"/>
      <path class="cls-5" d="M174.96,231.49c-.79-1.98.43-4.03,1-5,1.02-1.72,2.38-2.63,3-3,.83-.49,3.12-1.85,5-1,.62.28.52.49,2,2,1.98,2.02,2.48,1.96,3,3,.2.41,1.15,2.46,0,4-.94,1.26-2.92,1.69-4,1-1.35-.86-.5-2.96-2-4-.93-.65-2.44-.66-3,0-.8.94.84,2.62,0,4-.54.89-1.9,1.3-3,1-1.35-.37-1.88-1.71-2-2Z"/>
      <path class="cls-5" d="M174.96,235.49c-.32.74,1.31,2.31,3,3,1.56.63,3.69.72,4,0,.32-.74-1.31-2.31-3-3-1.56-.63-3.69-.72-4,0Z"/>
      <path class="cls-5" d="M182.96,235.49c.62-.82,2.16-.84,3,0,.84.84.81,2.39,0,3-.88.66-2.43.04-3-1-.29-.53-.45-1.4,0-2Z"/>
      <path class="cls-5" d="M167.96,234.49c.45-.32.96-1.55,2-4,.71-1.67.89-2.32,1-3,.11-.7.29-1.77,0-3-.15-.63-.81-2.95-3-4-1.85-.88-4.75-.85-6,1-.8,1.18-.91,3.09,0,4,1.16,1.17,3.27-.06,4,1,.56.82-.02,2.55-1,3-.7.32-1.15-.22-2,0-1.18.31-2.21,1.87-2,3,.38,2.03,4.93,3.5,7,2Z"/>
      <path class="cls-5" d="M156.96,225.49c-.25-.08-1.08-.34-2,0-1.25.46-2.07,1.81-2,3,.02.34.1.5,2,3,.99,1.31,1.32,1.73,2,2,.58.23,1.65.46,2,0,.55-.72-1.45-2.2-1-4,.26-1.03,1.06-1.15,1-2-.07-.96-1.15-1.72-2-2Z"/>
      <path class="cls-5" d="M151.96,215.49c-.66.7-.7,2.17,0,3,.95,1.13,2.94.66,4,0,1.18-.74,1.63-1.98,2-3,.74-2.03.16-2.72,1-4,.87-1.31,1.84-1.14,2-2,.32-1.77-3.57-3.78-4-4-.62-.31-1.6-.8-3-1-1.07-.15-3.47-.49-5,1-.91.89-1.49,2.41-1,3,.47.57,1.58-.17,4,0,1.08.08,2.69.19,3,1,.3.77-.89,1.29-1,3-.07,1.06.35,1.46,0,2-.46.7-1.36.32-2,1Z"/>
      <path class="cls-5" d="M144.96,213.49c.8.13,1.66-1.21,2-2,.29-.69.8-2.38,0-3-.74-.58-2.33-.02-3,1-.96,1.47.02,3.84,1,4Z"/>
      <path class="cls-5" d="M145.96,215.49c.43-1.04,1.94-1.6,3-1,.71.4,1.06,1.24,1,2-.09,1.08-1.03,1.99-2,2-1.35.01-2.53-1.73-2-3Z"/>
      <path class="cls-5" d="M150.96,199.49c.54.14,1.72.44,2,0,.29-.46-.54-1.45-1-2-.78-.93-1.97-2.36-3-2-.69.24-1.14,1.22-1,2,.22,1.29,2.01,1.74,3,2Z"/>
      <path class="cls-5" d="M146.96,193.49c-.96-1.28-.32-3.1,0-4,.16-.45.68-1.78,2-3,.49-.45,2.72-2.51,5-2,.82.18.7.49,3,2,2.06,1.35,2.38,1.25,3,2,.16.19,1.73,2.13,1,4-.83,2.15-4.19,2.87-5,2-.74-.79.91-2.56,0-4-.59-.93-2.05-1.41-3-1-.77.33-.68,1.01-2,3-1.21,1.82-1.75,1.96-2,2-.8.12-1.59-.45-2-1Z"/>
      <path class="cls-5" d="M154.96,196.49c1.02-.72,2.65-.68,3,0,.29.56-.33,1.52-1,2-1.02.72-2.65.68-3,0-.29-.56.33-1.52,1-2Z"/>
      <path class="cls-5" d="M165.96,202.49c-.03-1.22,1.47-1.54,3-4,.59-.96,1.46-2.36,1-3-.6-.83-3.25-.16-5,1-.38.25-2.23,1.52-3,4-.33,1.06-.8,2.55,0,4,.95,1.72,2.9,1.99,3,2,1.18.14,2.81-.21,3-1,.24-.97-1.96-1.53-2-3Z"/>
      <path class="cls-5" d="M173.96,197.49c.18-1.2,1.81-2.29,3-2,.94.23,1.34,1.27,2,3,.68,1.76.83,3.21,1,5,.15,1.56.22,2.36,0,3-.47,1.35-1.54,2.05-3,3-1.3.85-2.82,1.84-5,2-1.23.09-3.22.24-4-1-.74-1.16-.16-3.16,1-4,1.45-1.05,3.41-.02,4-1,.37-.62-.34-1.16,0-2,.52-1.32,2.65-.98,3-2,.42-1.19-2.25-2.34-2-4Z"/>
      <path class="cls-5" d="M108.96,217.49c.29-.98,2.1-.57,4-2,.36-.27,1.74-1.31,2-3,.2-1.31-.31-2.89-1-3-.47-.08-.73.57-2,2-1.61,1.82-1.88,1.57-3,3-1.21,1.55-.88,1.83-2,3-1.03,1.08-1.59,1.13-2,2-.6,1.28-.11,2.69,0,3,1.12,3.19,5.45,3.92,6,4,1.84.28,4.63.13,5-1,.31-.96-1.22-2.31-2-3-1.61-1.42-2.66-1.42-4-3-.63-.75-1.18-1.39-1-2Z"/>
      <path class="cls-5" d="M117.96,217.49c.92-1.9,1.4-2.85,2-3,1.11-.28,2.46.82,3,2,.59,1.27.17,2.5,0,3-.14.42-.98,2.87-3,3-1.31.08-2.7-.84-3-2-.06-.24-.13-.68,1-3Z"/>
      <path class="cls-5" d="M67.96,193.49c.49-.93-.52-2.33-1-3-.37-.52-1.6-2.23-3-2-1.01.17-1.61,1.28-2,2-.81,1.5-.29,2.02-1,3-.88,1.21-1.95.78-3,2-.88,1.03-.96,2.3-1,3-.04.65-.22,3.79,2,5,1.66.9,4.15.46,5-1,.71-1.22.08-2.81,0-3-.67-1.63-2.16-2.09-2-3,.05-.3.26-.56,1-1,2.61-1.56,4.46-.97,5-2Z"/>
      <path class="cls-5" d="M67.96,200.49c-.85,1.59-1.5,1.64-2,3-.19.51-.8,2.17,0,3,.69.71,2.12.5,3,0,1.71-.98,1.94-3.38,2-4,.17-1.77-.47-2.2,0-3,.81-1.38,3.01-.54,4-2,.82-1.22.04-2.91,0-3-.83-1.74-2.76-1.97-3-2-.14-.02-2.2-.21-3,1-.65.98.28,1.77,0,4-.19,1.46-.77,2.57-1,3Z"/>
      <path class="cls-5" d="M74.96,205.49c-.44,1.77,1.23,3.67,3,4,.1.02,2.06.35,3-1,.83-1.19.16-2.68,0-3-.66-1.34-2.35-2.49-4-2-.89.27-1.75,1-2,2Z"/>
      <path class="cls-5" d="M68.96,218.49c1.34.49,3.41-.46,4-2,.37-.96.05-1.86,0-2-.17-.47-.54-1.08-4-3-1.04-.58-1.56-.87-2-1-.45-.14-2.08-.61-4,0-.57.18-2,.64-3,2-.82,1.12-.89,2.21-1,4-.12,1.99-.27,4.29,1,5,.75.42,1.68.11,2,0,.83-.28,1.83-1.01,2-2,.22-1.29-1.19-1.82-1-3,.19-1.16,1.83-2.3,3-2,1.63.42,1.19,3.34,3,4Z"/>
      <path class="cls-5" d="M60.96,224.49c.05,1.05,1.81,1.62,3,2,.98.32,3.17,1.02,4,0,.45-.56.47-1.6,0-2-.71-.61-2.06.64-3,0-.77-.52-.34-1.64-1-2-.89-.48-3.06.81-3,2Z"/>
      <path class="cls-5" d="M68.96,221.49c.65-1.13,2.41-1.59,3-1s.13,2.35-1,3c-.52.3-1.47.53-2,0s-.3-1.48,0-2Z"/>
      <path class="cls-5" d="M55.96,179.49c.22,0,.57,0,1,0,2.1-.04,2.58-.31,3,0,.66.49.66,2.02,0,3-.75,1.11-2.38,1.56-4,1v-4Z"/>
      <path class="cls-5" d="M56.96,169.49c.68.94,2.58-.21,4,1,.55.46.96,1.23,1,2,.07,1.4-1.17,1.83-1,3,.14.99,1.17,1.72,2,2,.91.3,1.7.1,2,0-.67-3.33-1.33-6.67-2-10-.41-.3-1.08-.73-2-1-.97-.28-2.07-.61-3,0-1.02.67-1.53,2.26-1,3Z"/>
      <path class="cls-5" d="M104.96,234.49c-.92-1.14-.37-3.18,1-4,1.38-.83,3.44-.33,4,1,.45,1.08-.21,2.35-1,3-1.11.92-3.09,1.13-4,0Z"/>
      <path class="cls-5" d="M113.96,234.49c.77-1.19,2.59-1.62,4-1,1.71.75,1.96,2.69,2,3,.04.33.24,2.13-1,3-1.22.85-2.81.09-3,0-1.71-.84-3.08-3.34-2-5Z"/>
      <path class="cls-5" d="M109.96,243.49c.39-.23.61.04,2,0,1.28-.04,1.68-.29,2,0,.45.4.27,1.39,0,2-.67,1.53-2.86,2.76-4,2-1.16-.78-.97-3.42,0-4Z"/>
      <path class="cls-5" d="M99.96,242.49c.58-.57,2.39-.16,3,1,.42.79.12,1.64,0,2-.36,1.04-1.33,2.18-2,2-.53-.14-.69-1.09-1-3-.28-1.69-.08-1.92,0-2Z"/>
      <path class="cls-5" d="M104.96,175.49c0,.98,1.02,1.83,2,2,1.37.24,2.99-.77,3-2,0-.98-1.02-1.83-2-2-1.37-.24-2.99.77-3,2Z"/>
      <path class="cls-5" d="M115.96,144.49c.85.9,2.88.05,3,0,.47-.2,1.76-.76,2-2,.26-1.32-.78-2.87-2-3-.93-.1-1.65.64-2,1-1.06,1.09-1.83,3.12-1,4Z"/>
      <path class="cls-5" d="M122.96,139.49c.14.47.53.86,1,1,.84.25,1.65-.4,2-1,.29-.5.55-1.45,0-2s-1.5-.29-2,0c-.6.35-1.25,1.16-1,2Z"/>
      <path class="cls-5" d="M146.96,174.49c.09,1.03.95,1.91,2,2,.76.06,1.6-.29,2-1,.59-1.05,0-2.47-1-3-.07-.04-1.05-.54-2,0-.75.43-1.06,1.28-1,2Z"/>
      <path class="cls-5" d="M128.96,182.49c-2.08.65-3.61,3.08-3,5,.27.85,1,1.75,2,2,1.45.36,2.76-.85,4-2,1.19-1.1,2.17-2.01,2-3-.24-1.46-2.89-2.65-5-2Z"/>
      <path class="cls-5" d="M163.96,190.49c.77.38,1.81-.27,3-1,1.09-.67,2.02-1.25,2-2-.04-1.29-2.87-1.97-3-2-.78-.18-1.44-.33-2,0-1.44.85-1.32,4.35,0,5Z"/>
      <path class="cls-5" d="M177.96,215.49c0-.79-.37-1.88-1-2-.92-.17-2.55,1.71-2,3,.29.69,1.22,1.27,2,1,1-.35,1-1.85,1-2Z"/>
      <path class="cls-5" d="M192.96,223.49c-.71,1.21.3,3.53,2,4,1.52.42,2.83-.84,3-1,.64-.63,1.52-1.99,1-3-.52-1.01-2.1-1-3-1-.87,0-2.43.01-3,1Z"/>
      <path class="cls-5" d="M156.96,222.49c0,.73.31,1.77,1,2,1.08.37,2.96-1.29,3-3,.02-.72-.28-1.77-1-2-.78-.25-1.61.6-2,1-.37.38-.99,1.02-1,2Z"/>
      <path class="cls-5" d="M53.96,229.49c.95.54,2.43.15,3-1,.58-1.15-.04-2.49-1-3-.06-.03-1.06-.54-2,0-1,.58-1,1.82-1,2,0,.15.02,1.45,1,2Z"/>
      <path class="cls-5" d="M61.96,231.49c.38.77,2.26.95,3,0,.41-.52.53-1.47,0-2-.57-.56-1.52-.28-2,0-.74.43-1.29,1.42-1,2Z"/>
      <path class="cls-5" d="M197.96,239.49c.45-.07,1.16-.14,2,0,1.53.25,1.8.91,3,1,1.32.09,2.39-.6,3-1,.79-.51,1.23-1.05,2-2,.55-.68,1.28-1.68,2-3-4-1.78-5.46-1.6-6-1-.5.56-.25,1.55-1,2-.64.39-1.27-.08-2,0-.86.09-1.93.93-3,4Z"/>
      <path class="cls-5" d="M207.96,241.49c-.59,1.18.19,2.43,1,3,.83.58,2.21.79,3,0,.86-.87.38-2.33,0-3-.14-.25-.42-.73-1-1-.95-.43-2.43-.15-3,1Z"/>
      <path class="cls-5" d="M215.96,237.49c-1.22.17-1.94,1.85-2,2-.47,1.14-.21,2.18,0,3,.26,1.04.45,1.79,1,2,1.23.47,2.65-2.4,4-2,.95.28,1.55,2.09,1,3-.4.66-1.14.39-2,1-1.53,1.08-2.1,3.99-1,5,.68.62,2.07.62,3,0,2.27-1.52,1.62-6.67,0-10-.31-.63-2.08-4.27-4-4Z"/>
      <path class="cls-5" d="M211.96,250.49c-.39-.8,1.39-1.91,1-3-.26-.72-1.31-1.01-2-1-1.51.01-2.96,1.47-3,3-.04,1.47,1.23,2.42,2,3,.38.29,2.5,1.88,4,1,.73-.43,1.28-1.43,1-2-.44-.87-2.59-.16-3-1Z"/>
      <path class="cls-5" d="M209.96,256.49c-.27.67.92,2.28,2,2,.8-.21,1.32-1.37,1-2-.46-.9-2.71-.73-3,0Z"/>
      <path class="cls-5" d="M200.96,259.49c.21.99,1.11,1.78,2,2,1.81.45,3.79-1.37,4-3,.12-.95-.46-1.02-1-3-.59-2.15-.18-3.06-1-4-.58-.66-1.4-.9-2-1l-9,6c.56.58,1.32,1.18,2,1,.41-.11.54-.44,1-1,.4-.48,1.61-1.96,3-2,.67-.02,1.68.28,2,1,.54,1.19-1.36,2.3-1,4Z"/>
      <path class="cls-5" d="M194.96,260.49c.14.51.7,2.57,0,3-.64.4-2.24-.65-3-2-.85-1.51-.77-3.64,0-4,.72-.33,1.92.91,2,1,.63.66.83,1.38,1,2Z"/>
      <path class="cls-5" d="M196.96,262.49c.68-.93,2.32-.93,3,0,.42.57.42,1.43,0,2-.68.93-2.32.93-3,0-.42-.57-.42-1.43,0-2Z"/>
      <path class="cls-5" d="M192.96,268.49c.32-.93-.77-1.9-2-3-.65-.58-1.32-1.17-2-1-.41.1-.6.42-1,1-1.5,2.18-2.21,2.71-2,3,.3.42,1.82-.72,3,0,.55.33.46.72,1,1,.96.49,2.67-.03,3-1Z"/>
      <path class="cls-5" d="M184.96,266.49c.29-.5.55-1.45,0-2s-1.5-.29-2,0c-.6.35-1.25,1.16-1,2,.14.47.53.86,1,1,.84.25,1.65-.4,2-1Z"/>
      <path class="cls-5" d="M181.96,259.49c0,.52,1.56,1.17,3,1,1.65-.19,3.18-1.46,3-2-.2-.61-2.52-.39-4,0-.68.18-2,.52-2,1Z"/>
      <path class="cls-5" d="M179.96,269.49c.49-.49,1.24-1.24,2-1,.73.23,1.07,1.24,1,2-.1,1.02-.98,1.9-2,2-.76.07-1.77-.27-2-1-.24-.76.51-1.51,1-2Z"/>
      <path class="cls-5" d="M173.96,264.49c.08,1.18.81,2.81,2,3,.78.12,1.59-.39,2-1,.63-.93.29-2.04,0-3-.32-1.05-.74-2.43-2-3-1.79-.81-4.06.53-4,1,.05.36,1.47.11,2,1,.34.58-.07.99,0,2Z"/>
      <path class="cls-5" d="M173.96,271.49c.47.86-.07,2.32-1,3-.82.6-1.89.41-4,0-2.83-.55-4.25-.83-5-2-.81-1.26-.15-2.45-1-3-.9-.58-1.94.56-3,0-.91-.48-1.31-1.94-1-3,.62-2.17,4.22-2.89,5-2,.33.37-.06.78,0,2,.07,1.43.71,3.32,2,4,.73.38,1.05.06,3,0,2.08-.06,4.38-.13,5,1Z"/>
      <path class="cls-5" d="M167.96,280.49c-.05-.28-.38-2.05-2-3-1.01-.59-2.78-1-4,0-.94.77-1.15,2.09-1,3,.17,1,.82,1.71,2,3,.4.44.75.77,1,1,1.33-1.33,2.67-2.67,4-4Z"/>
      <path class="cls-5" d="M152.96,275.49c1.02,0,2.86-.25,3-1,.1-.52-.65-1.05-2-2-.99-.7-1.49-1.05-2-1-1.25.11-2.47,1.92-2,3,.43,1,2.13,1,3,1Z"/>
      <path class="cls-5" d="M111.96,111.49c.66.01.78-1,2-2,.51-.42,1.15-.95,2-1,1.31-.08,1.66,1.06,3,1,1.04-.04,1.76-.77,2-1,.86-.85,1.51-2.38,1-3-.56-.67-1.83.53-4,0-1.45-.36-1.78-1.12-3-1-.14.01-1.25.14-2,1-.77.89-.23,1.49-1,3-.55,1.06-1.12,1.36-1,2,.09.48.54.99,1,1Z"/>
      <path class="cls-5" d="M112.96,114.49c-.74-.63-1.39-1.18-2-1-.71.21-.98,1.33-1,2-.04,1.43,1.02,2.98,2,3,.65.02.93-.63,2.41-.92.17-.03.36-.07.59-.08,1.39-.08,1.96.78,3,1,1.84.38,3.62-1.58,4-2,.33-.37,1.31-1.45,1-2-.33-.59-2-.33-3,0-.71.23-.76.39-2,1-1.6.79-2.4,1.18-3,1-.76-.23-.66-.86-2-2Z"/>
      <path class="cls-5" d="M127.96,101.49c-.56-1.11-.21-2.3,0-3,.22-.74.41-1.4,1-2,1.44-1.48,3.67-1.06,4-1,1,.19,2.05.71,2,1-.09.5-3.21-.3-4,1-.49.8.45,1.53,0,3-.32,1.04-1.22,2.12-2,2-.54-.08-.85-.7-1-1Z"/>
      <path class="cls-5" d="M129.96,104.49c-.17.72,1.07,1.63,2,2,.26.11,1.61.65,3,0,1.48-.69,2.4-2.44,2-3-.26-.36-.86.05-3,0-1.01-.02-1.29-.12-2,0-.49.09-1.84.32-2,1Z"/>
      <path class="cls-5" d="M133.96,92.49c-1.56,1.47-3.9,1.02-4,1-1.7-.35-2.65-1.54-3-2-.72-.93-1.48-2.53-1-3,.45-.44,2,.16,3,1,1.04.88,1.02,1.63,2,2,.83.31,1.67.09,2,0,1.25-.33,1.82-1.15,2-1,.19.15-.19,1.23-1,2Z"/>
      <path class="cls-5" d="M136.96,89.49c.72.12,1.64-1.78,2-3,.28-.94.63-2.13,0-3-.55-.76-1.59-.93-2-1-1.1-.18-1.3.26-2,0-1.05-.39-.9-1.52-2-2-.45-.2-.97-.13-2,0-1.44.19-2.85.37-3,1-.16.7,1.32,1.64,2,2,1.04.55,1.45.38,3,1,1.03.41,1.54.61,2,1,1.73,1.46,1.21,3.86,2,4Z"/>
      <path class="cls-5" d="M112.96,91.49c-.33-1.03.79-2.42,2-3,.32-.15,1.78-.84,3,0,.97.67,1.29,1.94,1,3-.27,1-1.08,1.77-2,2-1.15.28-2.1-.37-3-1-.58-.4-.87-.61-1-1Z"/>
      <path class="cls-5" d="M111.96,97.49c.81,0,1.57.4,2,1,.86,1.21.47,3.39-1,4-1.03.42-2.33-.04-3-1-.6-.87-.66-2.11,0-3,.72-.98,1.91-1,2-1Z"/>
      <path class="cls-5" d="M105.96,95.49c-.15-.58-.78-2.96-2-3-1.01-.03-2.07,1.56-2,3,.01.22.09,1.32,1,2,.93.69,2.44.73,3,0,.39-.51.2-1.22,0-2Z"/>
      <path class="cls-5" d="M101.96,88.49c.95-.74.77-2.62,0-3-.58-.29-1.57.26-2,1-.28.48-.56,1.43,0,2,.53.53,1.48.41,2,0Z"/>
      <path class="cls-5" d="M108.96,82.49c-.01.53.81.91,1,1,.6.28,1.66.48,2,0,.35-.5-.11-1.7-1-2-.9-.3-1.99.4-2,1Z"/>
      <path class="cls-5" d="M115.96,77.49c-.01,1.03.97,2.01,2,2,1.27-.01,1.82-1.51,2-2,.13-.36.54-1.46,0-2s-1.64-.13-2,0c-.49.18-1.99.73-2,2Z"/>
      <path class="cls-5" d="M123.96,73.49c.42,1.42,1.91,2,3,2,1.3,0,2.85-.81,3-2,.11-.91-.65-1.66-1-2-.77-.75-2.6-1.93-4-1-.91.61-1.33,1.9-1,3Z"/>
      <path class="cls-5" d="M124.96,62.49c1.29-.34,2.75-1.4,3-3,.22-1.41-.63-2.52-1-3-.27-.35-1.73-2.26-4-2-.12.01-2.07.27-3,2-.91,1.7-.3,3.8,1,5,.07.06,1.78,1.59,4,1Z"/>
      <path class="cls-5" d="M123.96,48.49c.82-.27,1.27-1.18,1-2s-1.18-1.27-2-1-1.27,1.18-1,2,1.18,1.27,2,1Z"/>
      <path class="cls-5" d="M115.96,53.49c1.25-.78,1.84-2.6,1-4-.88-1.46-2.9-1.77-4-1-.81.57-.95,1.59-1,2-.05.35-.28,2.1,1,3,.92.65,2.17.52,3,0Z"/>
      <path class="cls-5" d="M106.96,40.49c.27-.27.97-.98,1-2,.04-1.49-1.4-3.04-3-3-1.15.03-1.88.86-2,1-.96,1.13-.91,2.92,0,4,.16.19.89,1,2,1,1.01,0,1.68-.68,2-1Z"/>
      <path class="cls-5" d="M92.96,37.49c.93-.44,1.53-2.08,1-3-.12-.22-.37-.5-4-1-1.49-.21-1.76-.2-2,0-.88.75-.3,3.44,1,4,.41.18.53-.01,2,0,1.41.01,1.59.19,2,0Z"/>
      <path class="cls-5" d="M95.96,29.49c1.04-.18,1.76-1.12,2-2,.32-1.19-.23-2.35-1-3-1.14-.96-3.13-1.08-4,0-.89,1.1-.1,2.8,0,3,.43.89,1.56,2.25,3,2Z"/>
      <path class="cls-5" d="M85.96,27.49c.98-.39,1.46-1.93,1-3-.67-1.57-3.25-1.87-4-1-.55.63-.07,1.81,0,2,.47,1.18,1.86,2.45,3,2Z"/>
      <path class="cls-5" d="M85.96,13.49c.17.72.47,1.78,1,3,.76,1.74,1.14,2.61,2,3,1.62.74,3.6-.69,4-1,1.36-1.04,1.84-2.44,2-3-.91-.36-1.91-.7-3-1-2.23-.61-4.27-.89-6-1Z"/>
      <path class="cls-5" d="M69.96,19.49c-.81,1.92.82,3.8,1,4,1.48,1.65,4.5,2.48,6,1,1.25-1.24.91-3.58,0-5-.26-.4-1.23-1.78-3-2-1.45-.18-3.33.43-4,2Z"/>
      <path class="cls-5" d="M75.96,30.49c-.42.06-3.51.58-4,3-.33,1.6.64,3.28,2,4,2.25,1.19,4.65-.72,5-1,.24-.19,2.59-2.11,2-4-.54-1.75-3.23-2.27-5-2Z"/>
      <path class="cls-5" d="M73.96,44.49c-1.25.77-1.83,2.63-1,4,.92,1.52,2.93,1.39,4,1,.21-.08,1.76-.65,2-2,.24-1.35-1.01-2.53-2-3-.38-.18-1.77-.76-3,0Z"/>
      <path class="cls-5" d="M69.96,57.49c-.09.16-1.43,2.54,0,4,1.07,1.09,3.12,1.09,4,0,.9-1.12.09-2.81,0-3-.57-1.19-1.94-2.34-3-2-.51.17-.78.62-1,1Z"/>
      <path class="cls-5" d="M68.96,71.49c-.75.54-.73,2.12,0,3,1.09,1.3,3.62.89,4,0,.32-.74-.83-1.84-1-2-.67-.65-2.16-1.61-3-1Z"/>
      <path class="cls-5" d="M63.96,71.49c.29-.97.11-2.44-1-3-1.1-.55-2.42.13-3,1-.91,1.35-.3,3.58,1,4,1.12.36,2.6-.67,3-2Z"/>
      <path class="cls-5" d="M63.96,60.49c.76-.64,1.33-1.79,1-3-.26-.97-1.03-1.74-2-2-1.21-.33-2.36.24-3,1-.88,1.05-1.13,2.87,0,4s2.95.88,4,0Z"/>
      <path class="cls-5" d="M60.96,45.49c2.1.4,3.68-1.59,4-2,.4-.51,1.39-1.76,1-3-.37-1.18-1.77-1.62-3-2-1.27-.4-2.87-.89-4,0-1.15.91-1.03,2.63-1,3,.11,1.53,1.09,3.63,3,4Z"/>
      <path class="cls-5" d="M61.96,33.49c.81-.55.95-1.6,1-2,.02-.19.21-1.79-1-3-.2-.2-1.42-1.42-3-1-.97.26-1.75,1.04-2,2-.4,1.53.74,2.73,1,3,.97,1.02,2.82,1.8,4,1Z"/>
      <path class="cls-5" d="M54.96,16.49c.29.4,1,1.48,1,3,0,2.28-1.62,3.69-2,4-.14.12-2.6,2.06-5,1-1.39-.61-1.95-1.87-2-2-.61-1.44-.1-2.75,0-3,1-.65,2.34-1.39,4-2,1.51-.55,2.89-.84,4-1Z"/>
      <path class="cls-5" d="M42.96,33.49c-.07,1.16-.17,2.96,1,4,1.56,1.39,4.8.92,6-1,.97-1.55.23-3.41,0-4-.25-.63-1.06-2.68-3-3-1.1-.18-2.25.24-3,1-.88.89-.94,1.99-1,3Z"/>
      <path class="cls-5" d="M45.96,47.49c-.48,1.6.45,3.73,2,4,1.32.23,2.52-1,3-2,.14-.28.85-1.76,0-3-.67-.97-1.96-1.28-3-1-1.49.41-1.97,1.9-2,2Z"/>
      <path class="cls-5" d="M36.96,40.49c.5-1.21.19-2.3,0-3-.27-.98-.67-2.4-2-3-1.3-.59-3.09-.22-4,1-1.11,1.48-.28,3.36,0,4,.66,1.48,2.33,3.38,4,3,1.29-.29,1.91-1.78,2-2Z"/>
      <path class="cls-5" d="M48.96,59.49c-.99.99-.51,3.37,1,4,.98.41,2.44.12,3-1,.56-1.13-.15-2.41-1-3-.91-.63-2.29-.71-3,0Z"/>
      <path class="cls-5" d="M52.96,73.49c-.63.82-.13,2.44,1,3,1.13.57,2.73,0,3-1,.22-.79-.46-1.61-1-2-.88-.63-2.39-.8-3,0Z"/>
      <circle class="cls-5" cx="39.46" cy="89.99" r="1.58"/>
      <path class="cls-5" d="M33.96,88.49c-.15-.47-.53-.85-1-1-.85-.26-1.81.29-2,1-.27.99,1.01,2.27,2,2,.71-.19,1.26-1.15,1-2Z"/>
      <path class="cls-5" d="M24.96,84.49c.52.41,1.47.53,2,0,.56-.57.28-1.52,0-2-.43-.74-1.42-1.29-2-1-.77.38-.95,2.26,0,3Z"/>
      <path class="cls-5" d="M25.96,91.49c-.42.57-.42,1.43,0,2,.68.93,2.32.93,3,0,.42-.57.42-1.43,0-2-.68-.93-2.32-.93-3,0Z"/>
      <path class="cls-5" d="M34.96,97.49c-.15-.5-.6-1.04-1-1-.6.06-.88,1.41-1,2-.11.51-.38,1.83,0,2,.51.23,2.41-1.57,2-3Z"/>
      <path class="cls-5" d="M27.96,102.49c.57-1.37-.84-2.83-1-3-.63-.64-1.98-1.54-3-1-.81.43-.94,1.54-1,2-.03.28-.26,2.13,1,3,1.27.88,3.44.35,4-1Z"/>
      <path class="cls-5" d="M26.96,108.49c.08-.96,1.02-1.87,2-2,1.4-.19,2.44,1.23,3,2,.58.78,1.32,1.8,1,3-.25.95-1.07,1.96-2,2-.76.03-1.5-.98-3-3-.9-1.21-1.03-1.58-1-2Z"/>
      <circle class="cls-5" cx="89.96" cy="88.49" r="2"/>
      <path class="cls-5" d="M120.96,96.49c-1.04.57-1.66,2.12-1,3,.61.81,2.16.84,3,0,.84-.84.82-2.38,0-3-.6-.45-1.47-.29-2,0Z"/>
      <circle class="cls-5" cx="126.96" cy="85.49" r="1.41"/>
      <path class="cls-5" d="M121.96,110.49c.53-.54,1.56-.47,2,0,.76.82-.23,2.95-1,3-.51.03-.92-.84-1-1-.1-.21-.64-1.34,0-2Z"/>
      <path d="M42.06,91.57c-4.93,5.31-4.58,15.48,2.49,18.76,4.06,1.82,8.95.8,12.42-1.85-3.45,2.68-8.37,3.73-12.46,1.93-5.63-2.51-7.27-9.9-4.96-15.26.58-1.36,1.37-2.62,2.32-3.76l.19.16h0Z"/>
      <circle class="cls-2" cx="37.27" cy="67.82" r="14.83"/>
      <circle class="cls-2" cx="91.5" cy="67.68" r="16.96"/>
      <circle class="cls-7" cx="37.71" cy="67.49" r="11.41"/>
      <circle class="cls-7" cx="91.44" cy="67.32" r="13.06"/>
      <circle cx="36.87" cy="67.62" r="6.92"/>
      <circle cx="91.96" cy="67.46" r="7.92"/>
      <circle class="cls-2" cx="44.25" cy="60.76" r="4.67"/>
      <circle class="cls-2" cx="98.23" cy="59.61" r="5.35"/>
      <path class="cls-5" d="M54.46,85.99c-.35,2.02-5.1,3.17-6,2-.53-.68.23-2.19,1-3,.95-1,2.77-1.8,4-1,.61.4,1.13,1.23,1,2Z"/>
      <path class="cls-5" d="M63.98,81.88c1.74-.84,1.96-.99,2.28-.85.74.32,1.21,1.86.76,2.54-.79,1.21-4.57-.13-4.56-.85,0-.14.15-.19,1.52-.85Z"/>
      <path class="cls-5" d="M75.63,88.95c.95-.74.77-2.62,0-3-.58-.29-1.57.26-2,1-.28.48-.56,1.43,0,2,.53.53,1.48.41,2,0Z"/>
      <path class="cls-5" d="M61.25,91.59c.82-.27,1.27-1.18,1-2s-1.18-1.27-2-1-1.27,1.18-1,2,1.18,1.27,2,1Z"/>
    </g>
  </g>
</svg>