<?xml version="1.0" encoding="UTF-8"?>
<svg id="Layer_2" data-name="Layer 2" xmlns="http://www.w3.org/2000/svg" viewBox="0 0 354 319.74">
  <defs>
    <style>
      .cls-1 {
        fill: #44270f;
      }

      .cls-2 {
        stroke: #000;
        stroke-miterlimit: 10;
        stroke-width: .75px;
      }

      .cls-2, .cls-3 {
        fill: none;
      }

      .cls-4 {
        fill: #fbaa2a;
      }

      .cls-5 {
        fill: #fff;
      }

      .cls-6 {
        fill: #ee7423;
      }

      .cls-7 {
        fill: #cc5e15;
      }

      .cls-8 {
        fill: #da6617;
      }

      .cls-9 {
        fill: #333;
      }

      .cls-10 {
        fill: #e79420;
      }

      .cls-11 {
        fill: #b95227;
      }

      .cls-12 {
        fill: #ffcb8d;
      }

      .cls-13 {
        fill: #ffdfa7;
      }
    </style>
  </defs>
  <g id="Layer_1-2" data-name="Layer 1">
    <g>
      <path class="cls-4" d="M210,204c-2.49,5.77,1.42,12.54,4,17,7.34,12.71,15.12,11.29,21,22,5.36,9.77,3.87,20.04,3,26-.28,1.9-3,20.62-11,22-4.05.7-6.56-3.54-11-2-3.82,1.32-5.49,5.68-6,7-.4,1.05-2.41,6.27,0,10,1.84,2.84,5.92,3.27,14,4,9.96.9,15.04,1.29,20-2,2.76-1.83,4.31-4.01,5-5,3.74-5.37,3.47-10.63,4-16,.92-9.33,3.94-16.03,8-25,5.05-11.17,7.37-10,10-17,4.22-11.22,3.99-29.48-8-41-11.08-10.65-25.91-9.48-32-9-5.43.43-17.72,1.39-21,9Z"/>
      <path class="cls-10" d="M209.5,209.5c.98-1.26,2.9-3.39,6-5,2.84-1.48,5.45-1.88,7-2,4.34,7.02,8.96,12.2,13,16,13.09,12.31,24.44,14.26,28,25,.99,2.98,1.56,7.22,0,13,1.33-2,2.67-4,4-6s2.67-4,4-6c-.62-.98-1.6-2.43-3-4-3.53-3.98-7.2-5.98-9-7-1.11-.63-9.45-5.39-16-11-3.68-3.15-6.45-6.43-12-13-3.43-4.07-6.15-7.55-8-10-11.26,2.08-13.92,3.77-14,5,0,.07,0,.16,0,2,0,1.28,0,2.32,0,3Z"/>
      <path class="cls-4" d="M122,91c17.66,1.78,21.39,19.42,48,23,10.78,1.45,20.03-.12,37-3,27.42-4.65,28.43-9.53,40-8,18.85,2.49,33.98,17.8,41,32,5.11,10.33,5.45,19.1,6,33,1.28,32.52-9.58,45.5,0,62,3.65,6.3,7.17,7.75,9,15,2.26,8.98-1.37,13.73-5,28-6.18,24.3-1.54,33.76-10,40-3.74,2.76-7.75,3.2-15,4-7.93.87-17.84,1.97-22-4-2.96-4.25-2.55-11.43,1-15,4-4.02,9.14-.6,15-4,6.5-3.77,7.93-12.45,9-19,.55-3.37,3.1-18.89-6-32-5.44-7.84-10.34-8.05-21-16-6.78-5.05-16.06-13.37-25-27-3.24.63-8.21,1.8-14,4-14.8,5.63-20.06,12.39-29,17-9.74,5.03-19.83,4.35-40,3-22.2-1.49-35.99-2.41-51-11-5.57-3.19-28.56-16.35-34-40-9.06-39.41,35.9-85.04,66-82Z"/>
      <path class="cls-4" d="M61,187c-1.63,2.33-1.25,4.66,5,26,3.89,13.27,7.27,26.69,11,40,4.17,14.89,6.35,23.08,2,28-1.83,2.07-2.89,1.38-9,6-8.16,6.17-9.63,9.95-10,11-.52,1.46-2.04,5.76,0,9,1.61,2.57,4.7,3.26,10,4,14.41,2.01,21.61,3.01,25,0,4.95-4.39,4.99-13.07,5-15,.02-4.84-1.44-7.36,0-12,1.07-3.45,2.56-4.23,4-7,3.28-6.3.73-12.14,0-19-.38-3.58-.03-5.22,5-25,7.38-29.01,7.73-29.8,7-32-5.81-17.62-47.15-25.25-55-14Z"/>
      <path class="cls-10" d="M116.5,194.5c.77,7.33.93,18.45-3,31-1.72,5.49-3.88,10.16-6,14-.35-1.41-.99-3.77-2.05-6.58-4.8-12.65-11.29-16.07-14-25-1-3.31-1.86-8.58,0-16"/>
      <path class="cls-6" d="M330,268c6.05,1.58,9.46,6.24,10,7,2.74,3.86,1.71,5.54,4,9,2.09,3.16,5.42,5.49,10,7-2.1.82-10.28,3.72-19,0-2.55-1.09-9.59-4.63-12-12-1.04-3.17-1.86-9.01,1-11,1.63-1.14,3.82-.57,6,0Z"/>
      <path class="cls-4" d="M149,182c-.94,2.9-2.08,7.44-2,13,.16,10.38,4.44,13.99,5,22,.61,8.69-4.13,8.79-9,24-2.19,6.83-6.32,19.74-6,35,.1,4.56.61,10.22-3,15-2.89,3.83-5.39,3.07-8,7-3.78,5.7-.48,10.25-4,15-2.33,3.15-5.9,4.01-10,5-6.71,1.62-20.12,2.43-24-5-2.29-4.38-.19-9.55,0-10,1.18-2.79,3-4.09,8-8,6.18-4.84,9.27-7.26,10-8,1.34-1.37,4.89-5.5,5-27,.07-14.33.11-21.5-2-27-4.44-11.57-11.32-13.47-14-25-1.51-6.5-.8-12.25,0-16"/>
      <path class="cls-3" d="M224,200c-1.8-3.32-3.72-7.68-5-13-2.56-10.66-1.22-19.75,0-25"/>
      <path class="cls-7" d="M25.61,71.64c-2.1,1.07-4.91,2.89-7,6-3.54,5.27-1.93,9.62-5,14-1.57,2.24-4.59,4.82-11,6,1.57.2,3.62.3,6,0,2.98-.38,5.36-1.25,7-2-1.66,1.49-3.67,3.78-5,7-4.11,9.99,2.22,19.84,3,21,.1,2.48.48,6.44,2,11,2.19,6.55,4.84,8.68,6,14,.61,2.79.94,7.13-1,13,2-2.33,4-4.67,6-7-.1,2.94.14,7.3,2,12,3.69,9.31,10.42,11.47,13,20,.86,2.83,1.49,7.11,0,13,1.37-.51,3.81-1.62,6-4,3.25-3.53,3.85-7.56,4-9,1.04,6.49,3.53,10.46,6,13,3.15,3.23,5.8,3.65,10,7,4.29,3.43,7.11,7.46,9,11,.33-6,.67-12,1-18,.76,2.35,2.2,5.71,5,9,5.78,6.77,13.36,8.52,16,9-1.81-3.45-3.59-8.33-2-13,1.78-5.23,6.46-6.28,10-11,2.73-3.63,5.06-9.83,3-21,1.6,1.91,4.89,6.36,6,13,.99,5.9-.23,10.66-1,13,3.36-2.4,8.18-6.53,12-13,7.86-13.32,5.79-26.91,5-31,1.5,3.27,3.25,8.04,4,14,.6,4.75.39,8.87,0,12,2.48-2.76,8.26-9.96,10-21,1.93-12.31-2.36-21.78-4-25,.59,1.48,2.95,6.87,9,10,4.76,2.47,9.23,2.2,11,2-2.47-2.45-5.75-6.45-7-12-1.78-7.86,1.94-12.43,0-20-.79-3.08-2.71-7.42-8-12-.26-.22,4.13,3.31,8,8,3.25,3.94,5.53,7.5,7,10,.69-1.77,3.61-9.79,0-19-3.63-9.28-11.3-13.18-13-14,3.04-.21,6.81-.75,11-2,5.57-1.67,9.93-4.02,13-6-10.4,1.15-15.38-1.47-18-4-3.62-3.49-3.45-7.49-8-12-3.71-3.68-8.09-5.25-11-6,1.06.43,6.27,2.43,12,0,4.07-1.73,6.22-4.76,7-6-5.67,1.65-9.53.95-12,0-4.27-1.64-5.89-4.58-12-10-3.63-3.22-6.85-5.54-9-7,.18-5.84-2.01-8.86-3-10-3.32-3.84-8.44-4.31-16-5-4.99-.46-9.14-.26-12,0,1.24-1.62,2.77-3.95,4-7,1.26-3.13,1.78-5.94,2-8-1.76,1.91-4.71,4.72-9,7-5.28,2.81-8.52,2.65-14,5-3.01,1.29-7.33,3.59-12,8,.84-3.22,2.31-7.47,5-12,1.99-3.35,4.13-5.99,6-8-3.33,1.25-7.06,2.88-11,5-4.29,2.31-7.95,4.73-11,7-2.19.72-5.61,2.14-9,5-1.94,1.63-6.8,5.74-8,12-1.99,10.33,7.51,18.59,8,19-1.82.49-6.88,2.1-11,7-4.11,4.88-4.83,10.12-5,12Z"/>
      <path class="cls-4" d="M271,114c6.61.64,16.88,2.42,28,8,28.73,14.41,38.57,41.82,40,46,1.25,3.66,9.55,29.05,0,54-3.1,8.1-7.08,13.51-9,25-1.93,11.54-.5,21.46,1,28-3.84-3.29-9.22-8.93-11-17-2.67-12.09,5.05-19.05,10-37,2.28-8.25,6.39-23.17,2-40-5.19-19.91-19.51-31.9-25-36-7.19-5.37-14.14-8.34-19-10-2.11-3.85-5.02-8.37-9-13-2.74-3.19-5.48-5.83-8-8Z"/>
      <path class="cls-4" d="M23,67c-2.76-.75-4.18-3.83-7-10-2.99-6.53-5.21-11.38-3-16,1.48-3.09,4.64-5.44,8-6,4.03-.67,7.18,1.44,11,4,3.92,2.62,6.98,4.67,8,8,2.66,8.69-9.95,21.91-17,20Z"/>
      <path class="cls-11" d="M25,61c-3.55-.56-5.5-5.16-6-8-.07-.41-1.02-6.21,2-8,1.79-1.06,4.04-.17,7,1,3,1.18,5.25,2.07,6,4,1.59,4.08-3.98,11.8-9,11Z"/>
      <path class="cls-6" d="M23,67c-2.1,1.07-4.91,2.89-7,6-3.54,5.27-1.93,9.62-5,14-1.57,2.24-4.59,4.82-11,6,1.57.2,3.62.3,6,0,2.98-.38,5.36-1.25,7-2-1.66,1.49-3.67,3.78-5,7-4.11,9.99,2.22,19.84,3,21,.1,2.48.48,6.44,2,11,2.19,6.55,4.84,8.68,6,14,.61,2.79.94,7.13-1,13,2-2.33,4-4.67,6-7-.1,2.94.14,7.3,2,12,3.69,9.31,10.42,11.47,13,20,.86,2.83,1.49,7.11,0,13,1.37-.51,3.81-1.62,6-4,3.25-3.53,3.85-7.56,4-9,1.04,6.49,3.53,10.46,6,13,3.15,3.23,5.8,3.65,10,7,4.29,3.43,7.11,7.46,9,11,.33-6,.67-12,1-18,.76,2.35,2.2,5.71,5,9,5.78,6.77,13.36,8.52,16,9-1.81-3.45-3.59-8.33-2-13,1.78-5.23,6.46-6.28,10-11,2.73-3.63,5.06-9.83,3-21,1.6,1.91,4.89,6.36,6,13,.99,5.9-.23,10.66-1,13,3.36-2.4,8.18-6.53,12-13,7.86-13.32,5.79-26.91,5-31,1.5,3.27,3.25,8.04,4,14,.6,4.75.39,8.87,0,12,2.48-2.76,8.26-9.96,10-21,1.93-12.31-2.36-21.78-4-25,.59,1.48,2.95,6.87,9,10,4.76,2.47,9.23,2.2,11,2-2.47-2.45-5.75-6.45-7-12-1.78-7.86,1.94-12.43,0-20-.79-3.08-2.71-7.42-8-12-.26-.22,4.13,3.31,8,8,3.25,3.94,5.53,7.5,7,10,.69-1.77,3.61-9.79,0-19-3.63-9.28-11.3-13.18-13-14,3.04-.21,6.81-.75,11-2,5.57-1.67,9.93-4.02,13-6-10.4,1.15-15.38-1.47-18-4-3.62-3.49-3.45-7.49-8-12-3.71-3.68-8.09-5.25-11-6,1.06.43,6.27,2.43,12,0,4.07-1.73,6.22-4.76,7-6-5.67,1.65-9.53.95-12,0-4.27-1.64-5.89-4.58-12-10-3.63-3.22-6.85-5.54-9-7,.18-5.84-2.01-8.86-3-10-3.32-3.84-8.44-4.31-16-5-4.99-.46-9.14-.26-12,0,1.24-1.62,2.77-3.95,4-7,1.26-3.13,1.78-5.94,2-8-1.76,1.91-4.71,4.72-9,7-5.28,2.81-8.52,2.65-14,5-3.01,1.29-7.33,3.59-12,8,.84-3.22,2.31-7.47,5-12,1.99-3.35,4.13-5.99,6-8-3.33,1.25-7.06,2.88-11,5-4.29,2.31-7.95,4.73-11,7-2.19.72-5.61,2.14-9,5-1.94,1.63-6.8,5.74-8,12-1.99,10.33,7.51,18.59,8,19-1.82.49-6.88,2.1-11,7-4.11,4.88-4.83,10.12-5,12Z"/>
      <path class="cls-4" d="M75,48c2.04-2.08,5.35-5.14,10-8,6.18-3.81,10.51-6.47,15-5,4.87,1.6,7.38,7.23,8,11,.69,4.2-.73,7.59-3,13-1.74,4.14-2.6,6.21-4,7-6.76,3.82-24.17-15.9-26-18Z"/>
      <path class="cls-11" d="M84,51c.27-1.19,2.18-2.46,6-5,5.04-3.35,6.28-3.24,7-3,1.77.6,2.52,2.67,3,4,1.63,4.5-.38,8.7-1,10-1.01,2.11-1.64,3.42-3,4-4.42,1.88-13.05-5.46-12-10Z"/>
      <path class="cls-4" d="M55,48c-2.02-.93-5.98-2.41-11-2-8.91.73-14.35,6.9-16,9-.88,1.12-4.28,5.66-5,12-.34,3.03.23,3.81,0,8-.3,5.47-1.52,8.66-2,11-.87,4.22-.36,10.62,6,20-.17,1.62-.26,4.61,1,8,1.65,4.45,4.67,7,6,8-.64,1.48-2.24,5.75-1,11,1.62,6.88,6.9,10.32,8,11-.36-.64-.83-1.66-1-3-.1-.78-.07-1.46,0-2,3.33,2.67,6.67,5.33,10,8,1.67-3,3.33-6,5-9,.67,1.11,1.38,2.44,2,4,.43,1.07.75,2.08,1,3,.69-1.41,1.4-3.08,2-5,.45-1.43.77-2.78,1-4,.59.64,1.37,1.63,2,3,.73,1.61.94,3.06,1,4,1.61-1.63,4.45-4.95,6-10,1.14-3.7,1.16-6.93,1-9,1.03.33,3.81,1.08,7,0,4.96-1.67,6.76-6.34,7-7,.83.6,1.96,1.57,3,3,1.11,1.53,1.69,2.99,2,4,1.37-1.64,3.83-5.02,5-10,1.14-4.88.49-8.93,0-11,2.53-.3,4.94.92,6,3,1.19,2.34.14,4.69,0,5v-17c2.33,2.67,4.67,5.33,7,8,.64-2.37,1.71-7.66,0-14-1.91-7.08-6.19-11.37-8-13,3,1.33,6,2.67,9,4-1.96-4.1-5.08-9.52-10-15-4.61-5.13-13.18-14.68-27-17-3.68-.62-9.63-1.04-17,1Z"/>
      <path d="M41,79c-3.83,4.21-6.69,9.22-8.38,14.63-1.57,5.68,7.19,8.34,11.47,9.01,5.44.8,11.57.23,15.96-3.32,5.11-3.73,4.19-10.2-.05-14.32,5.37,4.09,6.39,10.75.68,15.1-4.66,3.75-11.02,4.36-16.74,3.53-4.96-.8-14.02-3.71-12.28-10.27,1.6-5.6,4.78-10.74,9.34-14.36h0Z"/>
      <path class="cls-1" d="M33,99c.55-1.41,4.82-.19,13,0,10.86.26,16.44-1.58,17,0,.37,1.07-2.42,3.05-8,7-5.35,3.79-6.8,4.06-8,4-1.91-.09-3.64-1.4-7-4-4.77-3.69-7.47-5.79-7-7Z"/>
      <path class="cls-2" d="M47,110v8"/>
      <path class="cls-2" d="M34,122c4.33-1.67,8.67-3.33,13-5,7.33,2,14.67,4,22,6"/>
      <path d="M68.91,122.77c3.06-1.21,6.14-3.22,7.19-6.49.36-1.05.4-2.18.41-3.31-.04-2.27.35-4.58,1.37-6.62.99-2.05,2.45-3.84,4.13-5.35-1.65,1.54-3.08,3.35-4.02,5.4-.97,2.05-1.31,4.31-1.24,6.57.14,2.28-.46,4.67-2.02,6.41-1.5,1.77-3.54,2.96-5.64,3.85l-.19-.46h0Z"/>
      <path class="cls-3" d="M33,99c-.87.37-2.55,1.22-4,3-1.26,1.55-1.78,3.11-2,4"/>
      <g>
        <path class="cls-6" d="M47,39c2.67,4,5.33,8,8,12,2.67-3.67,5.33-7.33,8-11"/>
        <path class="cls-8" d="M47,39c2.94,3.71,5.79,7.79,8.41,11.72,0,0-.82-.02-.82-.02,2.69-3.66,5.43-7.27,8.4-10.71-2.48,4.09-5.22,8-8.02,11.87-2.77-4.14-5.57-8.51-7.98-12.87h0Z"/>
      </g>
      <path class="cls-3" d="M41,31c-.38-1.77-.74-4.64,0-8,1.37-6.22,5.55-9.85,7-11"/>
      <path class="cls-3" d="M59,26c-.25-.34-1-1.42-1-3,0-.42.05-1.74,1-3"/>
      <path class="cls-13" d="M79,281c-3.58,2.03-6.57,4.11-9,6-5.51,4.29-8.54,6.7-10,11-.51,1.52-1.92,5.66,0,9,.73,1.27,2.63,3.6,15,5,11.12,1.26,16.68,1.88,20-1,3.69-3.2,4.29-8.62,5-15,.45-4.08.27-7.54,0-10"/>
      <path class="cls-3" d="M77,25c3.67-3.33,7.33-6.67,11-10"/>
      <path class="cls-3" d="M97,31c1.94-1.06,5.4-2.63,10-3,5.56-.45,9.88,1.08,12,2"/>
      <path class="cls-3" d="M137,54c-2.14-.45-4.5-1.09-7-2-5.5-2.01-9.83-4.66-13-7"/>
      <path class="cls-3" d="M146,83c-1.68-1.65-3.66-3.36-6-5-7.02-4.93-14.05-7.04-19-8"/>
      <path class="cls-3" d="M144,98c-1.31-1.61-4.54-5.13-10-7-4.27-1.46-7.99-1.26-10-1"/>
      <path class="cls-3" d="M140,131c-3.04-2.06-6.48-4.69-10-8-3.72-3.5-6.68-6.95-9-10"/>
      <path class="cls-3" d="M107,168c-.17-1.01-.74-3.66-3-6-1.89-1.96-4-2.71-5-3"/>
      <path class="cls-3" d="M75,194c-1.44-2.41-3.06-5.78-4-10-2.13-9.59.58-17.57,2-21"/>
      <path class="cls-3" d="M49,182c-.7-2.33-1.54-6.22-1-11,.71-6.37,3.49-10.88,5-13"/>
      <path class="cls-3" d="M24,150c1.26-1.68,2.76-4.01,4-7,1.1-2.66,1.68-5.08,2-7"/>
      <path class="cls-3" d="M11,119c.05-1.31.28-3.06,1-5,1.36-3.65,3.71-5.92,5-7"/>
      <path class="cls-12" d="M62.5,308.99c.22-5.5,3.05-10.8,7.5-13.99-4.15,3.39-6.62,8.68-6.5,14.01,0,0-1-.01-1-.01h0Z"/>
      <path class="cls-12" d="M72.51,311.1c-.83-4.98.5-10.2,3.49-14.1-2.72,4.1-3.61,9.25-2.51,13.9l-.98.19h0Z"/>
      <path class="cls-13" d="M126,298c-.58.85-1.39,2.21-2,4-1.42,4.22-.22,6.48-1,9-1.3,4.18-7.04,5.85-11,7-3.69,1.07-14.48,4.18-21-2-.29-.28-4.64-4.52-4-10,.16-1.37.74-3.77,6-9,2.74-2.72,6.98-6.44,13-10"/>
      <path class="cls-12" d="M87.51,312.9c1.24-5.45,4.31-10.38,8.49-13.9-3.96,3.78-6.64,8.8-7.51,14.1l-.98-.2h0Z"/>
      <path class="cls-12" d="M95.5,318.06c-.49-5.23,1.6-10.59,5.5-14.06-3.58,3.63-5.3,8.94-4.5,13.94,0,0-.99.12-.99.12h0Z"/>
      <path class="cls-13" d="M253,287c.04,1.93-.1,4.76-1,8-.69,2.48-2.52,9.11-8,13-4.32,3.06-9.54,2.71-20,2-7.95-.54-11.97-.87-14-4-2.41-3.73-.4-8.95,0-10,.56-1.46,2.25-5.84,6-7,4.22-1.3,6.8,2.78,11,2,2.32-.43,5.27-2.38,8-9"/>
      <path class="cls-12" d="M105.5,319.01c.03-4.58,1.26-9.11,3.5-13.01-1.95,4.06-2.8,8.58-2.5,12.99l-1,.03h0Z"/>
      <path class="cls-12" d="M218.52,310.13c-1.65-6.45,1.83-13.52,8.48-15.13-1.5.49-2.9,1.25-4.09,2.26-3.67,2.97-4.73,8.24-3.43,12.61,0,0-.96.27-.96.27h0Z"/>
      <path class="cls-12" d="M211.55,308.21c-2.41-5.34.76-11.92,6.45-13.21-5.33,1.54-8.11,7.9-5.55,12.79,0,0-.9.43-.9.43h0Z"/>
      <path class="cls-13" d="M294,295c.36,1.95.72,5.16,0,9-.51,2.72-1.21,6.43-4,9-1.85,1.7-3.69,2.04-10,3-9.62,1.46-14.47,2.19-16,2-4.27-.53-11.32-1.42-14-7-2.55-5.31-.19-12.86,4-15,3.36-1.72,6.22.9,11-1,2.93-1.16,4.84-3.34,6-5"/>
      <path class="cls-12" d="M263.54,318.19c-2.68-6.6.78-14.7,7.46-17.19-6.3,2.7-9.42,10.58-6.54,16.81,0,0-.92.38-.92.38h0Z"/>
      <path class="cls-12" d="M256.51,317.1c-1.11-5.88,1.09-12.13,5.49-16.1-4.08,4.12-5.9,10.29-4.51,15.9,0,0-.98.2-.98.2h0Z"/>
      <path class="cls-3" d="M251,313c-.2-.62-1.51-4.84,1-9,2.36-3.92,6.32-4.85,7-5"/>
      <path class="cls-13" d="M218,184c-4.65-2.75-11.99-6.14-21-6-8.5.13-12.55,3.31-22,5-5.82,1.04-14.58,1.68-26-1-5.2,12.22-4.12,19.01-2,23,1.04,1.95,2.76,4.62,4,9,.87,3.09.87,6.42,0,10,10.31,2.48,17.92,1.44,23,0,13.53-3.84,18.27-13.12,36-20,5.74-2.23,10.7-3.38,14-4-2-5.33-4-10.67-6-16Z"/>
      <circle class="cls-5" cx="33.28" cy="75.91" r="8.15"/>
      <circle class="cls-5" cx="66.68" cy="76.68" r="8.82"/>
      <circle class="cls-9" cx="31.4" cy="76.79" r="6.27"/>
      <circle class="cls-9" cx="64.27" cy="77.68" r="6.79"/>
      <circle cx="29.88" cy="77.92" r="3.8"/>
      <circle cx="63.34" cy="78.95" r="4.12"/>
      <circle class="cls-5" cx="32.87" cy="74.15" r="2.57"/>
      <circle class="cls-5" cx="66.6" cy="74.87" r="2.78"/>
    </g>
  </g>
</svg>