<?xml version="1.0" encoding="UTF-8"?>
<svg id="Layer_2" data-name="Layer 2" xmlns="http://www.w3.org/2000/svg" viewBox="0 0 151.55 172.72">
  <defs>
    <style>
      .cls-1 {
        fill: #43220b;
      }

      .cls-2 {
        stroke: #000;
      }

      .cls-2, .cls-3 {
        stroke-miterlimit: 10;
      }

      .cls-2, .cls-4 {
        fill: none;
      }

      .cls-3 {
        stroke: #ebddcc;
        stroke-width: .5px;
      }

      .cls-3, .cls-5 {
        fill: #ffeed8;
      }

      .cls-6 {
        fill: #fff;
      }

      .cls-7 {
        fill: #ebddcc;
      }

      .cls-8 {
        fill: #592e0f;
      }

      .cls-9 {
        fill: #ebdac4;
      }

      .cls-10 {
        fill: #e3d4c8;
      }

      .cls-11 {
        fill: #432407;
      }

      .cls-12 {
        fill: #333;
      }

      .cls-13 {
        fill: #452007;
      }

      .cls-14 {
        fill: #bfb3a2;
      }

      .cls-15 {
        fill: #a94624;
      }
    </style>
  </defs>
  <g id="Layer_1-2" data-name="Layer 1">
    <g>
      <path class="cls-5" d="M26.2,122.36c1,1.81,1.99,4.25,1,6-.53.94-1.24.98-3,2-2.42,1.41-4.1,3.09-7,6-1.87,1.87-2.55,2.81-4,3-.21.03-2.29.28-3-1-.44-.8-.11-1.73,0-2-.16.15-1.35,1.23-3,1-1.11-.15-1.81-.81-2-1-.21-.21-.84-.9-1-2-.51.16-.84.06-1,0-.8-.32-1.29-1.54-1-3-.37-.18-.86-.49-1-1-.31-1.13,1.36-2.37,3-4,1.06-1.05,2.52-2.67,4-5,.55.82,1.49,2.02,3,3,4.14,2.69,8.84,1.37,10,1,2.27-.73,3.93-1.98,5-3Z"/>
      <path class="cls-10" d="M7.7,122.86c1,1.52,2.1,2.44,3,3,4.22,2.66,10.45,1.74,16-2-.33-.67-.67-1.33-1-2-1.05.65-5.49,3.24-11,2-2.88-.65-4.9-2.08-6-3-.33.67-.67,1.33-1,2Z"/>
      <path class="cls-5" d="M89.2,52.36c-.26-.7-.82-1.92-2-3-2.44-2.24-5.51-2.04-6-2-4.34.36-6.6,4.26-7,5-.22.4-2.57,4.7-1,7,1.74,2.55,8.06,2.31,15.5-1.5"/>
      <path class="cls-8" d="M71.2,60.36c1.09-5.08,2.2-9.22,3-12-1.62.28-4.08.5-7,0-2.59-.44-4.62-1.29-6-2-2.31,3.38-4.98,8.06-7,14-3.06,8.99-3.28,16.91-3,22-1.87.49-3.88,1.13-6,2-5.64,2.31-9.94,5.37-13,8-1.44-1.13-3.84-2.63-7-3-8.61-1.01-14.82,7.33-16,9-3.78,5.39-5.22,12.72-3,19,.63,1.78,1.77,4.99,5,7,4,2.48,8.9,1.69,12,0,1.26-.69,3.35-1.83,4-4,.71-2.37-.77-4.44,0-5,.72-.52,2.67.78,4,2,4.36,3.99,4.97,9.72,5,10,.22,2.37-.85,5.94-3,13-1.89,6.19-2.54,7.59-2,10,.93,4.17,4.33,6.54,5,7,.7.49,4.98,3.35,10,2,2.76-.74,4.43-2.41,6-4,3.59-3.65,4.93-7.67,6-11,.97-3.02,2.13-7.84,2-14,2.67-2.67,5.33-5.33,8-8,.46,2.05,1.32,4.9,3,8,3.45,6.36,8.21,9.81,10,11,1.84,1.23,6.87,4.29,14,5,2.44.24,4.5.15,6,0-.85-1.7-.99-3.18-1-4-.06-3.88,2.44-6.46,3-7,1.11-1.08,2.25-1.68,3-2-.97-.47-2.35-1.15-4-2-3.9-2.01-6.32-3.26-9-5-4.18-2.72-6.95-4.55-9-8-1.3-2.18-1.76-4.07-2-5-4.12-15.94-14.7-26.33-13-42,.37-3.36,1.46-8.49,2-11Z"/>
      <path class="cls-13" d="M79.7,62.86c-1.18-.55-5.57-2.43-9.89-.52-.52.23-1.87.9-3.22,2.29-4.93,5.07-3.13,18.16-2.86,20.05.51,3.72,1.46,10.14,5.73,17.19,1.84,3.04,4.74,7.71,10.5,11.46,1.89,1.23,6.58,4.2,13.37,4.77,9.08.76,15.76-3.28,18.14-4.77,6.74-4.22,9.98-9.8,11.46-12.41,1.56-2.76,4.86-8.61,4.77-16.23-.02-2.19,2.18-16.67-1.91-18.14-2.62-.95-6.53,3.89-7.09,3.32-.64-.65,4.71-6.68,4.22-7.14-.21-.2-1.45.72-2.86,1.91-.3-2.5-1.31-4.03-1.91-4.77-.47-.58-1.84-2.29-2.86-1.91-.76.29-.92,1.58-.95,1.91-.89-1.22-1.87-2.15-2.86-2.86-10.75-7.7-30.43,4.99-31.77,5.87Z"/>
      <path class="cls-8" d="M77.2,59.36c-.89-.19-2.33-.38-4,0,0,0-2.67.6-5,3-5.16,5.31-3.27,19.02-3,21,.54,3.89,1.53,10.62,6,18,1.92,3.18,4.96,8.07,11,12,1.98,1.29,6.89,4.4,14,5,9.51.8,16.5-3.44,19-5,7.06-4.41,10.45-10.26,12-13,1.63-2.89,5.09-9.01,5-17-.09-8.11-3.78-13.02-2-19,.22-.73,1-3.11,0-4-.78-.69-2.35-.2-3,0-1.55.48-2.53,1.46-3,2-.32-2.62-1.37-4.22-2-5-.49-.61-1.93-2.4-3-2-.79.3-.96,1.65-1,2-.65-.82-1.63-1.92-3-3-3.84-3.03-7.88-3.68-10-4-6.29-.94-11.26.74-15,2-3.2,1.08-7.96,3.1-13,7Z"/>
      <path class="cls-5" d="M79.2,62.36c-1.04-.41-4.6-1.65-8,0-.81.4-2.46,1.37-4,4-4.56,7.81-1.73,19.28-1,22,1.23,4.56,3.25,12.02,10,18,2.56,2.26,9.69,8.57,16,6,3.61-1.47,5.32-5.18,6-7,1.67.02,4.16-.12,7-1,2.72-.85,8.38-2.61,11-8,2.64-5.42.45-10.93,0-12-3.59-8.48-13.43-9.93-14-10,.93-.53,2.75-1.74,4-4,1.71-3.09,1.7-7,0-10-1.99-3.51-5.62-4.59-7-5-9.6-2.86-19.11,6.14-20,7Z"/>
      <path class="cls-14" d="M86.2,54.36c-.09-.4-.49-2.02-2-3-1.72-1.12-3.8-.7-5,0-2.22,1.3-3.23,4.65-2,8"/>
      <path class="cls-5" d="M108.2,109.36c.87.19,2.48.68,4,2,.5.44,3.04,2.65,3,6-.05,4.5-4.71,6.86-5,7-3.78,1.84-7.42.26-8,0-3.41-1.54-5.67-5.01-6-9,1.53-.1,4.15-.48,7-2,2.43-1.3,4.06-2.9,5-4Z"/>
      <path class="cls-14" d="M105.2,112.36c.37-.06,2.29-.31,4,1,.29.22,2.14,1.69,2,4-.16,2.65-2.78,3.9-3,4-2.08.95-4.46.34-6-1-2.18-1.89-2.02-4.67-2-5,1.25.94,2.92.91,4,0,.84-.71,1.21-1.86,1-3Z"/>
      <path class="cls-5" d="M29.2,90.36c-.85-.84-2.01-2.16-3-4-.64-1.19-2.49-4.98-2-9,.48-3.9,2.69-4.17,7-11,2.31-3.66,4.2-6.71,5-11,.55-2.94,1.33-7.1-1-11-2.91-4.87-8.88-6.32-13-6-1,.08-6.41.49-8,4-.07.16-1.02,2.33,0,4,.76,1.25,2.24,1.59,4,2,3.21.74,4.41-.08,6,1,1.39.94,1.85,2.49,2,3,.75,2.52-.34,4.9-2,8-3.32,6.18-4.18,6.34-6,10-1.76,3.54-3.68,7.39-3,12,.56,3.81,2.66,6.55,4,8,.93-.41,2.3-.87,4-1,2.73-.22,4.87.52,6,1Z"/>
      <path class="cls-5" d="M61.2,46.36c-.35-.66-.8-1.69-1-3-.24-1.62.41-2.45,0-4-.26-1.01-.67-1.32-1-2-1.11-2.29,0-5.94,2-8,2.74-2.83,6.89-2.37,10-2,2.99.36,5.88.71,8,3,3.35,3.62,2.84,10,0,14-1.61,2.28-3.73,3.44-5,4-1.62.28-4.08.5-7,0-2.59-.44-4.62-1.29-6-2Z"/>
      <path class="cls-2" d="M.2,27.36c12.18,5.47,33.3,12.89,60,12,49.14-1.65,81.79-30.3,91-39"/>
      <path class="cls-3" d="M60.2,38.36c0,1.1.9,2,2,2s2-.9,2-2c.34.25,1.42,1,3,1,.42,0,1.74-.05,3-1,.18.2.9.94,2,1,1.23.07,2.43-.72,3-2"/>
      <polygon class="cls-7" points="63.95 38.36 64.2 33.36 64.45 38.36 63.95 38.36 63.95 38.36"/>
      <polygon class="cls-7" points="69.95 38.36 70.2 33.36 70.45 38.36 69.95 38.36 69.95 38.36"/>
      <path class="cls-5" d="M106.2,133.36c.69-.42,1.26-.67,2-1,1.99-.89,3.43-1.53,4-1,.44.41.18,1.35,0,2-.43,1.57-1.45,2.55-2,3,.94.2,2.33.51,4,1,3.4.99,3.88,1.5,4,2,.2.84-.73,1.73-1,2-.76.75-1.65.94-2,1,.1.07,1,.77,1,2,0,.09-.02,1.28-1,2-.85.62-2.05.63-3,0,.07.17.46,1.13,0,2-.56,1.06-2.01,1.28-3,1-1.45-.41-1.95-1.86-2-2-.71.11-1.76.19-3,0-1.05-.16-2.22-.34-3-1-1.84-1.57-1.19-5.57,0-8,1.39-2.83,3.92-4.35,5-5Z"/>
      <path class="cls-5" d="M31.2,149.36c-.48.13-1.25.39-2,1-1.71,1.39-1.96,3.43-2,4-.1,1.26.27,2.19,1,4,1.02,2.52,1.45,2.52,2,4,1.35,3.66-.63,5.43,1,8,.24.38,1.49,2.24,3,2,1.27-.2,1.91-1.78,2-2,.15.33.71,1.44,2,2,.28.12,1.71.75,3,0,.52-.3.83-.73,1-1,.04.1.31.79,1,1,.71.22,1.58-.18,2-1,.39.15,1.28.42,2,0,.92-.54.97-1.89,1-3,.04-1.66-.35-2.66-1-5-.25-.91-.62-2.28-1-4-1.46.37-3.6.64-6,0-5.16-1.38-7.5-5.95-8-7-.57-1.2-.85-2.28-1-3Z"/>
      <path class="cls-7" d="M67.44,39.44c-.75,1.87.73,3.37,2.52,3.74,1.74.53,3.68.14,5.25-.81-.77.51-1.62.89-2.53,1.09-2.62.64-6.82-.8-5.71-4.16,0,0,.48.15.48.15h0Z"/>
      <path class="cls-4" d="M110.2,136.36c-.18.54-.48,1.25-1,2-.68.99-1.46,1.62-2,2"/>
      <path class="cls-9" d="M112.2,140.36c.39,2.36-1.61,4.86-4,5,2.15-.91,3.6-2.69,4-5h0Z"/>
      <path class="cls-15" d="M83.2,88.36c-1.02-1.57-.68-2.06-2-4-.85-1.25-1.29-1.88-2-2-1.51-.26-3.4,1.89-4,4-.96,3.37,1.49,6.37,2,7,.7.86,2.41,2.96,5,3,1.35.02,3.4-.52,4-2,.31-.77.12-1.52,0-2-.47-1.84-1.66-1.94-3-4Z"/>
      <path class="cls-1" d="M32.2,92.36c.73.8,1.88,2.31,2.5,4.5,1,3.54-.09,6.52-.5,7.5.33-.37,2.34-2.66,2-6-.4-3.92-3.69-5.83-4-6Z"/>
      <path class="cls-11" d="M68.13,122.26c2.22-1.48,4.57-2.96,7.07-3.9-2.47,1.01-4.76,2.56-6.93,4.1,0,0-.15-.2-.15-.2h0Z"/>
      <path class="cls-4" d="M27.2,116.36c.18-.54.48-1.25,1-2,.68-.99,1.46-1.62,2-2"/>
      <ellipse class="cls-5" cx="53.97" cy="108.58" rx="15" ry="12.44" transform="translate(-49.54 45.42) rotate(-32.18)"/>
      <path class="cls-9" d="M115.2,142.36c-1.1,0-2.11-.34-3-1,1.1,0,2.11.35,3,1h0Z"/>
      <path class="cls-9" d="M112.2,146.36c-.9-.42-1.58-1.09-2-2,.91.42,1.58,1.1,2,2h0Z"/>
      <circle class="cls-6" cx="88.77" cy="70.71" r="6.42"/>
      <circle class="cls-6" cx="97.45" cy="90.56" r="6.42"/>
      <circle class="cls-12" cx="88.98" cy="70.83" r="4.94"/>
      <circle class="cls-12" cx="97.57" cy="90.48" r="4.94"/>
      <circle cx="88.78" cy="70.52" r="3"/>
      <circle cx="97.6" cy="90.68" r="3"/>
      <circle class="cls-6" cx="92.78" cy="72.25" r="2.02"/>
      <circle class="cls-6" cx="101.27" cy="91.67" r="2.02"/>
      <path class="cls-10" d="M29.7,149.86c.31,1.32,1.3,4.77,4.5,7.5,4.98,4.24,11.14,3.16,12,3v-1c-1.16.14-5.07.45-9-2-4.37-2.73-5.71-6.97-6-8-.5.17-1,.33-1.5.5Z"/>
    </g>
  </g>
</svg>