<?xml version="1.0" encoding="UTF-8"?>
<svg id="Layer_2" data-name="Layer 2" xmlns="http://www.w3.org/2000/svg" viewBox="0 0 107.01 180.83">
  <defs>
    <style>
      .cls-1 {
        fill: #ffd697;
      }

      .cls-2 {
        fill: #fff;
      }

      .cls-3 {
        fill: none;
      }

      .cls-4 {
        fill: #faa51a;
      }

      .cls-5 {
        fill: #c96f26;
      }

      .cls-6 {
        fill: #333;
      }

      .cls-7 {
        fill: #dd8326;
      }

      .cls-8 {
        fill: #6b4f1f;
      }

      .cls-9 {
        fill: #4f3e16;
      }
    </style>
  </defs>
  <g id="Layer_1-2" data-name="Layer 1">
    <g>
      <path class="cls-8" d="M33.09,89.55c-1.54.05-4.38-.07-7.52-1.5-2.55-1.16-4.28-2.72-5.27-3.76-2.52,1.67-5.77,1.25-7.52-.75-1.38-1.58-1.67-3.95-.75-6.02-.89-.49-2.21-1.41-3.01-3.01-1.44-2.89-.56-6.81,2.26-9.78-.48-2.74-.89-6.98,0-12.04.96-5.47,3.03-9.58,4.51-12.04-1.31-.53-4.35-1.96-6.77-5.27-2.5-3.41-2.92-6.88-3.01-8.28-.43-.64-1.62-2.57-1.5-5.27.1-2.25,1.05-3.85,1.5-4.51-1.88-1.47-2.78-3.58-2.26-5.27.69-2.23,3.61-2.94,5.27-3.01,3.79-.16,5.64,2.86,10.53,6.02,2.28,1.47,5.71,3.29,10.53,4.51,4.23-1.97,9.81-4.04,16.55-5.27,11.78-2.13,21.69-.68,27.84.75,3.46-1.94,6.17-4.05,8.28-6.02C87.94,4.2,89.35.36,93.28.02c1.7-.14,4.39.32,5.27,2.26.69,1.53.08,3.63-1.5,5.27.59.29,2.15,1.17,3.01,3.01,1.56,3.32-.63,6.6-.75,6.77.39,1.04.72,2.31.75,3.76.15,5.8-4.37,9.77-5.27,10.53.54,1.06,1.33,2.62,2.26,4.51,4.12,8.44,4.87,11.03,5.27,12.79.28,1.22.61,3.02.75,5.27,3.89,4.14,4.95,9.13,3.01,12.04-.4.6-1.24,1.58-3.01,2.26,1.44,1.5,2.07,3.55,1.5,5.27-.83,2.5-4.15,4.16-7.52,3.01-.11.79-.51,2.87-2.26,4.51-2.09,1.97-5.29,2.53-8.28,1.5"/>
      <path class="cls-8" d="M12.78,83.53c-.97,1.01-2.34,2.53-3.76,4.51-3.01,4.19-6.55,10.83-8.28,26.33-1.67,15.01-.23,25.62,1.5,38.37,1.53,11.23,3.35,18.03,9.03,22.57,1.96,1.57,3.89,2.48,5.27,3.01.83.7,2.35,1.77,4.51,2.26,4.15.93,7.49-1.01,8.28-1.5,1.07-.09,2.65-.28,4.51-.75,9.54-2.42,14.13-9.11,19.56-14.29,10.58-10.1,14.1-4.68,26.33-15.05,9.65-8.18,14.35-17.4,16.55-21.82,3.8-7.64,7.44-14.95,6.77-24.83-.69-10.2-5.6-17.6-8.28-21.07"/>
      <path class="cls-1" d="M54.91,42.91c-.49-1.85-1.64-5.19-4.51-8.28-.68-.73-6.29-6.59-13.54-6.02-6.7.53-10.72,6.22-14.29,11.28-6.65,9.43-11.49,24.37-6.02,29.34,1.02.93,2.19,1.32,3.01,1.5-.93,1.37-.93,3.18,0,4.51.99,1.42,2.83,2.04,4.51,1.5.12.56.71,2.95,3.01,4.51,3.04,2.07,6.43.88,6.77.75.07.61.38,2.82,2.26,4.51,2.79,2.51,6.49,1.58,6.77,1.5,6.03,17.29,6.18,32.08-.75,36.86-.98.68-2.21,1.22-3.76,1.5-.11.91-2,15.27-12.04,18.81-1.33.47-3.08.84-5.27.75-.66,1.53-1.79,3.54-3.76,5.27-2.37,2.08-4.6,2.56-4.51,3.01.09.49,2.85.64,14.29-.75.22.21,1.97,1.83,4.51,1.5,2.31-.3,3.56-1.97,3.76-2.26.12.19,1.36,2.11,3.76,2.26,2.17.13,3.57-1.3,3.76-1.5.79.35,2.43.94,4.51.75,2.78-.24,4.63-1.7,5.27-2.26.25.33,1.52,1.96,3.76,2.26,3.12.41,5.17-2.13,5.27-2.26.61.79,1.58,1.78,3.01,2.26.88.29,3.45.89,9.03-3.01,5-3.5,7.94-7.5,9.03-9.03,2.11-2.98,6.47-9.24,9.03-18.81,1-3.72,3.02-11.61,1.5-21.82-1.27-8.57-4.49-15.01-6.77-18.81.34-.16,1.59-.79,2.26-2.26.82-1.82.12-3.49,0-3.76.14,0,2.6-.16,3.76-2.26.91-1.65.62-3.79-.75-5.27,1.49.2,2.96-.37,3.76-1.5,1.07-1.51.82-3.8-.75-5.27,1.17-.3,2.71-.9,3.76-2.26,3.06-3.92-.31-10.98-2.26-15.05-3.37-7.04-7.99-11.14-9.03-12.04-4.34-3.75-9.65-8.34-16.55-7.52-6.28.74-10.25,5.52-11.28,6.77-3.45,4.15-4.27,8.59-4.51,10.53Z"/>
      <path class="cls-7" d="M54.91,153.5c-.58.8-1.88,2.58-1.5,4.51.95,4.87,12.03,8.48,18.06,4.51.59-.39,3.16-2.08,3.76-5.27.05-.28.64-3.68-1.5-6.02-2.06-2.24-5.24-2-8.73-1.74-3.26.24-7.57.57-10.08,4Z"/>
      <ellipse class="cls-7" cx="34.97" cy="53.82" rx="16.32" ry="13.67" transform="translate(-22.45 82.48) rotate(-83.51)"/>
      <ellipse class="cls-7" cx="76.27" cy="49.13" rx="13.67" ry="16.32" transform="translate(-11.05 24.49) rotate(-17.03)"/>
      <g>
        <path class="cls-7" d="M60.93,158.76c.17,3.88,2.1,6.67,3.76,6.77,1.8.11,4.41-2.84,4.51-7.52"/>
        <path class="cls-5" d="M60.93,158.76c.77,4.35,3.69,9.55,6.98,3.4.65-1.27,1.05-2.68,1.29-4.15.15,1.48,0,3.04-.58,4.48-3.21,7.19-8.28,2.03-7.7-3.72h0Z"/>
      </g>
      <path class="cls-8" d="M45.13,87.29c3.07,1.36,6.84.52,9-2,0,0,.28.24.28.24,2.55,2.35,6.81,1.72,8.33-1.47,0,0,.33-.64.33-.64l.49.53c2.89,3.3,7.75,2.48,10.13-.97,1.11,1.27,2.81,2.03,4.51,1.74,1.57-.22,2.97-1.28,3.8-2.7-.64,1.52-2.03,2.75-3.71,3.15-1.69.41-3.54-.2-4.82-1.38l.55-.05c-2.56,3.85-8.14,4.45-11.2.87,0,0,.81-.11.81-.11-.46.87-1.08,1.6-1.85,2.19-2.33,1.85-5.83,1.41-7.88-.65,0,0,.51,0,.51,0-2.4,2.38-6.38,2.97-9.28,1.25h0Z"/>
      <path class="cls-8" d="M47.39,109.11c4.14.48,7.39-2.93,7.78-6.81,0,0,.46-4.25.46-4.25.38,2.61.35,6.45,2.52,8.32,3.76,3.82,9.69-.05,9.8-4.81,0,0,.31-4.2.31-4.2l.68,4.15c.46,3.1,3.31,5.9,6.54,5.6,3.21-.22,5.8-3.15,6.01-6.32,0,0,.35-3.94.35-3.94l.64,3.9c.43,3.62,4.51,7.14,8.09,5.16,1.11-.64,2.04-1.67,2.7-2.83-.5,1.24-1.29,2.41-2.43,3.24-3.99,2.89-8.87-1.19-9.35-5.42,0,0,.99-.04.99-.04-.26,3.64-3.21,6.97-6.94,7.23-3.77.33-7.06-2.84-7.6-6.44,0,0,.99-.05.99-.05-.84,8.92-12.32,10.08-13.78.78,0,0,.99-.02.99-.02-.12,1.08-.43,2.08-.87,3.06-1.39,2.86-4.91,4.44-7.9,3.67h0Z"/>
      <path class="cls-3" d="M13.53,170.8c0,.96.12,4.84,3.01,7.52,3.79,3.52,9.57,2.38,12.79.75,4.81-2.42,6.42-7.16,6.77-8.28"/>
      <path class="cls-7" d="M27.07,153.5c-1.25,1.59-1.64,4.13-.75,6.02,2.56,5.45,16.27,6.61,21.07.75,1.21-1.48,2.42-4.1,1.5-6.02-1.15-2.42-5.09-2.55-10.9-2.75-5.97-.2-9.14-.26-10.91,2Z"/>
      <g>
        <path class="cls-7" d="M32.34,158.76c-.04,3.83,2.38,6.63,4.51,6.77,2.4.16,5.62-2.95,5.27-7.52"/>
        <path class="cls-5" d="M32.34,158.76c.52,4.98,4.94,9.1,8.46,3.65.8-1.28,1.23-2.8,1.32-4.4.32,1.6.12,3.32-.64,4.79-3.52,6.49-9.91,2.08-9.14-4.03h0Z"/>
      </g>
      <path class="cls-4" d="M54.91,61.71c-.16,1.73,1.04,3.5,3.01,4.51.2-.22,2.39-2.72,1.5-5.27-.3-.87-1.15-2.28-2.26-2.26-1.2.02-2.14,1.7-2.26,3.01Z"/>
      <path class="cls-1" d="M14.28,24.1c2.47,3.23,5.7,5.85,9.4,7.52,0,0-.91.45-.91.45-3.44,1.68-5.95,4.87-6.99,8.58.14-1.98.85-3.93,1.99-5.56,1.15-1.66,2.74-3.01,4.56-3.91v.89c-3.45-1.73-6.39-4.55-8.06-7.97h0Z"/>
      <path class="cls-1" d="M94.78,31.62c-2.13-2.85-4.96-5.18-8.24-6.54,1.44-2.4,2.93-4.77,4.47-7.11.5-.71.98-1.45,1.51-2.15-1.04,2.41-2.21,4.76-3.51,7.03,0,0-1.33,2.26-1.33,2.26l-.22-.71c3.19,1.45,5.9,4.01,7.32,7.23h0Z"/>
      <path class="cls-1" d="M8.26,112.12c4.44,1.98,8.71-1.76,10.21-5.77,2.12.13,4.26-.52,5.92-1.89,1.57-1.29,2.71-3.13,3.43-5.13-.15,1.06-.52,2.08-.98,3.06-1.46,3.02-4.66,5.1-8.06,4.96,0,0,.47-.3.47-.3-1.58,4.15-6.74,7.91-10.99,5.07h0Z"/>
      <path class="cls-1" d="M6.01,133.94c6.13,2.72,11.03-3.04,11.65-8.76,2.48.32,5.06-.43,6.82-2.22,1.77-1.77,2.71-4.32,2.98-6.82,1.16.25,2.39.32,3.54-.03,3.22-.92,4.77-4.59,4.35-7.75.5,2.15.12,4.6-1.32,6.42-1.44,1.86-3.98,2.67-6.28,2.27,0,0,.5-.38.5-.38-.3,2.57-1.27,5.07-3.08,6.96-1.8,1.93-4.59,2.76-7.17,2.48,0,0,.49-.38.49-.38-.77,5.82-6.55,11.62-12.49,8.2h0Z"/>
      <path class="cls-9" d="M58.67,115.13c-.76,1.25-4.71,7.87-3.01,9.78.11.12.75.84,1.5.75.8-.09,1.28-1.05,1.5-1.5,1.31-2.62.32-7.58,0-9.03Z"/>
      <path class="cls-9" d="M70.89,122.78c-.76,1.25-4.71,7.87-3.01,9.78.11.12.75.84,1.5.75.8-.09,1.28-1.05,1.5-1.5,1.31-2.62.32-7.58,0-9.03Z"/>
      <path class="cls-9" d="M59.6,135.57c-.76,1.25-4.71,7.87-3.01,9.78.11.12.75.84,1.5.75.8-.09,1.28-1.05,1.5-1.5,1.31-2.62.32-7.58,0-9.03Z"/>
      <path class="cls-9" d="M75.14,136.47c-.87,1.17-5.43,7.4-3.91,9.46.09.13.67.91,1.43.89.81-.02,1.37-.93,1.64-1.36,1.55-2.49,1.02-7.52.84-8.99Z"/>
      <path class="cls-9" d="M82.93,115.26c-.76,1.25-4.71,7.87-3.01,9.78.11.12.75.84,1.5.75.8-.09,1.28-1.05,1.5-1.5,1.31-2.62.32-7.58,0-9.03Z"/>
      <path class="cls-9" d="M44.38,137.7c-.81,2.62-2.01,4.24-3.01,5.27-1.11,1.14-2.22,1.79-2.26,3.01-.03,1.02.7,2.18,1.5,2.26.96.09,1.77-1.37,2.26-2.26.78-1.42,1.87-4.08,1.5-8.28Z"/>
      <path class="cls-3" d="M3,157.26c1.7-.44,3.46-.94,5.27-1.5,1.57-.49,3.07-.99,4.51-1.5"/>
      <circle class="cls-2" cx="35.97" cy="54.26" r="11.26"/>
      <circle class="cls-6" cx="36.3" cy="54.02" r="8.67"/>
      <circle cx="35.67" cy="54.11" r="5.26"/>
      <circle class="cls-2" cx="41.27" cy="48.9" r="3.55"/>
      <circle class="cls-2" cx="75.42" cy="49.82" r="11.26"/>
      <circle class="cls-6" cx="75.75" cy="49.57" r="8.67"/>
      <circle cx="75.11" cy="49.67" r="5.26"/>
      <circle class="cls-2" cx="80.72" cy="44.45" r="3.55"/>
    </g>
  </g>
</svg>