<?xml version="1.0" encoding="UTF-8"?>
<svg id="Layer_2" data-name="Layer 2" xmlns="http://www.w3.org/2000/svg" viewBox="0 0 195.78 269.77">
  <defs>
    <style>
      .cls-1 {
        fill: #fff;
      }

      .cls-2 {
        fill: none;
      }

      .cls-3 {
        fill: #231f20;
      }

      .cls-4 {
        fill: #cadb2a;
      }

      .cls-5 {
        fill: #333;
      }

      .cls-6 {
        fill: #a7cf38;
      }
    </style>
  </defs>
  <g id="Layer_1-2" data-name="Layer 1">
    <g>
      <path class="cls-3" d="M52.98,23.8c-.45-2.27-2.55-11.41-10.74-16.59-10.42-6.59-23.63-2.3-31.23,3.9-1,.82-12.94,10.91-10.74,26.35,1.56,10.93,9.58,20.09,20.5,23.42"/>
      <path class="cls-3" d="M141.79,25.75c.14-2.72.82-8.45,4.88-13.66,8.49-10.91,23.44-8.93,24.4-8.78,11.94,1.78,20.49,11.48,23.42,21.47,2.7,9.19,1.45,21.38-6.83,29.28-4.96,4.74-10.71,6.27-13.66,6.83"/>
      <path class="cls-1" d="M28.58,47.22c-.83-.56-3.86-2.74-4.88-6.83-.27-1.1-1.18-4.75.98-7.81,2.37-3.37,7.16-4.2,10.74-2.93,2.76.98,4.3,3.04,4.88,3.9"/>
      <path class="cls-1" d="M153.51,34.53c.87-1.08,2.45-2.74,4.88-3.9,1.06-.51,7.03-3.37,11.71,0,4.19,3.02,3.92,8.55,3.9,8.78-.28,4.33-3.35,8.18-7.81,9.76"/>
      <path class="cls-1" d="M77.38,14.03c-23.43,5.16-37.52,19.69-41.97,24.4-3.59,3.8-23.34,25.44-23.42,57.59-.02,8.16-.04,15.9,3.9,24.4,14.41,31.05,63.66,33.38,80.03,34.16,15.02.71,41.01,1.59,64.42-14.64,6.46-4.48,15.34-10.8,20.5-22.45,9.39-21.23-1.01-43.37-5.86-53.68-2.57-5.47-10.69-21.28-28.3-34.16-13-9.5-25.41-13.2-31.23-14.64-6.07-1.5-20.37-4.87-38.06-.98Z"/>
      <path class="cls-3" d="M66.64,107.73c8.18-6.04,10.93-14.16,11.71-16.59,1.58-4.89,3.96-12.28,0-19.52-2.58-4.72-7.65-9.01-13.66-9.76-10.92-1.36-19.07,9.7-23.42,15.62-2.6,3.54-14.08,19.12-7.81,29.28,2.97,4.81,8.59,6.27,10.74,6.83,10.73,2.79,19.85-3.94,22.45-5.86Z"/>
      <path class="cls-3" d="M121.09,106.91c-8.18-6.04-10.93-14.16-11.71-16.59-1.58-4.89-3.96-12.28,0-19.52,2.58-4.72,7.65-9.01,13.66-9.76,10.92-1.36,19.07,9.7,23.42,15.62,2.6,3.54,14.08,19.12,7.81,29.28-2.97,4.81-8.59,6.27-10.74,6.83-10.73,2.79-19.85-3.94-22.45-5.86Z"/>
      <path class="cls-3" d="M36.38,140.92c-2.04,1.72-4.86,4.3-7.81,7.81-4.21,5-11.22,13.32-12.69,25.38-.43,3.57-.67,9.84,1.95,17.57-1.38,2.22-2.87,5.16-3.9,8.78-2.43,8.47-1.02,15.8,0,19.52-.96,2.71-2.17,7.16-1.95,12.69.11,2.85.88,12.9,8.78,21.47,9.52,10.32,22.17,10.71,24.4,10.74,1.54,1.13,5.77,3.93,11.71,3.9,9.23-.03,14.85-6.85,15.62-7.81,4.92,1.08,11.22,2,18.54,1.95,8.71-.05,16.04-1.46,21.47-2.93,1.19,1.73,4.89,6.63,11.71,8.78,9.98,3.16,18.36-2.16,19.52-2.93,2.85-.27,7.04-.97,11.71-2.93,2.88-1.21,17.23-7.63,22.45-23.42,2.66-8.06,1.86-15.28.98-19.52.57-4.18.92-9.91,0-16.59-.82-6.01-2.42-10.97-3.9-14.64,1.11-2.42,2.48-6.1,2.93-10.74.83-8.47-1.9-14.93-3.9-19.52-3.89-8.92-9.57-14.96-13.66-18.54-5.78,3.65-14.69,8.48-26.35,11.71-14.54,4.03-25.98,3.56-40.99,2.93-11.32-.47-23.23-1.06-38.06-5.86-7.81-2.53-14.09-5.46-18.54-7.81Z"/>
      <path class="cls-1" d="M29.55,207.29c2.39-17,16.47-26.99,22.45-31.23,16.02-11.37,32.82-11.59,41.97-11.71,9.3-.12,33.92-.45,53.68,17.57,7.07,6.45,16.51,14.55,17.57,26.35,2.27,25.37-35.09,51.9-68.94,54.49-6.79.52-25.03,1.65-42-10-2.44-1.67-28.3-20-24.73-45.46Z"/>
      <path class="cls-3" d="M80.31,100.9c.45-3.06,6.42-4.59,9.76-4.88,4.22-.37,10.9.63,11.71,3.9.8,3.25-4.31,8.29-9.76,8.78-6,.55-12.21-4.45-11.71-7.81Z"/>
      <path d="M81.28,109.68c1.54,6.7,10.1,5.73,10.36-.98,0,0,.75.02.75.02-.32,4.53,4.58,7.51,8.21,4.45,1.1-.85,1.82-2.12,2.15-3.5-1.23,7.55-11.24,6.81-11.11-1,0,0,.75.02.75.02-.26,7.31-9.99,8.52-11.11.97h0Z"/>
      <path class="cls-4" d="M30.53,209.24c25.7-28.63,51.4-57.26,77.11-85.89,3.1-1.13,6.56-.36,8.78,1.95,3.09,3.22,2.01,7.57,1.95,7.81-26.68,27.65-53.36,55.31-80.03,82.96-2.6-2.28-5.21-4.55-7.81-6.83Z"/>
      <path class="cls-2" d="M107.63,123.35c-.89,3.33.29,6.83,2.93,8.78,3.46,2.57,7.54,1.08,7.81.98"/>
      <path class="cls-6" d="M90.07,141.89c1.43.89,3.15,2.15,4.88,3.9,2.43,2.47,3.95,4.98,4.88,6.83-.65.65-1.3,1.3-1.95,1.95-1.21-1.75-2.81-3.78-4.88-5.86-1.51-1.51-3.45-3.22-5.86-4.88-.08-.8.3-1.57.98-1.95.94-.54,1.9-.03,1.95,0Z"/>
      <path class="cls-3" d="M17.84,191.67c.77,1.56,2.5,4.51,5.86,6.83,1.48,1.02,6,4.14,11.71,2.93,4.24-.9,6.83-3.7,7.81-4.88,3.58-4.23,7.16-8.46,10.74-12.69,1.57.15,3.96.43,6.83.98,5.74,1.09,8.22,2.27,9.76.98.63-.53,1.41-1.73.98-4.88.16.04,2.42.51,3.9-.98,1.39-1.4,1.51-3.95,0-5.86.57.03,2.12.04,2.93-.98.65-.81.62-2.04,0-3.9-2.93-8.76-8.78-12.69-8.78-12.69-7.22-4.78-15.17-3.58-19.52-2.93-12.2,1.83-20.21,9.28-23.42,12.69"/>
      <path class="cls-3" d="M174.98,188.74c-1.26,2.4-3.89,6.59-8.78,9.76-6.68,4.32-13.49,4.1-17.57,3.9-11.99-.57-26.9-7.04-33.18-20.5-2.2-4.71-2.77-9.04-2.93-11.71-2.23,1.28-4.82.66-5.86-.98-1.07-1.69-.06-3.79,0-3.9-.51-.32-1.31-.93-1.95-1.95-1.04-1.64-1.02-3.28-.98-3.9-.98-.14-2.71-.55-3.9-1.95-2.51-2.95-.44-7.75,0-8.78,2.24-5.21,7.39-7.25,8.78-7.81,6.51-2.58,12.46-.46,13.66,0,9.95,3.75,12.49,14.71,12.69,15.62,1.74-.32,4.12-.52,6.83,0,7.48,1.44,11.64,7.22,12.69,8.78"/>
      <path class="cls-3" d="M144.72,214.12c1.01-1.1,2.61-2.62,4.88-3.9,5.19-2.94,12.21-3.73,18.54-.98,5.91,2.57,9.28,7.49,10.74,10.74,4.66,10.41-.66,25.38-13.6,36.78"/>
      <path class="cls-3" d="M13.94,219.97c.95-2.26,2.09-3.86,2.93-4.88,3.79-4.62,8.7-6.21,10.74-6.83.93-.29,2.63-.8,4.88-.98.49-.04,7.49-.51,12.69,2.93,5.79,3.83,8.6,12.02,7.11,20.54"/>
      <path class="cls-1" d="M45.17,264.87c-3.92-2.35-6.26-5.03-7.81-6.83-2.28-2.66-7.32-8.54-8.78-17.57-.53-3.27-2.26-14,4.88-22.45,1.44-1.71,6.06-6.65,13.66-7.81,9.06-1.38,15.84,3.61,17.57,4.88,10.02,7.37,11.18,19.66,11.71,25.38.54,5.79,1.29,13.71-3.9,20.5-1.58,2.06-5.85,6.83-12.69,7.81-6.54.94-11.66-2.12-14.64-3.9Z"/>
      <path class="cls-1" d="M112.51,259.99c-1.62-2.42-2.26-4.55-2.93-6.83-2.62-8.97-1.32-16.71-.98-18.54,1.19-6.42,2.83-15.25,10.74-20.5,8.11-5.39,17.19-3.27,18.54-2.93,12.15,3.04,16.8,14.57,17.57,16.59,3.59,9.47.63,17.88-.98,22.45-1.7,4.82-3.98,11.32-10.74,15.62-1.1.7-8.91,5.5-18.54,2.93-1.94-.52-8.51-2.54-12.69-8.78Z"/>
      <path class="cls-3" d="M33.46,229.73c-.92,1.76-.04,3.79.98,4.88,1.52,1.63,4.47,2.34,5.86.98,1.29-1.27.58-3.72,0-4.88-.18-.36-1.52-3.06-3.9-2.93-1.27.07-2.39.92-2.93,1.95Z"/>
      <path class="cls-3" d="M39.65,223.21c-1.01,2.09.1,4.44,1.33,5.67,1.84,1.85,5.33,2.57,6.9.92,1.46-1.53.54-4.37-.19-5.71-.23-.42-1.9-3.52-4.69-3.28-1.49.13-2.76,1.17-3.36,2.4Z"/>
      <path class="cls-3" d="M51.54,219.83c-1.55,1.6-1.25,4.06-.5,5.55,1.12,2.23,4.07,3.93,5.98,2.91,1.79-.96,1.8-3.81,1.55-5.24-.08-.45-.67-3.77-3.27-4.38-1.39-.33-2.86.23-3.77,1.17Z"/>
      <path class="cls-3" d="M66.67,238.31c4.12,7.13,2.35,15.86-3.95,19.5-6.3,3.64-14.75.8-18.86-6.33-4.12-7.13-2.35-15.86,3.95-19.5,6.3-3.64,14.75-.8,18.86,6.33Z"/>
      <path class="cls-3" d="M113.49,241.45c2.45-6.85,10.78-11.82,17.57-8.78,6.31,2.82,8.5,11.32,5.86,17.57-2.78,6.56-11,10.95-17.57,7.81-6.01-2.87-7.94-10.76-5.86-16.59Z"/>
      <path class="cls-3" d="M123.25,219.97c-2.03-.07-3.65,2-3.9,3.9-.29,2.21,1.17,4.75,2.93,4.88,1.39.1,2.48-1.35,2.93-1.95.35-.47,2.06-2.76.98-4.88-.52-1.02-1.65-1.91-2.93-1.95Z"/>
      <path class="cls-3" d="M129.11,226.81c-1.04-1.58-1.35-4.02,0-5.86.06-.09,1.53-2.02,3.9-1.95,2.61.07,4.58,2.51,4.88,4.88.2,1.54-.21,3.79-1.95,4.88-2.2,1.38-5.41.21-6.83-1.95Z"/>
      <path class="cls-3" d="M136.91,232.66c-.15-1.3.31-3.2,1.95-3.9,1.4-.6,3-.04,3.9.98,1.22,1.36,1.2,3.54,0,4.88-.9,1.01-2.5,1.59-3.9.98-1.66-.73-1.92-2.64-1.95-2.93Z"/>
      <path class="cls-2" d="M71.52,181.91c-.09-.6-.42-2.39-1.95-3.9-1.95-1.92-4.39-1.96-4.88-1.95"/>
      <path class="cls-2" d="M75.43,174.1c-.22-.87-.72-2.39-1.95-3.9-1.41-1.74-3.06-2.57-3.9-2.93"/>
      <path class="cls-2" d="M106.66,165.32c.41-.88,1.03-1.92,1.95-2.93,2.78-3.05,6.42-3.72,7.81-3.9"/>
      <path class="cls-2" d="M103.73,159.46c-.08-1.12-.04-3,.98-4.88,1.73-3.19,5.53-5.05,9.76-4.88"/>
      <path class="cls-2" d="M112.51,170.2c.63-.36,1.63-.82,2.93-.98,2.36-.29,4.18.59,4.88.98"/>
      <path class="cls-1" d="M84.21,15.99c-.72-.02-3.01-.19-4.88-1.95-.49-.46-2.37-2.23-1.95-3.9.64-2.59,6.21-2.89,6.83-2.93,2.61-.14,4.69.51,5.86.98-.22-.31-1.95-2.84-.98-4.88,1.29-2.7,6.17-2.04,6.83-1.95,3.03.41,5.05,2.15,5.86,2.93-.13-1.37-.08-3.15.98-3.9,1.99-1.43,6.48,1.57,8.78,3.9,4.13,4.18,4.79,9.79,4.88,12.69"/>
      <circle class="cls-1" cx="60.09" cy="85.32" r="14.71"/>
      <circle class="cls-5" cx="60.52" cy="85" r="11.32"/>
      <circle cx="59.69" cy="85.12" r="6.86"/>
      <circle class="cls-1" cx="67.01" cy="78.31" r="4.64"/>
      <circle class="cls-1" cx="127.9" cy="85.95" r="14.71"/>
      <circle class="cls-5" cx="128.33" cy="85.62" r="11.32"/>
      <circle cx="127.51" cy="85.75" r="6.86"/>
      <circle class="cls-1" cx="134.82" cy="78.94" r="4.64"/>
    </g>
  </g>
</svg>