<?xml version="1.0" encoding="UTF-8"?>
<svg id="Layer_2" data-name="Layer 2" xmlns="http://www.w3.org/2000/svg" viewBox="0 0 215.49 476.82">
  <defs>
    <style>
      .cls-1, .cls-2 {
        fill: #fff;
      }

      .cls-2 {
        stroke: #000;
        stroke-miterlimit: 10;
      }

      .cls-3 {
        fill: none;
      }

      .cls-4 {
        fill: #999;
      }

      .cls-5 {
        fill: #3b0e00;
      }

      .cls-6 {
        fill: #f5e0cd;
      }

      .cls-7 {
        fill: #b8bdff;
      }

      .cls-8 {
        fill: #4b1a0e;
      }
    </style>
  </defs>
  <g id="Layer_1-2" data-name="Layer 1">
    <g>
      <ellipse class="cls-4" cx="107.5" cy="444.91" rx="107.5" ry="31.91"/>
      <g>
        <path class="cls-5" d="M50.58,70.12c-1.09-3.02-5.25-13-3.58-25.75,0,0,1.09-8.24,5.01-15.74C61.22,11.05,85.08.57,106.38.02c37.79-.98,59.33,29.52,60.09,30.76,1.81,2.96,2.76,6.06,2.76,6.06,0,0,0,0,0,0,5.53,15.75-1.06,30.77-2.76,35.43-6.32,17.29,5.08,45.14,27.9,100.86,16.46,40.2,25.16,53.11,19.31,59.37-6.84,7.32-23.3-5.79-62.23-11.44-33.47-4.86-60.43-.85-65.81,0-44.36,7-62.45,26.22-72.25,17.88-4.87-4.14-4.45-12.35,10.01-63.66,15.97-56.63,34.87-83.89,27.18-105.15Z"/>
        <path class="cls-6" d="M161.47,80.65c-.69,12.11-1.37,25.37-11.32,35.59-12.29,12.62-29.29,12.33-41.25,12.13-11.67-.2-28.97-.42-41.25-13.75-10.24-11.11-10.91-25-11.32-33.97-.31-6.69-1.65-35.75,17.79-49.34,9.38-6.55,19.32-6.52,35.59-6.47,17.65.06,29.3.09,38.82,8.09,14.93,12.53,13.64,35.36,12.94,47.72Z"/>
        <circle class="cls-1" cx="80.19" cy="75.39" r="10.92"/>
        <circle cx="82.61" cy="77.01" r="8.49"/>
        <circle class="cls-1" cx="134.38" cy="76.2" r="10.92"/>
        <circle cx="131.95" cy="77.81" r="8.49"/>
        <path class="cls-8" d="M95.5,37.65c6.74-3.43,11.38-11.8,9.3-15.02-2.45-3.79-14.26-.54-20.74,2.15-19.34,8.02-29.16,26.74-27.9,27.9,1.05.97,8.43-11.54,22.89-13.59,7.38-1.05,10.79,1.45,16.45-1.43Z"/>
        <path class="cls-6" d="M56.33,74.17c-.86-1.17-2.73-3.34-5.66-4.04-5.64-1.36-11.71,3.55-13.75,8.9-1.56,4.1-.52,7.84,0,9.71,2.44,8.73,10.32,12.48,11.32,12.94,5.15,2.35,9.93,1.95,12.13,1.62-1.69-4.5-3.42-10.54-4.04-17.79-.36-4.23-.28-8.05,0-11.32Z"/>
        <path class="cls-6" d="M161.87,75.39c.55-.57,4.67-4.68,10.51-4.04,7.22.79,10.2,8.09,10.51,8.9,3.03,7.78-2.34,14.97-3.24,16.18-1.4,1.88-5.08,6.08-11.32,7.28-4.42.85-8.03-.2-9.71-.81.97-4.36,1.84-9.23,2.43-14.56.51-4.64.75-8.97.81-12.94Z"/>
        <path class="cls-6" d="M139.09,323.24c-.64,16.6-1.41,39.03-2.15,67.6-.32,12.27-.5,25.39,7.15,30.04,8,4.87,18.52-3.19,25.04,2.86,3.97,3.69,4.69,11,2.15,15.59-3.44,6.19-12.35,6.59-27.18,7.26-14.04.63-21.06.94-25.75-2.42-9.94-7.11-7.99-24.18-7.15-41.17.9-18.3.9-44.7-3.58-78.14,10.49-.54,20.98-1.07,31.47-1.61Z"/>
        <path class="cls-1" d="M138.37,411.58c-3.26-.33-4.01,4.83-8.58,6.44-7.58,2.66-14.88-8.24-19.31-5.72-4.05,2.3-1.68,13.49-.88,17.26,1.18,5.57,2.28,10.79,6.44,14.31,3.49,2.96,7.02,2.93,20.03,2.86,24.69-.13,28.27-.13,32.19-3.58,3.38-2.97,6.89-8.38,5.72-13.59-1.42-6.36-9.38-10.58-15.74-10.73-5.62-.13-7.57,2.98-11.44,1.43-4.95-1.98-4.84-8.31-8.42-8.68Z"/>
        <path class="cls-2" d="M100.78,106.12c2.56-.03,6.25-.37,10.4-1.84,3.04-1.07,5.45-2.44,7.23-3.64"/>
        <path class="cls-1" d="M66.32,194.58c-5.34,8.95,3.28,15.78,3.58,35.05.41,26.42-15.17,34.48-10.73,45.78,9.38,23.86,92.45,22.44,100.14,0,2.92-8.53-7.56-12.73-10.01-32.19-3.13-24.83,12.12-35.18,5.01-47.21-7.44-12.59-28.63-12.75-45.78-12.88-15.06-.11-35.22-.26-42.2,11.44Z"/>
        <path class="cls-6" d="M94.93,127.35v7.15c2.74,1.19,7.49,2.83,13.59,2.86,5.28.03,9.51-1.17,12.16-2.15v-7.15c-4.49.16-9.27.17-14.31,0-3.99-.14-7.81-.39-11.44-.72Z"/>
        <path class="cls-6" d="M74.9,324.41c.64,16.6,1.41,39.03,2.15,67.6.32,12.27.5,25.39-7.15,30.04-8,4.87-18.52-3.19-25.04,2.86-3.97,3.69-4.69,11-2.15,15.59,3.44,6.19,12.35,6.59,27.18,7.26,14.04.63,21.06.94,25.75-2.42,9.94-7.11,7.99-24.18,7.15-41.17-.9-18.3-.9-44.7,3.58-78.14-10.49-.54-20.98-1.07-31.47-1.61Z"/>
        <path class="cls-7" d="M94.93,134.5c-4.19,1.89-10.55,4.44-18.6,6.44-9.47,2.35-13.41,1.97-17.17,2.86-17.59,4.18-25.1,34.81-31.47,60.8-6.39,26.08-9.56,39.91-1.43,51.5,5.73,8.17,17.18,15.4,25.04,12.16,6.49-2.68,8.44-11.63,10.01-19.31,4.35-21.23-3.77-29.12,0-37.91,9.9-23.11,88.17-20.42,96.57,2.86,2.75,7.64-3.26,14.05,0,32.9,1.44,8.36,2.83,15.76,8.58,19.31,7.97,4.91,21.82.9,28.61-7.15,9.33-11.06,3.94-28.1-5.72-58.65-8.03-25.37-16.03-49.87-32.19-53.65-5.3-1.24-9.65.16-19.31-2.86-7.77-2.43-13.57-6.02-17.17-8.58-2.65.98-6.88,2.17-12.16,2.15-6.1-.03-10.85-1.67-13.59-2.86Z"/>
        <path class="cls-5" d="M93.5,37.65c.3.82-8.46,2.8-17.17,10.73-11.32,10.31-14.85,23.67-15.74,27.18-4.95,19.72,2.68,25.82,1.43,47.92-1.44,25.62-13.9,46.12-16.03,45.52-1.81-.52,4.23-16.37,6.01-42.65,2.93-43.25-9.12-58.15,2.15-73.68,11.7-16.13,38.83-16.41,39.34-15.02Z"/>
        <path class="cls-7" d="M68.76,242.15c-12.91,10.72-21.2,23.16-26.07,31.78-11.66,20.64-15.33,39.89-13.47,47.59.07.27.11.41.14.51,2.32,6.68,17.15-3.44,31.28-2.58,17.72,1.08,18.06,18.43,34.18,18.9,15.43.45,16.81-15.41,33.6-14.6,12.94.62,14.97,10.19,27.81,7.73,8.06-1.55,10.62-5.97,20.27-6.01,9.11-.04,12.58,3.87,14.48.86,4.65-7.37-10.83-39.21-13.9-45.52-8.51-17.5-17.76-31.62-26.65-42.95-4.88,5.54-19.11,20.2-39.97,21.47-21.36,1.31-36.62-12.21-41.71-17.18Z"/>
        <path class="cls-6" d="M33.42,263.97c-6.78,1.28-11.75,6.71-12.16,12.88-.51,7.61,6.2,12.55,10.73,14.31,4.81,1.87,13.25,2.51,17.88-3.58,3.94-5.18,3.53-13.11-1.43-18.6-2.45-.37-5.38-1.01-8.58-2.15-2.48-.88-4.63-1.89-6.44-2.86Z"/>
        <path class="cls-6" d="M170.75,267.54c-3.94,5.5-3.89,12.82,0,17.88,3.95,5.14,10.58,6.32,15.74,5.01,4.95-1.27,10.66-5.39,11.44-12.16.67-5.76-2.46-11.5-7.87-14.31-2.01,1.02-4.65,2.12-7.87,2.86-4.65,1.08-8.67,1-11.44.72Z"/>
        <path class="cls-3" d="M108.52,137.36c-.53,8.72-.81,18.04-.72,27.9.1,10.66.63,20.7,1.43,30.04"/>
        <path class="cls-1" d="M75.44,413.39c3.26-.33,4.01,4.83,8.58,6.44,7.58,2.66,14.88-8.24,19.31-5.72,4.05,2.3,1.68,13.49.88,17.26-1.18,5.57-2.28,10.79-6.44,14.31-3.49,2.96-7.02,2.93-20.03,2.86-24.69-.13-28.27-.13-32.19-3.58-3.38-2.97-6.89-8.38-5.72-13.59,1.42-6.36,9.38-10.58,15.74-10.73,5.62-.13,7.57,2.98,11.44,1.43,4.95-1.98,4.84-8.31,8.42-8.68Z"/>
        <path class="cls-5" d="M93.5,38.65c.26,3.4,4.94,6.32,14.31,12.16,10.25,6.39,19.11,9.65,22.17,10.73,18.18,6.41,20.31,2.64,24.32,6.44,11.9,11.29-12.41,39.48-3.3,76.02,3.85,15.46,12.25,26.62,14,26,2.06-.73-5.5-17.5-3-41,1.27-11.92,3.67-11.88,6-25,1.9-10.71,5.72-32.25-3.68-53.19-3.12-6.95-12.58-27.98-32.19-31.47-18.52-3.3-39.29,10.61-38.63,19.31Z"/>
      </g>
    </g>
  </g>
</svg>