<?xml version="1.0" encoding="UTF-8"?>
<svg id="Layer_2" data-name="Layer 2" xmlns="http://www.w3.org/2000/svg" viewBox="0 0 172 271">
  <defs>
    <style>
      .cls-1 {
        fill: #fff;
      }

      .cls-2 {
        fill: #d6d6d6;
      }

      .cls-3 {
        fill: #999;
        stroke: #999;
        stroke-miterlimit: 10;
      }

      .cls-4 {
        fill: gray;
      }
    </style>
  </defs>
  <g id="Layer_1-2" data-name="Layer 1">
    <g>
      <path class="cls-1" d="M124,262.5c-7.08,3.33-20.68,8.6-38.5,8.5-17.27-.1-30.47-5.19-37.5-8.5,8.55-18.23,19.62-47.46,23-85,3.3-36.62-2.03-66.71-7-86h46c-5.16,19.2-10.71,48.85-8,85,2.84,37.89,13.62,67.51,22,86Z"/>
      <path class="cls-1" d="M172,34c-2,5.62-17.78,47.86-61,61.5-9.61,3.03-29.93,7.6-53,0C15.69,81.55,1.56,38.98,0,34c23.54-4.7,53.02-8.58,87-8.5,33.11.08,61.88,3.88,85,8.5Z"/>
      <path class="cls-2" d="M57.5,240c.75-2.23,8.02-22.75,25-26,4.33-.83,7.78-.24,9,0,16.52,3.3,22.04,27.65,24,27,2.51-.83-11.4-38.51-14-77-1.9-28.09,2.57-51.69,7-68-4.43,1.95-11.7,4.52-21,5-9.63.5-17.35-1.44-22-3,3.77,17.06,7.05,39.98,6,67-1.22,31.32-7.84,56.99-14,75Z"/>
      <path class="cls-2" d="M126.5,33c-5.09,28.31-21.91,50.25-43.72,55.52-13.37,3.23-25.01-.68-30.28-2.52C21.36,75.1,9.57,43.8,7.5,38c17.13-3.33,37.31-6.09,60-7,22.12-.89,41.98.15,59,2Z"/>
      <rect class="cls-3" x="77" y="1.5" width="15" height="24"/>
      <path class="cls-4" d="M92.5,10c-2.03.51-4.76,1-8,1-2.09,0-4.86-.2-8-1V3h16v7Z"/>
      <rect class="cls-3" x="76.5" y=".5" width="16" height="7"/>
      <rect class="cls-3" x="64.5" y="15" width="8" height="11"/>
      <rect class="cls-3" x="96.5" y="15" width="8" height="11"/>
    </g>
  </g>
</svg>