<?xml version="1.0" encoding="UTF-8"?>
<svg id="Layer_2" data-name="Layer 2" xmlns="http://www.w3.org/2000/svg" viewBox="0 0 86 62.18">
  <defs>
    <style>
      .cls-1 {
        stroke: #fff;
        stroke-miterlimit: 10;
      }

      .cls-1, .cls-2 {
        fill: #fff;
      }

      .cls-3 {
        fill: #999;
      }

      .cls-4 {
        fill: gray;
      }
    </style>
  </defs>
  <g id="Layer_1-2" data-name="Layer 1">
    <g>
      <path class="cls-3" d="M77,14.18h3c1.66,0,3.16.56,4.24,1.47,1.09.9,1.76,2.15,1.76,3.53,0,2.76-2.69,5-6,5h-3"/>
      <path class="cls-1" d="M18.62,37.68h51.77c1.29-.2,3.06-.67,4.68-1.94,3.84-3,3.92-8.23,3.94-17.06,0,0,.02-12.34-3.94-16.06-1.26-1.19-2.71-1.64-2.71-1.64-.62-.19-1.28-.3-1.97-.3H18.62c-.68-.17-1.62-.3-2.62,0-6.18,1.83-6.02,17.24-6,19,.03,2.45.17,16.27,6,18,.97.29,1.9.18,2.62,0Z"/>
      <rect class="cls-2" x="17.5" y="37.18" width="54" height="25"/>
      <ellipse class="cls-4" cx="16.5" cy="19.68" rx="3" ry="7.5"/>
      <path class="cls-3" d="M16.11,14.68H6c-3.31,0-6,2.13-6,4.75,0,1.31.67,2.5,1.76,3.36,1.08.86,2.58,1.39,4.24,1.39h10.11"/>
    </g>
  </g>
</svg>