<?xml version="1.0" encoding="UTF-8"?>
<svg id="Layer_2" data-name="Layer 2" xmlns="http://www.w3.org/2000/svg" viewBox="0 0 2417.78 1182">
  <defs>
    <style>
      .cls-1 {
        fill: #ffb363;
        stroke: #e99b55;
      }

      .cls-1, .cls-2, .cls-3, .cls-4 {
        stroke-miterlimit: 10;
      }

      .cls-5, .cls-2 {
        fill: #b1bc00;
      }

      .cls-2 {
        stroke: #99a400;
      }

      .cls-6 {
        fill: #bbe800;
      }

      .cls-3 {
        fill: #b1fffb;
        stroke: #000;
      }

      .cls-7 {
        fill: #f5ffff;
      }

      .cls-8 {
        fill: #c1f252;
      }

      .cls-4 {
        fill: #0fd200;
        stroke: #0fb200;
      }

      .cls-9 {
        fill: #a7d926;
      }

      .cls-10 {
        fill: #906900;
      }

      .cls-11 {
        fill: #557b00;
      }
    </style>
  </defs>
  <g id="Layer_1-2" data-name="Layer 1">
    <rect class="cls-3" x=".5" y=".6" width="2413.98" height="783.5"/>
    <path class="cls-8" d="M727.52,658.9c326.21-30.3,585.65-60.55,764.78-82.96,169.78-21.24,389.5-50.7,687.31-49.16,100.38.52,182.88,4.42,237.34,7.68-1.1,78.86-2.2,157.72-3.3,236.59-413.39,55.8-913.58,65.91-1455.38-53.77-79.66-17.6-156.58-37.19-230.75-58.38Z"/>
    <path class="cls-9" d="M1681.4,758.75c-295.01-63.22-542.68-86.64-725.66-95.25-279.4-13.15-556.37,1.23-769.93,12.29-75.3,3.9-137.47,7.89-179.57,10.75-1.64,66.57-3.28,133.14-4.92,199.72,560.03-42.5,1120.05-85.01,1680.08-127.51Z"/>
    <path class="cls-7" d="M265.69,242.31c9.47-7.66,37.19-28.07,79.06-31.51,38.83-3.19,67.94,10.01,79.06,15.76,11.64-5.88,41.29-18.95,80.71-15.76,42.39,3.44,70.71,23.63,80.71,31.51,14.84-7.08,41.13-17.06,74.12-15.76,36.44,1.44,91.96,17.07,95.54,45.69,2.81,22.54-27.66,44.47-47.77,53.57-55.42,25.09-114.76-9.84-121.89-14.18-6.75,4.93-22.17,14.8-44.47,17.33-27.88,3.16-48.9-7.15-56-11.03-7.55,4.86-35.01,21.25-72.47,17.33-29.89-3.12-49.96-17.48-57.65-23.63-12.7,7.55-41.95,22.66-82.36,23.63-45.21,1.09-78.01-16.16-90.59-23.63-3.33,4.26-25.53,31.75-62.59,33.09-21.43.77-58.63-6.81-65.89-33.09-6.88-24.91,17.13-52.16,42.83-59.87,14.5-4.35,27.59-1.9,34.59,0,5.41-6.55,22.22-25.13,51.06-31.51,45.4-10.04,80.45,19.01,84,22.06Z"/>
    <path class="cls-6" d="M2414.48,1178.92H.5c.29-97.55.59-195.11.88-292.66,386.34-62.6,712.77-91.55,956.05-106,268.71-15.96,487.15-17.26,714.83-18.61,299.17-1.78,552.44,3.71,742.22,9.96v407.31Z"/>
    <path class="cls-10" d="M278.58,476.83c11.42,115.8,15.79,242.04,8.66,377.19-2.81,53.24-7.24,104.81-12.98,154.61h127.66c-15.66-55.33-29.22-115.49-38.95-180.1-21.4-142.13-18.82-269.8-6.49-377.19,39.7-8.62,59-22.93,69.24-33.98,20.04-21.63,15.73-41.91,41.11-76.46,10.35-14.09,21.13-24.41,28.13-30.58-13.27,1.81-33.46,6.2-49.77,18.69-28.31,21.68-19.93,48.62-47.6,67.96-9.31,6.51-25.86,14.36-56.26,15.29-1.2-38.43-3.31-78.1-6.49-118.93-2.91-37.32-6.56-73.58-10.82-108.74-11.54.57-23.08,1.13-34.62,1.7-1.44,24.92-2.89,49.84-4.33,74.76-10.46-3.9-25.1-10.65-38.95-22.09-24.97-20.61-32.24-43.93-34.62-54.37h-21.64c6.67,17.11,18.71,41.11,41.11,66.26,19.28,21.65,39.99,37.15,56.26,47.57v120.63c-13.78-3.61-33.7-10.09-54.09-22.09-21.94-12.91-34.12-26.15-64.91-64.56-50.36-62.82-53.94-72.51-75.73-88.35-25.85-18.79-53.15-28.67-71.4-33.98,12.84,8.7,31.07,22.21,49.77,40.78,20.41,20.27,30.51,35.77,51.93,67.96,58.69,88.2,65.34,95.73,73.57,103.64,15.72,15.12,41.27,35.58,82.22,54.37Z"/>
    <path class="cls-4" d="M350.29,285.47c10.81,10.57,26.47,14.5,40.78,10.19,15.3-4.61,26.62-17.92,28.88-33.98,2.62.7,27.93,7.03,49.27-10.19,18.92-15.27,20.24-37.37,20.39-40.78,4.3-.94,26.23-6.18,39.08-27.18,11.45-18.71,11.35-42.83,0-62.87,24-10.22,38.92-33.62,37.38-57.77-1.85-29.01-26.54-44.46-28.88-45.87-1.7-4.53-3.4-9.06-5.1-13.59H136.21c-1.71.84-20.58,10.56-23.79,32.28-2.29,15.49,4.26,31.16,16.99,40.78-13.92,12.44-19.24,30.75-13.59,45.87,4.64,12.41,15.11,18.51,18.69,20.39-.66,4.18-5.43,37.86,18.69,62.87,14.57,15.11,32.09,19.17,39.08,20.39-.06,2.59-.25,28.99,22.09,45.87,22.76,17.21,48.66,9.25,50.97,8.5,2.4,4.67,10,17.9,25.49,23.79,19.5,7.41,43.49.11,59.47-18.69Z"/>
    <path class="cls-4" d="M470.7,383.7c-6.02,9.51-3.59,20.92,3.4,25.49,4.73,3.09,11.31,2.9,16.99,0,.78,2.19,7.17,19.26,25.49,25.49,13.9,4.73,29.48,1.44,40.78-8.5,2.63,1.14,18.51,7.71,35.68,0,21.24-9.53,25.22-32.26,25.49-33.98,5.1-2.53,18.29-9.95,25.49-25.49,8.64-18.65,5.2-41.55-8.5-59.47.42-1.25,9.09-28.86-10.19-50.97-19.35-22.19-48.03-17.23-49.27-16.99-10.22-18.82-29.51-30.14-49.27-28.88-20.57,1.31-33.18,15.71-35.68,18.69-16.76-13.8-39.19-16.39-56.07-6.8-16.66,9.47-21.24,27.01-22.09,30.58-.77.79-12.68,13.47-8.5,30.58,3.72,15.22,17.1,21.39,18.69,22.09-.28.48-6.72,12.14,0,23.79,6.65,11.52,19.78,11.89,20.39,11.89-.77,1.71-5.81,13.35,0,25.49,4.86,10.15,15.41,16.71,27.18,16.99Z"/>
    <path class="cls-5" d="M538.24,1039.34c14.24-15.4,13.59-39.02,0-52.67-14.82-14.88-41.26-14.14-56.07,3.4-.42-4.45-2.87-25.19-20.39-39.08-17.62-13.97-43.41-15.38-65.14-3.4-17.23-28.99-49.5-42.37-76.46-33.98-26.06,8.1-36.84,33.32-38.5,37.38-9.88-14.12-27.3-20.21-42.48-15.29-18.92,6.13-24.09,26.04-24.36,27.18-15.69-2.87-31.26,2.42-39.08,13.59-11,15.71-6.07,42.19,15.29,56.07,115.73,2.27,231.46,4.53,347.19,6.8Z"/>
    <path class="cls-4" d="M201.29,236.53c.78,1.39,18.24,34.05-2.86,65.28-21,31.11-59.92,30.63-61.68,30.58-17.76,22.9-45.92,35.27-73.27,31.62-22.77-3.04-37.42-16.21-42.65-21.43-1.17.15-9.62,1.09-20.33-.87V115.64c8.94-2.6,16.74-1.73,18.38-1.53-.22-.73-4.83-16.62,7.43-28.77,12.41-12.27,29.91-8.72,30.62-8.56.25-13.77,8.79-25.9,21.22-30.4,15.92-5.76,36.02,1.78,44.39,18.62,1.58-.88,26.02-14.01,46.16-3.92,20.59,10.32,30.08,41.62,12.9,69.76,4.79,1.94,28.2,11.89,37.84,36.12,9.25,23.28,2.11,50.51-18.16,69.56Z"/>
    <path class="cls-2" d="M624.61,1073.96c-99.68,0-199.36,0-299.03,0-14.24-15.4-13.59-39.02,0-52.67,14.82-14.88,41.26-14.14,56.07,3.4.09-2.23,1.53-28.14,20.39-39.08,19.61-11.37,51.39-2.7,67.96,25.49,1.54-4.92,9.67-29.13,33.98-40.78,24.68-11.82,56-5.89,78.16,15.29,2.43-2.39,19.73-18.85,42.48-15.29,13.73,2.15,22.35,10.49,27.18,15.29,14.88,14.79,32.42,46.92,16.99,69.66-13.07,19.27-41,18.79-44.18,18.69Z"/>
    <path class="cls-7" d="M1402.61,81.36c-21.68-19.62-61.72-22.09-91.98-3.01-4.54-4.87-28.35-29.33-71.32-33.39-45.13-4.26-77.07,17.22-82.45,20.96-10.12-5.08-70.97-34.51-136.55-13.54-21.08,6.74-36.79,16.81-47.58,25.41-29.09-3.87-55.88,8.09-64.8,26.52-11.61,23.99,13.12,46.46,15.08,48.19,20.15,17.74,55.27,21.77,88.43,9.94,2.59,2.32,10.99,9.23,24.63,10.7,19.45,2.1,33.39-8.6,35.26-10.1,13.67,5.09,37.08,12.02,67.31,12.42,35.56.47,63.11-8.31,77.58-13.94,48.38,15.25,88.37,14.16,111.17,11.83,33-3.37,67.53-6.91,83.2-29.95,12.23-17.99,10.96-44.91-7.99-62.05Z"/>
    <path class="cls-7" d="M2376.57,326.29c-52.27,21.07-103.38-5.43-110.43-9.22-12.14,9.19-58.2,41.79-125.26,39.94-53.74-1.48-91.38-24.25-105.49-33.8-5.31,5.55-41.61,42.2-100.54,41.48-63.2-.77-99.55-43.89-103.84-49.16-53.04,47.91-124.26,48.23-156.58,16.9-21.12-20.47-26.17-54.98-14.83-81.42,22.92-53.46,103.52-52.38,108.78-52.23,22.87.62,41.14,7.05,52.74,12.29,6.6-4.32,24.96-15.13,51.09-15.36,23.61-.21,40.79,8.32,47.8,12.29,18.46-12.72,44.29-27.17,77.47-36.87,85.56-25.01,160.59-1.01,187.9,9.22,11.98-6.4,78.62-40.54,154.93-16.9,37.99,11.77,62.9,33.07,75.82,46.09.55,29.19,1.1,58.38,1.65,87.57-7.88,8.87-21.22,21.13-41.21,29.19Z"/>
    <path class="cls-10" d="M1575.05,477.27c-6.37,82.23-8.8,171.87-4.83,267.84,1.57,37.81,4.04,74.43,7.24,109.79-23.73,0-47.46,0-71.18,0,8.73-39.29,16.29-82.01,21.72-127.89,11.93-100.93,10.49-191.58,3.62-267.84-22.14-6.12-32.9-16.28-38.61-24.13-11.18-15.36-8.77-29.76-22.92-54.29-5.77-10-11.78-17.33-15.68-21.72,7.4,1.29,18.65,4.4,27.75,13.27,15.79,15.4,11.11,34.53,26.54,48.26,5.19,4.62,14.42,10.2,31.37,10.86.67-27.29,1.84-55.46,3.62-84.45,1.62-26.5,3.66-52.25,6.03-77.22,6.43.4,12.87.8,19.3,1.21.8,17.7,1.61,35.39,2.41,53.09,5.83-2.77,13.99-7.57,21.72-15.68,13.92-14.64,17.97-31.2,19.3-38.61,4.02,0,8.04,0,12.06,0-3.72,12.15-10.43,29.19-22.92,47.05-10.75,15.37-22.3,26.38-31.37,33.78,0,28.55,0,57.11,0,85.66,7.69-2.56,18.79-7.16,30.16-15.68,12.23-9.17,19.02-18.57,36.19-45.85,28.08-44.61,30.07-51.49,42.23-62.74,14.41-13.35,29.63-20.36,39.81-24.13-7.16,6.18-17.32,15.77-27.75,28.96-11.38,14.39-17.01,25.4-28.96,48.26-32.73,62.63-36.43,67.98-41.02,73.6-8.77,10.74-23.01,25.27-45.85,38.61Z"/>
    <path class="cls-4" d="M1543.68,336.11c-7.68,7.51-18.8,10.3-28.96,7.24-10.87-3.27-18.9-12.72-20.51-24.13-1.86.5-19.83,4.99-34.99-7.24-13.44-10.84-14.37-26.54-14.48-28.96-3.05-.67-18.62-4.39-27.75-19.3-8.13-13.29-8.06-30.41,0-44.64-1.7-.34-30.06-6.57-40.33-34.13-7.01-18.81-2.84-40.17,10.75-55.31-.9-1.52-14.01-24.79-1.54-49.16,8.29-16.19,24.73-26.74,43.02-27.65-10.38-14.19-9.78-32.39,0-43.02,9.56-10.38,24.06-9.39,26.12-9.22,70.16.51,140.31,1.02,210.47,1.54,3.47.77,15.49,3.87,24.58,15.36,9.76,12.34,9.4,25.85,9.22,29.19,2.99.68,31.1,7.6,43.02,35.33,9.86,22.94,1.61,43.77,0,47.62,1.17,3.62,3.78,13.38,0,24.58-5.88,17.42-22.28,23.74-24.58,24.58,1,5.85,3.33,24.15-7.54,41.48-4.22,6.73-9.23,11.39-13.27,14.48.47,2.97,3.85,26.89-13.27,44.64-10.35,10.73-22.78,13.61-27.75,14.48.05,1.84.17,20.58-15.68,32.58-16.16,12.22-34.56,6.57-36.19,6.03-1.7,3.31-7.1,12.71-18.1,16.89-13.84,5.26-30.88.08-42.23-13.27Z"/>
    <path class="cls-4" d="M1486.97,442.28c4.28,6.75,2.55,14.85-2.41,18.1-3.36,2.2-8.03,2.06-12.06,0-.55,1.56-5.09,13.68-18.1,18.1-9.87,3.36-20.93,1.02-28.96-6.03-1.87.81-13.14,5.47-25.34,0-15.09-6.77-17.91-22.91-18.1-24.13-3.62-1.8-12.99-7.06-18.1-18.1-6.13-13.24-3.7-29.5,6.03-42.23-.3-.88-6.46-20.5,7.24-36.19,13.74-15.75,34.1-12.23,34.99-12.06,7.26-13.36,20.95-21.41,34.99-20.51,14.6.93,23.56,11.15,25.34,13.27,11.9-9.8,27.83-11.64,39.81-4.83,11.83,6.72,15.08,19.18,15.68,21.72.54.56,9,9.57,6.03,21.72-2.64,10.81-12.15,15.19-13.27,15.68.2.34,4.77,8.62,0,16.89-4.72,8.18-14.04,8.44-14.48,8.45.55,1.22,4.13,9.48,0,18.1-3.45,7.2-10.94,11.87-19.3,12.06Z"/>
    <path class="cls-5" d="M1404.95,866.1c-10.11-10.94-9.65-27.71,0-37.4,10.52-10.56,29.3-10.04,39.81,2.41.3-3.16,2.04-17.89,14.48-27.75,12.51-9.92,30.83-10.92,46.26-2.41,12.24-20.59,35.15-30.08,54.29-24.13,18.51,5.75,26.16,23.66,27.34,26.54,7.01-10.03,19.39-14.35,30.16-10.86,13.43,4.35,17.1,18.49,17.3,19.3,1.05-.1,19.85-1.68,27.75,9.65,8.16,11.72,2.93,34.75-18.37,47.13-79.68-.83-159.35-1.66-239.03-2.49Z"/>
    <path class="cls-4" d="M1642.34,302.27c-.52.99-12.08,24.18,1.89,46.35,13.91,22.09,39.68,21.75,40.85,21.72,11.76,16.26,30.42,25.05,48.53,22.45,15.08-2.16,24.78-11.51,28.24-15.21,16.19,13.55,37.8,15.44,52.64,5.55,13.41-8.94,16.33-24.21,16.9-27.65,2.14-1.61,26.39-20.5,24.58-50.7-1.12-18.74-11.64-31.28-15.36-35.33,13.67-18.04,12.55-41.27,0-53.77-11.99-11.95-29.89-9.57-32.26-9.22-1.27-15.5-11.57-28.81-26.12-33.8-13.87-4.75-29.38-1.17-39.94,9.22-.79-1.54-6.39-12.06-18.4-14.63-10.96-2.35-22.78,2.88-29.4,13.22-1.05-.62-17.24-9.95-30.57-2.79-13.64,7.33-19.92,29.55-8.54,49.54-3.17,1.38-18.68,8.45-25.06,25.65-6.13,16.53-1.4,35.87,12.03,49.39Z"/>
    <path class="cls-11" d="M2413.76,1043.82c-.48-2.2-1.1-4.92-1.87-8.02-8.95-35.96-24.17-66.98-27.1-66-2.29.76,10.83,34.19,10.78,82.17-.04,27.39-4.37,49.76-8.09,49.83-5.45.11-.33-47.72-30.98-83.5-15.89-18.56-34.54-25.85-35.86-24.26-1.9,2.32,32.46,23.37,33.17,55.22.16,7.08-1.48,8.98-2.7,18.86-1.45,11.8-.8,22.62.84,32.09,2.95,8.2,4.76,15.87,5.9,21.79-2.22-6.01-4.44-13.36-5.9-21.79-5.97-16.71-16.63-35.72-35.86-46.9-13.73-7.99-30.63-11.29-32.33-8.09-1.87,3.53,16.06,12.42,29.64,33.53,8.12,12.64,11.71,25.03,13.47,33.82-6.99-6.11-28.23-23.07-55.22-20.19-20.3,2.15-39.11,15-37.72,20.19,1.23,4.6,17.48.3,37.72,5.39,23.17,5.83,39.24,20.89,49,32.33-14.44-4.79-35.85-9.63-61.12-6.74-17.88,2.06-38.06,8.01-37.72,12.13.33,4.01,19.89,2.73,49.84,9.42,22.83,5.1,32.05,10.46,44.61,15.02h96.2c.44-45.44.88-90.87,1.32-136.31Z"/>
    <path class="cls-11" d="M536.24,1181.23c1.34-12.48,3.28-46.02-15.83-81.77-20.42-38.2-52.25-55.33-63.31-60.67,8.84.64,44.7,4.26,73.86,34.29,26.43,27.23,30.73,59.04,31.65,68.58,3.59-27.1,5.65-62.28,1.32-102.88-3.66-34.38-10.96-63.75-18.46-87.05,12.56,15.98,28.45,39.72,40.89,71.22,11.82,29.96,16.53,56.83,18.46,76.5,9.83-10.68,21.25-26.43,26.38-47.48,7.24-29.73-2.59-51.56,1.32-52.76,4.12-1.26,23.36,32.84,25.06,73.86,1.2,28.99-6.72,52.58-13.19,67.27,12.05-31.65,18.09-43.42,21.1-46.16.14-.13,2.09-1.88,4.69-4.35,2.91-2.77,4.75-4.65,5.84-5.67,8.5-7.99,24.82-16.85,59.37-19-8.39,5.3-19.69,13.69-30.34,26.38-23.12,27.55-29.53,59.14-26.38,60.67,3.62,1.76,17.09-37.38,44.84-40.89,8.85-1.12,16.47,1.72,21.1,3.96-3.52,1.62-24.7,11.77-31.65,35.61-3.89,13.34-1.53,24.84,0,30.34h-176.74Z"/>
    <g>
      <g>
        <path class="cls-1" d="M1840.19,895.62l-24.56,1-12.79-313.91,24.56-1c3.65,89.5,7.29,179,10.94,268.5.62,15.13,1.23,30.27,1.85,45.4Z"/>
        <rect class="cls-1" x="2174.86" y="582.08" width="24.58" height="314.17"/>
        <rect class="cls-1" x="1749.31" y="796.39" width="397.89" height="27.65"/>
        <path class="cls-1" d="M1749.31,795.62c20.48-9.99,40.97-19.97,61.45-29.96h388.68c-17.41,9.99-34.82,19.97-52.23,29.96h-397.89Z"/>
        <path class="cls-1" d="M2147.2,796.39v27.65c17.41-11.27,34.82-22.53,52.23-33.8v-24.58c-17.41,10.24-34.82,20.48-52.23,30.73Z"/>
        <path class="cls-1" d="M2199.44,727.26h-390.21c-4.1-49.67-8.19-99.35-12.29-149.02,141.85-1.02,283.7-2.05,425.55-3.07-7.68,50.7-15.36,101.39-23.04,152.09Z"/>
        <path class="cls-1" d="M1785.27,928.11l-24.44,2.64-22.91-212.31c8.15-.88,16.29-1.76,24.44-2.64,7.64,70.77,15.27,141.54,22.91,212.31Z"/>
        <path class="cls-1" d="M1738.56,716.51c20.48-12.8,40.97-25.6,61.45-38.41h21.51c-19.46,12.8-38.92,25.6-58.38,38.41h-24.58Z"/>
        <path class="cls-1" d="M2121.85,717.11c20.48-12.8,40.97-25.6,61.45-38.41h21.51c-19.46,12.8-38.92,25.6-58.38,38.41h-24.58Z"/>
      </g>
      <path class="cls-1" d="M2146.43,930.65h-24.58v-213.54h24.58v213.54Z"/>
    </g>
    <path class="cls-11" d="M2.97,1030.67c10.76-6.98,36.47-25.74,48.59-59.15,21.46-59.14-19.15-110.45-23.06-115.22,26.92,23.73,56.61,58.34,65.89,104.47,11.38,56.61-11.86,111.33,0,115.22,5.53,1.81,12.69-9.4,31.3-27.65,21.5-21.09,41.96-35.56,56-44.55-4.75,4.39-22.17,21.53-24.71,49.16-2.64,28.72,12.61,48.95,16.47,53.77,17.78-11.34,38.02-28.45,49.41-53.77,17.65-39.21,4.25-76.21,8.24-76.81,4.73-.72,27.74,50.57,26.35,115.22-.62,28.84-5.85,48.86,0,50.7,7.69,2.42,26.86-28.99,37.88-53.77,14.03-31.54,18.46-60.43,19.77-81.42,13.79,19.06,29.7,46.37,37.88,81.42,6.66,28.53,6.14,53.34,11.53,53.77,6.71.53,6.83-37.89,30.47-68.36,23.17-29.86,60.83-41.62,89.77-46.86-8.96,3.51-41.93,17.62-59.3,52.23-25.4,50.64,5.7,99.13,8.24,102.93-144.4-.51-288.8-1.02-433.2-1.54.82-49.93,1.65-99.86,2.47-149.79Z"/>
    <path class="cls-11" d="M224.15,1181.23c-1.44-12.48-3.52-46.02,16.97-81.77,21.89-38.2,56.02-55.33,67.88-60.67-9.48.64-47.93,4.26-79.19,34.29-28.34,27.23-32.94,59.04-33.94,68.58-3.84-27.1-6.05-62.28-1.41-102.88,3.93-34.38,11.75-63.75,19.8-87.05-13.47,15.98-30.5,39.72-43.84,71.22-12.68,29.96-17.73,56.83-19.8,76.5-10.54-10.68-22.79-26.43-28.28-47.48-7.76-29.73,2.77-51.56-1.41-52.76-4.42-1.26-25.05,32.84-26.87,73.86-1.28,28.99,7.21,52.58,14.14,67.27-12.92-31.65-19.4-43.42-22.63-46.16-.15-.13-2.24-1.88-5.03-4.35-3.13-2.77-5.1-4.65-6.26-5.67-9.11-7.99-26.61-16.85-63.66-19,9,5.3,21.11,13.69,32.52,26.38,24.78,27.55,31.66,59.14,28.28,60.67-3.88,1.76-18.32-37.38-48.08-40.89-9.49-1.12-17.66,1.72-22.63,3.96,3.78,1.62,26.49,11.77,33.94,35.61,4.17,13.34,1.65,24.84,0,30.34,63.16,0,126.33,0,189.49,0Z"/>
  </g>
</svg>