<?xml version="1.0" encoding="UTF-8"?>
<svg id="Layer_2" data-name="Layer 2" xmlns="http://www.w3.org/2000/svg" viewBox="0 0 303.42 172.76">
  <defs>
    <style>
      .cls-1 {
        fill: none;
      }

      .cls-1, .cls-2, .cls-3, .cls-4, .cls-5, .cls-6, .cls-7 {
        stroke: #000;
        stroke-miterlimit: 10;
      }

      .cls-2 {
        fill: #ffdfa1;
      }

      .cls-8, .cls-3 {
        fill: #fff;
      }

      .cls-4 {
        fill: #b492c4;
      }

      .cls-5 {
        fill: #d4c1de;
      }

      .cls-6 {
        fill: #f7b7d3;
      }

      .cls-9 {
        fill: #333;
      }

      .cls-7 {
        fill: #edcae0;
      }
    </style>
  </defs>
  <g id="Layer_1-2" data-name="Layer 1">
    <g>
      <circle class="cls-2" cx="151.35" cy="67.76" r="3"/>
      <path class="cls-2" d="M151.85,69.26c-3.05.07-5.67,7.41-6,13-.37,6.25,2.08,11.14,3.5,13.5-1.1,3.81-2.22,9.33-2,16,.28,8.65,2.68,15.42,4.5,19.5,1.57-4.89,3.14-11.53,3.5-19.5.28-6.24-.26-11.67-1-16,1.47-2.14,4.21-6.84,4-13-.21-6.22-3.42-13.57-6.5-13.5Z"/>
      <path class="cls-5" d="M155.35,72.76c3.18-6.83,8.22-16.15,16-26,6.73-8.51,26.24-33.2,59-42,29.82-8.01,67.47-3.32,72,11,1.74,5.5-.66,14.78-5,21-3.61,5.18-6.15,4.76-10,11-4.33,7.02-2.57,9.87-7,15-3.93,4.54-6.11,3.22-10,8-4,4.91-2.99,7.88-6,12-4.25,5.81-11.58,7.18-16,8-12.94,2.41-15.63-3.62-39-7-7.4-1.07-15.79-2.28-26-2-2.59.07-7.31.23-14,0-5.11-.17-9.28-.64-12-1-.67-2.67-1.33-5.33-2-8Z"/>
      <path class="cls-7" d="M157.35,80.76c.47,1.22,1.66,4.8.44,9.06-.85,2.99-2.51,4.97-3.44,5.94,2.09,3.82,5.23,10.1,7.92,18.26,3.54,10.71,3.29,15.69,7.17,32.26,4.71,20.12,7.87,25.97,10.75,25.99,2.4,0,3.1-4.04,8.06-5.38,3.84-1.03,4.85,1.01,8.06,0,4.88-1.54,4.09-6.72,9.86-9.86,3.79-2.06,5.18-.39,8.06-2.69,3.29-2.62,2.12-5.29,5.38-8.96,3.03-3.4,4.79-1.94,8.96-5.38,4.99-4.11,3.47-7.03,8.06-10.75,4.63-3.75,7.57-1.54,10.75-5.38,3.1-3.74,2.9-9.9.95-14.11-1.26-2.72-3.51-5.22-14-10-14.09-6.42-18.57-5.82-32-12-6.97-3.21-7.08-3.98-11-5-6.96-1.82-11.31-.62-22-1-5.3-.19-9.54-.67-12-1Z"/>
      <path class="cls-1" d="M150.35,64.76c-.95-5.65-3.02-9.44-5-12-3.64-4.71-7.08-5.44-10-10-2.57-4.02-3.09-8.45-3-12"/>
      <path class="cls-1" d="M152.06,64.35c.95-5.65,3.02-9.44,5-12,3.64-4.71,7.08-5.44,10-10,2.57-4.02,3.09-8.45,3-12"/>
      <path class="cls-4" d="M156.35,74.76c-.86-.88,10.76-14.27,24-27,15.81-15.19,25.9-24.7,42-31,1.9-.74,30.71-11.75,38-2,1.81,2.43,2.33,6.19,1,9-3.3,6.93-16,4.02-32,7-15.32,2.85-25.62,9.6-43,21-18.91,12.4-29.2,23.82-30,23Z"/>
      <path class="cls-4" d="M157.35,77.76c-.28-.44,5.88-4.62,17-13,10.3-7.76,9.48-7.54,13-10,4.18-2.93,16.11-10.78,33-15,7-1.75,23.49-5.87,27,0,1.39,2.33.52,5.79-1,8-3.62,5.26-10.85,3.25-24,5-11.63,1.55-20.54,5.08-33,10-8.04,3.18-15.23,6.63-16,7-9.9,4.77-15.73,8.42-16,8Z"/>
      <path class="cls-4" d="M158.35,78.76c-.23-1.09,9.69-2.91,36-11,0,0,7.54-2.32,21-4,10.45-1.3,13.01-.6,14,1,1.57,2.54-.67,7.49-4,10-3.29,2.48-7.13,2.19-11,2-7.32-.36-14.68.49-22,0-20.4-1.36-33.73,3.29-34,2Z"/>
      <circle class="cls-4" cx="278.35" cy="21.76" r="11"/>
      <circle class="cls-4" cx="264.21" cy="47.24" r="8.14"/>
      <circle class="cls-4" cx="245.63" cy="71.81" r="6.72"/>
      <path class="cls-1" d="M289.35,44.76c-5.46-3.28-13.96-7.56-25-10-21.42-4.73-38.82.49-50,4-29.16,9.15-48.31,27.21-58,38"/>
      <path class="cls-1" d="M271.85,69.26c-7.71-4.97-18.47-10.37-32-13-41.6-8.1-75.05,16.62-82,22"/>
      <path class="cls-1" d="M158.35,84.76c3.8.69,9.02,1.88,15,4,8.88,3.15,14.96,6.76,22,11,6.24,3.75,14.2,8.99,23,16"/>
      <path class="cls-1" d="M157.35,89.76c6.01,3.9,12.42,8.53,19,14,10.69,8.9,19.26,17.9,26,26"/>
      <path class="cls-1" d="M156.35,93.76c3.99,3.41,9.24,8.62,14,16,4.94,7.65,7.56,14.85,9,20"/>
      <circle class="cls-6" cx="176.09" cy="131.65" r="4"/>
      <circle class="cls-6" cx="204.09" cy="132.65" r="4"/>
      <circle class="cls-6" cx="221.1" cy="117.66" r="4"/>
      <path class="cls-1" d="M173.35,115.76c2.1,1.37,4.59,3.31,7,6,4.99,5.57,7.08,11.48,8,15"/>
      <circle class="cls-6" cx="189.09" cy="140.65" r="4"/>
      <path class="cls-1" d="M173.35,134.76c-.44,2.89-1.11,10.07,3,17,1.25,2.1,2.68,3.75,4,5"/>
      <circle class="cls-6" cx="184.09" cy="157.65" r="4"/>
      <path class="cls-1" d="M187.35,113.76c3.81.37,10.72,1.56,18,6,6.03,3.68,9.86,8.1,12,11"/>
      <circle class="cls-6" cx="219.09" cy="133.65" r="4"/>
      <path class="cls-1" d="M200.35,132.76c-.67.43-1.41,1.07-2,2-2.16,3.4-.21,7.58,0,8"/>
      <circle class="cls-6" cx="201.09" cy="145.65" r="4"/>
      <path class="cls-1" d="M189.35,95.76c5.2,1.17,10.54,2.5,16,4,2.37.65,4.71,1.32,7,2"/>
      <circle class="cls-6" cx="216.09" cy="103.65" r="4"/>
      <circle class="cls-6" cx="186.09" cy="102.65" r="4"/>
      <path class="cls-1" d="M158.35,87.76c3.11,1.05,6.47,2.36,10,4,5.48,2.55,10.14,5.35,14,8"/>
      <circle class="cls-6" cx="167.09" cy="107.65" r="4"/>
      <path class="cls-1" d="M156.35,91.76c1.23.43,5.87,2.24,8,7,.66,1.48.92,2.88,1,4"/>
      <circle class="cls-6" cx="171.09" cy="88.65" r="4"/>
      <path class="cls-1" d="M221.35,113.76c2.2-.34,5.33-.57,9,0,2.86.44,5.23,1.25,7,2"/>
      <circle class="cls-6" cx="240.09" cy="118.65" r="4"/>
      <path class="cls-5" d="M148.07,72.39c-3.18-6.83-8.22-16.15-16-26-6.73-8.51-26.24-33.2-59-42C43.25-3.62,5.6,1.07,1.07,15.39c-1.74,5.5.66,14.78,5,21,3.61,5.18,6.15,4.76,10,11,4.33,7.02,2.57,9.87,7,15,3.93,4.54,6.11,3.22,10,8,4,4.91,2.99,7.88,6,12,4.25,5.81,11.58,7.18,16,8,12.94,2.41,15.63-3.62,39-7,7.4-1.07,15.79-2.28,26-2,2.59.07,7.31.23,14,0,5.11-.17,9.28-.64,12-1,.67-2.67,1.33-5.33,2-8Z"/>
      <path class="cls-7" d="M146.07,80.39c-.47,1.22-1.66,4.8-.44,9.06.85,2.99,2.51,4.97,3.44,5.94-2.09,3.82-5.23,10.1-7.92,18.26-3.54,10.71-3.29,15.69-7.17,32.26-4.71,20.12-7.87,25.97-10.75,25.99-2.4,0-3.1-4.04-8.06-5.38-3.84-1.03-4.85,1.01-8.06,0-4.88-1.54-4.09-6.72-9.86-9.86-3.79-2.06-5.18-.39-8.06-2.69-3.29-2.62-2.12-5.29-5.38-8.96-3.03-3.4-4.79-1.94-8.96-5.38-4.99-4.11-3.47-7.03-8.06-10.75-4.63-3.75-7.57-1.54-10.75-5.38-3.1-3.74-2.9-9.9-.95-14.11,1.26-2.72,3.51-5.22,14-10,14.09-6.42,18.57-5.82,32-12,6.97-3.21,7.08-3.98,11-5,6.96-1.82,11.31-.62,22-1,5.3-.19,9.54-.67,12-1Z"/>
      <path class="cls-4" d="M147.07,74.39c.86-.88-10.76-14.27-24-27-15.81-15.19-25.9-24.7-42-31-1.9-.74-30.71-11.75-38-2-1.81,2.43-2.33,6.19-1,9,3.3,6.93,16,4.02,32,7,15.32,2.85,25.62,9.6,43,21,18.91,12.4,29.2,23.82,30,23Z"/>
      <path class="cls-4" d="M146.07,77.39c.28-.44-5.88-4.62-17-13-10.3-7.76-9.48-7.54-13-10-4.18-2.93-16.11-10.78-33-15-7-1.75-23.49-5.87-27,0-1.39,2.33-.52,5.79,1,8,3.62,5.26,10.85,3.25,24,5,11.63,1.55,20.54,5.08,33,10,8.04,3.18,15.23,6.63,16,7,9.9,4.77,15.73,8.42,16,8Z"/>
      <path class="cls-4" d="M145.07,78.39c.23-1.09-9.69-2.91-36-11,0,0-7.54-2.32-21-4-10.45-1.3-13.01-.6-14,1-1.57,2.54.67,7.49,4,10,3.29,2.48,7.13,2.19,11,2,7.32-.36,14.68.49,22,0,20.4-1.36,33.73,3.29,34,2Z"/>
      <circle class="cls-4" cx="25.07" cy="21.39" r="11"/>
      <circle class="cls-4" cx="39.22" cy="46.88" r="8.14"/>
      <circle class="cls-4" cx="57.79" cy="71.45" r="6.72"/>
      <path class="cls-1" d="M14.07,44.39c5.46-3.28,13.96-7.56,25-10,21.42-4.73,38.82.49,50,4,29.16,9.15,48.31,27.21,58,38"/>
      <path class="cls-1" d="M31.57,68.89c7.71-4.97,18.47-10.37,32-13,41.6-8.1,75.05,16.62,82,22"/>
      <path class="cls-1" d="M145.07,84.39c-3.8.69-9.02,1.88-15,4-8.88,3.15-14.96,6.76-22,11-6.24,3.75-14.2,8.99-23,16"/>
      <path class="cls-1" d="M146.07,89.39c-6.01,3.9-12.42,8.53-19,14-10.69,8.9-19.26,17.9-26,26"/>
      <path class="cls-1" d="M147.07,93.39c-3.99,3.41-9.24,8.62-14,16-4.94,7.65-7.56,14.85-9,20"/>
      <circle class="cls-6" cx="127.34" cy="131.29" r="4"/>
      <circle class="cls-6" cx="99.34" cy="132.28" r="4"/>
      <circle class="cls-6" cx="82.32" cy="117.29" r="4"/>
      <path class="cls-1" d="M130.07,115.39c-2.1,1.37-4.59,3.31-7,6-4.99,5.57-7.08,11.48-8,15"/>
      <circle class="cls-6" cx="114.34" cy="140.28" r="4"/>
      <path class="cls-1" d="M130.07,134.39c.44,2.89,1.11,10.07-3,17-1.25,2.1-2.68,3.75-4,5"/>
      <circle class="cls-6" cx="119.34" cy="157.28" r="4"/>
      <path class="cls-1" d="M116.07,113.39c-3.81.37-10.72,1.56-18,6-6.03,3.68-9.86,8.1-12,11"/>
      <circle class="cls-6" cx="84.34" cy="133.28" r="4"/>
      <path class="cls-1" d="M103.07,132.39c.67.43,1.41,1.07,2,2,2.16,3.4.21,7.58,0,8"/>
      <circle class="cls-6" cx="102.34" cy="145.28" r="4"/>
      <path class="cls-1" d="M114.07,95.39c-5.2,1.17-10.54,2.5-16,4-2.37.65-4.71,1.32-7,2"/>
      <circle class="cls-6" cx="87.34" cy="103.28" r="4"/>
      <circle class="cls-6" cx="117.34" cy="102.28" r="4"/>
      <path class="cls-1" d="M145.07,87.39c-3.11,1.05-6.47,2.36-10,4-5.48,2.55-10.14,5.35-14,8"/>
      <circle class="cls-6" cx="136.34" cy="107.28" r="4"/>
      <path class="cls-1" d="M147.07,91.39c-1.23.43-5.87,2.24-8,7-.66,1.48-.92,2.88-1,4"/>
      <circle class="cls-6" cx="132.34" cy="88.28" r="4"/>
      <path class="cls-1" d="M82.07,113.39c-2.2-.34-5.33-.57-9,0-2.86.44-5.23,1.25-7,2"/>
      <circle class="cls-6" cx="63.34" cy="118.28" r="4"/>
      <circle class="cls-2" cx="132.85" cy="29.26" r="1.5"/>
      <circle class="cls-2" cx="169.85" cy="29.26" r="1.5"/>
      <path class="cls-1" d="M146.35,87.76c1.24.44,2.94.89,5,1,3.04.17,5.49-.47,7-1"/>
      <path class="cls-1" d="M147.35,91.76c.93.41,2.3.87,4,1,2.73.22,4.87-.52,6-1"/>
      <path class="cls-1" d="M149.35,95.76c.16.15,1.34,1.23,3,1,1.07-.15,1.75-.76,2-1"/>
      <path class="cls-1" d="M148.35,98.76c.52.33,1.57.89,3,1,2,.15,3.48-.68,4-1"/>
      <path class="cls-1" d="M148.35,102.76c.52.33,1.57.89,3,1,2,.15,3.48-.68,4-1"/>
      <path class="cls-1" d="M147.35,107.76c.67.36,2.09,1,4,1,.76,0,2.31-.1,4-1"/>
      <path class="cls-1" d="M147.35,112.76c.67.36,2.09,1,4,1,.76,0,2.31-.1,4-1"/>
      <path class="cls-1" d="M147.35,117.76c.67.36,2.09,1,4,1,.76,0,2.31-.1,4-1"/>
      <path class="cls-1" d="M148.35,122.76h6"/>
      <circle class="cls-3" cx="147.25" cy="64.69" r="3.19"/>
      <circle class="cls-9" cx="147.18" cy="64.6" r="2.46"/>
      <circle cx="147.22" cy="64.78" r="1.49"/>
      <circle class="cls-8" cx="145.64" cy="63.29" r="1.01"/>
      <circle class="cls-3" cx="154.99" cy="64.44" r="3.19"/>
      <circle class="cls-9" cx="154.91" cy="64.35" r="2.46"/>
      <circle cx="154.95" cy="64.52" r="1.49"/>
      <circle class="cls-8" cx="153.38" cy="63.03" r="1.01"/>
    </g>
  </g>
</svg>