<?xml version="1.0" encoding="UTF-8"?>
<svg id="Layer_2" data-name="Layer 2" xmlns="http://www.w3.org/2000/svg" viewBox="0 0 153.53 100.48">
  <defs>
    <style>
      .cls-1 {
        fill: #ffd996;
      }

      .cls-1, .cls-2, .cls-3, .cls-4 {
        stroke: #000;
        stroke-miterlimit: 10;
      }

      .cls-2 {
        fill: none;
      }

      .cls-5, .cls-3 {
        fill: #fff;
      }

      .cls-6 {
        fill: #333;
      }

      .cls-4 {
        fill: #cc9300;
      }
    </style>
  </defs>
  <g id="Layer_1-2" data-name="Layer 1">
    <g>
      <path class="cls-1" d="M33.03,95.65c-18.97-13.28-25.16-48.6-12-61,6.45-6.08,18.29-7.34,26-3,10.74,6.05,12.51,22.42,13,27,.92,8.51-1.16,10.52,1,14,4.87,7.85,19.77,4.67,36,5,30.29.62,56.53,13.31,56,17-.42,2.94-17.84.46-55,2-45.06,1.87-53.65,6.94-65-1Z"/>
      <path class="cls-4" d="M54.03,39.65c1.62-14.91,12.77-24.9,14-26C82.04,1.11,107.38.09,124.03,11.65c26.28,18.25,24.1,63.13,10,72-5.04,3.17-8.76.25-21.23-2.41-3.94-.84-8.79-1.77-18.77-2.59-22.64-1.85-29.62,4.28-35-1-1.97-1.93-2.64-8.62-4-22-.88-8.69-1.32-13.04-1-16Z"/>
      <path d="M97.04,79.15c-8.09.24-16.26-2.67-22.36-8.03-1.04-.99-2.16-2.33-2.88-3.57-5.35-9.22-2.85-21.72,3.03-30.13,11.48-17.25,42.39-16.58,49.25,4.41,1.28,3.79,1.73,7.96.72,11.88-1.96,8.23-10.69,12.38-18.54,12.71-7.24.37-18.44-1.52-18.72-10.59-.25-4.13,2.77-7.73,6.48-9.18-8.77,3.52-8.51,14.93.5,17.94,10.52,3.95,26.72,1.4,29.98-10.96,2.69-12.01-5.78-24.24-17.61-26.93-16.38-4.18-32.5,5.29-36.32,21.85-1.82,7.43-1.19,16.48,4.7,21.93,5.88,5.12,13.92,7.95,21.73,7.67,0,0,.03,1,.03,1h0Z"/>
      <path class="cls-2" d="M28.03,68.65c.23,1.75,1.62,2.99,3,3,1.68.01,3.35-1.8,3-4"/>
      <path class="cls-1" d="M23.03,35.65c-2.33-8-4.67-16-7-24-2.41-.1-4.45-1.75-5-4-.58-2.38.61-5.08,3-6,2.26-.87,4.76.16,6,2,1.42,2.11,1.04,5.13-1,7,2.33,7.67,4.67,15.33,7,23"/>
      <path class="cls-1" d="M38.71,34.82c2.33-8,4.67-16,7-24,2.41-.1,4.45-1.75,5-4,.58-2.38-.61-5.08-3-6-2.26-.87-4.76.16-6,2-1.42,2.11-1.04,5.13,1,7-2.33,7.67-4.67,15.33-7,23"/>
      <circle class="cls-3" cx="14.51" cy="51.19" r="14.01"/>
      <circle class="cls-6" cx="14.93" cy="50.88" r="10.79"/>
      <circle cx="14.14" cy="51" r="6.54"/>
      <circle class="cls-5" cx="21.11" cy="44.51" r="4.42"/>
      <circle class="cls-3" cx="43.04" cy="48.67" r="14.01"/>
      <circle class="cls-6" cx="43.45" cy="48.36" r="10.79"/>
      <circle cx="42.66" cy="48.48" r="6.54"/>
      <circle class="cls-5" cx="49.63" cy="41.99" r="4.42"/>
    </g>
  </g>
</svg>