<?xml version="1.0" encoding="UTF-8"?>
<svg id="Layer_2" data-name="Layer 2" xmlns="http://www.w3.org/2000/svg" viewBox="0 0 1336.82 255.52">
  <defs>
    <style>
      .cls-1 {
        fill: #006837;
      }
    </style>
  </defs>
  <g id="Layer_1-2" data-name="Layer 1">
    <g>
      <path class="cls-1" d="M0,242.52c5.84,1.67,10.34,6.95,11,13-5.86-1.66-10.32-6.96-11-13h0Z"/>
      <path class="cls-1" d="M26.05,242.3c-.68,6.04-5.14,11.34-11,13,.66-6.05,5.16-11.33,11-13h0Z"/>
      <path class="cls-1" d="M12.5,235.52c3.38,5.69,3.41,13.31,0,19-3.41-5.69-3.38-13.31,0-19h0Z"/>
    </g>
    <g>
      <path class="cls-1" d="M52.41,39.32c6.22,2.12,11.21,7.98,12.25,14.48-6.24-2.1-11.19-7.99-12.25-14.48h0Z"/>
      <path class="cls-1" d="M81.42,39.07c-1.06,6.49-6.01,12.37-12.25,14.48,1.04-6.5,6.03-12.35,12.25-14.48h0Z"/>
      <path class="cls-1" d="M66.33,31.52c3.38,6.36,3.41,14.8,0,21.16-3.41-6.35-3.39-14.8,0-21.16h0Z"/>
    </g>
    <g>
      <path class="cls-1" d="M500.55,225.46c6.22,2.12,11.21,7.98,12.25,14.48-6.24-2.1-11.19-7.99-12.25-14.48h0Z"/>
      <path class="cls-1" d="M529.56,225.21c-1.06,6.49-6.01,12.37-12.25,14.48,1.04-6.5,6.03-12.35,12.25-14.48h0Z"/>
      <path class="cls-1" d="M514.47,217.66c3.38,6.36,3.41,14.8,0,21.16-3.41-6.35-3.39-14.8,0-21.16h0Z"/>
    </g>
    <g>
      <path class="cls-1" d="M826.8,7.8c6.22,2.12,11.21,7.98,12.25,14.48-6.24-2.1-11.19-7.99-12.25-14.48h0Z"/>
      <path class="cls-1" d="M855.82,7.55c-1.06,6.49-6.01,12.37-12.25,14.48,1.04-6.5,6.03-12.35,12.25-14.48h0Z"/>
      <path class="cls-1" d="M840.72,0c3.38,6.36,3.41,14.8,0,21.16-3.41-6.35-3.39-14.8,0-21.16h0Z"/>
    </g>
    <g>
      <path class="cls-1" d="M1232.8,151.8c6.22,2.12,11.21,7.98,12.25,14.48-6.24-2.1-11.19-7.99-12.25-14.48h0Z"/>
      <path class="cls-1" d="M1261.82,151.55c-1.06,6.49-6.01,12.37-12.25,14.48,1.04-6.5,6.03-12.35,12.25-14.48h0Z"/>
      <path class="cls-1" d="M1246.72,144c3.38,6.36,3.41,14.8,0,21.16-3.41-6.35-3.39-14.8,0-21.16h0Z"/>
    </g>
    <g>
      <path class="cls-1" d="M1217.8,155.8c6.22,2.12,11.21,7.98,12.25,14.48-6.24-2.1-11.19-7.99-12.25-14.48h0Z"/>
      <path class="cls-1" d="M1246.82,155.55c-1.06,6.49-6.01,12.37-12.25,14.48,1.04-6.5,6.03-12.35,12.25-14.48h0Z"/>
      <path class="cls-1" d="M1231.72,148c3.38,6.36,3.41,14.8,0,21.16-3.41-6.35-3.39-14.8,0-21.16h0Z"/>
    </g>
    <g>
      <path class="cls-1" d="M981.8,149.8c6.22,2.12,11.21,7.98,12.25,14.48-6.24-2.1-11.19-7.99-12.25-14.48h0Z"/>
      <path class="cls-1" d="M1010.82,149.55c-1.06,6.49-6.01,12.37-12.25,14.48,1.04-6.5,6.03-12.35,12.25-14.48h0Z"/>
      <path class="cls-1" d="M995.72,142c3.38,6.36,3.41,14.8,0,21.16-3.41-6.35-3.39-14.8,0-21.16h0Z"/>
    </g>
    <g>
      <path class="cls-1" d="M1003.8,150.8c6.22,2.12,11.21,7.98,12.25,14.48-6.24-2.1-11.19-7.99-12.25-14.48h0Z"/>
      <path class="cls-1" d="M1032.82,150.55c-1.06,6.49-6.01,12.37-12.25,14.48,1.04-6.5,6.03-12.35,12.25-14.48h0Z"/>
      <path class="cls-1" d="M1017.72,143c3.38,6.36,3.41,14.8,0,21.16-3.41-6.35-3.39-14.8,0-21.16h0Z"/>
    </g>
    <g>
      <path class="cls-1" d="M945.8,139.8c6.22,2.12,11.21,7.98,12.25,14.48-6.24-2.1-11.19-7.99-12.25-14.48h0Z"/>
      <path class="cls-1" d="M974.82,139.55c-1.06,6.49-6.01,12.37-12.25,14.48,1.04-6.5,6.03-12.35,12.25-14.48h0Z"/>
      <path class="cls-1" d="M959.72,132c3.38,6.36,3.41,14.8,0,21.16-3.41-6.35-3.39-14.8,0-21.16h0Z"/>
    </g>
    <g>
      <path class="cls-1" d="M734.8,144.8c6.22,2.12,11.21,7.98,12.25,14.48-6.24-2.1-11.19-7.99-12.25-14.48h0Z"/>
      <path class="cls-1" d="M763.82,144.55c-1.06,6.49-6.01,12.37-12.25,14.48,1.04-6.5,6.03-12.35,12.25-14.48h0Z"/>
      <path class="cls-1" d="M748.72,137c3.38,6.36,3.41,14.8,0,21.16-3.41-6.35-3.39-14.8,0-21.16h0Z"/>
    </g>
    <g>
      <path class="cls-1" d="M1307.8,7.8c6.22,2.12,11.21,7.98,12.25,14.48-6.24-2.1-11.19-7.99-12.25-14.48h0Z"/>
      <path class="cls-1" d="M1336.82,7.55c-1.06,6.49-6.01,12.37-12.25,14.48,1.04-6.5,6.03-12.35,12.25-14.48h0Z"/>
      <path class="cls-1" d="M1321.72,0c3.38,6.36,3.41,14.8,0,21.16-3.41-6.35-3.39-14.8,0-21.16h0Z"/>
    </g>
    <g>
      <path class="cls-1" d="M191.8,160.8c6.22,2.12,11.21,7.98,12.25,14.48-6.24-2.1-11.19-7.99-12.25-14.48h0Z"/>
      <path class="cls-1" d="M220.82,160.55c-1.06,6.49-6.01,12.37-12.25,14.48,1.04-6.5,6.03-12.35,12.25-14.48h0Z"/>
      <path class="cls-1" d="M205.72,153c3.38,6.36,3.41,14.8,0,21.16-3.41-6.35-3.39-14.8,0-21.16h0Z"/>
    </g>
  </g>
</svg>