<?xml version="1.0" encoding="UTF-8"?>
<svg id="Layer_2" data-name="Layer 2" xmlns="http://www.w3.org/2000/svg" viewBox="0 0 248.32 174.98">
  <defs>
    <style>
      .cls-1 {
        fill: none;
      }

      .cls-1, .cls-2, .cls-3, .cls-4, .cls-5, .cls-6, .cls-7, .cls-8 {
        stroke: #000;
        stroke-miterlimit: 10;
      }

      .cls-9, .cls-3 {
        fill: #fff;
      }

      .cls-2 {
        fill: #e7ae22;
      }

      .cls-4 {
        fill: #d5ad29;
      }

      .cls-5 {
        fill: #fff7dc;
      }

      .cls-10 {
        fill: #333;
      }

      .cls-6 {
        fill: #73471c;
      }

      .cls-7 {
        fill: #be8b2c;
      }

      .cls-8 {
        fill: #f8992d;
      }
    </style>
  </defs>
  <g id="Layer_1-2" data-name="Layer 1">
    <g>
      <path class="cls-2" d="M88.59,119.61c-1.57,1.07-.2,3.09-2,7-2.23,4.85-5.89,5.16-6,8-.12,3.07,4.02,6.42,8,7,6.68.97,11.41-6.11,12-7,1.03-1.54,2.01-3.01,2-5-.03-6.54-10.71-12.24-14-10Z"/>
      <path class="cls-2" d="M222.59,95.61c3.72,2.08,17.97,10.61,23,28,1.38,4.76,4.73,16.36-1,26-7.05,11.87-23.9,14.12-38,16-10.99,1.47-17.66.43-32,4-5.53,1.38-10,2.9-13,4,2.59-2.32,6.95-5.88,13-9,16.43-8.49,25.91-3.84,41-12,5.79-3.13,14.84-8.02,17-17,2.35-9.75-4.14-21.35-16-30,2-3.33,4-6.67,6-10Z"/>
      <path class="cls-2" d="M141.59,119.61c1.6,1.45,1.07,4.97,0,12-1,6.61-1.51,9.92-4,13-4.18,5.16-10.27,5.92-11,6-5.71.62-12.52-1.81-13-5-.29-1.93,1.96-2.65,4-7,1.71-3.63,1.35-5.71,2-8,2.48-8.69,17.89-14.74,22-11Z"/>
      <path class="cls-2" d="M181.59,112.61c3.19,3.59.16,10.64,0,11-.4.89-2.32,5.23-7,7-5.47,2.07-12.57-.19-13-3-.07-.46-.22-2.64,6-6-2.03-1.32-4.23-3.14-4-5,.51-4.24,13.65-8.89,18-4Z"/>
      <path class="cls-2" d="M214.59,106.61c1.43,2.15-.89,4.07-1,13-.07,5.39.77,6.07,0,9-.16.61-1.95,7.05-8,10-6.37,3.11-15.22,1.25-16-2-.84-3.49,7.66-8.26,9-9-1.66-1.21-3.92-3.14-6-6-2.13-2.94-4.5-6.2-4-9,1.31-7.32,22.32-11.51,26-6Z"/>
      <path class="cls-4" d="M89.59,119.61c1.18,1.72,3.6,5.2,8,8,7.76,4.94,16.15,4.27,19,4,12.77-1.2,20.82-9.57,23-12,.79.24,2.73.69,5,0,3.13-.95,4.65-3.4,5-4,.19.3,1.87,2.76,5,3,2.36.18,4.66-.98,6-3,.76.29,3.71,1.3,7,0,2.14-.84,3.42-2.26,4-3,.37.35,2.18,2,5,2,.51,0,2.96-.05,5-2h9c2.74.7,7.95,1.62,14,0,0,0,7.99-2.14,14-9,12.07-13.78,6.34-44.01-7-64-4.1-6.14-12.48-16.66-28-25-2.53-2.73-8.49-8.4-18-11-6.24-1.71-11.63-1.44-15-1-.66-.48-3.78-2.62-8-2-3.23.48-5.29,2.3-6,3-1.07-.32-3.79-.98-7,0-2.55.77-4.21,2.21-5,3-1.15-.23-2.92-.42-5,0-3.77.76-6.12,3.05-7,4-1.35-.04-3.53.08-6,1-3.04,1.14-5.01,2.95-6,4-3.46.23-8.42.92-14,3-3.82,1.42-13.1,5.01-20,14-6.4,8.33-7.54,17.13-8,21-2.07,17.57,8.95,33.71,31,66Z"/>
      <path class="cls-2" d="M66.59,53.61c-.41-2.51-1.36-6.32-4-10-3.36-4.69-6.74-5.42-10-10-1.51-2.12-3.35-5.58-4-11-1.93,1.98-5.3,5.98-7,12-1.08,3.82-2.42,8.57,0,13,3.53,6.45,12.18,6.96,13,7"/>
      <path class="cls-2" d="M70.59,113.61c-10.75-.57-18.73,1.25-24,3-12.25,4.06-21.09,11.43-31,8-1.82-.63-3.19-1.46-4-2-1.01.22-4.07.73-7-1-.35-.21-4.76-2.89-4-6,.45-1.84,2.46-2.77,3-3,1.43-1.38,3.53-3.43,6-6,5.29-5.49,9.57-9.94,13-15,5.27-7.77,2.87-8.61,8-17,2.86-4.67,6.9-11.28,15-16,8.64-5.04,16.94-5.04,19-5,4.7.1,8.5,1.12,11,2,2.35-6.23,5.58-9.33,8-11,5.08-3.51,9.49-2.73,15-7,3.1-2.41,4.97-5.18,6-7,.95,1.33,5.92,8.61,4,18-1.51,7.35-6.34,11.58-8,13-6.91,5.88-14.81,6.03-17,6,1.22,2.21,2.86,5.62,4,10,2.11,8.16,1.43,15.67,1,20-.62,6.27-1.67,8.62-1,14,.43,3.45,1.31,6.2,2,8-2.02.33-6.2.72-11-1-3.94-1.41-6.59-3.62-8-5Z"/>
      <path d="M183.59,14.61c18.16,17.14,21.84,44.28,16.96,67.81-1.54,7.95-3.89,15.73-6.96,23.19,2.67-7.6,4.83-15.39,6.2-23.33,4.45-23.49.98-49.89-16.2-67.67h0Z"/>
      <path d="M156.59,4.61c30.01,12.21,40.14,42.47,36.05,72.76-1.24,9.66-3.51,19.2-7.05,28.24,3.16-9.17,5.22-18.71,6.29-28.33,3.61-30.24-6.04-59.43-35.29-72.67h0Z"/>
      <path d="M141.59,4.61c28.04,14.44,42.71,43.94,39.3,75.04-.99,9.95-3.37,19.79-7.3,28.96,3.54-9.3,5.72-19.12,6.53-29.03,2.94-31.02-11.27-59.58-38.53-74.97h0Z"/>
      <path d="M129.59,8.61c18.71,5.91,33.22,20.14,38.88,39,6.45,20.82,2.57,43.74-6.88,63,4.07-9.27,7.04-19.02,8.39-29.06,4.31-31.86-9-61.67-40.39-72.94h0Z"/>
      <path d="M117.59,11.61c29.63,10.16,46.32,37.88,43.13,68.8-.89,9.71-3.22,19.3-7.13,28.2,3.53-9.03,5.63-18.61,6.36-28.27,2.65-30.93-13.33-57.41-42.36-68.73h0Z"/>
      <path d="M100.59,15.61c37.87,7.91,54.82,43.77,46.93,79.84-1.01,4.9-2.59,9.99-4.47,14.63,0,0-1.46,3.53-1.46,3.53l1.32-3.59c1.74-4.67,3.13-9.79,4.06-14.69,7.06-36.05-9.2-70.54-46.38-79.73h0Z"/>
      <path class="cls-1" d="M223.59,111.61c.4-.94,1.03-2.01,2-3,3.65-3.72,9.1-3.11,10-3"/>
      <path class="cls-1" d="M232.59,125.61c.27-.43,2.16-3.39,6-4,3.88-.61,6.62,1.67,7,2"/>
      <path class="cls-1" d="M231.59,138.61c1.57.1,4.19.49,7,2,4.13,2.22,6.2,5.54,7,7"/>
      <path class="cls-1" d="M219.59,150.61c.95.39,2.62,1.25,4,3,2.62,3.32,2.12,7.23,2,8"/>
      <path class="cls-1" d="M204.59,156.61c.58.56,1.44,1.55,2,3,1.06,2.76.27,5.25,0,6"/>
      <path class="cls-1" d="M188.59,159.61c.29.44,1.2,1.94,1,4-.22,2.29-1.65,3.68-2,4"/>
      <path class="cls-5" d="M85.59,136.61c-.07-.91-1.13-1.68-2-2-4.82-1.77-12.71,6.9-12,8,.09.14.28.08,5-1,3.07-.7,3.35-.75,4-1,.56-.22,5.16-2.01,5-4Z"/>
      <path class="cls-5" d="M91.59,141.61c.88-1.06.75-2.89,0-4-1.46-2.14-5.26-1.57-7-1-5.24,1.71-6.82,8.21-7,9,2.74-1.99,5.17-2.72,7-3,3.47-.52,5.79.47,7-1Z"/>
      <path class="cls-5" d="M95.59,134.61c-.44,1.07.15,1.49,0,4-.08,1.31-.28,1.82,0,2,.61.4,2.44-1.43,3-2,1.3-1.31,1.96-1.97,2-3,.05-1.2-.7-2.75-2-3-1.31-.25-2.56.95-3,2Z"/>
      <path class="cls-5" d="M119.59,145.61c-.23-.96-1.13-1.71-2-2-2.75-.92-6.33,2.43-8,5-1.99,3.06-2.09,6.29-2,8,1.19-.22,3.06-.72,5-2,1.27-.84,2.18-1.89,4-4,3.14-3.63,3.11-4.52,3-5Z"/>
      <path class="cls-5" d="M113.59,158.61c.04-1.22.24-3.01,1-5,1.11-2.92,4.05-7.96,8-8,1.31-.01,3.24.51,4,2,.69,1.36.07,2.85,0,3-.38.87-1.04,1.44-4,3-1.91,1.01-2.83,1.4-4,2-1.2.61-2.95,1.58-5,3Z"/>
      <path class="cls-5" d="M130.59,151.61c.57.14.81-1.09,3-3,1.27-1.11,1.84-1.27,2-2,.25-1.13-.67-2.76-2-3-1.55-.28-2.68,1.5-3,2-1.51,2.37-.91,5.78,0,6Z"/>
      <path class="cls-5" d="M155.59,134.61c.36.34,1.25-.42,6-3,4.1-2.22,5.08-2.55,5-3-.16-.85-4-1.58-7,0-3.09,1.63-4.64,5.39-4,6Z"/>
      <path class="cls-5" d="M159.59,136.61c.21-1.28.7-3.15,2-5,.76-1.08,3.03-4.32,6-4,1.2.13,2.77.87,3,2,.41,2.05-3.77,4.33-5,5-2.38,1.29-4.58,1.79-6,2Z"/>
      <path class="cls-5" d="M168.59,134.61c3.49-.72,5.9-2.3,6-4,.04-.69-.29-1.65-1-2-1.15-.57-2.72.76-3,1-1.89,1.61-2,4.2-2,5Z"/>
      <path class="cls-5" d="M183.59,142.61c.43.35,1.36-.54,4-2,4.5-2.49,6.95-2.74,7-4,.03-.91-1.21-1.7-2-2-3.26-1.24-6.82,2.8-7,3-1.6,1.85-2.62,4.49-2,5Z"/>
      <path class="cls-5" d="M189.59,144.61c.41.27,1.33-.68,3-2,4.49-3.55,7.18-4,7-5-.17-.96-2.86-1.65-5-1-2.2.67-3.24,2.59-4,4-.78,1.45-1.55,3.64-1,4Z"/>
      <path class="cls-5" d="M195.59,143.61c.45.36,1.05.1,4-1,3.27-1.22,3.83-1.38,4-2,.3-1.05-.78-2.47-2-3-2.17-.95-5.06.83-6,3-.39.91-.68,2.44,0,3Z"/>
      <path d="M22.59,110.61c5.63-2.74,10.77-6.33,15.41-10.49,2.34-2,4.32-4.39,5.53-7.23.62-1.39.95-2.89,1.46-4.42,1.59-4.56,5.31-8.19,9.56-10.36,2.87-1.38,6.14-1.48,9.19-2.24,4.39-1.12,9.58-1.38,12.56-5.22.98-1.2,1.73-2.58,2.28-4.05-.88,2.98-2.76,5.82-5.64,7.32-4.37,1.81-9.03,2.7-13.63,3.7-1.55.3-3.02.58-4.36,1.3-4,2.09-7.49,5.58-9.07,9.86-1.16,4.57-3.54,9.04-7.4,11.91-4.78,4.04-10.09,7.55-15.91,9.91h0Z"/>
      <path d="M51.59,111.61c10.33-.85,20.83-3.27,29-10-.89.96-1.88,1.83-2.89,2.68-7.24,5.87-16.98,7.77-26.1,7.32h0Z"/>
      <path class="cls-8" d="M3.59,112.61c1.42-.76,3.5-1.43,8-1,3.65.35,10.32.99,11,4,.27,1.18-.49,2.27-1,3-2.65,3.81-8.2,3.94-11,4-2.35.05-4.1.06-6-1-2-1.12-4.55-3.63-4-6,.37-1.6,1.98-2.46,3-3Z"/>
      <path class="cls-6" d="M14.59,120.61c-.43-.61.53-2.39,2-3,.61-.25,1.68-.45,2,0,.43.61-.53,2.39-2,3-.61.25-1.68.45-2,0Z"/>
      <path class="cls-6" d="M7.24,119.8c.43-.61-.53-2.39-2-3-.61-.25-1.68-.45-2,0-.43.61.53,2.39,2,3,.61.25,1.68.45,2,0Z"/>
      <path d="M13.59,122.61c9.3-.69,18.22-3.88,26-9-.86.8-1.79,1.52-2.72,2.23-6.67,4.82-15.04,7.41-23.28,6.77h0Z"/>
      <path class="cls-7" d="M99.59,41.61c-2.62,1.77-3.85,1.76-6,3-2.35,1.36-3.58,2.93-6,6-1.74,2.22-4.01,5.53-6,10,1.87.31,4.69.56,8,0,2.42-.41,7.42-1.24,11-5,5.75-6.02,4.84-16.4,3-17-.7-.23-1.13,1.06-4,3Z"/>
      <path d="M92.59,70.61c1.4,3.38,6.43,3.43,7.54-.13,0,0,.91.28.91.28-.31.85-.06,1.9.67,2.53.71.65,1.88.82,2.88.32-2.1,1.87-5.31-.49-4.45-3.15,0,0,.91.28.91.28-.27.96-.85,1.84-1.66,2.43-2.37,1.92-6.4.5-6.79-2.56h0Z"/>
      <path d="M67.59,46.61c1.6.22,3.07-.69,3.55-2.17,0,0,.92.25.92.25-.45,2.54,2.29,4.1,4.53,2.91-2.26,2.43-6.22.18-5.47-3.09,0,0,.92.25.92.25-.63,1.73-2.84,2.79-4.45,1.83h0Z"/>
      <path d="M71.59,38.61c1.19,2.22,4.64,2.18,5.55-.19,0,0,.46-1.17.46-1.17l.45,1.21c1.14,3.38,5.33,3.81,7.54,1.15-.37.77-.99,1.44-1.75,1.91-1.57.97-3.8.83-5.19-.45-.71-.63-1.21-1.41-1.52-2.31l.91.04c-1.17,2.93-5.65,2.85-6.45-.19h0Z"/>
      <path d="M76.59,28.61c2.24,1.55,4.42,1.96,7,1-1.75,2.41-5.96,1.68-7-1h0Z"/>
      <path d="M85.59,31.61c3.17,1.99,6.89,1.96,10,0-2.22,3.3-7.77,3.3-10,0h0Z"/>
      <path d="M88.59,24.61c2.39.25,4.64-.8,5.96-2.75,0,0,.4.41.4.41,1.62,1.71,4.38,1.45,5.65-.65-.62,2.92-4.49,3.45-6.35,1.35,0,0,.74-.04.74-.04-1.45,1.88-4.24,2.73-6.39,1.69h0Z"/>
      <path d="M95.59,29.61c2.62,1.2,5.99-.16,6.52-3.1,0,0,.3-1.38.3-1.38l.62,1.25c1.17,2.4,4.26,2.72,5.56.22-.14.64-.49,1.24-.99,1.73-1.07,1.03-2.86.93-4.02.11-.61-.4-1.08-.98-1.42-1.61l.92-.12c-.55,3.43-4.8,5.12-7.48,2.9h0Z"/>
      <path d="M110.59,22.61c1.19,2.91,4.33,2.8,7,2-2.06,2.38-7.28,1.83-7-2h0Z"/>
      <path d="M119.59,26.61c1.36,2.35,3.39,3.63,6,4-2.61,1.25-6.16-1.11-6-4h0Z"/>
      <path d="M110.59,33.61c2.71,1.26,5.3.24,7-2-.36,3.25-4.98,4.8-7,2h0Z"/>
      <path d="M122.59,33.61c1.77,3.31,6.23,3.31,8,0-.05.92-.53,1.84-1.27,2.48-2.23,2.13-6.57.68-6.73-2.48h0Z"/>
      <path d="M113.59,44.61c1.47,2.68,5.41,2.28,5.5-1.01,0,0,0-1.04,0-1.04l.81.66c2.16,1.86,5.4.76,6.69-1.61-.77,3.16-4.75,4.55-7.31,2.39,0,0,.81-.38.81-.38-.02.83-.3,1.66-.82,2.32-1.61,2.15-5.12,1.18-5.68-1.33h0Z"/>
      <path d="M130.59,44.61c1.82,3.5,5.8,4.73,9,2-.45.87-1.22,1.59-2.15,2.04-2.89,1.48-6.64-.89-6.85-4.04h0Z"/>
      <path d="M110.59,54.61c2.36,2.82,6.44,1.6,7-2,.26.84.13,1.83-.34,2.64-1.41,2.76-5.89,2.38-6.66-.64h0Z"/>
      <path d="M120.59,52.61c1.87,2.51,4.96,2.32,5.8-.88,1.38,1.6,3.59,2.07,5.18.46.46-.42.77-.98,1.02-1.58-.02,2.08-2.28,3.98-4.43,3.39-.72-.18-1.36-.53-1.91-1.02l.81-.18c-1.23,3.28-5.43,2.94-6.47-.18h0Z"/>
      <path d="M137.59,52.61c.07,3.26,3.35,4.92,6,3-.34.73-1.04,1.31-1.86,1.56-2.6.96-5.45-2.08-4.14-4.56h0Z"/>
      <path d="M102.59,62.61c1.98,5.38,9.13,4.49,9.79-1.22,0,0,.62.95.62.95,1.57,2.59,4.3,2.29,5.77-.23.46-.74.69-1.61.81-2.51.16,1.84-.6,3.86-2.24,4.88-1.81,1.26-4.16.08-5.17-1.62,0,0,.89-.15.89-.15-1.2,5.68-9.6,5.73-10.48-.11h0Z"/>
      <path d="M127.59,62.61c1.38,3.26,4.64,4.84,8,4-3.01,2.5-8.18-.09-8-4h0Z"/>
      <path d="M135.59,60.61c1.43,1.9,5.72,9.34,8.16,5.55.33-.47.58-1,.84-1.55-.13,1.24-.45,2.58-1.66,3.29-3.55,1.2-6.61-4.49-7.34-7.29h0Z"/>
      <path d="M114.59,73.61c1.2,2.2,4.63,2.17,5.55-.19,0,0,.39-.98.39-.98l.5.95c1.49,2.83,5.63,2.22,6.56-.78-.07,2.66-3.31,4.35-5.61,3.05-.78-.4-1.43-1.04-1.82-1.83l.89-.04c-1.15,2.93-5.66,2.87-6.45-.19h0Z"/>
      <path d="M133.59,72.61c.79,4.18,4.69,6.06,8,3-.44.89-1.19,1.66-2.15,2.12-3.13,1.56-6.65-1.95-5.85-5.12h0Z"/>
      <path d="M141.59,72.61c1.18,2.3,3.56,3.28,6,2-1.74,2.9-6.28,1.21-6-2h0Z"/>
      <path d="M93.59,86.61c.34,5.17,3.96,2,4.86-.98,1.35,2.09,3.85,3.22,6.26,2.21.7-.24,1.32-.69,1.88-1.23-1.7,3.08-6.39,3.11-8.4.3,0,0,.86-.11.86-.11-.31.71-.72,1.4-1.27,1.97-2.39,2.45-4.9,1.27-4.19-2.16h0Z"/>
      <path d="M110.59,81.61c2.11,1.75,4.56,2.02,7,1-1.65,2.46-6.09,1.9-7-1h0Z"/>
      <path d="M121.59,79.61c1.18,2.16,4.65,2.14,5.54-.19,0,0,.46-1.16.46-1.16l.46,1.16c.61,1.59,2.7,2.29,4.21,1.44.54-.26.99-.71,1.33-1.25-.81,3.14-5.32,3.12-6.46.19,0,0,.92,0,.92,0-.29.67-.78,1.26-1.4,1.65-1.79,1.22-4.58.29-5.06-1.85h0Z"/>
      <path d="M110.59,91.61c2.36,2.82,6.44,1.6,7-2,.26.84.13,1.83-.34,2.64-1.41,2.76-5.89,2.38-6.66-.64h0Z"/>
      <path d="M121.59,88.61c.83,3.3,5.17,3.3,6,0,.22.79-.03,1.72-.61,2.39-1.87,2.35-6.08.61-5.39-2.39h0Z"/>
      <path d="M131.59,86.61c2.67.62,5.25-1.39,5.51-4.07,0,0,.98.16.98.16-.41,1.79,1.71,3.25,3.29,2.32.55-.27.98-.79,1.22-1.42-.53,3.89-6.17,2.68-5.49-1.1,0,0,.98.16.98.16-.25,3.04-3.66,5.49-6.49,3.93h0Z"/>
      <path d="M98.59,97.61c-.49,4.37,3.61,5.15,6,2-.17.88-.73,1.72-1.53,2.26-3.07,2.08-6.3-1.14-4.47-4.26h0Z"/>
      <path d="M90.59,103.61c1.67,2.35,4.29,1.87,6,0-.57,3.26-5.62,3.62-6,0h0Z"/>
      <path d="M98.59,104.61c1.67,1.98,3.77,2.18,6,1-1.28,2.67-5.75,2.03-6-1h0Z"/>
      <path d="M95.59,110.61c.53,3.12,1.84,3.4,4.28,1.63.6-.47,1.16-1.02,1.72-1.63-.2.81-.62,1.56-1.19,2.2-2.34,2.66-5.89,1.62-4.81-2.2h0Z"/>
      <path d="M110.59,97.61c2.38,2.66,5.63,1.85,7.15-1.11,0,0,.32.98.32.98.55,1.96,3,2.56,4.53,1.13-1.28,2.28-4.75,1.63-5.47-.87,0,0,.88.12.88.12-1.59,2.9-6.17,2.93-7.41-.26h0Z"/>
      <path d="M133.59,91.61c.26,4.04,4.6,5.11,7,2-.2.9-.81,1.74-1.66,2.24-2.89,1.83-6.5-1.05-5.34-4.24h0Z"/>
      <path d="M110.59,105.61c1.55,2.69,4.7,3.45,7,1-1.2,3.88-6.79,2.9-7-1h0Z"/>
      <path d="M120.59,108.61c2.12,1.93,5.1,2.55,7,0-.71,3.86-5.96,3.27-7,0h0Z"/>
      <path d="M130.59,105.61c2.37,4.05,4.58,3.07,5.96-.93.53-1.53.61-3.49.73-5.12,0,0,.74,1.87.74,1.87.57,1.59,2.36,2.49,4,1.99.56-.15,1.09-.44,1.57-.81-.74.96-2.01,1.62-3.34,1.49-1.36-.1-2.54-1.09-3.09-2.31,0,0,.89-.16.89-.16.2,4.9-4.75,11.42-7.46,3.98h0Z"/>
      <path d="M102.59,118.61c.91,2.44,4.64,5.45,6.74,2.74.88-1.22.78-3.19.84-4.66,0,0,.86,1.69.86,1.69,1.79,3.32,6.45,1.89,6.57-1.77.31,1.77-.81,3.71-2.57,4.27-1.83.64-3.98-.34-4.86-2.04,0,0,.92-.22.92-.22-.13,6.75-7.33,5.53-8.49,0h0Z"/>
      <path d="M126.59,114.61c1.08,3.93,6.22,3.41,5.53-.88,0,0,.95-.21.95-.21.18,1.07,1.3,1.92,2.45,1.74,1.24-.15,2.18-1.37,2.07-2.65.96,3.77-4.65,4.8-5.48,1.1,0,0,.95-.21.95-.21.25.96.13,2.03-.37,2.91-1.68,3.16-6.14,1.51-6.11-1.79h0Z"/>
      <path d="M104.59,127.61c2.35-.14,4.02-.72,6-2-.77,2.29-4.01,3.38-6,2h0Z"/>
      <path d="M116.59,123.61c.89,3.52,4.01,1.38,4.92-.92.69,1.09,1.84,1.91,3.19,1.47.99-.32,1.78-1.33,1.89-2.55.57,1.99-1.56,4.1-3.65,3.45-.68-.18-1.3-.59-1.74-1.14l.83-.08c-1.17,2.59-5.66,3.65-5.44-.24h0Z"/>
      <path d="M60.59,56.61c-.28,3.14.32,3.3,3.06,2.04.64-.32,1.27-.68,1.94-1.04-.39.66-.91,1.23-1.53,1.7-2.8,2.23-5.62.68-3.47-2.7h0Z"/>
      <path d="M68.59,58.61c-.76,4.11.7,4.87,4.39,3.42.89-.38,1.74-.88,2.61-1.42-.58.84-1.35,1.56-2.25,2.11-3.81,2.36-7.32.18-4.75-4.11h0Z"/>
      <path d="M66.59,64.61c-.69,3.66,1.69,3.66,4.5,2.9.83-.24,1.65-.57,2.5-.9-.62.68-1.38,1.23-2.22,1.63-3.05,1.61-7.13.19-4.78-3.63h0Z"/>
      <path d="M48.59,59.61c1.89,1.35,4.53.77,5.58-1.23,0,0,.86.43.86.43-.64,1.51-.55,3.37.69,4.54,1.24,1.22,3.15,1.58,4.87,1.26-4.15,1.95-8.5-1.85-6.44-6.2,0,0,.86.43.86.43-.36.58-.8,1.02-1.33,1.4-1.55,1.13-3.92.79-5.08-.63h0Z"/>
      <path d="M46.59,66.61c1.89,2.26,4.59,2.24,7,1-.38.61-.95,1.11-1.63,1.43-2.03,1.09-5-.06-5.37-2.43h0Z"/>
      <path d="M55.59,68.61c1.79,1.91,4.67,2.2,6.69.62,0,0,.66.73.66.73-1.06.97-.34,2.94,1.15,3.04.5.06,1.04-.07,1.5-.39-.32.47-.89.79-1.5.84-2.21.25-3.44-2.67-1.85-4.19,0,0,.66.73.66.73-.58.47-1.23.78-1.93.98-2.05.63-4.53-.45-5.38-2.36h0Z"/>
      <path d="M36.59,68.61c.66,4.53,5.16,5.14,8,2-.33.94-1.02,1.78-1.93,2.31-3.12,1.95-6.95-.74-6.07-4.31h0Z"/>
      <path d="M46.59,73.61c-.08.76-.22,1.54-.09,2.24.06.36.21.56.41.53,1.68-.43,2.97-2.01,4.33-3.13,0,0,1.51-1.37,1.51-1.37l-.71,1.9c-1.02,2.42,1.77,2.62,3.48,2.34.69-.09,1.36-.29,2.05-.5-.59.41-1.25.71-1.94.96-1.67.66-4.84.55-4.76-1.94.01-.42.11-.81.23-1.18l.81.53c-1.52,1.24-2.99,2.98-5.09,3.07-1.51-.43-.61-2.48-.25-3.43h0Z"/>
      <path d="M32.59,76.61c.7-.64,1.48-1.14,2.26-1.63l.13.58c.43,2.21,2.62,2.72,4.61,2.04-1.79,2.05-5.4.94-5.39-1.96,0,0,.57.31.57.31-.7.27-1.41.5-2.18.65h0Z"/>
      <path d="M36.59,82.61c2.47,1.99,5.6,1.95,8,0-1.35,3.27-6.64,3.27-8,0h0Z"/>
      <path d="M28.59,84.61c1.9,2.55,4.88,1.92,7,0-1.04,3.28-6.29,3.85-7,0h0Z"/>
      <path d="M31.59,91.61c2.78,2.73,6.73,1.58,8-2,.07.92-.2,1.89-.78,2.68-1.73,2.64-6.08,2.29-7.22-.68h0Z"/>
      <path d="M24.59,91.61c1.81-.24,2.68-.76,4-2,.2,1.95-2.54,3.4-4,2h0Z"/>
      <path d="M26.59,95.61c1.67,1.98,3.77,2.18,6,1-1.28,2.67-5.75,2.03-6-1h0Z"/>
      <path d="M18.59,99.61c1.67,1.98,3.77,2.18,6,1-1.28,2.67-5.75,2.03-6-1h0Z"/>
      <path d="M22.59,103.61c-.08,2.31-.28,3.48,2.34,2.04.54-.31,1.08-.67,1.66-1.04-.27.64-.69,1.2-1.21,1.67-2.7,2.37-4.79.12-2.79-2.67h0Z"/>
      <path d="M14.59,103.61c-.4,1.31.69,2.4,2,2-.29.96-1.7,1.06-2.35.35-.71-.65-.6-2.07.35-2.35h0Z"/>
      <path d="M203.59,48.61c2.09,3.38,3.59.74,3.52-1.97,0,0,.95-.13.95-.13.15.82.39,1.64.81,2.3.57.94,1.19.53,1.71-.21-.98,3.05-3.27-.25-3.47-1.9,0,0,.95-.13.95-.13.05.7.01,1.42-.2,2.11-.87,2.97-3.62,3.07-4.29-.08h0Z"/>
      <path d="M206.59,56.61c.61,2.17,2.51,3.27,4.42,2.33.59-.28,1.11-.73,1.58-1.33-.71,4.06-6.79,3.16-6-1h0Z"/>
      <path d="M206.59,66.61c1.67,2.35,4.29,1.87,6,0-.57,3.26-5.62,3.62-6,0h0Z"/>
      <path d="M212.59,62.61c-.18,3.33,2.9,4.9,5,2-.07.77-.52,1.53-1.22,2.01-2.52,1.82-5.39-1.65-3.78-4.01h0Z"/>
      <path d="M210.59,75.61c1.97.95,4.2-.84,3.53-2.85,0,0,.96-.27.96-.27.61,2.4,3.56,2.19,4.52.12-.44,3.14-4.72,3.26-5.48.12,0,0,.96-.27.96-.27.91,2.7-2.37,5.13-4.47,3.15h0Z"/>
      <path d="M201.59,84.61c.99,1.5,2.41,1.97,3.81,1.12.44-.26.82-.63,1.19-1.12-.03,3.29-5.08,3.38-5,0h0Z"/>
      <path d="M212.59,84.61c1.3,1.25,3.27.61,3.51-1.07,0,0,.24-1.59.24-1.59l.69,1.43c.68,1.46,2.43,1.11,3.56.22-.8,1.79-3.52,2.2-4.44.22,0,0,.93-.15.93-.15-.22,2.34-3.53,3.26-4.49.93h0Z"/>
      <path d="M207.59,90.61c1.11-.1,2.14.16,3.15.54l-.37.03c.69-.29,1.4-.53,2.22-.57-.56.68-1.22,1.12-1.93,1.52-1.12-.3-2.18-.72-3.07-1.52h0Z"/>
      <path d="M203.59,97.61c.99,1.5,2.41,1.97,3.81,1.12.44-.26.82-.63,1.19-1.12-.03,3.29-5.08,3.38-5,0h0Z"/>
      <path d="M212.59,97.61c2.68.06,4.76-.53,7-2-1.08,2.52-4.75,3.56-7,2h0Z"/>
      <path d="M196.59,106.61c2.37,1.5,5.53.37,6.55-2.19,0,0,.59-1.35.59-1.35l.33,1.42c.32,1.55,2.13,2.32,3.45,1.37.46-.28.81-.73,1.08-1.25-.5,3.09-4.69,3.23-5.48.12,0,0,.93.07.93.07-1.08,2.99-5.21,4.34-7.45,1.81h0Z"/>
      <path d="M113.59,17.61c.33-3.13,4.55-4.91,7-3-2.8-.32-5.26.69-7,3h0Z"/>
      <path d="M124.59,23.61c.33-3.13,4.55-4.91,7-3-2.8-.32-5.26.69-7,3h0Z"/>
      <path d="M133.59,30.61c1.08-2.52,4.75-3.56,7-2-2.68-.05-4.76.53-7,2h0Z"/>
      <path d="M141.59,39.61c1.81-1.71,4.78-2.14,7-1-2.49.28-4.53.56-7,1h0Z"/>
      <path d="M147.59,50.61c2.15-.38,3.84-.67,6-1-1.47,1.6-4.09,2.03-6,1h0Z"/>
      <path d="M150.59,62.61c2.17.66,3.83.66,6,0-1.27,1.99-4.72,1.98-6,0h0Z"/>
      <path d="M151.59,72.61c2.23-.11,3.86-.35,6-1-1.25,1.87-4.2,2.32-6,1h0Z"/>
      <path d="M151.59,81.61c2.17.66,3.83.66,6,0-1.27,1.99-4.72,1.98-6,0h0Z"/>
      <path d="M150.59,90.61c2.17.66,3.83.66,6,0-1.27,1.99-4.72,1.98-6,0h0Z"/>
      <path d="M147.59,98.61c2.16.34,3.85.61,6,1-1.91,1.04-4.53.6-6-1h0Z"/>
      <path d="M145.59,109.61c1.56.36,2.45.58,4,1-1.23,1.05-3.41.5-4-1h0Z"/>
      <path d="M154.59,110.61c2.15-.38,3.84-.67,6-1-1.47,1.6-4.09,2.03-6,1h0Z"/>
      <path d="M158.59,99.61c2.17.66,3.83.66,6,0-1.27,1.99-4.72,1.98-6,0h0Z"/>
      <path d="M160.59,90.61c2.17.66,3.83.66,6,0-1.27,1.99-4.72,1.98-6,0h0Z"/>
      <path d="M162.59,81.61c1.81-.49,3.14-.77,5-1-1.13,1.48-3.39,1.93-5,1h0Z"/>
      <path d="M161.59,71.61c2.47.25,4.56.54,7,1-2.28.95-5.08.55-7-1h0Z"/>
      <path d="M161.59,62.61c2.15-.38,3.84-.67,6-1-1.47,1.6-4.09,2.03-6,1h0Z"/>
      <path d="M158.59,49.61c2.15-.38,3.84-.67,6-1-1.47,1.6-4.09,2.03-6,1h0Z"/>
      <path d="M153.59,37.61c.48-2.03,3.26-3.2,5-2-2.02.34-3.27.91-5,2h0Z"/>
      <path d="M144.59,25.61c1.47-1.6,4.09-2.04,6-1-2.15.39-3.84.66-6,1h0Z"/>
      <path d="M134.59,17.61c.77-2.28,4.01-3.38,6-2-2.35.15-4.03.71-6,2h0Z"/>
      <path d="M123.59,11.61c1.26-1.86,4.2-2.33,6-1-2.23.12-3.87.35-6,1h0Z"/>
      <path d="M134.59,7.61c2.14-1.83,5.47-2.24,8-1-2.83.17-5.22.46-8,1h0Z"/>
      <path d="M146.59,15.61c1.81-1.71,4.78-2.14,7-1-2.49.28-4.53.56-7,1h0Z"/>
      <path d="M156.59,23.61c1.26-1.86,4.2-2.33,6-1-2.23.12-3.87.35-6,1h0Z"/>
      <path d="M163.59,33.61c1.28-1.98,4.73-1.99,6,0-2.17-.66-3.83-.66-6,0h0Z"/>
      <path d="M170.59,49.61c1.89-.26,3.15-.5,5-1-.93,1.69-3.49,2.19-5,1h0Z"/>
      <path d="M172.59,60.61c1.81-.49,3.14-.77,5-1-1.13,1.48-3.39,1.93-5,1h0Z"/>
      <path d="M172.59,70.61c2.49.67,4.52.69,7,0-1.68,2.03-5.31,2-7,0h0Z"/>
      <path d="M172.59,79.61c2.02-.59,3.87-.8,6-1-1.59,1.5-4.02,1.8-6,1h0Z"/>
      <path d="M171.59,89.61c2.16.34,3.85.61,6,1-1.91,1.04-4.53.6-6-1h0Z"/>
      <path d="M169.59,98.61c1.86.74,3.12.66,5,0-.84,1.97-4.17,2.05-5,0h0Z"/>
      <path d="M166.59,107.61c2.17.66,3.83.66,6,0-1.27,1.99-4.72,1.98-6,0h0Z"/>
      <path d="M176.59,106.61c1.88.67,3.13.74,5,0-.82,2.06-4.16,1.96-5,0h0Z"/>
      <path d="M179.59,98.61c1.86.24,3.19.51,5,1-1.61.94-3.87.47-5-1h0Z"/>
      <path d="M181.59,89.61c1.86.74,3.12.66,5,0-.84,1.97-4.17,2.05-5,0h0Z"/>
      <path d="M182.59,79.61c2.44-.45,4.53-.76,7-1-1.92,1.55-4.72,1.95-7,1h0Z"/>
      <path d="M182.59,69.61c2.78-.37,5.21-.68,8-1-2.26,1.64-5.41,2.03-8,1h0Z"/>
      <path d="M182.59,59.61c2.48.69,4.51.67,7,0-1.69,2.01-5.32,2.02-7,0h0Z"/>
      <path d="M180.59,48.61c1.03-.36,2.42-.46,3.48-.65,1.15-.15,2.27-.34,3.52-.35-1.99,1.47-4.69,1.79-7,1h0Z"/>
      <path d="M175.59,33.61c2.06-2.09,5.93-2.05,8,0-2.8-.7-5.2-.76-8,0h0Z"/>
      <path d="M168.59,23.61c1.08-2.52,4.75-3.56,7-2-2.68-.05-4.76.53-7,2h0Z"/>
      <path d="M159.59,12.61c2.22-1.14,5.19-.72,7,1-2.47-.43-4.51-.73-7-1h0Z"/>
      <path d="M149.59,6.61c1.68-2.02,5.31-2.01,7,0-2.49-.67-4.52-.69-7,0h0Z"/>
      <path d="M163.59,6.61c.38-1.96,3.63-1.96,4,0-1.42-.64-2.5-.68-4,0h0Z"/>
      <path d="M172.59,12.61c1.28-1.98,4.73-1.99,6,0-2.17-.66-3.83-.66-6,0h0Z"/>
      <path d="M181.59,21.61c1.34-2.56,5.38-1.58,6,1-1.8-1.41-3.78-2.12-6-1h0Z"/>
      <path d="M188.59,32.61c.84-1.96,4.18-2.06,5,0-1.87-.74-3.12-.67-5,0h0Z"/>
      <path d="M192.59,46.61c1.99-.68,4.01-.69,6,0-1.99.69-4.01.68-6,0h0Z"/>
      <path d="M194.59,58.61c1.86.74,3.12.66,5,0-.84,1.97-4.17,2.05-5,0h0Z"/>
      <path d="M194.59,68.61c2.15-.38,3.84-.67,6-1-1.47,1.6-4.09,2.03-6,1h0Z"/>
      <path d="M193.59,78.61c1.88.67,3.13.74,5,0-.82,2.06-4.16,1.96-5,0h0Z"/>
      <path d="M192.59,89.61c1.86.74,3.12.66,5,0-.84,1.97-4.17,2.05-5,0h0Z"/>
      <path d="M189.59,97.61c1.88.67,3.13.74,5,0-.82,2.06-4.16,1.96-5,0h0Z"/>
      <path d="M186.59,105.61c2.17.66,3.83.66,6,0-1.27,1.99-4.72,1.98-6,0h0Z"/>
      <path d="M193.59,117.61c.61,1.46,1.98,1.89,3.14,1.14.35-.25.65-.61.86-1.14.48,1.2-.73,2.55-2,2.5-1.27.04-2.47-1.3-2-2.5h0Z"/>
      <path d="M197.59,121.61c1.67.98,2.94.58,4-1,.58,2.51-3.38,3.55-4,1h0Z"/>
      <path d="M206.59,116.61c1.05,1.58,2.33,1.98,4,1-.62,2.55-4.58,1.51-4-1h0Z"/>
      <path d="M204.59,123.61c.98.38,1.93,1.21,2.78,1.58-.04.02-.06.08-.03.05.02-.03.06-.12.08-.21.08-.4.08-.9.17-1.42.39.54.75,1.23.57,1.95-.89,1.77-3.24-.9-3.57-1.95h0Z"/>
      <path d="M175.59,121.61c1.05,1.58,2.33,1.98,4,1-.62,2.55-4.58,1.51-4-1h0Z"/>
      <path d="M171.59,124.61c.73.32,1.19.56,2,1-.62,1.11-2.49.15-2-1h0Z"/>
      <path d="M136.59,128.61c.44,1.16,1.03,2.13,2.19,1.04.29-.26.54-.61.81-1.04.3.95-.27,2.26-1.56,2.51-1.31.2-2.02-1.52-1.44-2.51h0Z"/>
      <path d="M127.59,130.61c.71,1.95,1.97,2.13,3.62,1.1.47-.3.91-.67,1.38-1.1-.44,3.11-5.62,4.01-5,0h0Z"/>
      <path d="M124.59,137.61c1.71-.07,3.02-.7,4.12-1.76,0,0,.31.51.31.51.74,1.25,2.16,1.49,3.57,1.26-1.27,1.17-3.59.84-4.43-.74,0,0,.75.12.75.12-1.19,1.03-3,1.33-4.32.62h0Z"/>
      <path d="M135.59,135.61c-.26.6-.63,1.16-.59,1.73.19.29.75.3,1.21.34.42,0,.87-.03,1.38-.06-.32.4-.76.68-1.26.83-2.58.71-3.1-2-.74-2.83h0Z"/>
      <path d="M126.59,140.61c1.23.66,1.63.73,3,1-.79,1.31-3.18.56-3-1h0Z"/>
      <path d="M90.59,128.61c1.39,1.73,3.06,2.09,5,1-.94,2.6-5.1,1.75-5-1h0Z"/>
      <path d="M87.59,131.61c-.02,1,.05,1.9,1.09,2.17.94.29,1.91.07,2.91-.17-1.58,2.43-6.21.96-4-2h0Z"/>
      <circle class="cls-3" cx="57.22" cy="91.31" r="9.86"/>
      <circle class="cls-10" cx="57.52" cy="91.09" r="7.59"/>
      <circle cx="56.96" cy="91.18" r="4.6"/>
      <circle class="cls-9" cx="61.87" cy="86.61" r="3.11"/>
    </g>
  </g>
</svg>