<?xml version="1.0" encoding="UTF-8"?>
<svg id="Layer_2" data-name="Layer 2" xmlns="http://www.w3.org/2000/svg" viewBox="0 0 271.17 283.39">
  <defs>
    <style>
      .cls-1 {
        fill: #402610;
      }

      .cls-2 {
        fill: #fff;
      }

      .cls-3 {
        fill: none;
      }

      .cls-4 {
        fill: #333;
      }

      .cls-5 {
        fill: #fec766;
      }

      .cls-6 {
        fill: #f2b95a;
      }

      .cls-7 {
        fill: #cc8f2b;
      }
    </style>
  </defs>
  <g id="Layer_1-2" data-name="Layer 1">
    <g>
      <path class="cls-5" d="M46.14,3.12c-.34-.37-3.6-3.81-7-3-3.98.95-5.01,6.99-5,10,.01,3.21,1.22,5.69,2,7"/>
      <path class="cls-7" d="M70.14,14.12c-.28-1.39-1.44-6.24-6-10C59.57.34,54.56.13,53.14.12c2,1.33,4,2.67,6,4-1.47-.61-5.26-1.94-10-1-5.74,1.14-9.06,4.86-10,6,1.17-.35,2.88-.77,5-1,.88-.09,1.95-.2,2,0,.09.35-3.05.97-6,3-1.89,1.3-3.17,2.82-4,4,.59-.56,1.96-1.7,4-2,.77-.11,1.46-.08,2,0-1.4.46-4.62,1.74-7,5-1.07,1.46-1.66,2.9-2,4"/>
      <path class="cls-5" d="M31.14,57.12c4.09,2.61,20.35,12.34,38,7,4.03-1.22,12-3.63,16-11,5.86-10.79-1.53-23.47-3-26-7.68-13.18-23.48-19.83-31-17-3.66,1.38-7,4-7,4-3.01,2.36-3.21,3.55-5,5-3.81,3.08-7.26,1.2-18,2-10.7.79-13.16,3.1-14,4-2.3,2.48-2.88,5.71-3,8-1.19,3.72-2.23,6.78-3,9-.99,2.85-1.38,3.85-1,5,1.09,3.29,7.26,3.87,9,4,.15,1.07,1.28,8.37,6,10,1.96.68,3.97.12,8-1,3.39-.94,6.11-2.09,8-3Z"/>
      <path class="cls-5" d="M105.14,164.12c.38,2.05,1.18,4.95,3,8,.98,1.64,2.04,2.97,3,4,1.67,8,3.33,16,5,24-.46.49-3.69,4.03-3,9,.44,3.2,2.27,5.26,3,6-.42,6.08-1.06,14.57-2,25-.65,7.23-1.19,12.37-5,15-3.4,2.35-6.63.73-8,3-2.03,3.36,2.25,11.41,8,13,1.18.33,2.78.22,6,0,4.26-.29,6.43-.46,8-2,1.88-1.84,1.97-4.45,2-5,.16-3.12-1.66-5.51-2-6-2.12-3.07-2.91-13.48,1-42,.64-.51,3.44-2.88,4-7,.68-5.05-2.57-8.55-3-9,3.71-8.98,7.25-20.86,8-35,.21-3.88.18-7.55,0-11"/>
      <path class="cls-5" d="M78.14,59.12c-2.17,5.84-5.11,16.38-3,29,.8,4.77,3.54,21.2,12,23,7.81,1.66,16.94-9.9,21-17,8.17-14.3,3.01-23.19,13-35,2.41-2.85,6.85-7.94,13-8,5.97-.05,10.67,4.67,13,7,3.96,3.98,4.03,6.4,9,13,2.76,3.66,5.34,6.37,7,8,2.77-1.82,7.02-5.01,11-10,5.51-6.92,5.21-10.69,11-18,4.37-5.52,8.22-10.38,14-11,9.16-.99,16.78,9.35,18,11,6.33,8.59,3.52,13.81,9,24,5.17,9.63,9.61,8.55,16,17,12,15.86,9.91,37.53,9,47-1.43,14.91-5.61,19.17-5,34,.26,6.45,1.47,15.91,8,23,1.28,1.4,1.29,1.09,2,2,5.62,7.23-2.85,16.16-5,35-1.53,13.4-2.46,21.59,1,29,.46.98,1.64,3.33,1,6-1.11,4.62-7.26,8.31-13,8-7.13-.39-13.53-6.96-13-12,.32-3.07,3.09-4.4,6-7,9.02-8.05,10.62-20.37,12-31,1.32-10.16,2.46-18.98-2-28-5.31-10.74-13.43-11.42-20-24-3.42-6.55-4.57-12.77-5-17-2.75,3.02-19.11,20.39-46,21-27.8.63-45.27-17.12-48-20-3.52,1.99-8.97,4.58-16,6-16.21,3.27-36.41-.57-50-14-13.15-12.99-14.57-29.46-16-46-1.52-17.64,1.46-32.08,4-41,2.78.96,6.53,1.89,11,2,10.08.24,17.63-3.87,21-6Z"/>
      <path class="cls-5" d="M120.14,107.12c-13.66,18.31-16.45,40.46-7,56,4.81,7.91,11.79,12.46,17,15,1.67,8,3.33,16,5,24-.45.38-4.24,3.67-4,9,.21,4.75,3.46,7.55,4,8,2.22,7.36,2.85,13.63,3,18,.31,9.12.57,16.66-4,23-4.47,6.2-9.75,5.99-10,10-.3,4.85,7.13,10.06,14,11,4.13.56,11.04-.01,13-4,1.26-2.56.13-5.82-2-12-1-2.9-1.97-4.94-2-5-2.07-4.35-3.61-15.54-3-42,.92-.75,2.22-2.04,3-4,2.14-5.38-1.69-10.59-2-11,1-9.67,2-19.33,3-29,2.1-1.92,5.09-5.27,6-10,.33-1.73.57-4.59-4-18-2.8-8.22-3.85-9.96-4-14-.17-4.65,1-8.5,2-11"/>
      <path class="cls-5" d="M196.35,172.06c.25,2.35.92,6.06,2.95,10.02,4.52,8.79,10.73,8.95,13.92,15.07,1,1.93,1.2,3.47-5.15,27.97-4.3,16.58-5.99,22.06-11.13,24.94-2,1.12-4.5,1.84-5.02,3.97-.79,3.24,3.6,7.18,6.95,9.04,4.37,2.42,12.75,4.5,16,.08,1.69-2.3.24-5.12-.94-11.01,0,0-1.95-9.69-.89-20,1.81-17.7,16.57-25.2,12.18-34.94-.59-1.32-.85-1.16-1.98-3.01-5.06-8.28-3.82-17.93-1.87-25.01-.72-2.06-1.4-4.4-1.96-7.01-.46-2.15-.77-4.16-.97-6.01-2.49,2.72-5.81,5.88-10.05,8.95-4.4,3.19-8.58,5.4-12.04,6.94Z"/>
      <path class="cls-6" d="M217.84,157.9c11.43-14.98,12.9-36.1,4.3-52.78,6.51,12.44,7.81,27.6,2.89,40.82-1.61,4.41-3.84,8.59-6.59,12.4l-.61-.44h0Z"/>
      <path class="cls-5" d="M244.14,96.12c1.5.54,2.83,1.23,4,2,14.78,9.78,10.64,37.98,10,42,1.94.61,4.56,1.76,7,4,5.5,5.04,5.92,11.74,6,13,.18,3-.46,5.47-1,7l-3-6c.43,1.91.79,4.77,0,8-.72,2.94-1.84,3.91-2,6-.16,2.03.59,5.04,5,9-.7-.05-5.73-.5-9-5-3.23-4.45-2.17-9.3-2-10-2.79,3.44-3.74,4.17-4,4-.39-.25,1.25-2.25,1-5-.23-2.48-1.78-3.2-3-6-1.11-2.54-1.05-4.78-1-7,.14-5.8,2.69-10.1,4-12,.66-4.38,1.16-11.58-1-20-1.56-6.06-3.99-10.77-6-14-1.67-3.33-3.33-6.67-5-10Z"/>
      <path class="cls-7" d="M119.14,273.12c1.9-2.78-2.23-10.84-8-12-1.11-.22-2.13-.16-3,0,.06-2.02-.69-2.76-1-3-1.76-1.39-5.29.62-7,2-3.33,2.69-5.37,7.53-4,9,.45.49,1.47.81,4,0-.78,2.19-.43,3.36,0,4,.99,1.46,3.16,1.27,10,1,7.72-.3,8.45-.2,9-1Z"/>
      <path class="cls-3" d="M100.14,269.12c.31-1.02,1.09-3.09,3-5,.76-.76,2.41-2.21,5-3"/>
      <path class="cls-7" d="M147.14,281.12c1.79-3.04-1.79-9.64-7-12-1.92-.87-3.74-1.02-5-1-.88-.45-2.28-1.02-4-1-6.77.07-12.7,9.17-11,12,.49.82,1.89,1.56,6,1-.2.57-.34,1.34,0,2,.8,1.52,3.72,1.42,9,1,7.57-.6,11.37-.93,12-2Z"/>
      <path class="cls-3" d="M135.14,268.12c-1.14.36-3.8,1.38-6,4-2.74,3.26-2.97,6.88-3,8"/>
      <path class="cls-7" d="M249.27,275.66c1.79-3.04-1.79-9.64-7-12-1.92-.87-3.74-1.02-5-1-.88-.45-2.28-1.02-4-1-6.77.07-12.7,9.17-11,12,.49.82,1.89,1.56,6,1-.2.57-.34,1.34,0,2,.8,1.52,3.72,1.42,9,1,7.57-.6,11.37-.93,12-2Z"/>
      <path class="cls-3" d="M237.27,262.66c-1.14.36-3.8,1.38-6,4-2.74,3.26-2.97,6.88-3,8"/>
      <path class="cls-7" d="M210.05,267.15c1.9-2.78-2.23-10.84-8-12-1.11-.22-2.13-.16-3,0,.06-2.02-.69-2.76-1-3-1.76-1.39-5.29.62-7,2-3.33,2.69-5.37,7.53-4,9,.45.49,1.47.81,4,0-.78,2.19-.43,3.36,0,4,.99,1.46,3.16,1.27,10,1,7.72-.3,8.45-.2,9-1Z"/>
      <path class="cls-3" d="M191.05,263.15c.31-1.02,1.09-3.09,3-5,.76-.76,2.41-2.21,5-3"/>
      <path d="M9.14,51.12c11.32,2.13,23-3.05,30-12-6.74,9.17-18.71,14.47-30,12h0Z"/>
      <path class="cls-5" d="M70.14,18.12c.03-.62.41-5.98,5-9,3.63-2.39,8.99-2.71,12,0,4.5,4.05,2.52,13.78-3,17-2.65,1.54-5.54,1.26-7,1"/>
      <path class="cls-1" d="M12.14,34.12c-.78-.69,0-3.54,2-5,2.34-1.71,5.69-1.03,6,0,.51,1.7-6.63,6.22-8,5Z"/>
      <path class="cls-1" d="M5.14,28.12c.62.18,1.98.68,3,2,1,1.29,1.68,3.38,1,4-.68.62-2.71-.25-5-2,.33-1.33.67-2.67,1-4Z"/>
      <path class="cls-3" d="M31.14,57.12c1.08-.36,2.51-.97,4-2,1.98-1.37,3.25-2.92,4-4"/>
      <circle class="cls-2" cx="52.44" cy="29.73" r="11.18"/>
      <circle class="cls-4" cx="52.79" cy="29.52" r="8.61"/>
      <circle cx="52.15" cy="29.56" r="5.22"/>
      <circle class="cls-2" cx="58.12" cy="24.85" r="3.53"/>
      <path class="cls-6" d="M46.64,63.62c3.55.74,8.35,1.36,14,1,7.31-.46,13.15-2.38,17-4-10.59,9.61-21.92,12.65-27.5,8.5-1.13-.84-2.6-2.41-3.5-5.5Z"/>
      <path class="cls-6" d="M148.64,141.62c3.37,7.12,4.54,13.14,5,17,.57,4.78.18,7.52-1,10-1.16,2.43-2.83,4.05-4,5,1.33.67,2.67,1.33,4,2,1.08-2.09,2.53-5.53,3-10,.51-4.81-.37-8.48-1-11-.75-3.01-2.35-7.83-6-13Z"/>
      <path class="cls-6" d="M105.64,164.62c.8.11,1.83.16,3,0,2.36-.32,4.07-1.34,5-2,.89,2.16,2.41,5.09,5,8,4.34,4.89,9.33,7.06,12,8,.33,1.06.63,2.49,0,3-.98.79-3.66-1.06-5-2-2.88-2.02-7.23-5.78-12-13-.8.18-2.25.39-4,0-2.01-.45-3.36-1.45-4-2Z"/>
      <path class="cls-6" d="M114.75,165.44c-3-3.83-5.33-8.16-6.93-12.73-1.59-4.58-2.41-9.41-2.43-14.24.03-2.42.2-4.83.6-7.21.42-2.38,1.01-4.72,1.8-7,1.58-4.55,3.9-8.84,6.85-12.63-2.88,3.84-5.12,8.16-6.61,12.71-.74,2.28-1.29,4.61-1.66,6.98-.36,2.37-.49,4.76-.47,7.15.1,4.78.99,9.52,2.63,14,1.65,4.47,4.02,8.67,7.01,12.36l-.78.62Z"/>
      <path class="cls-6" d="M196.14,172.12c3.77-1.22,8.79-3.31,14-7,3.34-2.36,5.97-4.82,8-7,.16,1.75.45,3.78,1,6,.57,2.32,1.29,4.33,2,6-.33,1-.67,2-1,3-.92-1.06-2.12-2.72-3-5-.58-1.52-.86-2.9-1-4-1.29,1.51-3.24,3.41-6,5-5.81,3.35-11.54,3.21-14,3Z"/>
    </g>
  </g>
</svg>