<?xml version="1.0" encoding="UTF-8"?>
<svg id="Layer_2" data-name="Layer 2" xmlns="http://www.w3.org/2000/svg" viewBox="0 0 247.09 297.14">
  <defs>
    <style>
      .cls-1 {
        fill: #6e7072;
      }

      .cls-2 {
        fill: #fff;
      }

      .cls-3 {
        fill: #4a4b4c;
      }

      .cls-4 {
        fill: none;
      }

      .cls-5 {
        fill: #404040;
      }

      .cls-6 {
        fill: #d4d5d6;
      }

      .cls-7 {
        fill: #333;
      }

      .cls-8 {
        fill: #939598;
      }
    </style>
  </defs>
  <g id="Layer_1-2" data-name="Layer 1">
    <g>
      <path class="cls-5" d="M138.78,271.09c-.39.69-2.55,4.47-1,7,.54.89,1.73,1.92,12,2,9.78.08,11.29-.84,12-2,1.02-1.66.38-3.75,0-5-1.21-3.97-4.92-7.07-9-8-5.56-1.27-11.47,1.56-14,6Z"/>
      <path class="cls-5" d="M188.78,276.09c-4.45,5.88-3.29,8.46-3,9,.58,1.08,1.89,1.98,16,2,8.79.01,10.99-.33,12-2,1.31-2.16-.1-5.33-1-7"/>
      <path class="cls-5" d="M67.78,280.09c-.5.64-3.23,4.24-2,7,1.4,3.15,7,3.05,10,3,7-.12,12.82-3.03,17-6"/>
      <path class="cls-1" d="M65.78,204.09c1.07,8.56,2.7,15.36,4,20,3.55,12.68,6.95,17.66,6,27-.59,5.81-2.64,11.09-3,12-3.69,9.35-8.62,13.01-7,16,1.24,2.3,5.51,2.64,10,3,3.52.28,3.75-.3,7,0,6.34.58,8.08,3.03,10,2,.58-.31,3.09-1.96,1-15-1.49-9.28-3.66-14.1-5-19-1.62-5.94-2.78-14.83,0-27"/>
      <path class="cls-1" d="M157.78,215.09c-.75,4.3-.98,9.57,2,12,2.05,1.67,3.76.48,6,2,4.55,3.09,4.61,12.85,2,20-2.02,5.52-4.11,5.33-5,10-1.41,7.41,3.05,12.12,1,14-2.13,1.95-6.56-3.47-15-3-5.27.29-8.27,2.66-10,1-.79-.76-1.21-2.25,0-7,1.59-6.24,3.79-9.46,6-14,2.92-6,5.41-11.12,5-17-.37-5.39-3.04-9.54-5-12"/>
      <path class="cls-8" d="M202.78,180.09c1.62-.39,3.4,7.14,9,15,5.54,7.77,12.32,12.38,17,15-.67,1-1.33,2-2,3-7.24-2.74-12.14-6.46-15-9-3.47-3.08-7.15-6.43-9-12-1.8-5.43-1.42-11.66,0-12Z"/>
      <path class="cls-1" d="M53.78,58.09c.31-3.86.04-9.19-3-14-.59-.94-1.98-2.95-12-10-8.68-6.11-9.2-5.7-13-9-6.15-5.34-7.16-8.47-9-8-3.23.83-4.12,11.46-2,20,2.1,8.48,6.94,13.91,9,16,5.67,5.75,11.9,8.07,15,9"/>
      <path class="cls-1" d="M54.22,59.58c-7.82.89-21.25,5.07-23.43,13.5-.92,3.53.6,6.04-1,14-.83,4.12-1.28,6.21-3,8-2.64,2.73-5.48,2.16-11,5-2.72,1.4-4.73,2.93-6,4-3.77-.47-7.42,1.56-9,5-1.56,3.4-.75,7.45,2,10-.21,1-1.19,6.08,2,11,2.75,4.25,6.85,5.65,8,6,1.8,1.91,4.76,4.66,9,7,3.88,2.15,12.43,6.88,22,4,7.11-2.14,11.27-7.43,13-10,1.27,1.98,2.94,5.03,4,9,1.82,6.83.6,11.81,0,18,0,0-.99,10.28,1,23,1.43,9.15,2.77,17.67,9,25,6.24,7.34,14.16,9.68,22,12,15.67,4.63,28.84,2.39,37,1,7.02-1.19,17.15-3.02,28-10,3.93-2.53,6.93-5.07,9-7,.44,5.74,2.26,9.52,4,12,3.89,5.56,7.92,5.39,14,12,3.01,3.27,5.8,6.32,7,11,1.64,6.43-.54,12.8-3,20-2.41,7.05-4.51,9.82-3,12,1.2,1.73,3.09.8,10,2,7.33,1.27,9.43,3.06,14,2,1.4-.32,4.26-.99,5-3,.79-2.16-1.5-4.09-3-7-2.8-5.43.24-8.2,0-20-.13-6.2-.27-13.17-4-15-2.75-1.35-5.03,1.28-8,0-4.48-1.93-4.9-10.31-5-13-.47-12.07,4.64-16.35,7-27,.4-1.8,4.76-22.85-7-36-7.29-8.16-17.7-9.83-25-11-12.51-2.01-15.22,1.6-33,2-15.89.36-28.15.63-36-7-2-1.94-4.69-5.35-8-27-4.66-30.47-1.33-36.91-8-45-10.33-12.53-29.46-10.63-30.57-10.5Z"/>
      <path class="cls-6" d="M21.78,25.09c1.3-.28,1.89,5.01,7,12,5.56,7.6,14.99,15.19,16,16,2.68,2.14,4.28,3.2,4,4-.57,1.61-8.59,1.46-15-2-8.71-4.7-11.37-13.84-12-16-1.89-6.48-1.49-13.68,0-14Z"/>
      <path class="cls-5" d="M97.78,136.09c3.47,2.2,7,2,7,2,3.47-.2,5.96-2.09,7-3-1-.22-2.58-.73-4-2-2.95-2.65-2.99-6.68-3-8-.05-5.22,2.8-6.38,3-11,.09-2.09-.34-5.16-3-9,.86.32,3.81,1.3,7,0,1.39-.56,2.38-1.38,3-2-4.05-1.47-6.04-3.65-7-5-2.21-3.08-2.52-6.62-3-12-.47-5.26.14-6.5-1-9-1.42-3.12-4.07-4.96-6-6,.59-.08,2.42-.42,4-2,.42-.42,1.68-1.79,2-4-1.53.46-3.77.85-6,0-2.94-1.12-3.89-3.62-6-6-2.77-3.13-5.96-4.24-11-6-8.73-3.05-12.11-.72-20-4-3.23-1.35-5.62-2.96-7-4,.67,1.67,1.33,3.33,2,5-5.53-.03-8.91,1.53-11,3-2.74,1.93-3.66,4.01-7,5-3.25.96-5.29-.14-6,1-.92,1.49,1.52,4.99,4,7,4.58,3.72,10.49,3.33,13,3-.36,2.78-.62,5.84,0,6,.56.15.97-2.3,3-4,2.51-2.1,4.77-.77,11-2,3.05-.6,7.22-1.47,8-4,.44-1.43-.52-2.39,0-3,1.18-1.39,7.97,1.32,12,5,5.15,4.7,6.04,11.22,7,25,1.77,25.22,1.36,39.79,8,44Z"/>
      <path class="cls-1" d="M79.78,69.09c1.84-3.69,4.04-9.13,5-16,.75-5.37,2.65-18.86-5-28-3.27-3.91-4.57-2.58-12-8C54.95,7.73,52.33-.96,48.78.09c-3.8,1.12-4.41,12.14-3,20,.45,2.49,2.53,14.11,12,23,5.21,4.89,9.63,6.11,12,12,1.53,3.81,1.37,7.49,1,10"/>
      <path class="cls-6" d="M77.78,59.09c.37-.09.94-13.29-7-25-3.39-5-6.08-6.4-11-14-2.89-4.46-4.82-8.39-6-11-1.06,3.47-2.56,10.39,0,18,2.82,8.38,9.23,13.64,11,15,3.58,2.76,5.34,2.88,8,6,4.46,5.23,4.75,11.06,5,11Z"/>
      <path class="cls-6" d="M63.78,197.09c1.02-1.61,3.22-4.51,7-6,6.11-2.41,12.09.56,15,2,5.25,2.6,7.72,5.84,10,8,13.03,12.35,38.43,7.16,49,5,5.12-1.04,12.5-3.01,21-7,.33,3,.67,6,1,9-4.39,3.66-11.78,9.06-22,13-25.37,9.78-62.19,8.27-76-12-3.23-4.74-4.47-9.43-5-12Z"/>
      <path class="cls-5" d="M100.78,287.09c-2.11,2.07-3.34,5.81-2,8,.64,1.04,1.86,1.75,11,2,11.6.32,13.36-.72,14-2,.6-1.2.16-2.53,0-3-2.16-6.52-17.24-10.65-23-5Z"/>
      <path class="cls-1" d="M134.78,194.09c1.98,10.33.05,16.93-2,21-3.81,7.57-9.33,8.91-12,17-1.58,4.79-1.05,8.55,0,16,1.83,12.95,5.63,16.2,7,29,.46,4.28,1.44,13.46-2,15-2.54,1.14-4.5-3.21-11-4-5.62-.68-8.24,2.08-12,0-.37-.2-3.39-1.93-4-5-1.02-5.12,5.88-7.82,9-16,1.44-3.78,1.29-6.85,1-13-.47-9.9-2.8-16.86-5-24-2.09-6.77-4.95-16.58-8-29"/>
      <path class="cls-4" d="M167.78,189.09c-.86,2.28-1.85,5.72-2,10-.13,3.72.43,6.81,1,9"/>
      <path class="cls-5" d="M228.78,210.09c2.31.95,5.53,2.5,9,5,3.73,2.68,6.4,4.61,8,8,2.48,5.26.82,10.77,0,13-.67-1.33-1.33-2.67-2-4-.21,1.37-.83,4.21-3,7-2.53,3.26-5.7,4.55-7,5,1.01-2.53,2.12-6.34,2-11-.28-10.86-7.07-18.08-9-20,.67-1,1.33-2,2-3Z"/>
      <path class="cls-6" d="M56.38,136.8c3.09-4.23,5.2-9.02,6.52-14.09.7-2.56,1.87-5.05,3.6-7.1,1.75-2.02,3.84-3.62,5.87-5.33,7.35-6.1,13.37-5.86,13.93-17.34.11-2.62-.11-5.25-.52-7.85.45,2.59.72,5.22.65,7.85-.42,11.62-6.4,11.45-13.74,17.72-4.07,3.3-7.95,6.92-9.07,12.26-1.25,5.13-3.35,10.13-6.43,14.46,0,0-.81-.58-.81-.58h0Z"/>
      <path class="cls-6" d="M24.78,97.09c2.03,1.06,5.1,2.39,9,3,6.11.96,7.44-.91,12,0,7.9,1.58,12.67,8.95,14,11,2.54,3.92,3.55,7.67,4,10-.39,2.8-1.34,7.25-4,12-1.65,2.95-7.16,12.78-18,15-8.38,1.71-15.38-2.05-19-4-4.8-2.58-8.06-5.78-10-8-1.15-.35-5.25-1.75-8-6-3.19-4.92-2.21-10-2-11-2.76-3.2-3.12-7.72-1-11,2.65-4.1,7.74-4.01,8-4,1.49-1.26,3.48-2.71,6-4,3.46-1.77,6.66-2.59,9-3Z"/>
      <path class="cls-2" d="M12.78,136.09c-.7,2.78.08,5.54,2,7,2.6,1.98,6.71,1.09,7,0,.19-.7-1.29-1.16-2-3-.56-1.45-.33-2.92,0-4"/>
      <path class="cls-2" d="M19.16,137c-.08.65-.18,2.25.71,3.94.29.55.98,1.88,2.5,2.6,2.08.99,4.95.46,5.91-1.06.35-.56.21-.9.45-3.13.15-1.35.33-2.44.45-3.13"/>
      <path class="cls-1" d="M12.78,136.09c17.37,1.04,33.04-2.56,44-17-1.1,1.76-2.38,3.41-3.75,4.98-9.8,11.35-26.01,14.29-40.25,12.02h0Z"/>
      <path class="cls-1" d="M27.78,121.09c-2.78-9.62,7.65-17.57,16.23-12.41,1.05.66,2.01,1.46,2.77,2.41-1.83-1.61-4.05-2.68-6.38-3.01-7.51-1.25-13.77,5.63-12.62,13.01h0Z"/>
      <path class="cls-3" d="M34.78,118.09c-.59-1.01.78-2.97,2-4,2.36-2,6.25-2.28,7-1,.59,1.01-.78,2.97-2,4-2.36,2-6.25,2.28-7,1Z"/>
      <circle class="cls-2" cx="62.02" cy="87.57" r="12.04"/>
      <circle class="cls-7" cx="61.78" cy="87.2" r="9.27"/>
      <circle cx="61.85" cy="87.88" r="5.62"/>
      <circle class="cls-2" cx="56.51" cy="81.68" r="3.8"/>
      <circle class="cls-2" cx="37.56" cy="85.84" r="9.67"/>
      <circle class="cls-7" cx="37.36" cy="85.55" r="7.44"/>
      <circle cx="37.42" cy="86.1" r="4.51"/>
      <circle class="cls-2" cx="33.14" cy="81.11" r="3.05"/>
    </g>
  </g>
</svg>