<?xml version="1.0" encoding="UTF-8"?>
<svg id="Layer_2" data-name="Layer 2" xmlns="http://www.w3.org/2000/svg" viewBox="0 0 135.57 102.4">
  <defs>
    <style>
      .cls-1 {
        fill: #fff;
      }

      .cls-2 {
        fill: #231f20;
      }

      .cls-3 {
        fill: #333;
      }

      .cls-4 {
        fill: #6b8338;
      }

      .cls-5 {
        fill: #8cb23e;
      }
    </style>
  </defs>
  <g id="Layer_1-2" data-name="Layer 1">
    <g>
      <path class="cls-5" d="M51,53.2c1.55-4.38,7.47-4.87,9-5,1.33-.11,6.47-.54,9,3,.12.16,2.05,2.97,1,6-.7,2.02-2.34,3.02-4,4-2.4,1.42-6.18,3.64-10,2-3.61-1.55-6.35-6.18-5-10Z"/>
      <path class="cls-5" d="M56,59.7c.28,3.86-2.69,6.26-3,6.5-2.62,2.05-7.2,2.8-10,0-2.8-2.81-2.01-7.37,0-10,1.53-2,4.63-4.01,8-3,2.98.89,4.8,3.73,5,6.5Z"/>
      <path class="cls-5" d="M67,49.2c.55-.9,1.41-1.29,3-2,1.99-.89,3.47-1.56,5-1,1.92.7,3.01,3.01,3,5-.02,3.01-2.56,4.71-3,5-.49.33-2.71,1.8-5,1-3.1-1.09-4.43-5.68-3-8Z"/>
      <path class="cls-5" d="M76,47.2c1.29-1.52,3.28-3.7,6-6,3.68-3.11,7.1-5.12,15-9,9.42-4.62,14.13-6.94,18-8,6.53-1.8,13.97-3.84,18,0,2.18,2.07,3.34,5.85,2,8-1.52,2.43-5.28,1.26-13,2-1.44.14-10.18,1.04-19,5-3.9,1.75-4.02,2.4-12,7-5.43,3.13-9.98,5.49-13,7-.67-2-1.33-4-2-6Z"/>
      <path class="cls-1" d="M62,48.2c-1.96,1.06,3.21,16.11,11,29,8.03,13.29,20.47,27.01,24,25,.67-.38,1.07-1.36,1-4-.33-11.98-9.38-20.44-28-42-5.32-6.16-7.16-8.46-8-8Z"/>
      <path class="cls-2" d="M74,61.2c.16-.25,1.62.39,3,1,1.1.49,1.65.73,2,1,1.1.85,1.14,1.79,2,4,1.17,2.99,1.75,4.48,3,5,.87.36,1.69.17,3,1,.59.37,1.06.92,1,1-.07.1-.87-.47-2-1-1.62-.76-2.2-.63-3-1-3.02-1.39-1.89-6.52-5-8-.45-.22-1.08-.39-2-1-1.08-.72-2.16-1.76-2-2Z"/>
      <path class="cls-1" d="M62,49.2c-1.37,2.56,9.46,14.17,24,18,4.31,1.13,16.77,4.42,26-3,4.06-3.27,8.84-9.68,7-13-2.83-5.1-19.07,1.25-36-1-2.89-.38-5.6-.59-11-1-9.22-.7-9.79-.39-10,0Z"/>
      <path class="cls-1" d="M64,48.2c-1.81-3.01-4.65-8.18-7-15C51.01,15.83,53.12,2.08,47,.2c-2.4-.74-4.68.78-5,1-6.47,4.34-2.3,19.92-2,21,4.21,15.17,18.46,23.24,24,26Z"/>
      <path class="cls-1" d="M62,48.2c-10.34-2.32-18.6-4.51-24-6C18.64,36.85,4.43,31.64,1,36.2.66,36.66-.02,37.8,0,39.2c.04,3.53,4.41,6.07,6,7,7.87,4.58,18.64,3.58,27,3,6.57-.45,16.47-.98,29-1Z"/>
      <path class="cls-4" d="M80,43.2c.59.64,1.37,1.63,2,3,.73,1.61.94,3.06,1,4,1.33-.67,2.67-1.33,4-2,.19-.59.61-2.18,0-4-.96-2.83-3.63-3.86-4-4l-3,3Z"/>
      <path class="cls-4" d="M93,45.2c.09-.73.24-2.83-1-5-.98-1.72-2.34-2.62-3-3,2-1.33,4-2.67,6-4,.52.15,2.62.83,4,3,1.42,2.23,1.09,4.48,1,5-1.22.51-2.57,1.16-4,2-1.13.66-2.13,1.34-3,2Z"/>
      <path class="cls-4" d="M102,30.2c.53.15,2.66.82,4,3,1.05,1.7,1.04,3.37,1,4,2.33-.67,4.67-1.33,7-2,.2-.52.92-2.61,0-5-1.08-2.8-3.58-3.84-4-4-1.33.67-2.67,1.33-4,2s-2.67,1.33-4,2Z"/>
      <path class="cls-4" d="M119,23.2c.74.58,2.16,1.86,3,4,1.3,3.29.29,6.24,0,7h7c.93-.96,2.64-3.02,3-6,.15-1.22.44-3.59-1-5-1.05-1.03-2.48-1.03-5-1-1.66.02-4.09.2-7,1Z"/>
      <path class="cls-2" d="M62,59.2c-.57.45,8.35,13.39,9,13,.37-.22-1.7-4.94-5-9-1.38-1.69-3.74-4.21-4-4Z"/>
      <path class="cls-2" d="M71,72.2c-.21-.02-.72,2.75-1,5-.22,1.74-.73,5.8,0,6,.39.1.97-.95,1-1,.8-1.47.25-2.83,0-5-.36-3.04.18-4.98,0-5Z"/>
      <path class="cls-2" d="M70,83.2c.11.48,1.15.23,2,1,.88.8.82,2.02,1,2,.17-.02.33-1.02,0-2-.29-.87-1.09-2.11-2-2-.55.07-1.08.63-1,1Z"/>
      <path class="cls-2" d="M40,62.2c-.63.56-1.3.89-2,1-.86.13-1.15-.18-2,0-1.25.26-1.79,1.16-2,1-.23-.18.09-1.47,1-2,.95-.55,1.8.34,3,0,.6-.17,1.34-.65,2-2"/>
      <path class="cls-2" d="M50,72.2c0,.17,1.19.54,2,0,.74-.5.46-1.29,1-2,.99-1.28,3.05-.14,5-1,2.7-1.19,3.51-5.7,3-6-.32-.19-1.45,1.13-2,2-.78,1.23-.95,2.41-1,3-1.35-.31-2.41-.14-3,0-.29.07-2.78.67-3,2-.07.44.17.62,0,1-.4.89-2.01.8-2,1Z"/>
      <path class="cls-2" d="M47,70.2c.1.07.66-1.03,2-2,.39-.28,1.06-.76,2-1,1.45-.37,1.96.22,3,0,2.1-.45,3.41-3.62,3-4-.29-.27-1.6.7-2,1-1.2.89-1.21,1.34-2,2-1.84,1.53-3.48.46-5,2-.84.85-1.1,1.94-1,2Z"/>
      <path class="cls-4" d="M48,65.2c-1.28,1.24-3.34,1.65-5,1,1.75.29,3.5-.05,5-1h0Z"/>
      <circle class="cls-1" cx="42.98" cy="57.36" r="5.3"/>
      <circle class="cls-3" cx="42.87" cy="57.2" r="4.08"/>
      <circle cx="42.9" cy="57.5" r="2.47"/>
      <circle class="cls-1" cx="40.55" cy="54.77" r="1.67"/>
      <circle class="cls-1" cx="48.98" cy="58.36" r="5.3"/>
      <circle class="cls-3" cx="48.87" cy="58.2" r="4.08"/>
      <circle cx="48.9" cy="58.5" r="2.47"/>
      <circle class="cls-1" cx="46.55" cy="55.77" r="1.67"/>
    </g>
  </g>
</svg>