<?xml version="1.0" encoding="UTF-8"?>
<svg id="Layer_2" data-name="Layer 2" xmlns="http://www.w3.org/2000/svg" viewBox="0 0 293.72 230.3">
  <defs>
    <style>
      .cls-1 {
        fill: #a11d21;
      }

      .cls-1, .cls-2, .cls-3, .cls-4, .cls-5, .cls-6, .cls-7 {
        stroke: #000;
        stroke-miterlimit: 10;
      }

      .cls-2 {
        fill: none;
      }

      .cls-8, .cls-3 {
        fill: #fff;
      }

      .cls-4 {
        fill: #fbad2e;
      }

      .cls-5 {
        fill: #733c19;
      }

      .cls-9 {
        fill: #333;
      }

      .cls-6 {
        fill: #a44d24;
      }

      .cls-7 {
        fill: #231f20;
      }
    </style>
  </defs>
  <g id="Layer_1-2" data-name="Layer 1">
    <g>
      <path class="cls-5" d="M219.71,51.65c1.31-1.34,4.09-4.19,8-8,13.84-13.49,15.61-13.4,23-21,12.47-12.82,17.65-23.58,22-22,1.01.37,1.54,1.24,2,2,2.56,4.22-.48,10.25-4,17-1.49,2.86-3.74,6.72-7,11,4.23-4.3,7.96-8,11-11,6.44-6.34,9.12-8.81,11-8,1.57.67,1.83,3.3,2,5,.28,2.83,0,7.12-4,14-2.04,3.51-5.71,8.82-12,14,4.33-2.45,7.72-4.55,10-6,4.62-2.94,7.84-5.24,10-4,.58.33.87.8,1,1,2.39,3.83-4.27,12.46-7,16-2.81,3.64-7.29,8.76-14,14,1.56-.51,3.98-1.25,7-2,6.01-1.49,9.04-2.21,10-1,1.41,1.76-2.1,6.73-3,8-3.17,4.49-9.81,11.72-24,17,7.37-2.39,15.59-4.44,17-2,.57.98-.16,2.38-1,4-2.58,4.98-7.35,7.29-11,9-2.1.99-5.14,2.19-9,3,4.64-.83,8.21.06,9,2,.58,1.42-.44,3.1-1,4-2.42,3.88-6.51,5.56-11,7-4.39,1.41-10.46,3.02-18,4,.86.08,10.68,1.08,11,4,.29,2.64-7.34,5.4-9,6-4.9,1.77-13.59,3.79-26,1,5.63,1.7,14.29,4.66,14,7-.27,2.14-7.91,3.06-13,3-5.31-.06-13.96-1.27-24-8,11.72,8.4,13.65,11.65,13,13-.96,2.02-8.16.87-13-1-6.15-2.38-10.02-6.5-12-9,3.27,3.71,4.31,7.43,3,9-.83.99-2.51,1-3,1-2.82,0-4.94-1.96-6-3-7-6.86-11.55-11.32-13-16-5.03-16.3,26.49-38.75,61-74Z"/>
      <path class="cls-5" d="M49.71,55.65c-5.66-4.89-12.07-10.08-20-19C16.37,21.65,9.7,14.14,7.71,9.65c-.56-1.26-2.19-5.13-4-5-1.53.11-2.62,3.05-3,5-.86,4.45,1.12,8.33,2,10,5.44,10.33,14.04,22.29,16,25C7.34,34.03,3.2,32.57,1.71,33.65c-2.11,1.53.47,8.57,1,10,1.75,4.77,4.56,8.7,10,14,4.01,3.9,9.92,9.02,18,14-2.87-.79-7.06-2.05-12-4-6.16-2.43-8.85-4.08-10-3-1.59,1.49,1.02,6.93,3,10,.89,1.38,3.7,5.48,11,10,3.55,2.2,9.24,5.16,17,7-3.02.38-5.4.21-7,0-2.61-.35-4.01-.95-7-1-2.4-.04-4.39-.07-5,1-1.02,1.8,2.52,5.51,3,6,2.55,2.63,5.66,4.21,12,6,3.71,1.05,8.79,2.25,15,3-2.63.19-6.48.67-11,2-3.37.99-5.89,1.75-6,3-.19,2.26,7.69,4.61,9,5,4.98,1.49,13,2.93,24,1-2.9,1.29-6.95,2.85-12,4-3.58.81-5.83,1.01-6,2-.27,1.56,4.77,4,9,5,2.77.66,8,1.37,15-1-4.76.66-7.89,2.82-8,5-.1,2.1,2.63,3.78,3,4,6.52,3.9,16.43-2.16,17-1,.54,1.1-8.74,5.74-8,8,.63,1.91,8.09,1.1,9,1,3.48-.38,6.23-1.29,8-2-2.17,2.94-3.02,5.85-2,7,1.3,1.46,5.31-.27,7-1,3.33-1.44,5.62-3.51,7-5-1.81,4.16-3.47,8.91-2,10,1.01.76,3.16-.51,4-1,0,0,4.88-2.87,7-9,4.01-11.58-25.43-53.83-65-88Z"/>
      <path class="cls-5" d="M176.71,151.65c4.58,3.28,11.32,7.72,20,12,15.53,7.66,28.42,10.48,28,13-.24,1.41-4.48,1.78-7,2-6.69.59-11.82-1.81-14-3,2.03,1.85,5.84,5.57,5,7-.61,1.04-3.45.49-6,0-3.97-.76-7.05-2.05-9-3,1.61,1.35,2.45,2.98,2,4-.71,1.61-4.34,1.09-5,1-3.35-.47-5.72-2.58-7-4,.23,3.61-.6,6.6-2,7-1.56.44-4.37-2.2-6-7-.17.92-.47,2.33-1,4-.76,2.42-1.22,3.89-2,4-1.26.18-2.7-3.29-3-4-3.09-7.41,3.31-24.26,7-33Z"/>
      <path class="cls-4" d="M148.71,202.65c-1.78.4-4.98,1.38-8,4-1.34,1.16-3.6,3.48-5,7-2.06,5.19-.26,7.95-3,11-.38.43-2.14,2.38-4,2-2.21-.45-2.96-3.83-3-4-.56-2.63.91-3.61,1-6,.18-4.76-5.33-8.78-7-10-4.51-3.29-7.48-2.78-9-6-.73-1.55-1.08-3.88,0-5,1.39-1.43,5.09-.88,9,2-2.37-.8-3.95-2.82-4-5-.03-1.44.58-3.43,2-4,2.26-.91,5.33,2.27,7,4,1.47,1.53,2.43,3,3,4-.36-2.12.46-4.11,2-5,1.79-1.03,3.75-.12,4,0,2.32,1.12,3.59,4.34,3,8,1.87-.6,3.18-1.4,4-2,1.29-.94,2.21-1.97,4-4,2.18-2.47,2.44-3.08,3-3,1.37.19,2.08,4.13,2,7-.06,2.14-.58,3.88-1,5Z"/>
      <path class="cls-4" d="M117.71,188.65c-1.97,2.05-5.98,2.03-14,2-3.29-.01-5.34-.18-6,1-.64,1.14.64,2.37,2,6,1.2,3.18,2.65,7.03,1,9-1.15,1.38-3.49,1.44-5,1-2.51-.73-3.59-3.11-4-4-1.54-3.38.29-4.91-1-7-1.91-3.1-7.94-3.03-11-3-3.52.04-4.87.76-8,0-1.41-.34-4.78-1.16-5-3-.16-1.39,1.5-3.05,4-4-.5-.44-1.48-1.42-2-3-.16-.5-.8-2.45,0-4,.97-1.88,3.87-2.84,7-2-.12-1.14-.16-3.07,1-4,2.26-1.82,7.37,1.57,8,2,4.16,2.82,3.5,5.13,7,7,3.39,1.81,7.07,1.28,9,1,3.21-.46,3.6-1.39,9-3,4.45-1.33,6.7-1.98,8-1,2.12,1.58,2.3,6.61,0,9Z"/>
      <path class="cls-6" d="M158.71,85.65c3.72-1.24,8.87-4.18,19-10,17.71-10.17,31.74-19,41-25,.7.9,1.54,2.24,2,4,1.3,4.97-1.44,9.18-2,10,.73.34,2.42,1.25,3,3,.86,2.6-1.01,6.23-5,8,.17,0,3.91-.06,5,2,1.08,2.04-.52,6.03-5,8,2.55,1.22,2.92,2.6,3,3,.5,2.56-2.88,6.21-9,8,1.18.15,3.53.6,4,2,.7,2.08-3.14,4.91-5,6-2.74,1.61-5.43,1.94-7,2,3.56.56,3.94,1.73,4,2,.4,1.71-3.08,4.1-6,5-3,.93-5.67.38-7,0,1.92,1.19,3.3,2.78,3,4-.44,1.8-4.33,2.06-6,2-2.85-.1-4.98-1.31-6-2,.13.29.98,2.26,0,4-1.28,2.29-4.51,2.04-5,2-2.99-.23-4.72-2.6-5-3,1.02,3,1.01,5.43,0,6-.58.33-1.46.02-2.2-.23-1.32-.45-2.17-1.2-2.8-1.77-1.08-.97-2.46-2.3-4-4-.02.35-.16,2.5-2,4-2.16,1.76-4.76,1.07-5,1,5.98,5.99,10.17,11.66,13,16,2.92,4.47,4.61,8.65,8,17,.95,2.34,2.31,5.85,1,7-.72.62-2,.35-3,0,1.43,1.88,1.36,4.43,0,6-1.65,1.89-4.92,2.06-7,0,0,2.48,0,4.53,0,6-.01,4.89-.06,6.54-1,7-.38.19-1.22.33-3-1-.01,5.68-.68,8.68-2,9-.55.13-1.22-.2-2-1,.1,1.36.07,3.61-1,6-.95,2.13-3.23,5.48-5,5-1.47-.4-1.9-3.25-2-4-1.68,3.18-3.69,5.36-5,5-1.32-.37-1.67-3.24-2-6-.35-2.93-.19-5.37,0-7-.3.62-1.18,2.2-3,3-1.37.6-3.47.85-4,0-.43-.69.43-1.71,1-3,.73-1.66,1.18-4.18,0-8-.4.09-1.13.19-2,0-1-.22-1.68-.73-2-1,.02.8-.05,2.39-1,4-.45.76-1.84,3.12-4,3-1.71-.1-2.8-1.69-3-2-.41.81-1.32,2.28-3,3-1.88.8-3.62.19-7-1-3.11-1.1-4.67-1.65-5-3-.44-1.81,1.65-3.69,2-4-1,.28-2.89.65-5,0-1.28-.4-3.12-1.31-3-2,.15-.89,3.5-.99,4-1-.44-3.59-.76-6.65-1-9-.82-8.16-1-12.3,0-16,.72-2.69,2-5,2-5,.72-1.31,1.46-2.31,2-3-.96-1.24-2.07-2.9-3-5-1.7-3.82-1.59-6.37-2-8-2.42-9.63-29.86-15.33-38-21-2.06-1.43-2.8-2.81-3-4-.28-1.66.46-3.14,1-4-.5-.08-4.03-.69-6-4-1.59-2.67-1.13-5.34-1-6-2.63-1.31-4.18-2.96-5-4-1.16-1.46-2.59-3.26-2-5,.37-1.1,1.4-1.71,2-2-.9-.29-4.47-1.53-6-5-.19-.43-1.8-4.08,0-6,.61-.65,1.42-.9,2-1-.97-.5-3.49-1.95-5-5-2.35-4.74-.3-9.36,0-10,2.15,1.5,5.23,3.6,9,6,5.13,3.27,12.92,8.2,23,13,2.21,1.05,9.12,4.32,17,7,11.31,3.84,35.68,12.13,60,4Z"/>
      <path class="cls-2" d="M149.71,140.65c-8.1,5.28-10.44,10.28-11,14-.59,3.94.83,6.37,2,14,.89,5.83,1.03,10.7,1,14"/>
      <path class="cls-3" d="M72.71,115.65c-.06-3.27.28-8.86,3-15,.83-1.87,5.8-12.65,18-18,9.53-4.18,18.27-2.76,23-2,8.91,1.44,10.61,4.29,19,6,8.2,1.67,16.02.87,23-1-1.03,1.45-3.87,5-9,7-4.93,1.92-9.24,1.34-11,1,1.35.62,3.39,1.81,5,4,3.02,4.11,3.01,9.63,2,10-.56.21-1.08-1.29-3-2-1.45-.53-2.91-.32-4,0,3.77,3.92,5.12,7.72,4,9-.97,1.11-3.95.51-7-1,1.59,4.11,1.32,7.27,1,9-.19,1.01-.7,3.77-2,4-.94.17-1.59-1.11-4-3-1.17-.92-2.24-1.57-3-2,.12,1.14.22,2.89,0,5-.17,1.59-.61,5.77-2,6-1.07.18-1.57-2.16-4-4-1.99-1.5-4.27-1.91-6-2,.02.39.15,3.24-2,5-1.1.9-3.08,1.74-4,1-1.07-.86.31-3.04,0-6,0,0-.33-3.11-4-7-4.09-4.33-16.83-6.55-33-4Z"/>
      <path class="cls-7" d="M100.71,206.65c-.17.89-.63,2.55-2,4-1.17,1.23-3.24,2.57-4,2-.69-.52-.21-2.59,1-5"/>
      <path class="cls-7" d="M63.71,190.65c.59,1.09,4.19.93,6-1,.73-.78,1.51-2.21,1-3-.59-.92-2.69-.61-4,0-1.91.89-3.52,3.05-3,4Z"/>
      <path class="cls-7" d="M64.71,181.65c.38.77,2.72.38,4,0,2.75-.82,5.38-3.03,5-4-.33-.85-3.02-.78-5,0-2.39.93-4.42,3.14-4,4Z"/>
      <path class="cls-7" d="M73.71,174.65c.1.68,2.15.91,3,1,2.49.27,5.9-.1,6-1,.1-.82-2.51-2.16-5-2-2.03.13-4.1,1.28-4,2Z"/>
      <path class="cls-7" d="M133.71,191.65c-3.38-2.55-5.38-3.55-6-3-.48.42-.14,1.76,1,4"/>
      <circle class="cls-3" cx="98.57" cy="103.19" r="8.24"/>
      <circle class="cls-9" cx="98.71" cy="102.93" r="6.35"/>
      <circle cx="98.32" cy="103.18" r="3.85"/>
      <circle class="cls-8" cx="100.49" cy="98.02" r="2.6"/>
      <path class="cls-7" d="M117.71,188.65c-.11-.26-.65-1.5-2-2-.49-.18-1.64-.46-2,0-.29.38-.13,1.34,2,4"/>
      <path class="cls-7" d="M110.71,195.65c-2.28-.09-3.91.38-4,1-.08.58,1.2,1.42,3,2"/>
      <path class="cls-7" d="M133.71,223.65c-.28,1.29-1.01,3.52-3,5-.44.32-2.11,1.57-3,1-.73-.47-.8-2.11,0-4"/>
      <path class="cls-4" d="M105.71,109.65c2.19.54,2.97,7.18,2,13-1.42,8.47-6.91,17.32-13,18-.36.04-3.2.36-4-1-.62-1.06.36-2.57,1-4,.91-2.02,1.74-5.2,1-10-1.01.43-2.41,1.07-4,2-3.46,2.01-5.28,3.07-6,5-1.03,2.75,1.14,4.79,0,6-1.24,1.31-4.71.49-7-1-4.67-3.04-6.45-10.2-5-16,1.06-4.24,4.21-10.19,9-11,2.28-.39,5.19.74,11,3,3.99,1.55,4.45,2.11,6,2,4.97-.35,6.78-6.55,9-6Z"/>
      <path class="cls-2" d="M92.71,125.65c1.6-1.16,3.28-2.48,5-4,2.33-2.05,4.32-4.09,6-6"/>
      <path class="cls-1" d="M103.71,115.65c.62,2.05,1.71,6.72,0,12-2.22,6.86-8.15,11.59-9,11-.39-.27.39-1.58,1-4,1.11-4.4.62-8.31,0-11l8-8Z"/>
      <path class="cls-7" d="M83.71,107.65c.08-.87,2.76-.18,5-2,2.04-1.66,1.32-3.46,4-9,1.31-2.72,2.08-3.51,3-4,2.11-1.13,4.88-.62,5,0,.09.48-1.5.58-3,2-1.19,1.13-1.39,2.21-3,8-.93,3.34-1.17,4.12-2,5-.3.32-1.74,1.79-4,2-2.49.23-5.08-1.13-5-2Z"/>
      <path class="cls-2" d="M81.71,120.65c.05-.34.24-1.24,1-2,1.19-1.18,2.78-1.03,3-1"/>
      <path class="cls-2" d="M18.71,44.65c3.2,3.26,6.86,6.64,11,10,8.84,7.17,17.51,12.31,25,16"/>
      <path class="cls-2" d="M30.71,71.65c2.25,1.68,4.9,3.41,8,5,7.62,3.92,14.79,5.41,20,6"/>
      <path class="cls-2" d="M39.71,91.65c2.57.8,5.59,1.54,9,2,5.91.81,11.06.53,15,0"/>
      <path class="cls-2" d="M50.71,106.65c2.07.16,4.42.2,7,0,5.32-.42,9.73-1.72,13-3"/>
      <path class="cls-2" d="M84.71,135.65c1.08-.36,2.51-.97,4-2,1.98-1.37,3.25-2.92,4-4"/>
      <path class="cls-2" d="M105.71,143.65c.67-.88,1.35-1.88,2-3,1.49-2.55,2.41-4.97,3-7"/>
      <path class="cls-2" d="M263.71,30.65c-3.42,3.31-7.08,6.66-11,10-11.7,9.96-23.3,17.8-34,24"/>
      <path class="cls-2" d="M272.71,43.65c-3.95,3.94-8.59,8.03-14,12-15.31,11.24-30.59,16.95-42,20"/>
      <path class="cls-2" d="M271.71,65.65c-4.26,3.04-9.25,6.14-15,9-14.45,7.17-28,9.93-38,11"/>
      <path class="cls-2" d="M263.71,86.65c-4.02,2.14-8.69,4.24-14,6-15.57,5.15-29.57,5.01-39,4"/>
      <path class="cls-2" d="M258.71,101.65c-4.2,1.51-8.87,2.91-14,4-15.82,3.38-29.77,2.6-40,1"/>
      <path class="cls-2" d="M236.71,118.65c-3.6.58-7.62.97-12,1-12.96.09-23.64-3.03-31-6"/>
      <path class="cls-2" d="M212.71,129.65c-3.28-.61-7.01-1.55-11-3-7.2-2.62-12.87-6.03-17-9"/>
      <path class="cls-2" d="M190.71,132.65c-1.94-.52-4.4-1.42-7-3-4.8-2.93-7.59-6.72-9-9"/>
      <path class="cls-2" d="M177.71,134.65c-1.76-1.14-3.89-2.76-6-5-3.09-3.28-4.92-6.6-6-9"/>
      <path class="cls-2" d="M115.71,145.65c.37.82.98,1.92,2,3,1.84,1.94,3.94,2.7,5,3"/>
      <path class="cls-2" d="M165.71,155.65c1.03,1.93,2.09,4.27,3,7,1.13,3.39,1.7,6.47,2,9"/>
      <path class="cls-2" d="M75.71,177.65c.17,1.3.63,3.03,2,4,1.23.87,2.37.54,4,1,1.35.38,3.18,1.34,5,4"/>
      <path class="cls-2" d="M68.71,184.65c.89.38,2.27.86,4,1,2.35.19,3.35-.4,5,0,1.06.26,2.51.95,4,3"/>
      <path class="cls-2" d="M119.71,197.65c.9.73,1.96,1.71,3,3,.86,1.07,1.51,2.11,2,3"/>
      <path class="cls-2" d="M127.71,196.65c.74.58,2.16,1.86,3,4,1.3,3.29.29,6.24,0,7"/>
      <path class="cls-2" d="M136.71,199.65c.13,1.04.19,2.41,0,4-.2,1.64-.61,3-1,4"/>
      <path class="cls-2" d="M203.71,175.65c-3.79-1.59-8.27-3.83-13-7-4.03-2.7-7.34-5.48-10-8"/>
      <path class="cls-2" d="M193.71,179.65c-1.87-1.06-3.91-2.38-6-4-3.94-3.06-6.88-6.27-9-9"/>
      <path class="cls-2" d="M183.71,180.65c-.91-.71-1.98-1.68-3-3-1.75-2.26-2.59-4.51-3-6"/>
      <path class="cls-2" d="M175.71,180.65c-.39-1-.8-2.36-1-4-.19-1.59-.13-2.96,0-4"/>
    </g>
  </g>
</svg>