<?xml version="1.0" encoding="UTF-8"?>
<svg id="Layer_2" data-name="Layer 2" xmlns="http://www.w3.org/2000/svg" viewBox="0 0 292.72 229.3">
  <defs>
    <style>
      .cls-1 {
        fill: #5b3205;
      }

      .cls-2 {
        fill: #fff;
      }

      .cls-3 {
        fill: none;
      }

      .cls-4 {
        fill: #733c19;
      }

      .cls-5 {
        fill: #904518;
      }

      .cls-6 {
        fill: #231f20;
      }

      .cls-7 {
        fill: #e1911e;
      }

      .cls-8 {
        fill: #333;
      }

      .cls-9 {
        fill: #fbad2e;
      }

      .cls-10 {
        fill: #a44d24;
      }

      .cls-11 {
        fill: #a11d21;
      }
    </style>
  </defs>
  <g id="Layer_1-2" data-name="Layer 1">
    <g>
      <path class="cls-4" d="M219.21,51.15c1.31-1.34,4.09-4.19,8-8,13.84-13.49,15.61-13.4,23-21,12.47-12.82,17.65-23.58,22-22,1.01.37,1.54,1.24,2,2,2.56,4.22-.48,10.25-4,17-1.49,2.86-3.74,6.72-7,11,4.23-4.3,7.96-8,11-11,6.44-6.34,9.12-8.81,11-8,1.57.67,1.83,3.3,2,5,.28,2.83,0,7.12-4,14-2.04,3.51-5.71,8.82-12,14,4.33-2.45,7.72-4.55,10-6,4.62-2.94,7.84-5.24,10-4,.58.33.87.8,1,1,2.39,3.83-4.27,12.46-7,16-2.81,3.64-7.29,8.76-14,14,1.56-.51,3.98-1.25,7-2,6.01-1.49,9.04-2.21,10-1,1.41,1.76-2.1,6.73-3,8-3.17,4.49-9.81,11.72-24,17,7.37-2.39,15.59-4.44,17-2,.57.98-.16,2.38-1,4-2.58,4.98-7.35,7.29-11,9-2.1.99-5.14,2.19-9,3,4.64-.83,8.21.06,9,2,.58,1.42-.44,3.1-1,4-2.42,3.88-6.51,5.56-11,7-4.39,1.41-10.46,3.02-18,4,.86.08,10.68,1.08,11,4,.29,2.64-7.34,5.4-9,6-4.9,1.77-13.59,3.79-26,1,5.63,1.7,14.29,4.66,14,7-.27,2.14-7.91,3.06-13,3-5.31-.06-13.96-1.27-24-8,11.72,8.4,13.65,11.65,13,13-.96,2.02-8.16.87-13-1-6.15-2.38-10.02-6.5-12-9,3.27,3.71,4.31,7.43,3,9-.83.99-2.51,1-3,1-2.82,0-4.94-1.96-6-3-7-6.86-11.55-11.32-13-16-5.03-16.3,26.49-38.75,61-74Z"/>
      <path class="cls-4" d="M49.21,55.15c-5.66-4.89-12.07-10.08-20-19C15.87,21.15,9.2,13.64,7.21,9.15c-.56-1.26-2.19-5.13-4-5-1.53.11-2.62,3.05-3,5-.86,4.45,1.12,8.33,2,10,5.44,10.33,14.04,22.29,16,25C6.84,33.53,2.7,32.07,1.21,33.15c-2.11,1.53.47,8.57,1,10,1.75,4.77,4.56,8.7,10,14,4.01,3.9,9.92,9.02,18,14-2.87-.79-7.06-2.05-12-4-6.16-2.43-8.85-4.08-10-3-1.59,1.49,1.02,6.93,3,10,.89,1.38,3.7,5.48,11,10,3.55,2.2,9.24,5.16,17,7-3.02.38-5.4.21-7,0-2.61-.35-4.01-.95-7-1-2.4-.04-4.39-.07-5,1-1.02,1.8,2.52,5.51,3,6,2.55,2.63,5.66,4.21,12,6,3.71,1.05,8.79,2.25,15,3-2.63.19-6.48.67-11,2-3.37.99-5.89,1.75-6,3-.19,2.26,7.69,4.61,9,5,4.98,1.49,13,2.93,24,1-2.9,1.29-6.95,2.85-12,4-3.58.81-5.83,1.01-6,2-.27,1.56,4.77,4,9,5,2.77.66,8,1.37,15-1-4.76.66-7.89,2.82-8,5-.1,2.1,2.63,3.78,3,4,6.52,3.9,16.43-2.16,17-1,.54,1.1-8.74,5.74-8,8,.63,1.91,8.09,1.1,9,1,3.48-.38,6.23-1.29,8-2-2.17,2.94-3.02,5.85-2,7,1.3,1.46,5.31-.27,7-1,3.33-1.44,5.62-3.51,7-5-1.81,4.16-3.47,8.91-2,10,1.01.76,3.16-.51,4-1,0,0,4.88-2.87,7-9,4.01-11.58-25.43-53.83-65-88Z"/>
      <path class="cls-4" d="M176.21,151.15c4.58,3.28,11.32,7.72,20,12,15.53,7.66,28.42,10.48,28,13-.24,1.41-4.48,1.78-7,2-6.69.59-11.82-1.81-14-3,2.03,1.85,5.84,5.57,5,7-.61,1.04-3.45.49-6,0-3.97-.76-7.05-2.05-9-3,1.61,1.35,2.45,2.98,2,4-.71,1.61-4.34,1.09-5,1-3.35-.47-5.72-2.58-7-4,.23,3.61-.6,6.6-2,7-1.56.44-4.37-2.2-6-7-.17.92-.47,2.33-1,4-.76,2.42-1.22,3.89-2,4-1.26.18-2.7-3.29-3-4-3.09-7.41,3.31-24.26,7-33Z"/>
      <path class="cls-9" d="M148.21,202.15c-1.78.4-4.98,1.38-8,4-1.34,1.16-3.6,3.48-5,7-2.06,5.19-.26,7.95-3,11-.38.43-2.14,2.38-4,2-2.21-.45-2.96-3.83-3-4-.56-2.63.91-3.61,1-6,.18-4.76-5.33-8.78-7-10-4.51-3.29-7.48-2.78-9-6-.73-1.55-1.08-3.88,0-5,1.39-1.43,5.09-.88,9,2-2.37-.8-3.95-2.82-4-5-.03-1.44.58-3.43,2-4,2.26-.91,5.33,2.27,7,4,1.47,1.53,2.43,3,3,4-.36-2.12.46-4.11,2-5,1.79-1.03,3.75-.12,4,0,2.32,1.12,3.59,4.34,3,8,1.87-.6,3.18-1.4,4-2,1.29-.94,2.21-1.97,4-4,2.18-2.47,2.44-3.08,3-3,1.37.19,2.08,4.13,2,7-.06,2.14-.58,3.88-1,5Z"/>
      <path class="cls-9" d="M117.21,188.15c-1.97,2.05-5.98,2.03-14,2-3.29-.01-5.34-.18-6,1-.64,1.14.64,2.37,2,6,1.2,3.18,2.65,7.03,1,9-1.15,1.38-3.49,1.44-5,1-2.51-.73-3.59-3.11-4-4-1.54-3.38.29-4.91-1-7-1.91-3.1-7.94-3.03-11-3-3.52.04-4.87.76-8,0-1.41-.34-4.78-1.16-5-3-.16-1.39,1.5-3.05,4-4-.5-.44-1.48-1.42-2-3-.16-.5-.8-2.45,0-4,.97-1.88,3.87-2.84,7-2-.12-1.14-.16-3.07,1-4,2.26-1.82,7.37,1.57,8,2,4.16,2.82,3.5,5.13,7,7,3.39,1.81,7.07,1.28,9,1,3.21-.46,3.6-1.39,9-3,4.45-1.33,6.7-1.98,8-1,2.12,1.58,2.3,6.61,0,9Z"/>
      <path class="cls-10" d="M158.21,85.15c3.72-1.24,8.87-4.18,19-10,17.71-10.17,31.74-19,41-25,.7.9,1.54,2.24,2,4,1.3,4.97-1.44,9.18-2,10,.73.34,2.42,1.25,3,3,.86,2.6-1.01,6.23-5,8,.17,0,3.91-.06,5,2,1.08,2.04-.52,6.03-5,8,2.55,1.22,2.92,2.6,3,3,.5,2.56-2.88,6.21-9,8,1.18.15,3.53.6,4,2,.7,2.08-3.14,4.91-5,6-2.74,1.61-5.43,1.94-7,2,3.56.56,3.94,1.73,4,2,.4,1.71-3.08,4.1-6,5-3,.93-5.67.38-7,0,1.92,1.19,3.3,2.78,3,4-.44,1.8-4.33,2.06-6,2-2.85-.1-4.98-1.31-6-2,.13.29.98,2.26,0,4-1.28,2.29-4.51,2.04-5,2-2.99-.23-4.72-2.6-5-3,1.02,3,1.01,5.43,0,6-.58.33-1.46.02-2.2-.23-1.32-.45-2.17-1.2-2.8-1.77-1.08-.97-2.46-2.3-4-4-.02.35-.16,2.5-2,4-2.16,1.76-4.76,1.07-5,1,5.98,5.99,10.17,11.66,13,16,2.92,4.47,4.61,8.65,8,17,.95,2.34,2.31,5.85,1,7-.72.62-2,.35-3,0,1.43,1.88,1.36,4.43,0,6-1.65,1.89-4.92,2.06-7,0,0,2.48,0,4.53,0,6-.01,4.89-.06,6.54-1,7-.38.19-1.22.33-3-1-.01,5.68-.68,8.68-2,9-.55.13-1.22-.2-2-1,.1,1.36.07,3.61-1,6-.95,2.13-3.23,5.48-5,5-1.47-.4-1.9-3.25-2-4-1.68,3.18-3.69,5.36-5,5-1.32-.37-1.67-3.24-2-6-.35-2.93-.19-5.37,0-7-.3.62-1.18,2.2-3,3-1.37.6-3.47.85-4,0-.43-.69.43-1.71,1-3,.73-1.66,1.18-4.18,0-8-.4.09-1.13.19-2,0-1-.22-1.68-.73-2-1,.02.8-.05,2.39-1,4-.45.76-1.84,3.12-4,3-1.71-.1-2.8-1.69-3-2-.41.81-1.32,2.28-3,3-1.88.8-3.62.19-7-1-3.11-1.1-4.67-1.65-5-3-.44-1.81,1.65-3.69,2-4-1,.28-2.89.65-5,0-1.28-.4-3.12-1.31-3-2,.15-.89,3.5-.99,4-1-.44-3.59-.76-6.65-1-9-.82-8.16-1-12.3,0-16,.72-2.69,2-5,2-5,.72-1.31,1.46-2.31,2-3-.96-1.24-2.07-2.9-3-5-1.7-3.82-1.59-6.37-2-8-2.42-9.63-29.86-15.33-38-21-2.06-1.43-2.8-2.81-3-4-.28-1.66.46-3.14,1-4-.5-.08-4.03-.69-6-4-1.59-2.67-1.13-5.34-1-6-2.63-1.31-4.18-2.96-5-4-1.16-1.46-2.59-3.26-2-5,.37-1.1,1.4-1.71,2-2-.9-.29-4.47-1.53-6-5-.19-.43-1.8-4.08,0-6,.61-.65,1.42-.9,2-1-.97-.5-3.49-1.95-5-5-2.35-4.74-.3-9.36,0-10,2.15,1.5,5.23,3.6,9,6,5.13,3.27,12.92,8.2,23,13,2.21,1.05,9.12,4.32,17,7,11.31,3.84,35.68,12.13,60,4Z"/>
      <path class="cls-1" d="M158.21,125.15c-9.72-6.96-15.59-19.06-15-31,.14,1.48.29,2.95.56,4.4,1.62,10.19,6.87,19.62,14.44,26.6h0Z"/>
      <path class="cls-5" d="M149.21,140.15c-4.53,3.35-9.16,7.53-10.4,13.24-.41,1.85-.31,3.72.09,5.59.77,3.76,1.65,7.62,2.02,11.49.41,3.88.53,7.79.29,11.67-.1-1.94-.19-3.88-.38-5.81-.46-5.82-1.59-11.48-2.9-17.17-1.98-8.24,4.62-15.33,11.29-19.02h0Z"/>
      <path class="cls-2" d="M72.21,115.15c-.06-3.27.28-8.86,3-15,.83-1.87,5.8-12.65,18-18,9.53-4.18,18.27-2.76,23-2,8.91,1.44,10.61,4.29,19,6,8.2,1.67,16.02.87,23-1-1.03,1.45-3.87,5-9,7-4.93,1.92-9.24,1.34-11,1,1.35.62,3.39,1.81,5,4,3.02,4.11,3.01,9.63,2,10-.56.21-1.08-1.29-3-2-1.45-.53-2.91-.32-4,0,3.77,3.92,5.12,7.72,4,9-.97,1.11-3.95.51-7-1,1.59,4.11,1.32,7.27,1,9-.19,1.01-.7,3.77-2,4-.94.17-1.59-1.11-4-3-1.17-.92-2.24-1.57-3-2,.12,1.14.22,2.89,0,5-.17,1.59-.61,5.77-2,6-1.07.18-1.57-2.16-4-4-1.99-1.5-4.27-1.91-6-2,.02.39.15,3.24-2,5-1.1.9-3.08,1.74-4,1-1.07-.86.31-3.04,0-6,0,0-.33-3.11-4-7-4.09-4.33-16.83-6.55-33-4Z"/>
      <path class="cls-6" d="M100.21,206.15c-.17.89-.63,2.55-2,4-1.17,1.23-3.24,2.57-4,2-.69-.52-.21-2.59,1-5"/>
      <path class="cls-6" d="M63.21,190.15c.59,1.09,4.19.93,6-1,.73-.78,1.51-2.21,1-3-.59-.92-2.69-.61-4,0-1.91.89-3.52,3.05-3,4Z"/>
      <path class="cls-6" d="M64.21,181.15c.38.77,2.72.38,4,0,2.75-.82,5.38-3.03,5-4-.33-.85-3.02-.78-5,0-2.39.93-4.42,3.14-4,4Z"/>
      <path class="cls-6" d="M73.21,174.15c.1.68,2.15.91,3,1,2.49.27,5.9-.1,6-1,.1-.82-2.51-2.16-5-2-2.03.13-4.1,1.28-4,2Z"/>
      <path class="cls-6" d="M133.21,191.15c-3.38-2.55-5.38-3.55-6-3-.48.42-.14,1.76,1,4"/>
      <circle class="cls-2" cx="98.07" cy="102.69" r="8.24"/>
      <circle class="cls-8" cx="98.21" cy="102.43" r="6.35"/>
      <circle cx="97.82" cy="102.68" r="3.85"/>
      <circle class="cls-2" cx="99.99" cy="97.52" r="2.6"/>
      <path class="cls-6" d="M117.21,188.15c-.11-.26-.65-1.5-2-2-.49-.18-1.64-.46-2,0-.29.38-.13,1.34,2,4"/>
      <path class="cls-6" d="M110.21,195.15c-2.28-.09-3.91.38-4,1-.08.58,1.2,1.42,3,2"/>
      <path class="cls-6" d="M133.21,223.15c-.28,1.29-1.01,3.52-3,5-.44.32-2.11,1.57-3,1-.73-.47-.8-2.11,0-4"/>
      <path class="cls-9" d="M105.21,109.15c2.19.54,2.97,7.18,2,13-1.42,8.47-6.91,17.32-13,18-.36.04-3.2.36-4-1-.62-1.06.36-2.57,1-4,.91-2.02,1.74-5.2,1-10-1.01.43-2.41,1.07-4,2-3.46,2.01-5.28,3.07-6,5-1.03,2.75,1.14,4.79,0,6-1.24,1.31-4.71.49-7-1-4.67-3.04-6.45-10.2-5-16,1.06-4.24,4.21-10.19,9-11,2.28-.39,5.19.74,11,3,3.99,1.55,4.45,2.11,6,2,4.97-.35,6.78-6.55,9-6Z"/>
      <path class="cls-3" d="M92.21,125.15c1.6-1.16,3.28-2.48,5-4,2.33-2.05,4.32-4.09,6-6"/>
      <path class="cls-11" d="M103.21,115.15c.62,2.05,1.71,6.72,0,12-2.22,6.86-8.15,11.59-9,11-.39-.27.39-1.58,1-4,1.11-4.4.62-8.31,0-11l8-8Z"/>
      <path class="cls-6" d="M83.21,107.15c.08-.87,2.76-.18,5-2,2.04-1.66,1.32-3.46,4-9,1.31-2.72,2.08-3.51,3-4,2.11-1.13,4.88-.62,5,0,.09.48-1.5.58-3,2-1.19,1.13-1.39,2.21-3,8-.93,3.34-1.17,4.12-2,5-.3.32-1.74,1.79-4,2-2.49.23-5.08-1.13-5-2Z"/>
      <path class="cls-3" d="M81.21,120.15c.05-.34.24-1.24,1-2,1.19-1.18,2.78-1.03,3-1"/>
      <path class="cls-1" d="M18.21,44.15c10.89,10.11,22.99,18.83,36,26-13.65-5.96-26.06-14.9-36-26h0Z"/>
      <path class="cls-1" d="M30.21,71.15c7.44,4.78,15.64,8.31,24.28,10.21,1.23.3,2.47.53,3.72.79-10.18-.42-20.28-4.33-28-11h0Z"/>
      <path class="cls-1" d="M39.21,91.15c7.94,1.75,15.88,2.39,24,2-7.91,1.79-16.49,1.08-24-2h0Z"/>
      <path class="cls-1" d="M50.21,106.15c6.84-.16,13.41-1.17,20-3-6.06,3.14-13.29,4.24-20,3h0Z"/>
      <path class="cls-3" d="M84.21,135.15c1.08-.36,2.51-.97,4-2,1.98-1.37,3.25-2.92,4-4"/>
      <path class="cls-1" d="M105.21,143.15c1.6-3.42,3.34-6.58,5-10-.32,3.82-2.26,7.37-5,10h0Z"/>
      <path class="cls-1" d="M263.21,30.15c-13.06,13.62-28.35,25.14-45,34,15.96-10.02,31.02-21.37,45-34h0Z"/>
      <path class="cls-1" d="M272.21,43.15c-14.91,15.9-34.78,27.09-56,32,2.6-.81,5.18-1.65,7.73-2.59,17.91-6.33,34.4-16.44,48.27-29.41h0Z"/>
      <path class="cls-1" d="M271.21,65.15c-15.15,11.7-33.92,18.68-53,20,2.36-.37,4.71-.75,7.05-1.23,16.38-3.12,32.03-9.59,45.95-18.77h0Z"/>
      <path class="cls-1" d="M263.21,86.15c-15.8,9.28-34.91,12.69-53,10,2.28.13,4.56.24,6.83.24,15.93.28,31.84-3.28,46.17-10.24h0Z"/>
      <path class="cls-1" d="M258.21,101.15c-16.97,6.89-36.05,8.53-54,5,2.27.24,4.54.47,6.82.61,15.91,1.19,31.97-.77,47.18-5.61h0Z"/>
      <path class="cls-1" d="M236.21,118.15c-14.35,3.05-29.7,1.14-43-5,1.74.58,3.47,1.15,5.22,1.65,12.21,3.66,25.12,4.77,37.78,3.35h0Z"/>
      <path class="cls-1" d="M212.21,129.15c-10.21-1.19-20.09-5.44-28-12,1.1.66,2.19,1.33,3.31,1.95,7.71,4.51,16.05,7.8,24.69,10.05h0Z"/>
      <path class="cls-1" d="M190.21,132.15c-6.81-1.04-13.06-5.79-16-12,4.2,5.45,9.56,9.55,16,12h0Z"/>
      <path class="cls-1" d="M177.21,134.15c-5.62-2.77-10.11-8.02-12-14,3.2,5.41,7.14,10.02,12,14h0Z"/>
      <path class="cls-5" d="M115.67,144.95c1.09,2.91,3.57,5.21,6.54,6.2-1.55-.35-3.05-1.03-4.33-2.03-1.29-.99-2.37-2.29-3.12-3.77l.91-.41h0Z"/>
      <path class="cls-5" d="M165.21,155.15c3.25,4.62,5.05,10.35,5,16-1.35-5.51-2.97-10.71-5-16h0Z"/>
      <path class="cls-7" d="M75.21,177.15c.72,2.71,2.1,4.3,4.98,4.28,2.7.29,4.92,2.35,6.02,4.72-1.7-1.8-3.65-3.46-6.16-3.73-3.19-.06-4.96-2.18-4.84-5.27h0Z"/>
      <path class="cls-7" d="M68.21,184.15c2.34.58,4.56.74,6.94.4,2.55-.4,5.04,1.34,6.06,3.6-1.64-1.63-3.6-2.96-5.97-2.6-2.39.31-5-.06-7.03-1.4h0Z"/>
      <path class="cls-7" d="M119.21,197.15c2.47,1.09,4.38,3.37,5,6-1.87-1.97-3.39-3.81-5-6h0Z"/>
      <path class="cls-7" d="M127.21,196.15c3.86,1.93,5.25,7.41,3,11,.75-4.09-.2-7.9-3-11h0Z"/>
      <path class="cls-3" d="M136.21,199.15c.13,1.04.19,2.41,0,4-.2,1.64-.61,3-1,4"/>
      <path class="cls-1" d="M203.21,175.15c-8.76-2.92-16.79-8.16-23-15,.91.71,1.8,1.44,2.72,2.13,6.31,4.98,13.14,9.19,20.28,12.87h0Z"/>
      <path class="cls-1" d="M193.21,179.15c-6.13-2.67-11.48-7.32-15-13,4.64,4.84,9.54,9.1,15,13h0Z"/>
      <path class="cls-1" d="M183.21,180.15c-3.34-1.67-5.73-5.28-6-9,1.67,3.35,3.53,6.18,6,9h0Z"/>
      <path class="cls-1" d="M175.21,180.15c-1.63-2.26-2.03-5.41-1-8,.37,2.78.67,5.21,1,8h0Z"/>
      <path class="cls-1" d="M54.21,70.15c11.29,6.33,23.41,11.04,36,14-1.61-.18-3.21-.46-4.81-.74-11.16-2.18-21.92-6.65-31.19-13.26h0Z"/>
      <path class="cls-1" d="M58.21,82.15c7.55,2.84,15.47,4.59,23.53,4.89,1.15.07,2.31.08,3.47.11-1.15.19-2.3.29-3.46.38-8.13.45-16.44-1.35-23.54-5.38h0Z"/>
      <path class="cls-1" d="M63.21,93.15c6.13,1.52,12.31.5,18-2-4.98,3.79-12.34,4.92-18,2h0Z"/>
      <path class="cls-1" d="M70.21,103.15c1.15-.99,2.51-1.34,4-1-1.15,1-2.51,1.33-4,1h0Z"/>
      <path class="cls-1" d="M218.21,64.15c-2.18,1.75-4.46,3.38-6.77,4.95-2.33,1.54-4.73,3-7.17,4.37-4.89,2.74-10.01,5.06-15.25,7.05-5.27,1.9-10.66,3.5-16.16,4.6-2.75.55-5.51,1.01-8.29,1.36-2.78.32-5.57.57-8.36.67,5.55-.62,11.06-1.51,16.48-2.78,5.42-1.25,10.77-2.83,15.98-4.79,5.23-1.9,10.3-4.21,15.23-6.79,4.93-2.58,9.69-5.5,14.31-8.65Z"/>
      <path class="cls-1" d="M216.21,75.15c-2.24,1.41-4.56,2.68-6.91,3.9-2.37,1.18-4.79,2.27-7.25,3.26-4.92,1.99-10.03,3.48-15.21,4.63-5.2,1.08-10.48,1.78-15.78,1.98-2.65.09-5.3.09-7.95-.03-2.64-.14-5.28-.37-7.9-.75,5.28.33,10.56.36,15.81,0,5.25-.36,10.48-1.05,15.61-2.19,5.15-1.06,10.21-2.55,15.15-4.37,4.94-1.81,9.75-4,14.44-6.44Z"/>
      <path class="cls-1" d="M216.21,85.15c-2.45,1.19-4.98,2.22-7.54,3.18-2.57.93-5.18,1.74-7.82,2.45-5.29,1.4-10.72,2.29-16.17,2.73-5.46.39-10.96.35-16.4-.22-5.44-.55-10.83-1.61-16.06-3.15,2.67.56,5.34,1.09,8.03,1.47,2.69.42,5.39.73,8.1.92,5.41.4,10.85.45,16.26-.01,5.41-.36,10.78-1.25,16.07-2.48,5.28-1.24,10.47-2.9,15.55-4.89Z"/>
      <path class="cls-1" d="M165.21,120.15c-8.86-6.6-15.88-15.75-20-26,.7,1.19,1.36,2.4,2.09,3.56,4.91,8.26,11.01,15.76,17.91,22.44h0Z"/>
      <path class="cls-1" d="M174.21,120.15c-11.24-6.27-20.73-15.76-27-27,7.41,10.46,16.54,19.59,27,27h0Z"/>
      <path class="cls-1" d="M184.21,117.15c-12.85-6.47-24.72-14.95-35-25,11.16,9,22.86,17.37,35,25h0Z"/>
      <path class="cls-1" d="M193.21,113.15c-14.72-5.82-28.93-13.03-42-22,6.15,3.38,14.69,8.16,20.84,11.31,6.95,3.77,14.16,7,21.16,10.69h0Z"/>
      <path class="cls-1" d="M202.21,106.15c-17.81-1.13-35.4-6.34-51-15,16.18,7.43,33.36,12.52,51,15h0Z"/>
      <path class="cls-1" d="M210.21,96.15c-2.42.42-4.86.7-7.3.95-2.45.22-4.9.35-7.36.43-4.92.11-9.84-.1-14.73-.58-4.89-.56-9.75-1.33-14.54-2.48-4.78-1.13-9.49-2.56-14.07-4.32,2.36.68,4.71,1.35,7.09,1.93,2.37.62,4.75,1.16,7.15,1.64,4.79.98,9.61,1.76,14.47,2.23,4.85.56,9.74.75,14.62.81,4.89.03,9.78-.21,14.67-.61Z"/>
    </g>
  </g>
</svg>