<?xml version="1.0" encoding="UTF-8"?>
<svg id="Layer_2" data-name="Layer 2" xmlns="http://www.w3.org/2000/svg" viewBox="0 0 231.17 209.11">
  <defs>
    <style>
      .cls-1 {
        fill: #6d5c2e;
      }

      .cls-2 {
        fill: #3f1900;
      }

      .cls-3 {
        fill: #534741;
      }

      .cls-4 {
        fill: #fff;
      }

      .cls-5 {
        fill: none;
      }

      .cls-6 {
        fill: #c98e44;
      }

      .cls-7 {
        fill: #59301c;
      }

      .cls-8 {
        fill: #333;
      }

      .cls-9 {
        fill: #e5a254;
      }

      .cls-10 {
        fill: #ffd5a2;
      }
    </style>
  </defs>
  <g id="Layer_1-2" data-name="Layer 1">
    <g>
      <path class="cls-10" d="M133.17,147.01c1.3,2.49,2.94,5.2,5,8,4.36,5.92,9.11,10.12,13,13-1.36,5.32-2.81,9.71-4,13-2.17,6.02-3.25,7.71-5,9-2.75,2.02-4.26.92-7,3-3.85,2.92-5.48,8.61-4,10,.4.37,1.21.61,3,0,.02.08.49,1.59,2,2,1.09.3,2.27-.1,3-1,.44.29,1.12.68,2,1,2.73.98,5.21.42,7,0,.76-.18,3.09-.73,5-2,3.59-2.39,4.01-6.2,6-12,2.27-6.63,2.83-4.91,7-15,1.35-3.28,3.18-8.04,5-14-5.67-6-11.33-12-17-18"/>
      <path class="cls-3" d="M137.17,153.01c1.01,1.85,2.32,3.9,4,6,3.42,4.27,7.11,7.14,10,9-.92,4.62-2.07,8.35-3,11-2.16,6.15-3.3,9.26-6,11-2.67,1.71-4.07.67-7,3-.31.24-2.9,2.36-4,6-.38,1.26-.96,3.16,0,4,.94.82,2.74.11,3,0,.02.08.49,1.59,2,2,1.09.3,2.27-.1,3-1,1.01.73,2.72,1.73,5,2,5.27.62,9.24-3.26,10-4,3.03-2.96,2.65-5.17,6-13,2.02-4.71,2.17-3.95,5-10,4.15-8.86,6.22-13.28,6-17-.41-7.07-5.68-14.61-11-15-2.99-.22-4.12,1.96-9,4-5.42,2.27-10.56,2.31-14,2Z"/>
      <path class="cls-1" d="M8.17,56.01c-2.44-2.53-7.06-8.08-8-16C-1.91,22.55,15.48,7.27,19.17,9.01c1.41.66.2,3.5,2,9,1.65,5.05,4.63,8.66,7,11"/>
      <path class="cls-9" d="M69.17,45.01c2.72.17,3.62,1.89,9,6,6.4,4.89,12.27,7.59,24,13,22.24,10.25,43.91,14.39,72,28,5,2.42,11.61,5.84,16,13,5.22,8.51,1.21,12.64,6,22,4.76,9.3,14.85,17.3,26,18,3.71.23,6.83-.38,9-1-.26.68-.82,1.89-2,3-1.55,1.45-3.27,1.87-4,2,1.56,2.38,1.18,3.59,1,4-.95,2.15-5.73,2.78-12,1,.2.57.4,1.41,0,2-1.01,1.48-5.27.51-8-1-1.15-.63-3.27-2.04-5-5,.37,1.16.61,2.45,0,3-1.13,1.02-4.79-.89-7-3-2.74-2.61-3.66-5.92-4-8,3.7,6.98,4.55,12.97,4,18-.4,3.63-1.22,3.88-2,9-1.18,7.7-.44,14.32,0,18,.91,7.69,2.18,9.15,1,13-.29.94-2.19,7.15-7,8-2.11.37-3.96-.42-5-1-.34.25-1.42,1-3,1-.42,0-1.74-.05-3-1-.26.07-3.22.77-5-1-2.01-1.99-.85-5.46,0-7,1.79-3.27,5.45-3.91,6-4,.28-1.05.7-2.8,1-5,.91-6.56-.44-8.06,0-15,.34-5.31,1.27-6.77,0-9-1.11-1.94-2.62-2.24-6-4-3.16-1.65-11.02-5.86-15-13-1.11-1.99-1.69-3.81-2-5-3.16,1.14-8,2.56-14,3-14.29,1.04-21.1-4.54-30-1-6.27,2.49-11.85,8.81-11.88,8.85,0,0,0,0,0,0,0,0-.05.08-.12.15-.12.14-15-3-15-3-4.54-.96-4.2-.21-6-1-3.41-1.49-4.57-4.13-9-13-5.8-11.59-7.69-14.81-7-20,.23-1.72.67-3.11,1-4-3.97-3.3-12.52-11.38-15-24-4.24-21.59,11.45-45.65,22-45Z"/>
      <path class="cls-7" d="M20.67,33.51c.33-1.61-.8-2.35-2-5-2.85-6.29-.87-11.75-2-12-.86-.19-1.71,2.98-5,9-3.24,5.92-4.49,6.65-5,10-.57,3.74.43,6.48,1,8,.51,1.36,1.13,2.98,2,3,1.32.04,1.2-3.62,4-7,3.03-3.65,6.46-3.34,7-6Z"/>
      <path class="cls-10" d="M75.67,125.51c-.07-2.67-.12-6.86,0-12,.45-18.29,1.19-27.03-2-39-1.57-5.89-2.54-9.36-5-10-5.55-1.45-14.14,12.67-21,26,.46,2.32,1.32,5.49,3,9,2.05,4.29,4.39,7.09,6,9,2.24,2.65,3.84,4.01,12,11,1.82,1.56,5.46,4.68,7,6Z"/>
      <path class="cls-9" d="M40.17,97.01c6.05-1.66,6.83-7.28,14-16,6.59-8.02,8.46-6.35,12-12,1.19-1.89,8.02-13.34,4-23-4.46-10.71-18.02-9.03-29-25-1.4-2.04-2.39-3.82-3-5-.43.67-.94,1.7-1,3-.06,1.16.28,1.79,0,2-.78.58-4.44-3.46-5-3-.44.36,1.7,2.64,1,4-1.07,2.06-7.9.46-8,1-.08.42,4.06,1.31,4,2-.09.93-7.76.56-8,2-.15.9,2.74,1.42,3,3,.33,1.99-3.83,3.52-7,6-7.17,5.62-9.95,16.65-8,25,.7,3.02,1.95,5.38,3,7-.21,1.33-.4,3.46,0,6,.3,1.87,1.11,7.01,4,8,1.74.6,2.81-.81,6-2,5.37-2,7.3.12,12-1,7.52-1.79,10.09-9.01,12-8,2.01,1.07-.49,9.31-1,11-1.33,4.38-2,6.57-4,8-4.21,3-10.01-.08-11,2-.56,1.17.85,3.06,2,4,2.92,2.4,7.18,1.23,8,1Z"/>
      <path class="cls-10" d="M37.17,97.01c.6,0,2.92-.01,5.5-1.5,3.98-2.29,4.35-5.62,8.5-11.5,1.12-1.59,2.75-3.69,5-6,.29-.9.68-2.28,1-4,.71-3.84.58-6.97,1-7,.34-.02.47,1.98,1,2,.56.02,1.65-2.22,1-4-.7-1.9-3.15-2.68-3-3,.12-.26,1.68.46,2,0,.33-.47-.87-1.85-1-2-1.09-1.26-2.07-1.53-2-2,.09-.64,1.95-.59,2-1,.07-.61-3.84-2.6-8-2-4.97.71-5.33,4.42-10,5-3.83.48-8.26-1.43-9-4-.49-1.71.68-3.58,0-4-.72-.44-2.34,1.45-3,1-.66-.45.51-2.67,0-3-.59-.38-3.38,1.72-5,5-1.47,2.97-.41,3.95-2,6-1.21,1.57-3.13,2.69-4.5,3.5-1.48.87-2.18,1.06-3,2-1.1,1.27-1.37,2.72-1.5,3.5-.73,4.29,1.21,10.9,4.5,11.5,1.61.29,2.01-1.12,6-2,1.77-.39,3.22-.45,4.5-.5,3.59-.14,5.06.4,7.5-.5.57-.21,1.05-.48,2-1,5.55-3.07,10-7,10-7h0v1c0,7.22-1,11-1,11-.29,1.1-.51,1.92-1,3-.64,1.41-2.02,4.42-5,6-4,2.11-8.33.29-9,0-.12.44-.25,1.18,0,2,.42,1.36,1.63,2.02,2.5,2.5.47.26,1.89.97,4,1Z"/>
      <path class="cls-1" d="M51.17,26.01c3.67,1.16,5.92,4.46,7,6,1.97,2.8,4.85,6.55,9,11,1.3,1.88,1.9,2.91,3,3,2.41.19,5.09-4.34,6-8,1.62-6.51-1.42-14.03-6-19-6.79-7.37-14.03-5.96-18-14-1.26-2.56-1.58-4.81-3-5-2.56-.34-5.7,6.41-7,11-1.23,4.32-4.23,12.84,0,17,1.29,1.27,2.87,1.77,4,2,0-.27.11-3.04,2-4,.71-.36,1.62-.44,3,0Z"/>
      <path class="cls-10" d="M76.17,126.01c1.29,4.62,4.2,12.53,11,20,3.85,4.23,7.83,7.1,11,9-.4.65-3.41,5.35-9,6-5.24.61-10.58-2.59-13-8-.76-1.2-1.82-2.91-3-5-2.2-3.89-3.54-6.06-5-10-3.53-9.53-6.51-9.95-7-16-.28-3.37.4-6.18,1-8"/>
      <path class="cls-2" d="M12.17,72.01c-.24-2.53,2.43-4.56,3-5,4.37-3.34,10.27-1.27,11-1,.27.41,1.89,2.97,1,6-1.19,4.08-5.75,4.96-6,5-3.97.7-8.7-1.83-9-5Z"/>
      <path class="cls-5" d="M20.17,77.01c.67,1,1.33,2,2,3"/>
      <path class="cls-2" d="M34.67,42.51c-.54-.53.32-2.94,2-4,2.35-1.48,6.37-.32,10,3-1.52-.68-3.62-1.32-6-1-3.39.45-5.4,2.6-6,2Z"/>
      <path class="cls-2" d="M10.67,45.51c.77-1.31,2.37-2.28,4-2,1.98.34,3.34,2.43,3,3-.27.44-1.38-.38-3,0-2.45.58-3.2,3.27-4,3-.68-.23-.93-2.41,0-4Z"/>
      <path class="cls-4" d="M35.67,78.51c.45.08,1.29.31,2,1,1,.97,1.47,2.59,1,3-.3.26-1.2-.16-3-1-.86-.4-1.55-.76-2-1,.21.6.06.9,0,1-.35.57-1.59.69-3,0,.17.5.17.83,0,1-.33.33-1.33,0-3-1,.5.85.39,1.74,0,2-.42.29-1.43.01-2-1,.04.09.25.63,0,1-.3.44-1.19.57-2,0,.2.2,1.33,1.4,1,2-.35.65-2.17.26-3,0-.86-.27-2.49-.96-4-3,2.84-2.2,5.27-2.84,7-3,1.97-.18,3.19.24,6,0,2.14-.18,3.86-.64,5-1Z"/>
      <path class="cls-4" d="M45.67,80.51c-1.19-.28-2.4.13-3,1-.8,1.16-.46,3.03,1,4-.33.67-.67,1.33-1,2-.51-.22-1.21-.54-2-1-1.24-.71-1.75-1.17-2-1-.19.13-.25.64.5,2.5-.41-.44-.99-.64-1.5-.5-.72.2-1.23,1.07-1,2,.06-.75-.16-1.39-.5-1.5-.4-.13-1.16.4-1.5,1.5,0-.33-.05-1.34-.5-1.5-.46-.16-1.28.62-2,2-.01-.32-.08-.93-.5-1.5-.53-.73-1.55-1.28-2-1-.46.29-.1,1.62,0,2,.25.92.69,1.59,1,2,.35.16.86.35,1.5.5.47.11,1.62.33,4,0,2.01-.28,3.01-.42,4-1,1.17-.69,1.81-1.56,2.5-2.5,1.08-1.47,1.58-2.81,2-4,.58-1.62.86-3.02,1-4Z"/>
      <path d="M15.67,73.51c-.48-.16-.88-.04-1,0-.49.16-.91.58-1,1-.15.72.61,1.75,2,2,.82-.42,1.22-1.29,1-2-.14-.45-.52-.84-1-1Z"/>
      <circle cx="23.67" cy="72.51" r="1.41"/>
      <circle class="cls-4" cx="14.69" cy="57.2" r="7"/>
      <circle class="cls-8" cx="13.55" cy="58.99" r="5.39"/>
      <circle cx="13.59" cy="59.38" r="3.27"/>
      <circle class="cls-4" cx="15.25" cy="55.54" r="2.97"/>
      <circle class="cls-4" cx="39.17" cy="51.75" r="7.84"/>
      <circle class="cls-8" cx="38" cy="52.52" r="6.04"/>
      <circle cx="37.05" cy="52.96" r="3.66"/>
      <circle class="cls-4" cx="39.64" cy="48.98" r="3.53"/>
      <path class="cls-5" d="M22.67,54.51c.02,1.28-.15,3.08-1,5-.44,1-1.07,2.41-2.5,3.5-1.33,1.01-2.2.86-3.5,1.5-1.26.62-2.82,1.93-4,5"/>
      <path class="cls-9" d="M26.17,83.01l-2-2"/>
      <path class="cls-9" d="M24.17,84.01c-1-.67-2-1.33-3-2"/>
      <path class="cls-3" d="M76.17,153.01c-.86.51-2.11,1.33-3.5,2.5-1.51,1.28-2.47,2.43-3,3-5.67,6.14-8.5,9.21-10,14-.94,3.01-.99,5.48-1,7,0,.41,0,6.19,3,12,0,0,1.83,3.55,4,4,.16.03.54.11,1,0,1.29-.3,1.88-1.71,2-2,1.27,1.2,2.88,1.59,4,1,.25-.13.66-.41,1-1,.36.06,2.58.42,4-1,.2-.2.76-.82,1-2,.52-2.6-1.2-4.66-3-8-2.33-4.33-3.51-6.54-3-9,.6-2.89,3.27-4.77,5-6,1.79-1.27,2.79-1.48,6-3,2.85-1.35,5.07-2.63,6.5-3.5-1.74-.11-5.35-.57-9-3-2.54-1.69-4.11-3.68-5-5Z"/>
      <path class="cls-3" d="M74.17,194.01c-.34-.59-.68-1.25-1-2-.47-1.09-.78-2.11-1-3"/>
      <path class="cls-3" d="M69.17,194.01c-.31-.23-.67-.56-1-1-.87-1.17-.99-2.43-1-3"/>
      <path class="cls-3" d="M120.17,158.01c-2.15.73-6.54,1.89-12,1-4.75-.78-8.18-2.76-10-4-.23,12.52.34,18.7,1,22,.52,2.64.51,5.36,1,8,.35,1.85.71,3.37,0,5-.46,1.04-1.23,1.86-3,3-5.1,3.3-7.55,2.31-10,5-.41.46-2.08,2.39-2,5,.06,2.13,1.28,4.89,3,5,.81.05,1.52-.5,2-1,.2.29,1.17,1.63,3,2,2.17.44,3.78-.82,4-1,1.19.42,4.51,1.4,8,0,5.07-2.04,6.59-7.52,7-9,.98-3.54.03-4.99,0-10-.03-4.15.65-7.1,2-13,1.06-4.65,2.85-10.88,6-18Z"/>
      <path class="cls-10" d="M154.17,144.01c-3.56,1.28-8.7,2.69-15,3-7.2.35-13.11-.87-17-2-.44-.51-2.33-2.83-2-6,.14-1.32.61-2.34,1-3,3.53.57,7.56.97,12,1,8.83.05,16.33-1.4,22-3-.41,1.34-.81,3.03-1,5-.19,1.93-.13,3.63,0,5Z"/>
      <path class="cls-3" d="M97.17,208.01c-.1-.23-.63-1.54,0-3,.58-1.35,1.75-1.89,2-2"/>
      <path class="cls-3" d="M90.17,207.01c-.09-.2-.69-1.56,0-3,.54-1.14,1.7-1.91,3-2"/>
      <path class="cls-3" d="M139.17,204.01c.04-.3.21-1.21,1-2,.21-.21.9-.84,2-1"/>
      <path class="cls-3" d="M134.17,203.01c.04-.3.21-1.21,1-2,.21-.21.9-.84,2-1"/>
      <path class="cls-3" d="M191.17,144.01c-.41,2.07-1.38,5.56-4,9-1.51,1.99-3.12,3.37-4,4-4.81,3.47-13.03,2.83-21-1,3.55,3.12,6.75,4.93,9,6,2.85,1.36,4.94,1.9,6,4,.86,1.7.37,3.1,0,6-.62,4.82.23,4.82,0,12-.08,2.63-.31,6.4-1,11-.9.21-2.5.71-4,2-.37.32-4.12,3.62-3,7,.41,1.24,1.48,2.49,3,3,1.35.45,2.54.15,3,0,.34.25,1.42,1,3,1,.42,0,1.74-.05,3-1,1.83,1.07,3.33,1.06,4,1,2.8-.24,4.67-2.43,6-4,.99-1.16,1.66-2.3,2-3,2.29-4.69-.38-9.56-1-18-.03-.42-.65-9.46,1-16,.18-.7.77-2.93,1-6,.03-.4.18-2.5,0-5-.36-4.97-1.86-9.3-3-12Z"/>
      <path class="cls-6" d="M154.17,144.01c-1.37-5.05-.19-10.86,3-15-1.95,4.87-2.95,9.75-3,15h0Z"/>
      <g>
        <path class="cls-9" d="M76.17,126.01c1.75,5.8,5.74,15.79,15,24,2.96,2.63,8.59,7.49,17,9,5.8,1.04,9.78-.08,12-1,1.83-.76,5.18-2.13,6-5,.65-2.28-.66-4.22-2-7-1.43-2.96-3.08-7.24-4-13"/>
        <path class="cls-6" d="M76.17,126.01c5.33,16.46,20.86,34.86,39.71,32.72,3.72-.71,10.13-2.6,10.1-7.2-.29-2.73-2.16-5.06-3.04-7.66-1.36-3.5-2.29-7.15-2.77-10.86.7,3.66,1.72,7.27,3.22,10.67,1.2,3.37,4.78,7,2.59,10.69-1.04,1.75-2.82,2.77-4.52,3.56-5.17,2.53-11.3,2.4-16.72.76-14.38-4.83-24.66-18.39-28.57-32.68h0Z"/>
      </g>
      <path class="cls-5" d="M181.67,207.51c-.63-.95-.62-2.16,0-3,.7-.95,1.85-1,2-1"/>
      <path class="cls-5" d="M175.17,207.01c-.09-.29-.31-1.09,0-2,.48-1.42,1.81-1.93,2-2"/>
      <path class="cls-3" d="M100.17,73.01c.77-1.1,5.58-.28,6,2,.22,1.21-.82,2.78-2,3-2.2.41-4.78-3.88-4-5Z"/>
      <path class="cls-3" d="M115.67,77.51c1.27-2.39,11.72-.47,12,2,.14,1.26-2.39,2.57-4,3-2.28.61-5.33.17-7-2-.33-.43-1.54-1.99-1-3Z"/>
      <path class="cls-3" d="M87.67,84.51c-1.87-.26-3.65,2.96-3,4,.67,1.07,4.48.74,5-1,.34-1.14-.76-2.83-2-3Z"/>
      <path class="cls-3" d="M96.67,83.51c1.71-1.3,7.27,1.14,8,5,.35,1.86-.35,4.42-2,5-2.29.8-4.84-2.78-5-3-1.6-2.29-2.36-5.96-1-7Z"/>
      <path class="cls-3" d="M121.67,91.51c-.07-1.25,4.99-3.17,6-2,.54.63-.02,2.21-1,3-1.84,1.48-4.94-.05-5-1Z"/>
      <path class="cls-3" d="M113.67,99.51c.11-.23.92.36,2,0,1.63-.54,1.53-2.48,3-3,1.04-.37,2.42.14,3,1,1,1.49-.21,4.22-2,5-2.75,1.2-6.23-2.51-6-3Z"/>
      <path class="cls-3" d="M137.67,89.51c.43-.71,3.15-.53,4,1,.35.63.45,1.6,0,2-.63.55-2.15-.18-3-1-.46-.44-1.31-1.48-1-2Z"/>
      <path class="cls-3" d="M146.67,87.51c1.01-.99,4.24.7,6,2,1.74,1.28,4.84,4.23,4,6-.56,1.18-2.83,1.76-4,1-1.3-.85-.49-2.85-2-4-1.07-.82-1.92-.15-3-1-1.27-1.01-1.75-3.26-1-4Z"/>
      <path class="cls-3" d="M132.67,98.51c3.16-2.56,9.1-1.4,10,1,.55,1.46-.64,3.71-2,4-1.36.29-1.93-1.61-4-2-2.95-.55-5.2,2.65-6,2-.67-.54.04-3.41,2-5Z"/>
      <path class="cls-3" d="M159.67,101.51c1.21-.43,3.5-1.23,5,0,.94.77,1.51,2.29,1,3-.53.73-1.82.1-5,0-3.32-.1-4.8.5-5,0-.25-.63,1.85-2.24,4-3Z"/>
      <path class="cls-3" d="M110.67,85.51c.43-.96,3.13-1.27,4,0,.38.56.43,1.45,0,2-.64.82-2.13.63-3,0-.63-.45-1.27-1.38-1-2Z"/>
      <path class="cls-3" d="M90.67,99.51c.04-.33,6.99-1.26,9,2,.95,1.53.65,3.76,0,4-.66.24-1.25-1.68-3-2-1.9-.35-3.37,1.53-4,1-.66-.55.92-2.63,0-4-.64-.96-2.02-.85-2-1Z"/>
      <path class="cls-3" d="M85.17,64.01c.72-.69,2.56-.09,3,1,.04.09.24.59,0,1-.44.78-2.26.97-3,0-.44-.58-.46-1.55,0-2Z"/>
      <path class="cls-3" d="M88.67,70.51c.51-.02,2.21-.1,3,1,.6.83.6,2.23,0,3-2,2.56-11.15-1.08-11-2,.07-.42,2.01.19,5-1,1.23-.49,1.78-.94,3-1Z"/>
      <path class="cls-7" d="M66.67,43.51c.45-2.01.89-4.97.5-8.5-.66-6.08-3.46-11.16-4-11-.42.13.48,3.86,0,4-.76.21-3.14-9.11-6-9-1.32.05-1.71,2.06-3,2-2.22-.1-3.63-6.11-4-6-.35.11,2.09,5.27,0,8-1.17,1.52-2.78,1.1-4,3-1.22,1.91-.95,4.37-.5,4.5.45.13,1.03-2.04,2-2,.77.03.91,1.4,2,3,.89,1.31,1.58,1.54,5,4,.95.69,2.34,1.7,4,3"/>
      <path class="cls-5" d="M58.17,38.01c-.77-.48-1.81-1.15-3-2-2.61-1.86-3.92-2.79-5-4-1.54-1.72-2.12-3.14-3-3-.49.08-.81.6-1,1-.58-2.56-.06-3.82.5-4.5.9-1.09,1.98-.77,3-2,.94-1.13.97-2.52,1-4,.02-1.05-.08-2.87-1-5"/>
      <path class="cls-5" d="M20.67,33.51c-1-1.79-2.28-4.51-3-8-1.14-5.5-.25-9.86-1-10-.56-.1-1.25,2.34-3,6-1.48,3.08-2.97,5.46-4,7"/>
      <path class="cls-10" d="M222.67,147.51c1.41-.25,3.01-.61,3-1-.01-.53-3.02-.83-3-1,.02-.12,1.53.05,3,0,2.11-.07,3.83-.56,5-1-.39.68-1.3,2.03-3,3-1.18.68-2.29.91-3,1,.43.72,1.94,3.29,1,5-1.18,2.16-6.08,2.64-12,0,.27.76.69,2.24,0,3-1.25,1.38-5.26-.63-6-1-2.44-1.22-3.93-2.83-5-4-1.15-1.26-2.69-3.22-4-6,.43.79,3.21,6.02,2,7-.87.7-3.59-.9-5-2-.93-.73-1.59-1.47-2-2-.67-1.67-1.33-3.33-2-5,1.28,3.56,3.77,5.41,5,5s2.11-3.38,1-7c3.99,6.96,7.81,9.77,10,11,1.04.58,3.13,1.76,4,1,.76-.67.18-2.5,0-3,4.81,3.58,9.48,3.84,11,2,1.17-1.42.37-3.99,0-5Z"/>
    </g>
  </g>
</svg>