<?xml version="1.0" encoding="UTF-8"?>
<svg id="Layer_2" data-name="Layer 2" xmlns="http://www.w3.org/2000/svg" viewBox="0 0 247.86 386.1">
  <defs>
    <style>
      .cls-1 {
        fill: #f7922b;
      }

      .cls-2 {
        fill: #d07628;
      }

      .cls-3 {
        fill: #1b0f0a;
      }

      .cls-4 {
        fill: #88231a;
      }

      .cls-5 {
        fill: #d4823c;
      }

      .cls-6 {
        fill: #fff;
      }

      .cls-7 {
        fill: none;
      }

      .cls-8 {
        fill: #fde6dd;
      }

      .cls-9 {
        fill: #333;
      }

      .cls-10 {
        fill: #dc9d0a;
      }

      .cls-11 {
        fill: #fddac9;
      }

      .cls-12 {
        fill: #be6c1e;
      }

      .cls-13 {
        fill: #b86628;
      }

      .cls-14 {
        fill: #febf10;
      }

      .cls-15 {
        fill: #de8436;
      }
    </style>
  </defs>
  <g id="Layer_1-2" data-name="Layer 1">
    <g>
      <path class="cls-11" d="M90.08,248.09c-6.24,6.86-1.49,12.4-8,23-7.96,12.95-19.24,11.48-22,22-1.21,4.6.81,5.4,4,20,1.42,6.49,3.63,16.6,4,28,.58,17.73-3.75,24.11,1,29,2.56,2.63,5.1,2.11,18,3,24.29,1.67,27.2,4.35,33,1,8.64-4.98,13.67-17.53,10-23-3.59-5.35-15.46-3.83-22-3-11.63,1.48-15.09,5.39-20,3-4.66-2.27-5.95-7.94-8-17-2.6-11.47-2.4-25.31,3-30,.49-.43,1.68-1.35,3-3,2.77-3.47,2.91-6.17,4-8,2.8-4.7,11.24-2.62,17-4,14.7-3.51,27.32-33.23,18-44-6.9-7.98-26.51-6.35-35,3Z"/>
      <path class="cls-2" d="M48.08,236.09c1.49,7.14.43,12.24,0,14-2.27,9.3-9.41,18.11-13,17-1.27-.39-2.58-2.17-3-8-4.64,6.78-9.55,10.21-12,9-1.97-.97-2.09-4.8-2-7-1.05,1.56-3.19,4.39-5,4-2.11-.46-3.35-5.22-3-12-1.73,4.84-4.07,8.22-6,8-2.5-.28-3.72-6.53-4-10-.3-3.71-.07-10.67,7-22,7.29-11.68,12.45-19.95,20-20,10.74-.08,18.81,16.53,21,27Z"/>
      <path class="cls-13" d="M5.58,232.59c.62,1.24,1.33,1.79,2,2,4.96,1.57,13.53-13.4,15-16-.58,14.76.42,22.42,3,23,1.48.33,3.48-1.67,6-6,.54,2.68,2.58,4.69,5,5,.16.02,3.2.36,5-2,1.28-1.68,1.06-3.59,1-4,.28,1.97,1.44,3.54,3,4,.78.23,1.5.13,2,0,.03-2.69-.12-6.52-1-11-1.52-7.73-2.5-12.68-6-15-7.34-4.86-22.78,3.82-31,14-1.91,2.36-3.2,4.53-4,6Z"/>
      <path class="cls-11" d="M176.08,59.09c-1.51,6.23-2.56,14.79,0,24,8.62,30.97,49.56,38.63,47,52-1.46,7.63-16.45,13.75-22,10-2.41-1.63-2.61-4.81-3-7-2.85-15.79-23.56-22.11-35-33-7.49-7.13-15.32-20.33-15-47,9.33.33,18.67.67,28,1Z"/>
      <path class="cls-11" d="M161.08,58.09c3.43.7,25.56,4.94,36-6,2-2.09,5.83-6.1,5-11-.64-3.79-3.74-6.15-5-7,.93-3.02,3.98-14.16-2-24-1-1.64-6.76-11.14-14-10-3.51.55-5.87,3.37-7,5-.76-.76-5.61-5.44-13-5-6.16.36-10.05,4.04-11,5-.74-.78-5.64-5.82-12-5-8.55,1.1-11.6,11.61-12,13-2.6,9,2.12,16.63,3,18-.74.27-7.98,2.99-9,9-.69,4.06,1.89,7.38,3,9,8.52,12.45,36.63,9.17,38,9Z"/>
      <path class="cls-6" d="M126.08,354.09c1.68-1.58,4.3-1.12,5-1,5.43.95,9.13,7.46,8,9-.6.82-2.11-.39-6,0-3.7.37-4.59,1.69-6,1-2.36-1.15-3.51-6.63-1-9Z"/>
      <path class="cls-2" d="M223.08,135.09c4.66,3.38,12.49,10.04,18,21,2.8,5.56,11.06,22,4,40-8.08,20.59-29.62,26.4-32,27-.85,2.09-7.56,17.77-25,23-20.77,6.23-37.17-8.24-38-9-19.06,4.66-30.19,9.85-37,14-1.87,1.14-6.14,3.86-12,4-7.82.19-13.84-4.33-16-6-13.75-10.62-10.4-25.05-23-31-1.62-.77-6.18-2.92-9-1-5.02,3.42.37,16.45-4,19-1.33.77-3.83.74-9-3,.24,3.67-1.28,6.61-3,7-1.95.44-5.26-2.17-6-7-2,4.2-3.67,6.2-5,6-2.48-.37-3.82-8.38-4-24-4.22,7.69-10.38,17.96-13,17-2.73-1-2.02-13.03,2-23,1.12-2.78,4.55-10.5,15-20,11.51-10.46,17.24-10.09,30-19,15.4-10.75,12.67-15.2,25-24,3.59-2.56,25.92-17.97,51-13,11.82,2.34,30.68,10.34,43,26,4.36,5.54,9.39,13.93,17,14,3.55.03,7.68-1.75,10-5,4.77-6.68-2.12-14.4,1-22,1.7-4.15,6.54-8.71,20-11Z"/>
      <path class="cls-13" d="M90.58,153.59c.02.64.16,1.87,1,3,1.27,1.7,3.61,2.46,6,2-3.81.84-10.6,3-15,9-.91,1.24-4.97,6.77-3,10,.71,1.16,1.93,1.61,3,2,4.32,1.58,8.54-.27,10-1,13.08-1.58,15.92-1.44,16-1,.15.82-9.39,1.27-14,8-2.89,4.21-3.78,10.79-1,13,2.26,1.8,6.38.24,7,0,2.78-1.07,4.36-3.07,5-4,3.33-1.67,6.67-3.33,10-5-1.98,3.51-3.21,6.62-4,9-1.06,3.21-2.32,7.02-1,8,.78.58,2.24.01,4-1,5.9-3.39,10.54-9.11,12-12,4.56-9.04-2.71-28.47-21-46l-15,6Z"/>
      <path class="cls-11" d="M151.08,231.09c5.84,6-3.4,23.77-7,31-5.99,12.05-13.46,20.59-19,26,.23,1.96.3,4.93-1,8-1.83,4.33-4.93,5.48-7,8-1.19,1.45-3.09,4.64,1,24,4.21,19.91,8,24.99,11,28,2.11,2.11,4.43,4.38,8,5,6.02,1.05,8.52-3.81,16-5,5.06-.81,13.94-.18,18,6,3.36,5.1,2.28,12.24-1,17-.2.3-5.18,7.32-12,7-5.72-.27-7.31-5.45-13-5-3.58.28-3.64,2.39-8,3-4.18.59-5.58-1.15-11-2-7.9-1.24-9.75,1.7-13,0-4.24-2.22-4.55-9.03-5-22-.97-28.33-.7-27.23-1-29-3.3-19.52-13.84-20.78-13-34,.79-12.48,10.28-12.78,14-28,4.41-18.04-7.41-29.59-1-36,2.77-2.77,5.3-1.03,23-2,15.63-.86,18.58-2.48,21,0Z"/>
      <path class="cls-5" d="M94.08,152.09c-8.88,2.68-13.92,7.79-24,18-3.79,3.84-11.87,12.02-10,15,.78,1.24,3.06,1.23,5,1-1.28.49-3.54,1.61-5,4-.6.98-1.62,2.66-1,4,.67,1.45,2.91,1.73,5,2,1.7.22,3.1.11,4,0-1.15,1.49-1.15,2.45-1,3,.64,2.38,5.8,3.54,13,3-1.92.71-3.99,1.74-4,3-.01,2.37,7.34,4.33,11,5,2.47.45,16.2,2.67,27-5,16.2-11.51,19.37-40.75,7-51-8.97-7.44-23.8-2.97-27-2Z"/>
      <path class="cls-13" d="M204.58,163.59c.78.84,2.09,2.05,4,3,1.54.77,2.88,1.43,4,1,1.65-.63,2.49-3.49,2-7,3.34.94,6.11,1.06,8,1,3.06-.1,3.72-.69,4-1,1.19-1.35.75-4.1-1-7,.59.36,3.11,1.84,6,1,.68-.2,2.19-.63,3-2,.98-1.65.59-4.04-1-6l3,3c-1.83-5.47-4.69-7.33-6-8-8.6-4.4-23.78,4.96-26,16-.51,2.52-.25,4.69,0,6Z"/>
      <path class="cls-6" d="M167.08,374.09c-.75-2.65.04-5.41,2-7,2.49-2.02,5.6-1.12,6-1,2.51.77,3.71,2.81,5,5,1.08,1.83,3.48,6.63,2,8-1.03.95-2.64-.96-7-1-3.13-.03-4.48.95-6,0-1.37-.85-1.83-2.62-2-4Z"/>
      <path class="cls-6" d="M158.08,384.09c-.97-.68-.99-2.19-1-3,0-.4.01-4.06,3-6,.53-.34,1.66-1.08,3-1,4.5.26,7.79,9.39,6,11-1.16,1.04-3.57-1.84-8-1-1.06.2-2.14.6-3,0Z"/>
      <path class="cls-2" d="M161.08,164.09c.53.14,6.18,1.75,8,7,1.71,4.91-.66,10.94-6,14-.71,2.36-3.11,9.21-10,14-10.6,7.36-22.63,3.47-24,3-1.47.62-3.24,1.55-5,3-1.95,1.6-2.52,2.71-4,3-2.47.49-4.82-1.82-5-2-2.93-2.96-2.47-9.36,1-16-2.13,1.47-5.5,3.51-10,5-4.22,1.4-9.19,3.05-11,1-2.05-2.32.99-8.19,3-11,2.96-4.15,6.87-6.12,9-7-3.33.54-8.15,1.11-14,1-6.01-.11-9.03-.21-10-2-2.11-3.93,7.45-12.51,8-13,4.39-3.88,8.91-5.91,12-7-4.79-.1-8.32-1.63-9-4-.48-1.65.55-3.29,1-4,3.62-5.63,13.71-8.61,23-9,4.91-.2,18.61-.78,31,9,6.69,5.28,10.26,11.41,12,15Z"/>
      <path class="cls-1" d="M197.08,134.09c-.8.4-1.88,1.03-3,2-.32.28-6.38,5.73-5,13,.5,2.64,1.82,4.64,3,6,.14,1.03.77,4.91,4,7,.73.48,2.48,1.61,4,1,1.75-.7,2.76-3.55,2-7,2.99,6.36,6.94,9.76,9,9,1.79-.66,2.44-4.57,2-9,.8.82,2.47,2.29,5,3,1.26.35,3.67,1.03,5,0,1.74-1.34,1.56-5.49-1-10,4.44,3.33,8.72,3.6,10,2,1.41-1.77-.87-5.77-1-6,.39.02,3.19.1,5-2,1.78-2.07,1.85-5.4,0-8,.74-.09,1.61-.33,2-1,1.22-2.12-3.22-7.13-7-10-2.83-2.15-7.64-5.81-12-4-2.11.87-3.34,2.71-4,4,1.02.49,2.56,1.4,4,3,.97,1.09,1.6,2.16,2,3-.61.34-2.01,1.24-3,3-.95,1.7-1.01,3.3-1,4-.25-.12-2.55-1.22-5,0-.25.12-2.51,1.31-3,4-.39-.29-1.48-1.01-3-1-2.36,0-3.8,1.75-4,2-.47-1.18-1.11-2.55-2-4-1-1.64-2.06-2.97-3-4Z"/>
      <path class="cls-7" d="M192.08,155.09c-.2-1.11-.39-2.88,0-5,.43-2.32,1.36-4.02,2-5"/>
      <path class="cls-2" d="M103.08,229.09c-.79.27-2.69,1.05-4,3-.4.6-2.16,3.22-1,5,1.01,1.54,3.55,1.43,5,1,2.81-.84,3.87-3.63,4-4,.2.86.73,2.47,2,3,1.89.79,5.17-.94,7-5,.17,2.5,1.42,4.58,3,5,2.11.56,5.45-1.7,6-6,.11,2.62,1.84,4.17,3,4,.93-.13,1.79-1.39,2-3,1.41,5.39,5.61,7.85,8,7,1.76-.62,2.89-3.17,3-6,1.2,1.52,3.11,2.29,5,2,2.72-.42,3.9-2.8,4-3,.43.8,1.8,3.2,3,3,1.21-.2,2.02-2.99,2-7"/>
      <path class="cls-14" d="M129.08,54.09c-.22-.24-2.85-3.3-2-7,.88-3.85,4.87-5.52,6-6,5.07-2.13,7.36.77,13,0,8.06-1.11,8.42-7.74,15-8,6.05-.24,6.45,5.33,15,7,7.46,1.46,10.82-2.07,15,1,2.54,1.86,4.35,5.4,4,9-.08.79-.48,3.82-3,6-2.83,2.45-7.16,2.83-11,1-1.71,2.36-4.33,5.61-8,9-4.98,4.59-7.47,6.88-11,7-4.16.14-7.37-2.79-12-7-3.3-3-5.57-5.94-7-8-3.46.09-6.19-.48-8-1-2.68-.77-4.48-1.29-6-3Z"/>
      <path class="cls-4" d="M147.08,53.09c-1,3.04,4.58,7.89,7,10,2.54,2.21,4.31,3.75,7,4,4.37.41,7.8-2.89,10-5,2.35-2.25,5.71-5.48,5-8-1.73-6.11-27.11-6.73-29-1Z"/>
      <g>
        <path class="cls-14" d="M134.08,48.09c.45,1.09,1.32,2.74,3,4,4.3,3.23,8.62-.15,14,2,6.12,2.44,6.05,9,10,9,3.54,0,3.42-5.27,9-8,6.31-3.08,12.16.88,16-3,1.31-1.32,1.79-2.96,2-4"/>
        <path class="cls-10" d="M134.08,48.09c1.12,2.49,3.29,4.67,6.05,5.08,2.69.44,5.46-.49,8.35-.13,4.65.34,7.55,3.94,9.75,7.62,1.71,2.64,4.15,2.55,5.8-.23,8.26-13.99,20.7-.25,24.06-12.34-1.5,7.87-7.86,5.66-13.68,6.2-2.69.31-5.28,1.46-7.14,3.4-2.37,2.35-4.01,7.94-8.32,5.18-1.7-1.39-2.5-3.5-3.82-5.11-1.62-2.18-4.07-3.59-6.75-3.96-2.68-.44-5.49.41-8.34-.15-2.84-.59-5.01-2.92-5.95-5.56h0Z"/>
      </g>
      <path class="cls-3" d="M158.08,47.09c.02-.45.02-1.89-1-3-.59-.64-1.62-1.29-2-1-.44.34-.02,2,1,3,.7.69,1.53.91,2,1Z"/>
      <path class="cls-3" d="M164.82,47.09c-.02-.45-.02-1.89,1-3,.59-.64,1.62-1.29,2-1,.44.34.02,2-1,3-.7.69-1.53.91-2,1Z"/>
      <path class="cls-7" d="M150.08,5.09c.66.99,1.41,2.32,2,4,.84,2.41,1.01,4.54,1,6"/>
      <path class="cls-7" d="M174.08,5.09c-.8.69-2.08,1.99-3,4-1.17,2.57-1.1,4.9-1,6"/>
      <path class="cls-7" d="M166.08,375.09c-.67-1.37-1.88-3.35-4-5-3.66-2.85-7.77-2.95-12-3-3.52-.04-9.23.36-16,3"/>
      <circle class="cls-6" cx="139" cy="23.87" r="13.62"/>
      <circle class="cls-9" cx="138.72" cy="23.45" r="10.48"/>
      <circle cx="138.81" cy="24.23" r="6.36"/>
      <circle class="cls-6" cx="132.77" cy="17.21" r="4.29"/>
      <circle class="cls-6" cx="185.52" cy="24.5" r="13.62"/>
      <circle class="cls-9" cx="185.23" cy="24.09" r="10.48"/>
      <circle cx="185.32" cy="24.86" r="6.36"/>
      <circle class="cls-6" cx="179.29" cy="17.84" r="4.29"/>
      <path class="cls-12" d="M65.08,186.09c5.09-2.59,10.08-5.06,15-8-4.09,4.06-9.42,6.7-15,8h0Z"/>
      <path class="cls-12" d="M68.08,196.09c7.54-2.26,14.47-5.61,21-10-5.62,5.48-13.19,9.12-21,10h0Z"/>
      <path class="cls-12" d="M80.08,202.09c5.19-1.73,10.05-3.68,15-6-4.19,3.49-9.56,5.64-15,6h0Z"/>
      <path class="cls-7" d="M103.08,157.09c4.58-1.52,10.72-2.94,18-3,17.03-.13,29.6,7.31,35,11"/>
      <path class="cls-7" d="M107.08,178.09c6.12-1.8,14.28-3.57,24-4,10.07-.45,18.62.68,25,2"/>
      <path class="cls-7" d="M116.08,190.09c3.2-2.33,7.53-4.96,13-7,10.83-4.04,20.51-3.66,26-3"/>
      <path class="cls-7" d="M129.08,202.09c1.43-2.47,3.37-5.25,6-8,7.47-7.8,16.23-10.79,21-12"/>
      <path class="cls-7" d="M221.08,130.09c1.07-.28,3.32-.73,6,0,1.86.51,3.2,1.38,4,2"/>
      <path class="cls-7" d="M217.08,137.09c1.62.91,3.29,1.91,5,3,1.04.67,2.04,1.33,3,2"/>
      <path class="cls-7" d="M209.08,141.09c.16,2.12.47,4.48,1,7,.3,1.42.64,2.75,1,4"/>
      <path class="cls-7" d="M202.08,142.09c-.35.66-.79,1.68-1,3-.2,1.24-.11,2.29,0,3"/>
      <path class="cls-7" d="M222.08,149.09c-1.25-1.07-2.62-2.39-4-4-1.21-1.4-2.19-2.76-3-4"/>
      <path class="cls-12" d="M22.08,215.09c4.58-11.85,14.91-21.23,27-25-1.43.67-2.85,1.34-4.22,2.1-9.7,5.12-17.67,13.2-22.78,22.9h0Z"/>
      <path class="cls-12" d="M40.08,233.09c-3.61-5.1-4.29-12.22-2-18-.88,6.17-.33,12.2,2,18h0Z"/>
      <path class="cls-12" d="M32.08,259.09c1-6.5,2.67-12.85,5-19-1,6.51-2.67,12.84-5,19h0Z"/>
      <path class="cls-12" d="M18.08,261.09c2.02-7.56,4.69-14.91,8-22-2.02,7.57-4.69,14.9-8,22h0Z"/>
      <path class="cls-12" d="M10.08,253.09c-.07-12.72,3.85-25.48,11-36-5.93,11.19-9.7,23.4-11,36h0Z"/>
      <path class="cls-8" d="M150.18,239.66c.51.17-1.31,9.97-6.03,19.71-6.77,13.97-16.86,22.4-17.17,22.14-.23-.19,5.24-5.38,10.81-15.46,2.15-3.9,4.06-8.14,7.87-16.62,3.37-7.5,4.25-9.87,4.51-9.78Z"/>
      <path class="cls-15" d="M233.58,210.59c-.96-.52,7.81-12,9-30,.86-13.01-2.74-21.82-2-22,.9-.22,7.81,12.34,6,27-1.86,15.03-12.05,25.51-13,25Z"/>
      <path class="cls-15" d="M85.58,175.59c-.77-.82,4.04-8.79,12-14,18.76-12.28,45.09-2.79,45-2-.07.61-15.79-4.85-34,2-13.93,5.24-22.08,14.98-23,14Z"/>
      <path class="cls-15" d="M94.58,151.59c-.33-.72,2.44-2.61,3-3,8.17-5.6,24.8-11.11,41-4,14.65,6.43,21.91,20.09,21,21-1.14,1.14-13.92-19-34.5-20.5-15.08-1.1-29.76,8.14-30.5,6.5Z"/>
      <path class="cls-13" d="M103.58,229.59c-.74.3-1.92.88-3,2-1.07,1.1-2.86,3.58-2,5,.44.72,1.39.89,2,1,1.96.35,3.56-.71,4-1,2.43-1.61,2.91-4.41,3-5-.24,2.52.66,4.57,2,5,1.41.45,2.97-1.03,4-2,1.87-1.77,2.66-3.82,3-5-.06.2-.86,3.17,1,5,.28.27,1,.99,2,1,2.26.03,3.82-3.58,4-4,.49-1.15,1-3,1-3h0s1.5,4.91,3,5c.74.04,1.72-1.07,3-5-.05.74-.28,5.62,3,8,.38.28,2.36,1.71,4,1,.99-.43,1.4-1.45,2-3,.42-1.08.92-2.78,1-5,.12.47.56,1.94,2,3,.43.31,1.6,1.18,3,1,2.2-.28,3.98-2.99,4-3h0c2.3,4.02,3,4,3,4,1.16-.04,1.91-2.69,2-3,.49-1.73.21-3.23,0-4-.05.69-.24,1.84-1,3-.34.53-.6.91-1,1-.86.2-2.05-1.02-3-3-.2.48-1.09,2.39-3,3-2.39.76-5.53-.77-7-4,.95,3.37-.17,6.27-2,7-1.77.71-3.74-.8-4-1-2.07-1.62-2.82-4.75-2-8-1.94,4.27-3.2,5.11-4,5,0,0-.62-.08-3-4h0c-2.39,5.41-4,6-4,6-.28.1-1.28.47-2,0-.92-.6-.95-2.31-1-5,0-.42,0-.76,0-1-1.14,2.04-2.17,3.72-3,5-1.34,2.08-2.03,2.95-3,3-.83.04-1.47-.53-2-1-1.5-1.33-1.88-3.14-2-4,.01.54.04,3.3-2,5-1.31,1.09-3.4,1.68-4,1-.5-.57.1-1.95,1-4,.36-.82.72-1.5,1-2Z"/>
    </g>
  </g>
</svg>