<?xml version="1.0" encoding="UTF-8"?>
<svg id="Layer_2" data-name="Layer 2" xmlns="http://www.w3.org/2000/svg" viewBox="0 0 2412.25 1179.39">
  <defs>
    <style>
      .cls-1 {
        fill: #001b20;
      }

      .cls-2 {
        fill: #fff;
      }

      .cls-3 {
        fill: #ffe1be;
      }

      .cls-4 {
        stroke-width: 5px;
      }

      .cls-4, .cls-5 {
        fill: none;
        stroke: #fff;
        stroke-miterlimit: 10;
      }

      .cls-6 {
        fill: #ffa06c;
      }

      .cls-7 {
        fill: #807000;
      }

      .cls-8 {
        fill: #ffc07e;
      }

      .cls-9 {
        fill: #b5ff6b;
      }

      .cls-10 {
        fill: #999;
      }

      .cls-11 {
        fill: #acffff;
      }

      .cls-5 {
        stroke-width: 2px;
      }

      .cls-12 {
        fill: #ffdb83;
      }

      .cls-13 {
        fill: #b3b3b3;
      }

      .cls-14 {
        fill: #ffe8d8;
      }

      .cls-15 {
        fill: #00131a;
      }
    </style>
  </defs>
  <g id="Layer_1-2" data-name="Layer 1">
    <rect class="cls-11" x=".88" y=".69" width="2411.37" height="926.06"/>
    <line class="cls-4" x1="777.68" y1=".84" x2="777.68" y2="926.91"/>
    <line class="cls-4" x1="883.5" y1=".38" x2="883.5" y2="926.44"/>
    <line class="cls-4" x1="994.07" y1="1.15" x2="994.07" y2="927.21"/>
    <line class="cls-4" x1="1105.98" y1="0" x2="1105.98" y2="926.06"/>
    <line class="cls-4" x1="2410.74" y1="720.11" x2="2.02" y2="720.11"/>
    <line class="cls-4" x1="2411.06" y1="607.28" x2="2.33" y2="607.28"/>
    <line class="cls-4" x1="2410.43" y1="504.3" x2="1.7" y2="504.3"/>
    <line class="cls-4" x1="2410.33" y1="401.89" x2="1.61" y2="401.89"/>
    <line class="cls-4" x1="2409.7" y1="298.91" x2=".98" y2="298.91"/>
    <line class="cls-4" x1="2410.02" y1="186.07" x2="1.29" y2="186.07"/>
    <line class="cls-4" x1="2409.39" y1="83.1" x2=".66" y2="83.1"/>
    <line class="cls-4" x1="1216.56" y1=".77" x2="1216.56" y2="926.83"/>
    <line class="cls-4" x1="1322.38" y1=".3" x2="1322.38" y2="926.36"/>
    <line class="cls-4" x1="1432.95" y1="1.07" x2="1432.95" y2="927.13"/>
    <line class="cls-4" x1="2411.37" y1="823.09" x2="2.65" y2="823.09"/>
    <line class="cls-4" x1="1536.69" y1=".15" x2="1536.69" y2="926.21"/>
    <line class="cls-4" x1="1647.26" y1=".92" x2="1647.26" y2="926.98"/>
    <line class="cls-4" x1="1753.08" y1=".45" x2="1753.08" y2="926.52"/>
    <line class="cls-4" x1="1863.66" y1="1.22" x2="1863.66" y2="927.28"/>
    <line class="cls-4" x1="1976.14" y1="0" x2="1976.14" y2="926.06"/>
    <line class="cls-4" x1="2086.71" y1=".77" x2="2086.71" y2="926.83"/>
    <line class="cls-4" x1="674.38" y1=".23" x2="674.38" y2="926.29"/>
    <line class="cls-4" x1="2192.53" y1=".3" x2="2192.53" y2="926.36"/>
    <rect class="cls-13" y="925.99" width="2411.37" height="253.4"/>
    <ellipse class="cls-10" cx="2228.08" cy="1071.91" rx="184.17" ry="40.67"/>
    <ellipse class="cls-10" cx="1519.52" cy="960.93" rx="154.34" ry="33.4"/>
    <ellipse class="cls-10" cx="1230.03" cy="1019.67" rx="119.02" ry="29.95"/>
    <polygon class="cls-8" points="1626.26 204.18 1626.26 962.85 1594.01 962.85 1594.01 864.56 1440.43 864.56 1440.43 962.85 1408.18 962.85 1408.18 204.18 1626.26 204.18"/>
    <rect class="cls-8" x="831.23" y="204.18" width="215.01" height="35.32"/>
    <rect class="cls-8" x="802.05" y="353.15" width="271.83" height="36.86"/>
    <rect class="cls-10" x="797.45" y="509.8" width="281.04" height="36.86" rx="18.43" ry="18.43"/>
    <rect class="cls-6" x="1431.22" y="237.97" width="170.47" height="201.18"/>
    <rect class="cls-6" x="1431.22" y="465.26" width="170.47" height="101.36"/>
    <rect class="cls-6" x="1432.75" y="595.8" width="168.93" height="236.51"/>
    <line class="cls-5" x1="732.45" y1="1179.39" x2="732.45" y2="927.52"/>
    <line class="cls-5" x1="1286.85" y1="1178.62" x2="1286.85" y2="926.75"/>
    <line class="cls-5" x1="1893.48" y1="1178.62" x2="1893.48" y2="926.75"/>
    <line class="cls-5" x1="2410.74" y1="1127.09" x2="2.02" y2="1127.09"/>
    <circle class="cls-2" cx="1459.63" cy="410.74" r="26.11"/>
    <circle class="cls-2" cx="1516.45" cy="410.74" r="26.11"/>
    <circle class="cls-2" cx="1573.27" cy="410.74" r="26.11"/>
    <path class="cls-10" d="M1461.14,406.17c-2.93-2.06-7.87-1.48-9.14,2.2-1.09,3.42.18,7.53,3.14,9.61,6.38,4.95,15.15-.93,15.47-8.33.63-7.72-5.56-13.71-13.11-13.84-12.48-.71-17.08,13.73-12.36,23.49,2.96,6.49,10.73,10.19,17.66,9.19,5.32-.8,9.84-4.44,12.94-8.72,7.56-11.24,3.44-25.83-6.85-33.64,12.86,8.35,15.7,27.81,3.96,38.37-2.74,2.5-6.15,4.41-9.9,4.97-7.38,1.08-15.53-2.88-18.63-9.79-4.87-10.29.15-25.34,13.2-24.52,7.86.19,14.31,6.51,13.58,14.53-.4,7.69-9.56,13.73-16.15,8.53-4.49-2.98-5.36-12.11.98-13.27,1.82-.35,3.74.13,5.26,1.14l-.05.08h0Z"/>
    <path class="cls-10" d="M1517.68,405.77c-2.93-2.06-7.87-1.48-9.14,2.2-1.09,3.42.18,7.53,3.14,9.61,6.38,4.95,15.15-.93,15.47-8.33.63-7.72-5.56-13.71-13.11-13.84-12.48-.71-17.08,13.73-12.36,23.49,2.96,6.49,10.73,10.19,17.66,9.19,5.32-.8,9.84-4.44,12.94-8.72,7.56-11.24,3.44-25.83-6.85-33.64,12.86,8.35,15.7,27.81,3.96,38.37-2.74,2.5-6.15,4.41-9.89,4.97-7.38,1.08-15.53-2.88-18.63-9.79-4.87-10.29.15-25.34,13.2-24.52,7.86.19,14.31,6.51,13.58,14.53-.4,7.69-9.56,13.73-16.15,8.53-4.49-2.98-5.36-12.11.98-13.27,1.82-.35,3.74.13,5.26,1.14l-.05.08h0Z"/>
    <path class="cls-10" d="M1574.5,405.77c-2.93-2.06-7.87-1.48-9.14,2.2-1.09,3.42.18,7.53,3.14,9.61,6.38,4.95,15.15-.93,15.47-8.33.63-7.72-5.56-13.71-13.11-13.84-12.48-.71-17.08,13.73-12.36,23.49,2.96,6.49,10.73,10.19,17.66,9.19,5.32-.8,9.84-4.44,12.94-8.72,7.56-11.24,3.44-25.83-6.85-33.64,12.86,8.35,15.7,27.81,3.96,38.37-2.74,2.5-6.15,4.41-9.89,4.97-7.38,1.08-15.53-2.88-18.63-9.79-4.87-10.29.15-25.34,13.2-24.52,7.86.19,14.31,6.51,13.58,14.53-.39,7.69-9.56,13.73-16.15,8.53-4.49-2.98-5.36-12.11.98-13.27,1.82-.35,3.74.13,5.26,1.14l-.05.08h0Z"/>
    <circle class="cls-2" cx="1487.27" cy="367.74" r="26.11"/>
    <path class="cls-10" d="M1488.5,362.77c-2.93-2.06-7.87-1.48-9.14,2.2-1.09,3.42.18,7.53,3.14,9.61,6.38,4.95,15.15-.93,15.47-8.33.63-7.72-5.56-13.71-13.11-13.84-12.48-.71-17.08,13.73-12.36,23.49,2.96,6.49,10.73,10.19,17.66,9.19,5.32-.8,9.84-4.44,12.94-8.72,7.56-11.24,3.44-25.83-6.85-33.64,12.86,8.35,15.7,27.81,3.96,38.37-2.74,2.5-6.15,4.41-9.89,4.97-7.38,1.08-15.53-2.88-18.63-9.79-4.87-10.29.15-25.34,13.2-24.52,7.86.19,14.31,6.51,13.58,14.53-.4,7.69-9.56,13.73-16.15,8.53-4.49-2.98-5.36-12.11.98-13.27,1.82-.35,3.74.13,5.26,1.14l-.05.08h0Z"/>
    <circle class="cls-2" cx="1547.17" cy="369.27" r="26.11"/>
    <path class="cls-10" d="M1548.39,364.31c-2.93-2.06-7.87-1.48-9.14,2.2-1.09,3.42.18,7.53,3.14,9.61,6.38,4.95,15.15-.93,15.47-8.33.63-7.72-5.56-13.71-13.11-13.84-12.48-.71-17.08,13.73-12.36,23.49,2.96,6.49,10.73,10.19,17.66,9.19,5.32-.8,9.84-4.44,12.94-8.72,7.56-11.24,3.44-25.83-6.85-33.64,12.86,8.35,15.7,27.81,3.96,38.37-2.74,2.5-6.15,4.41-9.9,4.97-7.38,1.08-15.53-2.88-18.63-9.79-4.87-10.29.15-25.34,13.2-24.52,7.86.19,14.31,6.51,13.58,14.53-.4,7.69-9.56,13.73-16.15,8.53-4.49-2.98-5.36-12.11.98-13.27,1.82-.35,3.74.13,5.26,1.14l-.05.08h0Z"/>
    <rect class="cls-14" x="1451.95" y="502.89" width="18.43" height="62.97"/>
    <rect class="cls-12" x="1471.91" y="558.17" width="10.75" height="7.68"/>
    <path class="cls-3" d="M1485.74,558.17c-1.75.66-4.4,1.43-7.68,1.54-4.06.13-7.29-.81-9.21-1.54-2.05-11.77-4.1-23.55-6.14-35.32h29.18c-2.05,11.77-4.1,23.55-6.14,35.32Z"/>
    <rect class="cls-13" x="1693.06" y="174.23" width="463.8" height="18.43"/>
    <rect class="cls-7" x="1435.06" y="533.6" width="21.5" height="32.25"/>
    <rect class="cls-7" x="1442.73" y="524.39" width="6.14" height="9.21"/>
    <rect class="cls-14" x="1451.95" y="489.06" width="18.43" height="13.82"/>
    <rect class="cls-1" x="1487.27" y="538.21" width="41.47" height="27.64" rx="4.1" ry="4.1"/>
    <rect class="cls-15" x="1487.27" y="525.92" width="41.47" height="12.29" rx="3.97" ry="3.97"/>
    <rect class="cls-12" x="1531.33" y="556.64" width="10.75" height="9.54"/>
    <path class="cls-9" d="M1545.16,557.13c-1.75,1.11-4.4,2.38-7.68,2.56-4.06.22-7.29-1.35-9.21-2.56-2.05-19.62-4.1-39.23-6.14-58.85h29.18c-2.05,19.62-4.1,39.23-6.14,58.85Z"/>
    <rect class="cls-11" x="1556.38" y="516.71" width="43" height="49.14" rx="4.38" ry="4.38"/>
    <rect class="cls-11" x="1571.74" y="501.35" width="12.29" height="15.36" rx="1.08" ry="1.08"/>
    <path class="cls-11" d="M1579.42,489.06c.97.95.3,2.7,0,6.14-.23,2.65-.12,4.8,0,6.14h-3.07c-.3-2.54-.19-4.62,0-6.14.21-1.69.49-2.46,0-3.07-.86-1.08-3.04-.37-6.14,0-1.88.22-4.48.36-7.68,0v-1.54c.66.04,1.74.08,3.07,0,3.16-.18,4.83-.86,9.21-1.54,3.66-.57,4.23-.37,4.61,0Z"/>
    <line class="cls-4" x1="562.13" x2="562.13" y2="926.06"/>
    <line class="cls-4" x1="447.74" x2="447.74" y2="926.06"/>
    <line class="cls-5" x1="198.55" y1="1178.39" x2="198.55" y2="926.52"/>
  </g>
</svg>