<?xml version="1.0" encoding="UTF-8"?>
<svg id="Layer_2" data-name="Layer 2" xmlns="http://www.w3.org/2000/svg" viewBox="0 0 166.32 233.58">
  <defs>
    <style>
      .cls-1 {
        fill: #ffb0f0;
      }
    </style>
  </defs>
  <g id="Layer_1-2" data-name="Layer 1">
    <path class="cls-1" d="M165.78,39.05c-4.65,14.12-39.13,14.02-41,14-2.43,21.31-3.38,53.78,8,90,12.59,40.05,33.06,61.75,23,77-9.12,13.83-37.33,13.28-53,10-21.58-4.51-23.86-15.14-41-16-26.74-1.34-43.45,23.41-49,19-6.77-5.38,20.78-39.94,31-84,8.52-36.74,2.77-70.54-5-96-9.78.46-33.55.65-38-10C-4.69,29.96,19.45,1.39,43.78.05c16.54-.91,20.92,11.45,41,11C103.67,10.63,106.95-.47,122.78.05c23.04.76,47.51,25.29,43,39Z"/>
  </g>
</svg>