<?xml version="1.0" encoding="UTF-8"?>
<svg id="Layer_2" data-name="Layer 2" xmlns="http://www.w3.org/2000/svg" viewBox="0 0 97.47 66.36">
  <defs>
    <style>
      .cls-1 {
        fill: #edbbff;
      }

      .cls-2 {
        fill: none;
        stroke: #d57aff;
        stroke-miterlimit: 10;
      }
    </style>
  </defs>
  <g id="Layer_1-2" data-name="Layer 1">
    <g>
      <path class="cls-1" d="M4.36,32c.51-.73-.29-2.09-.71-2.84C1.24,24.84.3,20.65.1,19.21c-.43-3.05.82-5.4,2.84-9.24C4.58,6.88,6.96,2.37,11.47.74c2.97-1.08,5.51-.42,7.82,0C28.94,2.51,31.41-.29,42.02.03c12.62.38,22.13,4.73,24.16,5.68,4.1,1.94,12.94,6.12,19.18,14.92,3.8,5.36,6.39,11.37,6.39,11.37,1.74,4.02,1.63,5.03,3.55,8.53,1.18,2.15,1.98,3.14,2.13,4.97.21,2.51-.96,4.45-2.13,6.39-1.42,2.36-3.88,6.44-7.82,7.11-1.25.21-2.51.05-4.97.71-2.21.59-2.65,1.1-2.84,1.42-.9,1.47.75,3.06,0,4.26-.58.92-2.01.71-5.68.71-5.94,0-5.99.57-7.82,0-2.78-.88-2.14-2.04-5.68-3.55-2.54-1.09-3.14-.61-7.11-2.13-1.74-.67-1.91-.87-3.55-1.42-2.95-.99-3.31-.64-4.97-1.42-2.56-1.2-2.3-2.3-4.26-2.84-2.29-.64-3.15.72-4.97,0-2.13-.84-1.6-2.95-3.55-4.26-2.91-1.96-5.86,1.56-9.95,0-3.13-1.19-2.39-3.63-5.68-4.97-3.71-1.52-5.76,1.12-9.24-.71-1.93-1.02-3.84-3.16-3.55-4.97.23-1.42,1.73-2.07,1.42-2.84-.32-.81-2-.23-3.55-1.42-1.03-.79-1.81-2.19-1.42-2.84.59-.98,3.5.37,4.26-.71Z"/>
      <path class="cls-2" d="M4.36,32c1.45.2,3.21.71,4.26,2.13,1.26,1.71.33,3.14,1.42,4.26,1.83,1.87,5.44-1.11,8.53.71,2.3,1.35,1.26,3.56,3.55,4.97,2.89,1.78,5.65-1.06,9.24.71,2.06,1.02,1.4,2.07,3.55,3.55,3.95,2.72,7.08-.22,12.08,2.13,3.3,1.55,2.42,3.06,5.68,4.26,3.58,1.32,5.15-.31,9.24,1.42,1.51.64,3.04,1.29,4.26,2.84,1.14,1.44,1.13,2.54,2.13,2.84,1.4.43,2.19-1.5,4.26-1.42,1.4.05,1.67.95,3.55,1.42,1.43.35,2.7.19,3.55,0"/>
    </g>
  </g>
</svg>