<?xml version="1.0" encoding="UTF-8"?>
<svg id="Layer_2" data-name="Layer 2" xmlns="http://www.w3.org/2000/svg" viewBox="0 0 332.5 705.5">
  <defs>
    <style>
      .cls-1 {
        fill: #fff;
      }

      .cls-2 {
        fill: none;
        stroke: #ccc;
        stroke-miterlimit: 10;
      }

      .cls-3 {
        fill: gray;
      }
    </style>
  </defs>
  <g id="Layer_1-2" data-name="Layer 1">
    <g>
      <rect class="cls-3" width="332.5" height="705.5"/>
      <rect class="cls-1" x="46.5" width="286" height="655.43"/>
      <path class="cls-3" d="M42.09,45c4.55-.54,23.05-2.24,40.3,9,12.25,7.98,17.6,18.4,19.61,23-1.95,1.42-5.05,3.22-8.71,3-7.96-.47-11-10.01-18.52-16-5.41-4.31-15.08-8.33-33.77-6,.36-4.33.73-8.67,1.09-13Z"/>
      <path class="cls-3" d="M135,72c5.47,12.01-29.01,45.92-42,40-8-3.64-11.35-23.99-1-37,12.86-16.18,39.19-11.35,43-3Z"/>
      <path class="cls-2" d="M107,126c3.33,8,6.67,16,10,24"/>
      <path class="cls-2" d="M135.77,132.02c2.94,6.66,5.88,13.32,8.82,19.98"/>
      <path class="cls-2" d="M150.77,107.02c2.53,6.33,5.06,12.65,7.59,18.98"/>
      <path class="cls-2" d="M97.5,112.5c.26-3.55,1.46-13.29,9-22,10.96-12.66,26.52-12.99,29-13"/>
      <path class="cls-2" d="M171.77,120.02c3.33,8,6.67,16,10,24"/>
    </g>
  </g>
</svg>