<?xml version="1.0" encoding="UTF-8"?>
<svg id="Layer_2" data-name="Layer 2" xmlns="http://www.w3.org/2000/svg" viewBox="0 0 202.81 245.59">
  <defs>
    <style>
      .cls-1 {
        fill: #fff;
      }

      .cls-2 {
        fill: #999;
      }

      .cls-3 {
        fill: #ccc;
      }

      .cls-4 {
        fill: #e6e6e6;
      }
    </style>
  </defs>
  <g id="Layer_1-2" data-name="Layer 1">
    <g>
      <rect class="cls-1" x="148.75" y="0" width="54.06" height="176" rx="14" ry="14" transform="translate(351.56 176) rotate(-180)"/>
      <path class="cls-1" d="M75.13,244.74c42.56.28,85.12.57,127.68.85v-93.75s-179.45,0-179.45,0c17.25,30.97,34.51,61.93,51.76,92.9Z"/>
      <path class="cls-3" d="M80.6,235.34c37.24.23,74.47.46,111.71.69v-76.45s-157,0-157,0c15.1,25.25,30.19,50.5,45.29,75.75Z"/>
      <path class="cls-2" d="M13.24,157.92c-4.43,11.98,32.81,47.98,74.77,47.74,41.49-.24,78.06-35.86,73.62-47.74-2.01-5.38-11.76-4.04-72.47-4.03-63.79.01-73.89-1.47-75.92,4.03Z"/>
      <path class="cls-1" d="M.36,151.26c-4.43,11.98,32.81,47.98,74.77,47.74,41.49-.24,78.06-35.86,73.62-47.74-2.01-5.38-11.76-4.04-72.47-4.03-63.79.01-73.89-1.47-75.92,4.03Z"/>
      <rect class="cls-4" x="156.41" y="10.59" width="46.25" height="150.57" rx="14" ry="14" transform="translate(359.07 171.75) rotate(-180)"/>
      <rect class="cls-2" x="150.31" y="146.59" width="51" height="15"/>
    </g>
  </g>
</svg>