<?xml version="1.0" encoding="UTF-8"?>
<svg id="Layer_2" data-name="Layer 2" xmlns="http://www.w3.org/2000/svg" viewBox="0 0 121.72 94.9">
  <defs>
    <style>
      .cls-1 {
        fill: #e9e7e9;
      }

      .cls-2 {
        fill: #fff;
      }
    </style>
  </defs>
  <g id="Layer_1-2" data-name="Layer 1">
    <g>
      <path class="cls-1" d="M.76,38c15.43-2.32,34.75-6.65,56-15C74.93,15.86,89.95,7.58,101.76,0c3.69.86,8.84,2.69,13,7,10.95,11.33,6.27,30.64,4,40-2.65,10.94-8.37,34.57-28,44-20.97,10.08-42.36-3.46-78-26-3.25-2.06-8.34-5.58-11-12C-.68,47.11.02,41.38.76,38Z"/>
      <path class="cls-2" d="M12.76,65c14.5-5.92,30.61-4.12,42,5,10.61,8.49,13.3,20.26,14,24,2.99.72,8.5,1.6,15,0,10.36-2.54,16.21-9.64,18-12-1.48-1.5-10.11-10.52-9-23,1.17-13.07,12.54-24.57,28-27,.51-1.84,2.64-10.25-2-19C113.41,2.91,103.31.36,101.76,0c-5.18,7.27-18.08,23.29-41,33-27.23,11.54-51.61,6.97-60,5-.52,1.99-1.84,8.1,1,15,3.15,7.65,9.29,11.11,11,12Z"/>
    </g>
  </g>
</svg>