<?xml version="1.0" encoding="UTF-8"?>
<svg id="Layer_2" data-name="Layer 2" xmlns="http://www.w3.org/2000/svg" viewBox="0 0 530.63 95.54">
  <defs>
    <style>
      .cls-1 {
        fill: none;
        stroke: #3a6300;
      }

      .cls-1, .cls-2 {
        stroke-miterlimit: 10;
      }

      .cls-2 {
        fill: #7a9d73;
        stroke: #365800;
      }
    </style>
  </defs>
  <g id="Layer_1-2" data-name="Layer 1">
    <g>
      <path class="cls-2" d="M74.25,94.85c7.11.96,13.79-1.77,17-7,2.17-3.52,2.15-7.19,2-9,.4-.18,8.02-3.75,9-12,.79-6.67-3.37-11.32-4-12,.48-.32,7.07-4.84,7-13-.07-7.24-5.33-11.48-6-12,.42-.57,3.51-4.98,2-10-1.49-4.96-6.87-8.47-13-8-.39-5.31-4.07-9.75-9-11-5.53-1.4-11.53,1.51-14,7-2.24-4.03-6.57-6.39-11-6-5.89.51-8.78,5.59-9,6-.27-.17-6.34-3.96-12-1-4.48,2.34-5.61,7.29-6,9-.68,2.98-.33,5.52,0,7-1.16.18-6.61,1.15-10,6-3.41,4.88-3.36,11.72.17,17.27-4.66-3.06-10.49-1.1-12.17,2.73-1.41,3.21.08,7.76,4,10-.52.13-5.93,1.59-8,7-.22.58-2.06,5.64,1,10,2.52,3.6,7.34,5.23,12,4-1.68,3.7-1.32,7.93,1,11,2.48,3.29,6.19,3.89,7,4,17.33,0,34.67,0,52,0Z"/>
      <path class="cls-1" d="M64.53,69.74c-1.1-2.74-.11-5.73,2-7,2.56-1.54,6.53-.39,8,3,.86-2.3,2.85-3.89,5-4,2.89-.15,5.78,2.42,6,6"/>
      <path class="cls-2" d="M96.89,94.85c-.26-.04-5.97-.93-8-6-1.3-3.25-.3-6.21,0-7-4.08,1.79-8.82,1-12-2-2.96-2.78-4.11-7.03-3-11-.46-.66-3.51-5.21-2-11,1.32-5.04,5.17-7.5,6-8-.18-.58-2.02-6.74,2-12,3.29-4.29,8.13-4.91,9-5-2.76-4.39-2.35-10.09,1-14,3.43-4,9.18-5.24,14-3,.7-.93,5.9-7.59,15-8,7.71-.34,12.9,4.03,14,5,.92-.68,5.67-4.06,12-3,4.16.7,6.89,2.96,8,4,5.02.44,8.83,4.44,9,9,.14,3.78-2.25,7.41-6,9,.31.42,4.5,6.22,2,13-2.08,5.64-7.2,7.7-8,8,.39.31,6.9,5.55,6,14-.84,7.88-7.38,11.66-8,12,.13.82.9,6.28-3,11-3.81,4.61-9.14,4.96-10,5h-38Z"/>
      <path class="cls-2" d="M161.89,94.85c1.63-6.7.45-9.6-1-11-2.35-2.27-5.64-.82-9-3-3.4-2.21-4.56-6.52-5-10-1.13-.75-3.62-2.62-5-6-2.4-5.87.58-11.27,1-12-.44-.63-3.52-5.16-2-11,1.55-5.93,6.59-8.38,7.27-8.69-3.32-3.23-4.59-7.99-3.27-12.31,1.8-5.91,7.49-7.84,8-8,.17-.6,1.52-5.15,6-7,3.99-1.64,8.82-.47,12,3,.71-.33,6.19-2.83,12,0,5.01,2.44,6.69,7.1,7,8,.65-.04,4.89-.23,8,3,2.71,2.82,3.49,7.12,2,11,.37-.04,3.9-.4,6,2,2.16,2.47,1.99,6.89-1,10,.62.22,5.26,1.98,7,7,2.03,5.85-1.76,10.7-2,11,.23.49,1.89,4.22,0,8-1.61,3.23-5.16,5.21-9,5-.27,1.79-.97,4.31-3,6-3.56,2.96-7.98.64-11,3-1.7,1.33-3.23,4.35-2,12h-23Z"/>
      <path class="cls-2" d="M222.89,94.85c-7.11.96-13.79-1.77-17-7-2.17-3.52-2.15-7.19-2-9-.4-.18-8.02-3.75-9-12-.79-6.67,3.37-11.32,4-12-.48-.32-7.07-4.84-7-13,.07-7.24,5.33-11.48,6-12-.42-.57-3.51-4.98-2-10,1.49-4.96,6.87-8.47,13-8,.39-5.31,4.07-9.75,9-11,5.53-1.4,11.53,1.51,14,7,2.24-4.03,6.57-6.39,11-6,5.89.51,8.78,5.59,9,6,.27-.17,6.34-3.96,12-1,4.48,2.34,5.61,7.29,6,9,.68,2.98.33,5.52,0,7,1.16.18,6.61,1.15,10,6,3.41,4.88,3.36,11.72-.17,17.27,4.66-3.06,10.49-1.1,12.17,2.73,1.41,3.21-.08,7.76-4,10,.52.13,5.93,1.59,8,7,.22.58,2.06,5.64-1,10-2.52,3.6-7.34,5.23-12,4,1.68,3.7,1.32,7.93-1,11-2.48,3.29-6.19,3.89-7,4h-52Z"/>
      <path class="cls-2" d="M25.7,94.85c.98-4.01.27-5.75-.6-6.59-1.4-1.36-3.38-.49-5.39-1.8-2.03-1.32-2.73-3.9-2.99-5.99-.68-.45-2.17-1.57-2.99-3.59-1.44-3.51.35-6.75.6-7.19-.27-.38-2.11-3.09-1.2-6.59.93-3.55,3.95-5.02,4.35-5.2-1.99-1.93-2.75-4.78-1.96-7.37,1.08-3.54,4.48-4.69,4.79-4.79.1-.36.91-3.09,3.59-4.19,2.39-.98,5.28-.28,7.19,1.8.42-.2,3.71-1.69,7.19,0,3,1.46,4.01,4.25,4.19,4.79.39-.02,2.93-.14,4.79,1.8,1.62,1.69,2.09,4.26,1.2,6.59.22-.03,2.33-.24,3.59,1.2,1.29,1.48,1.19,4.13-.6,5.99.37.13,3.15,1.18,4.19,4.19,1.21,3.5-1.05,6.41-1.2,6.59.14.3,1.13,2.52,0,4.79-.97,1.93-3.09,3.12-5.39,2.99-.16,1.07-.58,2.58-1.8,3.59-2.13,1.77-4.78.39-6.59,1.8-1.02.8-1.94,2.61-1.2,7.19h-13.77Z"/>
      <path class="cls-1" d="M234.67,34.3c-.82-2.47.53-5.18,3-6,2.47-.82,5.18.53,6,3,.41-3.08,3.14-5.25,6-5,2.53.22,4.67,2.3,5,5,1.35-2.15,3.74-3.34,6-3,2.96.45,5.32,3.47,5,7"/>
      <path class="cls-2" d="M349.95,94.85c-.26-.04-5.97-.93-8-6-1.3-3.25-.3-6.21,0-7-4.08,1.79-8.82,1-12-2-2.96-2.78-4.11-7.03-3-11-.46-.66-3.51-5.21-2-11,1.32-5.04,5.17-7.5,6-8-.18-.58-2.02-6.74,2-12,3.29-4.29,8.13-4.91,9-5-2.76-4.39-2.35-10.09,1-14,3.43-4,9.18-5.24,14-3,.7-.93,5.9-7.59,15-8,7.71-.34,12.9,4.03,14,5,.92-.68,5.67-4.06,12-3,4.16.7,6.89,2.96,8,4,5.02.44,8.83,4.44,9,9,.14,3.78-2.25,7.41-6,9,.31.42,4.5,6.22,2,13-2.08,5.64-7.2,7.7-8,8,.39.31,6.9,5.55,6,14-.84,7.88-7.38,11.66-8,12,.13.82.9,6.28-3,11-3.81,4.61-9.14,4.96-10,5h-38Z"/>
      <path class="cls-1" d="M337.83,52.74c-1.1-2.74-.11-5.73,2-7,2.56-1.54,6.53-.39,8,3,.86-2.3,2.85-3.89,5-4,2.89-.15,5.78,2.42,6,6"/>
      <path class="cls-2" d="M313.74,94.85c6.78.96,13.15-1.77,16.22-7,2.07-3.52,2.05-7.19,1.91-9,.38-.18,7.65-3.75,8.59-12,.75-6.67-3.21-11.32-3.82-12,.46-.32,6.75-4.84,6.68-13-.06-7.24-5.08-11.48-5.72-12,.4-.57,3.35-4.98,1.91-10-1.43-4.96-6.55-8.47-12.4-8-.37-5.31-3.88-9.75-8.59-11-5.28-1.4-10.99,1.51-13.36,7-2.14-4.03-6.27-6.39-10.49-6-5.62.51-8.37,5.59-8.59,6-.26-.17-6.05-3.96-11.45-1-4.27,2.34-5.35,7.29-5.72,9-.65,2.98-.31,5.52,0,7-1.11.18-6.31,1.15-9.54,6-3.25,4.88-3.21,11.72.16,17.27-4.44-3.06-10-1.1-11.61,2.73-1.34,3.21.07,7.76,3.82,10-.49.13-5.66,1.59-7.63,7-.21.58-1.96,5.64.95,10,2.41,3.6,7,5.23,11.45,4-1.6,3.7-1.26,7.93.95,11,2.37,3.29,5.9,3.89,6.68,4h49.61Z"/>
      <path class="cls-2" d="M504.71,94.85c.26-.04,5.97-.93,8-6,1.3-3.25.3-6.21,0-7,4.08,1.79,8.82,1,12-2,2.96-2.78,4.11-7.03,3-11,.46-.66,3.51-5.21,2-11-1.32-5.04-5.17-7.5-6-8,.18-.58,2.02-6.74-2-12-3.29-4.29-8.13-4.91-9-5,2.76-4.39,2.35-10.09-1-14-3.43-4-9.18-5.24-14-3-.7-.93-5.9-7.59-15-8-7.71-.34-12.9,4.03-14,5-.92-.68-5.67-4.06-12-3-4.16.7-6.89,2.96-8,4-5.02.44-8.83,4.44-9,9-.14,3.78,2.25,7.41,6,9-.31.42-4.5,6.22-2,13,2.08,5.64,7.2,7.7,8,8-.39.31-6.9,5.55-6,14,.84,7.88,7.38,11.66,8,12-.13.82-.9,6.28,3,11,3.81,4.61,9.14,4.96,10,5,12.67,0,25.33,0,38,0Z"/>
      <path class="cls-1" d="M449.76,37.3c-.82-2.47.53-5.18,3-6,2.47-.82,5.18.53,6,3,.41-3.08,3.14-5.25,6-5,2.53.22,4.67,2.3,5,5,1.35-2.15,3.74-3.34,6-3,2.96.45,5.32,3.47,5,7"/>
      <path class="cls-2" d="M414.95,94.85c1.63-6.7.45-9.6-1-11-2.35-2.27-5.64-.82-9-3-3.4-2.21-4.56-6.52-5-10-1.13-.75-3.62-2.62-5-6-2.4-5.87.58-11.27,1-12-.44-.63-3.52-5.16-2-11,1.55-5.93,6.59-8.38,7.27-8.69-3.32-3.23-4.59-7.99-3.27-12.31,1.8-5.91,7.49-7.84,8-8,.17-.6,1.52-5.15,6-7,3.99-1.64,8.82-.47,12,3,.71-.33,6.19-2.83,12,0,5.01,2.44,6.69,7.1,7,8,.65-.04,4.89-.23,8,3,2.71,2.82,3.49,7.12,2,11,.37-.04,3.9-.4,6,2,2.16,2.47,1.99,6.89-1,10,.62.22,5.26,1.98,7,7,2.03,5.85-1.76,10.7-2,11,.23.49,1.89,4.22,0,8-1.61,3.23-5.16,5.21-9,5-.27,1.79-.97,4.31-3,6-3.56,2.96-7.98.64-11,3-1.7,1.33-3.23,4.35-2,12h-23Z"/>
      <path class="cls-1" d="M276.89,33.85c-.82-2.47.53-5.18,3-6s5.18.53,6,3c.41-3.08,3.14-5.25,6-5,2.53.22,4.67,2.3,5,5,1.35-2.15,3.74-3.34,6-3,2.96.45,5.32,3.47,5,7"/>
      <path class="cls-1" d="M299.89,70.85c-1.1-2.74-.11-5.73,2-7,2.56-1.54,6.53-.39,8,3,.86-2.3,2.85-3.89,5-4,2.89-.15,5.78,2.42,6,6"/>
      <path class="cls-1" d="M156.89,61.35c-.42-2.43,2.13-4.5,5-4.5s5.42,2.07,5,4.5"/>
      <path class="cls-1" d="M168.83,38.74c-1.1-2.74-.11-5.73,2-7,2.56-1.54,6.53-.39,8,3,.86-2.3,2.85-3.89,5-4,2.89-.15,5.78,2.42,6,6"/>
      <path class="cls-1" d="M207.83,47.35c-1.1-1.92-.11-4.02,2-4.91,2.56-1.08,6.53-.27,8,2.1.86-1.61,2.85-2.73,5-2.81,2.89-.1,5.78,1.69,6,4.21"/>
      <path class="cls-1" d="M362.67,74.3c-.82-2.47.53-5.18,3-6,2.47-.82,5.18.53,6,3,.41-3.08,3.14-5.25,6-5,2.53.22,4.67,2.3,5,5,1.35-2.15,3.74-3.34,6-3,2.96.45,5.32,3.47,5,7"/>
      <path class="cls-1" d="M419.67,63.3c-.82-2.47.53-5.18,3-6,2.47-.82,5.18.53,6,3,.41-3.08,3.14-5.25,6-5,2.53.22,4.67,2.3,5,5,1.35-2.15,3.74-3.34,6-3,2.96.45,5.32,3.47,5,7"/>
      <path class="cls-1" d="M410.02,38.02c-.42-2.43,2.13-4.5,5-4.5s5.42,2.07,5,4.5"/>
      <path class="cls-1" d="M475.91,46.74c-1.1-2.74-.11-5.73,2-7,2.56-1.54,6.53-.39,8,3,.86-2.3,2.85-3.89,5-4,2.89-.15,5.78,2.42,6,6"/>
      <path class="cls-1" d="M461.91,76.74c-1.1-2.74-.11-5.73,2-7,2.56-1.54,6.53-.39,8,3,.86-2.3,2.85-3.89,5-4,2.89-.15,5.78,2.42,6,6"/>
      <path class="cls-1" d="M496.91,63.74c-1.1-2.74-.11-5.73,2-7,2.56-1.54,6.53-.39,8,3,.86-2.3,2.85-3.89,5-4,2.89-.15,5.78,2.42,6,6"/>
      <path class="cls-1" d="M433.91,54.74c-1.1-2.74-.11-5.73,2-7,2.56-1.54,6.53-.39,8,3,.86-2.3,2.85-3.89,5-4,2.89-.15,5.78,2.42,6,6"/>
      <path class="cls-1" d="M378.11,66.02c-.42-2.43,2.13-4.5,5-4.5s5.42,2.07,5,4.5"/>
      <path class="cls-1" d="M162.25,56.74c-1.1-2.74-.11-5.73,2-7,2.56-1.54,6.53-.39,8,3,.86-2.3,2.85-3.89,5-4,2.89-.15,5.78,2.42,6,6"/>
      <path class="cls-1" d="M37.89,37.74c-1.1-2.74-.11-5.73,2-7,2.56-1.54,6.53-.39,8,3,.86-2.3,2.85-3.89,5-4,2.89-.15,5.78,2.42,6,6"/>
      <path class="cls-1" d="M94.89,76.74c-1.1-2.74-.11-5.73,2-7,2.56-1.54,6.53-.39,8,3,.86-2.3,2.85-3.89,5-4,2.89-.15,5.78,2.42,6,6"/>
      <path class="cls-1" d="M107.37,55.3c-.82-2.47.53-5.18,3-6,2.47-.82,5.18.53,6,3,.41-3.08,3.14-5.25,6-5,2.53.22,4.67,2.3,5,5,1.35-2.15,3.74-3.34,6-3,2.96.45,5.32,3.47,5,7"/>
      <path class="cls-1" d="M88.73,68.35c-.42-3.14,2.13-5.83,5-5.83s5.42,2.69,5,5.83"/>
      <path class="cls-1" d="M55.73,30.02c-.42-2.43,2.13-4.5,5-4.5s5.42,2.07,5,4.5"/>
    </g>
  </g>
</svg>