<?xml version="1.0" encoding="UTF-8"?>
<svg id="Layer_2" data-name="Layer 2" xmlns="http://www.w3.org/2000/svg" viewBox="0 0 851 196">
  <defs>
    <style>
      .cls-1 {
        fill: #966e3e;
      }

      .cls-2 {
        fill: #d39a55;
        stroke: #ad7200;
        stroke-miterlimit: 10;
      }
    </style>
  </defs>
  <g id="Layer_1-2" data-name="Layer 1">
    <g>
      <path class="cls-2" d="M700.5,195.5h-50V21.5c2.12-12.09,12.72-21,25-21s22.88,8.91,25,21v174Z"/>
      <path class="cls-2" d="M200.5,195.5h-50V21.5c2.12-12.09,12.72-21,25-21s22.88,8.91,25,21v174Z"/>
      <path class="cls-2" d="M250.5,195.5h-50V21.5c2.12-12.09,12.72-21,25-21s22.88,8.91,25,21v174Z"/>
      <path class="cls-2" d="M300.5,195.5h-50V21.5c2.12-12.09,12.72-21,25-21s22.88,8.91,25,21v174Z"/>
      <path class="cls-2" d="M850.5,195.5h-50V21.5c2.12-12.09,12.72-21,25-21s22.88,8.91,25,21v174Z"/>
      <path class="cls-2" d="M50.5,195.5H.5V21.5C2.62,9.41,13.22.5,25.5.5s22.88,8.91,25,21v174Z"/>
      <path class="cls-2" d="M100.5,195.5h-50V21.5C52.62,9.41,63.22.5,75.5.5s22.88,8.91,25,21v174Z"/>
      <path class="cls-2" d="M150.5,195.5h-50V21.5c2.12-12.09,12.72-21,25-21s22.88,8.91,25,21v174Z"/>
      <path class="cls-2" d="M350.5,195.5h-50V21.5c2.12-12.09,12.72-21,25-21s22.88,8.91,25,21v174Z"/>
      <path class="cls-2" d="M400.5,195.5h-50V21.5c2.12-12.09,12.72-21,25-21s22.88,8.91,25,21v174Z"/>
      <path class="cls-2" d="M450.5,195.5h-50V21.5c2.12-12.09,12.72-21,25-21s22.88,8.91,25,21v174Z"/>
      <path class="cls-2" d="M500.5,195.5h-50V21.5c2.12-12.09,12.72-21,25-21s22.88,8.91,25,21v174Z"/>
      <path class="cls-2" d="M550.5,195.5h-50V21.5c2.12-12.09,12.72-21,25-21s22.88,8.91,25,21v174Z"/>
      <path class="cls-2" d="M600.5,195.5h-50V21.5c2.12-12.09,12.72-21,25-21s22.88,8.91,25,21v174Z"/>
      <path class="cls-2" d="M650.5,195.5h-50V21.5c2.12-12.09,12.72-21,25-21s22.88,8.91,25,21v174Z"/>
      <path class="cls-2" d="M750.5,195.5h-50V21.5c2.12-12.09,12.72-21,25-21s22.88,8.91,25,21v174Z"/>
      <path class="cls-2" d="M800.5,195.5h-50V21.5c2.12-12.09,12.72-21,25-21s22.88,8.91,25,21v174Z"/>
      <rect class="cls-1" x=".5" y="51.5" width="841" height="26"/>
      <rect class="cls-1" x=".5" y="123.5" width="841" height="26"/>
    </g>
  </g>
</svg>