<?xml version="1.0" encoding="UTF-8"?>
<svg id="Layer_2" data-name="Layer 2" xmlns="http://www.w3.org/2000/svg" viewBox="0 0 266 277.03">
  <defs>
    <style>
      .cls-1, .cls-2 {
        stroke: #000;
      }

      .cls-1, .cls-2, .cls-3 {
        stroke-miterlimit: 10;
      }

      .cls-1, .cls-3 {
        fill: none;
      }

      .cls-4 {
        fill: #4b3d2d;
      }

      .cls-5 {
        fill: #534741;
      }

      .cls-6, .cls-2 {
        fill: #fff;
      }

      .cls-7 {
        fill: #7a885f;
      }

      .cls-8 {
        fill: #b65339;
      }

      .cls-9 {
        fill: #55717d;
      }

      .cls-10 {
        fill: #442a20;
      }

      .cls-11 {
        fill: #666;
      }

      .cls-12 {
        fill: #eef9fe;
      }

      .cls-13 {
        fill: #84d4ee;
      }

      .cls-3 {
        stroke: #493937;
      }

      .cls-14 {
        fill: #fddec9;
      }

      .cls-15 {
        opacity: .62;
      }

      .cls-16 {
        opacity: .82;
      }
    </style>
  </defs>
  <g id="Layer_1-2" data-name="Layer 1">
    <g>
      <g>
        <g class="cls-16">
          <path class="cls-7" d="M142.4,211.05c-.25-.02-5.71-.62-5.4-2.9.2-1.46,2.65-2.71,3.34-3.05-5.06.64-9.58.12-11.43-1.3-1.72-1.32-.89-3.21,2.15-4.9-.16-.3-1.14-2.39,3.18-4.86,3.76-2.15,8.92-3.08,10.01-3.27.09-.26,1.13-3.01,7.79-5.15,5.44-1.75,10.73-1.85,11.67-1.86-.75-2.01,2.39-4.48,7.71-6.06,5.45-1.62,11.97-1.96,15.88-.81,1.17-.38,9.71-3.1,19.3-2.95,8.12.12,11.4,2.21,12.07,2.67,1.27-.26,7.79-1.57,13.82-.88,3.96.45,5.7,1.53,6.35,2.02,4.97.37,6.99,2.25,5,4.24-1.66,1.65-5.86,3.15-10.48,3.71.12.19,1.68,2.87-4.13,5.73-4.83,2.38-11.1,3.1-12.07,3.2.26.15,4.47,2.66-.48,6.31-4.62,3.4-13.18,4.81-13.98,4.94-.26.36-2.07,2.77-8.34,4.68-6.13,1.87-11.8,1.84-12.71,1.82-13.07-.45-26.15-.9-39.22-1.34Z"/>
          <path class="cls-7" d="M167.82,199.67c.17-1.23,2.62-2.5,5.4-2.98,3.38-.58,6.92.06,6.83,1.59,1.98-.97,4.8-1.59,7.07-1.56,3.06.04,4.82,1.26,3.33,2.82l-22.63.13Z"/>
          <path class="cls-7" d="M147.49,202.59c.17-1.23,2.62-2.5,5.4-2.98,3.38-.58,6.92.06,6.83,1.59,1.98-.97,4.8-1.59,7.07-1.56,3.06.04,4.82,1.26,3.33,2.82l-22.63.13Z"/>
          <path class="cls-7" d="M150.04,190.09c-2.74,2.5-9.75,4.36-15.67,4.15-5.92-.2-8.5-2.39-5.77-4.89s9.75-4.36,15.67-4.15,8.5,2.39,5.77,4.89Z"/>
          <path class="cls-7" d="M149.31,190.76c-2.13,1.94-7.58,3.39-12.19,3.23s-6.61-1.86-4.49-3.8,7.58-3.39,12.19-3.23c4.6.16,6.61,1.86,4.49,3.8Z"/>
          <path class="cls-7" d="M181.44,191.51c-2.74,2.5-.15,4.69,5.77,4.89,5.92.2,12.94-1.66,15.67-4.15,2.74-2.5.15-4.69-5.77-4.89-5.92-.2-12.94,1.66-15.67,4.15Z"/>
          <path class="cls-7" d="M180.71,192.18c-2.13,1.94-.12,3.64,4.49,3.8,4.6.16,10.06-1.29,12.19-3.23s.12-3.64-4.49-3.8c-4.6-.16-10.06,1.29-12.19,3.23Z"/>
          <path class="cls-7" d="M219.52,192.47c.8-.22,6.71-1.78,12.16-1.32,6.73.57,6.35,3.7,6.29,4.04-.56,3.32-9.08,6.12-10.51,6.59-2.23.73-7.74,2.35-14.42,2.63-4.72.2-7.79-.35-9.16-.66,2.93-1.77,5.99-3.76,8.99-5.95,2.61-1.9,4.81-3.69,6.66-5.33Z"/>
          <path class="cls-7" d="M197.78,261.31c-1.34.53-5.07,2.09-6.83,4.28-1.99,2.47-.18,4.08.39,4.53-1.16.41-2.33.82-3.49,1.24-.58-.47-3.33-2.88.48-6.31,2.34-2.1,6.05-3.59,7.86-4.25.53.17,1.06.34,1.59.51Z"/>
          <path class="cls-7" d="M202.01,261.71c-1.16.46-4.39,1.82-5.92,3.71-1.73,2.14-.15,3.54.34,3.93-1.01.36-2.02.71-3.03,1.07-.5-.41-2.89-2.5.42-5.47,2.03-1.82,5.25-3.11,6.82-3.68.46.15.92.29,1.38.44Z"/>
          <path class="cls-7" d="M206.64,262.1c-1.09.43-4.1,1.7-5.53,3.47-1.61,2-.14,3.31.32,3.67-.94.33-1.89.67-2.83,1-.47-.38-2.7-2.33.39-5.11,1.9-1.7,4.9-2.9,6.37-3.44.43.14.86.27,1.29.41Z"/>
          <path class="cls-7" d="M189.77,174.76c.05,1.08.38,2.34,1.35,3.66,1.92,2.62,5.49,4.28,8.17,5.25l-9.52-8.91Z"/>
          <path class="cls-7" d="M142.98,198.91c9.98.34,19.95.68,29.93,1.03-3.35,3.98-14.2,7.07-22.56,6.91-8.69-.18-12.87-3.85-7.38-7.93Z"/>
          <path class="cls-7" d="M190.21,188.5c.33-1.1,3.02-2.24,5.96-2.51s5.09.41,4.76,1.52c1.89-1.33,5.75-2.18,8.58-1.96,2.5.19,3.72,1.17,2.78,2.35,2.42-.89,5.45-1.32,7.62-1.09,2.84.3,3.84,1.7,1.82,3.22l-31.52-1.53Z"/>
          <path class="cls-7" d="M222.93,203.95c.72-1.07,4.34-1.88,7.31-1.78,2.97.1,4.6,1.1,3.01,2.14l-10.32-.35Z"/>
          <path class="cls-7" d="M219.12,201.56c.72-1.07,4.34-1.88,7.31-1.78s4.6,1.1,3.01,2.14l-10.32-.35Z"/>
          <path class="cls-7" d="M187.86,185.13c.72-1.07,4.34-1.88,7.31-1.78s4.6,1.1,3.01,2.14l-10.32-.35Z"/>
          <path class="cls-7" d="M213.99,258.22c-2.13,1.39-5.07,3.48-7.71,6.06-2.6,2.54-3.88,3.83-3.18,4.86,1.31,1.94,8.66,1.98,18.18,1.98,37.8-.01,42.45-.11,44.15-1.2,1.99-1.28-1.55-2.99-6.11-5.18-3.76-1.81-6.3-2.2-10.64-3.98-3.99-1.64-6.55-3.24-8.09-4.34-2.75.52-6.21,1.07-10.16,1.46-7.35.73-13,.57-16.44.34Z"/>
          <path class="cls-7" d="M203.66,269.61c-.58,1.18-1.17,2.37-1.75,3.55,7.24,1.07,18.3,2.2,33.11,2.04,9.49-.1,18.11-.71,25.09-1.4,1.62-1.15,3.23-2.3,4.85-3.45-1.37.07-3.32.16-5.64.26-10.83.44-19.72.5-26.2.46-8.5-.06-14.78-.11-22.71-.78-2.86-.24-5.16-.49-6.75-.68Z"/>
          <path class="cls-7" d="M233.27,195.16c-6.17,4.99-12.85,10.46-27.26,14.36-17.79,4.81-34.35,4.12-46,3.64-11.36-.47-28.25-1.15-34.26-7.08-5.01-4.95.63-10.72,4.29-14.45,2.73-2.78,14.6-14.86,39.85-19.83,12.18-2.4,21.93-2.05,37.87-1.48,17.3.62,28.72,1.02,34.45,4.66,8.98,5.69-2.65,15.1-8.94,20.2Z"/>
          <path class="cls-7" d="M166.57,190.62c-2.74,2.5-9.75,4.36-15.67,4.15-5.92-.2-8.5-2.39-5.77-4.89s9.75-4.36,15.67-4.15,8.5,2.39,5.77,4.89Z"/>
          <path class="cls-7" d="M164.26,190.82c-2,1.83-7.14,3.19-11.47,3.04s-6.22-1.75-4.22-3.58c2-1.83,7.14-3.19,11.47-3.04s6.22,1.75,4.22,3.58Z"/>
          <path class="cls-7" d="M197.97,192.04c-2.74,2.5-.15,4.69,5.77,4.89,5.92.2,12.94-1.66,15.67-4.15,2.74-2.5.15-4.69-5.77-4.89s-12.94,1.66-15.67,4.15Z"/>
          <path class="cls-7" d="M200.72,192.31c-1.92,1.75-.11,3.29,4.04,3.43s9.07-1.16,10.99-2.91c1.92-1.75.11-3.29-4.04-3.43s-9.07,1.16-10.99,2.91Z"/>
          <path class="cls-7" d="M132.98,188.95c-.31-.51-1.16-1.47-3.72-1.87-4.93-.75-13.11,1.08-17.53,3.22-3.4,1.65-4.07,3.23-4.4,4.02-1.57,3.7,4.47,5.52,5.25,5.74,3.99,1.15,8.86,1.14,11.18,1.08.38-1.92,1.42-4.48,4.1-7.5,1.56-1.76,3.37-3.34,5.14-4.69Z"/>
          <path class="cls-7" d="M236.05,193c.8-.22,6.71-1.78,12.16-1.32,6.73.57,6.35,3.7,6.29,4.04-.56,3.32-9.08,6.12-10.51,6.59-2.23.73-7.74,2.35-14.42,2.63-4.72.2-7.79-.35-9.16-.66,2.93-1.77,5.99-3.76,8.99-5.95,2.61-1.9,4.81-3.69,6.66-5.33Z"/>
          <path class="cls-7" d="M184.49,230.41c-.93-.13-1.86-.27-2.79-.4-.28.48-.58,1.05-.9,1.7-.61,1.25-1.23,2.8-1.64,4.53-1.06,4.53.37,5.93-.99,7.67-.2.27-.48.55-.84.85-4.43,3.65-16.13,5.9-25.57,7.71-3.5.67-8.15,1.56-13.12,2.31-.32.04-.64.09-.96.14-8.36,1.2-17.44,1.9-23.25.34-.05-.01-.09-.03-.14-.04-5.2-1.46-5.29-4.16-5.25-8.73.04-3.4,1.26-8.67,7.4-15.56-5.61,2.52-11.22,5.04-16.84,7.55-1.13-.3-2.26-.61-3.39-.91-.41-.11-.81-.22-1.22-.33-2.15-.58-4.31-1.16-6.47-1.74-.16-.05-.34-.09-.51-.14-3.86-1.04-7.72-2.07-11.59-3.11,2.29-1.91,8.5-6.57,21.21-10.57,12.15-3.82,24.36-5.2,33.43-5.63,7.92-.38,13.45-.03,14.46.04.38.1.84.22,1.39.35,1.89.42,4.85.89,9.01.91,2.96.02,5.65-.19,7.75-.42.04,0,.08-.01.11,0,.3-.03.59-.07.86-.1.18-.03.34-.04.5-.06,3.99-.18,8.32-.31,12.88-.31,2.17,0,4.39.02,6.65.07,16.09.4,27.73,2.26,35.33,3.92-7.2,3.97-14.4,7.94-21.61,11.91-4.63-.66-9.25-1.32-13.88-1.98Z"/>
          <path class="cls-7" d="M114.43,255.26c-6.78,1.34-10.98,3.55-11.99,4.11-5.34,2.93-5.89,5.84-5.01,7.51,2,3.81,13.31,4.72,22.07,5.27,14.16.9,38.78,1.94,75.74,1.24-1.61-3.11,1.3-6.08,2.47-7.14,1.17-1.07,4.74-4.01,12.79-6.79-37.33-2.14-64.34-3.74-77.09-4.9-3.01-.27-10.41-.99-18.98.7Z"/>
          <path class="cls-7" d="M242.1,256.02c-.9.21-2.02.47-3.32.73-.04,0-.08.02-.14.03-2.03.4-4.5.81-7.29,1.14-1.11.13-2.27.24-3.47.33-.64.05-1.28.09-1.89.12-3.23.18-5.99.14-8.28.02-2.84-.16-4.93-.47-6.19-.68-.05-.01-.11-.02-.15-.03.26-2.1.53-4.2.79-6.29.25-1.95.49-3.9.73-5.85-2.7,1.36-5.65,2.76-8.9,4.21-.63.29-1.28.57-1.93.85-2.27,1-4.53,1.95-6.76,2.84-4.04,1.64-7.98,3.12-11.73,4.45-.16.06-.32.12-.47.17-4.72-.35-9.42-.7-14.14-1.04-.26-.02-.52-.04-.78-.06-9.85-.73-19.7-1.45-29.54-2.18h-.01c-.36-.03-.73-.06-1.1-.08,17.61-3.68,30.9-7.51,40.63-10.78,2.62-.88,4.98-1.71,7.1-2.49,9.89-3.63,18.09-7.38,29.99-9.68,1.63-.32,3.33-.6,5.11-.86,1.33-.19,3.32-.48,5.62-.72,3.45-.36,7.61-.62,11.48-.31.99.08,1.97.19,2.91.36,8.55,1.48,8.6,5.83,8.64,10.69.03,3.18-.97,8.33-6.92,15.12Z"/>
          <path class="cls-7" d="M194.48,271.1c1.49,1.49,4.72,1.09,17.96,2.87,11.98,1.62,12.43,2.36,15.86,1.9,12.94-1.75,28.91-15.4,20.03-18.29-2.78-.9-8.78-.39-20.76.64-11.58,1-17.38,1.5-22.6,3.29-7.65,2.63-12.94,7.13-10.49,9.58Z"/>
          <path class="cls-7" d="M214.31,261.84c-1.34.53-5.07,2.09-6.83,4.28-1.99,2.47-.18,4.08.39,4.53-1.16.41-2.33.82-3.49,1.24-.58-.47-3.33-2.88.48-6.31,2.34-2.1,6.05-3.59,7.86-4.25.53.17,1.06.34,1.59.51Z"/>
          <path class="cls-7" d="M218.54,262.24c-1.16.46-4.39,1.82-5.92,3.71-1.73,2.14-.15,3.54.34,3.93-1.01.36-2.02.71-3.03,1.07-.5-.41-2.89-2.5.42-5.47,2.03-1.82,5.25-3.11,6.82-3.68.46.15.92.29,1.38.44Z"/>
          <path class="cls-7" d="M223.16,262.63c-1.09.43-4.1,1.7-5.53,3.47-1.61,2-.14,3.31.32,3.67-.94.33-1.89.67-2.83,1-.47-.38-2.7-2.33.39-5.11,1.9-1.7,4.9-2.9,6.37-3.44.43.14.86.27,1.29.41Z"/>
          <path class="cls-7" d="M96.42,237.48c-.07.03-.14.07-.21.11-.63.32-1.26.64-1.87.95-12,6.13-20.95,11.19-26.92,14.66-11.61,6.78-21.22,13.04-29.71,13.44-2.74.13-4.25-.4-12.39-.42-4.2,0-4.9.13-8.73.15-7.15.04-16.29.1-16.59-1.47-.23-1.17,4.55-3.1,8.9-4.21,10.04-2.57,15.19-.15,24.54-1.87,8.99-1.65,12.16-5.33,26.06-14.01,5.64-3.52,10.96-6.56,15.46-9.01,1.67-.91,3.23-1.75,4.64-2.5,2.81.7,5.61,1.4,8.41,2.1.17.05.35.09.53.13,2.18.54,4.35,1.08,6.52,1.62.45.11.91.23,1.36.34Z"/>
          <path class="cls-7" d="M230.26,248.81c-.33.15-.69.3-1.1.45-5.19,1.89-12.41,2.18-17.01,2.13-2.52-.02-4.25-.14-4.43-.16-1.57-.12-3.74-.28-5.66-.63-2.1-.38-3.91-.97-4.34-1.97-1.07-2.44,7.25-4.81,13.03-9.94,3.19-2.83,4.2-5.24,4.5-6.94.02-.04.02-.09.03-.13l-14.45-.5c.26-.14.5-.27.76-.41,4.98-2.69,9.98-5.39,14.97-8.09,2.83-.15,7.63-.27,12.39.42,1.41.21,5.23.77,7.38,2.06,2.25,1.36,2,3.09,1.14,4.75-.43.87-1.05,1.71-1.54,2.46-6.66,10.19.99,13.51-5.67,16.49Z"/>
          <path class="cls-7" d="M149.33,212.64c-1.27,1.16-2.54,2.32-3.81,3.48,1.51.42,4.22,1.01,8.34,1.19,4.66.2,8.91-.22,11.27-.52l3.81-3.48c-3.1-.11-6.19-.21-9.29-.32l-10.32-.35Z"/>
          <path class="cls-7" d="M148.85,166.42c-7.28,2.83-15.51,6.79-20.53,11.62-1.06,1.03-7.16,6.9-3.64,8.95.29.17.64.32,1.07.43.73.2,2.4.49,3.88,1.15.53.23,1.03.51,1.45.85.24.19.43.38.58.56l.02.02c.22.27.36.53.45.76.08.19.12.36.15.51.42-.58.99-1.27,1.77-2.06,0-.01.01-.01.02-.01,1.05-1.07,2.47-2.3,4.42-3.62,1-.69,2.14-1.4,3.43-2.13,8.94-5.04,19.94-7.93,24.68-9.07.37,1.7,1.19,3.09,2.28,4.21,2.99,3.16,7.98,4.32,10.71,4.79,3.32.57,7.34.82,9.92.75,1.27-.03,2.19-.14,2.51-.32.16-.09.15-.19.02-.28-.57-.51-3.47-1.3-4.96-3.07-1.01-1.19-.98-2.37-.79-3.19.95,1.07,4.01,4.12,11.61,5.86.34.08.7.16,1.06.23,2.42.49,5.26.85,8.59.98,3.03.12,6,.03,8.76-.16,11.75,2.24,15.26,2.32,16.16,1.92,1.51-.67-4.64-2.48-6.28-7.01-.52-1.44-.45-2.74-.22-3.46.11-.37.26-.6.38-.62.13-.02.2.2.32.59.29,1.03.89,3.25,3.82,5.45,2.28,1.7,3.94,1.86,5.41,2.9.44.31.82.67,1.1,1.09.93,1.39.77,3.47-2.18,6.68-.82.9-1.86,1.88-3.15,2.96.74-.31,1.92-.76,3.5-1.24l.3-.09c.09-.02.17-.05.26-.07.45-.13.89-.25,1.32-.36,2.38-.61,4.52-.96,6-1.18h.05c.77-.11,1.35-.19,1.71-.24,7.64-1.11,16.89-8.9,19.68-15.57,1.02-2.46,2.51-6.01.19-9.51h-115.83Z"/>
          <path class="cls-7" d="M206.3,175.29c.05,1.08.38,2.34,1.35,3.66,1.92,2.62,5.49,4.28,8.17,5.25l-9.52-8.91Z"/>
          <path class="cls-7" d="M159.51,199.44c9.98.34,19.95.68,29.93,1.03-3.35,3.98-14.2,7.07-22.56,6.91-8.69-.18-12.87-3.85-7.38-7.93Z"/>
          <path class="cls-7" d="M161.16,190.85c-1.05.96-3.76,1.68-6.04,1.6s-3.27-.92-2.22-1.88c1.05-.96,3.76-1.68,6.04-1.6s3.27.92,2.22,1.88Z"/>
          <path class="cls-7" d="M212.76,192.61c-1.05.96-3.76,1.68-6.04,1.6s-3.27-.92-2.22-1.88,3.76-1.68,6.04-1.6,3.27.92,2.22,1.88Z"/>
          <path class="cls-7" d="M159.41,188.53c-1.05.96-3.76,1.68-6.04,1.6s-3.27-.92-2.22-1.88,3.76-1.68,6.04-1.6,3.27.92,2.22,1.88Z"/>
          <path class="cls-7" d="M218.24,190.54c-1.05.96-3.76,1.68-6.04,1.6s-3.27-.92-2.22-1.88,3.76-1.68,6.04-1.6,3.27.92,2.22,1.88Z"/>
        </g>
        <g class="cls-15">
          <path class="cls-4" d="M265.22,165.28h-115.99c6.88-2.68,12.95-4.37,14.71-4.85,7.55-2.05,14.22-3.28,18.58-3.98.5-.65,2.65-3.18,8.84-5.14,8.77-2.77,19.06-2.31,18.96-1.93-.04.14-1.63.27-5.56,1.16-3.83.87-6.32,1.44-8.02,2.44-1.51.88-2.3,2.04-1.35,2.21,1.11.2,3.72-1.11,7.54-2,8.58-2,17.75-.6,17.47-.31-.21.22-5.65-.01-14.29,1.32-2.02.31-5.43.84-5.56,1.17-.24.61,11.34-.18,20.56-.2,4.88-.01,31.04-.07,41.28,7.28,1.29.92,2.2,1.88,2.83,2.83Z"/>
        </g>
      </g>
      <path class="cls-9" d="M195.24,238.43c-.56,3.24-1.17,8.08-1,14,.17,5.81.29,8.76,2,11,3.21,4.2,10.11,3.73,19,3,35.29-2.89,39.53-3.46,40-6,.55-2.99-4.5-6.49-11-11-5.36-3.72-8.13-4.39-14-8-5.4-3.32-9.42-6.67-12-9-2.04,1.35-4.71,2.83-8,4-6.12,2.17-11.56,2.25-15,2Z"/>
      <path class="cls-12" d="M197.24,264.43c.67,2.67,1.33,5.33,2,8,7.86,1.82,19.34,3.48,33,2,8.75-.95,16.18-2.95,22-5,.33-2.67.67-5.33,1-8-1.21.26-2.93.61-5,1-9.66,1.8-17.9,2.61-24,3-7.99.51-13.92.87-22,0-2.91-.31-5.32-.7-7-1Z"/>
      <path class="cls-14" d="M148.75,97.37c-.65,11.52-1.31,24.13-10.77,33.85-11.69,12.01-27.86,11.73-39.24,11.54-11.1-.19-27.55-.4-39.24-13.08-9.74-10.57-10.38-23.78-10.77-32.31-.29-6.37-1.57-34.01,16.93-46.93,8.92-6.23,18.38-6.2,33.85-6.15,16.79.05,27.87.09,36.93,7.69,14.2,11.92,12.97,33.63,12.31,45.39Z"/>
      <circle class="cls-2" cx="71.44" cy="92.37" r="10.39"/>
      <circle class="cls-10" cx="72.27" cy="92.99" r="7.6"/>
      <circle class="cls-2" cx="122.98" cy="93.14" r="10.39"/>
      <circle class="cls-10" cx="122.72" cy="93.51" r="7.28"/>
      <path class="cls-14" d="M48.74,91.21c-.82-1.11-2.59-3.18-5.39-3.85-5.37-1.29-11.14,3.38-13.08,8.46-1.49,3.9-.49,7.46,0,9.23,2.32,8.3,9.81,11.87,10.77,12.31,4.9,2.24,9.44,1.86,11.54,1.54-1.61-4.28-3.25-10.02-3.85-16.93-.35-4.02-.27-7.65,0-10.77Z"/>
      <path class="cls-14" d="M149.14,92.37c.52-.54,4.44-4.46,10-3.85,6.87.75,9.7,7.7,10,8.46,2.88,7.4-2.22,14.24-3.08,15.39-1.33,1.79-4.83,5.78-10.77,6.92-4.2.81-7.64-.19-9.23-.77.93-4.14,1.75-8.78,2.31-13.85.49-4.41.71-8.53.77-12.31Z"/>
      <path class="cls-13" d="M139.25,179.09c-1-.22-2.01-.45-3.01-.67.23,1.08.53,2.37.9,3.84.71,2.82,1.71,6.29,3.1,10.16,3.65,10.12,6.41,13.09,6.92,17.06.09.61.11,1.25.08,1.94-.4,8.42-9.03,14.28-16,19-2.58,1.76-6.01,4.08-9.89,6.1-.25.12-.5.25-.75.38-6.58,3.3-14.34,5.54-21.36,2.52-.06-.02-.11-.05-.17-.07-6.35-2.83-9.19-8.8-13.83-18.93-3.44-7.52-7.7-19.3-9-35-2.66,6-5.33,12-8,18-1.36-.58-2.73-1.17-4.09-1.75-.49-.21-.98-.42-1.47-.63-2.6-1.12-5.21-2.24-7.82-3.35-.2-.09-.41-.18-.62-.27-4.66-2-9.33-4-14-6,.18-4.41,1.22-15.18,9-25,7.44-9.38,17.43-13.35,25.46-14.99,7.01-1.44,12.53-1.09,13.54-1.01.46.2,1.01.43,1.65.66,2.2.79,5.44,1.6,9.35,1.34,2.78-.18,5.09-.84,6.81-1.51.03-.01.06-.03.09-.03.25-.09.48-.19.7-.28.14-.07.27-.12.4-.18,3.54-.71,7.46-1.31,11.71-1.66,2.02-.18,4.12-.29,6.29-.34,15.44-.33,28.2,2.89,37,6-2.66,9.34-5.33,18.67-8,28-5-1.11-9.99-2.22-14.99-3.33Z"/>
      <path class="cls-11" d="M99.24,239.43c-4.96,3.49-6.62,8.69-7,10-1.99,6.88.48,13.37,3,17,5.76,8.27,17.25,9.44,26,10,14.14.91,38.19,1.35,72-3-4.68-6.76-5-13.55-5-16s.32-9.24,5-16c-37.06-1.91-63.91-3.4-77-5-3.09-.38-10.74-1.41-17,3Z"/>
      <path class="cls-11" d="M219.24,231.42c-.62.54-1.41,1.19-2.36,1.86-.03.02-.06.04-.1.07-1.49,1.03-3.37,2.14-5.64,3.07-.9.37-1.87.71-2.9,1-.55.16-1.1.3-1.64.42-2.83.64-5.45.77-7.71.67-2.82-.14-5.08-.66-6.48-1.04-.06-.02-.12-.03-.17-.05-1.9-4.66-3.8-9.33-5.7-13.99-1.76-4.34-3.53-8.67-5.3-13.01-1.13,3.21-2.45,6.55-4,10-.3.68-.61,1.36-.93,2.03-1.1,2.38-2.24,4.65-3.4,6.81-2.1,3.93-4.26,7.51-6.4,10.75-.09.14-.18.28-.27.41-4.76-.41-9.51-.83-14.27-1.24-.26-.02-.52-.04-.79-.07-9.94-.86-19.88-1.72-29.82-2.59h-.01c-.37-.04-.74-.07-1.11-.1,12.68-9.49,21.17-18.98,26.92-26.94,1.55-2.14,2.9-4.17,4.08-6.06,5.52-8.79,9.35-17.7,18.11-23.7,1.2-.83,2.49-1.59,3.89-2.3,1.05-.52,2.61-1.31,4.52-2.01,2.85-1.06,6.48-1.94,10.4-1.56,1.01.1,2.04.28,3.08.57,9.5,2.63,14,12.26,19,23,3.28,7.03,7.62,18.52,9,34Z"/>
      <path class="cls-9" d="M190.19,268.43c2.92,3.19,5.52,2.05,19.71,5,12.84,2.67,14.03,4.29,16.76,3,10.3-4.86,11.24-36.29,0-42-3.52-1.79-8.59-.19-18.73,3-9.8,3.09-14.7,4.63-17.74,9-4.46,6.39-4.79,16.76,0,22Z"/>
      <path class="cls-12" d="M227.24,234.43c3,.67,6,1.33,9,2,1.68,3.92,4.09,10.95,4,20-.09,8.52-2.35,15.15-4,19-3,.33-6,.67-9,1,1.43-1.22,3.38-3.17,5-6,3-5.23,3-10.18,3-15s0-9.77-3-15c-1.62-2.83-3.57-4.78-5-6Z"/>
      <path class="cls-1" d="M199.24,246.43c-.71,1.27-2.59,5.02-2,10,.66,5.61,4.01,9.05,5,10-.67,1-1.33,2-2,3-1.03-1-6.06-6.13-6-14,.04-4.83,1.98-8.4,3-10,.67.33,1.33.67,2,1Z"/>
      <path class="cls-1" d="M203.6,246.99c-.62,1.1-2.24,4.35-1.73,8.67.57,4.86,3.48,7.85,4.34,8.67-.58.87-1.16,1.73-1.73,2.6-.89-.87-5.26-5.32-5.2-12.14.03-4.19,1.72-7.28,2.6-8.67.58.29,1.16.58,1.73.87Z"/>
      <path class="cls-1" d="M208.32,247.49c-.58,1.03-2.1,4.07-1.62,8.1.54,4.54,3.25,7.33,4.05,8.1-.54.81-1.08,1.62-1.62,2.43-.83-.81-4.91-4.96-4.86-11.34.03-3.91,1.61-6.8,2.43-8.1.54.27,1.08.54,1.62.81Z"/>
      <path class="cls-14" d="M64.24,201.42c-.03.08-.06.17-.09.25-.26.76-.52,1.51-.77,2.25-4.93,14.49-8.12,26.36-10.14,34.5-3.91,15.88-6.48,30.48-14,32-2.42.5-4.38-.57-12,0-3.93.3-4.44.66-8,1-6.63.64-15.11,1.45-17-2-1.41-2.58,1.08-7.2,4-10,6.75-6.45,14.03-1.49,21-6,6.71-4.33,5.9-12.73,10-33,1.67-8.21,3.53-15.35,5.22-21.12.62-2.15,1.23-4.12,1.78-5.88,3.34,1.34,6.67,2.67,10,4,.21.09.42.17.63.25,2.59,1.04,5.17,2.07,7.75,3.1.54.22,1.08.43,1.62.65Z"/>
      <path class="cls-14" d="M200.81,216.35c-.15.36-.34.71-.57,1.07-2.91,4.58-9.36,5.76-13.7,6.01-2.37.15-4.11.01-4.3,0-1.59-.14-3.78-.34-5.93-.97-2.35-.68-4.65-1.86-6.07-4.03-3.49-5.32,1.85-11.19,2-23,.09-6.5-1.44-11.92-2.89-15.7-.03-.1-.07-.2-.11-.3h-14c.1-.32.19-.64.29-.96,1.9-6.34,3.81-12.69,5.71-19.04,2.49-.55,6.85-1.18,12,0,1.53.36,5.67,1.31,9,4,3.49,2.83,5.03,6.7,5.92,10.43.48,1.95.77,3.86,1.08,5.57,4.2,23.06,14.74,29.83,11.57,36.93Z"/>
      <path class="cls-14" d="M88.24,142.43v8c1.83.81,4.97,1.91,9,2,4.56.1,8.09-1.16,10-2v-8h-19Z"/>
      <path class="cls-5" d="M65.24,56.43c-3.26,2.87-10.58,10.11-13.77,21.94-2.03,7.55-1.6,14.06-1,18.06-.56-1.04-1.49-2.55-3.01-4.01-2.83-2.73-5.83-3.51-7.02-4.01-6.78-2.86-7.14-18.43-7.2-20.98-.5-21.46,13.63-36.54,16-39,4.95-5.12,9.92-8.35,13.26-10.24-.19-1.46-.77-7.23,3.01-12.04C70.87-.66,80.95-.42,81.24.43c.12.33-1.24.74-4,3-2.69,2.21-4.43,3.67-5,6-.51,2.07-.06,4.69,1,5,1.24.36,2.34-2.74,5-5,5.96-5.08,15.96-2.67,16-2,.03.5-5.29.4-12,4-1.56.84-4.22,2.26-4,3,.41,1.38,10.41-1.25,19-2,4.54-.39,28.91-2.51,46,13,9.93,9.01,13.03,20.01,15,27,4.22,14.99,3.54,32.92-2.45,35.98-.96.49-4.25,1.71-7.02,5.02-.99,1.18-1.63,2.28-2.01,3.01.57-14.15-3.27-20.71-7.02-24.07-2.43-2.18-4.14-2.41-8.02-6.02-6.87-6.39-9.65-13.24-10.03-13.04-.29.16,1.07,4.3,4.01,9.03,6.17,9.9,13.77,13.45,13.04,15.05-.44.96-3.79,1.06-17.05-3.01-2.38.62-5.07,1.04-8.02,1-14.48-.16-24.41-10.94-27.08-14.04.66,1.84,1.85,4.45,4.01,7.02,3.92,4.65,8.32,5.9,8.02,7.02-.34,1.3-6.56,1.5-12.04,0-4.12-1.13-13.41-4.75-21.34-18.94Z"/>
      <path class="cls-3" d="M103.24,55.43c1.15,2.39,2.75,5.16,5,8,4.47,5.65,9.5,9.05,13,11"/>
      <path class="cls-8" d="M84.24,112.43h29c.94,9.07-6.03,16.74-14,17-8.3.27-15.95-7.54-15-17Z"/>
      <circle cx="73" cy="93.28" r="4"/>
      <circle cx="123" cy="93.28" r="4"/>
      <circle class="cls-6" cx="69" cy="88.28" r="4"/>
      <circle class="cls-6" cx="126" cy="88.28" r="4"/>
    </g>
  </g>
</svg>