<?xml version="1.0" encoding="UTF-8"?>
<svg id="Layer_2" data-name="Layer 2" xmlns="http://www.w3.org/2000/svg" viewBox="0 0 598.54 561.87">
  <defs>
    <style>
      .cls-1 {
        fill: #966e3e;
      }

      .cls-2 {
        fill: #4f6e45;
      }

      .cls-3 {
        fill: #8a6236;
      }

      .cls-4 {
        fill: #8c6239;
      }
    </style>
  </defs>
  <g id="Layer_1-2" data-name="Layer 1">
    <g>
      <path class="cls-4" d="M106,475.5c-4.9-3.25-15.05,14.46-45,28-15.17,6.86-30,11-30,11-13.82,4.3-22.01,4.51-22,6,.03,3.4,24.46,10.23,50,6,10.85-1.8,25.1-4.16,36-16,11.64-12.64,15.65-31.92,11-35Z"/>
      <path class="cls-2" d="M271,275.51c4.33,5.72,14.06,16.91,30,22.78,27.77,10.22,51.89-3.99,56-6.51,4.22,3.73,32.89,28.21,72,20.61,32.72-6.36,50.86-30.94,55-36.88,3.92.65,33.96,5.07,57-18.44,15.64-15.97,19.11-35.68,20-42.3,3.76-2.49,28.84-19.72,34-54.23,6.07-40.58-20.88-68.39-23-70.5,2.86-1.96,22.44-15.92,26-43.39,3.17-24.47-8.64-42.16-11-45.56C391.67.72,196.33.36,1,0,.67,96.54.33,193.07,0,289.61c2.28,2.87,5.54,6.15,10,8.68,15.09,8.56,31.14,1.35,34,0,5.87,2.18,15.3,4.81,27,4.34,18.89-.75,32.36-9.12,38-13.12"/>
      <path class="cls-1" d="M229.26,124.86c-9.55-14.47,9.46-44.61,23-60,24.03-27.32,55.99-36.83,55-39-.91-1.99-28.23,5.28-46,10-9.1,2.42-14.9,4.08-20,1-10.08-6.08-5.98-23.71-11-25-3.99-1.02-11.77,8.79-33,54-14.88,31.69-16.33,38.08-25,43-16.36,9.27-42.09,4.04-57-10-24.56-23.13-17.38-67.98-21-68-4.25-.03.86,61.69-24,73-16.27,7.41-34.94-11.54-40-6-7.72,8.46,36.7,51.62,74,125,10.33,20.32,15.54,34.5,23.17,52.98,25.73,62.35,13.57,138.75-15,189-31.99,56.27-91.54,89.2-88,94,3.01,4.07,36.91-31.97,77-25,28.94,5.03,38.29,28.51,69,27,13.33-.65,17.05-5.35,36-12,34.21-12.01,63.82-11.34,79-11,54.68,1.23,62.29,24.89,115,24,18.92-.32,55.83-3.93,58-16,2.84-15.79-57.33-32.22-97-63-87.8-68.12-38.45-245.16-81.17-253.98-8.68-1.79-18.33,3.36-24-3-8.08-9.06.02-32.42,13-47,9.36-10.51,19.8-14.81,41-22,63.58-21.57,95.92-32.22,123-26,15.7,3.61,28.11,10.17,31,6,3.23-4.66-7.12-20.3-21-30-23.76-16.6-46.32-7.71-52-20-4.44-9.6,8.33-17.14,8-39-.19-12.92-4.92-27.73-10-28-7.28-.38-7.02,29.46-28,59-15.64,22.02-35.24,32.83-43,37-29.93,16.08-77.71,26.12-89,9Z"/>
      <path class="cls-3" d="M248.76,223.36c-.55.21,7.27,19.62,12,37,6.05,22.23,12.79,47,4,71-6.62,18.09-15.96,30.17-21,36-43.82,50.71-101.8,163.82-81,185,8.16,8.31,21.97-4.11,78-18,76.84-19.06,126.11-14.37,130-33,.67-3.2-.09-6.63-9-19-28.83-40.05-49.5-43.88-62-65-8.02-13.56,2.63-16.5-1-85-2.78-52.47-1-93.63-16-98-8.15-2.37-18.52,6.93-26,1-5.8-4.59-7.65-12.13-8-12Z"/>
      <path class="cls-3" d="M41.76,109.36c14.87,21.57,29.98,44.9,45,70,14.44,24.12,27.38,47.54,39,70-2.21-17.37-8.35-47.74-28-80-18.89-31-41.88-50-56-60Z"/>
      <path class="cls-3" d="M183.76,182.36c6.02,14.61,12.82,35.78,15,62,2.88,34.67-3.59,62.82-9,80,6.57-9.92,17.99-30.18,20-58,3.19-44.11-19.55-75.64-26-84Z"/>
      <path class="cls-3" d="M185.76,263.36c1.88,7.56,3.56,17.85,3,30-.92,19.95-7.42,35.26-12,44"/>
    </g>
  </g>
</svg>