<?xml version="1.0" encoding="UTF-8"?>
<svg id="Layer_2" data-name="Layer 2" xmlns="http://www.w3.org/2000/svg" viewBox="0 0 235.7 239.46">
  <defs>
    <style>
      .cls-1 {
        fill: none;
      }

      .cls-1, .cls-2 {
        stroke: #000;
        stroke-miterlimit: 10;
      }

      .cls-3 {
        fill: #fef8ab;
      }

      .cls-4 {
        fill: #534741;
      }

      .cls-5, .cls-2 {
        fill: #fff;
      }

      .cls-6 {
        fill: #7a885f;
      }

      .cls-7 {
        fill: #b65339;
      }

      .cls-8 {
        fill: #4b3d2d;
        opacity: .62;
      }

      .cls-9 {
        fill: #af463a;
      }

      .cls-10 {
        opacity: .65;
      }

      .cls-11 {
        fill: #fddec9;
      }

      .cls-12 {
        fill: #dda627;
      }

      .cls-13 {
        fill: #1e1810;
      }
    </style>
  </defs>
  <g id="Layer_1-2" data-name="Layer 1">
    <g>
      <path class="cls-11" d="M120.51,62.05c.43-.45,3.67-3.68,8.26-3.18,5.67.62,8.01,6.36,8.26,6.99,2.38,6.11-1.83,11.76-2.54,12.7-1.1,1.48-3.99,4.77-8.89,5.72-3.47.67-6.31-.16-7.62-.64.76-3.42,1.44-7.25,1.91-11.43.4-3.64.59-7.04.64-10.16Z"/>
      <g>
        <g class="cls-10">
          <path class="cls-6" d="M209.09,119.04c-5.3,6.55-11.04,13.72-23.33,19.44-15.18,7.07-29.25,7.27-39.15,7.41-9.66.14-24,.38-29.05-6.55-4.21-5.78.65-13.26,3.8-18.09,2.35-3.61,12.57-19.26,34.09-27,10.38-3.73,18.66-3.93,32.21-4.24,14.7-.34,24.4-.57,29.23,3.55,7.57,6.45-2.41,18.8-7.82,25.48Z"/>
          <path class="cls-6" d="M152.43,117.68c-2.35,3.25-8.34,6-13.37,6.12s-7.2-2.41-4.85-5.66c2.35-3.25,8.34-6,13.37-6.12s7.2,2.41,4.85,5.66Z"/>
          <path class="cls-6" d="M151.8,118.55c-1.83,2.53-6.48,4.66-10.4,4.76-3.91.1-5.6-1.87-3.77-4.4,1.83-2.53,6.48-4.66,10.4-4.76,3.91-.1,5.6,1.87,3.77,4.4Z"/>
          <path class="cls-6" d="M179.11,117.43c-2.35,3.25-.18,5.79,4.85,5.66s11.02-2.87,13.37-6.12.18-5.79-4.85-5.66c-5.03.13-11.02,2.87-13.37,6.12Z"/>
          <path class="cls-6" d="M178.48,118.31c-1.83,2.53-.14,4.5,3.77,4.4,3.91-.1,8.57-2.23,10.4-4.76,1.83-2.53.14-4.5-3.77-4.4-3.91.1-8.57,2.23-10.4,4.76Z"/>
          <path class="cls-6" d="M123.89,117.75c-.26-.61-.97-1.74-3.15-2.06-4.18-.61-11.16,2.16-14.94,5.09-2.91,2.25-3.49,4.24-3.79,5.24-1.37,4.66,3.74,6.52,4.4,6.75,3.38,1.16,7.52.85,9.49.62.34-2.39,1.26-5.61,3.57-9.52,1.35-2.27,2.9-4.34,4.42-6.11Z"/>
          <path class="cls-6" d="M211.48,116.19c.68-.32,5.73-2.63,10.35-2.4,5.72.28,5.35,4.15,5.3,4.58-.51,4.13-7.79,8.13-9.01,8.8-1.9,1.04-6.61,3.39-12.29,4.17-4.02.55-6.62.06-7.78-.23,2.51-2.37,5.13-5.02,7.7-7.91,2.24-2.51,4.13-4.86,5.72-7Z"/>
          <path class="cls-6" d="M139.44,146.2c-1.18,1.15-2.36,2.31-3.55,3.46,1.07.46,3.12,1.14,6.44,1.19,4.47.06,8.68-1.06,10.55-1.62.47-1.14.95-2.27,1.42-3.41-4.96.12-9.91.25-14.87.37Z"/>
          <path class="cls-6" d="M130.59,149.8c-2.21.24-3.87.71-4.75.79-5.32.52-8.9-.17-10.13-.42-14.45-2.94-26.31-5.65-30.65-6.65-2.6,1.4-6.6,3.76-10.28,7.01-2.86,2.51-4.54,4.69-5.53,6.21,11,3.55,21.99,7.09,32.99,10.64-7.85,9.42-15.7,18.84-23.55,28.25,22.31-.56,44.62-1.12,66.93-1.69,5.73-9.36,11.45-18.73,17.18-28.09,15.92-4.22,31.83-8.45,47.75-12.67,1.22-1.19,4.05-4.2,4.4-7.53.31-2.94-1.47-4.62-2.4-5.34-2.01.42-39.24,8.1-48.45,9.32-2.34.31-4.25.11-4.25.11-3.1-.03-5.43-.28-6.94-.5-1.87.56-6.09,1.68-10.55,1.62-3.32-.04-5.37-.72-6.44-1.19-1.17-.08-2.97-.12-5.31.13Z"/>
          <path class="cls-6" d="M81.87,195.55c-8.09,11.67-16.18,23.35-24.27,35.02,7.46.26,14.92.52,22.38.79,8.18-9.88,16.36-19.75,24.55-29.63l4.25-.11c-5.37,9.36-10.74,18.71-16.12,28.07,7.79-.2,15.58-.39,23.37-.59,8.44-11.68,16.89-23.36,25.33-35.05-19.83.5-39.66,1-59.49,1.5Z"/>
          <path class="cls-6" d="M146.12,87.84c-.55.29-1.09.59-1.64.89-1.08.61-12.68,7.15-19.92,16.02-6.12,7.5-4.12,10.54-3.7,10.89.04.03.07.06.11.09.93.75,1.29.92,1.29.92.2.09.56.24.89.53.21.19.34.38.43.54.06-.07.12-.14.19-.21.26-.3.6-.66,1.02-1.07,1.81-1.76,5.11-4.32,10.46-6.19,1.04-.36,3.08-1.03,7.62-1.85,12.49-2.27,15.06-.54,21.47-2.2,10.16-2.63,15.1-9.94,17.56-9.83,1.24.06.62,1.94-.3,3.32-2.87,4.29-10.62,6.76-9.96,7.98.56,1.03,6.66.56,12.13-.85,10.54-2.73,16.84-8.44,18.48-8.2,1.46.22-3.45,3.89-1.93,5.57,1.71,1.89,9.32-.92,13.05.35,2.16.73,3.56,3.01-.94,10.26h-.01c-.24.41-.51.82-.79,1.25.1-.02.2-.05.31-.07,1.24-.27,2.86-.65,4.76-1.16,1.93-.52,3.37-.96,3.52-1.01,4.28-1.34,13.11-10.02,14.97-19.27.36-1.74.81-4.14.24-6.7h-89.31Z"/>
          <path class="cls-6" d="M160.81,132.51c-1.78,2.47-5.37,4.52-8.01,4.59-2.64.07-3.33-1.88-1.55-4.35s5.37-4.52,8.01-4.59c2.64-.07,3.33,1.88,1.55,4.35Z"/>
          <path class="cls-6" d="M166.64,95.59c-1.23,1.38-3.61,3.73-7.66,6.26-5.04,3.16-10.01,4.92-12.47,5.71l20.13-11.98Z"/>
          <path class="cls-6" d="M81.94,144.95c-.93-2.34-5.24-3.07-10.2-1.77-5,1.32-9.42,4.38-10.28,7.01-1.03,3.14,3.2,5.12,9.77,3.8l10.71-9.04Z"/>
          <path class="cls-6" d="M214.71,141.67c4.23-2.58,9.84-3.77,13.3-2.85,3.5.93,3.94,3.77,1.22,6.48-3.26,3.24-10.5,5.75-15.67,4.97l1.15-8.6Z"/>
          <path class="cls-6" d="M73.04,230.86c-.04.59-.43,4.5-4.97,6.87-2.68,1.4-6.37,1.5-13.74,1.7-8.79.23-9.46-.65-9.63-1.11-.44-1.16,1.04-2.92,2.98-4.12,3.2-1.98,8.38-2.91,11.62-1.64.85-.7,1.7-1.39,2.55-2.09l11.19.39Z"/>
          <path class="cls-6" d="M96.7,229.93c-.83.61-6.18,4.64-4.97,6.87.72,1.32,4.4,1.23,11.75,1.05,8.77-.21,10.76-1.16,11.62-1.64,2.16-1.22,3.22-2.98,2.98-4.12-.39-1.89-4.41-2.59-9.63-1.11.14-.68.29-1.36.43-2.03l-12.18.98Z"/>
        </g>
        <path class="cls-8" d="M235.13,87.84h-89.36c14.7-7.81,28.91-10.5,34.47-11.51,13.17-2.39,21.99-1.65,28.11-1.08,8.31.77,20.01,1.86,24.92,8.51,1,1.36,1.57,2.74,1.86,4.08Z"/>
      </g>
      <path class="cls-11" d="M141.27,99.94c2.27-3.66,6.82-5.21,10.78-3.73,3.99,1.5,6.39,5.73,5.66,9.64-.88,4.68-6.09,8.13-11.57,6.79"/>
      <path class="cls-11" d="M120.19,66.18c-.54,9.51-1.08,19.92-8.89,27.95-9.65,9.91-23,9.69-32.39,9.53-9.16-.15-22.75-.33-32.39-10.8-8.04-8.73-8.57-19.63-8.89-26.68-.24-5.26-1.29-28.08,13.97-38.75,7.37-5.15,15.17-5.12,27.95-5.08,13.86.04,23.01.07,30.49,6.35,11.73,9.84,10.71,27.77,10.16,37.48Z"/>
      <circle class="cls-2" cx="56.36" cy="62.05" r="8.57"/>
      <circle class="cls-13" cx="57.55" cy="62.6" r="5.95"/>
      <circle class="cls-2" cx="98.91" cy="62.68" r="8.57"/>
      <circle class="cls-13" cx="98.22" cy="62.74" r="6.46"/>
      <path class="cls-11" d="M37.62,61.09c-.67-.92-2.14-2.62-4.45-3.18-4.43-1.06-9.2,2.79-10.8,6.99-1.23,3.22-.41,6.16,0,7.62,1.91,6.86,8.1,9.8,8.89,10.16,4.05,1.85,7.8,1.53,9.53,1.27-1.33-3.53-2.69-8.27-3.18-13.97-.29-3.32-.22-6.32,0-8.89Z"/>
      <path class="cls-11" d="M72.24,103.84c-.33,1.67-.67,3.33-1,5,1.35.73,3.78,1.81,7,2,4.32.26,7.59-1.24,9-2-.33-1.67-.67-3.33-1-5h-14Z"/>
      <path class="cls-3" d="M66.24,108.84c-1.96.27-3.22.91-4,1-4.74.58-8.65-.59-10-1-15.89-4.89-29.14-9.35-34-11-1.52,1.97-3.72,5.33-5,10-1,3.62-1.1,6.78-1,9,13,5.67,26,11.33,39,17-1,13.67-2,27.33-3,41h63c-1-13.67-2-27.33-3-41,12.33-5.67,24.67-11.33,37-17,.34-1.72.97-6.07-1-11-1.74-4.34-4.61-6.91-6-8-1.64.54-32.01,10.55-40,12-2.03.37-4,0-4,0-2.99-.15-5.41-.62-7-1-1.41.76-4.68,2.26-9,2-3.22-.19-5.65-1.27-7-2-1.18-.16-2.93-.28-5,0Z"/>
      <path class="cls-9" d="M51.24,174.84c.33,17,.67,34,1,51,7.33.67,14.67,1.33,22,2,1-14.33,2-28.67,3-43h4c1.33,13.67,2.67,27.33,4,41h22v-51h-56Z"/>
      <path class="cls-4" d="M33.24,57.84c-.64-.53-4.67-5.11-4-16,.79-12.88,7.38-22.15,8-23C46,6.84,58.45,3.18,63.24,1.84c10.98-3.06,19.95-1.62,26.21-.55,8.5,1.45,20.47,3.5,29.79,13.55,5.53,5.96,7.67,12.09,9,16,4.62,13.64,2.17,26.18-1,28-.11.07-1.19.67-2.68,1.36-1.59.74-2.98,1.27-4.01,1.64-.48-12.01-3.59-15.77-6.31-17-4.45-2.01-9.8,1.86-12.75-1-2.62-2.54-.46-7.8-2.01-8.18-1.75-.43-3.82,7.81-12.04,11.46-4.27,1.89-9.79,2.36-11.04.82-1.49-1.85,4.24-5.21,4.01-11.46-.07-2.02-.78-4.78-2.01-4.91-2.44-.26-2.11,10.39-10.03,13.91-4.99,2.22-8.66-.44-19.06,2.45-3.78,1.05-5.28,1.96-6.02,2.45-4.93,3.31-5.81,8.46-6.02,10.64-.19-.24-.45-.52-.79-.82-.51-.44-.96-.67-1.22-.82,0,0-.49-.28-2.04-1.55Z"/>
      <ellipse class="cls-7" cx="78.74" cy="84.34" rx="4.5" ry="6.5"/>
      <path class="cls-1" d="M63.24,29.84c-.23,2-.87,5.39-3,9-2.65,4.49-6.19,6.92-8,8"/>
      <path class="cls-11" d="M16.24,99.84c-2.51-3.5-7.15-4.75-11-3-3.88,1.77-5.99,6.15-5,10,1.19,4.61,6.62,7.7,12,6"/>
      <path class="cls-12" d="M67.24,226.84c.37.88,2.71,6.65,0,10-1.6,1.98-5.07,1.98-12,2-8.26.02-9.52-1.32-10-2-1.22-1.73-1.02-4.29,0-6,1.69-2.82,6.02-4,10-2,.33-1,.67-2,1-3"/>
      <path class="cls-12" d="M89.3,226.35c-.37.88-2.71,6.65,0,10,1.6,1.98,5.07,1.98,12,2,8.26.02,9.52-1.32,10-2,1.22-1.73,1.02-4.29,0-6-1.69-2.82-6.02-4-10-2-.33-1-.67-2-1-3"/>
      <circle cx="58" cy="62.7" r="3"/>
      <circle cx="98" cy="62.7" r="3"/>
      <circle class="cls-5" cx="53.91" cy="59.17" r="4.09"/>
      <circle class="cls-5" cx="101.83" cy="60.08" r="4.09"/>
    </g>
  </g>
</svg>