<?xml version="1.0" encoding="UTF-8"?>
<svg id="Layer_2" data-name="Layer 2" xmlns="http://www.w3.org/2000/svg" viewBox="0 0 236.18 191.71">
  <defs>
    <style>
      .cls-1 {
        fill: #543713;
      }

      .cls-1, .cls-2, .cls-3, .cls-4, .cls-5, .cls-6, .cls-7, .cls-8, .cls-9, .cls-10 {
        stroke: #000;
        stroke-miterlimit: 10;
      }

      .cls-2 {
        fill: none;
      }

      .cls-3 {
        fill: #5a3e16;
      }

      .cls-11, .cls-5 {
        fill: #fff;
      }

      .cls-4 {
        fill: #fed29f;
      }

      .cls-6 {
        fill: #ad3224;
      }

      .cls-12 {
        fill: #333;
      }

      .cls-7 {
        fill: #b37e2c;
      }

      .cls-8 {
        fill: #f7b4cc;
      }

      .cls-9 {
        fill: #231f20;
      }

      .cls-10 {
        fill: #ad7029;
      }
    </style>
  </defs>
  <g id="Layer_1-2" data-name="Layer 1">
    <g>
      <path class="cls-7" d="M78.19,155.13c-.31.41-.76,1.09-1,2-.74,2.78,1.06,5.03,4,10,3.84,6.49,3.41,7.11,5,8,2.11,1.18,3.08.21,10,0,6.37-.19,9.24.52,10-1,.48-.96-.15-2.25-1-4-.95-1.94-2.18-3.25-3-4-.67-1.67-1.33-3.33-2-5"/>
      <path class="cls-2" d="M110.19,69.13c-1.26-.61-2.53-.17-3,0-2.06.72-2.87,2.66-3,3-.66,1.67-.24,3.15,0,4,.07.26,1.16,3.96,3,4,.98.02,1.67-1.01,3-3,1.41-2.11,2.24-3.36,2-5-.04-.27-.36-2.21-2-3Z"/>
      <path class="cls-7" d="M116.19,56.13c-1.93.19-4.69.5-8,1-7.8,1.17-15.16,2.84-19,4-18.37,5.52-30,20-30,20-1.17,1.46-11.69,14.88-13,33-.64,8.79,0,15,0,15,.39,3.84,1.39,10.56,0,16-.69,2.71-1.92,4.87-2,5-1.23,2.13-2.7,3.69-3,4-1.18,1.24-1.47,1.23-2,2-.64.93-1.14,2.29-1,5,.07,1.3.36,4.35,3,10,1.8,3.86,2.17,3.53,3,6,1.34,4.02.58,5.55,2,7,1.04,1.06,2.31,1.12,8,1,10.44-.22,12.22-.55,13-2,.76-1.41.22-3.24,0-4-.71-2.42-2.49-3.67-3-4-.67-2.67-1.33-5.33-2-8,2.09-2.26,4.41-4.61,7-7,2.4-2.21,4.75-4.21,7-6,5.02,2.17,11.41,4.43,19,6,8.54,1.76,16.08,2.13,22,2-.2,1.11-.39,2.88,0,5,.43,2.32,1.36,4.02,2,5,.05-.59.22-1.77,1-3,.68-1.07,1.51-1.69,2-2-.17,1.18-.3,2.93,0,5,.39,2.68,1.3,4.54,2,6,5.06,10.5,4.38,10.93,6,12,1.03.68,4.37.8,11,1,6.93.21,8.22.05,9-1,1.77-2.37-.62-7.23-1-8-.67-1.36-1.44-2.36-2-3-1.02-1.72-2.18-4.06-3-7-1.14-4.07-1.17-7.62-1-10,1.88-.22,3.88-.55,6-1,3.79-.81,7.14-1.89,10-3-.64.95-1.62,2.66-2,5-.27,1.64-.16,3.03,0,4,.45-.2,1.16-.53,2-1,1.33-.74,1.77-1.15,2-1,.45.29-.81,2.05-1,4-.25,2.5,1.4,3.76,5,9,3.68,5.35,3.29,5.98,5,7,.65.39,1.78.94,9,1,8.03.07,8.71-.59,9-1,1.32-1.89-.51-5.94-4-10-1.84-7.29-3.42-16.05-4-26-.33-5.77-.28-11.13,0-16,.78-1.9,1.86-4.64,3-8,1.96-5.76,2.94-8.63,3-10,.49-11.93-51.41-14.7-66-43-3.21-6.23-3.88-12.26-4-16Z"/>
      <path class="cls-7" d="M144.19,14.13c-.56-1.05-1.5-2.55-3-4-1.59-1.53-4.75-3.93-13-5-10.99-1.43-13.35,1.78-20-1-3.77-1.57-5.96-3.84-7-3-1.12.91.75,4.13,2,9,2.07,8.07-.58,8.92,1,16,.47,2.1,2.78,11.34,11,17,2.29,1.58,4.46,2.48,6,3"/>
      <path class="cls-1" d="M136.19,19.13c-1.15-.83-2.84-1.94-5-3-.94-.46-3.96-1.89-9-3-6.43-1.42-7.7-.47-11-2-4.12-1.91-5-5.41-6-5-1.47.61-.08,8.04,2,14,1.79,5.13,4.01,11.23,10,16,2.65,2.11,5.23,3.32,7,4"/>
      <path class="cls-4" d="M136.19,19.13c-1.73-3.25-3.82-4.48-5-5-2.07-.9-2.79-.24-10,0-3.96.13-6.74.03-7,1-.11.42.36.6,1,2,.7,1.54.49,2.12,1,3,.38.66,1.17,1.48,3,2-1.27.33-2.28.7-3,1-.84.35-1.37.57-2,1-.99.68-1.63,1.46-2,2,.9-.32,2.09-.58,3,0,.45.29.55.6,1,1,.52.47,1.41.96,3,1-.73.13-2.45.55-4,2-1.18,1.11-1.74,2.32-2,3,.16-.15,1.34-1.23,3-1,1.07.15,1.75.76,2,1,0,.47-.09,1.76-1,3-1.08,1.47-2.58,1.9-3,2,.37.32,1.05.8,2,1,2.08.45,3.73-.79,4-1-.04.3-.21,1.21-1,2-.21.21-.9.84-2,1,1,.33,2,.67,3,1s2,.67,3,1"/>
      <path class="cls-7" d="M192.34,13.68c.56-1.05,1.5-2.55,3-4,1.59-1.53,4.75-3.93,13-5,10.99-1.43,13.35,1.78,20-1,3.77-1.57,5.96-3.84,7-3,1.12.91-.75,4.13-2,9-1.61,6.28-.37,8.19-.48,12.06,0,0-.08,1.78-.52,3.94-.88,4.31-5.48,17.79-15.14,19.45-.87.15-2.24.28-4,0"/>
      <path class="cls-1" d="M200.34,18.68c1.15-.83,2.84-1.94,5-3,.94-.46,3.96-1.89,9-3,6.43-1.42,7.7-.47,11-2,4.12-1.91,5-5.41,6-5,1.47.61.08,8.04-2,14-1.82,5.21-4.04,11.24-10,16-3.1,2.47-6.15,3.76-8.14,4.45"/>
      <path class="cls-4" d="M200.34,18.68c1.73-3.25,3.82-4.48,5-5,2.07-.9,2.79-.24,10,0,3.96.13,6.74.03,7,1,.11.42-.36.6-1,2-.7,1.54-.49,2.12-1,3-.38.66-1.17,1.48-3,2,1.27.33,2.28.7,3,1,.84.35,1.37.57,2,1,.99.68,1.63,1.46,2,2-.9-.32-2.09-.58-3,0-.45.29-.55.6-1,1-.52.47-1.41.96-3,1,.73.13,2.45.55,4,2,1.18,1.11,1.74,2.32,2,3-.16-.15-1.34-1.23-3-1-1.06.15-1.75.76-2,1,0,.47.09,1.76,1,3,1.08,1.47,2.58,1.9,3,2-.37.32-1.05.8-2,1-2.08.45-3.73-.79-4-1,.04.3.21,1.21,1,2,.21.21.9.84,2,1-.99.32-1.99.66-3,1-1.4.48-2.78.96-4.14,1.45"/>
      <path class="cls-7" d="M121.19,47.13c3.8-7.9,3.44-9.78,6-15,1.27-2.59,5.21-10.62,13-16,6.71-4.64,13.2-5.18,23-6,10.55-.88,18.84-1.58,28,3,9.69,4.84,14.6,12.7,16,15,3.96,6.51,2.13,7.78,6,17,5.13,12.23,9.75,13.35,15,27,1.51,3.92,2.92,8.49,2,14-.59,3.53-1.95,6.26-3,8-.11-1.09-.38-2.48-1-4-.31-.76-.66-1.43-1-2,.04,2.56-.27,7.23-3,12-5.81,10.16-17.46,11.81-19,12,.66-.84,1.35-1.83,2-3,.39-.7.72-1.37,1-2-2.33,1.46-5.71,3.34-10,5-8.71,3.36-15.75,3.67-25,4-11.83.42-19.59.69-29-3-4.84-1.9-8.54-4.23-11-6,.16.81.45,1.86,1,3,.64,1.33,1.39,2.32,2,3-2.78-.73-6.27-1.93-10-4-4.68-2.59-9.69-5.37-12-11-1.49-3.63-1.28-7.05-1-9-.36.72-.77,1.74-1,3-.3,1.67-.17,3.08,0,4-1.37-1.62-3.24-4.32-4-8-.38-1.86-.75-4.73,2-13,2.94-8.84,6.13-15.28,7-17,3.1-6.11,3.49-5.78,6-11Z"/>
      <path class="cls-6" d="M179.19,99.13c-.7.11-1.76.2-3,0-2.32-.37-2.88-1.36-5-2-.35-.1-3.06-.88-6,0-2.12.64-2.68,1.63-5,2-1.24.2-2.3.11-3,0,1.05.8,2.56,2.1,4,4,1.69,2.22,1.67,3.14,3,4,2.04,1.32,4.99,1.05,7,0,1.36-.71,1.67-1.46,4-4,1.65-1.8,3.08-3.16,4-4Z"/>
      <path class="cls-5" d="M148.19,89.13c-.79.44-3.16,1.62-6,1-3.35-.74-5.08-3.51-6-5-1.7-2.74-1.98-5.47-2-7-.59.89-1.38,2.24-2,4-.75,2.12-2.5,7.09,0,12,2.06,4.03,6.36,6.78,11,7,4.75.23,8.1-2.28,9-3"/>
      <path class="cls-5" d="M188.19,89.13c1.2.18,2.94.32,5,0,2.11-.32,4.96-.76,7-3,2.76-3.03,2.12-7.28,2-8,.72.66,3.62,3.45,4,8,.4,4.69-2.16,7.95-3,9-2.74,3.39-7.88,6.37-13,5-2.42-.65-4.09-2.07-5-3"/>
      <path class="cls-7" d="M148.19,88.13c-.06.41-.78,5.65,3,9,3.66,3.24,8.6,2.1,9,2,2.15-.53,2.32-1.43,5-2,2.72-.58,5.01-.18,6,0,3.18.58,3.41,1.57,6,2,.6.1,4.2.7,7-1,3.14-1.9,4.63-6.29,4-11"/>
      <path class="cls-7" d="M46.19,113.13c-1.68,2.11-3.97,4.59-7,7-2.12,1.69-4.18,2.99-6,4,.33.33.67.67,1,1,1.84-.79,3.87-1.77,6-3,2.31-1.33,4.3-2.7,6-4v-5Z"/>
      <ellipse class="cls-8" cx="168.69" cy="78.63" rx="15.5" ry="11.5"/>
      <path class="cls-1" d="M34.19,125.13c-1.01-2.02-3.7-2.68-5-3-.6-.15-2.56-.57-5,0-1.53.36-2.22.86-7,4-3.55,2.33-4.49,2.92-6,3-1.69.09-3.1-.51-4-1,.11.25.65,1.42,2,2,1.46.63,2.77.1,3,0-.74.61-2.09,1.56-4,2-3.43.8-6.21-.57-7-1,.55,1.05,1.48,2.55,3,4,.63.6,3.44,3.17,8,4,1.28.23,6.48,1.18,11-2,1.46-1.03,2.42-2.19,3-3,.1.07,1,.77,1,2,0,.12-.02,1.26-1,2,1-.54,2.51-1.47,4-3,.53-.54,5.9-6.19,4-10Z"/>
      <ellipse class="cls-9" cx="161.69" cy="79.13" rx="3.5" ry="5"/>
      <ellipse class="cls-9" cx="175.69" cy="79.13" rx="3.5" ry="5"/>
      <path class="cls-10" d="M76.19,154.13c.67-.91,1.34-1.91,2-3,1.29-2.13,2.26-4.17,3-6,5.21.68,11.27,1.12,18,1,7.6-.14,14.33-.96,20-2-.74,2-1.45,4.34-2,7-.7,3.39-.95,6.45-1,9,.18-.54.48-1.25,1-2,.68-.99,1.46-1.62,2-2-.33,1-.67,2-1,3s-.67,2-1,3c-5.92.13-13.46-.24-22-2-7.59-1.57-13.98-3.83-19-6Z"/>
      <path class="cls-10" d="M143.19,162.13c-.07-1.13-.13-2.87,0-5,.25-3.92.67-10.67,5-16,1.21-1.49,2.69-2.82,4-4,.47-.42,2.16-1.93,5-4,2.56-1.87,5.04-3.46,6-4,5.95-3.37,15.46-1.74,19-1-2.33,5.97-4.92,10.66-7,14-2.94,4.73-5.87,9.35-11,13-2.25,1.6-4.64,2.82-5,3-3.91,1.97-7.14,2.79-8,3-2.02.49-4.74.96-8,1Z"/>
      <path class="cls-3" d="M76.19,93.13c.91-3.13,3.51-4.71,4-5,2.4-1.41,3.49-.49,10-1,4.68-.36,5.76-.96,7,0,1.81,1.41,2.31,4.86,1,7-.89,1.47-2.29,1.76-11,3-7.88,1.12-10.04,1.35-11,0-.83-1.17-.32-2.92,0-4Z"/>
      <path class="cls-3" d="M60.19,94.13c-.93.95-2.31.17-3,1-.75.9-.26,3.14,1,4,2.37,1.63,8.01-1.23,8-4,0-1.46-1.59-2.68-2-3-.26-.2-2.06-1.59-3-1-.83.52-.04,2.02-1,3Z"/>
      <path class="cls-3" d="M66.19,87.13c-1.89-1.31-1.82-5.44,0-8,2.03-2.86,5.69-2.96,7-3,1.38-.04,2.97-.08,4,1,1.44,1.52.91,4.33,0,6-1.53,2.81-4.74,3.51-7,4-1.86.41-3.04.66-4,0Z"/>
      <path class="cls-3" d="M82.19,72.13c-.13-1.5,1.33-2.67,3-4,2.44-1.94,4.86-2.7,6-3,3.03-.79,5.35-1.4,7,0,1.65,1.4,2.15,4.37,1,6-1.05,1.49-2.62.66-7,2-3.96,1.21-4.95,2.59-7,2-1.4-.4-2.88-1.59-3-3Z"/>
      <path class="cls-3" d="M77.19,72.13c-.96-.43-1.27-3.13,0-4,.56-.38,1.45-.43,2,0,.82.64.63,2.13,0,3-.45.63-1.38,1.27-2,1Z"/>
      <path class="cls-3" d="M90.19,77.13c-.86.42-1.32,1.82-1,3,.41,1.49,1.93,1.98,2,2,1.57.48,3.54-.44,4-2,.34-1.14-.14-2.59-1-3-.42-.2-.61,0-2,0s-1.58-.21-2,0Z"/>
      <path class="cls-3" d="M103.19,64.13c-.51-.51.16-2.09,1-3,.33-.35,1.17-1.26,2-1,.73.23,1.12,1.24,1,2-.28,1.71-3.32,2.69-4,2Z"/>
      <path class="cls-3" d="M100.19,100.13c2.4-1.54,3.61-2.3,4-2,.49.37.12,1.61,0,2-.37,1.21-1.5,3.12-3,3-1.07-.09-2.14-1.19-2-2,.07-.39.39-.61,1-1Z"/>
      <circle class="cls-5" cx="147.34" cy="55.92" r="12.65"/>
      <circle class="cls-5" cx="190.04" cy="55.92" r="12.65"/>
      <circle class="cls-12" cx="147.72" cy="55.64" r="9.74"/>
      <circle class="cls-12" cx="190" cy="55.64" r="9.74"/>
      <circle cx="147" cy="55.75" r="5.91"/>
      <circle cx="190.38" cy="55.75" r="5.91"/>
      <circle class="cls-11" cx="153.3" cy="49.89" r="3.99"/>
      <circle class="cls-11" cx="195.06" cy="49.89" r="3.99"/>
    </g>
  </g>
</svg>