<?xml version="1.0" encoding="UTF-8"?>
<svg id="Layer_2" data-name="Layer 2" xmlns="http://www.w3.org/2000/svg" viewBox="0 0 198.75 247.06">
  <defs>
    <style>
      .cls-1 {
        fill: #ffdfb8;
      }

      .cls-1, .cls-2, .cls-3, .cls-4, .cls-5, .cls-6 {
        stroke: #000;
        stroke-miterlimit: 10;
      }

      .cls-2 {
        fill: none;
      }

      .cls-7, .cls-3 {
        fill: #fff;
      }

      .cls-5 {
        fill: #2a1c0e;
      }

      .cls-8, .cls-6 {
        fill: #dd7e27;
      }

      .cls-9 {
        fill: #333;
      }
    </style>
  </defs>
  <g id="Layer_1-2" data-name="Layer 1">
    <g>
      <path class="cls-6" d="M83.96,160.55c-23.62-.86-33.48-7.39-37-10-3.74-2.77-10.78-8.14-13-17-1.44-5.76.08-9.25,2-20,3.21-18.05.75-18.55,3-26,6.04-20,27.8-29.64,31-31,18.86-8.04,35.8-3.48,41-2,5.98,1.71,19.9,5.68,30,19,10.77,14.21,10.24,29.89,10,37-.27,7.87-.92,27.19-15,40-12.58,11.44-28.39,10.86-52,10Z"/>
      <path class="cls-6" d="M171.96,168.55c1.15-.86,2.63-2.15,4-4,3.25-4.39,2.78-8.48,5-9,1.4-.33,2.85.97,4,2,2.02,1.81,2.74,4,3,5,.71-2.03,1.38-3.03,2-3,1.16.05,2.16,3.72,3,11,1.86-1.43,2.75-1.12,3-1,1.42.66,1.16,3.89,1,6-.16,2.09-.61,3.81-1,5,1.25-.41,1.76-.24,2,0,1.19,1.19-1.41,7.07-6,10-2.32,1.48-4.64,1.87-6,2"/>
      <path class="cls-6" d="M50.96,68.55c-2.34-4.78-5.08-8.03-7-10-10.24-10.5-23.33-11.55-29-12-5.12-.41-7.73-.58-10,1-6.96,4.85-3.93,19.5-3,24,1.41,6.84,3.51,16.97,13,24,9.39,6.95,19.88,6.31,23,6"/>
      <path class="cls-6" d="M138.96,76.55c1.28-1.89,3.22-4.42,6-7,8.49-7.86,18.06-9.85,24-11,9.33-1.81,21.24-4.12,26,2,2.37,3.04,1.9,6.8,1,14-1.1,8.8-2.14,17.14-9,25-1.3,1.49-9.43,10.5-23,12-5.52.61-10.1-.23-13-1"/>
      <path class="cls-5" d="M69.96,56.55c-.94-1.85-2.01-4.62-2-8,.02-3.96,1.52-5.14,2-10,.12-1.24.87-8.79-2-10-1.99-.84-4.76,1.77-5,2-4.72,4.55-2.26,13.15-2,14-4.36-.43-7.37-1.98-9-3-1.74-1.09-7.3-4.57-7-9,.16-2.27,1.78-3.83,3-5,5.25-5.05,11.37-3.19,13-7,.78-1.84.22-4.27-1-5-.96-.58-2.26-.03-8,3-5.22,2.76-6.38,3.49-7,3-1.33-1.06,1.35-6.64,2-8,2.92-6.08,5.74-7.71,5-10-.64-2-3.61-3.31-6-3-3.7.49-5.71,4.84-8,10-2.73,6.14-5.36,12.08-4,20,.38,2.24,1.47,8.09,6,13,4.59,4.97,8.65,4.58,14,10,3.21,3.25,5,6.69,6,9"/>
      <path class="cls-5" d="M124.12,59.95c1.28-1.78,2.86-4.52,3.39-8.06.62-4.16-.76-5.63-.48-10.8.07-1.32.51-9.35,3.71-10.16,2.22-.56,4.71,2.63,4.92,2.9,4.21,5.53.24,14.15-.16,15,4.64.25,8.04-.89,9.92-1.69,2-.86,8.39-3.61,8.79-8.3.2-2.4-1.25-4.3-2.34-5.73-4.69-6.14-11.41-5.18-12.5-9.44-.52-2.05.46-4.51,1.86-5.08,1.1-.45,2.37.33,7.9,4.44,5.02,3.73,6.13,4.69,6.85,4.27,1.57-.89-.34-7.17-.8-8.71-2.08-6.84-4.77-9.01-3.63-11.29.99-1.99,4.32-2.89,6.77-2.18,3.8,1.11,5.2,6,6.77,11.77,1.87,6.88,3.67,13.52.96,21.61-.76,2.28-2.84,8.24-8.39,12.66-5.35,4.26-9.46,3.34-16.29,8.22-3.54,2.53-5.95,5.27-7.41,7.16"/>
      <path class="cls-6" d="M67.96,158.55c-1.88,5.22-3.15,9.68-4,13-2.26,8.8-2.19,12-2,14,.33,3.48,1.27,6.24,2,8-1.94.38-4.87,1.18-8,3-2.42,1.41-8.11,4.71-10,11-1.36,4.53-.04,8.26,2,14,1.89,5.33,3.86,10.89,9,13,.9.37,4.54,1.87,8,0,2.72-1.47,3.72-4.16,4-5,.03,2.36.45,7.44,4,12,1.49,1.92,3.7,4.74,7,5,4.6.36,8.19-4.53,10-7,2.54-3.46,3.55-6.9,4-9,2.21.69,5.73,1.45,10,1,1.88-.2,6.44-.74,11-4,2.43-1.73,4.03-3.65,5-5,1.07.27,2.44.81,3,2,1.08,2.28-2.03,4.39-2,8,.03,3.34,2.75,6.82,6,8,3.81,1.39,7.56-.66,10-2,4.42-2.42,4.41-4.57,8-6,3.53-1.41,5.65-.17,10,0,0,0,8.9.34,17-5,7.73-5.1,10.4-13.16,12-18,1.28-3.87,4.18-12.64,1-23-3.02-9.82-9.73-15.32-13-18-3.1-2.54-7.87-6.45-15-8-7.84-1.7-18.21-.49-26,2-2.28.73-6.29,2.19-11,1-2.68-.68-4.7-1.98-6-3-7.34.35-15.38.41-24,0-7.89-.37-15.25-1.09-22-2Z"/>
      <path d="M122.54,224.28c3.16-4.96,7.89-8.84,13.29-11.04l-.15.49c-3.12-4.83-4.53-10.77-3.69-16.44.8-5.66,3.76-10.92,7.97-14.74-2.07,1.95-3.79,4.25-5.11,6.75-4.15,7.62-3.39,17.38,1.6,24.39-5.39,2.23-10.06,6.16-13.08,11.12,0,0-.85-.53-.85-.53h0Z"/>
      <path d="M119.55,222.26c3.31-4.42,4.23-10.47,2.41-15.71,2.18,5.24,1.56,11.52-1.59,16.29,0,0-.82-.57-.82-.57h0Z"/>
      <path class="cls-1" d="M94.96,160.55c-1.31,2.52-2.95,6.25-4,11-.84,3.82-2.43,11.05,0,19,2.08,6.8,6.39,10.1,5,12-1.17,1.6-4.21-.64-8,1-5.09,2.2-4.51,8.22-8,9-4.19.93-9.27-6.84-12-11-2.41-3.69-5.15-7.87-6-14-.67-4.85.21-8.57,2-16,1.32-5.5,2.85-9.95,4-13,3.72.86,8.09,1.61,13,2,5.26.41,9.98.32,14,0Z"/>
      <g>
        <path class="cls-8" d="M68.96,229.55c-.14-2.51-.05-6.99,2-12,.65-1.59,2.34-5.6,6-9,7.2-6.68,16.82-6.17,19-6"/>
        <path d="M68.46,229.57c-.46-16.24,10.91-28.54,27.5-27.03-16.34-1.1-27.29,11-26.5,26.97,0,0-1,.05-1,.05h0Z"/>
      </g>
      <path class="cls-1" d="M37.96,95.55c.85-.84,1.7-1.67,2.55-2.51l4.45-2.49s4.86-1.76,11,0c8.32,2.38,15.88,15.8,18,34,1.23-.5,3.77-1.33,7-1,2.81.29,4.89,1.33,6,2,.72-3.24,2.11-7.93,5-13,3.12-5.48,10.44-18.33,23-19,10.05-.54,17.14,7.05,18,8,9.74,10.75,5.21,25.36,5,26,.36-.24,2.88-1.89,6-1,2.43.7,3.68,2.5,4,3-1.05,4.63-3.35,11.72-9,18-12.93,14.39-33.57,13.65-52,13-15.72-.56-32.32-1.15-44-13-2.58-2.61-9.98-10.13-10-20,0-4.35,1.43-6.62,3-14,1.62-7.6,1.96-13.94,2-18Z"/>
      <ellipse class="cls-4" cx="78.46" cy="131.05" rx="7.5" ry="4.5"/>
      <path class="cls-2" d="M68.96,136.55c.97,1.9,2.93,3.07,5,3,2.31-.08,4.35-1.7,5-4-.27,2.47,1.53,4.73,4,5s4.73-1.53,5-4"/>
      <path class="cls-1" d="M39.96,83.55c-.61-1.98-1.56-4.77-3-8-1.84-4.13-3.58-8.02-7-12-3.51-4.08-7.08-6.26-10-8-4.94-2.95-13.13-7.85-17-5-1.32.97-2.09,2.81-2,9,.12,8.26-.12,15.06,4,23,1.66,3.2,5.47,10.32,14,15,7.07,3.88,13.79,4.1,17,4"/>
      <path d="M37.96,96.05c-12.42-.17-24.35-7.44-30-18.5,5.84,10.74,17.82,17.68,30,17.5,0,0,0,1,0,1h0Z"/>
      <path class="cls-1" d="M146.96,89.55c.38.8,1.04,1.88,2,2,2.31.29,4.3-5.16,8-11,1.64-3.14,4.42-7.35,9-11,12.14-9.68,26.95-7.51,30-7,.52,4.36.82,11.1-1,19-1.25,5.42-2.72,11.8-8,18-6.83,8-15.46,10.35-18,11-8.02,2.06-14.74.83-18,0"/>
      <path d="M151.09,104.06c11.34,3.57,24.01-.83,31.87-9.52-7.74,9.05-20.48,13.78-32.13,10.48,0,0,.27-.96.27-.96h0Z"/>
      <circle class="cls-3" cx="55.04" cy="113.55" r="12.49"/>
      <circle class="cls-3" cx="109.2" cy="119.55" r="12.49"/>
      <circle class="cls-9" cx="55.41" cy="113.28" r="9.62"/>
      <circle class="cls-9" cx="109.15" cy="119.28" r="9.62"/>
      <circle cx="54.7" cy="113.39" r="5.83"/>
      <circle cx="109.53" cy="119.39" r="5.83"/>
      <circle class="cls-7" cx="60.92" cy="107.6" r="3.94"/>
      <circle class="cls-7" cx="114.16" cy="113.6" r="3.94"/>
    </g>
  </g>
</svg>