<?xml version="1.0" encoding="UTF-8"?>
<svg id="Layer_2" data-name="Layer 2" xmlns="http://www.w3.org/2000/svg" viewBox="0 0 108.01 181.83">
  <defs>
    <style>
      .cls-1 {
        fill: none;
      }

      .cls-1, .cls-2, .cls-3, .cls-4, .cls-5, .cls-6, .cls-7 {
        stroke: #000;
        stroke-miterlimit: 10;
      }

      .cls-8, .cls-2 {
        fill: #fff;
      }

      .cls-3 {
        fill: #faa51a;
      }

      .cls-4 {
        fill: #ffd697;
      }

      .cls-5 {
        fill: #4f3e16;
      }

      .cls-6 {
        fill: #dd8326;
      }

      .cls-9 {
        fill: #333;
      }

      .cls-7 {
        fill: #6b4f1f;
      }
    </style>
  </defs>
  <g id="Layer_1-2" data-name="Layer 1">
    <g>
      <path class="cls-7" d="M33.59,90.05c-1.54.05-4.38-.07-7.52-1.5-2.55-1.16-4.28-2.72-5.27-3.76-2.52,1.67-5.77,1.25-7.52-.75-1.38-1.58-1.67-3.95-.75-6.02-.89-.49-2.21-1.41-3.01-3.01-1.44-2.89-.56-6.81,2.26-9.78-.48-2.74-.89-6.98,0-12.04.96-5.47,3.03-9.58,4.51-12.04-1.31-.53-4.35-1.96-6.77-5.27-2.5-3.41-2.92-6.88-3.01-8.28-.43-.64-1.62-2.57-1.5-5.27.1-2.25,1.05-3.85,1.5-4.51-1.88-1.47-2.78-3.58-2.26-5.27.69-2.23,3.61-2.94,5.27-3.01,3.79-.16,5.64,2.86,10.53,6.02,2.28,1.47,5.71,3.29,10.53,4.51,4.23-1.97,9.81-4.04,16.55-5.27,11.78-2.13,21.69-.68,27.84.75,3.46-1.94,6.17-4.05,8.28-6.02,5.2-4.85,6.61-8.69,10.53-9.03,1.7-.14,4.39.32,5.27,2.26.69,1.53.08,3.63-1.5,5.27.59.29,2.15,1.17,3.01,3.01,1.56,3.32-.63,6.6-.75,6.77.39,1.04.72,2.31.75,3.76.15,5.8-4.37,9.77-5.27,10.53.54,1.06,1.33,2.62,2.26,4.51,4.12,8.44,4.87,11.03,5.27,12.79.28,1.22.61,3.02.75,5.27,3.89,4.14,4.95,9.13,3.01,12.04-.4.6-1.24,1.58-3.01,2.26,1.44,1.5,2.07,3.55,1.5,5.27-.83,2.5-4.15,4.16-7.52,3.01-.11.79-.51,2.87-2.26,4.51-2.09,1.97-5.29,2.53-8.28,1.5"/>
      <path class="cls-7" d="M13.28,84.03c-.97,1.01-2.34,2.53-3.76,4.51-3.01,4.19-6.55,10.83-8.28,26.33-1.67,15.01-.23,25.62,1.5,38.37,1.53,11.23,3.35,18.03,9.03,22.57,1.96,1.57,3.89,2.48,5.27,3.01.83.7,2.35,1.77,4.51,2.26,4.15.93,7.49-1.01,8.28-1.5,1.07-.09,2.65-.28,4.51-.75,9.54-2.42,14.13-9.11,19.56-14.29,10.58-10.1,14.1-4.68,26.33-15.05,9.65-8.18,14.35-17.4,16.55-21.82,3.8-7.64,7.44-14.95,6.77-24.83-.69-10.2-5.6-17.6-8.28-21.07"/>
      <path class="cls-4" d="M55.41,43.41c-.49-1.85-1.64-5.19-4.51-8.28-.68-.73-6.29-6.59-13.54-6.02-6.7.53-10.72,6.22-14.29,11.28-6.65,9.43-11.49,24.37-6.02,29.34,1.02.93,2.19,1.32,3.01,1.5-.93,1.37-.93,3.18,0,4.51.99,1.42,2.83,2.04,4.51,1.5.12.56.71,2.95,3.01,4.51,3.04,2.07,6.43.88,6.77.75.07.61.38,2.82,2.26,4.51,2.79,2.51,6.49,1.58,6.77,1.5,6.03,17.29,6.18,32.08-.75,36.86-.98.68-2.21,1.22-3.76,1.5-.11.91-2,15.27-12.04,18.81-1.33.47-3.08.84-5.27.75-.66,1.53-1.79,3.54-3.76,5.27-2.37,2.08-4.6,2.56-4.51,3.01.09.49,2.85.64,14.29-.75.22.21,1.97,1.83,4.51,1.5,2.31-.3,3.56-1.97,3.76-2.26.12.19,1.36,2.11,3.76,2.26,2.17.13,3.57-1.3,3.76-1.5.79.35,2.43.94,4.51.75,2.78-.24,4.63-1.7,5.27-2.26.25.33,1.52,1.96,3.76,2.26,3.12.41,5.17-2.13,5.27-2.26.61.79,1.58,1.78,3.01,2.26.88.29,3.45.89,9.03-3.01,5-3.5,7.94-7.5,9.03-9.03,2.11-2.98,6.47-9.24,9.03-18.81,1-3.72,3.02-11.61,1.5-21.82-1.27-8.57-4.49-15.01-6.77-18.81.34-.16,1.59-.79,2.26-2.26.82-1.82.12-3.49,0-3.76.14,0,2.6-.16,3.76-2.26.91-1.65.62-3.79-.75-5.27,1.49.2,2.96-.37,3.76-1.5,1.07-1.51.82-3.8-.75-5.27,1.17-.3,2.71-.9,3.76-2.26,3.06-3.92-.31-10.98-2.26-15.05-3.37-7.04-7.99-11.14-9.03-12.04-4.34-3.75-9.65-8.34-16.55-7.52-6.28.74-10.25,5.52-11.28,6.77-3.45,4.15-4.27,8.59-4.51,10.53Z"/>
      <path class="cls-6" d="M55.41,154c-.58.8-1.88,2.58-1.5,4.51.95,4.87,12.03,8.48,18.06,4.51.59-.39,3.16-2.08,3.76-5.27.05-.28.64-3.68-1.5-6.02-2.06-2.24-5.24-2-8.73-1.74-3.26.24-7.57.57-10.08,4Z"/>
      <ellipse class="cls-6" cx="35.47" cy="54.32" rx="16.32" ry="13.67" transform="translate(-22.5 83.42) rotate(-83.51)"/>
      <ellipse class="cls-6" cx="76.77" cy="49.63" rx="13.67" ry="16.32" transform="translate(-11.17 24.66) rotate(-17.03)"/>
      <path class="cls-6" d="M61.43,159.26c.17,3.88,2.1,6.67,3.76,6.77,1.8.11,4.41-2.84,4.51-7.52"/>
      <path class="cls-1" d="M45.63,87.79c.63.31,2.32,1.05,4.51.75,2.49-.33,4.04-1.78,4.51-2.26.15.14,2.32,2.19,5.27,1.5,2.51-.59,3.61-2.71,3.76-3.01.35.39,1.94,2.08,4.51,2.26,3.67.25,5.9-2.83,6.02-3.01.27.27,1.67,1.57,3.76,1.5,1.89-.06,3.62-1.23,4.51-3.01"/>
      <path class="cls-1" d="M47.89,109.61c.72.11,2.6.29,4.51-.75,3.33-1.81,3.73-5.67,3.76-6.02.4,3.15,2.65,5.6,5.27,6.02,3.41.55,7.24-2.38,7.52-6.77.54,3.27,3.1,5.73,6.02,6.02,3.58.36,7.19-2.59,7.52-6.77.61,3.92,3.86,6.39,6.77,6.02,2.97-.38,4.43-3.57,4.51-3.76"/>
      <path class="cls-1" d="M14.03,171.3c0,.96.12,4.84,3.01,7.52,3.79,3.52,9.57,2.38,12.79.75,4.81-2.42,6.42-7.16,6.77-8.28"/>
      <path class="cls-6" d="M27.57,154c-1.25,1.59-1.64,4.13-.75,6.02,2.56,5.45,16.27,6.61,21.07.75,1.21-1.48,2.42-4.1,1.5-6.02-1.15-2.42-5.09-2.55-10.9-2.75-5.97-.2-9.14-.26-10.91,2Z"/>
      <path class="cls-6" d="M32.84,159.26c-.04,3.83,2.38,6.63,4.51,6.77,2.4.16,5.62-2.95,5.27-7.52"/>
      <path class="cls-3" d="M55.41,62.21c-.16,1.73,1.04,3.5,3.01,4.51.2-.22,2.39-2.72,1.5-5.27-.3-.87-1.15-2.28-2.26-2.26-1.2.02-2.14,1.7-2.26,3.01Z"/>
      <path class="cls-1" d="M14.78,24.6c.69,1.1,1.66,2.43,3.01,3.76,1.9,1.88,3.84,3.05,5.27,3.76-.99.49-2.91,1.59-4.51,3.76-1.56,2.1-2.07,4.18-2.26,5.27"/>
      <path class="cls-1" d="M95.28,32.12c-.61-1.04-1.56-2.41-3.01-3.76-1.66-1.55-3.33-2.47-4.51-3.01.75-1.23,1.51-2.48,2.26-3.76,1.04-1.78,2.05-3.53,3.01-5.27"/>
      <path class="cls-1" d="M8.76,112.62c1.25.64,2.31.76,3.01.75,3.05-.02,5.96-2.41,7.52-6.02.95.02,2.32-.1,3.76-.75,3.99-1.8,5.1-6.1,5.27-6.77"/>
      <path class="cls-1" d="M6.51,134.44c1.12.53,2.72,1.04,4.51.75,3.65-.58,6.72-4.18,7.52-9.03,1.04.1,2.74.09,4.51-.75,4.62-2.19,5.23-7.88,5.27-8.28.69.12,2.66.37,4.51-.75,2.33-1.41,3.55-4.4,3.01-7.52"/>
      <path class="cls-5" d="M59.17,115.63c-.76,1.25-4.71,7.87-3.01,9.78.11.12.75.84,1.5.75.8-.09,1.28-1.05,1.5-1.5,1.31-2.62.32-7.58,0-9.03Z"/>
      <path class="cls-5" d="M71.39,123.28c-.76,1.25-4.71,7.87-3.01,9.78.11.12.75.84,1.5.75.8-.09,1.28-1.05,1.5-1.5,1.31-2.62.32-7.58,0-9.03Z"/>
      <path class="cls-5" d="M60.1,136.07c-.76,1.25-4.71,7.87-3.01,9.78.11.12.75.84,1.5.75.8-.09,1.28-1.05,1.5-1.5,1.31-2.62.32-7.58,0-9.03Z"/>
      <path class="cls-5" d="M75.64,136.97c-.87,1.17-5.43,7.4-3.91,9.46.09.13.67.91,1.43.89.81-.02,1.37-.93,1.64-1.36,1.55-2.49,1.02-7.52.84-8.99Z"/>
      <path class="cls-5" d="M83.43,115.76c-.76,1.25-4.71,7.87-3.01,9.78.11.12.75.84,1.5.75.8-.09,1.28-1.05,1.5-1.5,1.31-2.62.32-7.58,0-9.03Z"/>
      <path class="cls-5" d="M44.88,138.2c-.81,2.62-2.01,4.24-3.01,5.27-1.11,1.14-2.22,1.79-2.26,3.01-.03,1.02.7,2.18,1.5,2.26.96.09,1.77-1.37,2.26-2.26.78-1.42,1.87-4.08,1.5-8.28Z"/>
      <path class="cls-1" d="M3.5,157.76c1.7-.44,3.46-.94,5.27-1.5,1.57-.49,3.07-.99,4.51-1.5"/>
      <circle class="cls-2" cx="36.47" cy="54.76" r="11.26"/>
      <circle class="cls-9" cx="36.8" cy="54.52" r="8.67"/>
      <circle cx="36.17" cy="54.61" r="5.26"/>
      <circle class="cls-8" cx="41.77" cy="49.4" r="3.55"/>
      <circle class="cls-2" cx="75.92" cy="50.32" r="11.26"/>
      <circle class="cls-9" cx="76.25" cy="50.07" r="8.67"/>
      <circle cx="75.61" cy="50.17" r="5.26"/>
      <circle class="cls-8" cx="81.22" cy="44.95" r="3.55"/>
    </g>
  </g>
</svg>