<?xml version="1.0" encoding="UTF-8"?>
<svg id="Layer_2" data-name="Layer 2" xmlns="http://www.w3.org/2000/svg" viewBox="0 0 196.78 270.77">
  <defs>
    <style>
      .cls-1 {
        fill: none;
      }

      .cls-1, .cls-2, .cls-3, .cls-4, .cls-5 {
        stroke: #000;
        stroke-miterlimit: 10;
      }

      .cls-2 {
        fill: #a7cf38;
      }

      .cls-6, .cls-3 {
        fill: #fff;
      }

      .cls-7, .cls-4 {
        fill: #231f20;
      }

      .cls-8 {
        fill: #333;
      }

      .cls-5 {
        fill: #cadb2a;
      }
    </style>
  </defs>
  <g id="Layer_1-2" data-name="Layer 1">
    <g>
      <path class="cls-4" d="M53.48,24.3c-.45-2.27-2.55-11.41-10.74-16.59-10.42-6.59-23.63-2.3-31.23,3.9-1,.82-12.94,10.91-10.74,26.35,1.56,10.93,9.58,20.09,20.5,23.42"/>
      <path class="cls-4" d="M142.29,26.25c.14-2.72.82-8.45,4.88-13.66,8.49-10.91,23.44-8.93,24.4-8.78,11.94,1.78,20.49,11.48,23.42,21.47,2.7,9.19,1.45,21.38-6.83,29.28-4.96,4.74-10.71,6.27-13.66,6.83"/>
      <path class="cls-3" d="M29.08,47.72c-.83-.56-3.86-2.74-4.88-6.83-.27-1.1-1.18-4.75.98-7.81,2.37-3.37,7.16-4.2,10.74-2.93,2.76.98,4.3,3.04,4.88,3.9"/>
      <path class="cls-3" d="M154.01,35.03c.87-1.08,2.45-2.74,4.88-3.9,1.06-.51,7.03-3.37,11.71,0,4.19,3.02,3.92,8.55,3.9,8.78-.28,4.33-3.35,8.18-7.81,9.76"/>
      <path class="cls-3" d="M77.88,14.53c-23.43,5.16-37.52,19.69-41.97,24.4-3.59,3.8-23.34,25.44-23.42,57.59-.02,8.16-.04,15.9,3.9,24.4,14.41,31.05,63.66,33.38,80.03,34.16,15.02.71,41.01,1.59,64.42-14.64,6.46-4.48,15.34-10.8,20.5-22.45,9.39-21.23-1.01-43.37-5.86-53.68-2.57-5.47-10.69-21.28-28.3-34.16-13-9.5-25.41-13.2-31.23-14.64-6.07-1.5-20.37-4.87-38.06-.98Z"/>
      <path class="cls-4" d="M67.14,108.23c8.18-6.04,10.93-14.16,11.71-16.59,1.58-4.89,3.96-12.28,0-19.52-2.58-4.72-7.65-9.01-13.66-9.76-10.92-1.36-19.07,9.7-23.42,15.62-2.6,3.54-14.08,19.12-7.81,29.28,2.97,4.81,8.59,6.27,10.74,6.83,10.73,2.79,19.85-3.94,22.45-5.86Z"/>
      <path class="cls-4" d="M121.59,107.41c-8.18-6.04-10.93-14.16-11.71-16.59-1.58-4.89-3.96-12.28,0-19.52,2.58-4.72,7.65-9.01,13.66-9.76,10.92-1.36,19.07,9.7,23.42,15.62,2.6,3.54,14.08,19.12,7.81,29.28-2.97,4.81-8.59,6.27-10.74,6.83-10.73,2.79-19.85-3.94-22.45-5.86Z"/>
      <path class="cls-4" d="M36.88,141.42c-2.04,1.72-4.86,4.3-7.81,7.81-4.21,5-11.22,13.32-12.69,25.38-.43,3.57-.67,9.84,1.95,17.57-1.38,2.22-2.87,5.16-3.9,8.78-2.43,8.47-1.02,15.8,0,19.52-.96,2.71-2.17,7.16-1.95,12.69.11,2.85.88,12.9,8.78,21.47,9.52,10.32,22.17,10.71,24.4,10.74,1.54,1.13,5.77,3.93,11.71,3.9,9.23-.03,14.85-6.85,15.62-7.81,4.92,1.08,11.22,2,18.54,1.95,8.71-.05,16.04-1.46,21.47-2.93,1.19,1.73,4.89,6.63,11.71,8.78,9.98,3.16,18.36-2.16,19.52-2.93,2.85-.27,7.04-.97,11.71-2.93,2.88-1.21,17.23-7.63,22.45-23.42,2.66-8.06,1.86-15.28.98-19.52.57-4.18.92-9.91,0-16.59-.82-6.01-2.42-10.97-3.9-14.64,1.11-2.42,2.48-6.1,2.93-10.74.83-8.47-1.9-14.93-3.9-19.52-3.89-8.92-9.57-14.96-13.66-18.54-5.78,3.65-14.69,8.48-26.35,11.71-14.54,4.03-25.98,3.56-40.99,2.93-11.32-.47-23.23-1.06-38.06-5.86-7.81-2.53-14.09-5.46-18.54-7.81Z"/>
      <path class="cls-3" d="M30.05,207.79c2.39-17,16.47-26.99,22.45-31.23,16.02-11.37,32.82-11.59,41.97-11.71,9.3-.12,33.92-.45,53.68,17.57,7.07,6.45,16.51,14.55,17.57,26.35,2.27,25.37-35.09,51.9-68.94,54.49-6.79.52-25.03,1.65-42-10-2.44-1.67-28.3-20-24.73-45.46Z"/>
      <path class="cls-4" d="M80.81,101.4c.45-3.06,6.42-4.59,9.76-4.88,4.22-.37,10.9.63,11.71,3.9.8,3.25-4.31,8.29-9.76,8.78-6,.55-12.21-4.45-11.71-7.81Z"/>
      <path class="cls-1" d="M81.78,110.18c.42,2.69,2.53,4.69,4.88,4.88,2.91.23,5.83-2.35,5.86-5.86-.15,2.8,1.59,5.24,3.9,5.86,2.85.76,6.26-1.34,6.83-4.88"/>
      <path class="cls-5" d="M31.03,209.74c25.7-28.63,51.4-57.26,77.11-85.89,3.1-1.13,6.56-.36,8.78,1.95,3.09,3.22,2.01,7.57,1.95,7.81-26.68,27.65-53.36,55.31-80.03,82.96-2.6-2.28-5.21-4.55-7.81-6.83Z"/>
      <path class="cls-1" d="M108.13,123.85c-.89,3.33.29,6.83,2.93,8.78,3.46,2.57,7.54,1.08,7.81.98"/>
      <path class="cls-2" d="M90.57,142.39c1.43.89,3.15,2.15,4.88,3.9,2.43,2.47,3.95,4.98,4.88,6.83-.65.65-1.3,1.3-1.95,1.95-1.21-1.75-2.81-3.78-4.88-5.86-1.51-1.51-3.45-3.22-5.86-4.88-.08-.8.3-1.57.98-1.95.94-.54,1.9-.03,1.95,0Z"/>
      <g>
        <path class="cls-7" d="M18.34,192.17c.77,1.56,2.5,4.51,5.86,6.83,1.48,1.02,6,4.14,11.71,2.93,4.24-.9,6.83-3.7,7.81-4.88,3.58-4.23,7.16-8.46,10.74-12.69,1.57.15,3.96.43,6.83.98,5.74,1.09,8.22,2.27,9.76.98.63-.53,1.41-1.73.98-4.88.16.04,2.42.51,3.9-.98,1.39-1.4,1.51-3.95,0-5.86.57.03,2.12.04,2.93-.98.65-.81.62-2.04,0-3.9-2.93-8.76-8.78-12.69-8.78-12.69-7.22-4.78-15.17-3.58-19.52-2.93-12.2,1.83-20.21,9.28-23.42,12.69"/>
        <path d="M18.79,191.95c3.26,6.75,11.68,11.93,19.1,8.94,3.76-1.39,6.05-4.77,8.6-7.7,0,0,7.71-9.05,7.71-9.05l.12-.14.18.02c3.69.36,7.35,1.03,10.93,1.89,4.62,1.24,7.01,1.15,6.34-4.44,0,0-.05-.37-.05-.37,1.69.45,3.81.05,4.64-1.64.87-1.68.32-3.75-.92-5.11,0,0,.51.03.51.03,4.11.22,3.41-3.1,2.27-5.82-1.66-4.3-4.31-8.3-7.94-11.17-.12-.1-.3-.18-.35-.34-6.53-4.17-14.94-4.06-22.72-2.17-7.69,1.84-14.63,6.23-20.07,11.93,5.4-5.74,12.33-10.18,20.03-12.08,7.56-1.78,16.47-2.46,23.07,2.32.03-.03,0-.09,0-.08l.07.05.15.11c2.95,2.29,5.25,5.34,6.95,8.65,1.52,3.11,4.5,9.27-1.49,9.07,0,0,.2-.38.2-.38,1.16,1.44,1.53,3.54.68,5.23-.85,1.76-3.01,2.39-4.83,2.01,0,0,.32-.3.32-.3.75,5.94-1.94,6.5-7,5.11-3.59-.84-7.2-1.48-10.86-1.81l.29-.12-7.64,9.1c-3.92,4.98-7.89,9.49-14.88,8.92-6.09-.59-11.59-4.78-14.3-10.2,0,0,.9-.44.9-.44h0Z"/>
      </g>
      <path class="cls-4" d="M175.48,189.24c-1.26,2.4-3.89,6.59-8.78,9.76-6.68,4.32-13.49,4.1-17.57,3.9-11.99-.57-26.9-7.04-33.18-20.5-2.2-4.71-2.77-9.04-2.93-11.71-2.23,1.28-4.82.66-5.86-.98-1.07-1.69-.06-3.79,0-3.9-.51-.32-1.31-.93-1.95-1.95-1.04-1.64-1.02-3.28-.98-3.9-.98-.14-2.71-.55-3.9-1.95-2.51-2.95-.44-7.75,0-8.78,2.24-5.21,7.39-7.25,8.78-7.81,6.51-2.58,12.46-.46,13.66,0,9.95,3.75,12.49,14.71,12.69,15.62,1.74-.32,4.12-.52,6.83,0,7.48,1.44,11.64,7.22,12.69,8.78"/>
      <path class="cls-4" d="M145.22,214.62c1.01-1.1,2.61-2.62,4.88-3.9,5.19-2.94,12.21-3.73,18.54-.98,5.91,2.57,9.28,7.49,10.74,10.74,4.66,10.41-.66,25.38-13.6,36.78"/>
      <path class="cls-4" d="M14.44,220.47c.95-2.26,2.09-3.86,2.93-4.88,3.79-4.62,8.7-6.21,10.74-6.83.93-.29,2.63-.8,4.88-.98.49-.04,7.49-.51,12.69,2.93,5.79,3.83,8.6,12.02,7.11,20.54"/>
      <path class="cls-3" d="M45.67,265.37c-3.92-2.35-6.26-5.03-7.81-6.83-2.28-2.66-7.32-8.54-8.78-17.57-.53-3.27-2.26-14,4.88-22.45,1.44-1.71,6.06-6.65,13.66-7.81,9.06-1.38,15.84,3.61,17.57,4.88,10.02,7.37,11.18,19.66,11.71,25.38.54,5.79,1.29,13.71-3.9,20.5-1.58,2.06-5.85,6.83-12.69,7.81-6.54.94-11.66-2.12-14.64-3.9Z"/>
      <path class="cls-3" d="M113.01,260.49c-1.62-2.42-2.26-4.55-2.93-6.83-2.62-8.97-1.32-16.71-.98-18.54,1.19-6.42,2.83-15.25,10.74-20.5,8.11-5.39,17.19-3.27,18.54-2.93,12.15,3.04,16.8,14.57,17.57,16.59,3.59,9.47.63,17.88-.98,22.45-1.7,4.82-3.98,11.32-10.74,15.62-1.1.7-8.91,5.5-18.54,2.93-1.94-.52-8.51-2.54-12.69-8.78Z"/>
      <path class="cls-4" d="M33.96,230.23c-.92,1.76-.04,3.79.98,4.88,1.52,1.63,4.47,2.34,5.86.98,1.29-1.27.58-3.72,0-4.88-.18-.36-1.52-3.06-3.9-2.93-1.27.07-2.39.92-2.93,1.95Z"/>
      <path class="cls-4" d="M40.15,223.71c-1.01,2.09.1,4.44,1.33,5.67,1.84,1.85,5.33,2.57,6.9.92,1.46-1.53.54-4.37-.19-5.71-.23-.42-1.9-3.52-4.69-3.28-1.49.13-2.76,1.17-3.36,2.4Z"/>
      <path class="cls-4" d="M52.04,220.33c-1.55,1.6-1.25,4.06-.5,5.55,1.12,2.23,4.07,3.93,5.98,2.91,1.79-.96,1.8-3.81,1.55-5.24-.08-.45-.67-3.77-3.27-4.38-1.39-.33-2.86.23-3.77,1.17Z"/>
      <path class="cls-4" d="M67.17,238.81c4.12,7.13,2.35,15.86-3.95,19.5-6.3,3.64-14.75.8-18.86-6.33-4.12-7.13-2.35-15.86,3.95-19.5,6.3-3.64,14.75-.8,18.86,6.33Z"/>
      <path class="cls-4" d="M113.99,241.95c2.45-6.85,10.78-11.82,17.57-8.78,6.31,2.82,8.5,11.32,5.86,17.57-2.78,6.56-11,10.95-17.57,7.81-6.01-2.87-7.94-10.76-5.86-16.59Z"/>
      <path class="cls-4" d="M123.75,220.47c-2.03-.07-3.65,2-3.9,3.9-.29,2.21,1.17,4.75,2.93,4.88,1.39.1,2.48-1.35,2.93-1.95.35-.47,2.06-2.76.98-4.88-.52-1.02-1.65-1.91-2.93-1.95Z"/>
      <path class="cls-4" d="M129.61,227.31c-1.04-1.58-1.35-4.02,0-5.86.06-.09,1.53-2.02,3.9-1.95,2.61.07,4.58,2.51,4.88,4.88.2,1.54-.21,3.79-1.95,4.88-2.2,1.38-5.41.21-6.83-1.95Z"/>
      <path class="cls-4" d="M137.41,233.16c-.15-1.3.31-3.2,1.95-3.9,1.4-.6,3-.04,3.9.98,1.22,1.36,1.2,3.54,0,4.88-.9,1.01-2.5,1.59-3.9.98-1.66-.73-1.92-2.64-1.95-2.93Z"/>
      <path d="M71.53,182.48c-.22-3.22-3.08-5.83-6.34-5.93,1.64-.08,3.34.4,4.69,1.44,1.36,1.04,2.3,2.62,2.63,4.34l-.99.14h0Z"/>
      <path d="M75.44,174.72c-.54-2.92-2.55-5.6-5.37-6.95,2.94,1.04,5.4,3.57,6.34,6.71l-.97.24h0Z"/>
      <path d="M106.71,165.61c1.92-3.87,6.01-6.28,10.21-6.62-4.03.65-7.78,3.23-9.31,7.04,0,0-.91-.43-.91-.43h0Z"/>
      <path d="M103.73,160c-.48-6.23,5.44-10.37,11.24-9.8-1.38,0-2.76.18-4.05.62-3.9,1.15-6.78,4.99-6.19,9.1,0,0-1,.07-1,.07h0Z"/>
      <path class="cls-1" d="M113.01,170.7c.63-.36,1.63-.82,2.93-.98,2.36-.29,4.18.59,4.88.98"/>
      <path class="cls-3" d="M84.71,16.49c-.72-.02-3.01-.19-4.88-1.95-.49-.46-2.37-2.23-1.95-3.9.64-2.59,6.21-2.89,6.83-2.93,2.61-.14,4.69.51,5.86.98-.22-.31-1.95-2.84-.98-4.88,1.29-2.7,6.17-2.04,6.83-1.95,3.03.41,5.05,2.15,5.86,2.93-.13-1.37-.08-3.15.98-3.9,1.99-1.43,6.48,1.57,8.78,3.9,4.13,4.18,4.79,9.79,4.88,12.69"/>
      <circle class="cls-3" cx="60.59" cy="85.82" r="14.71"/>
      <circle class="cls-8" cx="61.02" cy="85.5" r="11.32"/>
      <circle cx="60.19" cy="85.62" r="6.86"/>
      <circle class="cls-6" cx="67.51" cy="78.81" r="4.64"/>
      <circle class="cls-3" cx="128.4" cy="86.45" r="14.71"/>
      <circle class="cls-8" cx="128.83" cy="86.12" r="11.32"/>
      <circle cx="128.01" cy="86.25" r="6.86"/>
      <circle class="cls-6" cx="135.32" cy="79.44" r="4.64"/>
    </g>
  </g>
</svg>