<?xml version="1.0" encoding="UTF-8"?>
<svg id="Layer_2" data-name="Layer 2" xmlns="http://www.w3.org/2000/svg" viewBox="0 0 285.08 228.26">
  <defs>
    <style>
      .cls-1, .cls-2, .cls-3, .cls-4, .cls-5, .cls-6, .cls-7, .cls-8, .cls-9, .cls-10 {
        stroke: #000;
        stroke-miterlimit: 10;
      }

      .cls-1, .cls-11 {
        fill: #0072ab;
      }

      .cls-2 {
        fill: none;
      }

      .cls-3 {
        fill: #fdbe4d;
      }

      .cls-4 {
        fill: #639fd5;
      }

      .cls-12, .cls-6 {
        fill: #fff;
      }

      .cls-5 {
        fill: #ffd262;
      }

      .cls-7 {
        fill: #c5db66;
      }

      .cls-8 {
        fill: #44813c;
      }

      .cls-13 {
        fill: #333;
      }

      .cls-9 {
        fill: #204197;
      }

      .cls-10 {
        fill: #fee465;
      }
    </style>
  </defs>
  <g id="Layer_1-2" data-name="Layer 1">
    <g>
      <path class="cls-2" d="M69.57,79.59c7.33,11.67,14.67,23.33,22,35"/>
      <path class="cls-2" d="M48.57,111.59c9.67,6.67,19.33,13.33,29,20"/>
      <path class="cls-8" d="M69.57,167.59c-8.24-2.38-15.13-3.46-20-4-12.94-1.45-20.86-.15-31-5-3.58-1.71-6.27-3.63-8-5,1.33-.33,2.67-.67,4-1-1.86-1.18-3.97-2.8-6-5-5.79-6.26-7.45-13.42-8-17,.93-.12,2.36-.38,4-1,2.89-1.1,4-2.43,7-4,1.11-.58,2.79-1.36,5-2-.38-.54-1.01-1.32-2-2-.75-.52-1.46-.82-2-1,1.89-.81,4.33-1.46,7-1,1.53.27,2.61.81,3,1,5.1,2.55,25.01,12.48,52,26"/>
      <path class="cls-8" d="M74.57,146.59c-10.27-6.36-19-10.45-25-13-13.48-5.72-23.65-8.06-31-18-2.06-2.78-3.3-5.36-4-7h3c-2.25-3.24-2.88-6-3-8-.23-3.83,1.19-8.12-1-10-.48-.41-.98-.57-1-1-.07-1.2,3.71-2.34,6-3,3.68-1.05,9.28-2.51,17-4-1.33-.67-2.67-1.33-4-2,1.19-.19,2.94-.34,5,0,3.17.52,5.48,1.94,7,3,16.29,11.43,30,30,30,30,2.9,3.93,6.74,9.34,11,16"/>
      <path class="cls-8" d="M84.57,130.59c-3.29-3.45-7.77-8.23-13-14-12.5-13.79-10.55-12.58-20-23-10.05-11.09-13.55-13.9-16-21-1.79-5.18-2.06-9.84-2-13,1,.67,2,1.33,3,2,.05-1.61.24-4.09,1-7,.69-2.66,1.35-3.77,2-6,.58-2.01,1.19-5.01,1-9,1.67-.05,4.09-.08,7,0,3.94.11,7.52.21,12,1,1.98.35,4.74.94,8,2-.67-1-1.33-2-2-3,1.01.07,2.46.28,4,1,2.31,1.08,3.85,2.82,7,8,2.92,4.8,4.25,7.28,5,9,3.11,7.15,13.32,39.97,26,85"/>
      <path class="cls-5" d="M88.27,108.49c.5-2.07,1.03-5.23.7-9.04-.37-4.31-.71-8.24-3.88-10.85-2.65-2.18-6.74-3-10.43-1.54-.38.15-5.25,2.18-6.4,7.5-.69,3.18.15,6.58,2.22,8.9,1.66,1.86,3.58,2.43,7.37,3.48,2.42.67,5.97,1.43,10.43,1.54Z"/>
      <path class="cls-4" d="M88.27,108.49c-.28-1.88-.69-4.4-1.25-7.37-.94-5.04-1.33-6.14-2.36-7.09-1.6-1.49-4.33-2.23-6.81-1.26-2.05.81-3.86,2.77-4.04,5.14-.18,2.5,1.54,4.29,2.5,5.28.4.42,1.44,1.43,4.86,2.92,1.68.73,4.07,1.65,7.09,2.37Z"/>
      <path class="cls-9" d="M84.94,104.59c.11-1.03.11-2.47-.41-4.03-.38-1.12-.77-2.31-1.94-3.06-.14-.09-2.14-1.33-3.61-.28-1.03.73-1.25,2.18-.98,3.2.35,1.3,1.52,1.94,3.06,2.78.89.49,2.2,1.07,3.89,1.39Z"/>
      <path class="cls-8" d="M107.57,142.59c-17.18-56.46-24.74-77.18-28-83-.29-.52-1.58-2.77-3-6-.9-2.05-3.51-8.27-5-17-.39-2.3-.81-5.36-1-9,.45.87,1.09,1.92,2,3,.69.82,1.38,1.48,2,2,.25-1.72.77-4.22,2-7,1.67-3.79,3.42-5.31,5-8,1.45-2.46,2.96-6.27,3-12,1.98.03,4.77.23,8,1,8.12,1.94,13.47,6.16,17,9,3.01,2.42,7.14,6.29,11,12,.33-2,.67-4,1-6,.78,1.17,1.85,2.87,3,5,2.08,3.86,3.52,7.47,4,9,2.52,8.05-2.67,18.45-4,21-.33,30.33-.67,60.67-1,91"/>
      <path class="cls-8" d="M122.57,142.59c.5-10.03.82-18.06,1-23,1.03-27.62.92-41.07,2-62,.86-16.77,1.28-14.92,1-18-.24-2.57-1.23-11.47,1-16,.04-.09.15-.29,2-4,.07-.15,1.93-3.85,2-4,.25.11,1.42.65,2,2,.63,1.46.1,2.77,0,3,.99-1.25,2.63-3.13,5-5,4.1-3.25,6.74-3.6,10-6,2.06-1.52,4.79-4.16,7-9,1.74.43,4.31,1.27,7,3,5.53,3.56,7.97,8.55,11,15,1.95,4.15,4.37,10.22,6,18,.52-.33,1.34-.96,2-2,1.06-1.68,1.04-3.37,1-4,.82,1.65,1.74,4.04,2,7,.31,3.6-.5,6.46-1,8-3.62,11.2-21.36,48.65-22,50-5.01,10.59-8.94,20.58-15,36-2.11,5.37-3.82,9.86-5,13"/>
      <path class="cls-8" d="M141.57,144.59c8.82-23.06,14.73-38.65,19-50,5.41-14.38,14.38-27.34,19-42,.75-2.36,2.79-9.2,9-14,2.94-2.28,5.93-3.4,8-4-.67,1.33-1.33,2.67-2,4,1.19-.25,2.91-.6,5-1,6.11-1.17,9.16-1.76,12-2,3.05-.26,7.47-.27,13,1-.03.61-.07,1.68,0,3,.32,5.97,2.37,8.55,3,14,.15,1.3.29,3.37,0,6,1-.67,2-1.33,3-2,.17,1.38.32,3.49,0,6,0,0-.78,6.08-5,12-4.46,6.27-30.76,34.94-68,73"/>
      <path class="cls-8" d="M156.57,148.59c10.48-12.08,18.74-21.79,24-28,2.45-2.89,15-15.97,40-42,1.49-1.55,5.09-5.3,11-8,4.74-2.17,9.11-2.8,12-3-1,1.33-2,2.67-3,4,3.52-.25,8.39-.23,14,1,6.64,1.45,11.71,4,15,6-.55.82-1.37,2.19-2,4-1.46,4.21-.58,6.99-1,11-.22,2.12-.89,5.26-3,9,1.33-.33,2.67-.67,4-1-.46,1.77-1.32,4.31-3,7,0,0-2.87,4.58-8,8-6.22,4.15-41.33,21.93-90,45"/>
      <path class="cls-8" d="M165.57,160.59c9.96-6.97,18.62-12.28,25-16,28.75-16.75,36.96-16.1,56-26,1.92-1,6.54-3.45,13-4,4.8-.41,8.73.39,11,1-1.67,1-3.33,2-5,3,1.17.29,3,.85,5,2,3.51,2.01,4.3,3.95,7,5,1.4.55,3.64.98,7,0,.04,2.3-.18,5.04-1,8-2.87,10.41-11.01,16.12-14,18,1,.33,2,.67,3,1-2.09,1.72-5.44,4.14-10,6-7.76,3.16-13.7,2.54-23,3-1.66.08-8.78,1.06-23,3-17.98,2.46-23.8,3.55-31,6-4.3,1.47-7.74,2.96-10,4"/>
      <path class="cls-5" d="M41.57,145.59c-.78-2.51-2.23-6.18-5-10-3.13-4.32-5.99-8.26-11-9-4.19-.62-9.03,1.11-12,5-.31.4-4.17,5.64-2,12,1.29,3.8,4.34,6.86,8,8,2.94.91,5.33.29,10-1,2.99-.82,7.22-2.28,12-5Z"/>
      <path class="cls-4" d="M41.57,145.59c-1.49-1.8-3.52-4.21-6-7-4.2-4.73-5.31-5.64-7-6-2.63-.56-6,.39-8,3-1.65,2.15-2.33,5.38-1,8,1.4,2.75,4.36,3.56,6,4,.69.19,2.43.59,7,0,2.24-.29,5.35-.84,9-2Z"/>
      <path class="cls-9" d="M35.57,143.59c-.54-1.17-1.45-2.68-3-4-1.11-.95-2.28-1.95-4-2-.21,0-3.11-.05-4,2-.62,1.43.07,3.1,1,4,1.2,1.15,2.85,1.09,5,1,1.26-.05,3-.27,5-1Z"/>
      <path class="cls-5" d="M48.62,111.78c.03-2.38-.2-5.93-1.51-9.98-1.49-4.59-2.84-8.76-6.94-10.79-3.42-1.7-8.06-1.56-11.7.95-.37.26-5.15,3.68-5.06,9.75.05,3.62,1.82,7.1,4.64,9.1,2.27,1.6,4.5,1.73,8.87,1.93,2.79.12,6.83.05,11.7-.95Z"/>
      <path class="cls-4" d="M48.62,111.78c-.78-1.97-1.85-4.6-3.2-7.68-2.29-5.23-2.99-6.32-4.34-7.1-2.11-1.21-5.26-1.34-7.71.35-2.02,1.39-3.5,3.97-3.09,6.59.43,2.75,2.75,4.27,4.04,5.11.54.35,1.92,1.19,6.01,1.95,2,.37,4.83.76,8.29.79Z"/>
      <path class="cls-9" d="M44.02,108.39c-.14-1.15-.5-2.7-1.46-4.27-.69-1.12-1.42-2.31-2.88-2.83-.18-.06-2.65-.91-3.99.6-.93,1.05-.81,2.68-.26,3.71.71,1.32,2.14,1.73,4.01,2.25,1.09.31,2.65.61,4.57.53Z"/>
      <path class="cls-5" d="M70.05,79.44c.73-2.63,1.54-6.63,1.29-11.51-.29-5.52-.55-10.55-4.49-14.02-3.29-2.9-8.47-4.12-13.25-2.41-.49.18-6.8,2.55-8.5,9.3-1.02,4.03-.09,8.41,2.45,11.46,2.04,2.45,4.47,3.25,9.25,4.76,3.06.97,7.56,2.08,13.25,2.41Z"/>
      <path class="cls-4" d="M70.05,79.44c-.28-2.41-.69-5.64-1.27-9.46-.98-6.47-1.43-7.9-2.7-9.16-1.98-1.97-5.43-3.04-8.64-1.9-2.65.94-5.05,3.36-5.38,6.39-.34,3.18,1.78,5.54,2.96,6.86.49.55,1.78,1.88,6.08,3.94,2.11,1.01,5.12,2.28,8.95,3.33Z"/>
      <path class="cls-9" d="M65.96,74.33c.19-1.31.25-3.14-.35-5.17-.43-1.45-.89-2.98-2.35-3.99-.18-.12-2.67-1.8-4.6-.52-1.34.89-1.69,2.73-1.38,4.04.39,1.68,1.86,2.55,3.78,3.69,1.12.66,2.76,1.46,4.91,1.95Z"/>
      <path class="cls-5" d="M150.04,56.07c2.9-1.36,7.08-3.71,11.22-7.67,4.69-4.49,8.96-8.57,9.02-14.73.06-5.14-2.83-10.69-8-13.62-.53-.3-7.47-4.09-14.78-.43-4.36,2.18-7.55,6.36-8.31,10.95-.62,3.69.53,6.47,2.85,11.87,1.48,3.46,3.94,8.31,8,13.62Z"/>
      <path class="cls-4" d="M150.04,56.07c1.93-2.09,4.49-4.94,7.44-8.38,5-5.83,5.92-7.32,6.07-9.42.23-3.26-1.46-7.16-4.93-9.14-2.86-1.63-6.86-1.92-9.8.11-3.09,2.13-3.56,5.83-3.83,7.88-.11.86-.31,3.03,1.15,8.43.72,2.65,1.9,6.3,3.89,10.51Z"/>
      <path class="cls-5" d="M102.57,56.69c1.93-2.42,4.56-6.26,6.46-11.48,2.15-5.91,4.11-11.29,1.52-16.68-2.16-4.5-7.05-8.08-12.8-8.41-.59-.03-8.25-.35-13.03,5.97-2.85,3.77-3.83,8.77-2.53,13.09,1.05,3.47,3.24,5.4,7.58,9.1,2.78,2.37,6.99,5.54,12.8,8.41Z"/>
      <path class="cls-4" d="M102.57,56.69c.78-2.65,1.78-6.22,2.87-10.48,1.84-7.22,2-8.91,1.24-10.79-1.2-2.94-4.34-5.6-8.21-5.83-3.19-.19-6.79,1.28-8.47,4.3-1.77,3.18-.6,6.6.06,8.5.27.8,1.03,2.76,4.62,6.83,1.76,1.99,4.35,4.66,7.89,7.47Z"/>
      <path class="cls-9" d="M151.46,48.52c1.31-.84,2.99-2.19,4.32-4.27.96-1.5,1.97-3.07,1.75-5.15-.03-.26-.45-3.75-3.07-4.49-1.82-.51-3.72.59-4.65,1.86-1.19,1.63-.84,3.6-.38,6.18.27,1.51.82,3.57,2.03,5.86Z"/>
      <path class="cls-9" d="M100.57,49.51c.78-1.29,1.66-3.18,1.92-5.57.19-1.71.39-3.52-.69-5.22-.13-.21-2-3.07-4.59-2.58-1.8.34-2.98,2.11-3.24,3.62-.34,1.93.82,3.49,2.32,5.54.88,1.19,2.24,2.75,4.28,4.22Z"/>
      <path class="cls-5" d="M192.81,78.18c2.85-.09,7.12-.53,11.91-2.31,5.43-2.02,10.38-3.85,12.62-8.87,1.87-4.2,1.47-9.76-1.73-14-.33-.44-4.68-6-11.96-5.59-4.34.24-8.44,2.54-10.7,6.03-1.81,2.81-1.86,5.49-1.87,10.74,0,3.36.28,8.21,1.73,14Z"/>
      <path class="cls-4" d="M192.81,78.18c2.32-1.03,5.43-2.46,9.07-4.23,6.16-3.01,7.45-3.9,8.31-5.57,1.35-2.59,1.34-6.38-.8-9.24-1.77-2.35-4.94-4-8.07-3.38-3.29.66-4.99,3.52-5.93,5.1-.4.67-1.33,2.37-2.04,7.32-.35,2.42-.68,5.83-.53,9.99Z"/>
      <path class="cls-9" d="M196.65,72.49c1.37-.22,3.22-.73,5.06-1.97,1.32-.89,2.7-1.82,3.26-3.6.07-.22.96-3.23-.92-4.76-1.31-1.07-3.26-.84-4.47-.12-1.55.91-1.97,2.66-2.5,4.93-.31,1.33-.59,3.21-.41,5.52Z"/>
      <path class="cls-5" d="M223.96,107.08c2.77.93,7.02,2.01,12.25,2,5.93-.01,11.33-.02,15.25-4.05,3.28-3.37,4.87-8.85,3.3-14.05-.16-.54-2.37-7.41-9.5-9.6-4.26-1.3-9-.55-12.4,2-2.73,2.05-3.73,4.61-5.6,9.65-1.2,3.22-2.64,7.98-3.3,14.05Z"/>
      <path class="cls-4" d="M223.96,107.08c2.6-.17,6.08-.44,10.2-.85,6.98-.7,8.53-1.11,9.95-2.4,2.21-2.01,3.55-5.65,2.5-9.15-.87-2.89-3.33-5.59-6.55-6.1-3.39-.53-6.03,1.61-7.5,2.8-.62.5-2.11,1.8-4.55,6.3-1.19,2.2-2.71,5.36-4.05,9.4Z"/>
      <path class="cls-9" d="M229.66,102.98c1.4.27,3.35.44,5.55-.1,1.58-.39,3.24-.79,4.4-2.3.14-.19,2.07-2.76.8-4.9-.88-1.49-2.83-1.96-4.25-1.7-1.82.33-2.83,1.85-4.15,3.85-.77,1.16-1.71,2.87-2.35,5.15Z"/>
      <path class="cls-5" d="M237.77,142.25c2.33,1.76,6.01,4.13,10.97,5.79,5.62,1.87,10.73,3.58,15.73,1.01,4.18-2.14,7.42-6.83,7.59-12.26.02-.56.12-7.77-5.95-12.11-3.62-2.59-8.35-3.38-12.38-2.05-3.24,1.07-4.99,3.18-8.37,7.36-2.16,2.67-5.03,6.72-7.59,12.26Z"/>
      <path class="cls-4" d="M237.77,142.25c2.51.66,5.9,1.52,9.93,2.44,6.84,1.55,8.43,1.66,10.19.89,2.73-1.2,5.16-4.22,5.28-7.87.1-3.01-1.38-6.35-4.26-7.86-3.04-1.58-6.22-.39-7.99.27-.74.28-2.58,1.04-6.31,4.52-1.83,1.71-4.28,4.21-6.82,7.62Z"/>
      <path class="cls-9" d="M244.47,140.18c1.24.7,3.04,1.48,5.29,1.67,1.62.14,3.32.28,4.9-.78.19-.13,2.84-1.96,2.32-4.39-.36-1.69-2.06-2.75-3.48-2.96-1.82-.27-3.27.86-5.15,2.33-1.1.86-2.53,2.18-3.86,4.13Z"/>
      <path class="cls-5" d="M72.84,156.81c-.63-2.03-1.8-5-4.04-8.08-2.53-3.49-4.84-6.67-8.89-7.27-3.38-.5-7.29.9-9.69,4.04-.25.32-3.37,4.55-1.62,9.69,1.04,3.07,3.51,5.54,6.46,6.46,2.37.74,4.31.23,8.08-.81,2.41-.67,5.83-1.84,9.69-4.04Z"/>
      <path class="cls-4" d="M72.84,156.81c-1.21-1.46-2.85-3.4-4.85-5.65-3.39-3.82-4.29-4.56-5.65-4.85-2.13-.45-4.85.31-6.46,2.42-1.33,1.74-1.88,4.35-.81,6.46,1.13,2.23,3.52,2.87,4.85,3.23.56.15,1.96.48,5.65,0,1.81-.23,4.32-.68,7.27-1.62Z"/>
      <path class="cls-9" d="M67.99,155.2c-.43-.94-1.17-2.16-2.42-3.23-.9-.77-1.85-1.57-3.23-1.62-.17,0-2.51-.04-3.23,1.62-.5,1.15.05,2.5.81,3.23.97.93,2.3.88,4.04.81,1.02-.04,2.42-.22,4.04-.81Z"/>
      <path class="cls-5" d="M71.95,127.76c-.1-1.91-.46-4.75-1.72-7.93-1.43-3.6-2.73-6.88-6.12-8.31-2.83-1.19-6.55-.84-9.34,1.36-.29.23-3.94,3.22-3.56,8.08.23,2.9,1.82,5.61,4.19,7.06,1.9,1.17,3.7,1.16,7.21,1.09,2.25-.04,5.49-.31,9.34-1.36Z"/>
      <path class="cls-4" d="M71.95,127.76c-.73-1.54-1.72-3.59-2.96-6-2.1-4.08-2.72-4.92-3.84-5.48-1.75-.86-4.29-.8-6.17.67-1.55,1.22-2.6,3.37-2.14,5.45.49,2.19,2.42,3.28,3.5,3.89.45.26,1.6.85,4.92,1.26,1.63.2,3.91.37,6.69.21Z"/>
      <path class="cls-9" d="M68.08,125.27c-.17-.92-.54-2.14-1.39-3.35-.61-.87-1.26-1.78-2.45-2.13-.15-.04-2.18-.6-3.17.69-.69.89-.51,2.19-.02,2.99.63,1.03,1.81,1.28,3.34,1.6.89.19,2.16.35,3.7.2Z"/>
      <path class="cls-6" d="M237.57,142.59c-13.33,4.33-26.67,8.67-40,13"/>
      <path class="cls-2" d="M149.57,55.59c-2.67,16.33-5.33,32.67-8,49"/>
      <path class="cls-5" d="M141.95,95.93c2.41-1.07,5.89-2.92,9.36-6.11,3.94-3.61,7.52-6.89,7.69-11.96.14-4.23-2.14-8.84-6.34-11.35-.43-.26-6.08-3.5-12.15-.62-3.62,1.72-6.32,5.1-7.04,8.86-.57,3.02.32,5.33,2.13,9.82,1.16,2.87,3.09,6.91,6.34,11.35Z"/>
      <path class="cls-4" d="M141.95,95.93c1.62-1.69,3.78-3.98,6.27-6.76,4.22-4.71,5-5.92,5.16-7.64.25-2.68-1.07-5.92-3.89-7.61-2.33-1.39-5.61-1.7-8.06-.08-2.58,1.7-3.04,4.73-3.29,6.42-.11.71-.31,2.48.8,6.95.54,2.19,1.45,5.21,3.01,8.71Z"/>
      <path class="cls-2" d="M192.57,78.59c-8.33,11.67-16.67,23.33-25,35"/>
      <path class="cls-9" d="M143.26,89.74c1.1-.67,2.5-1.75,3.63-3.44.82-1.21,1.67-2.49,1.53-4.2-.02-.21-.3-3.09-2.44-3.75-1.49-.45-3.07.42-3.86,1.45-1.01,1.32-.76,2.95-.42,5.08.19,1.24.61,2.95,1.56,4.85Z"/>
      <path class="cls-5" d="M171.26,108.7c2.42-.12,6.04-.56,10.08-2.14,4.58-1.79,8.76-3.42,10.58-7.72,1.52-3.59,1.1-8.31-1.67-11.86-.29-.37-4.06-5.03-10.24-4.57-3.69.27-7.13,2.28-8.99,5.28-1.5,2.41-1.5,4.69-1.43,9.15.04,2.86.36,6.97,1.67,11.86Z"/>
      <path class="cls-4" d="M171.26,108.7c1.96-.91,4.57-2.16,7.64-3.73,5.19-2.64,6.27-3.42,6.98-4.85,1.11-2.22,1.05-5.44-.82-7.83-1.54-1.97-4.26-3.33-6.9-2.75-2.78.6-4.18,3.06-4.96,4.42-.33.57-1.09,2.03-1.63,6.24-.26,2.06-.49,4.96-.31,8.49Z"/>
      <path class="cls-6" d="M223.57,106.59c-11.67,8.33-23.33,16.67-35,25"/>
      <path class="cls-9" d="M174.43,103.81c1.16-.21,2.73-.67,4.26-1.75,1.1-.77,2.27-1.59,2.71-3.1.05-.19.77-2.76-.85-4.03-1.13-.89-2.78-.66-3.8-.04-1.31.8-1.63,2.29-2.05,4.23-.25,1.13-.46,2.74-.27,4.69Z"/>
      <path class="cls-5" d="M194.35,128.24c2.27.69,5.74,1.48,9.98,1.37,4.81-.13,9.19-.25,12.29-3.6,2.59-2.8,3.76-7.28,2.38-11.47-.14-.43-2.07-5.97-7.91-7.59-3.48-.97-7.32-.26-10.02,1.88-2.17,1.72-2.93,3.82-4.34,7.95-.91,2.64-1.97,6.53-2.38,11.47Z"/>
      <path class="cls-4" d="M194.35,128.24c2.1-.19,4.92-.48,8.26-.9,5.65-.72,6.9-1.08,8.02-2.16,1.75-1.68,2.76-4.66,1.84-7.48-.76-2.32-2.82-4.47-5.44-4.81-2.76-.36-4.86,1.43-6.03,2.43-.49.42-1.68,1.51-3.56,5.21-.92,1.81-2.09,4.41-3.09,7.71Z"/>
      <path class="cls-9" d="M198.89,124.79c1.14.19,2.73.28,4.5-.2,1.27-.35,2.61-.71,3.52-1.96.11-.15,1.62-2.29.55-3.99-.75-1.19-2.34-1.53-3.48-1.29-1.47.3-2.26,1.56-3.29,3.21-.6.96-1.33,2.37-1.8,4.23Z"/>
      <path class="cls-5" d="M202.87,152.86c1.84,1.49,4.76,3.52,8.74,5,4.51,1.67,8.61,3.2,12.74,1.25,3.45-1.63,6.21-5.34,6.49-9.74.03-.45.31-6.31-4.5-9.99-2.86-2.2-6.68-2.97-9.99-2-2.66.78-4.14,2.45-6.99,5.74-1.83,2.11-4.27,5.32-6.49,9.74Z"/>
      <path class="cls-4" d="M202.87,152.86c2.02.61,4.74,1.39,7.99,2.25,5.51,1.45,6.8,1.58,8.24,1,2.25-.9,4.3-3.29,4.5-6.24.16-2.44-.94-5.19-3.25-6.49-2.42-1.37-5.04-.49-6.49,0-.61.2-2.12.77-5.25,3.5-1.53,1.34-3.58,3.3-5.75,5.99Z"/>
      <path class="cls-9" d="M208.37,151.36c.98.61,2.42,1.28,4.25,1.5,1.31.15,2.69.32,4-.5.16-.1,2.36-1.51,2-3.5-.25-1.38-1.6-2.29-2.75-2.5-1.47-.27-2.68.61-4.25,1.75-.92.67-2.11,1.7-3.25,3.25Z"/>
      <path class="cls-5" d="M87.95,139.48c-.15-1.08-.49-2.69-1.36-4.44-.99-1.99-1.89-3.8-3.89-4.45-1.67-.54-3.78-.17-5.26,1.22-.15.14-2.1,2.02-1.65,4.78.27,1.65,1.31,3.11,2.73,3.83,1.14.58,2.17.49,4.17.28,1.28-.13,3.12-.44,5.26-1.22Z"/>
      <path class="cls-4" d="M87.95,139.48c-.49-.84-1.15-1.97-1.98-3.28-1.39-2.23-1.79-2.68-2.46-2.94-1.04-.41-2.49-.25-3.49.68-.83.77-1.32,2.05-.96,3.21.38,1.23,1.54,1.76,2.18,2.05.27.12.96.41,2.87.48.94.04,2.25.02,3.83-.2Z"/>
      <path class="cls-7" d="M114.57,129.59c.67.67,1.33,1.33,2,2,.68-.59,2.39-2.26,3-5,.38-1.71.19-3.15,0-4,.68.26,1.89.82,3,2,1.6,1.72,1.08,3.77,2,4,1.21.3,2.9-2.81,3-3,.62-1.15.88-2.23,1-3,.68.39,2.03,1.3,3,3,.68,1.18.91,2.29,1,3,.89-.22,2.45-.74,4-2,1.78-1.45,2.63-3.13,3-4,.9.39,1.99,1,3,2,3.37,3.32,3.08,8.07,3,9,.55-.79,1.5-1.96,3-3,2.08-1.44,4.05-1.82,5-2,2.04-.38,3.79-.22,5,0-.4.67-1.46,2.63-1,5,.58,3.02,3.38,5.47,7,6-1.77,1.35-2.09,1.83-2,2,.2.35,2.11-.99,5-1,1.5,0,2.74.35,5,1,1.26.36,2.29.73,3,1-.5.32-1.33.95-2,2-.29.45-1.22,2.04-1,4,.38,3.37,3.84,4.93,4,5-1.33.67-2.67,1.33-4,2,.22.66.54,1.34,1,2,2.43,3.51,6.95,3.93,8,4-1.03.35-2.46.95-4,2-1.24.84-1.86,1.28-2,2-.32,1.64,2.05,3.33,3,4,.68.48,1.33.82,1.92,1.05,1.99.8,3.04.71,3.08.95.16.92-16.13,4.32-31,8-11.36,2.81-11.08,3.11-13,3-14.66-.84-29.97-18.11-30-36-.01-7.41,2.8-13.36,5-17Z"/>
      <path class="cls-2" d="M85.63,138.25c-.14-.51-.41-1.2-.95-1.85-.39-.47-.8-.96-1.5-1.1-.09-.02-1.27-.24-1.78.54-.35.54-.19,1.28.13,1.71.41.56,1.09.64,1.98.75.52.07,1.25.1,2.12-.07Z"/>
      <path class="cls-5" d="M98.26,125.83c.28-1.06.59-2.67.47-4.62-.14-2.22-.26-4.23-1.85-5.61-1.33-1.15-3.42-1.62-5.33-.92-.2.07-2.72,1.05-3.38,3.76-.39,1.62,0,3.38,1.02,4.59.83.98,1.81,1.29,3.73,1.88,1.23.38,3.04.81,5.33.92Z"/>
      <path class="cls-4" d="M98.26,125.83c-.12-.97-.3-2.26-.54-3.79-.42-2.59-.6-3.16-1.12-3.67-.8-.78-2.19-1.2-3.48-.73-1.06.39-2.02,1.37-2.13,2.58-.12,1.28.74,2.22,1.21,2.74.2.22.72.75,2.46,1.56.85.4,2.06.9,3.6,1.3Z"/>
      <path class="cls-2" d="M96.6,123.8c.07-.53.09-1.26-.16-2.07-.18-.58-.37-1.19-.96-1.59-.07-.05-1.08-.71-1.85-.19-.54.36-.67,1.1-.54,1.63.16.67.76,1.02,1.53,1.47.45.26,1.11.57,1.98.76Z"/>
      <path class="cls-5" d="M139.36,122.77c1.34-.78,3.27-2.1,5.1-4.2,2.08-2.38,3.97-4.54,3.73-7.52-.2-2.49-1.83-5.05-4.46-6.25-.27-.12-3.8-1.66-7.17.43-2.02,1.24-3.38,3.41-3.55,5.66-.14,1.81.54,3.11,1.89,5.63.87,1.61,2.27,3.85,4.46,6.25Z"/>
      <path class="cls-4" d="M139.36,122.77c.84-1.1,1.96-2.58,3.24-4.38,2.17-3.04,2.55-3.8,2.53-4.82-.03-1.59-1.02-3.4-2.78-4.21-1.46-.67-3.41-.63-4.74.48-1.4,1.17-1.47,2.98-1.51,3.98-.02.42-.02,1.48.92,4.03.46,1.25,1.19,2.97,2.34,4.92Z"/>
      <path class="cls-9" d="M139.72,119.05c.6-.46,1.35-1.19,1.91-2.26.4-.77.82-1.57.62-2.57-.02-.12-.38-1.8-1.68-2.04-.9-.17-1.78.45-2.17,1.1-.51.84-.25,1.78.08,3.01.2.72.55,1.69,1.24,2.75Z"/>
      <path class="cls-5" d="M159.17,128.04c1.41-.13,3.51-.49,5.82-1.52,2.63-1.17,5.02-2.24,5.96-4.8.79-2.14.42-4.88-1.3-6.88-.18-.21-2.51-2.82-6.1-2.39-2.14.26-4.1,1.53-5.1,3.33-.81,1.45-.74,2.78-.58,5.38.1,1.66.4,4.06,1.3,6.88Z"/>
      <path class="cls-4" d="M159.17,128.04c1.12-.59,2.61-1.39,4.35-2.38,2.96-1.69,3.56-2.17,3.94-3.02.59-1.33.46-3.2-.69-4.55-.95-1.11-2.58-1.82-4.1-1.42-1.61.43-2.36,1.9-2.77,2.72-.17.34-.58,1.22-.78,3.69-.1,1.21-.15,2.91.05,4.96Z"/>
      <path class="cls-9" d="M160.89,125.1c.67-.15,1.57-.47,2.44-1.14.62-.48,1.28-.99,1.5-1.89.03-.11.37-1.63-.61-2.33-.68-.49-1.64-.31-2.22.08-.74.5-.89,1.38-1.08,2.52-.11.67-.19,1.61-.03,2.75Z"/>
      <path class="cls-5" d="M175.6,142.52c1.37.35,3.47.72,6,.53,2.87-.22,5.48-.42,7.23-2.51,1.47-1.75,2.04-4.46,1.09-6.91-.1-.25-1.41-3.5-4.94-4.3-2.11-.48-4.37.06-5.93,1.41-1.25,1.09-1.64,2.36-2.36,4.87-.46,1.6-.99,3.95-1.09,6.91Z"/>
      <path class="cls-4" d="M175.6,142.52c1.25-.18,2.93-.43,4.9-.78,3.35-.59,4.09-.84,4.73-1.52,1-1.05,1.51-2.86.88-4.52-.52-1.36-1.81-2.59-3.39-2.72-1.66-.14-2.86.99-3.53,1.62-.28.26-.96.95-1.97,3.21-.5,1.11-1.12,2.69-1.62,4.69Z"/>
      <path class="cls-9" d="M178.21,140.33c.69.08,1.64.09,2.68-.25.75-.24,1.54-.5,2.05-1.27.06-.1.9-1.41.21-2.4-.48-.69-1.44-.84-2.12-.67-.87.22-1.3,1-1.87,2.01-.33.59-.72,1.45-.95,2.58Z"/>
      <path class="cls-5" d="M182.2,161.93c1.13.75,2.91,1.74,5.25,2.35,2.66.7,5.08,1.34,7.32,0,1.87-1.12,3.23-3.39,3.15-5.91,0-.26-.18-3.61-3.12-5.43-1.75-1.09-3.97-1.32-5.8-.58-1.47.59-2.22,1.62-3.66,3.66-.92,1.3-2.13,3.26-3.15,5.91Z"/>
      <path class="cls-4" d="M182.2,161.93c1.18.23,2.78.53,4.67.83,3.21.51,3.96.52,4.75.11,1.23-.64,2.26-2.11,2.21-3.8-.04-1.4-.83-2.9-2.21-3.51-1.45-.64-2.9,0-3.7.36-.34.15-1.16.56-2.79,2.28-.8.85-1.85,2.08-2.93,3.73Z"/>
      <path class="cls-9" d="M185.24,160.77c.59.29,1.45.59,2.5.62.75.02,1.55.03,2.25-.51.09-.07,1.26-.99.94-2.1-.22-.77-1.04-1.21-1.7-1.27-.85-.07-1.49.5-2.32,1.23-.48.43-1.11,1.09-1.67,2.03Z"/>
      <path class="cls-10" d="M108.57,197.59c.98,2.37,1.6,4.44,2,6,.61,2.38,1,3.91,1,6,0,1.78-.33,3.21-1,6-.42,1.74-1.05,4.15-2,7,.8.43,3.2,1.8,3,3-.2,1.21-2.99,2.02-7,2-4.64-.1-8.41-.05-11,0-5.05.11-7.27.3-8-1-.77-1.36.43-3.77,2-5,1.72-1.35,3.77-1.2,6-1,1.96.18,5.26.77,9,3,1.11-2.18,2.9-6.41,3-12,.11-6.15-1.87-10.78-3-13"/>
      <path class="cls-10" d="M136.83,197.63c.98,2.37,1.6,4.44,2,6,.61,2.38,1,3.91,1,6,0,1.78-.33,3.21-1,6-.42,1.74-1.05,4.15-2,7,.8.43,3.2,1.8,3,3-.2,1.21-2.99,2.02-7,2-4.64-.1-8.41-.05-11,0-5.05.11-7.27.3-8-1-.77-1.36.43-3.77,2-5,1.72-1.35,3.77-1.2,6-1,1.96.18,5.26.77,9,3,1.11-2.18,2.9-6.41,3-12,.11-6.15-1.87-10.78-3-13"/>
      <path class="cls-2" d="M41.57,145.59c2.33,1,4.67,2,7,3"/>
      <path class="cls-1" d="M94.57,186.59c.23,1.42.75,3.6,2,6,1.09,2.09,2.01,3.84,4,5,2.34,1.36,5.94,1.76,8,0,.96-.82,1.3-1.88,2-4,.67-2.05.91-3.82,1-5"/>
      <path class="cls-1" d="M123.57,187.59c.25,1.43.78,3.6,2,6,1.26,2.48,2.1,4.13,4,5,2.19,1,5.19.69,7-1,1.37-1.28,1.66-2.97,2-5,.35-2.09.19-3.85,0-5"/>
      <path class="cls-1" d="M96.57,105.59c-.06,1.75-.29,4.19-1,7-.42,1.67-1.67,6.06-5,11-3.65,5.41-5.63,5.3-9,10-2.3,3.21-3.97,6.88-5,11-1.38,1.17-3.35,3.12-5,6-3.2,5.57-3.05,10.86-3,12,.1,2.27.76,8.7,6,14,4.63,4.69,10.12,5.73,12,6,1.39.84,3.43,1.97,6,3,2.54,1.02,8.01,2.92,19,3,7.13.05,12.17-.69,21-2,7.67-1.13,11.51-1.7,16-3,7.54-2.18,9.83-4.02,16-5,5.49-.88,10.1-.45,13,0-.75-1.91-2.01-4.78-4-8-10.83-17.53-29.54-23.31-35-25-5.46-1.69-14.47-3.74-26-3-.11-1.19-.19-2.92,0-5,.59-6.5,3.28-10.45,7-17,2.75-4.85,6.33-11.14,9-18,2.24-5.75,3.38-10.71,4-14"/>
      <g>
        <path class="cls-11" d="M115.57,102.59c-2.82,1.21-7.32,2.74-13,3-5.57.26-9.67-.82-14-2-6.35-1.73-10.92-2.98-15-7-1.73-1.71-6.43-6.35-5-11,.89-2.9,3.73-4.42,5-5-.3-1.91-.53-4.71,0-8,1.23-7.65,5.71-12.56,8-15,2.14-2.28,6.55-6.87,14-9,9.97-2.85,18.35.72,21,2,7.7,3.72,11.52,9.64,13,12,1.68,2.68,5.37,9.42,5,18-.12,2.83-.33,6.57-3,10-1.67,2.15-3.67,3.35-5,4"/>
        <path d="M115.57,102.59c-11,4.86-20.41,3.5-31.48.05-6.53-1.7-12.72-5.93-15.57-12.22-1.96-4.34.77-8.54,4.87-10.24,0,0-.26.48-.26.48-.81-4.92-.14-10.09,1.95-14.64,4.37-8.82,12.5-16.33,22.31-18.36,18.2-3.72,34.84,10,37.18,27.93.89,7.46-.45,15.61-8,19,9.67-4.58,8.96-17.43,5.68-25.98-5.22-13.96-19.8-23.18-34.66-20.04-9.43,1.97-17.41,9.4-21.64,17.84-2.07,4.47-2.72,9.58-1.88,14.44-3.81,1.49-6.6,5.15-4.76,9.26,2.72,6.09,8.63,10.22,14.96,11.95,11,3.54,20.23,5.16,31.3.53h0Z"/>
      </g>
      <path class="cls-2" d="M76.57,144.59c-.9,3.52-2.3,11,0,20,2.38,9.34,7.48,15.37,10,18"/>
      <path class="cls-1" d="M111.57,166.59c-.03-1.18-.08-8.05,5-14,4.14-4.85,9.31-6.29,12-7,6.1-1.61,11.38-.65,15,0,7.92,1.43,9.64,3.98,15,3,3.43-.63,5.44-2.18,7-1,2,1.51,1.2,5.92,1,7-.41,2.25-1.32,3.95-2,5,.67.34,1.58.96,2,2,.56,1.41.05,3.17-2,6-1.68,2.32-4.93,6.13-11,10-.82,1.53-2.34,3.92-5,6-4.18,3.27-8.6,3.76-11,4-2.32.23-10.76,1.06-18-5-1.58-1.32-7.79-6.9-8-16Z"/>
      <path class="cls-3" d="M92.57,87.59c-1.21-4.98-3.39-5.82-4-6-.92-.27-2.82-.41-10,6-3.43,3.07-6.1,5.88-8,8,3.67-.33,7.33-.67,11-1,.51.68,1.79,2.18,4,3,.51.19,3.33,1.23,6,0,4.25-1.96,5.68-8.52,4-10-.47-.41-1.33-.57-3,0Z"/>
      <path d="M81.69,94.1c3.41,1.07,7.34.05,9.88-2.52-1.18,1.4-2.74,2.5-4.51,3.12-1.77.62-3.73.75-5.61.36l.24-.97h0Z"/>
      <path d="M164.91,159.96c-2.49,2.05-5.34,3.62-8.34,4.63,2.88-1.32,5.48-3.16,7.66-5.37l.67.74h0Z"/>
      <polygon points="153.57 178.09 146.57 177.59 153.57 177.09 153.57 178.09 153.57 178.09"/>
      <path class="cls-2" d="M89.57,227.59c-.11-.68-.21-1.74,0-3,.22-1.35.53-3.24,2-4,1.14-.59,2.43-.21,3,0"/>
      <path class="cls-2" d="M117.91,228.18c-.11-.68-.21-1.74,0-3,.22-1.35.53-3.24,2-4,1.14-.59,2.43-.21,3,0"/>
      <circle class="cls-6" cx="79.32" cy="76.71" r="7.26"/>
      <circle class="cls-6" cx="104.87" cy="76.77" r="9.32"/>
      <circle class="cls-13" cx="79.53" cy="76.55" r="5.59"/>
      <circle class="cls-13" cx="104.84" cy="76.57" r="7.17"/>
      <circle cx="79.12" cy="76.61" r="3.39"/>
      <circle cx="105.12" cy="76.65" r="4.35"/>
      <circle class="cls-12" cx="82.74" cy="73.25" r="2.29"/>
      <circle class="cls-12" cx="108.57" cy="72.33" r="2.94"/>
    </g>
  </g>
</svg>