<?xml version="1.0" encoding="UTF-8"?>
<svg id="Layer_2" data-name="Layer 2" xmlns="http://www.w3.org/2000/svg" viewBox="0 0 2412.26 1175.5">
  <defs>
    <style>
      .cls-1 {
        fill: #dae7ec;
      }

      .cls-2 {
        fill: #fdffff;
      }

      .cls-3 {
        fill: #fff;
      }

      .cls-4 {
        fill: #73bf83;
      }

      .cls-5 {
        fill: #aed9ff;
      }

      .cls-6 {
        fill: #61b783;
      }

      .cls-7 {
        fill: #b0bfbe;
      }

      .cls-8 {
        fill: none;
        stroke: #c0cdc4;
      }

      .cls-8, .cls-9 {
        stroke-miterlimit: 10;
      }

      .cls-10 {
        fill: #d7ecff;
      }

      .cls-11 {
        fill: #ebfffd;
      }

      .cls-12 {
        fill: #e2d3cc;
      }

      .cls-13 {
        fill: #a3adb1;
      }

      .cls-14 {
        fill: #9cc0a8;
      }

      .cls-15 {
        fill: #a77b66;
      }

      .cls-9 {
        fill: #d39a55;
        stroke: #c38055;
      }

      .cls-16 {
        fill: #76807f;
      }

      .cls-17 {
        fill: #4d8058;
      }
    </style>
  </defs>
  <g id="Layer_1-2" data-name="Layer 1">
    <rect class="cls-5" width="2412.26" height="996.42"/>
    <rect class="cls-13" x="529.29" y="61.03" width="842.59" height="315.5"/>
    <rect class="cls-1" x="0" y="988.77" width="2412.25" height="186.73"/>
    <path class="cls-16" d="M1886.17,1023.97c21.43-11.22,42.86-22.45,64.29-33.67-.26-229.08-.51-458.16-.77-687.24-20.66,7.14-41.33,14.29-61.99,21.43-.51,233.16-1.02,466.32-1.53,699.48Z"/>
    <g>
      <path class="cls-3" d="M2176.6,907.64c.69-.57,6.8-5.48,16.84-5.23,9.14.23,14.5,4.55,15.31,5.23"/>
      <path class="cls-4" d="M2254.26,1053.05h-179.45c10.88-21.94,21.75-43.88,32.63-65.82h169.41c-7.53,21.94-15.06,43.88-22.59,65.82Z"/>
      <rect class="cls-6" x="2107.72" y="944.38" width="169.9" height="42.86"/>
      <path class="cls-12" d="M2204.15,944.38h-21.43v-463.77c1.53-.95,5.38-3.06,10.71-3.06,1.8,0,6.18.24,10.71,3.06v463.77Z"/>
      <path class="cls-17" d="M2254.66,1053.05c7.65-35.98,15.31-71.97,22.96-107.95v42.86c-7.65,21.7-15.31,43.4-22.96,65.09Z"/>
      <path class="cls-15" d="M2176.6,907.64c3.31,1.31,8.61,2.94,15.31,3.06,7.48.13,13.38-1.7,16.84-3.06.51,12.24,1.02,24.49,1.53,36.73h-33.67v-36.73Z"/>
    </g>
    <rect class="cls-10" x="552.1" y="76.23" width="799.51" height="286.36"/>
    <rect class="cls-11" x="1550.97" y="324.49" width="336.73" height="699.48"/>
    <rect class="cls-7" x="1587.7" y="384.18" width="260.2" height="168.37"/>
    <rect class="cls-7" x="1587.7" y="593.87" width="260.2" height="168.37"/>
    <rect class="cls-14" x="1638.25" y="593.87" width="208.16" height="114.79"/>
    <rect class="cls-7" x="1587.7" y="803.56" width="260.2" height="165.3"/>
    <path class="cls-2" d="M1350.08,182.77c-9.9,2.36-17.68,5.97-22.58,8.56-1.44-2.59-28.82-49.88-84.18-52.04-36.58-1.42-71.26,17.4-90.31,48.98-7.22-4.56-23.45-13.36-44.39-12.24-27.35,1.47-56.8,19.56-55.1,33.67.29,2.36,2.33,12.06,30.61,19.9,88.65,1.29,177.29,2.57,265.94,3.86"/>
    <rect class="cls-14" x="1637.95" y="385.08" width="208.16" height="123.98"/>
    <g>
      <path class="cls-9" d="M802.66,362.58v-71.86c-10.22-11.25-20.46-22.5-30.69-33.76-9.72,11.77-19.44,23.54-29.16,35.3v70.33"/>
      <path class="cls-9" d="M802.66,362.58v-69.75c9.72-11.71,19.44-23.4,29.16-35.11,10.22,11.2,20.46,22.39,30.69,33.58v71.28"/>
      <path class="cls-9" d="M922.35,362.58v-71.86c-10.22-11.25-20.46-22.5-30.69-33.76-9.72,11.77-19.44,23.54-29.16,35.3v70.33"/>
      <path class="cls-9" d="M982.2,362.58v-71.86c-10.22-11.25-20.46-22.5-30.69-33.76-9.72,11.77-19.44,23.54-29.16,35.3v70.33"/>
      <path class="cls-9" d="M1042.04,362.58v-71.28c-10.22-11.19-20.46-22.38-30.69-33.58-9.72,11.71-19.44,23.4-29.16,35.11v69.75"/>
      <path class="cls-9" d="M1041.28,362.58v-70.24c.26-.31.52-.63.77-.93,9.44-11.43,18.89-22.84,28.32-34.27,10.21,11.22,20.4,22.45,30.61,33.67v71.77"/>
      <path class="cls-9" d="M1160.66,362.58v-71.77c-10.21-11.22-20.4-22.45-30.61-33.67-9.69,11.74-19.39,23.46-29.08,35.2v70.24"/>
      <path class="cls-9" d="M1220.36,362.58v-71.19c-10.21-11.16-20.4-22.33-30.61-33.49-9.69,11.66-19.39,23.34-29.08,35v69.67"/>
      <path class="cls-9" d="M1280.05,362.58v-71.77c-10.21-11.22-20.4-22.45-30.61-33.67-9.69,11.74-19.39,23.46-29.08,35.2v70.24"/>
      <path class="cls-9" d="M1339.74,362.58v-71.77c-10.21-11.22-20.4-22.45-30.61-33.67-9.69,11.74-19.39,23.46-29.08,35.2v70.24"/>
    </g>
    <path class="cls-7" d="M1550.97,324.49c25.51-7.14,51.02-14.29,76.53-21.43h327.55c-22.45,7.14-44.9,14.29-67.35,21.43h-336.73Z"/>
    <path class="cls-8" d="M1638.98,593.11v115.03c69.64.43,139.28.86,208.93,1.29"/>
    <path class="cls-2" d="M580.57,177.55c10.19,9.95,20.34,7.56,71.94,7.65,53.94.1,65.24,2.74,75-7.65,11.74-12.5,15.07-37.29,3.06-48.98-11.63-11.32-37.6-10.3-56.63,9.18-3.23-24.01-22.22-42.92-45.92-45.92-25.41-3.22-48.8,12.79-56.63,35.2-5.78,16.54-3.6,38.03,9.18,50.51Z"/>
    <path class="cls-8" d="M1587.7,762.24c17.09-18.03,34.18-36.07,51.27-54.1"/>
    <path class="cls-8" d="M1587.7,968.87c17.35-16.33,34.69-32.65,52.04-48.98"/>
    <rect class="cls-14" x="1639.25" y="804.23" width="208.16" height="114.79"/>
    <path class="cls-8" d="M1637.57,384.18v122.5c69.64.46,139.28.92,208.93,1.38"/>
    <path class="cls-8" d="M1588.08,552.55c16.49-15.29,32.99-30.57,49.48-45.86"/>
    <path class="cls-8" d="M1640.98,803.39v115.03c68.3.43,136.6.86,204.9,1.29"/>
  </g>
</svg>