<?xml version="1.0" encoding="UTF-8"?>
<svg id="Layer_2" data-name="Layer 2" xmlns="http://www.w3.org/2000/svg" viewBox="0 0 270 166.89">
  <defs>
    <style>
      .cls-1 {
        fill: #3b546a;
      }

      .cls-2 {
        fill: #9aa2ff;
      }

      .cls-3 {
        fill: #273440;
      }

      .cls-4 {
        fill: #4d6880;
      }

      .cls-5 {
        fill: #ff99ae;
      }

      .cls-6 {
        fill: #ffeb99;
      }
    </style>
  </defs>
  <g id="Layer_1-2" data-name="Layer 1">
    <g>
      <path class="cls-4" d="M227,161.88c-26.6,2.91-56.07,4.85-88,5-35.07.17-67.25-1.86-96-5C28.67,117.88,14.33,73.88,0,29.88c37.09,6.65,81.98,11.87,133,12,52.74.14,99.02-5.19,137-12-14.33,44-28.67,88-43,132Z"/>
      <path class="cls-3" d="M0,29.88C-.2,16.49,68.43,1.86,128,.88c67.59-1.12,142.21,15.01,142,29-.21,14.06-76.01,26.35-138,26C72.98,55.55.21,43.62,0,29.88Z"/>
      <path class="cls-4" d="M270,29.88c-5.33,34-10.67,68-16,102-1.31,3.92-3.66,9.41-8,15-6.68,8.6-14.58,12.97-19,15"/>
      <path class="cls-4" d="M.18,30.06c5.33,34,10.67,68,16,102,1.31,3.92,3.66,9.41,8,15,6.68,8.6,14.58,12.97,19,15"/>
      <path class="cls-2" d="M47,47.88c-.22-2.5,8.42-5.7,15-7,16.4-3.23,20.96,3.01,31,0,11.51-3.45,10.66-11.54,22-14,10.14-2.2,19.13,2.47,24,5,9.1,4.72,24.48,16.61,22,23-2.02,5.2-14.34,2.9-70.17-1.06-28.66-2.03-43.55-2.71-43.83-5.94Z"/>
      <path class="cls-5" d="M128,27.88c.55-1.74,7.88,1.53,17-3,8.47-4.21,8.95-10.42,15-11,5.4-.51,6.35,4.32,16,8,9.61,3.66,13.15.58,18,4,7.37,5.19,10.3,20.09,5,26-12.43,13.86-72.61-18.95-71-24Z"/>
      <path class="cls-6" d="M141,55.88c-1.19-4.14,9.03-12.43,19-15,6.8-1.76,8.17.52,19,0,10.18-.49,18.64-2.97,29-6,11.2-3.28,13.8-5.08,19-4,6.58,1.36,14.31,6.71,14,11-1.05,14.66-96.67,25.58-100,14Z"/>
      <path class="cls-1" d="M61.83,55.81c.25-1.57,27.84.85,54,5,30.14,4.78,34.17,8,60,11,48.35,5.61,58.07-2.93,61-6,3.47-3.64,6.88-9.49,16-17,5.87-4.83,11.3-8.03,15-10-2.93,3.18-7.17,7.95-12,14-8.59,10.76-11.15,15.68-14,19-5.28,6.14-15.32,11.16-51,9-21.93-1.33-37.93-4.42-78-13-47.2-10.11-51.1-11.4-51-12Z"/>
      <path class="cls-1" d="M145.83,61.81c-.14.79,13.9,4.24,28,6,12.82,1.6,19.09,1,24,0,2.84-.58,3.53-.94,10-3,22.97-7.3,28.21-7.13,38-13,5.58-3.35,11.55-8,11-9-.74-1.34-12.34,5.42-29,11-7.49,2.51-35.89,11.75-69,9-6.59-.55-12.9-1.53-13-1Z"/>
      <path class="cls-1" d="M248.83,124.81c-.62,3.81-2.09,9.77-6,16-5.99,9.55-14.2,14.17-18,16"/>
      <path class="cls-1" d="M29.83,13.81c2.29-2.87,7.79-8.92,17-12,14.88-4.98,27.68,1.73,30,3"/>
    </g>
  </g>
</svg>