<?xml version="1.0" encoding="UTF-8"?>
<svg id="Layer_2" data-name="Layer 2" xmlns="http://www.w3.org/2000/svg" viewBox="0 0 266.14 266">
  <defs>
    <style>
      .cls-1 {
        fill: #ffb842;
      }

      .cls-2 {
        fill: #ff6642;
      }
    </style>
  </defs>
  <g id="Layer_1-2" data-name="Layer 1">
    <g>
      <path class="cls-2" d="M187,38c-4.3,1.78-6.76,5.14-8,7-4.6,6.88-27.83,46-59,100-1.09,2.06-3.21,6.73-3,13,.21,6.42,2.76,11.03,4,13,14.33,7,28.67,14,43,21,.46.29,3.87,2.36,8,1,4.4-1.45,5.85-5.55,6-6,16.33-43.33,32.67-86.67,49-130,1.97-2.6,2.36-6.07,1-9-2.03-4.36-6.74-4.97-7-5-8.33-2-16.67-4-25-6-2.36-.33-5.64-.4-9,1Z"/>
      <path d="M198,37c2.33-6.67,4.67-13.33,7-20,1.07-2.39,3.89-7.79,10-12,5.74-3.95,11.39-4.78,14-5,10,0,20,0,30,0,5.03,2.58,7.83,7.89,7,13-.97,6.01-6.48,8.75-7,9-8.33.33-16.67.67-25,1-.49-.09-2.79-.46-5,1-2.61,1.73-2.96,4.6-3,5-1.67,4.67-3.33,9.33-5,14-7.67-2-15.33-4-23-6Z"/>
      <path class="cls-2" d="M151,219c-39,0-78,0-117,0-3.56.37-12.69,1.81-21,9C1.64,237.83.24,251.13,0,254c50.33,0,100.67,0,151,0v-35Z"/>
      <path class="cls-1" d="M129,219c-.68-3.2-2.84-11.13-10-17-4.73-3.88-9.56-5.14-13-6-7.93-1.98-11.38-.58-24,0-18.94.87-22.22-1.8-31,2-7.55,3.27-11.12,7.83-12,9-3.45,4.61-4.58,9.33-5,12,31.67,0,63.33,0,95,0Z"/>
      <path d="M163,191c-4,9.33-8,18.67-12,28-8,0-16,0-24,0,4.67-12.67,9.33-25.33,14-38,7.33,3.33,14.67,6.67,22,10Z"/>
      <circle cx="145" cy="248" r="18"/>
      <ellipse cx="24.02" cy="253.92" rx="12.02" ry="11.82"/>
    </g>
  </g>
</svg>