<?xml version="1.0" encoding="UTF-8"?>
<svg id="Layer_2" data-name="Layer 2" xmlns="http://www.w3.org/2000/svg" viewBox="0 0 306.53 418.46">
  <defs>
    <style>
      .cls-1 {
        fill: #fffaed;
      }

      .cls-2 {
        fill: none;
        stroke: #ebdfce;
        stroke-miterlimit: 10;
      }

      .cls-3 {
        fill: #80796a;
      }

      .cls-4 {
        fill: #805d41;
      }

      .cls-5 {
        fill: #fff5dc;
      }

      .cls-6 {
        fill: #dbdbdb;
      }

      .cls-7 {
        fill: #bfb59e;
      }

      .cls-8 {
        fill: #f8f8f8;
      }
    </style>
  </defs>
  <g id="Layer_1-2" data-name="Layer 1">
    <g>
      <path class="cls-7" d="M255.22,45.39c7.17-7.2,14.83-14.56,23-22,7.81-7.11,15.49-13.77,23-20,.99.74,2.83,2.33,4,5,.68,1.56.92,2.98,1,4v350c.3,1.93.52,4.74,0,8-1.32,8.27-6.27,12.14-20,25-17.02,15.94-22.53,22.26-33,23-1.67.12-3.05.07-4,0,1.51-.61,4.42-2.01,7-5,2.71-3.14,3.65-6.4,4-8V54.39c-.08-1.02-.32-2.44-1-4-1.17-2.67-3.01-4.26-4-5Z"/>
      <rect class="cls-5" x=".22" y="41.67" width="261" height="376.45" rx="14.5" ry="14.5"/>
      <circle class="cls-4" cx="130.72" cy="246.67" r="109.5"/>
      <circle class="cls-6" cx="130.72" cy="246.67" r="82.5"/>
      <line class="cls-2" x1=".22" y1="372.17" x2="261.22" y2="372.17"/>
      <path class="cls-8" d="M227,282.17c-8.15,1.39-15.27.88-20.57,0-5.09,0-9.21-4.12-9.21-9.21v-52.57c0-5.09,4.12-9.21,9.21-9.21,3.65-1.1,11.59-2.9,20.57,0,3.39,1.09,6.12,2.6,8.21,4,2.32,7.32,4.71,17.58,5,30,.34,14.84-2.46,26.96-5,35-2.45.78-5.19,1.48-8.21,2Z"/>
      <path class="cls-7" d="M.22,113.17h120V41.17H14.22c-1.15.11-6.11.71-10,5C.51,50.25.25,54.95.22,56.17v57Z"/>
      <rect class="cls-1" x="21.22" y="60.17" width="79" height="35"/>
      <path class="cls-3" d="M0,54.07c.15-1.18.43-2.94,1-5,3.08-11.09,10.16-14.97,26-29C41.38,7.33,46.48.84,57,.07c1.67-.12,3.06-.07,4,0,132.7,0,229.48.1,233,0,1.06-.03,2.94.06,5,1,1.35.62,2.35,1.39,3,2-15.33,14-30.67,28-46,42-.62-.34-1.29-.68-2-1-2.56-1.14-4.97-1.71-7-2-129.78-1.26-224.99-1.35-233,0-5.5.93-9,4-9,4-2.9,2.55-4.29,5.74-5,8Z"/>
    </g>
  </g>
</svg>