<?xml version="1.0" encoding="UTF-8"?>
<svg id="Layer_2" data-name="Layer 2" xmlns="http://www.w3.org/2000/svg" viewBox="0 0 87.87 251.7">
  <defs>
    <style>
      .cls-1 {
        fill: #f9ce99;
      }

      .cls-2 {
        fill: #ffad6f;
      }

      .cls-3 {
        fill: #c87586;
        opacity: .67;
      }
    </style>
  </defs>
  <g id="Layer_1-2" data-name="Layer 1">
    <g>
      <path class="cls-3" d="M85.59,243.98c-2.47,3.08-5.89,3.72-6.76,3.86-12.27,3.06-22.62,3.8-29.93,3.86,0,0-9.98.09-27.03-4.83-1.02-.3-3.19-.95-4.83-2.9-2.44-2.89-2.18-6.83-1.93-8.69,6.76-70.15,13.52-140.3,20.27-210.46.07-.7.23-3.07,1.93-4.83,1.13-1.16,2.58-1.69,3.86-1.93,2.71-1.21,7.45-2.9,13.52-2.9,3.23,0,6.66.97,13.52,2.9.98.28,2.44.7,3.86,1.93,1.83,1.58,2.57,3.61,2.9,4.83,4.18,69.83,8.37,139.66,12.55,209.49.15.55,1.38,5.52-1.93,9.65Z"/>
      <path class="cls-1" d="M73.16,237c-2.56,3.19-6.1,3.86-7,4-12.71,3.17-23.44,3.93-31,4,0,0-10.34.09-28-5-1.06-.31-3.3-.98-5-3-2.52-3-2.26-7.08-2-9C7.16,155.33,14.16,82.67,21.16,10c.07-.73.23-3.18,2-5,1.17-1.2,2.67-1.75,4-2C29.97,1.74,34.87,0,41.16,0c3.34,0,6.9,1,14,3,1.01.29,2.53.73,4,2,1.89,1.64,2.66,3.74,3,5,4.33,72.33,8.67,144.67,13,217,.15.57,1.43,5.72-2,10Z"/>
      <ellipse class="cls-2" cx="37.16" cy="227.5" rx="27" ry="11.5"/>
    </g>
  </g>
</svg>