<?xml version="1.0" encoding="UTF-8"?>
<svg id="Layer_2" data-name="Layer 2" xmlns="http://www.w3.org/2000/svg" viewBox="0 0 81.59 69.34">
  <defs>
    <style>
      .cls-1, .cls-2 {
        fill: #fff;
      }

      .cls-1, .cls-3 {
        stroke: #fff;
      }

      .cls-1, .cls-3, .cls-4 {
        stroke-miterlimit: 10;
      }

      .cls-3, .cls-4 {
        fill: none;
      }

      .cls-5 {
        fill: #c9b5ad;
      }

      .cls-4 {
        stroke: #c9b5ad;
      }

      .cls-6 {
        fill: #f5f5f7;
      }
    </style>
  </defs>
  <g id="Layer_1-2" data-name="Layer 1">
    <g>
      <path class="cls-5" d="M56.64,24.83l19.13,20.92c-5.9,5.4-11.81,10.8-17.71,16.2-6.38-6.97-12.75-13.95-19.13-20.92,5.9-5.4,11.81-10.8,17.71-16.2Z"/>
      <path class="cls-5" d="M65.48,55.59l-2.6,2.37c3.52,3.8,7.03,7.59,10.55,11.39.9-.82,1.8-1.64,2.7-2.46-3.55-3.77-7.1-7.53-10.64-11.3Z"/>
      <path class="cls-5" d="M67.93,53.02c3.62,3.59,7.24,7.17,10.87,10.76l2.79-3.04c-3.57-3.51-7.15-7.02-10.72-10.53-.98.94-1.95,1.87-2.93,2.81Z"/>
      <rect class="cls-5" x="40.76" y="19.34" width="5" height="15" transform="translate(92.88 15.49) rotate(135.3)"/>
      <path class="cls-4" d="M37.49,21.43c-1.39-.97-3.54-2.56-5.96-4.74-4.58-4.12-5.52-6.19-9.69-9.54-3.79-3.04-5.68-4.56-8.2-4.67C7.23,2.22,2.48,11.07,1.86,12.25"/>
      <rect class="cls-5" x=".89" y="9.52" width="3.67" height="2.22" transform="translate(13.4 13.15) rotate(117.62)"/>
      <rect class="cls-5" x=".16" y="12.43" width="3" height="1" transform="translate(13.88 17.45) rotate(117.62)"/>
      <path class="cls-5" d="M47.37,31.68c-.76.76-.95,1.66-1,2,1.33-1,2.67-2,4-3-.22-.03-1.81-.18-3,1Z"/>
      <path class="cls-2" d="M56.43,22.85l19.13,20.92c-5.9,5.4-11.81,10.8-17.71,16.2-6.38-6.97-12.75-13.95-19.13-20.92,5.9-5.4,11.81-10.8,17.71-16.2Z"/>
      <path class="cls-2" d="M65.27,53.61l-2.6,2.37c3.52,3.8,7.03,7.59,10.55,11.39.9-.82,1.8-1.64,2.7-2.46-3.55-3.77-7.1-7.53-10.64-11.3Z"/>
      <path class="cls-2" d="M67.72,51.04c3.62,3.59,7.24,7.17,10.87,10.76l2.79-3.04c-3.57-3.51-7.15-7.02-10.72-10.53-.98.94-1.95,1.87-2.93,2.81Z"/>
      <rect class="cls-2" x="40.54" y="17.36" width="5" height="15" transform="translate(91.13 12.25) rotate(135.3)"/>
      <path class="cls-3" d="M37.28,19.45c-1.39-.97-3.54-2.56-5.96-4.74-4.58-4.12-5.52-6.19-9.69-9.54C17.83,2.13,15.94.61,13.42.51,7.02.24,2.27,9.09,1.65,10.27"/>
      <rect class="cls-1" x=".67" y="7.54" width="3.67" height="2.22" transform="translate(11.33 10.44) rotate(117.62)"/>
      <rect class="cls-2" x="-.05" y="10.45" width="3" height="1" transform="translate(11.82 14.74) rotate(117.62)"/>
      <path class="cls-6" d="M47.15,29.7c-.76.76-.95,1.66-1,2,1.33-1,2.67-2,4-3-.22-.03-1.81-.18-3,1Z"/>
    </g>
  </g>
</svg>