<?xml version="1.0" encoding="UTF-8"?>
<svg id="Layer_2" data-name="Layer 2" xmlns="http://www.w3.org/2000/svg" viewBox="0 0 168 81.05">
  <defs>
    <style>
      .cls-1 {
        fill: #b0b0b0;
      }

      .cls-2 {
        fill: none;
        stroke: #b0b0b0;
        stroke-miterlimit: 10;
      }

      .cls-3 {
        fill: gray;
      }
    </style>
  </defs>
  <g id="Layer_1-2" data-name="Layer 1">
    <g>
      <rect class="cls-1" y="23.05" width="168" height="58" rx="4.9" ry="4.9"/>
      <rect class="cls-3" x="4" y="37.05" width="6" height="6"/>
      <rect class="cls-3" x="13" y="37.05" width="6" height="6"/>
      <rect class="cls-3" x="22" y="37.05" width="6" height="6"/>
      <rect class="cls-3" x="31" y="37.05" width="6" height="6"/>
      <rect class="cls-3" x="40" y="37.05" width="6" height="6"/>
      <rect class="cls-3" x="49" y="37.05" width="6" height="6"/>
      <rect class="cls-3" x="58" y="37.05" width="6" height="6"/>
      <rect class="cls-3" x="67" y="37.05" width="6" height="6"/>
      <rect class="cls-3" x="76" y="37.05" width="6" height="6"/>
      <rect class="cls-3" x="85" y="37.05" width="6" height="6"/>
      <rect class="cls-3" x="94" y="37.05" width="6" height="6"/>
      <rect class="cls-3" x="103" y="37.05" width="6" height="6"/>
      <rect class="cls-3" x="4" y="45.05" width="10" height="6"/>
      <rect class="cls-3" x="17" y="45.05" width="6" height="6"/>
      <rect class="cls-3" x="26" y="45.05" width="6" height="6"/>
      <rect class="cls-3" x="35" y="45.05" width="6" height="6"/>
      <rect class="cls-3" x="44" y="45.05" width="6" height="6"/>
      <rect class="cls-3" x="53" y="45.05" width="6" height="6"/>
      <rect class="cls-3" x="62" y="45.05" width="6" height="6"/>
      <rect class="cls-3" x="71" y="45.05" width="6" height="6"/>
      <rect class="cls-3" x="80" y="45.05" width="6" height="6"/>
      <rect class="cls-3" x="89" y="45.05" width="6" height="6"/>
      <rect class="cls-3" x="98" y="45.05" width="6" height="6"/>
      <rect class="cls-3" x="107" y="45.05" width="6" height="6"/>
      <rect class="cls-3" x="4" y="53.05" width="14" height="6"/>
      <rect class="cls-3" x="21" y="53.05" width="6" height="6"/>
      <rect class="cls-3" x="30" y="53.05" width="6" height="6"/>
      <rect class="cls-3" x="39" y="53.05" width="6" height="6"/>
      <rect class="cls-3" x="48" y="53.05" width="6" height="6"/>
      <rect class="cls-3" x="57" y="53.05" width="6" height="6"/>
      <rect class="cls-3" x="66" y="53.05" width="6" height="6"/>
      <rect class="cls-3" x="75" y="53.05" width="6" height="6"/>
      <rect class="cls-3" x="84" y="53.05" width="6" height="6"/>
      <rect class="cls-3" x="93" y="53.05" width="6" height="6"/>
      <rect class="cls-3" x="102" y="53.05" width="6" height="6"/>
      <rect class="cls-3" x="111" y="53.05" width="6" height="6"/>
      <rect class="cls-3" x="4" y="61.05" width="18" height="6"/>
      <rect class="cls-3" x="25" y="61.05" width="6" height="6"/>
      <rect class="cls-3" x="34" y="61.05" width="6" height="6"/>
      <rect class="cls-3" x="43" y="61.05" width="6" height="6"/>
      <rect class="cls-3" x="52" y="61.05" width="6" height="6"/>
      <rect class="cls-3" x="61" y="61.05" width="6" height="6"/>
      <rect class="cls-3" x="70" y="61.05" width="6" height="6"/>
      <rect class="cls-3" x="79" y="61.05" width="6" height="6"/>
      <rect class="cls-3" x="88" y="61.05" width="6" height="6"/>
      <rect class="cls-3" x="97" y="61.05" width="6" height="6"/>
      <rect class="cls-3" x="106" y="61.05" width="6" height="6"/>
      <rect class="cls-3" x="115" y="61.05" width="6" height="6"/>
      <rect class="cls-3" x="4" y="69.05" width="6" height="6"/>
      <rect class="cls-3" x="13" y="69.05" width="6" height="6"/>
      <rect class="cls-3" x="22" y="69.05" width="6" height="6"/>
      <rect class="cls-3" x="31" y="69.05" width="6" height="6"/>
      <rect class="cls-3" x="88" y="69.05" width="6" height="6"/>
      <rect class="cls-3" x="97" y="69.05" width="6" height="6"/>
      <rect class="cls-3" x="106" y="69.05" width="6" height="6"/>
      <rect class="cls-3" x="115" y="69.05" width="6" height="6"/>
      <rect class="cls-3" x="124" y="69.05" width="6" height="6"/>
      <rect class="cls-3" x="133" y="69.05" width="6" height="6"/>
      <rect class="cls-3" x="142" y="69.05" width="6" height="6"/>
      <rect class="cls-3" x="40" y="69.05" width="45" height="6"/>
      <rect class="cls-3" x="4" y="28.05" width="6" height="6"/>
      <rect class="cls-3" x="22" y="28.05" width="6" height="6"/>
      <rect class="cls-3" x="31" y="28.05" width="6" height="6"/>
      <rect class="cls-3" x="40" y="28.05" width="6" height="6"/>
      <rect class="cls-3" x="49" y="28.05" width="6" height="6"/>
      <rect class="cls-3" x="58" y="28.05" width="6" height="6"/>
      <rect class="cls-3" x="67" y="28.05" width="6" height="6"/>
      <rect class="cls-3" x="76" y="28.05" width="6" height="6"/>
      <rect class="cls-3" x="85" y="28.05" width="6" height="6"/>
      <rect class="cls-3" x="94" y="28.05" width="6" height="6"/>
      <rect class="cls-3" x="103" y="28.05" width="6" height="6"/>
      <rect class="cls-3" x="121" y="28.05" width="6" height="6"/>
      <rect class="cls-3" x="133" y="61.05" width="6" height="6"/>
      <rect class="cls-3" x="112" y="37.05" width="6" height="6"/>
      <rect class="cls-3" x="116" y="45.05" width="6" height="6"/>
      <rect class="cls-3" x="120" y="53.05" width="6" height="6"/>
      <rect class="cls-3" x="121" y="37.05" width="6" height="6"/>
      <rect class="cls-3" x="130" y="37.05" width="13" height="6"/>
      <rect class="cls-3" x="125" y="45.05" width="6" height="6"/>
      <rect class="cls-3" x="134" y="45.05" width="9" height="6"/>
      <rect class="cls-3" x="129" y="53.05" width="14" height="6"/>
      <rect class="cls-3" x="130" y="28.05" width="6" height="6"/>
      <rect class="cls-3" x="139" y="28.05" width="6" height="6"/>
      <rect class="cls-3" x="148" y="28.05" width="6" height="6"/>
      <rect class="cls-3" x="157" y="28.05" width="6" height="6"/>
      <rect class="cls-3" x="157" y="37.05" width="6" height="6"/>
      <rect class="cls-3" x="157" y="45.05" width="6" height="6"/>
      <rect class="cls-3" x="157" y="53.05" width="6" height="6"/>
      <rect class="cls-3" x="157" y="61.05" width="6" height="6"/>
      <rect class="cls-3" x="157" y="69.05" width="6" height="6"/>
      <path class="cls-2" d="M85,23.05c-.31-1.35-.62-3.54,0-6,.98-3.89,3.43-5.13,5-9,.67-1.65,1.37-4.26,1-8"/>
    </g>
  </g>
</svg>