<?xml version="1.0" encoding="UTF-8"?>
<svg id="Layer_2" data-name="Layer 2" xmlns="http://www.w3.org/2000/svg" viewBox="0 0 363.78 442.18">
  <defs>
    <style>
      .cls-1 {
        fill: #421f01;
      }

      .cls-1, .cls-2 {
        stroke: #642d19;
        stroke-miterlimit: 10;
      }

      .cls-3 {
        fill: #4e2311;
      }

      .cls-2 {
        fill: none;
      }

      .cls-4 {
        fill: #74341a;
      }

      .cls-5 {
        fill: #642d19;
      }

      .cls-6 {
        fill: #999;
        opacity: .6;
      }
    </style>
  </defs>
  <g id="Layer_1-2" data-name="Layer 1">
    <g>
      <path class="cls-6" d="M70,373.11c0,15.03,0,30.06,0,45.09-23.33,7.99-46.67,15.99-70,23.98,0-22.38,0-44.77,0-67.15C.33,265.03.67,155.04,1,45.04c23-8.95,46-17.91,69-26.86v354.93Z"/>
      <rect class="cls-4" x="70.66" width="233" height="417"/>
      <path class="cls-4" d="M292.66,401c23.67,8.33,47.33,16.67,71,25-.33-127.67-.67-255.33-1-383-23.33-9.67-46.67-19.33-70-29v387Z"/>
      <rect class="cls-3" x="81.5" y="14.68" width="211" height="387"/>
      <rect class="cls-1" x="99" y="35.18" width="174" height="346"/>
      <path class="cls-4" d="M81.66,400.22c-23.67,8.33-47.33,16.67-71,25,.33-127.67.67-255.33,1-383,23.33-9.67,46.67-19.33,70-29v387Z"/>
      <path class="cls-5" d="M81,15.18C57.67,151.85,34.33,288.51,11,425.18c23.67-8.33,47.33-16.67,71-25-.33-128.33-.67-256.67-1-385Z"/>
      <path class="cls-5" d="M293.78,15.48c23.33,136.67,46.67,273.33,70,410-23.67-8.33-47.33-16.67-71-25,.33-128.33.67-256.67,1-385Z"/>
      <path class="cls-2" d="M99,35.18c-6-6.67-12-13.33-18-20"/>
      <path class="cls-2" d="M293,401.18c-6.65-6.79-13.3-13.59-19.96-20.38"/>
      <path class="cls-2" d="M274.04,34.8c6-6.67,12-13.33,18-20"/>
      <path class="cls-2" d="M81.04,401.14c6-6.67,12-13.33,18-20"/>
    </g>
  </g>
</svg>