<?xml version="1.0" encoding="UTF-8"?>
<svg id="Layer_2" data-name="Layer 2" xmlns="http://www.w3.org/2000/svg" viewBox="0 0 67.5 57.42">
  <defs>
    <style>
      .cls-1 {
        fill: none;
      }

      .cls-1, .cls-2, .cls-3, .cls-4 {
        stroke: #000;
        stroke-miterlimit: 10;
      }

      .cls-5, .cls-2 {
        fill: #fff;
      }

      .cls-6 {
        fill: #333;
      }

      .cls-4 {
        fill: #f5df04;
      }
    </style>
  </defs>
  <g id="Layer_1-2" data-name="Layer 1">
    <g>
      <path class="cls-4" d="M22.04,42.22c-.01.64-.02,2.32.92,4.12,2.51,4.82,9.71,6.37,15.12,5.04,1.05-.26,8.47-2.21,10.08-8.71.12-.47,1.06-4.55-1.37-8.25-3.04-4.61-9.09-5.22-12.83-4.58-6.31,1.07-11.81,6.66-11.91,12.37Z"/>
      <path class="cls-4" d="M37.62,28.47c-.43,8.3-8.75,14.01-16.5,13.75-7.34-.25-14.45-5.87-15.12-12.83-.87-9.01,9.31-17.65,18.79-16.04,6.73,1.14,13.23,7.46,12.83,15.12Z"/>
      <path class="cls-2" d="M29.37,15.18c.38-2.51,1.61-8.49,5.96-12.37,2.3-2.06,4.05-2.25,4.58-2.29,2.1-.15,3.98.82,5.04,1.83,2.52,2.42,2.71,7.37,0,11.91,1.29-1.4,3.39-3.39,6.42-5.04,3.28-1.8,7.72-4.22,11.46-2.29,2.46,1.27,3.85,4.03,4.12,6.42.57,4.92-3.55,8.73-5.5,10.54-8.27,7.66-20.43,6.42-23.83,5.96.14-1.22.47-5.49-2.29-9.62-2.03-3.04-4.72-4.48-5.96-5.04Z"/>
      <path class="cls-1" d="M13.79,15.64c-.11-1.12-.47-3.1-1.83-5.04-.62-.88-2.22-3.16-5.04-3.67-.93-.17-1.74-.1-2.29,0"/>
      <path class="cls-1" d="M20.66,13.35c-.04-1.32-.31-3.67-1.83-5.96-.72-1.08-1.72-2.58-3.67-3.21-1.58-.51-2.99-.2-3.67,0"/>
      <path class="cls-1" d="M26.16,13.8c.05-1.34.26-2.43.46-3.21.41-1.62.85-3.3,2.29-4.58.52-.46,1.02-.74,1.37-.92"/>
      <circle class="cls-3" cx="2.79" cy="8.31" r="2.29"/>
      <circle class="cls-3" cx="32.81" cy="4.87" r="2.52"/>
      <circle class="cls-3" cx="11.96" cy="3.72" r="1.37"/>
      <ellipse class="cls-1" cx="17.68" cy="32.14" rx="1.15" ry=".46"/>
      <path class="cls-1" d="M16.08,35.34c.22.18,1.24,1.01,2.75.92,1.63-.1,2.59-1.18,2.75-1.37"/>
      <path class="cls-3" d="M32.58,38.09c.19,1.3.3,3.04,0,5.04-.55,3.71-2.18,6.38-3.21,7.79.46.15.92.31,1.37.46s.92.31,1.37.46c.49-.65,1.15-1.58,1.83-2.75.81-1.4,2.17-3.74,2.75-6.87.62-3.35.11-6.27-.46-8.25-.51.72-1.11,1.49-1.83,2.29-.63.7-1.25,1.31-1.83,1.83Z"/>
      <path class="cls-3" d="M34.87,51.84c.51-.66,1.17-1.58,1.83-2.75.8-1.4,2.16-4.1,2.75-7.33.97-5.33-.56-9.9-1.37-11.91.73.13,1.5.28,2.29.46.64.14,1.25.3,1.83.46.64,1.19,1.46,3.07,1.83,5.5.69,4.45-.59,7.88-.92,8.71-1.31,3.33-3.41,5.41-4.58,6.42-.35.17-.82.35-1.37.46-.96.19-1.77.1-2.29,0Z"/>
      <path class="cls-3" d="M46.78,34.43c.51,2.1.53,3.86.46,5.04-.09,1.53-.31,4.46-2.29,7.33-1.1,1.59-2.35,2.62-3.21,3.21.84-.37,4.33-2.01,5.96-5.96.34-.84,1.45-3.63.46-6.87-.38-1.22-.94-2.15-1.37-2.75Z"/>
      <path class="cls-3" d="M27.54,44.51c.13.52.26,1.35,0,2.29-.13.46-.33.9-1.37,2.29-.44.59-1.06,1.38-1.83,2.29.19.29.43.77.46,1.37.07,1.75-1.77,3.51-2.75,3.21-.98-.31-1.63-2.86-.46-4.12.61-.65,1.48-.73,1.83-.74.1-.38.25-.91.47-1.55.36-1.07.66-2.11,1.37-3.21.32-.5.77-1.14,1.37-1.83h.92Z"/>
      <path class="cls-3" d="M28.91,40.38c.63,1.08.64,2.35,0,3.21-.47.64-1.15.86-1.37.92-.21.06-1.44.39-2.29-.46-.57-.58-.75-1.47-.46-2.29"/>
      <path class="cls-3" d="M22.04,44.51c-.39.17-.89.44-1.37.92-1.22,1.2-1.35,2.74-1.37,3.21.21.34.54,1.01.46,1.83-.18,1.72-2.13,3.17-3.21,2.75-.63-.25-.85-1.11-.92-1.37-.29-1.13.31-2.05.46-2.29.61-.96,1.54-1.29,1.83-1.37.04-.52.16-1.16.46-1.83.97-2.18,3.1-3.01,3.67-3.21"/>
      <path class="cls-3" d="M29.37,51.38c.15.31.31.61.46.92-.28-.09-.82-.21-1.37,0-1.1.42-1.44,1.83-1.37,2.75,0,.15.11,1.57.92,1.83.57.18,1.16-.33,1.83-.92.61-.53,1.51-1.32,1.37-2.29-.06-.42-.29-.73-.46-.92l.92-.92"/>
      <path class="cls-3" d="M34.87,51.84c.6,1.17,1.29,1.63,1.83,1.83.82.3,1.32,0,1.83.46.59.52.26,1.19.92,1.83.38.37,1.02.67,1.37.46.6-.36.07-2.05,0-2.29-.18-.57-.37-1.16-.92-1.37-.36-.14-.72-.06-.92,0-.14-.02-.56-.1-.92-.46-.1-.1-.39-.41-.46-.92"/>
      <path class="cls-3" d="M43.58,49.09c.11.33.35.91.92,1.37,1.31,1.09,3.08.5,3.21.46.04,1.34.71,2.25,1.37,2.29.35.02.71-.2.92-.46.43-.56.17-1.33,0-1.83-.17-.5-.35-1.05-.92-1.37-.81-.46-1.72-.05-1.83,0-.14-.22-.43-.61-.92-.92-.56-.36-1.1-.44-1.37-.46"/>
      <path d="M37.41,26.64c3.35-1.5,8.08-3.5,11.28-5.17,1.82-.95,3.68-1.95,4.79-3.71,1.16-1.69,1.79-3.73,2-5.79-.13,2.06-.67,4.14-1.79,5.92-2.35,3.52-6.73,4.92-10.28,6.91,0,0-5.59,2.75-5.59,2.75l-.41-.91h0Z"/>
      <path d="M53.66,17.47c2.8-.38,5.11-.96,7.79-1.83-1.88,2.09-5.18,2.88-7.79,1.83h0Z"/>
      <path d="M34.01,19c2.79-3.27,3.65-7.89,2.69-12.07.63,2.08.86,4.31.55,6.51-.3,2.19-1.14,4.34-2.45,6.17l-.79-.61h0Z"/>
      <path d="M36.98,11.51c2.66-.85,5.13-2.44,7.05-4.57-1.67,2.35-3.99,4.29-6.69,5.51l-.36-.93h0Z"/>
      <path d="M35.76,16.97c2.49.06,4.89-1.21,6.44-3.17-1.34,2.25-3.73,3.89-6.39,4.17,0,0-.05-1-.05-1h0Z"/>
      <path class="cls-3" d="M44.95,14.26c-2.75,3.06-5.5,6.11-8.25,9.17"/>
      <circle class="cls-2" cx="9.9" cy="26.5" r="5.16"/>
      <circle class="cls-2" cx="25.33" cy="26.5" r="5.16"/>
      <circle class="cls-6" cx="10.05" cy="26.39" r="3.98"/>
      <circle class="cls-6" cx="25.31" cy="26.39" r="3.98"/>
      <circle cx="9.76" cy="26.43" r="2.41"/>
      <circle cx="25.46" cy="26.43" r="2.41"/>
      <circle class="cls-5" cx="12.33" cy="24.04" r="1.63"/>
      <circle class="cls-5" cx="27.38" cy="24.04" r="1.63"/>
    </g>
  </g>
</svg>