<?xml version="1.0" encoding="UTF-8"?>
<svg id="Layer_2" data-name="Layer 2" xmlns="http://www.w3.org/2000/svg" viewBox="0 0 66.5 56.42">
  <defs>
    <style>
      .cls-1 {
        fill: #f5df04;
      }

      .cls-2 {
        fill: #fff;
      }

      .cls-3, .cls-4 {
        fill: none;
      }

      .cls-4 {
        stroke: #000;
        stroke-miterlimit: 10;
        stroke-width: .25px;
      }

      .cls-5 {
        fill: #333;
      }
    </style>
  </defs>
  <g id="Layer_1-2" data-name="Layer 1">
    <g>
      <path class="cls-2" d="M28.87,14.68c.38-2.51,1.61-8.49,5.96-12.37C37.13.25,38.88.05,39.41.02c2.1-.15,3.98.82,5.04,1.83,2.52,2.42,2.71,7.37,0,11.91,1.29-1.4,3.39-3.39,6.42-5.04,3.28-1.8,7.72-4.22,11.46-2.29,2.46,1.27,3.85,4.03,4.12,6.42.57,4.92-3.55,8.73-5.5,10.54-8.27,7.66-20.43,6.42-23.83,5.96.14-1.22.47-5.49-2.29-9.62-2.03-3.04-4.72-4.48-5.96-5.04Z"/>
      <path class="cls-1" d="M21.54,41.72c-.01.64-.02,2.32.92,4.12,2.51,4.82,9.71,6.37,15.12,5.04,1.05-.26,8.47-2.21,10.08-8.71.12-.47,1.06-4.55-1.37-8.25-3.04-4.61-9.09-5.22-12.83-4.58-6.31,1.07-11.81,6.66-11.91,12.37Z"/>
      <path class="cls-1" d="M37.12,27.97c-.43,8.3-8.75,14.01-16.5,13.75-7.34-.25-14.45-5.87-15.12-12.83-.87-9.01,9.31-17.65,18.79-16.04,6.73,1.14,13.23,7.46,12.83,15.12Z"/>
      <path class="cls-4" d="M13.29,15.14c-.11-1.12-.47-3.1-1.83-5.04-.62-.88-2.22-3.16-5.04-3.67-.93-.17-1.74-.1-2.29,0"/>
      <path class="cls-4" d="M20.16,12.85c-.04-1.32-.31-3.67-1.83-5.96-.72-1.08-1.72-2.58-3.67-3.21-1.58-.51-2.99-.2-3.67,0"/>
      <path class="cls-4" d="M25.66,13.3c.05-1.34.26-2.43.46-3.21.41-1.62.85-3.3,2.29-4.58.52-.46,1.02-.74,1.37-.92"/>
      <circle cx="2.29" cy="7.81" r="2.29"/>
      <circle cx="32.31" cy="4.37" r="2.52"/>
      <circle cx="11.46" cy="3.22" r="1.37"/>
      <ellipse class="cls-3" cx="17.18" cy="31.64" rx="1.15" ry=".46"/>
      <path d="M15.58,34.84c1.69,1.21,4.04,1,5.5-.46-1.19,1.77-4.03,2.01-5.5.46h0Z"/>
      <path d="M31.86,37.71c.2,1.34.31,3.13,0,5.18-.57,3.81-2.29,6.55-3.36,8.01.48.16.96.31,1.44.47s.96.31,1.44.47c.52-.67,1.21-1.62,1.92-2.83.85-1.44,2.27-3.85,2.88-7.06.65-3.44.12-6.45-.48-8.48-.53.74-1.17,1.54-1.92,2.35-.66.72-1.31,1.34-1.92,1.88Z"/>
      <path d="M34.37,51.34c.51-.66,1.17-1.58,1.83-2.75.8-1.4,2.16-4.1,2.75-7.33.97-5.33-.56-9.9-1.37-11.91.73.13,1.5.28,2.29.46.64.14,1.25.3,1.83.46.64,1.19,1.46,3.07,1.83,5.5.69,4.45-.59,7.88-.92,8.71-1.31,3.33-3.41,5.41-4.58,6.42-.35.17-.82.35-1.37.46-.96.19-1.77.1-2.29,0Z"/>
      <path d="M46.28,33.93c.51,2.1.53,3.86.46,5.04-.09,1.53-.31,4.46-2.29,7.33-1.1,1.59-2.35,2.62-3.21,3.21.84-.37,4.33-2.01,5.96-5.96.34-.84,1.45-3.63.46-6.87-.38-1.22-.94-2.15-1.37-2.75Z"/>
      <path d="M27.04,44.01c.13.52.26,1.35,0,2.29-.13.46-.33.9-1.37,2.29-.44.59-1.06,1.38-1.83,2.29.19.29.43.77.46,1.37.07,1.75-1.77,3.51-2.75,3.21-.98-.31-1.63-2.86-.46-4.12.61-.65,1.48-.73,1.83-.74.1-.38.25-.91.47-1.55.36-1.07.66-2.11,1.37-3.21.32-.5.77-1.14,1.37-1.83h.92Z"/>
      <path d="M28.41,39.88c.63,1.08.64,2.35,0,3.21-.47.64-1.15.86-1.37.92-.21.06-1.44.39-2.29-.46-.57-.58-.75-1.47-.46-2.29"/>
      <path d="M21.54,44.01c-.39.17-.89.44-1.37.92-1.22,1.2-1.35,2.74-1.37,3.21.21.34.54,1.01.46,1.83-.18,1.72-2.13,3.17-3.21,2.75-.63-.25-.85-1.11-.92-1.37-.29-1.13.31-2.05.46-2.29.61-.96,1.54-1.29,1.83-1.37.04-.52.16-1.16.46-1.83.97-2.18,3.1-3.01,3.67-3.21"/>
      <path d="M29.3,49.84c.18.36.36.73.54,1.09-.34-.11-.97-.25-1.63,0-1.31.5-1.71,2.17-1.63,3.27.01.17.13,1.87,1.09,2.18.68.22,1.38-.39,2.18-1.09.72-.63,1.79-1.57,1.63-2.72-.07-.49-.34-.86-.54-1.09l1.09-1.09"/>
      <path d="M34.37,51.34c.6,1.17,1.29,1.63,1.83,1.83.82.3,1.32,0,1.83.46.59.52.26,1.19.92,1.83.38.37,1.02.67,1.37.46.6-.36.07-2.05,0-2.29-.18-.57-.37-1.16-.92-1.37-.36-.14-.72-.06-.92,0-.14-.02-.56-.1-.92-.46-.1-.1-.39-.41-.46-.92"/>
      <path d="M43.08,48.59c.11.33.35.91.92,1.37,1.31,1.09,3.08.5,3.21.46.04,1.34.71,2.25,1.37,2.29.35.02.71-.2.92-.46.43-.56.17-1.33,0-1.83-.17-.5-.35-1.05-.92-1.37-.81-.46-1.72-.05-1.83,0-.14-.22-.43-.61-.92-.92-.56-.36-1.1-.44-1.37-.46"/>
      <path d="M37.07,26.48c3.33-1.55,8.03-3.62,11.22-5.34,1.8-.98,3.68-2.03,4.78-3.83,1.15-1.73,1.74-3.78,1.92-5.84-.5,7.83-6.12,9.55-12.2,12.58,0,0-5.62,2.66-5.62,2.66l-.1-.23h0Z"/>
      <path d="M53.16,16.97c2.73.16,5.41-.5,7.79-1.83-2.19,1.63-5.1,2.34-7.79,1.83h0Z"/>
      <path d="M33.81,18.73c2.73-3.41,3.49-8.11,2.39-12.3,1.18,4.2.5,8.95-2.19,12.45,0,0-.2-.15-.2-.15h0Z"/>
      <path d="M36.61,11.36c2.68-.99,5.09-2.71,6.92-4.92-1.77,2.27-4.14,4.08-6.83,5.16l-.09-.23h0Z"/>
      <path d="M35.28,16.85c2.55-.07,4.95-1.48,6.42-3.54-1.42,2.14-3.82,3.64-6.41,3.79,0,0-.01-.25-.01-.25h0Z"/>
      <path d="M44.45,13.76c-2.75,3.06-5.5,6.11-8.25,9.17"/>
      <circle class="cls-2" cx="9.4" cy="26" r="5.16"/>
      <circle class="cls-2" cx="24.83" cy="26" r="5.16"/>
      <circle class="cls-5" cx="9.55" cy="25.89" r="3.98"/>
      <circle class="cls-5" cx="24.81" cy="25.89" r="3.98"/>
      <circle cx="9.26" cy="25.93" r="2.41"/>
      <circle cx="24.96" cy="25.93" r="2.41"/>
      <circle class="cls-2" cx="11.83" cy="23.54" r="1.63"/>
      <circle class="cls-2" cx="26.88" cy="23.54" r="1.63"/>
      <path d="M45.39,22.78c1.1-2.1,1.5-4.58,1.11-6.94.47,2.35.17,4.87-.89,7.06l-.22-.11h0Z"/>
      <path d="M48.01,21.21c2.61.2,5.13,1.33,6.99,3.12-1.92-1.74-4.45-2.76-7.01-2.88l.02-.25Z"/>
      <path d="M40.1,25.26c.86,1.25,2.36,2.01,3.9,2.07-1.54.02-3.13-.66-4.1-1.93l.2-.15h0Z"/>
    </g>
  </g>
</svg>