<?xml version="1.0" encoding="UTF-8"?>
<svg id="Layer_2" data-name="Layer 2" xmlns="http://www.w3.org/2000/svg" viewBox="0 0 137.18 140.59">
  <defs>
    <style>
      .cls-1 {
        fill: #dda348;
      }

      .cls-2 {
        fill: #fff;
      }

      .cls-3 {
        fill: none;
      }

      .cls-4 {
        fill: #fee04c;
      }

      .cls-5 {
        fill: #b73525;
      }

      .cls-6 {
        fill: #fdb72a;
      }

      .cls-7 {
        fill: #333;
      }
    </style>
  </defs>
  <g id="Layer_1-2" data-name="Layer 1">
    <g>
      <path class="cls-4" d="M59.45,116c-1.67,3-3.33,6-5,9-1.15-.35-2.87-.78-5-1-2.67-.27-5.89-.6-9,1-2.35,1.21-4.35,3.37-4,4,.2.36,1.17.2,2,0-.4.3-1.61,1.28-2,3-.15.67-.33,1.46,0,2,1.05,1.74,6.76.19,11-1,7.25-2.02,6.97-2.93,10-3,5.26-.12,8.67,2.56,10,1,.84-.98.09-2.78,0-3-.82-1.98-3.21-3.24-6-3l3-6"/>
      <path class="cls-5" d="M16.45,21c-.89-.48-2.81-1.67-4-4-.3-.58-2.47-4.99,0-8,2.06-2.51,5.72-2.04,6-2,2.11.31,3.48,1.5,4,2-.1-.89-.2-2.97,1-5C25.66.25,30.31.01,31.45,0c1.33-.01,3.96-.04,6,2,2.32,2.33,2.05,5.52,2,6,.61-.76,1.9-2.16,4-3,.77-.31,3.86-1.54,7,0,.52.26,3.62,1.78,4,5,.23,1.93-.64,3.44-1,4,.51-.09,2.8-.45,5,1,1.66,1.09,2.93,2.99,3,5,.1,3.13-2.75,6.36-7,7"/>
      <path class="cls-4" d="M70.45,120c-.23,1.22-.55,2.57-1,4-.6,1.92-1.31,3.59-2,5-2.44-.77-4.52-.97-6-1-1.16-.02-9.3-.09-13,5-.36.49-1.54,2.11-1,3,.51.85,2.48.84,5,0-.09.4-.19,1.13,0,2,.23,1.04.78,1.76,1,2,1.29,1.35,4.71.07,8-1,6.28-2.05,9.42-3.07,12-3,4.81.13,7.8,2.43,9,1,.83-.99.06-2.86,0-3-.64-1.5-2.1-2.15-4-3-1.2-.53-2.25-.83-3-1,.41-1.34.81-3.03,1-5,.19-1.93.13-3.63,0-5"/>
      <path class="cls-6" d="M7.45,36c-.05-4.28,2.04-7.54,3-9,2.71-4.11,6.27-6.07,8-7,9.52-5.1,19.51-2.42,21-2,1.83.52,12.98,3.88,17,13,3.17,7.2,4,12,4,12,.29,1.7.68,4.68,3,7,.52.52,1.44,1.31,3,2,4.72,2.08,8.22.12,15,0,6.78-.12,7.08,1.78,13,1,2.72-.36,5.95-.78,9-3,2.99-2.17,4.36-5.15,7-11,2.97-6.59,3.02-9.2,6-11,.42-.26,3-1.75,6-1,3.36.84,5.48,4.07,6,7,.51,2.86-.56,5.17-1,6,.4-.49,1.39-1.57,3-2,2.29-.61,4.86.37,6,2,2.59,3.71-2.52,10.38-3,11-2.03,2.64-4.41,4.17-6,5,3.28-2.13,6.51-2.43,8-1,.9.87.96,2.17,1,3,.18,3.9-2.83,6.85-4,8-2.44,2.4-5.18,3.48-7,4,.76-.09,2.63-.18,4,1,2.45,2.11,1.17,6.46,1,7-1.37,4.43-6.96,7.44-14,8,.3.03,3.78.37,5,3,.81,1.74.18,3.51,0,4-1.31,3.68-6.94,5.88-14,6-1.18,2.18-2.79,4.61-5,7-7.39,7.97-16.73,10.26-21,11-1.48,1.17-3.47,2.37-6,3-9.27,2.3-17.2-5.22-18-6-1.21.09-2.94.16-5,0-11.16-.86-18.88-7.32-22-10-2.67-2.29-11.25-9.87-14-22-2.28-10.07,2.13-11.49-1-22-3.62-12.15-6-17-6-17-.77-1.58-1.96-3.85-2-7Z"/>
      <path class="cls-5" d="M8.45,52c-1.25,2-1.76,3.8-2,5-.3,1.54-.53,2.71,0,4,.72,1.75,2.66,3.29,4,3,2.93-.63,3-10.07,3-11"/>
      <path class="cls-5" d="M12.45,53c-.84.76-2.07,2.07-3,4-.61,1.26-2.14,4.41-1,8,.26.83,1.16,3.65,4,5,.4.19,3.37,1.54,6,0,2.13-1.25,2.67-3.59,3-5,1.04-4.5-1.12-8.42-2-10-1.02-1.85-2.18-3.18-3-4"/>
      <path class="cls-4" d="M18.45,47c.21-.91.87-3.99-1-7-.29-.46-2.31-3.6-6-4-4.01-.44-6.83,2.7-8,4C.46,43.33-.73,48.11.45,49c.59.45,1.38-.36,3,0,1.45.32,2.07,1.25,3,2,2.3,1.87,6.39,2.59,9,1,2.14-1.31,2.73-3.82,3-5Z"/>
      <path class="cls-3" d="M62.45,65c8.76-1.8,15.98-2.08,21-2,2.08.03,16.7.34,17,3,.12,1.07-2.11,2.21-4,3,3.56-.73,6.32-.38,8,0,1.78.4,3.68.82,4,2,.12.45.15,1.5-4,5-1.6,1.35-3.93,3.15-7,5,1.4-.73,3.83-1.77,7-2,1.94-.14,5.3-.39,6,1,1.21,2.4-6.17,8.33-7,9-4.11,3.3-10,8.04-19,9-1.5.16-19.35,1.81-26-10-2.82-5.01-2.42-10.31-2-13"/>
      <path class="cls-3" d="M127.45,40c-2.17,2.5-4.33,5-6.5,7.5"/>
      <path class="cls-3" d="M127.45,56c-1.5.95-3,1.89-4.5,2.84"/>
      <path class="cls-3" d="M125.45,70c-1.5.41-3,.82-4.5,1.23"/>
      <path class="cls-3" d="M38.45,129c1.27-.75,3.32-1.72,6-2,1.13-.12,2.14-.09,3,0"/>
      <path class="cls-3" d="M52.45,136c.65-.61,1.65-1.38,3-2,2.06-.94,3.94-1.03,5-1"/>
      <circle class="cls-2" cx="29.87" cy="34.31" r="9.08"/>
      <circle class="cls-7" cx="29.84" cy="34.11" r="6.99"/>
      <circle cx="30.11" cy="34.19" r="4.24"/>
      <circle class="cls-2" cx="33.47" cy="29.99" r="2.86"/>
      <path class="cls-1" d="M64.37,66.64c7.94-1.63,14.47-1.88,19.01-1.81,1.89.03,15.12.31,15.39,2.72.11.97-1.91,2-3.62,2.72,3.22-.66,5.72-.34,7.24,0,1.61.36,3.33.74,3.62,1.81.11.41.14,1.36-3.62,4.53-1.45,1.22-3.56,2.85-6.34,4.53,1.27-.66,3.47-1.6,6.34-1.81,1.75-.13,4.8-.35,5.43.91,1.1,2.17-5.58,7.54-6.34,8.15-3.72,2.99-9.05,7.28-17.2,8.15-1.36.14-17.52,1.64-23.54-9.05-2.55-4.54-2.19-9.33-1.81-11.77"/>
    </g>
  </g>
</svg>