<?xml version="1.0" encoding="UTF-8"?>
<svg id="Layer_2" data-name="Layer 2" xmlns="http://www.w3.org/2000/svg" viewBox="0 0 398.85 287.57">
  <defs>
    <style>
      .cls-1 {
        fill: #1d150b;
      }

      .cls-2, .cls-3 {
        fill: #fff;
      }

      .cls-4 {
        fill: #fff9ff;
      }

      .cls-5 {
        fill: #f6efe8;
      }

      .cls-6 {
        fill: #77706c;
      }

      .cls-7 {
        fill: #1c110a;
      }

      .cls-8 {
        fill: #fae5f0;
      }

      .cls-9 {
        fill: #333;
      }

      .cls-10 {
        fill: #ebebeb;
      }

      .cls-11 {
        fill: #ccc;
      }

      .cls-3 {
        stroke: #000;
        stroke-miterlimit: 10;
        stroke-width: .25px;
      }

      .cls-12 {
        fill: #402911;
      }
    </style>
  </defs>
  <g id="Layer_1-2" data-name="Layer 1">
    <g>
      <path class="cls-12" d="M373.99,159.11c1.97-1.34,4.21-1.12,6.34-.91,1.13.11,5.96.59,9.01,4.2,1.71,2.02,1.41,3.31,3.26,4.7,1.76,1.32,3.85,1.53,5.39,1.49-.37.36-.96.83-1.76,1.22-.86.42-1.64.57-2.17.64,1.13,1.2,3.71,4.29,4.53,9.05,1.05,6.02-1.41,10.65-2.16,11.95-.69-1.59-2.01-4.1-4.49-6.47-1.83-1.74-3.67-2.82-5.03-3.48.76,1.51,1.51,3.02,2.27,4.52-1.26-.31-3.23-.97-5.21-2.48-3.25-2.49-4.48-5.73-4.9-7.06.12,1.14.43,2.7,1.27,4.34,1.17,2.31,2.63,3.3,2.45,3.53-.3.39-4.94-1.47-8.24-5.61-.9-1.13-3.72-4.96-3.77-10.45-.02-2.17-.05-6.97,3.21-9.19Z"/>
      <path class="cls-1" d="M338.19,79.1c2.28-2.09,8.33-.15,12,3,6.64,5.69,4.16,14.19,6,34,1.57,16.96,2.45,26.44,9,35,7.94,10.38,19.66,13.48,19,15-.54,1.24-8.93.65-16-4-13-8.56-17.9-28.47-18-43-.08-10.83,2.48-23.09-3-26-1.93-1.02-3.66-.25-6-2-3.9-2.92-5.38-9.81-3-12Z"/>
      <path class="cls-2" d="M282.19,190.1c-4.63,10.17,6.85,17.5,5,39-.63,7.28-1.15,13.37-5,20-4.39,7.56-9.8,10.13-10,17-.02.54-.11,6.7,4,10,1.81,1.45,3.82,1.86,14,2,6.82.1,10.23.14,11,0,14.53-2.69,19.72-39.84,20-42,1.72-13.08,6.54-49.64-10-57-9.44-4.2-24.72,1.61-29,11Z"/>
      <path class="cls-8" d="M243.07,195.87c.38,2.7,2.63,6.45,5.98,7.83,3.99,1.65,6.98-1.12,9.45.83.16.13.3.26.42.42,1.73,2.28,1.56,4.6,1.9,9.31.35,4.79.97,5.49,1.37,5.83,1.43,1.21,4.11,1.18,5,0,.84-1.11-.41-2.53-1.28-6.02-.96-3.89-1.36-10.02,1.34-11.63.23-.14,1.1-.65,1.93-.36,2.55.92.25,7.9,4,11,1.21,1,3.15,1.67,4,1,1.74-1.38-2.56-7.22,0-11,.52-.77,1.48-1.68,2.2-1.48.97.27.75,2.43,1.39,5.84,1.48,7.86,2.23,9.04,3.29,9.5,1.25.54,3.08.14,3.89-.93,1.29-1.69-.87-3.92-1.11-8.99-.1-2-.26-5.43,1.53-6.53,1.65-1.02,3.31.95,6.3.56,2.84-.38,5.49-2.71,6.11-4.54,2-5.86-11.66-21.54-27.89-22.14-15.67-.59-31.02,12.98-29.83,21.5Z"/>
      <path class="cls-2" d="M120.19,193.1c-1.17,2.36-.13,3.22,0,16,.09,8.21-.34,8.25,0,13,.64,8.96,2.21,9.56,2,15-.21,5.57-1.92,9.49-5,16-6.48,13.7-12.77,17.69-11,21,1.22,2.29,6.16,2.22,16,2,10.97-.25,16.46-.38,19-2,7.54-4.82,4.68-16.22,6-41,1.63-30.61,7.42-39.49,1-45-7.42-6.36-24.25-2.54-28,5Z"/>
      <path class="cls-7" d="M273.19,262.1c2.89,1.69,7.67,4.01,14,5,7.48,1.17,13.59-.05,17-1,3.65,7.94,1.58,11.21,1,12-1.55,2.1-4,2.25-18,2-13.92-.25-17.91-.51-19-3-.51-1.17,0-2.78,1-6,1.25-4,2.85-7.06,4-9Z"/>
      <path d="M113.19,261.1c4.01-.6,8.73-1.03,14-1,4.86.03,9.23.44,13,1,4.11,7.44,2.64,10.88,2,12-1.12,1.94-3,2.55-27,3-3.66.07-8.11.11-9-2-.73-1.72,1.05-4.51,2-6,.83-1.3,1.36-1.69,3-4,.88-1.23,1.55-2.29,2-3Z"/>
      <path class="cls-2" d="M65.19,134.1c4.13,3.38,8.2,3.72,15,10,11.16,10.32,13.31,21.55,17,29,8.89,17.95,31.52,23.74,56,30,15.41,3.94,55.08,11.39,95-8,7.34-3.56,13.08-7.25,17-10,3.87,1.47,9.7,3.45,17,5,10.41,2.21,11.69.98,16,3,9.19,4.31,15.08,15.41,16,25,.59,6.14-1.29,7.28-2,20-.35,6.32-.19,11.53,0,15-4.35,6.31-7.18,11.9-9,16-2.64,5.95-2.67,7.66-2,9,.7,1.4,2.49,2.48,15,4,8.62,1.05,12.93,1.58,16,0,9.04-4.64,9-20.25,9-23,0-11.1-4.49-11.99-5-22-.72-14.15,8.01-16.8,9-31,.89-12.78-6.09-15.38-9-31-2.91-15.62,1.54-22.87,4-41,2.14-15.83,5.8-42.77-5-62-15.2-27.07-54.82-31.36-70-33-13.11-1.42-11.46.67-88,9-27.07,2.94-38.06,3.86-53,0-23.69-6.12-27.9-16.63-39-14-27.7,6.57-42.35,81.75-20,100Z"/>
      <path class="cls-10" d="M135.69,167.6c5.43,21.15,4.57,33.29,2.51,40.61-.52,1.82-1.88,6.07-2,12-.16,7.89,2.01,11.92,3,18,.84,5.16.96,12.64-2.51,22.39,3.78.16,8.35.94,10,4,2.67,4.96-4.87,11.25-2.49,15.61,2.39,4.38,13.42,4.39,21,0,8.25-4.78,8.06-19.94,8-25-.15-11.94-4.27-13.27-4-25,.25-10.78,3.74-10.15,4-21,.26-11.01-4.52-15.62-3-27,.56-4.19,1.67-7.51,2.49-9.61"/>
      <path class="cls-7" d="M42.19,21.1c-.31-3.4-5.24-3.75-7-9-1.24-3.71.31-6.24-1-7-1.67-.97-6.21,1.99-8,6-3.01,6.74,1.33,17.34,7,18,4.16.49,9.34-4.36,9-8Z"/>
      <path class="cls-10" d="M114.69,77.6c.21,4.64-.03,12.91-4,22-4.44,10.16-11.19,15.96-16,20-9.69,8.14-19.81,12.04-27,14,.39.53,1.51,1.89,3.51,2.53,2.74.87,5.04-.29,5.49-.53,4.53-.72,11.92-2.76,19-8,21.89-16.22,19.27-47.34,19-50Z"/>
      <path class="cls-2" d="M28.19,21.1c-2.76-1.52-4.89,1.18-10,0-5.79-1.34-6.74-6.4-10-6-3.38.41-6.73,6.17-6,11,.81,5.37,6.46,8.21,16,13,5.29,2.66,7.97,3.96,10,3,5.72-2.71,5.44-17.99,0-21Z"/>
      <path class="cls-5" d="M165.69,184.6c10.03.61,23.54.38,39-3,20.57-4.5,36.14-12.72,46-19,5,7.67,10,15.33,15,23-10.37,6.9-28.85,17.16-54,21-16.11,2.46-29.96,1.52-40,0-2-7.33-4-14.67-6-22Z"/>
      <path class="cls-2" d="M136.19,166.1c7.49,24.52,7.14,37.55,5,45-.44,1.53-1.84,5.93-2,12-.21,8.19,2.08,10.39,3,18,1.54,12.76-2.79,23.97-4,27-3.54,8.88-7.71,12.54-6,15,1.51,2.17,5.54.45,15,0,14.14-.67,16.45,2.64,21,0,8.25-4.78,8.06-19.94,8-25-.15-11.94-4.27-13.27-4-25,.25-10.78,3.74-10.15,4-21,.28-11.57-3.63-15.11-3-27,.34-6.42,1.81-11.61,3-15"/>
      <path class="cls-2" d="M102.19,46.1c3.35,4.08,11.16,14.73,12,30,1.21,22.04-13.02,36.89-16,40-24.04,25.08-71.46,26.72-83,9-6.82-10.47-1.76-28.67,0-35,2.85-10.25,5.23-9.66,9-21,6.84-20.56.54-27.07,8-39,7.56-12.1,20.41-15.59,22-16,11.27-2.88,20.67.59,24,2,5,3.67,10,7.33,15,11,2.58-.2,6.28-.85,10-3,6.25-3.62,6.74-8.13,11-9,4.9-1,11.55,3.49,13,9,2.39,9.08-10.41,17.04-12,18-5.08,3.07-10.07,3.81-13,4Z"/>
      <path class="cls-7" d="M37.19,122.1c-6.75,1.3-15.86,5.97-16,12-.09,3.76,3.35,6.62,5,8,8.43,7.03,22.51,6.21,32,0,3.18-2.08,7.03-4.59,7-8-.05-6.7-15.06-14.5-28-12Z"/>
      <path class="cls-7" d="M.19,110.1c.27-4.5.68-11.33,5-17,6.21-8.15,16.79-9.01,29-10,12.65-1.02,23.82-1.93,35,5,3.19,1.98,14.94,9.26,17,23,.13.89,2.2,16.07-7,23-8.77,6.6-22.84,2.01-29,0-9.64-3.15-11.57-6.86-18-6-7.23.97-8.95,6.22-16,6-6.83-.21-11.42-5.33-12-6C-.56,122.63-.15,115.79.19,110.1Z"/>
      <path class="cls-7" d="M73.19,20.1c1.31-.73,3.19-1.98,5-4,2.77-3.09,3.77-6.24,4-7,1.56-5.17-.19-8.38,1-9,1.57-.81,6.59,3.67,9,9,4.49,9.93-.86,21.06-3,25"/>
      <g>
        <path class="cls-2" d="M265.19,185.1c-4.17-3.06-9.55-7.87-14-15-11.06-17.73-8.08-36.53-7-42"/>
        <path class="cls-11" d="M265.19,185.1c-16-10.55-24.19-30.22-22.28-49.06.26-2.67.66-5.33,1.28-7.94-3.54,21.6,3.38,43.43,21,57h0Z"/>
      </g>
      <path class="cls-7" d="M166.19,93.1c-2.44-1-11.68-4.81-18,0-5.09,3.87-7.16,12.47-4,17,4.47,6.42,16.39.27,22,7,5.03,6.04-1.84,14.27,3,20,6.08,7.19,23.17,1.58,28,0,6.48-2.13,17.95-5.89,21-15,1.63-4.89-.84-6.26,0-15,1.08-11.2,5.57-13.37,4-18-2.68-7.9-19.84-13.55-31-8-9.29,4.62-11.99,15.77-19,15-2.24-.25-2.11-1.4-6-3Z"/>
      <path d="M137.19,272.1c5.16.97,11.21,1.77,18,2,7.59.26,14.34-.24,20-1,.5,2.41,1.45,8.52-2,12-2.58,2.6-6.08,2.19-13,2-19.77-.54-27.17,1.88-29-2-1.05-2.23.29-5.34,1-7,1.47-3.42,3.94-5.29,5-6Z"/>
      <path class="cls-7" d="M303.19,269.1c1.78.98,4.5,2.26,8,3,5.04,1.07,8.48.35,15,0,3.11-.17,7.56-.29,13,0,.31,2.94.38,8.3-3,12-3.78,4.14-9.62,3.75-21,3-7.07-.47-17.04-1.07-18-5-.23-.94.68-2.81,2.5-6.5,1.33-2.7,2.57-4.9,3.5-6.5Z"/>
      <path class="cls-7" d="M254.19,60.1c-5.95,4.75-3.14,23.99,6,28,4.65,2.04,6.64-1.76,15-2,14.95-.43,20.93,11.38,29,8,6.98-2.93,7.93-14.04,8-15,.68-9.27-5.17-15.83-8-19-8.99-10.08-25.01-16.21-32-11-3.02,2.25-2.62,5.33-7,8-4.95,3.03-8.17.74-11,3Z"/>
      <path class="cls-7" d="M124.19,48.1c1.81,10.74,5.16,14.06,8,15,4.67,1.55,7.32-3.52,15-3,7.52.5,9.69,5.67,15,4,2.91-.92,2.71-2.61,8-5,3.24-1.46,4.72-1.46,6-3,1.85-2.21,1.55-5.52,1-8-6.83,1.11-12.64,1.68-17,2-7.18.52-14.55,1.02-24,0-5.03-.54-9.15-1.35-12-2Z"/>
      <path class="cls-7" d="M292.19,128.1c-5.04-1.01-9.01.99-11,2-2.58,1.3-8.87,4.47-9,10-.11,4.4,3.72,9.01,7,9,2.88-.01,4.3-3.58,6-3,2.2.76.19,6.87,3,9,2.96,2.24,10.59-.47,14-6,3.36-5.45,1.24-11.36,1-12-2.72-7.21-10.31-8.86-11-9Z"/>
      <path class="cls-7" d="M109.19,142.1c3.34-1.17,6.66-2.32,11-2,7.73.58,16.28,5.67,16,10-.27,4.08-8.23,4.64-9,10-.63,4.35,4.12,7.55,3,9-.91,1.19-4.32-.65-12-3-8.84-2.71-9.76-1.93-13-4-3.29-2.1-9.06-7.19-8-12,.91-4.13,6.39-6.04,12-8Z"/>
      <circle class="cls-6" cx="21.69" cy="102.6" r="4.5"/>
      <circle class="cls-6" cx="47.69" cy="102.6" r="4.5"/>
      <circle class="cls-3" cx="34.14" cy="56.35" r="10.55"/>
      <circle class="cls-3" cx="74.47" cy="56.02" r="11.22"/>
      <circle class="cls-9" cx="31.45" cy="56.12" r="8.12"/>
      <circle class="cls-9" cx="71.43" cy="55.77" r="8.63"/>
      <circle cx="29.86" cy="56.21" r="4.92"/>
      <circle cx="70.77" cy="55.87" r="5.24"/>
      <circle class="cls-2" cx="35.11" cy="51.32" r="3.33"/>
      <circle class="cls-2" cx="74.92" cy="50.68" r="3.54"/>
      <path class="cls-2" d="M71.69,19.6c.93-.11,2.36-.36,4-1,1.68-.65,2.17-1.16,3-1,1.31.25,1.41,1.74,3,4,.78,1.1,2.82,4.01,6,5,2.13.67,3.47.07,4,1,.44.77-.22,1.67-1,4-.56,1.67-.85,3.09-1,4"/>
      <path class="cls-2" d="M21.69,131.6c4.43-3.29,10.27-5.35,15.74-3.69,1.81.53,3.45,1.45,5.08,2.3,3.22,1.79,6.66,3.12,10.24,3.98,3.57.87,7.25,1.3,10.94,1.41-3.69.07-7.41-.23-11.03-1.04-3.63-.78-7.13-2.15-10.39-3.91-1.63-.87-3.23-1.78-4.97-2.31-5.36-1.64-11.06.23-15.61,3.26h0Z"/>
      <path class="cls-7" d="M325.19,175.1c-4.3,5.44-2.07,12.58-1,16,2.24,7.15,7.87,13.88,11,13,1.4-.39,1.46-2.06,5-6,1.22-1.35,2.3-2.37,3-3-1.55-3.39-3.1-7.23-4.5-11.5-1.6-4.88-2.71-9.43-3.5-13.5-1.5.14-6.69.82-10,5Z"/>
      <path class="cls-10" d="M176.69,171.6c.42.07-1.39,7.01-1,18,.37,10.32,2.42,16.9,2,17-.45.1-3.49-7.03-4-16-.6-10.5,2.52-19.08,3-19Z"/>
      <path class="cls-4" d="M261.69,213.6c-.29.06-.15,1.9,0,3,.2,1.45.33,2.27,1,3,.16.18.89.97,2,1,.97.02,2.03-.55,2-1-.02-.43-1.01-.42-2-1-2.46-1.43-2.6-5.08-3-5Z"/>
      <path class="cls-4" d="M271.69,202.6c-.75-.77-1.92-1.13-2-1-.07.1.55.46,1,1,1.5,1.78.03,3.96,1,7,.56,1.77,1.73,3.11,2,3,.29-.12-.63-1.84-1-5-.31-2.66.05-3.93-1-5Z"/>
      <path class="cls-4" d="M285.69,216.6c-.16-.22.7-.75,1-2,.28-1.15-.15-1.95,0-2,.23-.08,1.67,1.69,1,3-.48.93-1.82,1.24-2,1Z"/>
      <path class="cls-10" d="M304.69,265.6c-1.03-.18-1.59-5.34,0-10,.59-1.73,1.37-3.07,2-4-.49-2.78-1.04-6.95-1-12,.05-6.08.83-7.4,2-18,.49-4.41,1.22-12.84-1-18-1.19-2.76-3-5-3-5-.58-.45-1.36-1.17-2.08-2.21-.25-.37-1.09-1.65-.92-1.79.31-.26,4.27,3.41,7,7,5.86,7.71,6.82,16.1,7,18,.64,6.73-1.24,8.21-2,19-.42,5.89-.23,10.76,0,14-1,1.31-2.46,3.36-4,6-2.72,4.68-3.27,7.13-4,7Z"/>
    </g>
  </g>
</svg>