<?xml version="1.0" encoding="UTF-8"?>
<svg id="Layer_2" data-name="Layer 2" xmlns="http://www.w3.org/2000/svg" viewBox="0 0 399.85 285.17">
  <defs>
    <style>
      .cls-1 {
        fill: #fae5f0;
      }

      .cls-1, .cls-2, .cls-3, .cls-4, .cls-5, .cls-6, .cls-7, .cls-8 {
        stroke-miterlimit: 10;
      }

      .cls-1, .cls-2, .cls-5, .cls-6 {
        stroke: #231f20;
      }

      .cls-2, .cls-9, .cls-3 {
        fill: #fff;
      }

      .cls-3, .cls-7, .cls-8 {
        stroke: #000;
      }

      .cls-4 {
        stroke: #fff;
      }

      .cls-4, .cls-7 {
        fill: #1c110a;
      }

      .cls-10 {
        fill: #333;
      }

      .cls-5 {
        fill: #1d150b;
      }

      .cls-6 {
        fill: none;
      }

      .cls-8 {
        fill: #402911;
      }
    </style>
  </defs>
  <g id="Layer_1-2" data-name="Layer 1">
    <g>
      <path class="cls-8" d="M374.49,159.61c1.97-1.34,4.21-1.12,6.34-.91,1.13.11,5.96.59,9.01,4.2,1.71,2.02,1.41,3.31,3.26,4.7,1.76,1.32,3.85,1.53,5.39,1.49-.37.36-.96.83-1.76,1.22-.86.42-1.64.57-2.17.64,1.13,1.2,3.71,4.29,4.53,9.05,1.05,6.02-1.41,10.65-2.16,11.95-.69-1.59-2.01-4.1-4.49-6.47-1.83-1.74-3.67-2.82-5.03-3.48.76,1.51,1.51,3.02,2.27,4.52-1.26-.31-3.23-.97-5.21-2.48-3.25-2.49-4.48-5.73-4.9-7.06.12,1.14.43,2.7,1.27,4.34,1.17,2.31,2.63,3.3,2.45,3.53-.3.39-4.94-1.47-8.24-5.61-.9-1.13-3.72-4.96-3.77-10.45-.02-2.17-.05-6.97,3.21-9.19Z"/>
      <path class="cls-5" d="M338.69,79.6c2.28-2.09,8.33-.15,12,3,6.64,5.69,4.16,14.19,6,34,1.57,16.96,2.45,26.44,9,35,7.94,10.38,19.66,13.48,19,15-.54,1.24-8.93.65-16-4-13-8.56-17.9-28.47-18-43-.08-10.83,2.48-23.09-3-26-1.93-1.02-3.66-.25-6-2-3.9-2.92-5.38-9.81-3-12Z"/>
      <path class="cls-2" d="M282.69,190.6c-4.63,10.17,6.85,17.5,5,39-.63,7.28-1.15,13.37-5,20-4.39,7.56-9.8,10.13-10,17-.02.54-.11,6.7,4,10,1.81,1.45,3.82,1.86,14,2,6.82.1,10.23.14,11,0,14.53-2.69,19.72-39.84,20-42,1.72-13.08,6.54-49.64-10-57-9.44-4.2-24.72,1.61-29,11Z"/>
      <path class="cls-1" d="M243.57,196.38c.38,2.7,2.63,6.45,5.98,7.83,3.99,1.65,6.98-1.12,9.45.83.16.13.3.26.42.42,1.73,2.28,1.56,4.6,1.9,9.31.35,4.79.97,5.49,1.37,5.83,1.43,1.21,4.11,1.18,5,0,.84-1.11-.41-2.53-1.28-6.02-.96-3.89-1.36-10.02,1.34-11.63.23-.14,1.1-.65,1.93-.36,2.55.92.25,7.9,4,11,1.21,1,3.15,1.67,4,1,1.74-1.38-2.56-7.22,0-11,.52-.77,1.48-1.68,2.2-1.48.97.27.75,2.43,1.39,5.84,1.48,7.86,2.23,9.04,3.29,9.5,1.25.54,3.08.14,3.89-.93,1.29-1.69-.87-3.92-1.11-8.99-.1-2-.26-5.43,1.53-6.53,1.65-1.02,3.31.95,6.3.56,2.84-.38,5.49-2.71,6.11-4.54,2-5.86-11.66-21.54-27.89-22.14-15.67-.59-31.02,12.98-29.83,21.5Z"/>
      <path class="cls-2" d="M120.69,193.6c-1.17,2.36-.13,3.22,0,16,.09,8.21-.34,8.25,0,13,.64,8.96,2.21,9.56,2,15-.22,5.72-2.13,9.84-5,16-5.02,10.79-9.57,14.2-8,17,.9,1.6,3.07,1.71,13,2,11.35.33,17.04.49,18,0,7.06-3.61,5.38-15.25,7-39,2.16-31.64,7.1-39.77,1-45-7.42-6.36-24.25-2.54-28,5Z"/>
      <path class="cls-2" d="M65.69,134.6c4.13,3.38,8.2,3.72,15,10,11.16,10.32,13.31,21.55,17,29,8.89,17.95,31.52,23.74,56,30,15.41,3.94,55.08,11.39,95-8,7.34-3.56,13.08-7.25,17-10,3.87,1.47,9.7,3.45,17,5,10.41,2.21,11.69.98,16,3,9.19,4.31,15.08,15.41,16,25,.59,6.14-1.29,7.28-2,20-.35,6.32-.19,11.53,0,15-4.35,6.31-7.18,11.9-9,16-2.64,5.95-2.67,7.66-2,9,.7,1.4,2.49,2.48,15,4,8.62,1.05,12.93,1.58,16,0,9.04-4.64,9-20.25,9-23,0-11.1-4.49-11.99-5-22-.72-14.15,8.01-16.8,9-31,.89-12.78-6.09-15.38-9-31-2.91-15.62,1.54-22.87,4-41,2.14-15.83,5.8-42.77-5-62-15.2-27.07-54.82-31.36-70-33-13.11-1.42-11.46.67-88,9-27.07,2.94-38.06,3.86-53,0-23.69-6.12-27.9-16.63-39-14-27.7,6.57-42.35,81.75-20,100Z"/>
      <path class="cls-2" d="M43.69,19.6c-.31-3.4-5.24-3.75-7-9-1.24-3.71.31-6.24-1-7-1.67-.97-6.21,1.99-8,6-3.01,6.74,1.33,17.34,7,18,4.16.49,9.34-4.36,9-8Z"/>
      <path class="cls-2" d="M28.69,21.6c-2.76-1.52-4.89,1.18-10,0-6.23-1.45-8.72-6.79-10-6-1.56.96,1.87,9.01,4,14,3.14,7.35,4.76,9,6,10,.5.4,6.12,4.84,10,3,5.72-2.71,5.44-17.99,0-21Z"/>
      <path class="cls-2" d="M136.69,166.6c7.49,24.52,7.14,37.55,5,45-.44,1.53-1.84,5.93-2,12-.21,8.19,2.08,10.39,3,18,1.54,12.76-2.79,23.97-4,27-3.54,8.88-7.71,12.54-6,15,1.51,2.17,5.54.45,15,0,14.14-.67,16.45,2.64,21,0,8.25-4.78,8.06-19.94,8-25-.15-11.94-4.27-13.27-4-25,.25-10.78,3.74-10.15,4-21,.28-11.57-3.63-15.11-3-27,.34-6.42,1.81-11.61,3-15"/>
      <path class="cls-2" d="M102.69,46.6c3.35,4.08,11.16,14.73,12,30,1.21,22.04-13.02,36.89-16,40-24.04,25.08-71.46,26.72-83,9-6.82-10.47-1.76-28.67,0-35,2.85-10.25,5.23-9.66,9-21,6.84-20.56.54-27.07,8-39,7.56-12.1,20.41-15.59,22-16,11.27-2.88,20.67.59,24,2,1.35-1.49,3.09-3.82,4-7,1.44-5.01-.24-8.36,1-9,1.73-.9,7.51,4.33,10,11,2.54,6.81.93,13.17,0,16,2.58-.2,6.28-.85,10-3,6.25-3.62,6.74-8.13,11-9,4.9-1,11.55,3.49,13,9,2.39,9.08-10.41,17.04-12,18-5.08,3.07-10.07,3.81-13,4Z"/>
      <path class="cls-2" d="M37.69,122.6c-6.75,1.3-15.86,5.97-16,12-.09,3.76,3.35,6.62,5,8,8.43,7.03,22.51,6.21,32,0,3.18-2.08,7.03-4.59,7-8-.05-6.7-15.06-14.5-28-12Z"/>
      <path class="cls-2" d="M.69,110.6c.27-4.5.68-11.33,5-17,6.21-8.15,16.79-9.01,29-10,12.65-1.02,23.82-1.93,35,5,3.19,1.98,14.94,9.26,17,23,.13.89,2.2,16.07-7,23-8.77,6.6-22.84,2.01-29,0-9.64-3.15-11.57-6.86-18-6-7.23.97-8.95,6.22-16,6-6.83-.21-11.42-5.33-12-6C-.06,123.14.35,116.3.69,110.6Z"/>
      <path class="cls-6" d="M73.69,20.6c1.67-1.33,3.33-2.67,5-4"/>
      <path class="cls-6" d="M89.69,34.6c1.33-2.33,2.67-4.67,4-7"/>
      <path class="cls-6" d="M265.69,185.6c-4.17-3.06-9.55-7.87-14-15-11.06-17.73-8.08-36.53-7-42"/>
      <path class="cls-4" d="M166.69,93.6c-2.44-1-11.68-4.81-18,0-5.09,3.87-7.16,12.47-4,17,4.47,6.42,16.39.27,22,7,5.03,6.04-1.84,14.27,3,20,6.08,7.19,23.17,1.58,28,0,6.48-2.13,17.95-5.89,21-15,1.63-4.89-.84-6.26,0-15,1.08-11.2,5.57-13.37,4-18-2.68-7.9-19.84-13.55-31-8-9.29,4.62-11.99,15.77-19,15-2.24-.25-2.11-1.4-6-3Z"/>
      <path class="cls-6" d="M136.69,272.6c5.16-.53,11.62-.76,19,0,7.56.78,13.98,2.38,19,4"/>
      <path class="cls-6" d="M113.69,261.6h27"/>
      <path class="cls-6" d="M272.69,266.6h32"/>
      <path class="cls-6" d="M303.69,269.6c3.62-.4,8.03-.55,13,0,9.7,1.08,17.22,4.38,22,7"/>
      <path class="cls-4" d="M254.69,60.6c-5.95,4.75-3.14,23.99,6,28,4.65,2.04,6.64-1.76,15-2,14.95-.43,20.93,11.38,29,8,6.98-2.93,7.93-14.04,8-15,.68-9.27-5.17-15.83-8-19-8.99-10.08-25.01-16.21-32-11-3.02,2.25-2.62,5.33-7,8-4.95,3.03-8.17.74-11,3Z"/>
      <path class="cls-7" d="M124.69,48.6c1.81,10.74,5.16,14.06,8,15,4.67,1.55,7.32-3.52,15-3,7.52.5,9.69,5.67,15,4,2.91-.92,2.71-2.61,8-5,3.24-1.46,4.72-1.46,6-3,1.85-2.21,1.55-5.52,1-8-6.83,1.11-12.64,1.68-17,2-7.18.52-14.55,1.02-24,0-5.03-.54-9.15-1.35-12-2Z"/>
      <path class="cls-4" d="M292.69,128.6c-2.83.52-2.9,2.86-7,6-6.37,4.88-13.05,4.5-13,6,.06,1.72,8.84.57,13,6,2.96,3.87,1.94,8.92,3,9,1.43.1.95-9.29,7-14,3.81-2.97,7.33-1.84,8-4,1.01-3.26-5.76-9.97-11-9Z"/>
      <path class="cls-4" d="M109.69,142.6c3.34-1.17,6.66-2.32,11-2,7.73.58,16.28,5.67,16,10-.27,4.08-8.23,4.64-9,10-.63,4.35,4.12,7.55,3,9-.91,1.19-4.32-.65-12-3-8.84-2.71-9.76-1.93-13-4-3.29-2.1-9.06-7.19-8-12,.91-4.13,6.39-6.04,12-8Z"/>
      <circle class="cls-6" cx="22.19" cy="103.1" r="4.5"/>
      <circle class="cls-6" cx="48.19" cy="103.1" r="4.5"/>
      <circle class="cls-3" cx="34.64" cy="56.85" r="10.55"/>
      <circle class="cls-3" cx="74.97" cy="56.52" r="11.22"/>
      <circle class="cls-10" cx="31.95" cy="56.62" r="8.12"/>
      <circle class="cls-10" cx="71.93" cy="56.28" r="8.63"/>
      <circle cx="30.36" cy="56.72" r="4.92"/>
      <circle cx="71.27" cy="56.38" r="5.24"/>
      <circle class="cls-9" cx="35.61" cy="51.83" r="3.33"/>
      <circle class="cls-9" cx="75.42" cy="51.18" r="3.54"/>
    </g>
  </g>
</svg>