<?xml version="1.0" encoding="UTF-8"?>
<svg id="Layer_2" data-name="Layer 2" xmlns="http://www.w3.org/2000/svg" viewBox="0 0 97.04 149.64">
  <defs>
    <style>
      .cls-1 {
        fill: #fff;
      }

      .cls-2 {
        fill: #ffbd42;
      }

      .cls-3 {
        fill: #ba7200;
      }

      .cls-4 {
        fill: #404040;
      }

      .cls-5 {
        fill: #fec00f;
      }

      .cls-6 {
        fill: #feea59;
      }

      .cls-7 {
        fill: #e7a742;
      }

      .cls-8 {
        fill: #f0d64b;
      }
    </style>
  </defs>
  <g id="Layer_1-2" data-name="Layer 1">
    <g>
      <path class="cls-5" d="M65.51,130.36v6.62c2.73-.24,5.08-.44,7.28-.66.95-.09,2.41-.24,3.31.66.42.42.59.94.66,1.32,1.12-.19,1.99.6,1.99,1.32,0,.56-.54,1.16-1.32,1.32.15.48.31,1.24,0,1.99-.14.34-.67,1.39-3.31,1.99-2.65.6-3.86-.06-8.6-.66-3.9-.49-5.6-.36-5.96-1.32-.29-.81.55-1.87,1.32-2.65v-7.94"/>
      <path class="cls-6" d="M61.87,69.15c5.92.24,10.17.39,15.88-.66,7.55-1.39,14.02-2.58,17.2-7.94,1.55-2.61,3.03-7.39,1.32-11.25-.78-1.77-1.76-2.27-2.65-4.63-1.25-3.35-.77-6.32-.66-7.28.84-7.57-4.46-18.87-12.57-24.48-1.65-1.14-4.35-2.69-8.27-3.64,2.16-1.18,4.01-1.71,5.29-1.99,1.9-.4,3.1-.33,3.97-1.32.74-.84,1.07-2.24.66-3.31C80.99-.11,75.27-.01,74.11,0c-5.08.08-8.72,2.49-9.93,3.31-2.66,1.8-4.34,3.89-5.29,5.29.12-.71.54-3.62-1.32-5.96-.42-.53-1.72-2.15-3.31-1.99-1.87.19-3.15,2.73-3.31,4.63-.06.77.18,1.83.66,3.97.25,1.11.49,2.02.66,2.65-9.76,6.62-12.74,12.88-13.56,17.53-.84,4.76.65,7.43-1.32,13.9-1.87,6.1-4.3,7.36-3.97,11.25.49,5.67,6.23,9.46,7.94,10.59,4.96,3.27,10.21,3.55,20.51,3.97Z"/>
      <path class="cls-6" d="M79.4,68.16c2.27,3.11,5.44,8.24,7.28,15.22,1.1,4.15,3.82,15.09-1.32,27.13-5.75,13.47-17.44,19.14-20.51,20.51-18.23,8.12-35.44-.78-39.04-2.65-4.6-2.38-14.92-7.72-19.85-19.85-3.4-8.37-2.64-16.04-1.99-19.85C1.56,88.71,0,87.58,0,86.69c0-.76,1.13-1.6,2.65-1.99-1.5-1.07-1.59-3.06-.66-3.97.74-.73,2.18-.82,3.31,0,.08-.73.33-2.08,1.32-3.31,1.17-1.44,3.23-2.56,3.97-1.99.52.4.06,1.39,0,3.31-.06,1.92.3,3.51.66,4.63,1.39-1.66,3.55-3.9,6.62-5.96,5.54-3.71,10.82-4.66,14.56-5.29,4.9-.83,10.53-1.78,17.2,0,4.12,1.1,7.31,2.88,9.26,1.32,1.31-1.05,1.42-3.11,1.32-4.63,2.53.43,5.67.76,9.26.66,3.92-.1,7.28-.68,9.93-1.32Z"/>
      <path class="cls-5" d="M53.6,45c-1.54.46-3.87.96-6.62.66-4.74-.51-7.36-3.01-8.6-1.99-1.34,1.11.33,5.15.66,5.96,1.03,2.48,3.62,7.28,10.59,11.25-.25.06-3.02.73-3.97,3.31-.14.37-.74,2,0,3.31,1.7,3.01,8.91,1.53,9.93,1.32,2.97-.61,5.22-1.78,6.62-2.65.19-1.97.11-4.7-1.32-7.28-1.36-2.44-2.97-3-4.63-5.29-1.21-1.67-2.5-4.34-2.65-8.6Z"/>
      <path class="cls-3" d="M49.63,60.88c1.19-.37,3.09-.55,3.31,0,.3.77-2.81,2.62-3.97,3.31-1.46.87-2.91,1.72-3.31,1.32-.41-.41.42-2.02,1.34-3.01.23-.25,1.11-1.15,2.63-1.62Z"/>
      <ellipse class="cls-1" cx="43.33" cy="35.91" rx="5.83" ry="5.91"/>
      <path class="cls-2" d="M41.69,90.66c-5.67-.34-10.4-.21-13.9,0-4.88.3-11.61.74-11.91,2.65-.08.49.3.97.66,1.32-.67-.15-1.88-.34-3.31,0-.81.19-2.72.65-3.31,1.99-.64,1.46.35,3.75,2.65,5.29-.15.94-.27,2.34,0,3.97.64,3.83,2.98,6.27,4.63,7.94,4.62,4.68,10.11,6.19,11.91,6.62,7.68,1.82,13.87-.53,15.88-1.32,3.2-1.26,8.3-3.28,11.25-8.6.73-1.32,3.68-6.65,1.32-11.91-1.08-2.4-2.84-3.86-3.97-4.63"/>
      <path class="cls-7" d="M12.9,101.53c5.25,4.87,12.37,7.49,19.52,7.66-7.25.17-14.6-2.18-20.18-6.9,0,0,.66-.75.66-.75h0Z"/>
      <path class="cls-7" d="M16.84,94.22c5.25,4.16,12.43,5.13,18.89,3.71-6.51,1.77-13.87,1.1-19.48-2.91,0,0,.59-.81.59-.81h0Z"/>
      <path class="cls-5" d="M44.33,127.71c.62,2.4,1.33,5.86,1.32,9.26,0,.86-.05,1.81-.66,2.65-.79,1.09-1.79.97-3.97,1.99-1.49.69-3.93,1.82-3.97,3.31-.03,1.07,1.2,1.9,1.32,1.99,2.18,1.44,4.54-.73,6.62.66.85.57.87,1.65,1.99,1.99.13.04.69.19,1.32,0,1.09-.33,1.1-1.28,1.99-1.99,1.38-1.11,2.47.31,5.29-.66,1-.34,1.6-.77,2.65-.66.57.06,1.05.26,1.32,0,.36-.34.04-1.2,0-1.32-.31-.86-1.17-1.76-5.29-3.31-2.49-.94-3.3-1.04-3.97-1.99-.63-.9-.66-1.89-.66-2.65,0-3.7.81-7.69,1.32-9.93-.49-.25-1.7-.8-3.31-.66-1.72.14-2.88.98-3.31,1.32Z"/>
      <circle class="cls-4" cx="41.63" cy="36.7" r="3.99"/>
      <circle cx="41.34" cy="36.99" r="2.56"/>
      <circle class="cls-1" cx="43.91" cy="34.85" r="1.71"/>
      <ellipse class="cls-1" cx="63.5" cy="36.6" rx="7" ry="7.1"/>
      <circle class="cls-4" cx="61.65" cy="37.55" r="4.79"/>
      <circle cx="61.31" cy="37.89" r="3.08"/>
      <circle class="cls-1" cx="64.39" cy="35.13" r="2.05"/>
      <path class="cls-8" d="M60.5,69c2.5.1,5.18.11,8,0,3.98-.15,7.66-.52,11-1-1.52.96-5.08,2.9-10,3-4.2.09-7.4-1.22-9-2Z"/>
    </g>
  </g>
</svg>