<?xml version="1.0" encoding="UTF-8"?>
<svg id="Layer_2" data-name="Layer 2" xmlns="http://www.w3.org/2000/svg" viewBox="0 0 123.79 83.28">
  <defs>
    <style>
      .cls-1 {
        fill: #fff;
      }

      .cls-2 {
        fill: none;
      }

      .cls-3 {
        fill: #ffcb76;
      }

      .cls-4 {
        fill: #ffb864;
      }

      .cls-5 {
        fill: #ffa438;
      }

      .cls-6 {
        fill: #333;
      }
    </style>
  </defs>
  <g id="Layer_1-2" data-name="Layer 1">
    <g>
      <path class="cls-3" d="M52.61,7.63C55.48,2.59,60.06-.44,64.4.05c.87.1,4.24.48,5.89,3.37,1.75,3.05.16,6.41,0,6.74"/>
      <path class="cls-4" d="M7.01,31.62c.25-.86,2.07-6.56,5.78-11.56C24.05,4.9,53.98-.24,74.73,12.62c11.87,7.36,17.41,18.57,19.82,24.77,21.67-20.37,27.93-24.26,29.06-23.24,1.04.94-2.83,5.57-4,15-.61,4.92.16,5.93,0,11-.37,11.65-4.7,13.78-5,22-.45,12.07,8.41,19.78,7,21-1.09.95-7.16-3.09-27.88-23.46-6.29,4.75-23.83,16.59-47.07,14.86-7.23-.54-30.02-2.23-38.04-18.4-5.37-10.83-1.86-23.61-1.59-24.54Z"/>
      <circle class="cls-1" cx="8.91" cy="28.75" r="8.91"/>
      <circle class="cls-1" cx="30.97" cy="29.75" r="8.91"/>
      <circle class="cls-6" cx="9.17" cy="28.56" r="6.86"/>
      <circle class="cls-6" cx="30.93" cy="29.56" r="6.86"/>
      <circle cx="8.67" cy="28.63" r="4.16"/>
      <circle cx="31.2" cy="29.63" r="4.16"/>
      <circle class="cls-1" cx="13.1" cy="24.51" r="2.81"/>
      <circle class="cls-1" cx="34.5" cy="25.51" r="2.81"/>
      <path class="cls-5" d="M13.61,49.16c.22,3.27,4.3,4.99,6.69,2.69.74-.68,1.21-1.64,1.31-2.69.11,1.05-.29,2.16-1.04,2.96-2.45,2.76-7.31.73-6.96-2.96h0Z"/>
      <path class="cls-5" d="M57.61,33.16c.67-2.81,3.6-6.3,6.83-4.97,2.93,1.57,3.6,5.7,2.28,8.58-.98,1.98-2.95,3.26-5.03,3.75l.06-.69c1.69.71,3.18,1.97,3.95,3.68,1.53,3.1.25,8.91-4.1,7.96-1.79-.41-3.22-1.74-3.99-3.3,1.24,2.13,4.12,3.94,6.43,2.52,2.04-1.53,1.96-4.76,1.06-6.91-.84-1.88-2.74-3.03-4.64-3.69,2.22-.47,4.6-1.52,5.63-3.63,1.2-2.48.65-6.34-1.87-7.82-2.95-1.25-5.72,1.91-6.61,4.52h0Z"/>
      <path class="cls-5" d="M66.61,12.16c6.91,7.48,8.26,18.89,4.34,28.14,0,0,0-.31,0-.31,3.48,7.07,3.76,15.73.18,22.82-1.18,2.33-2.7,4.49-4.51,6.35,1.69-1.97,3.12-4.15,4.18-6.51,3.26-7.02,2.9-15.44-.51-22.33,0,0-.07-.15-.07-.15l.06-.15c3.91-9.08,2.67-20.15-3.66-27.86h0Z"/>
      <path class="cls-5" d="M72.08,14.66c6.77,6.5,8.33,17.12,4.34,25.51,0,0-.01-.33-.01-.33,3.5,6.37,3.76,14.48.12,20.83-1.19,2.09-2.68,3.99-4.44,5.61,1.63-1.73,3.05-3.67,4.11-5.78,3.32-6.3,2.98-14.13-.44-20.3,0,0-.09-.16-.09-.16l.08-.17c3.97-8.21,2.52-18.46-3.66-25.2h0Z"/>
      <path class="cls-5" d="M78.07,17.66c6.63,5.61,8.41,15.06,4.33,22.73,0,0-.01-.36-.01-.36,3.53,5.62,3.76,13.17.03,18.74-1.19,1.83-2.66,3.46-4.35,4.82,1.57-1.49,2.96-3.16,4.03-5.02,3.39-5.52,3.08-12.74-.34-18.16,0,0-.11-.18-.11-.18l.1-.18c4.05-7.41,2.35-16.57-3.67-22.39h0Z"/>
      <path class="cls-2" d="M114.61,62.16l-12-6"/>
      <path class="cls-2" d="M119.61,29.16l-8,4"/>
      <path class="cls-2" d="M117.61,51.16c-5.33-1.67-10.67-3.33-16-5"/>
    </g>
  </g>
</svg>