<?xml version="1.0" encoding="UTF-8"?>
<svg id="Layer_2" data-name="Layer 2" xmlns="http://www.w3.org/2000/svg" viewBox="0 0 191.74 216.8">
  <defs>
    <style>
      .cls-1 {
        fill: #d68e13;
      }

      .cls-2 {
        fill: #fff;
      }

      .cls-3 {
        fill: #f9ad4a;
      }

      .cls-4 {
        fill: none;
      }

      .cls-5 {
        fill: #f8981d;
      }

      .cls-6 {
        fill: #333;
      }

      .cls-7 {
        fill: #efefef;
      }

      .cls-8 {
        fill: #f7f7f7;
      }
    </style>
  </defs>
  <g id="Layer_1-2" data-name="Layer 1">
    <g>
      <path class="cls-5" d="M65.59,188.24c.96,2.02,2.12,5.17,2,9-.22,7.15-4.69,10.79-3,14,.65,1.23,1.7,1.43,9,3,12.38,2.66,16.77,3.67,20,1,.48-.4.81-.77,1-1,3.74.34,6.49-.47,7-2,.1-.31.28-1.15-1-3-.78-1.13-2.92-3.82-9-6-2.28-.82-5.68-1.77-10-2-.13-1.37-.19-3.07,0-5,.19-1.97.59-3.66,1-5"/>
      <path class="cls-5" d="M110.59,191.24c.77,1.09,1.74,2.8,2,5,.47,4-1.84,5.76-1,8,.62,1.66,2.37,1.96,10,4,5.65,1.51,8.9,2.46,14,3,3.89.41,6.29.31,7-1,.35-.64.2-1.41,0-2,1.24.19,3.69.36,6-1,.88-.52,1.8-1.06,2-2,.42-1.97-2.66-4.08-4-5-2.68-1.84-5.26-2.58-7-3-2.86-.69-7.31-1.42-13-1-.79-.68-2.08-1.98-3-4-.72-1.6-.94-3.05-1-4"/>
      <path class="cls-2" d="M107.59,6.24c2.76,5.96,20.85,4.7,32,10,12.05,5.73,16.49,19.37,18,24,1.34,4.12,6.62,20.33-2,32-4.43,5.99-11.11,8.88-16,11-5.92,2.56-11.26,3.57-15,4,.8,1.69,2.1,4.19,4,7,5.48,8.11,11.17,11.66,15,15,8.57,7.46,13.87,19.04,15,29,1.81,16.01-7.12,28.4-9,31-12.25,16.98-31.78,20.4-41,22-3.4.59-42.89,6.87-64-18-3.45-4.06-5.63-8.04-7-11-6.17-2.45-10.38-5.63-13-8-2.96-2.68-8.36-7.56-7-11,.3-.75,1.24-2.26,5-3-3.5-2.45-8.32-6.31-13-12-1.51-1.84-12.19-14.82-9-19,.74-.97,2.93-2.38,11,0-1.82-2.58-4.27-6.62-6-12-1.34-4.17-2.98-9.25-1-11,2.07-1.83,7.1.82,13,4,7,3.78,16.18,8.81,27,15,.39-1.43,1.2-3.72,3-6,1.42-1.8,2.86-3.61,5-4,2.55-.46,4.74,1.35,9,5,1.87,1.6,4.35,3.91,7,7-.08-3.57,1.12-6.44,3-7,1.44-.43,2.93.56,5,2,1.74,1.21,3.95,3.1,6,6,1.46-2.62,2.4-3.09,3-3,.45.07.65.45,2,2,1.16,1.34,1.74,2,2,2,1.43-.03,2.72-5.48,3-10,.03-.44.15-2.39,0-4-.65-7.08-6.96-11.99-11-17-5.4-6.7-6.96-13.77-8-19-1.11-5.56-4.08-20.49,5-32,3.99-5.05,8.9-7.67,12-9-1.88.32-4.69.9-8,2-3.86,1.28-5.74,2.39-6,2-.4-.6,3.45-4.38,8-7,4.5-2.6,8.86-3.59,12-4-1.38-.62-3.43-1.43-6-2-4.78-1.07-7.96-.59-8-1-.06-.52,4.99-2.44,11-2,6.97.51,11.38,3.9,12,3,.86-1.26-7.85-7.73-7-9,.51-.76,4.42.32,7,3,1.29,1.34,1.85,2.68,2,3Z"/>
      <path class="cls-7" d="M67.3,120.01c-3.4.43-8.61.93-15,1-12.02.13-16.2-.85-17,1-.97,2.23,3.92,6.38,7,9,5.53,4.7,11.03,7.41,15,9-1.89-.18-5.46-.53-10-1-7.58-.78-9.34-1.03-10,0-1.34,2.09,3.19,7.39,6,10,3.63,3.38,7.46,5.1,10,6-1.5-.29-3.55-.65-6-1-3.02-.43-3.68-.42-4,0-.83,1.07,1.05,4.12,3,6,.74.71,2.09,1.84,5,3,2.09.83,5.48,1.89,10,2"/>
      <path class="cls-5" d="M135.59,58.24c.46-2.53,1.76-9.65,8-15,2.39-2.04,4.81-4.12,8-4,3.97.15,4.69,3.54,10,7,6.49,4.23,13.94,4.73,18,5,6.94.47,11.07-.88,12,1,.23.46.67,1.94-3,6-4.79,5.3-11.19,8.99-21,12-10.47,3.21-17.96,5.5-25,2-1.46-.73-5.52-2.75-7-7-.82-2.36-.48-4.34,0-7Z"/>
      <path class="cls-4" d="M135.59,64.24c3.29,1.18,8.08,2.55,14,3,8.49.64,14.92-.95,19-2,9.08-2.33,16.44-6.22,22-10"/>
      <path class="cls-2" d="M89.59,109.24c-.92,1.65-2.48,3.95-5,6-1.86,1.51-5.13,3.59-14,5-2.07.33-6.27.91-15,1-12.02.13-16.2-.85-17,1-.97,2.23,3.92,6.38,7,9,5.53,4.7,11.03,7.41,15,9-1.89-.18-5.46-.53-10-1-7.58-.78-9.34-1.03-10,0-1.34,2.09,3.19,7.39,6,10,3.63,3.38,7.46,5.1,10,6-1.5-.29-3.55-.65-6-1-3.02-.43-3.68-.42-4,0-.83,1.07,1.05,4.12,3,6,.74.71,2.09,1.84,5,3,2.09.83,5.48,1.89,10,2"/>
      <path class="cls-4" d="M11.59,109.24c2.33,1.33,4.67,2.67,7,4"/>
      <path class="cls-4" d="M22.59,140.24l9,6"/>
      <path class="cls-4" d="M44.59,105.24c4.47,2.6,9.17,5.58,14,9,2.83,2,5.49,4.01,8,6"/>
      <path class="cls-4" d="M94.59,214.24c-.54-.99-1.19-2-2-3-4.77-5.89-11.75-7.49-15-8"/>
      <path class="cls-4" d="M142.59,208.24c-.6-1.22-1.3-2.21-2-3-5.78-6.56-16.17-5.26-18-5"/>
      <circle class="cls-2" cx="118.91" cy="42.1" r="10.18"/>
      <circle class="cls-6" cx="121.21" cy="42.88" r="7.84"/>
      <circle cx="122.64" cy="42.96" r="4.75"/>
      <circle class="cls-2" cx="117.7" cy="39.25" r="3.21"/>
      <path class="cls-8" d="M67.09,141.74c-2.5.2-6.34.37-11,0-7.86-.62-12.33-2.32-13-1-.64,1.27,2.8,4.24,6,7,4.26,3.68,8.17,6.28,11,8-.92.38-2.29.84-4,1-4.5.42-7.62-1.61-8-1-.36.58,1.95,3.16,5,5,7.81,4.7,17.09,2.5,19,2,2.13-.55,20.36-5.6,21-20,.47-10.58-8.87-19.26-17-21-3.62-.78-4.24.42-12,1-14.17,1.07-22.15-2.15-23,0-.62,1.58,3.25,4.49,8,8,6.92,5.12,13.25,8.64,18,11Z"/>
      <path class="cls-3" d="M86.59,203.24c.13-.42,3.07-.14,6,1,4.32,1.68,8.64,5.25,8,7-.25.69-1.25,1.03-2,1-1.69-.08-2.41-2.11-4-4-3.37-4.01-8.17-4.47-8-5Z"/>
      <path class="cls-1" d="M67.09,188.74c2.3,7.49,1.36,12.12,0,15-1.01,2.14-3.18,5.3-2,7,.48.69,1.35.91,2,1,5.67,1.33,11.33,2.67,17,4-1.06-.84-2.74-2.02-5-3-5.03-2.18-8.87-1.58-10-4-.27-.57-.18-1.38,0-3,.46-4.21,1.71-5.99,2-8,.28-1.93-.19-4.87-4-9Z"/>
      <path class="cls-1" d="M112.09,191.74c0-.23,1.94-.36,5-1,1.7-.36,3.08-.73,4-1,.32,1.07.9,2.54,2,4,1.42,1.88,3.06,2.92,3,3-.09.12-2.85-2.66-7-4-3.75-1.21-6.99-.71-7-1Z"/>
      <path class="cls-3" d="M135.09,210.74c2.51.23,6.28.57,7-1,.51-1.12-.76-2.7-1-3-2.38-2.97-6.84-3.01-10-3-2.83.01-7.51.44-13,3,.87.21,2.27.55,4,1,6.85,1.77,9.06,2.64,13,3Z"/>
      <path class="cls-3" d="M159.09,45.74c.19-.29,3.41,2.23,8,4,11.74,4.52,23.41.65,24,3,.16.65-.57,1.59-1,2-.95.91-2.27.99-3,1-12.37.21-20-4-20-4-4.58-2.53-8.2-5.69-8-6Z"/>
      <path class="cls-1" d="M137.09,65.74c.03-.12,1.59.41,5,1,1.92.33,7.68,1.3,14,1,7.41-.35,11.92-2.27,12-2,.09.33-6.54,3.94-15,4-8.78.06-16.08-3.74-16-4Z"/>
    </g>
  </g>
</svg>