<?xml version="1.0" encoding="UTF-8"?>
<svg id="Layer_2" data-name="Layer 2" xmlns="http://www.w3.org/2000/svg" viewBox="0 0 211.71 167.03">
  <defs>
    <style>
      .cls-1 {
        fill: #fcdee6;
      }

      .cls-2 {
        fill: #fff;
      }

      .cls-3 {
        fill: none;
      }

      .cls-4 {
        fill: #333;
      }

      .cls-5 {
        fill: #fdeef3;
      }

      .cls-6 {
        fill: #e6d0d6;
      }
    </style>
  </defs>
  <g id="Layer_1-2" data-name="Layer 1">
    <g>
      <path class="cls-1" d="M107.36,37.51c-5.68-1.38-12.97-2.35-14.49-2.56-18.02-2.41-28.54-3.82-40.05,0-17.84,5.91-27.1,20.73-28.97,23.86-8.67,14.53-7.96,28.63-7.67,33.23.24,3.73.83,13.02,5.96,23.01,4.05,7.87,7.29,9.13,9.37,17.04,2.22,8.46,2.56,15.34,2.56,15.34.14,2.97.08,5.87,1.7,9.37.45.97,2.94,6.34,5.96,5.96,1.88-.23,3.04-2.58,3.41-3.41.96,2.65,2.1,4.07,3.41,4.26,3.55.5,8.37-8.02,14.49-25.56l3.41.85c.39,2.52.96,6.03,1.7,10.22,1.94,10.88,2.79,13.34,4.26,13.63.81.16,2.14-.29,4.26-3.41,1.45,2.86,2.87,4.28,4.26,4.26,3.26-.06,6.39-8.01,9.37-23.86,6.25-.28,12.5-.57,18.75-.85,1.37,7.81,3.45,13.83,5.11,17.89,2.91,7.13,5.05,9.5,6.82,9.37,1.69-.12,2.22-2.45,4.26-2.56,2.53-.13,3.71,3.34,5.11,3.41,2.22.11,5.22-8.29,9.37-33.23,1.66-1.7,2.74-1.85,3.41-1.7,2.71.6,2.26,6.99,5.96,16.19,1.55,3.85,3.76,9.34,6.82,9.37,1.81.02,3.32-1.88,4.26-3.41.88,1.71,2.11,3.5,3.41,3.41,2.36-.17,3.67-6.46,4.26-9.37,1.71-8.49,1.01-14.71.85-18.75-.45-11.73,3.3-16.61,4.26-23.86,3.53-26.64-33.91-60.47-65.61-68.17Z"/>
      <path class="cls-6" d="M103.81,45.43c-1.91,11.83-7.89,13.27-9.11,22.36-1.71,12.71,8.12,23.65,9.94,25.67,12.02,13.39,29.77,13.81,41.41,14.08,10.59.25,25.58.6,38.1-9.94,3.41-2.87,11.8-9.94,13.25-20.7,1.63-12.11-7.24-16.21-7.45-34.78-.07-6.31.91-8.69-.83-13.25-3.16-8.28-11.02-12.33-15.74-14.91-10.38-5.67-20.2-5.79-26.5-5.8-5.29,0-14.52.09-24.85,4.97-6.48,3.06-14.15,6.49-17.39,14.08-2.74,6.41.73,8.58-.83,18.22Z"/>
      <path class="cls-1" d="M129.52,8.54c-.72-1.59-2-3.68-4.26-5.11-5.08-3.21-11.48-.76-17.89,1.7-6.81,2.61-13.67,5.25-14.49,10.22-.42,2.6,1.3,2.77,4.26,10.22,2.68,6.74,2.27,9.12,5.11,13.63,1.76,2.79,3.72,4.74,5.11,5.96"/>
      <path class="cls-1" d="M107.36,43.48c-1.97,12.17-8.12,13.66-9.37,23.01-1.76,13.07,8.36,24.34,10.22,26.41,12.37,13.77,30.63,14.2,42.6,14.49,10.9.26,26.32.62,39.2-10.22,3.51-2.96,12.14-10.23,13.63-21.3,1.68-12.46-7.44-16.67-7.67-35.79-.08-6.49.94-8.94-.85-13.63-3.25-8.52-11.34-12.69-16.19-15.34-10.68-5.83-20.78-5.96-27.27-5.96-5.44,0-14.94.09-25.56,5.11-6.67,3.15-14.56,6.68-17.89,14.49-2.82,6.6.75,8.83-.85,18.75Z"/>
      <path class="cls-5" d="M133.78,69.89c-.71-7.41,9.62-15.7,19.6-16.19,10.55-.52,21.7,7.62,21.3,14.49-.19,3.23-2.9,5.62-4.26,6.82-3.77,3.31-7.96,3.67-16.19,4.26-7.83.56-11.81.79-15.34-1.7-.59-.42-4.7-3.32-5.11-7.67Z"/>
      <ellipse class="cls-1" cx="146.56" cy="66.48" rx="2.56" ry="4.26"/>
      <path class="cls-6" d="M95.29,20.53c1.7.93,4.38,2.41,7.67,4.26,12.31,6.93,14.49,8.62,17.04,7.67,3.14-1.17,4.24-5.36,5.96-11.93,1.55-5.89,1.78-10.98,1.7-14.49"/>
      <ellipse class="cls-1" cx="160.19" cy="66.48" rx="2.56" ry="4.26"/>
      <path d="M134.63,83.53c10.9,6.12,24.62,6.49,35.79.85-10.9,6.31-25.19,5.92-35.79-.85h0Z"/>
      <path d="M23.69,59c-3.7-3.58-8.45-5.83-13.47-6.85-1.24-.25-2.53-.37-3.76-.13-3.01.56-5.25,4.42-4.02,7.26,1.16,1.62,3.59.99,5.18.34,3.77-1.45,5.27-5.83,4.27-9.56-1.09-5.25-6.81-8.2-11.88-7.43,5.09-.81,10.86,2.12,12,7.41,1.51,5.49-2.25,10.9-8.13,10.43-1.44-.15-2.23-1.64-2.08-2.99.17-2.61,1.91-5.27,4.58-5.79,1.3-.27,2.63-.15,3.9.1,5.09.98,9.96,3.25,13.74,6.85,0,0-.34.37-.34.37h0Z"/>
      <path class="cls-3" d="M63.05,138.06c.57-1.7,1.14-3.41,1.7-5.11"/>
      <path class="cls-3" d="M108.21,132.09c.28,2.27.57,4.54.85,6.82"/>
      <path class="cls-3" d="M140.59,126.13c-.28,2.56-.57,5.11-.85,7.67"/>
      <path class="cls-1" d="M174.68,9.4c.56-2.15,1.87-5.73,5.11-7.67,3.97-2.37,8.51-.91,16.19,1.7,9.22,3.13,13.83,4.7,15.34,8.52,1.26,3.19-.58,7.81-4.26,17.04-1.92,4.81-3.31,7.11-4.26,8.52-2.36,3.53-4.91,6.04-6.82,7.67"/>
      <path class="cls-6" d="M176.14,6.79c.21,2.23,2.82,2.65,4.87,4.87,5.18,5.6-.7,14.54,3.24,17.85,3.82,3.2,13.14-1.98,15.41-3.24,4.25-2.36,7.62-3.69,8.92-7.3,1.57-4.33-.75-8.47-1.01-8.92-1.88-3.23-5.09-4.42-11.42-6.66-7.42-2.62-12.13-4.22-16.18-1.9-1.81,1.03-4.03,3.16-3.83,5.32Z"/>
      <path class="cls-1" d="M93.73,18.77c1.7.93,4.38,2.41,7.67,4.26,12.31,6.93,14.49,8.62,17.04,7.67,3.14-1.17,4.24-5.36,5.96-11.93,1.55-5.89,1.78-10.98,1.7-14.49"/>
      <path class="cls-1" d="M177.23,4.28c1.37.88,3.5,2.49,5.11,5.11,4.8,7.78-.38,15.58,3.41,18.75,4.01,3.36,13.8-2.08,16.19-3.41,4.45-2.47,8.63-3.98,9.37-7.67.58-2.88-1.11-5.45-1.82-6.53-1.11-1.69-2.89-3.52-12-7-11.77-4.5-14.56-3.66-16-3-2.13.99-3.49,2.61-4.27,3.75Z"/>
      <circle class="cls-2" cx="126.9" cy="50.58" r="9.95"/>
      <ellipse class="cls-2" cx="180.06" cy="50.08" rx="9.44" ry="9.45"/>
      <circle class="cls-4" cx="127.2" cy="50.36" r="7.66"/>
      <ellipse class="cls-4" cx="180.02" cy="49.87" rx="7.27" ry="7.28"/>
      <circle cx="126.64" cy="50.45" r="4.64"/>
      <circle cx="180.31" cy="49.95" r="4.41"/>
      <circle class="cls-2" cx="131.59" cy="45.84" r="3.14"/>
      <circle class="cls-2" cx="183.8" cy="45.58" r="2.98"/>
    </g>
  </g>
</svg>