<?xml version="1.0" encoding="UTF-8"?>
<svg id="Layer_2" data-name="Layer 2" xmlns="http://www.w3.org/2000/svg" viewBox="0 0 212.28 167.5">
  <defs>
    <style>
      .cls-1 {
        fill: none;
      }

      .cls-1, .cls-2, .cls-3, .cls-4 {
        stroke: #000;
        stroke-miterlimit: 10;
      }

      .cls-2 {
        fill: #fcdee6;
      }

      .cls-5, .cls-3 {
        fill: #fff;
      }

      .cls-4 {
        fill: #fdeef3;
      }

      .cls-6 {
        fill: #333;
      }
    </style>
  </defs>
  <g id="Layer_1-2" data-name="Layer 1">
    <g>
      <path class="cls-2" d="M107.43,37.48c-5.68-1.38-12.97-2.35-14.49-2.56-18.02-2.41-28.54-3.82-40.05,0-17.84,5.91-27.1,20.73-28.97,23.86-8.67,14.53-7.96,28.63-7.67,33.23.24,3.73.83,13.02,5.96,23.01,4.05,7.87,7.29,9.13,9.37,17.04,2.22,8.46,2.56,15.34,2.56,15.34.14,2.97.08,5.87,1.7,9.37.45.97,2.94,6.34,5.96,5.96,1.88-.23,3.04-2.58,3.41-3.41.96,2.65,2.1,4.07,3.41,4.26,3.55.5,8.37-8.02,14.49-25.56l3.41.85c.39,2.52.96,6.03,1.7,10.22,1.94,10.88,2.79,13.34,4.26,13.63.81.16,2.14-.29,4.26-3.41,1.45,2.86,2.87,4.28,4.26,4.26,3.26-.06,6.39-8.01,9.37-23.86,6.25-.28,12.5-.57,18.75-.85,1.37,7.81,3.45,13.83,5.11,17.89,2.91,7.13,5.05,9.5,6.82,9.37,1.69-.12,2.22-2.45,4.26-2.56,2.53-.13,3.71,3.34,5.11,3.41,2.22.11,5.22-8.29,9.37-33.23,1.66-1.7,2.74-1.85,3.41-1.7,2.71.6,2.26,6.99,5.96,16.19,1.55,3.85,3.76,9.34,6.82,9.37,1.81.02,3.32-1.88,4.26-3.41.88,1.71,2.11,3.5,3.41,3.41,2.36-.17,3.67-6.46,4.26-9.37,1.71-8.49,1.01-14.71.85-18.75-.45-11.73,3.3-16.61,4.26-23.86,3.53-26.64-33.91-60.47-65.61-68.17Z"/>
      <path class="cls-2" d="M129.58,8.51c-.72-1.59-2-3.68-4.26-5.11-5.08-3.21-11.48-.76-17.89,1.7-6.81,2.61-13.67,5.25-14.49,10.22-.42,2.6,1.3,2.77,4.26,10.22,2.68,6.74,2.27,9.12,5.11,13.63,1.76,2.79,3.72,4.74,5.11,5.96"/>
      <path class="cls-2" d="M107.43,43.45c-1.97,12.17-8.12,13.66-9.37,23.01-1.76,13.07,8.36,24.34,10.22,26.41,12.37,13.77,30.63,14.2,42.6,14.49,10.9.26,26.32.62,39.2-10.22,3.51-2.96,12.14-10.23,13.63-21.3,1.68-12.46-7.44-16.67-7.67-35.79-.08-6.49.94-8.94-.85-13.63-3.25-8.52-11.34-12.69-16.19-15.34-10.68-5.83-20.78-5.96-27.27-5.96-5.44,0-14.94.09-25.56,5.11-6.67,3.15-14.56,6.68-17.89,14.49-2.82,6.6.75,8.83-.85,18.75Z"/>
      <path class="cls-4" d="M133.84,69.86c-.71-7.41,9.62-15.7,19.6-16.19,10.55-.52,21.7,7.62,21.3,14.49-.19,3.23-2.9,5.62-4.26,6.82-3.77,3.31-7.96,3.67-16.19,4.26-7.83.56-11.81.79-15.34-1.7-.59-.42-4.7-3.32-5.11-7.67Z"/>
      <ellipse class="cls-2" cx="146.62" cy="66.45" rx="2.56" ry="4.26"/>
      <ellipse class="cls-2" cx="160.26" cy="66.45" rx="2.56" ry="4.26"/>
      <path class="cls-1" d="M134.69,83.5c2.96,1.74,10.02,5.36,19.6,5.11,7.53-.19,13.22-2.69,16.19-4.26"/>
      <path class="cls-1" d="M23.92,58.79c-4-3.74-7.9-5.28-10.22-5.96-3.13-.93-6.85-2.03-9.37,0-2.12,1.71-3.05,5.37-1.7,6.82,1.45,1.56,5.51.53,7.67-1.7,2.61-2.71,2.46-7.21.85-10.22-1.95-3.67-6.38-5.74-11.08-5.11"/>
      <path class="cls-1" d="M63.12,138.03c.57-1.7,1.14-3.41,1.7-5.11"/>
      <path class="cls-1" d="M108.28,132.06c.28,2.27.57,4.54.85,6.82"/>
      <path class="cls-1" d="M140.66,126.1c-.28,2.56-.57,5.11-.85,7.67"/>
      <path class="cls-2" d="M174.74,9.37c.56-2.15,1.87-5.73,5.11-7.67,3.97-2.37,8.51-.91,16.19,1.7,9.22,3.13,13.83,4.7,15.34,8.52,1.26,3.19-.58,7.81-4.26,17.04-1.92,4.81-3.31,7.11-4.26,8.52-2.36,3.53-4.91,6.04-6.82,7.67"/>
      <path class="cls-2" d="M93.79,18.74c1.7.93,4.38,2.41,7.67,4.26,12.31,6.93,14.49,8.62,17.04,7.67,3.14-1.17,4.24-5.36,5.96-11.93,1.55-5.89,1.78-10.98,1.7-14.49"/>
      <path class="cls-2" d="M177.3,4.25c1.37.88,3.5,2.49,5.11,5.11,4.8,7.78-.38,15.58,3.41,18.75,4.01,3.36,13.8-2.08,16.19-3.41,4.48-2.49,7.53-5.53,9.37-7.67"/>
      <circle class="cls-3" cx="126.97" cy="50.55" r="9.95"/>
      <ellipse class="cls-3" cx="180.12" cy="50.05" rx="9.44" ry="9.45"/>
      <circle class="cls-6" cx="127.26" cy="50.33" r="7.66"/>
      <ellipse class="cls-6" cx="180.09" cy="49.84" rx="7.27" ry="7.28"/>
      <circle cx="126.7" cy="50.42" r="4.64"/>
      <circle cx="180.38" cy="49.92" r="4.41"/>
      <circle class="cls-5" cx="131.65" cy="45.81" r="3.14"/>
      <circle class="cls-5" cx="183.87" cy="45.55" r="2.98"/>
    </g>
  </g>
</svg>