<?xml version="1.0" encoding="UTF-8"?>
<svg id="Layer_2" data-name="Layer 2" xmlns="http://www.w3.org/2000/svg" viewBox="0 0 107.4 175.3">
  <defs>
    <style>
      .cls-1 {
        fill: #ff9438;
      }

      .cls-2, .cls-3 {
        fill: #fff;
      }

      .cls-4 {
        fill: none;
      }

      .cls-5 {
        fill: #fcb23c;
      }

      .cls-6 {
        fill: #f47d74;
      }

      .cls-3 {
        stroke: #000;
        stroke-miterlimit: 10;
        stroke-width: .5px;
      }

      .cls-7 {
        fill: #e3adcb;
      }

      .cls-8 {
        fill: #333;
      }

      .cls-9 {
        fill: #79c143;
      }

      .cls-10 {
        fill: #ebebeb;
      }

      .cls-11 {
        fill: #ccc;
      }

      .cls-12 {
        fill: #f9c7dd;
      }
    </style>
  </defs>
  <g id="Layer_1-2" data-name="Layer 1">
    <g>
      <path class="cls-2" d="M17.42,134.8c-.49-.63-2.92-3.61-7-4-3.77-.36-8.53,1.54-10,6-1.45,4.4.99,9.23,5,11,4.45,1.96,8.7-.8,9-1"/>
      <path class="cls-2" d="M37.42,55.8c-1-.68-2.4-1.68-4-3-5.22-4.31-8.32-8.59-12-14-7-10.29-10.5-15.43-11-18-.22-1.13-2.58-14.07,5-19C20.24-1.34,27.1.05,31.42,2.8c1.64,1.04,5.62,4,11,23,1.98,6.98,3.22,12.87,4,17"/>
      <path class="cls-2" d="M71.42,49.8c.17-1.47.46-3.55,1-6,1.25-5.64,2.99-13.49,9-20,2.36-2.56,7.66-8.29,15-8,1.19.05,5.12.2,8,3,4.11,4,3.13,10.53,2,18-.72,4.79-1.26,8.06-4,11-.97,1.04-4.4,4.73-9,4-3.44-.55-5.46-3.24-6-4-.98,1.18-1.99,2.51-3,4-1.19,1.75-2.18,3.44-3,5"/>
      <path class="cls-12" d="M40.42,53.8c-1.47-1.37-3.58-3.41-6-6-8.4-9.02-12.07-15.77-14-20-2.49-5.45-2.83-8.37-2-11,.23-.73,1.21-3.82,4-5,2.16-.92,4.31-.22,5,0,6.66,2.15,9.72,12.73,12,21,1.06,3.85,2.31,9.29,3,16"/>
      <path class="cls-2" d="M38.42,106.8c-.63,1.22-1.62,2.99-3,5-3.62,5.27-6.47,7.11-10,11-1.92,2.11-5.6,6.16-8,12-1.46,3.55-4.03,9.8-2,17,2.49,8.81,10.18,13.05,12,14-.16.91-.3,2.32,0,4,.29,1.6.86,2.74,1,3,2.29,4.21,14.06-.93,26,2,1.02.25,3.84,1,7,0,1.28-.41,4.22-1.33,5-4,.59-2.01-.25-4.31-2-6,2.96-.26,5.35-.15,7,0,8.68.79,10,1,10,1,.36.06,1.09.18,2,0,1.49-.29,3.22-1.31,4-3,1.31-2.84-.88-5.85-1-6-2.71-3.6-8.52-3.18-11-3-2.09.15-3.81.6-5,1,.32-.66.74-1.69,1-3,.5-2.53.08-4.56,0-5-.43-2.36-.6-12.41,0-40-1.29.37-2.62.71-4,1-11.03,2.34-21.11,1.09-29-1Z"/>
      <path class="cls-12" d="M74.42,50.8c.12-1.82.42-3.84,1-6,2.15-7.98,7-13.27,10-16-.14,2.04-.18,4.39,0,7,.19,2.63.56,4.99,1,7-1.42.73-3.87,2.23-6,5-1.76,2.3-2.59,4.56-3,6"/>
      <path class="cls-2" d="M61.42,108.8c-4.59.56-8.09.26-11,0-7.32-.64-13.94-1.22-19-6-1.51-1.43-3.6-3.91-5-8-.32.12-2.05.77-3,0-1.07-.88-1.05-3.52,1-6-1.07.02-2.43-.12-3-1-.96-1.48.9-4.18,2-6,3.59-5.95,2.56-8.43,5-14,1.7-3.88,5.16-9.45,13-15-.08-.43-.17-1.14,0-2,.14-.74.31-1.6,1-2,.6-.35,1.3-.18,2,0,.95.24,1.63.7,2,1-2.02-3-2.22-5.93-1-7,1.14-1,3.33-.23,4,0,3.22,1.13,4.63,4.14,5,5-.11-1.49.31-2.77,1-3,.81-.27,2.31.8,3,3,2.3-.18,5.89-.2,10,1,9.23,2.69,14.22,9.49,16,12,1.74,2.45,5.22,8.05,6,16,.3,3.09,1.27,12.84-5,21-6.83,8.89-17.72,10.23-24,11Z"/>
      <circle class="cls-3" cx="48.34" cy="78.38" r="6.42"/>
      <circle class="cls-3" cx="70" cy="78.38" r="6.42"/>
      <path class="cls-6" d="M55.42,94.8c-1.39,2.38,1.28,7,4,7s5.39-4.62,4-7c-1.37-2.35-6.63-2.35-8,0Z"/>
      <g>
        <path class="cls-2" d="M50.42,90.8c.56,2.5,2.76,4.16,5,4,1.72-.12,3.27-1.3,4-3,.68,2.26,2.97,3.53,5,3,1.69-.44,2.95-2.08,3-4"/>
        <path d="M50.42,90.8c1.16,4.39,6.92,5.27,8.77.9,0,0,.27-.63.27-.63l.2.66c1.41,4.42,7.4,3.72,7.76-.93.03.99-.3,1.99-.92,2.79-2.08,2.77-6.46,1.44-7.32-1.71,0,0,.47.03.47.03-2.01,4.66-8.32,3.81-9.23-1.1h0Z"/>
      </g>
      <path d="M63.42,90.08c0,.95-1.79,1.71-4,1.71s-4-.77-4-1.71,1.79-1.71,4-1.71,4,.77,4,1.71Z"/>
      <path class="cls-9" d="M83.42,88.8c-1.05-2.84-1.65-5.27-2-7-1.4-6.84-.33-9.3,0-10,.38-.8,1.35-2.81,3-3,1.65-.19,3.26,1.53,4,3,.82,1.65.75,3.4-1,10-.72,2.71-1.41,5.07-2,7"/>
      <path class="cls-9" d="M86.42,88.8c.19-1.38.54-3.86,1-7,.95-6.49,1.28-8.46,3-10,.35-.31,2.01-1.8,3.79-1.4,1.86.42,2.93,2.71,3.21,4.4.37,2.26-.61,3.8-3.35,8.94-.88,1.65-2.15,4.07-3.65,7.06"/>
      <path class="cls-9" d="M90.42,90.8c1.17-2.35,2.18-4.38,3-6,3.3-6.53,4.36-8.45,6.6-9.29.56-.21,2.59-.87,4.03.14,1.56,1.09,1.69,3.62,1.31,5.29-.51,2.23-2,3.28-6.48,7.01-1.43,1.19-3.53,2.95-6.05,5.15"/>
      <path class="cls-12" d="M51.42,154.8c1.58-.59,3.7-1.52,6-3,0,0,2.83-1.82,5-4,4.9-4.92,10.25-18.05,5-23-3.27-3.09-9.36-1.75-12-1,.07,2.66-.15,7.03-2,12-1.76,4.72-4.27,8.04-6,10,.76.65,2.07,1.94,3,4,.95,2.11,1.03,4,1,5Z"/>
      <path class="cls-5" d="M61.42,114.8c.88-8.83.49-8.11,1-10,1-3.7,2.77-10.23,9-14,6.08-3.68,12.48-2.36,14-2,1.44.34,6.3,1.56,10,6,4.85,5.83,4.19,13,4,15-.4,4.28-1.72,5.5-12,21-5.59,8.42-8.23,12.63-14,16-5.61,3.27-8.28,2.31-9,2-3.05-1.31-4.63-5.25-5-8-.2-1.45-.06-2.55,0-3,.95-7.64,1.23-15.34,2-23Z"/>
      <path class="cls-2" d="M60.42,112.8c.33,1.53,1.08,3.9,3,6,1.98,2.16,4.27,3.01,7,4,5.26,1.9,6.87.91,10,3,1.22.81,3.59,2.39,4,5,.53,3.35-2.46,6.55-5,8-3.96,2.25-8.26,1.05-12,0-1.3-.36-7.46-2.19-13-8-2.47-2.59-4.04-5.15-5-7"/>
      <path class="cls-11" d="M64.14,165.21c-4.44-3.1-10.34-4.02-15.39-1.86,3.04-4.89,3.9-12.27-.41-16.69-1.34-1.37-3.07-2.34-4.92-2.87,8.68,2.09,10.06,12.21,6.26,19.15,0,0-.36-.42-.36-.42,2.48-.97,5.23-1.32,7.9-.96,2.67.38,5.22,1.37,7.49,2.82,0,0-.55.83-.55.83h0Z"/>
      <path class="cls-4" d="M85.42,88.8c-.33-3.67-.67-7.33-1-11"/>
      <path class="cls-9" d="M88.42,89.8c1.33-3.67,2.67-7.33,4-11"/>
      <path class="cls-4" d="M90.42,90.8c2.33-2.67,4.67-5.33,7-8"/>
      <path class="cls-2" d="M47.42,145.8c1.22-1.14,2.7-2.78,4-5,2.33-3.99,2.87-7.81,3-10"/>
      <path class="cls-1" d="M78.42,141.8c-4.11,1.31-8.98.1-12-3,3.49,2.52,7.74,3.59,12,3h0Z"/>
      <path class="cls-1" d="M98.42,110.8c-6.14-.02-12.3-3.1-16-8,4.24,4.42,9.9,7.27,16,8h0Z"/>
      <path class="cls-4" d="M64.42,104.8c.36.56.99,1.35,2,2,2.11,1.36,4.34,1.1,5,1"/>
      <path class="cls-1" d="M66.42,109.8c5.43,4.1,12.26,5.84,19,5-6.63,1.55-14.02-.34-19-5h0Z"/>
      <path class="cls-1" d="M77.76,91.52c3.92,2.06,7.99,3.64,12.34,4.55-4.46-.22-8.78-1.89-12.34-4.55h0Z"/>
      <path class="cls-1" d="M82.42,121.8c2.14,1.51,4.43,2.48,7,3-2.61.21-5.35-.97-7-3h0Z"/>
      <path class="cls-1" d="M69.42,102.8c2.86,1.49,5.82,2.47,9,3-3.21.18-6.54-.93-9-3h0Z"/>
      <circle class="cls-8" cx="49.53" cy="79.24" r="4.94"/>
      <circle class="cls-8" cx="70.98" cy="79.24" r="4.94"/>
      <circle cx="50.17" cy="79.29" r="3"/>
      <circle cx="72.17" cy="79.29" r="3"/>
      <circle class="cls-2" cx="51.36" cy="75.32" r="2.02"/>
      <circle class="cls-2" cx="72.55" cy="75.32" r="2.02"/>
      <path class="cls-7" d="M57.92,134.3c-.46.97-1.79,4.06-1,8s3.2,6.28,4,7c.33-.33.67-.67,1-1-.84-1.02-2.29-3.04-3-6-.75-3.12-.31-5.7,0-7-.33-.33-.67-.67-1-1Z"/>
      <path class="cls-10" d="M61.92,148.3c-.33.33-.67.67-1,1,.62.69,1.6,1.54,3,2,1.62.53,4.4.74,6-1,.64-.7.89-1.5,1-2-.53.37-1.2.74-2,1-3.25,1.04-6.22-.55-7-1Z"/>
      <path class="cls-10" d="M15.92,144.3c-.23.02-.62,2.88,0,6,1.48,7.46,7.84,12.14,8,12,.13-.11-3.71-3.06-6-9-1.85-4.8-1.71-9.02-2-9Z"/>
      <path class="cls-10" d="M60.92,109.3c-3.42.44-7.88.66-13,0-3.47-.45-6.49-1.2-9-2,1.87,1.07,4.58,2.32,8,3,6.26,1.24,11.43-.12,14-1Z"/>
      <path class="cls-10" d="M85.92,48.3c.33-.33.67-.67,1-1-.28-1.22-.65-2.94-1-5-.64-3.77-1.06-6.09-1-9,.03-1.65.22-4.08,1-7-.28.97-.64,2.34-1,4-.51,2.37-.88,4.72-1,6-.42,4.43.87,8.98,2,12Z"/>
      <path class="cls-4" d="M87.42,47.8c-.81-2.13-1.59-4.83-2-8-.76-5.91.14-10.84,1-14"/>
      <path class="cls-10" d="M6.92,132.3c0,.2,1.64.08,4,1,1.53.6,2.63,1.03,3,2,.46,1.21-.66,2.07-1,4-.2,1.13-.16,2.79,1,5-.11-1.19-.15-3.49,1-6,.61-1.33,1.37-2.32,2-3-.63-.82-1.92-2.23-4-3-3-1.11-6-.27-6,0Z"/>
    </g>
  </g>
</svg>