<?xml version="1.0" encoding="UTF-8"?>
<svg id="Layer_2" data-name="Layer 2" xmlns="http://www.w3.org/2000/svg" viewBox="0 0 224.03 177.18">
  <defs>
    <style>
      .cls-1 {
        fill: none;
      }

      .cls-1, .cls-2, .cls-3, .cls-4, .cls-5 {
        stroke: #000;
        stroke-miterlimit: 10;
      }

      .cls-2 {
        fill: #f6dae9;
      }

      .cls-6, .cls-3 {
        fill: #fff;
      }

      .cls-5 {
        fill: #231c0f;
      }

      .cls-7 {
        fill: #333;
      }
    </style>
  </defs>
  <g id="Layer_1-2" data-name="Layer 1">
    <g>
      <path class="cls-5" d="M28.51,141.59c-.99,3.96-1.88,9.05-2,15-.1,5.02.37,9.42,1,13,2.35.44,5.03.82,8,1,2.94.18,5.63.15,8,0-.07-3.64.14-8.05,1-13,.97-5.61,2.51-10.32,4-14"/>
      <path class="cls-5" d="M55.51,142.59c1.35,4.62,2.57,10.36,3,17,.23,3.63.19,6.99,0,10,2.07.43,4.42.79,7,1,3.37.27,6.4.21,9,0,.8-2.38,1.59-5.42,2-9,.45-3.93.3-7.34,0-10"/>
      <path class="cls-5" d="M104.51,152.59c-.28,3.41-.37,7.46,0,12,.38,4.61,1.15,8.65,2,12,2.15.1,4.49.12,7,0,3.31-.16,6.33-.53,9-1l3-24"/>
      <path class="cls-5" d="M144.51,152.59c1.1,2.69,2.22,6.05,3,10,.66,3.36.93,6.41,1,9,2.12.51,4.83.96,8,1,3.62.05,6.69-.45,9-1,.14-3.75.16-7.76,0-12-.17-4.63-.53-8.98-1-13"/>
      <path class="cls-3" d="M110.51,38.59c-4.36-1.86-7.79-3.72-10-5-1.54-1.5-5.67-5.12-12-6-10.65-1.47-18.17,6.13-19,7-4.64-5.52-12.28-7.53-19-5-6.62,2.49-11.03,8.89-11,16-3.33.49-10.85,2.06-18,8-8.47,7.03-11.18,15.84-12,19-5.37,2.83-8.84,8.18-9,14-.19,6.79,4.22,11.24,5,12-.15,2.42-.25,9.14,4,16,3.72,6,8.78,8.89,11,10-.34,8.99,5,17.1,13,20,6.73,2.44,14.41.88,20-4,1.89,2.08,9.07,9.45,21,11,10.43,1.36,18.34-2.54,21-4,1.78,1.63,7.42,6.37,16,7,11.85.87,19.79-6.79,21-8,1.18,1.02,9.18,7.74,20,6,9.52-1.54,17.41-9.01,20-19,1.11.12,9.06.86,15-5,5.09-5.02,6.66-12.89,4-20,1.4-1.11,4.72-4.06,6-9,2.38-9.19-4.54-16.53-5-17,1.54-2.3,3.87-6.53,4-12,.22-9.15-5.83-15.73-7-17-14.7-15.99-42.36.61-79-15Z"/>
      <path class="cls-3" d="M120.51,22.59c-10.29,8.35-11.91,20.73-13,29-1.08,8.22-3.02,22.97,7,35,10.31,12.38,25.84,12.96,29,13,3.4.04,19.55-.19,30-13,9.17-11.23,7.78-24.56,7-32-.79-7.55-2.46-23.57-16-33-12.86-8.96-31.89-8.83-44,1Z"/>
      <path class="cls-3" d="M110.51,44.59c-.86,3.68-3.04,10.66-9,17-2.84,3.03-8.81,9.38-18,10-5.34.36-14.05-1.07-17-7-.21-.43-1.12-2.34-1-5,.5-10.69,17.01-17.84,22-20,3.3-1.43,7.65-2.97,13-4"/>
      <path class="cls-3" d="M176.51,43.59c.07,1.42.29,3.54,1,6,2.49,8.6,8.78,13.54,12,16,3.99,3.05,8.38,6.4,15,7,2.05.18,12.26.82,17-6,.66-.95,1.83-2.63,2-5,.51-7.05-8.35-12.48-19-19-4.23-2.59-8.05-4.44-13-5-2.48-.28-4.57-.16-6,0"/>
      <path class="cls-3" d="M106.51,25.59c-.87.18-4.42,1-6,4-2.58,4.92,2.76,10.75,3,11,4.75,5.04,12.17,4.21,14,4,8.7-.98,13.84-7.46,15-9,1.28,5.06,5.17,8.97,10,10,5.92,1.26,12.27-2,15-8,.53.65,6.74,7.98,16,7,.95-.1,8.05-.96,12-7,1.06-1.61,3.72-5.68,2-10-1.33-3.35-4.84-5.67-9-6,1.23-3.14.92-6.63-1-9-2.75-3.4-8.49-4.17-13-1,.87-4.07-1.48-7.99-5-9-2.84-.82-6.09.37-8,3-1.06-3.43-4.51-5.57-8-5-3.39.55-5.95,3.51-6,7-2.61-2.75-6.66-3.55-10-2-3.06,1.41-5.02,4.55-5,8-3.65-2.47-8.44-2.47-12,0-3.79,2.62-5.43,7.52-4,12Z"/>
      <circle class="cls-3" cx="126.45" cy="59.45" r="11.45"/>
      <circle class="cls-3" cx="163.06" cy="60.45" r="11.45"/>
      <path class="cls-4" d="M136.51,71.59h16c-.51,1.13-1.67,3.26-4,5-1.5,1.12-2.97,1.7-4,2-1.03-.3-2.5-.88-4-2-2.33-1.74-3.49-3.87-4-5Z"/>
      <path class="cls-1" d="M153.51,79.59c-.62,3.09-3.65,4.77-6,4-1.84-.6-3.17-2.67-3-5,.12,2.61-1.78,4.77-4,5-2.52.27-5.09-1.99-5-5"/>
      <path class="cls-2" d="M105.51,44.59c-11.77,1.21-19.92,4.97-25,8-3.25,1.94-9.7,5.8-9,9,.58,2.65,5.85,3.89,9,4,13.26.47,23.27-17.76,25-21Z"/>
      <path class="cls-2" d="M181.51,44.59c4.21.65,10.26,1.99,17,5,6.94,3.1,19.12,9.99,18,14-.74,2.66-7.04,3.11-10,3-7.84-.3-13.23-5.38-16-8-5.08-4.8-7.67-10.22-9-14Z"/>
      <circle class="cls-7" cx="127.25" cy="59.96" r="8.89"/>
      <circle class="cls-7" cx="162.54" cy="60.96" r="8.89"/>
      <circle class="cls-4" cx="127.4" cy="60.85" r="4.7"/>
      <circle class="cls-4" cx="162.97" cy="61.15" r="4.7"/>
      <circle class="cls-6" cx="130.89" cy="55.74" r="2.94"/>
      <circle class="cls-6" cx="167.63" cy="56.74" r="2.94"/>
    </g>
  </g>
</svg>