<?xml version="1.0" encoding="UTF-8"?>
<svg id="Layer_2" data-name="Layer 2" xmlns="http://www.w3.org/2000/svg" viewBox="0 0 223.03 176.18">
  <defs>
    <style>
      .cls-1 {
        fill: #fff;
      }

      .cls-2 {
        fill: #e7e7eb;
      }

      .cls-3 {
        fill: #231c0f;
      }

      .cls-4 {
        fill: #fafafb;
      }

      .cls-5 {
        fill: #f6dae9;
      }

      .cls-6 {
        fill: #333;
      }

      .cls-7 {
        fill: #f7f7f7;
      }
    </style>
  </defs>
  <g id="Layer_1-2" data-name="Layer 1">
    <g>
      <path class="cls-3" d="M28.01,141.09c-.99,3.96-1.88,9.05-2,15-.1,5.02.37,9.42,1,13,2.35.44,5.03.82,8,1,2.94.18,5.63.15,8,0-.07-3.64.14-8.05,1-13,.97-5.61,2.51-10.32,4-14"/>
      <path class="cls-3" d="M55.01,142.09c1.35,4.62,2.57,10.36,3,17,.23,3.63.19,6.99,0,10,2.07.43,4.42.79,7,1,3.37.27,6.4.21,9,0,.8-2.38,1.59-5.42,2-9,.45-3.93.3-7.34,0-10"/>
      <path class="cls-3" d="M104.01,152.09c-.28,3.41-.37,7.46,0,12,.38,4.61,1.15,8.65,2,12,2.15.1,4.49.12,7,0,3.31-.16,6.33-.53,9-1l3-24"/>
      <path class="cls-3" d="M144.01,152.09c1.1,2.69,2.22,6.05,3,10,.66,3.36.93,6.41,1,9,2.12.51,4.83.96,8,1,3.62.05,6.69-.45,9-1,.14-3.75.16-7.76,0-12-.17-4.63-.53-8.98-1-13"/>
      <path class="cls-7" d="M110.01,38.09c-4.36-1.86-7.79-3.72-10-5-1.54-1.5-5.67-5.12-12-6-10.65-1.47-18.17,6.13-19,7-4.64-5.52-12.28-7.53-19-5-6.62,2.49-11.03,8.89-11,16-9-3.16-18.9-.76-25,6-7.85,8.71-5.24,20.05-5,21C3.63,74.92.17,80.27,0,86.09c-.19,6.79,4.22,11.24,5,12-.15,2.42-.25,9.14,4,16,3.72,6,8.78,8.89,11,10-.34,8.99,5,17.1,13,20,6.73,2.44,14.41.88,20-4,1.89,2.08,9.07,9.45,21,11,10.43,1.36,18.34-2.54,21-4,1.78,1.63,7.42,6.37,16,7,11.85.87,19.79-6.79,21-8,1.18,1.02,9.18,7.74,20,6,9.52-1.54,17.41-9.01,20-19,1.11.12,9.06.86,15-5,5.09-5.02,6.66-12.89,4-20,1.4-1.11,4.72-4.06,6-9,2.38-9.19-4.54-16.53-5-17,1.54-2.3,3.87-6.53,4-12,.22-9.15-5.83-15.73-7-17-14.7-15.99-42.36.61-79-15Z"/>
      <path class="cls-1" d="M120.01,22.09c-10.29,8.35-11.91,20.73-13,29-1.08,8.22-3.02,22.97,7,35,10.31,12.38,25.84,12.96,29,13,3.4.04,19.55-.19,30-13,9.17-11.23,7.78-24.56,7-32-.79-7.55-2.46-23.57-16-33-12.86-8.96-31.89-8.83-44,1Z"/>
      <path class="cls-1" d="M110.01,44.09c-.86,3.68-3.04,10.66-9,17-2.84,3.03-8.81,9.38-18,10-5.34.36-14.05-1.07-17-7-.21-.43-1.12-2.34-1-5,.5-10.69,17.01-17.84,22-20,3.3-1.43,7.65-2.97,13-4"/>
      <path class="cls-1" d="M176.01,43.09c.07,1.42.29,3.54,1,6,2.49,8.6,8.78,13.54,12,16,3.99,3.05,8.38,6.4,15,7,2.05.18,12.26.82,17-6,.66-.95,1.83-2.63,2-5,.51-7.05-8.35-12.48-19-19-4.23-2.59-8.05-4.44-13-5-2.48-.28-4.57-.16-6,0"/>
      <path class="cls-7" d="M106.01,25.09c-.87.18-4.42,1-6,4-2.58,4.92,2.76,10.75,3,11,4.75,5.04,12.17,4.21,14,4,8.7-.98,13.84-7.46,15-9,1.28,5.06,5.17,8.97,10,10,5.92,1.26,12.27-2,15-8,.53.65,6.74,7.98,16,7,.95-.1,8.05-.96,12-7,1.06-1.61,3.72-5.68,2-10-1.33-3.35-4.84-5.67-9-6,1.23-3.14.92-6.63-1-9-2.75-3.4-8.49-4.17-13-1,.87-4.07-1.48-7.99-5-9-2.84-.82-6.09.37-8,3-1.06-3.43-4.51-5.57-8-5-3.39.55-5.95,3.51-6,7-2.61-2.75-6.66-3.55-10-2-3.06,1.41-5.02,4.55-5,8-3.65-2.47-8.44-2.47-12,0-3.79,2.62-5.43,7.52-4,12Z"/>
      <circle class="cls-1" cx="125.95" cy="58.95" r="11.45"/>
      <circle class="cls-1" cx="162.56" cy="59.95" r="11.45"/>
      <path d="M136.01,71.09h16c-.51,1.13-1.67,3.26-4,5-1.5,1.12-2.97,1.7-4,2-1.03-.3-2.5-.88-4-2-2.33-1.74-3.49-3.87-4-5Z"/>
      <path d="M153.01,79.09c-1.28,6.25-9.52,5.58-9.25-1.02,0,0,.49,0,.49,0,.06,1.31-.4,2.64-1.26,3.62-2.98,3.53-8.3.69-7.99-3.61.01,1.25.5,2.47,1.34,3.36,2.86,3.19,7.64.7,7.41-3.35,0,0,.49,0,.49,0-.27,6.19,7.29,6.61,8.75.98h0Z"/>
      <path class="cls-5" d="M105.01,44.09c-11.77,1.21-19.92,4.97-25,8-3.25,1.94-9.7,5.8-9,9,.58,2.65,5.85,3.89,9,4,13.26.47,23.27-17.76,25-21Z"/>
      <path class="cls-5" d="M181.01,44.09c4.21.65,10.26,1.99,17,5,6.94,3.1,19.12,9.99,18,14-.74,2.66-7.04,3.11-10,3-7.84-.3-13.23-5.38-16-8-5.08-4.8-7.67-10.22-9-14Z"/>
      <circle class="cls-6" cx="126.75" cy="59.46" r="8.89"/>
      <circle class="cls-6" cx="162.04" cy="60.46" r="8.89"/>
      <circle cx="126.9" cy="60.35" r="4.7"/>
      <circle cx="162.47" cy="60.65" r="4.7"/>
      <circle class="cls-1" cx="130.39" cy="55.24" r="2.94"/>
      <circle class="cls-1" cx="167.13" cy="56.24" r="2.94"/>
      <path class="cls-1" d="M115.31,25.61c-.66.13-3.35.75-4.55,3.03-1.57,3,.5,6.61,2.27,8.34,4.26,4.15,11.18,1.71,11.47,1.6,5.96-2.2,7.79-8.26,8-9,1.58,5.08,6,8.66,11,9,5.89.4,11.53-3.78,13-10,2.66,6.97,8.39,10.87,13,10,3.35-.63,5.55-3.68,5.69-3.88.62-.88,2.9-4.11,1.52-7.58-1.01-2.54-3.67-4.3-6.82-4.55.93-2.38.7-5.02-.76-6.82-2.08-2.58-6.44-3.16-9.86-.76.66-3.09-1.13-6.06-3.79-6.82-2.16-.62-4.62.28-6.07,2.27-.8-2.6-3.42-4.22-6.07-3.79-2.57.42-4.51,2.66-4.55,5.31-1.98-2.09-5.05-2.69-7.58-1.52-2.32,1.07-3.81,3.45-3.79,6.07-2.77-1.87-6.4-1.87-9.1,0-2.87,1.99-4.12,5.7-3.03,9.1Z"/>
      <path class="cls-2" d="M105.01,57.09c-.48,3.61-1.06,11.86,3,21,1.1,2.49,4.58,10.06,12.5,15.5,9.89,6.8,20.5,6.52,20.5,6.5,0-.03-15.29.73-26.5-8.5-8.73-7.19-11.76-17.8-13-25-1.17,1.31-6.72,7.23-16,8-10.03.83-16.83-4.97-18-6,1.6.95,9.74,5.58,20,3,11.84-2.97,16.84-13.11,17.5-14.5Z"/>
      <path class="cls-2" d="M180.51,57.59c.8,1.29,2.09,3.11,4,5,1.45,1.43,2.67,2.32,5,4,1.46,1.06,3.49,2.45,6,4-.96-.26-1.96-.58-3-1-4.61-1.85-7.88-4.7-10-7,.16,3.21.09,10.37-4,18-5.11,9.53-13.21,13.71-16,15,2.99-1.68,9.48-5.87,14-14,5.89-10.6,4.54-20.86,4-24Z"/>
      <path class="cls-4" d="M11.51,69.59c-.85-.14-1.25-4.79,0-9,1.24-4.16,3.73-6.73,5-8,4.59-4.61,10.58-6.67,11-6,.42.67-5.32,3.17-10,10-4.67,6.83-4.99,13.17-6,13Z"/>
    </g>
  </g>
</svg>