<?xml version="1.0" encoding="UTF-8"?>
<svg id="Layer_2" data-name="Layer 2" xmlns="http://www.w3.org/2000/svg" viewBox="0 0 2412.26 1179.48">
  <defs>
    <style>
      .cls-1 {
        fill: #fff;
      }

      .cls-2 {
        stroke: #fff;
        stroke-miterlimit: 10;
      }

      .cls-2, .cls-3 {
        fill: none;
      }

      .cls-4 {
        fill: #606060;
      }

      .cls-5 {
        fill: #404040;
      }

      .cls-6 {
        fill: #a0a0a0;
      }

      .cls-7 {
        fill: #bfbfbf;
      }

      .cls-8 {
        fill: #6d8eff;
      }

      .cls-9 {
        fill: #999;
      }

      .cls-10 {
        fill: gray;
      }

      .cls-11 {
        fill: #760c00;
      }
    </style>
  </defs>
  <g id="Layer_1-2" data-name="Layer 1">
    <rect class="cls-11" x=".43" y="719.68" width="2410.21" height="153.78"/>
    <path class="cls-2" d="M1.76,756.59c802.91-1.03,1605.82-2.05,2408.73-3.08"/>
    <path class="cls-2" d="M1.24,796.1c802.91-1.03,1605.82-2.05,2408.73-3.08"/>
    <path class="cls-2" d="M1.24,833c802.91-1.03,1605.82-2.05,2408.73-3.08"/>
    <rect class="cls-10" y="873.46" width="2410.49" height="153.78"/>
    <path class="cls-8" d="M2410.49,1179.48H0v-219.9c58.48-13.87,146.32-30.67,254.11-35.37,139.9-6.1,220,12.27,340.57,24.6,202.39,20.7,188.38-9.41,490.57-1.54,268.36,6.99,292.59,31.09,518.8,26.14,129.97-2.84,156.14-11.54,317.63-19.99,208.37-10.9,377.43-7.55,487.04-3.08.59,76.38,1.18,152.75,1.76,229.13Z"/>
    <rect class="cls-9" x=".88" width="2410.49" height="719.68"/>
    <ellipse class="cls-10" cx="1710.76" cy="442.11" rx="215.29" ry="216.06"/>
    <rect class="cls-4" x="1.76" y="93.8" width="2408.73" height="146.09"/>
    <path class="cls-6" d="M1.76,210.68c803.5.51,1606.99,1.03,2410.49,1.54"/>
    <ellipse class="cls-10" cx="586.48" cy="485.55" rx="151.32" ry="151.86"/>
    <ellipse class="cls-5" cx="1711.32" cy="441.73" rx="165.87" ry="166.46"/>
    <ellipse class="cls-5" cx="586.72" cy="485.24" rx="110.64" ry="111.04"/>
    <rect class="cls-7" x="302.15" width="23.07" height="373.68"/>
    <rect class="cls-7" x="745.03" width="23.07" height="373.68"/>
    <rect class="cls-7" x="523.59" y="130.71" width="23.07" height="465.95" transform="translate(171.44 898.81) rotate(-90)"/>
    <rect class="cls-7" x="1193.71" y="-720.07" width="23.07" height="2410.49" transform="translate(720.07 1690.42) rotate(-90)"/>
    <rect class="cls-7" x="1226.36" width="23.07" height="461.33"/>
    <rect class="cls-7" x="1592.35" y="441.34" width="23.07" height="278.34"/>
    <rect class="cls-7" x="1409.35" y="255.27" width="23.07" height="389.06" transform="translate(1870.69 -971.09) rotate(90)"/>
    <polygon class="cls-7" points="1588.02 873.46 1564.95 873.46 1592.07 719.68 1615.13 719.68 1588.02 873.46"/>
    <rect class="cls-7" x="1564.67" y="873.46" width="23.07" height="115.33" rx="8.69" ry="8.69"/>
    <path class="cls-1" d="M368.27,356.77v15.38c.13.61.91,4.46-1.54,7.69-2.34,3.08-6.66,4.35-10.76,3.08h-49.21c-2.4-.35-6.42-1.34-9.23-4.61-2.48-2.88-3.08-6.22-3.08-7.69v-55.99c0-3.91,3.15-7.06,7.06-7.06h22.79c3.91,0,7.06,3.15,7.06,7.06v22.54c-.03.29-.37,4.66,3.08,7.31,2.62,2.01,5.59,1.62,6.15,1.54h19.99c.53.03,3.85.25,6.15,3.08,2.7,3.32,1.64,7.31,1.54,7.69Z"/>
    <path class="cls-1" d="M749.64,309.09h15.38c.61-.13,4.46-.91,7.69,1.54,3.08,2.34,4.35,6.66,3.08,10.76v49.21c-.35,2.4-1.34,6.42-4.61,9.23-2.88,2.48-6.22,3.08-7.69,3.08h-55.99c-3.91,0-7.06-3.15-7.06-7.06v-22.79c0-3.91,3.15-7.06,7.06-7.06h22.54c.29.03,4.66.37,7.31-3.08,2.01-2.62,1.62-5.59,1.54-6.15v-19.99c.03-.53.25-3.85,3.08-6.15,3.32-2.7,7.31-1.64,7.69-1.54Z"/>
    <path class="cls-1" d="M1294.02,441.34v15.38c.13.61.91,4.46-1.54,7.69-2.34,3.08-6.66,4.35-10.76,3.08h-49.21c-2.4-.35-6.42-1.34-9.23-4.61-2.48-2.88-3.08-6.22-3.08-7.69v-55.99c0-3.91,3.15-7.06,7.06-7.06h22.79c3.91,0,7.06,3.15,7.06,7.06v22.54c-.03.29-.37,4.66,3.08,7.31,2.62,2.01,5.59,1.62,6.15,1.54h19.99c.53.03,3.85.25,6.15,3.08,2.7,3.32,1.64,7.31,1.54,7.69Z"/>
    <path class="cls-1" d="M1547.75,456.72v-15.38c-.13-.61-.91-4.46,1.54-7.69,2.34-3.08,6.66-4.35,10.76-3.08h49.21c2.4.35,6.42,1.34,9.23,4.61,2.48,2.88,3.08,6.22,3.08,7.69v55.99c0,3.91-3.15,7.06-7.06,7.06h-22.79c-3.91,0-7.06-3.15-7.06-7.06v-22.54c.03-.29.37-4.66-3.08-7.31-2.62-2.01-5.59-1.62-6.15-1.54h-19.99c-.53-.03-3.85-.25-6.15-3.08-2.7-3.32-1.64-7.31-1.54-7.69Z"/>
    <path class="cls-1" d="M1601.36,854.47l-2.64,14.92c-.2,1.08-.57,2.11-1.11,3.06.57,1.18.89,2.49.89,3.89v21.93c0,4.98-4.04,9.03-9.03,9.03h-26.54c-4.98,0-9.03-4.04-9.03-9.03v-21.93c0-1.03.17-2.01.49-2.94-.42-1.2-.54-2.57-.28-4.01l2.64-14.92c.85-4.8,5.41-8.69,10.21-8.69h27.22c4.8,0,8.01,3.89,7.17,8.69Z"/>
    <path class="cls-3" d="M1553.9,873.46c2.58-1.97,10.97-7.84,23.07-7.69,9.96.12,17.11,4.26,19.99,6.15"/>
    <path class="cls-2" d="M1590.81,724.3c1.24-6.11,6.41-10.54,12.3-10.76,5.14-.2,10.01,2.84,12.3,7.69"/>
    <rect class="cls-1" x="343.67" y="465.95" width="24.6" height="38.44" rx="8.88" ry="8.88"/>
    <rect class="cls-1" x="915.72" y="465.95" width="24.6" height="38.44" rx="8.88" ry="8.88"/>
    <rect class="cls-1" x="1686.15" y="465.95" width="24.6" height="38.44" rx="8.88" ry="8.88"/>
    <rect class="cls-1" x="2189.01" y="464.41" width="24.6" height="38.44" rx="8.88" ry="8.88"/>
    <rect class="cls-10" x="399.03" y="72.28" width="92.27" height="190.69" rx="34.27" ry="34.27"/>
    <rect class="cls-10" x="1403.2" y="72.28" width="92.27" height="190.69" rx="34.27" ry="34.27"/>
    <path class="cls-10" d="M2411.75,262.96h-27.22c-21.72,0-39.33-15.34-39.33-34.27v-122.14c0-18.93,17.61-34.27,39.33-34.27h27.22v190.69Z"/>
    <path class="cls-2" d="M239.1,719.68c-4.61,11.79-9.23,23.58-13.84,35.37"/>
    <path class="cls-2" d="M303.69,756.59c-4.61,13.33-9.23,26.65-13.84,39.98"/>
    <path class="cls-2" d="M389.35,719.98c-4.61,11.79-9.23,23.58-13.84,35.37"/>
    <path class="cls-2" d="M541.59,719.98c-4.61,11.79-9.23,23.58-13.84,35.37"/>
    <path class="cls-2" d="M690.75,719.98c-4.61,11.79-9.23,23.58-13.84,35.37"/>
    <path class="cls-2" d="M600.48,756.59c-4.61,13.33-9.23,26.65-13.84,39.98"/>
    <path class="cls-2" d="M452.39,756.11c-4.61,13.33-9.23,26.65-13.84,39.98"/>
    <path class="cls-2" d="M763.03,756.11c-4.61,13.33-9.23,26.65-13.84,39.98"/>
    <path class="cls-2" d="M860.14,719.83c-4.61,11.79-9.23,23.58-13.84,35.37"/>
    <path class="cls-2" d="M1010.38,720.12c-4.61,11.79-9.23,23.58-13.84,35.37"/>
    <path class="cls-2" d="M1162.62,720.12c-4.61,11.79-9.23,23.58-13.84,35.37"/>
    <path class="cls-2" d="M1311.79,720.12c-4.61,11.79-9.23,23.58-13.84,35.37"/>
    <path class="cls-2" d="M1479.86,719.83c-4.61,11.79-9.23,23.58-13.84,35.37"/>
    <path class="cls-2" d="M1630.11,720.12c-4.61,11.79-9.23,23.58-13.84,35.37"/>
    <path class="cls-2" d="M1782.35,720.12c-4.61,11.79-9.23,23.58-13.84,35.37"/>
    <path class="cls-2" d="M1931.51,720.12c-4.61,11.79-9.23,23.58-13.84,35.37"/>
    <path class="cls-2" d="M215.8,796.72c-4.61,11.79-9.23,23.58-13.84,35.37"/>
    <path class="cls-2" d="M366.05,797.01c-4.61,11.79-9.23,23.58-13.84,35.37"/>
    <path class="cls-2" d="M518.29,797.01c-4.61,11.79-9.23,23.58-13.84,35.37"/>
    <path class="cls-2" d="M667.45,797.01c-4.61,11.79-9.23,23.58-13.84,35.37"/>
    <path class="cls-2" d="M838.61,796.72c-4.61,11.79-9.23,23.58-13.84,35.37"/>
    <path class="cls-2" d="M988.85,797.01c-4.61,11.79-9.23,23.58-13.84,35.37"/>
    <path class="cls-2" d="M1141.09,797.01c-4.61,11.79-9.23,23.58-13.84,35.37"/>
    <path class="cls-2" d="M1290.26,797.01c-4.61,11.79-9.23,23.58-13.84,35.37"/>
    <path class="cls-2" d="M1453.72,793.64c-4.61,11.79-9.23,23.58-13.84,35.37"/>
    <path class="cls-2" d="M1756.2,793.94c-4.61,11.79-9.23,23.58-13.84,35.37"/>
    <path class="cls-2" d="M1905.37,793.94c-4.61,11.79-9.23,23.58-13.84,35.37"/>
    <path class="cls-2" d="M2091.9,719.83c-4.61,11.79-9.23,23.58-13.84,35.37"/>
    <path class="cls-2" d="M2242.14,720.12c-4.61,11.79-9.23,23.58-13.84,35.37"/>
    <path class="cls-2" d="M2063.76,793.94c-4.61,11.79-9.23,23.58-13.84,35.37"/>
    <path class="cls-2" d="M2212.93,793.94c-4.61,11.79-9.23,23.58-13.84,35.37"/>
    <path class="cls-2" d="M925.33,754.81c-4.61,13.33-9.23,26.65-13.84,39.98"/>
    <path class="cls-2" d="M1222.12,754.81c-4.61,13.33-9.23,26.65-13.84,39.98"/>
    <path class="cls-2" d="M1074.03,754.34c-4.61,13.33-9.23,26.65-13.84,39.98"/>
    <path class="cls-2" d="M1384.67,754.34c-4.61,13.33-9.23,26.65-13.84,39.98"/>
    <path class="cls-2" d="M1541.98,754.81c-4.61,13.33-9.23,26.65-13.84,39.98"/>
    <path class="cls-2" d="M1838.77,754.81c-4.61,13.33-9.23,26.65-13.84,39.98"/>
    <path class="cls-2" d="M1690.69,754.34c-4.61,13.33-9.23,26.65-13.84,39.98"/>
    <path class="cls-2" d="M2001.32,754.34c-4.61,13.33-9.23,26.65-13.84,39.98"/>
    <path class="cls-2" d="M281,833.24c-4.61,13.33-9.23,26.65-13.84,39.98"/>
    <path class="cls-2" d="M577.79,833.24c-4.61,13.33-9.23,26.65-13.84,39.98"/>
    <path class="cls-2" d="M429.7,832.77c-4.61,13.33-9.23,26.65-13.84,39.98"/>
    <path class="cls-2" d="M740.34,832.77c-4.61,13.33-9.23,26.65-13.84,39.98"/>
    <path class="cls-2" d="M903.8,833.24c-4.61,13.33-9.23,26.65-13.84,39.98"/>
    <path class="cls-2" d="M1200.59,833.24c-4.61,13.33-9.23,26.65-13.84,39.98"/>
    <path class="cls-2" d="M1052.51,832.77c-4.61,13.33-9.23,26.65-13.84,39.98"/>
    <path class="cls-2" d="M1363.14,832.77c-4.61,13.33-9.23,26.65-13.84,39.98"/>
    <path class="cls-2" d="M1526.6,831.7c-4.61,13.33-9.23,26.65-13.84,39.98"/>
    <path class="cls-2" d="M1823.39,831.7c-4.61,13.33-9.23,26.65-13.84,39.98"/>
    <path class="cls-2" d="M1675.31,831.23c-4.61,13.33-9.23,26.65-13.84,39.98"/>
    <path class="cls-2" d="M1985.94,831.23c-4.61,13.33-9.23,26.65-13.84,39.98"/>
    <path class="cls-2" d="M2155.55,754.81c-4.61,13.33-9.23,26.65-13.84,39.98"/>
    <path class="cls-2" d="M2135.1,831.23c-4.61,13.33-9.23,26.65-13.84,39.98"/>
    <path class="cls-2" d="M2389.47,720.12c-4.61,11.79-9.23,23.58-13.84,35.37"/>
    <path class="cls-2" d="M2365.63,793.64c-4.61,11.79-9.23,23.58-13.84,35.37"/>
    <path class="cls-2" d="M78.23,720.98c-4.61,11.79-9.23,23.58-13.84,35.37"/>
    <path class="cls-2" d="M55.58,795.94c-4.61,11.79-9.23,23.58-13.84,35.37"/>
    <path class="cls-2" d="M150.98,756.11c-4.61,13.33-9.23,26.65-13.84,39.98"/>
    <path class="cls-2" d="M128.14,833.23c-4.61,13.33-9.23,26.65-13.84,39.98"/>
    <path class="cls-2" d="M2307.81,754.34c-4.61,13.33-9.23,26.65-13.84,39.98"/>
    <path class="cls-2" d="M2283.15,832.53c-4.61,13.33-9.23,26.65-13.84,39.98"/>
  </g>
</svg>