<?xml version="1.0" encoding="UTF-8"?>
<svg id="Layer_2" data-name="Layer 2" xmlns="http://www.w3.org/2000/svg" viewBox="0 0 77.52 80.71">
  <defs>
    <style>
      .cls-1 {
        fill: #fff;
      }

      .cls-2 {
        fill: none;
      }

      .cls-3 {
        fill: #603813;
      }

      .cls-4 {
        fill: #333;
      }

      .cls-5 {
        fill: #42210b;
      }

      .cls-6 {
        fill: #754c24;
      }
    </style>
  </defs>
  <g id="Layer_1-2" data-name="Layer 1">
    <g>
      <path d="M52.71,31.35c.28.02.72.04,1.24,0,2.34-.19,3.34-1.34,4.65-.93.33.1.78.33,1.24.93,2.55-.77,4.8-.35,5.58.93.16.26.31.65.31,1.24,1.57.42,2.55,1.08,3.1,1.55.08.06,1.57,1.33,2.17,2.17.11.16.28.42.62.62.33.2.61.2.62.31,0,.12-.33.27-.62.31-.37.06-.59-.06-.62,0-.06.11.85.42,1.55,1.24.6.7.58,1.23,1.24,1.55.3.15.62.18.62.31,0,.13-.34.27-.62.31-.36.05-.6-.05-.62,0-.04.09.73.36,1.24.93.44.49.58,1.1.62,1.55.23.4.45.71.62.93.39.5.59.75.93.93.5.26.91.17.93.31.02.12-.31.34-.62.31-.35-.03-.55-.36-.62-.31-.09.06.16.57.31.93.12.31.59,1.46.31,2.48-.28,1.02-1.2,1.58-1.24,1.55-.03-.03.5-.47.62-1.24.07-.45.02-1.09-.31-1.24-.01,0-.17-.07-.31,0-.26.13-.12.55-.31.93-.27.55-1.11.78-1.24.62-.11-.14.37-.47.62-1.24.31-.98.04-2.1-.31-2.17-.24-.05-.48.39-.62.31-.13-.07.04-.42,0-.93-.05-.64-.39-1.26-.62-1.24-.16.01-.24.33-.31.31-.07-.02,0-.31,0-.62-.02-.56-.3-.63-.62-1.55-.13-.38-.16-.58-.31-.62-.24-.06-.49.38-.62.31-.11-.05-.02-.36,0-.62.04-.71-.46-1.28-1.24-2.17-.21-.24-.52-.57-.93-.93-.03.14-.1.4-.31.62-.22.23-.55.38-.62.31-.07-.08.22-.32.31-.62.19-.62-.44-1.33-1.55-2.48-.65-.67-1.38-1.4-2.17-2.17-.2.13-.52.29-.93.31-.46.02-.8-.16-.93,0-.1.12.04.27,0,.62-.04.3-.2.63-.31.62-.16-.01-.13-.71-.31-1.24-.2-.57-.76-1.3-2.48-1.86-.07.26-.18.46-.31.62-1.01,1.21-3.99.73-7.44-.93.11-.18.21-.38.31-.62.19-.47.27-.9.31-1.24Z"/>
      <path class="cls-2" d="M65.73,33.52c-.09.2-.19.4-.31.62-.2.36-.42.67-.62.93"/>
      <path class="cls-2" d="M69.14,39.41s.64.34,1.24,0c.53-.3.61-.86.62-.93"/>
      <path class="cls-2" d="M71.93,42.82c.17-.06.39-.15.62-.31.31-.21.5-.45.62-.62"/>
      <path class="cls-2" d="M73.17,45.3c.25-.05.58-.14.93-.31.41-.2.72-.43.93-.62"/>
      <path class="cls-2" d="M74.41,47.16c.16.04.51.11.93,0,.53-.14.83-.49.93-.62"/>
      <path d="M24.81,31.19c-.28.02-.72.04-1.24,0-2.34-.19-3.34-1.34-4.65-.93-.33.1-.78.33-1.24.93-2.55-.77-4.8-.35-5.58.93-.16.26-.31.65-.31,1.24-1.57.42-2.55,1.08-3.1,1.55-.08.06-1.57,1.33-2.17,2.17-.11.16-.28.42-.62.62-.33.2-.61.2-.62.31,0,.12.33.27.62.31.37.06.59-.06.62,0,.06.11-.85.42-1.55,1.24-.6.7-.58,1.23-1.24,1.55-.3.15-.62.18-.62.31,0,.13.34.27.62.31.36.05.6-.05.62,0,.04.09-.73.36-1.24.93-.44.49-.58,1.1-.62,1.55-.23.4-.45.71-.62.93-.39.5-.59.75-.93.93-.5.26-.91.17-.93.31-.02.12.31.34.62.31.35-.03.55-.36.62-.31.09.06-.16.57-.31.93-.12.31-.59,1.46-.31,2.48.28,1.02,1.2,1.58,1.24,1.55.03-.03-.5-.47-.62-1.24-.07-.45-.02-1.09.31-1.24.01,0,.17-.07.31,0,.26.13.12.55.31.93.27.55,1.11.78,1.24.62.11-.14-.37-.47-.62-1.24-.31-.98-.04-2.1.31-2.17.24-.05.48.39.62.31.13-.07-.04-.42,0-.93.05-.64.39-1.26.62-1.24.16.01.24.33.31.31.07-.02,0-.31,0-.62.02-.56.3-.63.62-1.55.13-.38.16-.58.31-.62.24-.06.49.38.62.31.11-.05.02-.36,0-.62-.04-.71.46-1.28,1.24-2.17.21-.24.52-.57.93-.93.03.14.1.4.31.62.22.23.55.38.62.31.07-.08-.22-.32-.31-.62-.19-.62.44-1.33,1.55-2.48.65-.67,1.38-1.4,2.17-2.17.2.13.52.29.93.31.46.02.8-.16.93,0,.1.12-.04.27,0,.62.04.3.2.63.31.62.16-.01.13-.71.31-1.24.2-.57.76-1.3,2.48-1.86.07.26.18.46.31.62,1.01,1.21,3.99.73,7.44-.93-.11-.18-.21-.38-.31-.62-.19-.47-.27-.9-.31-1.24Z"/>
      <path class="cls-2" d="M17.67,31.19v.93c0,.41,0,.83,0,1.24"/>
      <path class="cls-2" d="M11.78,33.36c.09.2.19.4.31.62.2.36.42.67.62.93"/>
      <path class="cls-2" d="M8.37,39.25s-.64.34-1.24,0c-.53-.3-.61-.86-.62-.93"/>
      <path class="cls-2" d="M5.58,42.66c-.17-.06-.39-.15-.62-.31-.31-.21-.5-.45-.62-.62"/>
      <path class="cls-2" d="M4.34,45.14c-.25-.05-.58-.14-.93-.31-.41-.2-.72-.43-.93-.62"/>
      <path class="cls-2" d="M3.1,47c-.16.04-.51.11-.93,0-.53-.14-.83-.49-.93-.62"/>
      <path class="cls-5" d="M24.18,30.42c-.24.7-.22,1.75.31,2.48,1.76,2.42,7.41-1.05,11.16,1.86,1.2.93,1.78,2.19,3.1,2.17,1.07-.02,1.58-.85,2.48-1.55,3.67-2.86,8.83.33,10.85-2.17.51-.63.84-1.64.62-2.48-1.43-5.41-26.57-6.09-28.53-.31Z"/>
      <path d="M45.27,6.54c-.17-.47.15-.98.31-1.24.29-.46.56-.53.62-.93.05-.31-.06-.6,0-.62.06-.02.12.25.31.31.32.1.92-.43.93-.93,0-.15-.05-.29,0-.31.06-.03.19.14.31.31.06-.25.16-.46.31-.62.32-.34.64-.26.93-.62.23-.28.28-.63.31-.62.03,0-.08.24,0,.31.12.1.65-.16.93-.62.21-.33.2-.61.31-.62.07,0,.17.11.31.62.12-.1.33-.23.62-.31.41-.11.76-.04.93,0,.01-.03.09-.24.31-.31.14-.05.26-.01.31,0,.58-.37.98-.37,1.24-.31.4.1.58.38.93.31.33-.06.52-.38.62-.31.07.05.02.22,0,.31-.1.39-.33.44-.31.62.03.24.48.24.62.62.04.11.06.27,0,.31-.09.06-.27-.17-.62-.31-.44-.17-.91-.1-.93,0-.02.07.24.11.31.31.09.26-.17.64-.31.62-.14-.02-.06-.42-.31-.62-.22-.18-.59-.12-.93,0-.07.07-.18.18-.31.31-.31.31-.3.3-.31.31-.41.31-1.21-.08-1.24,0-.02.06.34.23.31.31-.02.06-.28,0-.62,0-.43.01-.92.15-.93.31-.01.14.33.25.31.31-.02.06-.29-.07-.62,0-.23.04-.23.13-.62.31-.39.18-.61.21-.62.31,0,.13.32.19.31.31,0,.11-.28.13-.62.31-.26.14-.67.43-.62.62.05.21.62.21.62.31,0,.1-.54,0-.93.31-.33.27-.21.57-.62.93-.14.12-.34.29-.62.31-.39.02-.8-.26-.93-.62Z"/>
      <path d="M52.09,21.73c.63-.3,2.66-1.35,3.72-3.72.56-1.25.63-2.39.62-3.1.09.07.21.17.31.31.26.34.24.61.31.62.17.01.71-1.37.31-2.79-.16-.55-.42-.97-.62-1.24.08-.01.19-.02.31,0,.32.05.53.22.62.31,0-.07-.06-.56.31-.93.23-.24.51-.29.62-.31-.17-.71-.07-1.27,0-1.55.05-.2.32-1.29,1.24-1.86.42-.27.75-.27.93-.62.16-.31.09-.67,0-.93.05.02.52.19.62.62.03.12.02.22,0,.31.11-.72.38-1.06.62-1.24.36-.27.77-.27.93-.62.1-.22.05-.46,0-.62.03.01.24.09.31.31.05.14.01.26,0,.31.05-.03.56-.32.62-.93.05-.52-.26-.87-.31-.93.25-.03.5.1.62.31.17.3,0,.6,0,.62.1-.08.31-.24.62-.31.27-.06.5-.03.62,0,.09-.14.37-.6.31-1.24-.07-.71-.51-1.14-.62-1.24.58.16.82.41.93.62.2.38.05.75.31.93.18.13.46.09.62,0,.41-.22.55-.97.31-1.86.06.04.55.34.62.93.06.48-.18.97-.62,1.24.07.2.11.43,0,.62-.11.2-.33.26-.31.31.03.11.9-.1.93,0,.02.07-.58.14-.93.62-.17.23-.11.52-.31.62-.11.05-.23.03-.31,0,.03.09.06.21,0,.31-.14.26-.65.05-1.24.31-.28.13-.67.4-.62.62.04.17.3.28.62.31-.06.1-.15.24-.31.31-.23.1-.37-.02-.62,0-.38.03-.41.37-.93.62-.53.25-.92.21-.93.31,0,.06.16.16.93.31-.96.38-1.37.86-1.55,1.24-.12.24-.24.62-.62.93-.22.18-.46.27-.62.31.22.31.46.72.62,1.24.49,1.57-.1,2.96-.31,3.41.05-.01.17-.05.31,0,.22.07.3.28.31.31-.05-.01-.17-.05-.31,0-.22.07-.3.28-.31.31.09.58.15,1.45,0,2.48-.07.45-.63,3.85-3.72,5.89-.59.39-1.63.97-3.1,1.24-.07-.54-.22-1.31-.62-2.17-.39-.85-.88-1.46-1.24-1.86Z"/>
      <path class="cls-2" d="M57.05,15.84c.65.15,1.65.28,2.79,0,.35-.08.66-.19.93-.31"/>
      <path class="cls-2" d="M58.6,10.88c.08-.03.6-.21,1.24-.14.3.03.5.1.62.14"/>
      <path class="cls-2" d="M61.39,6.85c-.02.08-.04.19,0,.31.06.17.22.25.31.31.17.1.39.28.62.62"/>
      <path class="cls-2" d="M63.25,4.99c.19.16.41.37.62.62.28.33.48.66.62.93"/>
      <path class="cls-2" d="M65.42,3.75c.2.26.42.57.62.93.12.22.22.42.31.62"/>
      <path class="cls-2" d="M47.75,5.3c-.17-.05-.6-.2-.93-.62-.18-.23-.27-.46-.31-.62"/>
      <path class="cls-2" d="M48.68,4.06c-.09-.01-.38-.07-.62-.31-.07-.07-.26-.28-.31-.62"/>
      <path class="cls-2" d="M50.23,3.13c-.2-.26-.42-.57-.62-.93-.12-.22-.22-.42-.31-.62"/>
      <path class="cls-2" d="M50.85.96c.1.18.21.39.31.62.15.34.24.65.31.93"/>
      <path class="cls-2" d="M52.71,2.51c.03-.22.06-.55,0-.93-.06-.41-.2-.73-.31-.93"/>
      <path class="cls-2" d="M53.33,1.89c.04-.17.11-.52,0-.93-.08-.29-.21-.5-.31-.62"/>
      <path d="M31.86,6.59c.17-.47-.15-.98-.31-1.24-.29-.46-.56-.53-.62-.93-.05-.31.06-.6,0-.62-.06-.02-.12.25-.31.31-.32.1-.92-.43-.93-.93,0-.15.05-.29,0-.31-.06-.03-.19.14-.31.31-.06-.25-.16-.46-.31-.62-.32-.34-.64-.26-.93-.62-.23-.28-.28-.63-.31-.62-.03,0,.08.24,0,.31-.12.1-.65-.16-.93-.62-.21-.33-.2-.61-.31-.62-.07,0-.17.11-.31.62-.12-.1-.33-.23-.62-.31-.41-.11-.76-.04-.93,0-.01-.03-.09-.24-.31-.31-.14-.05-.26-.01-.31,0-.58-.37-.98-.37-1.24-.31-.4.1-.58.38-.93.31-.33-.06-.52-.38-.62-.31-.07.05-.02.22,0,.31.1.39.33.44.31.62-.03.24-.48.24-.62.62-.04.11-.06.27,0,.31.09.06.27-.17.62-.31.44-.17.91-.1.93,0,.02.07-.24.11-.31.31-.09.26.17.64.31.62.14-.02.06-.42.31-.62.22-.18.59-.12.93,0,.07.07.18.18.31.31.31.31.3.3.31.31.41.31,1.21-.08,1.24,0,.02.06-.34.23-.31.31.02.06.28,0,.62,0,.43.01.92.15.93.31.01.14-.33.25-.31.31.02.06.29-.07.62,0,.23.04.23.13.62.31.39.18.61.21.62.31,0,.13-.32.19-.31.31,0,.11.28.13.62.31.26.14.67.43.62.62-.05.21-.62.21-.62.31,0,.1.54,0,.93.31.33.27.21.57.62.93.14.12.34.29.62.31.39.02.8-.26.93-.62Z"/>
      <path class="cls-2" d="M29.38,5.35c.17-.05.6-.2.93-.62.18-.23.27-.46.31-.62"/>
      <path class="cls-2" d="M28.45,4.11c.09-.01.38-.07.62-.31.07-.07.26-.28.31-.62"/>
      <path class="cls-2" d="M26.9,3.18c.2-.26.42-.57.62-.93.12-.22.22-.42.31-.62"/>
      <path class="cls-2" d="M26.28,1.01c-.1.18-.21.39-.31.62-.15.34-.24.65-.31.93"/>
      <path class="cls-2" d="M24.42,2.56c-.03-.22-.06-.55,0-.93.06-.41.2-.73.31-.93"/>
      <path class="cls-2" d="M23.8,1.94c-.04-.17-.11-.52,0-.93.08-.29.21-.5.31-.62"/>
      <circle class="cls-3" cx="38.45" cy="34.76" r="2.17"/>
      <path d="M25.31,21.71c-.63-.3-2.66-1.35-3.72-3.72-.56-1.25-.63-2.39-.62-3.1-.09.07-.21.17-.31.31-.26.34-.24.61-.31.62-.17.01-.71-1.37-.31-2.79.16-.55.42-.97.62-1.24-.08-.01-.19-.02-.31,0-.32.05-.53.22-.62.31,0-.07.06-.56-.31-.93-.23-.24-.51-.29-.62-.31.17-.71.07-1.27,0-1.55-.05-.2-.32-1.29-1.24-1.86-.42-.27-.75-.27-.93-.62-.16-.31-.09-.67,0-.93-.05.02-.52.19-.62.62-.03.12-.02.22,0,.31-.11-.72-.38-1.06-.62-1.24-.36-.27-.77-.27-.93-.62-.1-.22-.05-.46,0-.62-.03.01-.24.09-.31.31-.05.14-.01.26,0,.31-.05-.03-.56-.32-.62-.93-.05-.52.26-.87.31-.93-.25-.03-.5.1-.62.31-.17.3,0,.6,0,.62-.1-.08-.31-.24-.62-.31-.27-.06-.5-.03-.62,0-.09-.14-.37-.6-.31-1.24.07-.71.51-1.14.62-1.24-.58.16-.82.41-.93.62-.2.38-.05.75-.31.93-.18.13-.46.09-.62,0-.41-.22-.55-.97-.31-1.86-.06.04-.55.34-.62.93-.06.48.18.97.62,1.24-.07.2-.11.43,0,.62.11.2.33.26.31.31-.03.11-.9-.1-.93,0-.02.07.58.14.93.62.17.23.11.52.31.62.11.05.23.03.31,0-.03.09-.06.21,0,.31.14.26.65.05,1.24.31.28.13.67.4.62.62-.04.17-.3.28-.62.31.06.1.15.24.31.31.23.1.37-.02.62,0,.38.03.41.37.93.62.53.25.92.21.93.31,0,.06-.16.16-.93.31.96.38,1.37.86,1.55,1.24.12.24.24.62.62.93.22.18.46.27.62.31-.22.31-.46.72-.62,1.24-.49,1.57.1,2.96.31,3.41-.05-.01-.17-.05-.31,0-.22.07-.3.28-.31.31.05-.01.17-.05.31,0,.22.07.3.28.31.31-.09.58-.15,1.45,0,2.48.07.45.63,3.85,3.72,5.89.59.39,1.63.97,3.1,1.24.07-.54.22-1.31.62-2.17.39-.85.88-1.46,1.24-1.86Z"/>
      <path class="cls-2" d="M20.35,15.82c-.65.15-1.65.28-2.79,0-.35-.08-.66-.19-.93-.31"/>
      <path class="cls-2" d="M18.8,10.86c-.08-.03-.6-.21-1.24-.14-.3.03-.5.1-.62.14"/>
      <path class="cls-2" d="M16.01,6.83c.02.08.04.19,0,.31-.06.17-.22.25-.31.31-.17.1-.39.28-.62.62"/>
      <path class="cls-2" d="M14.15,4.97c-.19.16-.41.37-.62.62-.28.33-.48.66-.62.93"/>
      <path class="cls-2" d="M11.98,3.73c-.2.26-.42.57-.62.93-.12.22-.22.42-.31.62"/>
      <path class="cls-5" d="M29.15,18.32c-.69-.6-3.17-2.75-2.79-4.96.11-.66.47-1.29.62-1.55.71-1.25,1.39-1.42,2.48-2.79.83-1.04.61-1.16,1.24-1.86.37-.41,1.19-1.2,3.1-1.86,3.85-1.33,8.53-.91,10.85.62,1.02.67,1.86,1.55,1.86,1.55.59.61.93,1.12,1.24,1.55,2.04,2.89,2.56,2.89,2.79,3.72.62,2.22-2.33,4.86-2.79,5.27-5.03,4.51-14.18,4.15-18.6.31Z"/>
      <path class="cls-6" d="M38.14,18.32c2.24.04,2.7-.71,4.65-.93,3.22-.36,6.59,1.18,8.68,3.41.74.79,1.98,2.36,2.48,4.65.28,1.31.73,3.33-.31,4.65-.99,1.26-2.54.89-7.13,1.24-5.2.4-4.93,1.01-8.06.93-3.3-.09-3.11-.75-7.75-1.24-4.82-.51-6.51.06-7.44-1.24-.96-1.34-.27-3.47.31-5.27.33-1.03.9-2.77,2.48-4.34,2.09-2.08,5.13-3.04,7.75-2.79,1.95.18,2.19.89,4.34.93Z"/>
      <path d="M55.81,41.58c5.96,2.2,9.87,5.75,9.61,8.99-.04.55-.21,1.17-.62,1.86.44,1.3,1.51,5.08-.31,8.68-.37.73-.8,1.34-1.24,1.86.43,1.09.41,1.91.31,2.48-.26,1.44-1.25,2.22-.93,3.41.13.46.41.85.31.93-.11.08-.6-.26-.93-.62-.19-.2-.25-.33-.31-.31-.13.03.16.74,0,1.55-.16.8-.6.88-.62,1.55-.02.68.41,1.17.31,1.24-.13.09-.68-.73-.93-.62-.16.07-.11.5,0,1.55.16,1.56.19,2.09,0,2.17-.2.08-.51-.39-.62-.31-.12.08.2.57.31,1.24.17.99-.19,1.87-.31,1.86-.09,0-.03-.44-.31-.62-.19-.12-.44-.07-.62,0-.03.72.13,1.22.31,1.55.16.3.37.56.31.62-.07.07-.39-.12-.62-.31-.37-.31-.54-.69-.62-.93-.05.14-.4,1-1.24,1.24-.78.22-1.57-.2-1.55-.31.01-.09.52.03.93-.31.19-.16.39-.45.31-.62-.1-.21-.54-.01-.93-.31-.23-.17-.4-.49-.31-.62.11-.18.58.14,1.24,0,.52-.11.97-.45.93-.62-.05-.21-.87-.08-.93-.31-.04-.15.28-.27.62-.62.54-.55.82-1.36.62-1.55-.15-.15-.54.11-.62,0-.08-.12.35-.39.62-.93.29-.58.03-.76.31-1.55.19-.52.42-.8.31-.93-.13-.15-.57.09-.62,0-.04-.08.34-.29.62-.62.44-.52.31-.96.62-1.86.1-.3.28-.74.62-1.24-.12-.2-.27-.52-.31-.93-.04-.48.12-.87,0-.93-.13-.07-.37.37-.62.31-.26-.06-.36-.59-.31-.62.04-.02.13.29.31.31.34.04.65-1.05,1.24-2.17.27-.52.66-1.16,1.24-1.86-.1-.73-.21-.92-.31-.93-.16-.01-.22.43-.62.62-.26.12-.58.1-.62,0-.05-.12.31-.29.62-.62.24-.26.34-.51.62-1.55.48-1.8.45-2.08.31-2.17-.13-.08-.25.06-.62,0-.36-.06-.64-.26-.62-.31.02-.05.31.09.62,0,.06-.02.36-.12.62-.62.46-.89.04-1.55.31-2.79.09-.41.22-.73.31-.93-.21-.11-.55-.32-.93-.62-1.7-1.37-1.85-3.01-3.1-4.96-.4-.63-1.07-1.53-2.17-2.48v-3.41Z"/>
      <path class="cls-2" d="M62.01,53.05c.3.05.73.08,1.24,0,.73-.12,1.26-.42,1.55-.62"/>
      <path class="cls-2" d="M61.39,62.35c.18.11.38.21.62.31.47.19.9.27,1.24.31"/>
      <path class="cls-2" d="M59.84,68.24c.1.13.4.48.93.62.42.11.77.04.93,0"/>
      <path class="cls-2" d="M58.6,71.96c.1.13.4.48.93.62.42.11.77.04.93,0"/>
      <path class="cls-2" d="M57.98,75.37c.1.13.4.48.93.62.42.11.77.04.93,0"/>
      <path class="cls-2" d="M57.67,77.85c.02.06.18.47.62.62.28.1.53.03.62,0"/>
      <path d="M21.7,41.45c-5.96,2.2-9.87,5.75-9.61,8.99.04.55.21,1.17.62,1.86-.44,1.3-1.51,5.08.31,8.68.37.73.8,1.34,1.24,1.86-.43,1.09-.41,1.91-.31,2.48.26,1.44,1.25,2.22.93,3.41-.13.46-.41.85-.31.93.11.08.6-.26.93-.62.19-.2.25-.33.31-.31.13.03-.16.74,0,1.55.16.8.6.88.62,1.55.02.68-.41,1.17-.31,1.24.13.09.68-.73.93-.62.16.07.11.5,0,1.55-.16,1.56-.19,2.09,0,2.17.2.08.51-.39.62-.31.12.08-.2.57-.31,1.24-.17.99.19,1.87.31,1.86.09,0,.03-.44.31-.62.19-.12.44-.07.62,0,.03.72-.13,1.22-.31,1.55-.16.3-.37.56-.31.62.07.07.39-.12.62-.31.37-.31.54-.69.62-.93.05.14.4,1,1.24,1.24.78.22,1.57-.2,1.55-.31-.01-.09-.52.03-.93-.31-.19-.16-.39-.45-.31-.62.1-.21.54-.01.93-.31.23-.17.4-.49.31-.62-.11-.18-.58.14-1.24,0-.52-.11-.97-.45-.93-.62.05-.21.87-.08.93-.31.04-.15-.28-.27-.62-.62-.54-.55-.82-1.36-.62-1.55.15-.15.54.11.62,0,.08-.12-.35-.39-.62-.93-.29-.58-.03-.76-.31-1.55-.19-.52-.42-.8-.31-.93.13-.15.57.09.62,0,.04-.08-.34-.29-.62-.62-.44-.52-.31-.96-.62-1.86-.1-.3-.28-.74-.62-1.24.12-.2.27-.52.31-.93.04-.48-.12-.87,0-.93.13-.07.37.37.62.31.26-.06.36-.59.31-.62-.04-.02-.13.29-.31.31-.34.04-.65-1.05-1.24-2.17-.27-.52-.66-1.16-1.24-1.86.1-.73.21-.92.31-.93.16-.01.22.43.62.62.26.12.58.1.62,0,.05-.12-.31-.29-.62-.62-.24-.26-.34-.51-.62-1.55-.48-1.8-.45-2.08-.31-2.17.13-.08.25.06.62,0,.36-.06.64-.26.62-.31-.02-.05-.31.09-.62,0-.06-.02-.36-.12-.62-.62-.46-.89-.04-1.55-.31-2.79-.09-.41-.22-.73-.31-.93.21-.11.55-.32.93-.62,1.7-1.37,1.85-3.01,3.1-4.96.4-.63,1.07-1.53,2.17-2.48v-1.55c0-.62,0-1.24,0-1.86Z"/>
      <path class="cls-2" d="M15.5,52.93c-.3.05-.73.08-1.24,0-.73-.12-1.26-.42-1.55-.62"/>
      <path class="cls-2" d="M16.12,62.23c-.18.11-.38.21-.62.31-.47.19-.9.27-1.24.31"/>
      <path class="cls-2" d="M17.67,68.12c-.1.13-.4.48-.93.62-.42.11-.77.04-.93,0"/>
      <path class="cls-2" d="M18.91,71.84c-.1.13-.4.48-.93.62-.42.11-.77.04-.93,0"/>
      <path class="cls-6" d="M38.45,38.79c-.1-.83-.4-2.36-1.55-3.72-2.11-2.5-5.42-2.49-6.82-2.48-1.23,0-4.43.02-6.51,2.17-1.44,1.49-1.64,3.27-1.86,7.44-.48,9.04-.7,13.64.31,17.05.61,2.07,1.47,4.85,3.72,7.75,3.3,4.24,9.16,8.15,11.78,6.51.75-.47,1.08-1.29,1.24-1.86-.1-10.96-.21-21.91-.31-32.87Z"/>
      <path class="cls-5" d="M35.04,36c.32,11.94,1.26,23.81,2.79,35.66-2.89-11.61-3.84-23.74-2.79-35.66h0Z"/>
      <path class="cls-5" d="M32.95,34.81c-.21,12.51,1.12,24.97,3.95,37.15-4.17-11.84-5.53-24.7-3.95-37.15h0Z"/>
      <path class="cls-5" d="M30.3,33.75c-.75,13.09,1.18,26.21,5.67,38.53-.74-1.47-1.38-2.98-2.01-4.51-4.17-10.75-5.55-22.63-3.66-34.02h0Z"/>
      <path class="cls-5" d="M27.47,33.68c-1.28,13.36,1.25,26.91,7.26,38.91-.92-1.41-1.74-2.88-2.52-4.38-5.31-10.56-7.11-22.92-4.74-34.53h0Z"/>
      <path class="cls-5" d="M24.41,34.68c-1.77,11.55.37,23.62,6.36,33.68.82,1.46,1.76,2.85,2.71,4.23-9.07-10.06-12.59-24.83-9.08-37.91h0Z"/>
      <path class="cls-5" d="M22.63,54.29c1.91,6.44,5,12.2,9.3,17.36-5.29-4.11-8.8-10.68-9.3-17.36h0Z"/>
      <path class="cls-6" d="M38.45,38.79c.24-.86.79-2.32,2.08-3.62,2.45-2.47,5.7-2.48,6.82-2.48,1.23,0,4.43.02,6.51,2.17,1.44,1.49,1.64,3.27,1.86,7.44.48,9.04.7,13.64-.31,17.05-.61,2.07-1.47,4.85-3.72,7.75-3.3,4.24-9.16,8.15-11.78,6.51-.75-.47-1.08-1.29-1.24-1.86-.07-10.99-.14-21.98-.22-32.96Z"/>
      <path class="cls-5" d="M42.39,36.09c1.05,11.92.1,24.05-2.79,35.66,1.54-11.84,2.47-23.72,2.79-35.66h0Z"/>
      <path class="cls-5" d="M44.48,34.91c1.58,12.45.22,25.32-3.95,37.15,2.83-12.19,4.16-24.64,3.95-37.15h0Z"/>
      <path class="cls-5" d="M47.12,33.85c1.89,11.39.51,23.27-3.66,34.02-.62,1.52-1.26,3.04-2.01,4.51,4.48-12.32,6.41-25.44,5.67-38.53h0Z"/>
      <path class="cls-5" d="M49.96,33.77c2.36,11.6.57,23.97-4.74,34.53-.78,1.5-1.6,2.97-2.52,4.38,6.01-12,8.54-25.55,7.26-38.91h0Z"/>
      <path class="cls-5" d="M53.01,34.78c3.51,13.08,0,27.85-9.08,37.91.96-1.38,1.89-2.77,2.71-4.23,5.99-10.06,8.13-22.13,6.36-33.68h0Z"/>
      <path class="cls-5" d="M54.79,54.39c-.5,6.68-4.01,13.25-9.3,17.36,4.3-5.16,7.39-10.92,9.3-17.36h0Z"/>
      <path class="cls-2" d="M27.91,13.98c-.04.25-.1.93.31,1.55.54.83,1.71,1.22,2.48.93,1.38-.52.59-2.85,2.17-4.34.99-.94,2.41-.93,5.27-.93,3.37,0,5.15,0,6.2,1.24,1.21,1.42.48,3.3,1.86,4.03.57.3,1.31.31,1.86,0,.8-.45,1.21-1.57.93-2.79"/>
      <circle class="cls-1" cx="28.89" cy="9.83" r="3.83"/>
      <circle class="cls-4" cx="29" cy="9.75" r="2.95"/>
      <circle cx="28.78" cy="9.78" r="1.79"/>
      <circle class="cls-1" cx="30.69" cy="8.01" r="1.21"/>
      <circle class="cls-1" cx="48.07" cy="9.65" r="3.83"/>
      <circle class="cls-4" cx="48.18" cy="9.57" r="2.95"/>
      <circle cx="47.97" cy="9.6" r="1.79"/>
      <circle class="cls-1" cx="49.87" cy="7.82" r="1.21"/>
    </g>
  </g>
</svg>