<?xml version="1.0" encoding="UTF-8"?>
<svg id="Layer_2" data-name="Layer 2" xmlns="http://www.w3.org/2000/svg" viewBox="0 0 297.29 123.51">
  <defs>
    <style>
      .cls-1 {
        fill: #4d4d4d;
      }

      .cls-2 {
        fill: #fff;
      }

      .cls-3 {
        fill: none;
      }

      .cls-4 {
        fill: #666;
      }

      .cls-5 {
        fill: #333;
      }

      .cls-6 {
        fill: #1a1a1a;
      }

      .cls-7 {
        fill: #999;
      }

      .cls-8 {
        fill: gray;
      }
    </style>
  </defs>
  <g id="Layer_1-2" data-name="Layer 1">
    <g>
      <path class="cls-3" d="M7.66,57.99c.43,0,.84-.91.84-1.68s-.41-1.68-.84-1.68-.84.91-.84,1.68.41,1.68.84,1.68Z"/>
      <path class="cls-1" d="M279.78,105.02c1.06,2.3-5.37,8.89-12.6,10.92-2.59.73-2.23.01-5.88.84-6.52,1.48-8.43,3.94-15.96,5.88-2.89.74-4.31.82-5.04.84-3.52.08-5.5-.92-8.4-1.68-5.38-1.41-6.09.09-11.76-.84-5.48-.9-11.94-3.46-11.76-5.04.22-1.91,9.98-1.67,21-2.52,31.57-2.43,48.8-11.87,50.39-8.4Z"/>
      <path class="cls-1" d="M183.19,60.51c.27,1.86,6.88,2.99,11.76,2.52,6.6-.63,7.76-3.97,15.96-5.04,4.76-.62,9.13-.12,10.08,0,5.09.63,5.6,1.68,9.24,1.68,4.89,0,5.21-1.91,10.92-2.52,3.73-.4,8.23-.88,11.76,1.68,2.62,1.9,2.91,4.17,5.88,5.04,2.2.64,2.73-.4,5.04,0,4.96.86,7.09,6.45,8.4,5.88.91-.39.79-3.44,0-5.88-2.79-8.59-14.8-12.11-19.32-13.44-29.8-8.75-70.39,5.31-69.71,10.08Z"/>
      <path class="cls-1" d="M140.36,74.79c14.2,1.18,22.52,2.78,27.72,4.2,1.04.29,4.96,1.39,5.88,0,.69-1.04-.74-2.83-2.52-6.72-1.27-2.76-2.05-5.13-2.52-6.72"/>
      <path class="cls-1" d="M218.46,92.43c-2.77-1.38-6.77-3.23-11.76-5.04-6.28-2.28-9.43-3.41-12.6-3.36-6.39.11-15,3.58-17.64,10.92-.35.98-1.66,4.99,0,9.24,2.39,6.12,9.16,8.19,12.6,9.24,5.31,1.62,9.98,1.17,13.44.84,4.52-.43,4.51-1.14,9.24-1.68,8.36-.96,12.75.74,13.44-.84.77-1.78-4.74-4.05-6.72-10.08-1.15-3.49-.66-6.84,0-9.24Z"/>
      <path class="cls-8" d="M103.4,72.27c2.97,4.03,16.44-2.05,45.35-13.44,36.32-14.31,45.7-16.8,54.59-18.48,13.5-2.54,25.08-4.59,39.47-.84,6.92,1.8,28.22,7.35,33.59,24.36,2.12,6.72,1.05,12.97,0,16.8,2.07-1.2,6.69-4.27,9.24-10.08,3.09-7.05,1.16-13.66,0-17.64-.59-2.02-2.64-8.33-8.4-14.28-6.5-6.72-14.27-9.39-20.16-10.92-31.72-8.24-76.05-.66-79.79,0,0,0-24.48,4.34-51.23,16.8-4.33,2.02-14.41,6.93-20.16,17.64-1.79,3.35-4.19,7.81-2.52,10.08Z"/>
      <path class="cls-1" d="M68.13,29.43c-.6-1.17,4.32-4.67,8.4-7.56,7.58-5.38,8.97-4.43,9.24-4.2.71.62-.09,1.82.84,3.36,1.13,1.87,3.31,1.76,3.36,2.52.07,1.12-4.67,2.24-9.24,3.36-10.59,2.58-12.27,3.16-12.6,2.52Z"/>
      <path class="cls-4" d="M64.77,89.07c23.52-2.1,42.58-5.91,56.27-9.24,22.25-5.41,42.83-12.6,42.83-12.6,10.45-3.65,20.05-7.44,36.95-12.6,17.13-5.23,22.27-5.91,27.72-5.88,14.36.07,24.4,5.02,29.4,7.56,6.18,3.14,10.72,5.52,13.44,10.92,3.49,6.91,1.67,14.11.84,16.8,1.4-1.12,2.8-2.24,4.2-3.36.86-3.31,2.23-10.61-.84-18.48-.66-1.69-3.33-8.04-11.96-14.19-24.1-17.19-60.03-8.15-72.03-5.13-5.23,1.32-10.06,3.06-10.06,3.06-7.71,2.91-11.47,5.95-32.77,12.9-21.3,6.95-27.43,7.14-45.35,13.44-16.9,5.94-30.11,12.33-38.63,16.8Z"/>
      <path class="cls-7" d="M.1,69.75c.63,5.1,4.18,8.49,5.88,10.08,7.81,7.27,18.41,8.18,32.76,9.24,15.27,1.12,22.91,1.69,31.08-1.68,5.38-2.22,8.65-4.99,15.96-5.88,6.1-.75,9.15.53,12.6-1.68,5.04-3.23,5.57-10.5,5.88-12.6,3.02-20.24,57.25-34.25,61.31-35.27,51.99-13.05,97.49-5.34,110.02,8.4,5.66,6.21,7.56,13.44,7.56,13.44.52,1.99,2.75,11.35-1.68,20.16-5.25,10.44-16.63,13.66-27.72,16.8-6.4,1.81-16.87,3.89-30.24,2.52,6.17,2.45,16.52,5.61,29.4,5.04,8.47-.38,27.66-1.22,37.79-14.28,11.27-14.51,6.54-37.9-2.52-52.07C272.09,6.78,238.03,3.88,212.59,1.72c-57.3-4.88-113.23,17.89-120.1,21-1.3.59-6.65,3.1-14.28,5.04-8.21,2.09-14.54,2.38-16.8,2.52-22.61,1.45-50.82,15.63-58.79,29.4-.99,1.7-3.09,5.45-2.52,10.08Z"/>
      <path class="cls-1" d="M84.08,81.51c.27.47,1.16.02,4.2,0,0,0,3.47-.03,7.56.84,4.54.96,6.03,4.27,10.92,8.4,7.16,6.04,17.37,10.27,20.16,7.56.7-.68.77-1.65.84-2.52.3-4-3.76-5.38-5.04-10.08-.97-3.57,1.03-4.05,0-6.72-1.84-4.79-9.45-6.28-15.96-7.56-3.27-.64-4.91-.96-6.72-.84-9.54.65-16.85,9.39-15.96,10.92Z"/>
      <path class="cls-8" d="M223.5,93.27c-1.73-.41-4.81-.89-8.4,0-3.25.81-9.11,3.28-9.24,6.72-.1,2.86,3.82,5.06,8.4,7.56,8.22,4.49,15.48,5.8,15.96,5.88,13.52,2.32,27.8,4.77,41.99-3.36,18.83-10.79,22.91-31.87,23.52-35.27-1.4,3.58-4.28,9.42-10.08,14.28-7.32,6.13-15.13,7.23-23.52,8.4-14.35,2.01-26.33-.9-32.76-2.52-2.46-.62-4.49-1.23-5.88-1.68Z"/>
      <path d="M13.41,47.88c1.15-5.01,4.25-9.85,9.04-12.03,4.75-2.02,10.07-2.47,14.6-5.05,1.52-.8,2.99-1.7,4.36-2.73,1.38-1.02,2.58-2.26,3.69-3.58,2.18-2.68,4.97-4.8,7.93-6.55,6.05-3.3,12.48-5.81,18.9-8.29,0,0,9.63-3.73,9.63-3.73,0,0-9.62,3.76-9.62,3.76-6.4,2.49-12.83,5.03-18.87,8.34-2.95,1.75-5.72,3.87-7.89,6.55-1.11,1.32-2.31,2.57-3.7,3.61-4.12,3.17-9.07,5.04-14.08,6.23-7.24,1.41-12.16,6.35-13.76,13.54,0,0-.24-.06-.24-.06h0Z"/>
      <path d="M21.99,74.68c9.62,4.79,18.31,11.12,27,17.37,10.79,6.93,23.79,10.86,36.63,8.9,10.7-1.14,21.55,1.15,31.22,5.75-7.75-3.63-16.22-5.88-24.8-5.97-4.29-.1-8.54.64-12.82.8-4.29.16-8.58-.5-12.73-1.57-8.31-2.18-16.06-6.25-22.84-11.49-6.85-5.14-14.17-9.65-21.77-13.58l.11-.22h0Z"/>
      <path d="M4.3,59.67c-.41,2.86-.59,7.39,1.68,11.76,3.71,7.12,11.6,9.35,20.16,11.76,5.37,1.51,13.74,3.18,24.36,2.52-14.73,2.04-25.69-.49-31.92-2.52-12.31-4.02-14.6-8.86-15.12-10.08-2.32-5.44-.18-11.14.84-13.44"/>
      <path class="cls-6" d="M70.65,51.27c.02.65,7.3-.4,16.8,3.36,2.85,1.13,5.12,2.38,6.72,3.36-.21,1.97-.66,4.6-1.68,7.56-3.4,9.8-10.3,14.9-10.08,15.12.23.23,7.17-5.58,12.6-15.12,3.07-5.39,3.17-7.6,2.52-9.24-1.2-3.02-4.93-4.09-8.4-5.04-9.58-2.61-18.5-.72-18.48,0Z"/>
      <path class="cls-1" d="M110.12,26.92c-.58-1.26,2.19-2.55,5.04-6.72,3.34-4.89,2.2-7.01,5.88-13.44,1.68-2.94,4.62-7.21,5.88-6.72.77.3.05,2.05.84,5.04,1.16,4.39,4.08,5.79,3.36,7.56-.61,1.49-2.74.64-4.2,2.52-1.7,2.2.15,4.73-1.68,6.72-.82.88-1.23.43-3.36,1.68-2.43,1.42-2.57,2.41-4.2,3.36-2.78,1.62-6.93,1.38-7.56,0Z"/>
      <path class="cls-3" d="M12.69,68.91c.6-.37,2.26-1.28,4.2-.84,1.19.27,2.61,1.08,2.52,1.68-.1.65-1.93,1.02-3.36.84-1.67-.21-2.82-1.16-3.36-1.68Z"/>
      <circle class="cls-2" cx="40.52" cy="70.84" r="8.58"/>
      <circle class="cls-5" cx="40.77" cy="70.65" r="6.61"/>
      <circle cx="40.29" cy="70.73" r="4.01"/>
      <circle class="cls-2" cx="44.56" cy="66.75" r="2.71"/>
    </g>
  </g>
</svg>