<?xml version="1.0" encoding="UTF-8"?>
<svg id="Layer_2" data-name="Layer 2" xmlns="http://www.w3.org/2000/svg" viewBox="0 0 88.85 46.58">
  <defs>
    <style>
      .cls-1 {
        fill: #fff;
      }

      .cls-2 {
        fill: none;
      }

      .cls-3 {
        fill: #322900;
      }

      .cls-4 {
        fill: #7f8983;
      }

      .cls-5 {
        fill: #333;
      }

      .cls-6 {
        fill: #724900;
      }
    </style>
  </defs>
  <g id="Layer_1-2" data-name="Layer 1">
    <g>
      <path d="M56.06,35.43l-3.17,6.35c.06.17.11.39,0,.53-.16.2-.55.11-1.06,0-1.76-.37-2.11-.37-2.12-.53-.02-.27,1.01-.52,1.06-.53.67-.16,1.24-.08,1.59,0,.71-2.12,1.41-4.23,2.12-6.35.53.18,1.06.35,1.59.53Z"/>
      <path d="M43.37,28.03c-1.21,1.58-3.24,3.74-6.35,5.29-.93.46-1.82.8-2.64,1.06h-1.59c-1.76.35-3.53.71-5.29,1.06h-1.06c-.25.3-.6.69-1.04,1.13-.09.09-.57.59-1.08.99-1.15.9-2.5,1.76-2.64,1.59-.17-.2,1.14-1.6,2.12-2.64.86-.92,1.61-1.64,2.12-2.12v-1.06c1.59-.18,3.17-.35,4.76-.53v-.53c1.51,0,4.67-.19,7.93-2.12,2.05-1.21,3.41-2.66,4.23-3.7"/>
      <path class="cls-3" d="M84.09,24.86c-.98,1.82-2.75,4.57-5.82,6.87-6.24,4.7-13.53,4.36-16.39,4.23-5.02-.23-12.59-1.82-17.45-3.7-.85-.33-3.25-1.3-6.35-1.06-1.83.14-3.3.66-4.23,1.06.67-.39,2.67-1.65,3.7-4.23.72-1.81.63-3.42.53-4.23,15.34.35,30.67.71,46.01,1.06Z"/>
      <path class="cls-2" d="M32.79,34.37c-.71-.53-1.41-1.06-2.12-1.59"/>
      <path class="cls-2" d="M49.18,28.03c.23.6.49,1.51.53,2.64.04,1.4-.28,2.51-.53,3.17"/>
      <path class="cls-2" d="M68.22,30.14c.22.73.42,1.62.53,2.64.13,1.23.09,2.31,0,3.17"/>
      <path class="cls-6" d="M28.56,17.45c1.87-.89,4.58-2.07,7.93-3.17,4.74-1.55,14.25-4.56,25.91-3.17,12.82,1.53,21.98,7.63,26.44,11.11-2.81,1.67-6.91,3.76-12.16,5.29-10.01,2.91-18.34,2.06-21.68,1.59-8.52-1.21-14.53-4.29-17.45-5.82-3.83-2-6.84-4.12-8.99-5.82Z"/>
      <path class="cls-3" d="M38.08,25.38c0,4.69-4.37,7.94-8.46,7.93-3.06,0-6.3-1.82-7.4-4.76-1.73-4.59,2.14-10.86,7.4-11.11,4.06-.19,8.46,3.22,8.46,7.93Z"/>
      <path d="M52.36,32.26c-1.21,1.58-3.24,3.74-6.35,5.29-.93.46-1.82.8-2.64,1.06h-1.59c-1.76.35-3.53.71-5.29,1.06h-1.06c-.25.3-.6.69-1.04,1.13-.09.09-.57.59-1.08.99-1.15.9-2.5,1.76-2.64,1.59-.17-.2,1.14-1.6,2.12-2.64.86-.92,1.61-1.64,2.12-2.12v-1.06c1.59-.18,3.17-.35,4.76-.53v-.53c1.51,0,4.67-.19,7.93-2.12,2.05-1.21,3.41-2.66,4.23-3.7"/>
      <path class="cls-2" d="M36.49,39.66c-.53-.71-1.06-1.41-1.59-2.12"/>
      <path class="cls-2" d="M41.78,38.61c-.71-.53-1.41-1.06-2.12-1.59"/>
      <path d="M70.87,37.02c.18,1.23.35,2.47.53,3.7-1.48,1.5-1.69,1.97-1.59,2.12.15.2,1.02-.16,1.59-.53.53-.35.87-.77,1.06-1.06v-3.7c-.53-.18-1.06-.35-1.59-.53Z"/>
      <path d="M66.11,33.32c-.26,1.02,2.49,2.52,3.7,3.17.82.45,2.07,1.05,3.7,1.59v6.35c.22.28.57.67,1.06,1.06.78.63,1.92,1.27,2.12,1.06.15-.17-.3-.79-.53-1.06-.54-.64-1.21-.93-1.59-1.06.35-2.29.71-4.58,1.06-6.87-2.64-1.57-4.49-2.79-5.82-3.7-.83-.57-2.18-1.53-3.17-1.06-.11.05-.45.21-.53.53Z"/>
      <path d="M75.62,30.14c.89.53,2.13,1.15,3.7,1.59,1.92.53,3.6.59,4.76.53.53,1.94,1.06,3.88,1.59,5.82-.04.14-.08.34,0,.53.1.23.34.39,1.06.53.67.13,2.04.3,2.12,0,.04-.15-.27-.36-.53-.53-.61-.4-1.23-.5-1.59-.53-.35-2.29-.71-4.58-1.06-6.87-1.51-.59-3.28-1.16-5.29-1.59-1.12-.24-2.18-.41-3.17-.53"/>
      <path class="cls-2" d="M56.06,29.62c.23.6.49,1.51.53,2.64.04,1.4-.28,2.51-.53,3.17"/>
      <path class="cls-2" d="M62.4,30.14c.32.46,1,1.59,1.06,3.17.04,1.21-.3,2.15-.53,2.64"/>
      <path class="cls-2" d="M73.51,28.56c.34.52.83,1.42,1.06,2.64.21,1.12.11,2.06,0,2.64"/>
      <path class="cls-2" d="M79.33,26.97c.18.31.36.66.53,1.06.25.58.41,1.12.53,1.59"/>
      <path class="cls-2" d="M28.03,28.56c.19.88,1.05,1.28,1.59,1.06.46-.19.77-.88.53-1.59"/>
      <path class="cls-4" d="M28.45,20.68c-3.61-7.81-12.36-12.19-20.75-10.1-2.71.63-5.34,1.67-7.69,3.17,6.95-4.59,16.9-5.4,23.5.26,2.17,1.78,3.93,4.04,5.17,6.56l-.22.11h0Z"/>
      <path class="cls-4" d="M30.02,20.6C31.96,10.85,25.17,2.08,15.58.4c-1.3-.24-2.62-.37-3.95-.4,1.33.02,2.65.13,3.96.37,6.53,1.14,12.58,5.79,14.32,12.35.72,2.57.8,5.3.36,7.93l-.25-.04h0Z"/>
      <circle class="cls-1" cx="33.22" cy="23.21" r="4.21"/>
      <circle class="cls-5" cx="33.31" cy="23.09" r="3.24"/>
      <circle cx="33.1" cy="23.19" r="1.97"/>
      <circle class="cls-1" cx="34.54" cy="20.72" r="1.33"/>
      <circle class="cls-1" cx="23.59" cy="25.85" r="4.21"/>
      <circle class="cls-5" cx="23.68" cy="25.72" r="3.24"/>
      <circle cx="23.46" cy="25.83" r="1.97"/>
      <circle class="cls-1" cx="24.91" cy="23.35" r="1.33"/>
    </g>
  </g>
</svg>