<?xml version="1.0" encoding="UTF-8"?>
<svg id="Layer_2" data-name="Layer 2" xmlns="http://www.w3.org/2000/svg" viewBox="0 0 257.68 153.28">
  <defs>
    <style>
      .cls-1 {
        fill: #4d4d4d;
      }

      .cls-2 {
        fill: #fff;
      }

      .cls-3 {
        fill: #666;
      }

      .cls-4 {
        fill: #333;
      }

      .cls-5 {
        fill: #b3b3b3;
      }
    </style>
  </defs>
  <g id="Layer_1-2" data-name="Layer 1">
    <g>
      <path class="cls-3" d="M16.28,124.02c.36.96,1.07,2.39,2.44,3.66,3.35,3.09,7.8,2.54,8.53,2.44,1.89,1.74,5.12,4.3,9.75,6.09,2.41.93,10.27,3.98,18.28,1.22,5.81-2,6.24-5.18,13.4-7.31,3.7-1.1,6.7-1.18,8.53-1.22,11.81-.23,23.71,5.24,29.24,7.31,20.91,7.82,41.79,1.04,48.74-1.22,8.95-2.91,19.66-6.39,26.81-17.06,7.08-10.57,6.57-22.11,6.09-26.81-15.96,3.55-21.97,1.54-24.37-1.22-.44-.5-1.11-1.45-2.44-2.44-4.27-3.2-9.43-2.53-12.19-2.44-12.33.43-24.05-8.98-29.24-17.06-2.04-3.17-3.06-4.76-2.44-6.09,3.85-8.21,66.05.26,70.68,25.59,2.69,14.72-15.18,29-17.06,30.46-16.49,12.87-37.47,10.48-43.87,9.75-6.68-.76-6.57-1.79-24.37-4.87-15.24-2.64-14.8-1.8-21.93-3.66-10.49-2.73-12.85-4.92-18.28-3.66-4.68,1.09-8.92,4.11-13.4,7.31-5.24,3.73-5.69,5.13-8.53,6.09-3.19,1.08-8.16,1.14-15.84-3.66-1.12.2-2.84.37-4.87,0-1.54-.28-2.78-.78-3.66-1.22Z"/>
      <path class="cls-5" d="M24.81,104.52c1.05-.98,2.68-2.35,4.87-3.66,9.27-5.51,19.28-4.22,24.37-3.66,11.72,1.29,23.61.04,35.34,1.22,63.32,6.34,71.17.71,74.33-3.66,1.78-2.46,4.32-7.61,2.44-10.97-1.91-3.42-7.3-3.01-13.4-3.66-14.67-1.56-32.88-9.17-36.56-20.72-.64-2.02-1.18-5.23,0-9.75-.72-3.52-1.4-9.19,0-15.84.22-1.06,3.99-17.67,18.28-25.59,17.05-9.45,38.64.66,45.09,3.66,13.98,6.5,24.35,17,38.51,17.36,3.37.09,6.31.16,10-1,5.14-1.62,7.64-4.34,16.07-7.83,4.09-1.69,5.44-1.85,6.09-1.22,1.72,1.69-2.26,8.25-2.44,8.53-4.84,7.86-14.57,13.53-24.73,14.52-10.46,1.02-19.27-3.12-22.8-4.77-1.73-.81-3.38-1.72-4.4-2.28-7.68-4.24-11.14-7.46-14.81-9.94-2.71-1.83-10.79-7.28-21.01-7.27-2.55,0-12.22,0-19.5,7.31-6.59,6.62-9.4,17.41-6.09,25.59.51,1.25,1.03,2.13,1.22,2.44,5.48,8.94,16.6,8.06,37.77,14.62,3.23,1,5.8,1.9,7.31,2.44,2.89,3.47,6.82,9.38,7.31,17.06,1.05,16.36-14.24,29.69-25.59,35.34-18.94,9.42-40.9,4.4-54.83,1.22-10.1-2.31-20.7-2.63-30.46-6.09-3.02-1.07-10.62-3.96-18.28-1.22-1.72.61-3,1.35-4.87,2.44-8.49,4.9-8.29,8.18-13.4,9.75-5.84,1.79-11.43-.85-12.19-1.22-1.63-.8-2.85-1.73-3.66-2.44-3.27.02-9.86-.45-15.84-4.87-5.15-3.81-10.55-11.06-8.53-14.62.97-1.71,3.32-2,7.31-2.44,3.77-.41,9.68-.59,17.06,1.22Z"/>
      <path d="M185.67,77.71c1.78,11.72-2.77,24.23-12.94,30.76-4.88,3.32-10.51,5.28-16.18,6.72-7.09,1.89-14.46,2.61-21.79,2.28-10.28-.42-20.34-2.9-30.14-5.89-11.18-3.57-23.22-4.27-34.72-2.19,8.64-1.63,17.6-1.8,26.25-.18,8.62,1.74,16.87,5.01,25.55,6.49,5.75,1.07,11.6,1.75,17.46,1.69,5.86,0,11.71-.77,17.37-2.29,19.12-4.48,31.39-16.96,29.15-37.39h0Z"/>
      <path d="M116.21,49.68c2.51,4.29,5.63,8.21,9.25,11.61,3.6,3.38,7.42,6.74,12.14,8.44,4.7,1.96,9.75,1.39,14.7,1.59,4.95.39,9.86,2.35,13.85,5.18-4.17-2.67-8.92-4.56-13.87-4.94-4.92-.2-10.08.35-14.73-1.71-4.7-1.78-8.56-5.09-12.22-8.43-3.64-3.36-6.84-7.4-9.12-11.75h0Z"/>
      <path class="cls-1" d="M88.17,99.65c1.42-1.92,3.76-4.5,7.31-6.09,6.78-3.04,13.34-.4,19.5,1.22,3.47.91,23.61,6.21,40.21-1.22,10.09-4.51,15.73-12.31,18.28-15.84,3.13-4.33,5.69-7.51,4.87-10.97-.34-1.45-1.27-3.12-3.66-4.87-8.1-5.95-16.8-.92-28.03-3.66-7.65-1.86-17.76-7.65-20.72-17.06-3.2-10.21,3.82-20.48,7.31-25.59,3.16-4.62,8.19-11.97,17.06-14.62,10.56-3.15,20.62,2.14,30.46,7.31,14.63,7.69,16.18,13.82,29.24,17.06,5.26,1.3,11.18,2.69,17.06,0,6.44-2.95,6.49-7.9,13.4-10.97,7.06-3.14,15.85-1.89,17.06,1.22.94,2.44-3.43,4.31-4.87,10.97-1.08,4.95.78,6.5,0,9.75-2.16,9.02-20.04,11.9-21.93,12.19-16.19,2.44-29.65-4.35-32.9-6.09-9.66-5.18-11.36-9.81-25.59-17.06-4.03-2.05-9.33-4.45-15.84-3.66-2.3.28-6.3.77-9.75,3.66-2.92,2.45-3.33,4.85-7.31,8.53-1.73,1.6-4.22,4.12-4.87,3.66-.92-.65,1.51-7.51,6.09-12.19,8.03-8.2,20.42-7.43,21.93-7.31,7,.54,14.01,4.83,28.03,13.4,8.06,4.93,6.9,4.83,9.75,6.09,15.19,6.74,30.02,1.61,34.12,0,9.22-3.62,12.54-8.4,13.4-9.75,1.56-2.42,3.88-7.11,2.44-8.53-1.55-1.52-6.2,1.91-18.28,7.31-6.81,3.05-10.21,4.57-12.19,4.87-3.22.5-9.05.63-26.81-9.75-14.1-8.24-13.8-10.3-21.93-13.4-7.02-2.68-15.54-5.94-24.37-2.44-11.49,4.55-15.19,17.27-15.84,19.5-3.31,11.35-1.52,26.37,7.31,32.9,1.82,1.34,6.49,2.52,15.84,4.87,12.72,3.2,19.07,4.8,19.5,4.87,4.2.73,5.99.83,7.31,2.44,3.75,4.58-1.81,14.72-2.44,15.84-8.98,16.03-30.66,19.35-31.68,19.5-11.7,1.63-14.77-2.22-41.43-4.87-7.17-.71-13.1-1.05-17.06-1.22Z"/>
      <path class="cls-3" d="M88.17,122.8c-.67,3.07-2.02,11.35,2.44,19.5,1.34,2.45,5.8,10.61,13.4,10.97,4.43.21,9.59-2.25,9.75-4.87.2-3.22-7.29-4-13.4-10.97-3.64-4.15-5.28-8.77-6.09-12.19-.13-.31-.79-1.73-2.44-2.44-1.78-.76-3.38-.12-3.66,0Z"/>
      <circle class="cls-2" cx="28.83" cy="110.54" r="8.26"/>
      <circle class="cls-4" cx="29.08" cy="110.36" r="6.36"/>
      <circle cx="28.61" cy="110.43" r="3.86"/>
      <circle class="cls-2" cx="32.72" cy="106.61" r="2.61"/>
    </g>
  </g>
</svg>