<?xml version="1.0" encoding="UTF-8"?>
<svg id="Layer_2" data-name="Layer 2" xmlns="http://www.w3.org/2000/svg" viewBox="0 0 82.93 70.8">
  <defs>
    <style>
      .cls-1 {
        fill: none;
      }

      .cls-1, .cls-2, .cls-3, .cls-4, .cls-5 {
        stroke: #000;
        stroke-miterlimit: 10;
      }

      .cls-2 {
        fill: #ebebeb;
      }

      .cls-6, .cls-3 {
        fill: #fff;
      }

      .cls-7 {
        fill: #333;
      }

      .cls-4 {
        fill: #999;
      }

      .cls-5 {
        fill: #666;
      }
    </style>
  </defs>
  <g id="Layer_1-2" data-name="Layer 1">
    <g>
      <path class="cls-2" d="M50.04,44.59c3.79-4.3,12.16-13.33,20.51-18.08,1.47-.83,3.76-2.01,6.21-1.35,3.2.86,5.55,4.56,5.67,8.09.09,2.73-1.18,4.75-1.62,5.4-1.97,2.87-5.22,4.14-10.25,5.13-4.58.89-11.57,1.73-20.51.81Z"/>
      <path class="cls-2" d="M36.01,24.35c-.06-4.11-.92-4.21-.81-8.63.11-4.29.2-7.63,2.43-10.52,2.71-3.51,8.21-5.9,12.14-4.05.97.46,3.1,1.77,4.59,6.48,4.14,13.11-2.99,32.47-12.68,34-2.27.36-5.54-.13-7.02-2.16-2.15-2.97,1.48-6.58,1.35-15.11Z"/>
      <path class="cls-1" d="M63.81,31.1c.19.88.36,2.08.27,3.51-.12,1.89-.65,3.37-1.08,4.32.83.5,1.75,1.12,2.7,1.89,1.37,1.11,2.43,2.25,3.24,3.24"/>
      <path class="cls-1" d="M57.33,36.76c.2.43.41.97.54,1.62.26,1.24.14,2.3,0,2.97.52.27,1.2.69,1.89,1.35.82.78,1.32,1.59,1.62,2.16"/>
      <path class="cls-2" d="M37.9,33.79c3.55-10.02,5.32-15.03,8.9-18.62,1.59-1.59,9.83-9.86,16.73-7.02,3.82,1.57,6.29,6.35,6.48,10.52.09,2-.37,3.47-.81,4.86-.51,1.61-2.21,6.25-11.87,14.84-3.88,3.44-5.86,5.18-8.36,5.94-4.14,1.25-10.2,1.06-12.14-2.16-.95-1.58-.66-3.46,1.08-8.36Z"/>
      <ellipse class="cls-4" cx="20.23" cy="31.64" rx="16.46" ry="17.67" transform="translate(-13.6 47.93) rotate(-83.13)"/>
      <path class="cls-4" d="M35.74,39.73c.4.2,1.05.51,1.89.81,2.45.88,3.26.52,4.05,1.08,1.75,1.23,1.59,5.62-.27,8.63-.31.51-2.42,3.93-5.94,4.05-3.43.12-6.95-2.94-7.83-7.56,1.18-.53,2.73-1.37,4.32-2.7,1.83-1.53,3.03-3.14,3.78-4.32Z"/>
      <path class="cls-4" d="M42.49,42.97c.96-.46,2.44-1.04,4.32-1.35,2.3-.38,5.67-.92,8.36,1.08,3.15,2.34,3.22,6.54,3.24,7.56.02,1.11.08,4.58-2.43,7.02-2.34,2.27-5.46,2.21-8.09,2.16-1.63-.03-6-.36-9.71-3.51-.72-.61-1.25-1.19-1.62-1.62.79-.3,3.24-1.35,4.86-4.05,1.97-3.29,1.24-6.61,1.08-7.29Z"/>
      <path class="cls-1" d="M44.38,42.16c.61,1.35,1.44,3.78,1.08,6.75-.14,1.13-.7,5.68-4.05,7.29-.82.39-1.6.51-2.16.54"/>
      <path class="cls-1" d="M46.81,41.62c1.12,1.71,1.63,3.27,1.89,4.32.18.73,1.54,6.74-2.16,11.06-.78.91-1.58,1.51-2.16,1.89"/>
      <path class="cls-1" d="M49.77,41.35c.93,1.61,2.21,4.28,2.7,7.83.64,4.64-.4,8.37-1.08,10.25"/>
      <path class="cls-1" d="M52.47,41.35c.96,1.24,2.23,3.23,2.97,5.94,1.36,4.96.07,9.15-.54,10.79"/>
      <path class="cls-5" d="M16.32,36.49c-.15,1.06-1.66,1.19-2.97,2.16-2.68,1.98-1.54,5.28-3.78,6.48-1.48.79-3.28.05-4.05-.27-3.57-1.48-6.07-6.2-4.59-8.63.25-.42.91-1.23,2.7-1.62,2.88,1.86,6.34,2.09,8.9.54,1.77-1.07,2.62-2.69,2.97-3.51-.14.91-.16,2.05.27,3.24.3.81.61,1.1.54,1.62Z"/>
      <path class="cls-1" d="M6.87,35.95c.7.52,2.93,2.31,3.51,5.4.22,1.18.14,2.21,0,2.97"/>
      <path class="cls-1" d="M2.55,37.03c1.17-.33,2-.14,2.43,0,2.04.69,3.43,3.3,3.24,6.48"/>
      <path class="cls-4" d="M20.63,19.49c-.4.03-1.31.03-2.16-.54-1.03-.69-1.57-1.95-1.35-2.16.11-.11.35.12,1.08.27.53.11,1.16.24,1.35,0,.3-.38-.86-1.23-1.08-2.7-.22-1.45.56-2.97,1.08-2.97.33,0,.42.62,1.35,2.16.67,1.1,1.01,1.66,1.35,1.62.5-.05.43-1.23,1.35-2.7.62-.99,1.68-2.1,2.16-1.89.46.21-.02,1.49.27,3.24.25,1.52.98,2.69,1.62,3.51"/>
      <path class="cls-5" d="M31.16,52.68c.05,7.39-1.46,10.19-2.97,11.33-.46.35-2.27,1.56-2.16,2.97,0,.06.06.68.54,1.08.79.66,2.18.28,2.97-.27.77-.53.99-1.24,1.62-3.51,1.48-5.31,1.57-6.18,1.62-6.75.13-1.5.08-2.79,0-3.78-.54-.36-1.08-.72-1.62-1.08Z"/>
      <path class="cls-5" d="M35.74,52.68c-.15.02-.25.47-.27,3.78-.01,2.76.05,2.51,0,3.24-.11,1.45-.23,3.09-1.08,4.86-.73,1.53-1.64,2.38-1.35,3.51.04.16.16.6.54.81.6.34,1.42-.15,1.62-.27.99-.59,1.4-1.68,1.62-2.43.56-1.89.27-2.71.27-6.75,0-1.81.06-3.23-.54-5.13-.07-.23-.52-1.67-.81-1.62Z"/>
      <path class="cls-5" d="M42.76,55.11c-.1.98.22,1.76.27,1.89.6,1.47.71,3.27.81,4.86.05.82.13,2.16-.27,3.78-.35,1.43-.52,2.14-1.08,2.7-.24.24-.54.46-.54.81,0,.48.54.96,1.08,1.08.91.2,1.74-.65,1.89-.81.84-.86.87-1.94.81-5.67-.08-4.46-.16-5.18-.54-6.21-.6-1.63-1.71-3.38-2.16-3.24-.19.06-.23.46-.27.81Z"/>
      <path class="cls-5" d="M47.62,59.43c1.73,4.74,1.6,6.69,1.08,7.56-.08.14-.57.9-.54,1.89,0,.27.03,1.09.54,1.35.5.26,1.23-.14,1.62-.54.76-.78.7-2.02.54-3.24-.2-1.58-.68-4-1.89-7.02h-1.35Z"/>
      <path class="cls-5" d="M51.12,55.92c-.09.06.09.48.81,2.16,1.97,4.62,2.23,5.38,2.16,6.48-.03.46-.14,1.21-.27,2.16-.23,1.65-.37,2.22,0,2.7.3.39.87.64,1.35.54,1.25-.25,1.59-2.75,1.62-2.97.28-2.2-.75-3.96-2.43-6.75-1.3-2.17-3.01-4.46-3.24-4.32Z"/>
      <path class="cls-1" d="M40.6,41.35c1.09-2.51,2.42-5.14,4.05-7.83,6.8-11.2,15.73-18.22,22.4-22.4"/>
      <path class="cls-1" d="M56.52,8.43c.49.97,1.04,2.34,1.35,4.05.41,2.26.22,4.16,0,5.4,1.17-.53,3.03-1.2,5.4-1.35,3.04-.19,5.44.56,6.75,1.08"/>
      <path class="cls-1" d="M49.77,12.48c.73.62,1.88,1.75,2.7,3.51,1.27,2.71.98,5.22.81,6.21,1.36-.48,3.77-1.12,6.75-.81,4.49.47,7.5,2.8,8.63,3.78"/>
      <path class="cls-1" d="M44.38,18.14c.78.71,1.85,1.85,2.7,3.51,1.33,2.58,1.4,5,1.35,6.21,1.51-.13,3.23-.17,5.13,0,4.76.42,8.55,1.94,11.06,3.24"/>
      <path class="cls-1" d="M41.41,24.35c.72.88,1.72,2.32,2.43,4.32.7,1.99.82,3.73.81,4.86,1.34-.24,2.99-.39,4.86-.27,4.5.3,7.87,2.07,9.71,3.24"/>
      <path class="cls-1" d="M38.71,31.37c.58.3,1.61.95,2.43,2.16,1.31,1.95,1.15,3.99,1.08,4.59,1.19-.1,2.56-.13,4.05,0,3.68.32,6.63,1.44,8.63,2.43"/>
      <path class="cls-1" d="M55.17,42.7c3.62-1.91,7.67-3.85,12.14-5.67,5.4-2.2,10.49-3.86,15.11-5.13"/>
      <path class="cls-1" d="M75.14,24.89c.07.98.08,2.06,0,3.24-.18,2.6-.75,4.79-1.35,6.48.75.18,1.7.5,2.7,1.08,2.07,1.2,3.23,2.85,3.78,3.78"/>
      <path class="cls-1" d="M69.74,27.05c.12,1.12.16,2.49,0,4.05-.23,2.24-.81,4.07-1.35,5.4.89.29,2.04.78,3.24,1.62,2.08,1.47,3.22,3.26,3.78,4.32"/>
      <circle class="cls-3" cx="8.67" cy="29.24" r="7.74"/>
      <circle class="cls-7" cx="8.9" cy="29.07" r="5.96"/>
      <circle cx="8.46" cy="29.13" r="3.61"/>
      <circle class="cls-6" cx="12.32" cy="25.55" r="2.44"/>
      <circle class="cls-3" cx="20.52" cy="36.39" r="8.58"/>
      <circle class="cls-7" cx="20.77" cy="36.2" r="6.61"/>
      <circle cx="20.29" cy="36.28" r="4.01"/>
      <circle class="cls-6" cx="24.56" cy="32.3" r="2.71"/>
    </g>
  </g>
</svg>