<?xml version="1.0" encoding="UTF-8"?>
<svg id="Layer_2" data-name="Layer 2" xmlns="http://www.w3.org/2000/svg" viewBox="0 0 81.93 69.8">
  <defs>
    <style>
      .cls-1 {
        fill: #fff;
      }

      .cls-2 {
        fill: #83838b;
      }

      .cls-3 {
        fill: #666;
      }

      .cls-4 {
        fill: #333;
      }

      .cls-5 {
        fill: #999;
      }

      .cls-6 {
        fill: #ebebeb;
      }

      .cls-7 {
        fill: #dbdcdf;
      }
    </style>
  </defs>
  <g id="Layer_1-2" data-name="Layer 1">
    <g>
      <path class="cls-6" d="M49.54,44.09c3.79-4.3,12.16-13.33,20.51-18.08,1.47-.83,3.76-2.01,6.21-1.35,3.2.86,5.55,4.56,5.67,8.09.09,2.73-1.18,4.75-1.62,5.4-1.97,2.87-5.22,4.14-10.25,5.13-4.58.89-11.57,1.73-20.51.81Z"/>
      <path class="cls-6" d="M35.51,23.85c-.06-4.11-.92-4.21-.81-8.63.11-4.29.2-7.63,2.43-10.52,2.71-3.51,8.21-5.9,12.14-4.05.97.46,3.1,1.77,4.59,6.48,4.14,13.11-2.99,32.47-12.68,34-2.27.36-5.54-.13-7.02-2.16-2.15-2.97,1.48-6.58,1.35-15.11Z"/>
      <path class="cls-7" d="M36.11,36c1.51-3.52.86-5.98,1-9,.33-7.14,4.94-14.64,11-18,2.38-1.32,4.61-1.8,6-2,.33,2.33.67,4.67,1,7,6.75-.38,11.83,1.11,12.2,3.05.15.77-.21,2.97-.81,4.86-.51,1.61-2.21,6.25-11.87,14.84-3.88,3.44-5.86,5.18-8.36,5.94-5.14,1.55-11.44.32-12.14-2.16-.35-1.22.88-1.93,1.99-4.53Z"/>
      <path class="cls-1" d="M63.31,30.6c.69,2.6.38,5.42-.7,7.88l-.05-.16c2.24,1.39,4.29,3.13,5.87,5.23-1.77-1.99-3.78-3.77-6.1-5.08,1.17-2.42,1.46-5.22.97-7.88h0Z"/>
      <path class="cls-1" d="M56.83,36.26c.76,1.38.97,3.05.66,4.61l-.06-.13c.76.4,1.45.91,2.04,1.52.59.61,1.07,1.33,1.41,2.09-.87-1.44-2.09-2.64-3.56-3.4l-.08-.04c.35-1.54.19-3.17-.4-4.65h0Z"/>
      <path class="cls-6" d="M37.4,33.29c3.55-10.02,5.32-15.03,8.9-18.62,1.59-1.59,9.83-9.86,16.73-7.02,3.82,1.57,6.29,6.35,6.48,10.52.09,2-.37,3.47-.81,4.86-.51,1.61-2.21,6.25-11.87,14.84-3.88,3.44-5.86,5.18-8.36,5.94-4.14,1.25-10.2,1.06-12.14-2.16-.95-1.58-.66-3.46,1.08-8.36Z"/>
      <ellipse class="cls-5" cx="19.73" cy="31.14" rx="16.46" ry="17.67" transform="translate(-13.54 47) rotate(-83.13)"/>
      <path class="cls-5" d="M35.24,39.23c.4.2,1.05.51,1.89.81,2.45.88,3.26.52,4.05,1.08,1.75,1.23,1.59,5.62-.27,8.63-.31.51-2.42,3.93-5.94,4.05-3.43.12-6.95-2.94-7.83-7.56,1.18-.53,2.73-1.37,4.32-2.7,1.83-1.53,3.03-3.14,3.78-4.32Z"/>
      <path class="cls-5" d="M41.99,42.47c.96-.46,2.44-1.04,4.32-1.35,2.3-.38,5.67-.92,8.36,1.08,3.15,2.34,3.22,6.54,3.24,7.56.02,1.11.08,4.58-2.43,7.02-2.34,2.27-5.46,2.21-8.09,2.16-1.63-.03-6-.36-9.71-3.51-.72-.61-1.25-1.19-1.62-1.62.79-.3,3.24-1.35,4.86-4.05,1.97-3.29,1.24-6.61,1.08-7.29Z"/>
      <path d="M43.88,41.66c2.16,4.4,1.76,11.51-2.95,14.09-.69.31-1.43.46-2.18.48,6.42-.72,7.24-9.77,5.13-14.57h0Z"/>
      <path d="M46.31,41.12c3.2,4.56,3.4,11.57-.54,15.77-.57.58-1.21,1.08-1.89,1.5,5.51-3.75,5.77-11.97,2.43-17.27h0Z"/>
      <path d="M49.27,40.85c3.32,5.32,3.93,12.25,1.62,18.08,1.99-5.94,1.41-12.59-1.62-18.08h0Z"/>
      <path d="M51.97,40.85c3.82,4.56,4.7,11.27,2.43,16.73,1.94-5.58,1.12-11.96-2.43-16.73h0Z"/>
      <path class="cls-3" d="M15.82,35.99c-.15,1.06-1.66,1.19-2.97,2.16-2.68,1.98-1.54,5.28-3.78,6.48-1.48.79-3.28.05-4.05-.27-3.57-1.48-6.07-6.2-4.59-8.63.25-.42.91-1.23,2.7-1.62,2.88,1.86,6.34,2.09,8.9.54,1.77-1.07,2.62-2.69,2.97-3.51-.14.91-.16,2.05.27,3.24.3.81.61,1.1.54,1.62Z"/>
      <path d="M6.37,35.45c2.71,1.72,4.34,5.19,3.51,8.36.45-3.22-1.03-6.34-3.51-8.36h0Z"/>
      <path d="M2.05,36.53c3.87-1.42,6.21,3.21,5.67,6.48,0-.85-.09-1.7-.3-2.51-.49-2.46-2.71-4.73-5.37-3.96h0Z"/>
      <g>
        <path class="cls-5" d="M20.13,18.99c-.4.03-1.31.03-2.16-.54-1.03-.69-1.57-1.95-1.35-2.16.11-.11.35.12,1.08.27.53.11,1.16.24,1.35,0,.3-.38-.86-1.23-1.08-2.7-.22-1.45.56-2.97,1.08-2.97.33,0,.42.62,1.35,2.16.67,1.1,1.01,1.66,1.35,1.62.5-.05.43-1.23,1.35-2.7.62-.99,1.68-2.1,2.16-1.89.46.21-.02,1.49.27,3.24.25,1.52.98,2.69,1.62,3.51"/>
        <path d="M20.13,18.99c-1.52.17-3.05-.79-3.56-2.23-.03-.16-.15-.35.06-.54.36,0,2.88.99,2.29-.08-1.01-1.33-1.51-3.2-.59-4.74.2-.29.45-.75.9-.56.82,1.07,1.24,2.36,2.08,3.42.6.82.77-.27.95-.75.51-1.37,1.34-2.88,2.73-3.51.7-.14.53.87.52,1.27-.19,1.99.37,3.99,1.62,5.57-1.3-1.53-1.95-3.57-1.77-5.57.03-.62.14-1.55-.76-.89-1.01.81-1.75,1.97-2.15,3.21-.81,3.48-2.59-1.69-3.35-2.55-.17-.1-.45.22-.6.47-.9,1.5-.42,3.22.55,4.56.52,1-.96.69-1.48.55-.44-.03-1.16-.64-.9.11.48,1.42,1.94,2.4,3.44,2.27h0Z"/>
      </g>
      <path class="cls-3" d="M30.66,52.18c.05,7.39-1.46,10.19-2.97,11.33-.46.35-2.27,1.56-2.16,2.97,0,.06.06.68.54,1.08.79.66,2.18.28,2.97-.27.77-.53.99-1.24,1.62-3.51,1.48-5.31,1.57-6.18,1.62-6.75.13-1.5.08-2.79,0-3.78-.54-.36-1.08-.72-1.62-1.08Z"/>
      <path class="cls-3" d="M35.24,52.18c-.15.02-.25.47-.27,3.78-.01,2.76.05,2.51,0,3.24-.11,1.45-.23,3.09-1.08,4.86-.73,1.53-1.64,2.38-1.35,3.51.04.16.16.6.54.81.6.34,1.42-.15,1.62-.27.99-.59,1.4-1.68,1.62-2.43.56-1.89.27-2.71.27-6.75,0-1.81.06-3.23-.54-5.13-.07-.23-.52-1.67-.81-1.62Z"/>
      <path class="cls-3" d="M42.26,54.61c-.1.98.22,1.76.27,1.89.6,1.47.71,3.27.81,4.86.05.82.13,2.16-.27,3.78-.35,1.43-.52,2.14-1.08,2.7-.24.24-.54.46-.54.81,0,.48.54.96,1.08,1.08.91.2,1.74-.65,1.89-.81.84-.86.87-1.94.81-5.67-.08-4.46-.16-5.18-.54-6.21-.6-1.63-1.71-3.38-2.16-3.24-.19.06-.23.46-.27.81Z"/>
      <path class="cls-3" d="M47.12,58.93c1.73,4.74,1.6,6.69,1.08,7.56-.08.14-.57.9-.54,1.89,0,.27.03,1.09.54,1.35.5.26,1.23-.14,1.62-.54.76-.78.7-2.02.54-3.24-.2-1.58-.68-4-1.89-7.02h-1.35Z"/>
      <path class="cls-3" d="M50.62,55.42c-.09.06.09.48.81,2.16,1.97,4.62,2.23,5.38,2.16,6.48-.03.46-.14,1.21-.27,2.16-.23,1.65-.37,2.22,0,2.7.3.39.87.64,1.35.54,1.25-.25,1.59-2.75,1.62-2.97.28-2.2-.75-3.96-2.43-6.75-1.3-2.17-3.01-4.46-3.24-4.32Z"/>
      <path class="cls-1" d="M40.1,40.85c4.43-11.09,12.38-20.65,22.15-27.47,1.4-.96,2.84-1.88,4.3-2.75-11.35,7.47-20.76,17.85-26.44,30.22h0Z"/>
      <path class="cls-1" d="M56.02,7.93c1.62,2.84,2.16,6.27,1.58,9.49,0,0-.33-.26-.33-.26,1.91-.9,4.03-1.34,6.14-1.37,2.11,0,4.21.44,6.1,1.32-3.92-1.34-8.27-1.21-12.04.49,0,0-.42.18-.42.18.69-3.27.33-6.73-1.03-9.84h0Z"/>
      <path class="cls-1" d="M49.27,11.98c2.94,2.23,4.38,6.13,3.74,9.75,0,0-.3-.26-.3-.26,2.61-.96,5.49-1.15,8.21-.6,2.72.57,5.25,1.91,7.25,3.78-4.25-3.44-10.15-4.58-15.3-2.75,0,0-.37.13-.37.13.78-3.62-.42-7.57-3.21-10.06h0Z"/>
      <path class="cls-1" d="M43.88,17.64c2.84,2.33,4.44,6.05,4.28,9.72,0,0-.25-.24-.25-.24,2.8-.28,5.64-.09,8.39.48,2.75.59,5.39,1.61,7.82,2.98-5.04-2.36-10.63-3.47-16.17-3.01,0,0-.26.02-.26.02v-.26c.18-3.59-1.21-7.19-3.81-9.7h0Z"/>
      <path class="cls-1" d="M40.91,23.85c2.23,2.48,3.5,5.83,3.47,9.18,0,0-.27-.23-.27-.23,2.52-.48,5.14-.43,7.65.12,2.51.55,4.88,1.62,6.96,3.07-4.37-2.54-9.54-3.61-14.53-2.74,0,0-.27.05-.27.05v-.27c.04-3.28-1.02-6.54-3-9.17h0Z"/>
      <path class="cls-1" d="M38.21,30.87c2.56,1.1,4.09,4.02,3.73,6.77,0,0-.25-.25-.25-.25,2.19-.22,4.41-.08,6.57.36,2.15.45,4.23,1.22,6.13,2.3-3.99-1.72-8.33-2.54-12.66-2.2,0,0-.28.02-.28.02.45-2.73-.81-5.6-3.25-6.99h0Z"/>
      <path class="cls-1" d="M54.67,42.2c8.58-4.71,17.77-8.36,27.25-10.79-9.4,2.74-18.52,6.35-27.25,10.79h0Z"/>
      <path class="cls-1" d="M74.64,24.39c.22,3.26-.09,6.68-1.24,9.75,0,0-.08-.15-.08-.15,1.36.34,2.64.97,3.75,1.82,1.11.85,2.03,1.94,2.69,3.15-.74-1.17-1.69-2.2-2.79-3.03-1.14-.84-2.46-1.44-3.84-1.74,1.18-3.09,1.54-6.51,1.5-9.8h0Z"/>
      <path class="cls-1" d="M69.24,26.55c.44,3.2-.05,6.5-1.23,9.49,0,0-.08-.16-.08-.16,1.5.5,2.91,1.3,4.1,2.34,1.21,1.03,2.18,2.31,2.87,3.72-.78-1.36-1.79-2.59-2.98-3.59-1.23-1.03-2.67-1.8-4.2-2.27,1.28-2.98,1.75-6.28,1.52-9.52h0Z"/>
      <circle class="cls-1" cx="8.17" cy="28.74" r="7.74"/>
      <circle class="cls-4" cx="8.4" cy="28.57" r="5.96"/>
      <circle cx="7.96" cy="28.63" r="3.61"/>
      <circle class="cls-1" cx="11.82" cy="25.05" r="2.44"/>
      <circle class="cls-1" cx="20.02" cy="35.89" r="8.58"/>
      <circle class="cls-4" cx="20.27" cy="35.7" r="6.61"/>
      <circle cx="19.79" cy="35.78" r="4.01"/>
      <circle class="cls-1" cx="24.06" cy="31.8" r="2.71"/>
      <path class="cls-2" d="M27.11,46c1.17-.41,3.12-1.25,5-3,1.56-1.45,2.48-2.97,3-4,0,.5-.03,3-2,5-2.4,2.43-5.63,2.05-6,2Z"/>
      <path class="cls-2" d="M36.11,54c.85-.42,3.47-1.84,5-5,1.26-2.61,1.12-5.01,1-6,.34.57,1.71,3,1,6-.68,2.87-2.99,5.16-6,6-.33-.33-.67-.67-1-1Z"/>
    </g>
  </g>
</svg>