<?xml version="1.0" encoding="UTF-8"?>
<svg id="Layer_2" data-name="Layer 2" xmlns="http://www.w3.org/2000/svg" viewBox="0 0 161.19 114.33">
  <defs>
    <style>
      .cls-1 {
        fill: #4d4d4d;
      }

      .cls-2 {
        fill: #fff;
      }

      .cls-3 {
        fill: none;
      }

      .cls-4 {
        fill: #7f8983;
      }

      .cls-5 {
        fill: #333;
      }

      .cls-6 {
        fill: #999;
      }

      .cls-7 {
        fill: #b3b3b3;
      }
    </style>
  </defs>
  <g id="Layer_1-2" data-name="Layer 1">
    <g>
      <path class="cls-1" d="M17.93,53.33c-1.47.18-9.07,1.29-14,8-4.93,6.72-5.17,16.32-1,22,3.52,4.79,11.4,5.93,27,8,12.79,1.7,15.09.82,20,3,9.21,4.1,14.21,13.03,17,20-.62-4.75-2.38-12.08-8-18-7.15-7.53-17.44-9.53-25-11-13.35-2.6-20.79-.34-25-6-.19-.26-2.68-3.7-2-8,.82-5.2,5.94-9.6,13-11-.35-.57-.69-1.24-1-2-.78-1.94-.98-3.72-1-5Z"/>
      <path class="cls-6" d="M90.93,38.4c.99,2.1,2.38,5.56,3,10,.98,7-.96,9.27,1,12,2.16,3.01,5.1,1.06,15,5,4.39,1.75,6.59,2.62,8,4,.58.56,1.47,1.55,3,2,1.41.41,1.73-.21,4,0,.98.09,2.42.22,4,1,1.18.58,1.75,1.19,2,1,.2-.15.14-.82-1-3,.25-.04.6-.07,1,0,1.2.21,1.86,1.11,2,1,.09-.07-.06-.5-1-2,.48-.05,1.17-.09,2,0,.57.06.87.16,1,0,.26-.32-.42-1.43-1-2-1.66-1.65-4.53-1.02-6-1-2.53.03-6.2-1.71-11-10,.53-1.73,1.04-4.13,1-7-.07-5.12-1.88-9-3-11"/>
      <path class="cls-6" d="M160.93,51.33c-3.47-12.17-20-26-20-26-1.72-1.97-4.34-4.58-8-7-1.22-.81-6.17-4.07-11-5-11.38-2.19-21.75,8.66-23,10-3.76-1.91-9.57-4.43-17-6-5.5-1.16-33.17-6.99-51,10-2.27,2.16-15.8,15.57-12,31,1.55,6.29,5.41,10.61,8,13-2.53,1.74-6.68,4.92-6,7,.66,2.02,5.53,1.93,11,2,23.03.28,32.06,2.88,33,0,.35-1.07-.38-3.05-6-7,4.17.77,9.25,1.29,15,1,13.62-.68,24.04-5.56,30-9,2.32-.46,5.87-1.33,10-3,5.12-2.07,5.38-3.06,9-4,2.36-.61,7.62-1.98,13,0,2.45.9,3.51,1.98,6,2,2.54.02,4.62-1.06,6-2,1.7.07,11.3.35,13-4,.47-1.19.19-2.35,0-3Z"/>
      <path class="cls-7" d="M113.93,31.33c.3-1.03.88-2.5,2-4,1.74-2.33,3.87-3.49,5-4-.51-1.78-1.41-4.28-3-7-2.38-4.07-4.81-8.21-9-9-4.88-.92-9.76,3.15-12,7-2.36,4.06-3.22,10.36,0,14,1.62,1.83,3.75,2.4,6,3,4.73,1.26,8.81.56,11,0Z"/>
      <path class="cls-7" d="M121.93,13.33c-.42-1.07-.96-2.82-1-5-.04-1.97-.09-5.15,2-7,2.13-1.88,5.28-1.31,7-1,1.07.19,6.57,1.19,9,6,2.19,4.33,1.04,10.08-3,14-2.02-1.32-4.36-2.69-7-4-2.49-1.23-4.84-2.21-7-3Z"/>
      <path class="cls-4" d="M49.93,71.33c7.93-4.23,12.27-13.87,9.94-22.51-2.21-8.9-12.35-13.64-20.94-11.49,8.86-3.02,19.49,1.94,21.91,11.23,2.35,8.98-2.33,19.12-10.91,22.77h0Z"/>
      <path class="cls-4" d="M58.62,73.72c-2.24-2.06-5.54-3.02-8.69-2.39,3.05-.95,6.62-.39,9.31,1.61l-.63.78h0Z"/>
      <path class="cls-6" d="M74.93,49.33c.99,2.1,2.38,5.56,3,10,.98,7-.96,9.27,1,12,2.16,3.01,5.1,1.06,15,5,4.39,1.75,6.59,2.62,8,4,.58.56,1.47,1.55,3,2,1.41.41,1.73-.21,4,0,.98.09,2.42.22,4,1,1.18.58,1.75,1.19,2,1,.2-.15.14-.82-1-3,.25-.04.6-.07,1,0,1.2.21,1.86,1.11,2,1,.09-.07-.06-.5-1-2,.48-.05,1.17-.09,2,0,.57.06.87.16,1,0,.26-.32-.42-1.43-1-2-1.66-1.65-4.53-1.02-6-1-2.53.03-6.2-1.71-11-10,.53-1.73,1.04-4.13,1-7-.07-5.12-1.88-9-3-11"/>
      <path d="M158.93,46.33c-.84.46-2.72,1.65-4,4-1.71,3.13-1.18,6.16-1,7,1.04.11,3.07.15,5-1,.67-.4,1.55-.94,2-2,.23-.55.37-1.29,0-3-.26-1.18-.79-2.97-2-5Z"/>
      <path class="cls-3" d="M59.93,81.33c.15-.45.49-1.66,0-3-.59-1.61-2.14-2.75-4-3"/>
      <path class="cls-3" d="M62.93,81.33c.1-.23.63-1.54,0-3-.58-1.35-1.74-1.89-2-2"/>
      <path class="cls-4" d="M147.83,58.82c-2.76-.71-5.2-2.34-6.9-4.49,1.95,1.93,4.49,3.17,7.1,3.51l-.2.98h0Z"/>
      <circle class="cls-2" cx="137.02" cy="39.88" r="6.59"/>
      <circle class="cls-5" cx="137.22" cy="39.74" r="5.08"/>
      <circle cx="136.85" cy="39.8" r="3.08"/>
      <circle class="cls-2" cx="140.13" cy="36.74" r="2.08"/>
    </g>
  </g>
</svg>