<?xml version="1.0" encoding="UTF-8"?>
<svg id="Layer_2" data-name="Layer 2" xmlns="http://www.w3.org/2000/svg" viewBox="0 0 162.19 118.7">
  <defs>
    <style>
      .cls-1, .cls-2 {
        fill: #fff;
      }

      .cls-2, .cls-3, .cls-4, .cls-5, .cls-6 {
        stroke: #000;
        stroke-miterlimit: 10;
      }

      .cls-7 {
        fill: #333;
      }

      .cls-4, .cls-8 {
        fill: #999;
      }

      .cls-5 {
        fill: #b3b3b3;
      }

      .cls-6 {
        fill: #4d4d4d;
      }
    </style>
  </defs>
  <g id="Layer_1-2" data-name="Layer 1">
    <g>
      <path class="cls-6" d="M18.43,53.83c-1.47.18-9.07,1.29-14,8-4.93,6.72-5.17,16.32-1,22,3.52,4.79,11.4,5.93,27,8,12.79,1.7,15.09.82,20,3,9.21,4.1,14.21,13.03,17,20-.62-4.75-2.38-12.08-8-18-7.15-7.53-17.44-9.53-25-11-13.35-2.6-20.79-.34-25-6-.19-.26-2.68-3.7-2-8,.82-5.2,5.94-9.6,13-11-.35-.57-.69-1.24-1-2-.78-1.94-.98-3.72-1-5Z"/>
      <g>
        <path class="cls-8" d="M91.43,38.9c.99,2.1,2.38,5.56,3,10,.98,7-.96,9.27,1,12,2.16,3.01,5.1,1.06,15,5,4.39,1.75,6.59,2.62,8,4,.58.56,1.47,1.55,3,2,1.41.41,1.73-.21,4,0,.98.09,2.42.22,4,1,1.18.58,1.75,1.19,2,1,.2-.15.14-.82-1-3,.25-.04.6-.07,1,0,1.2.21,1.86,1.11,2,1,.09-.07-.06-.5-1-2,.48-.05,1.17-.09,2,0,.57.06.87.16,1,0,.26-.32-.42-1.43-1-2-1.66-1.65-4.53-1.02-6-1-2.53.03-6.2-1.71-11-10,.53-1.73,1.04-4.13,1-7-.07-5.12-1.88-9-3-11"/>
        <path d="M91.43,38.9c2.41,4.85,3.72,10.32,3.51,15.79-.16,2.52-.59,5.6,1.91,7.09,2.32,1.12,5.29,1.02,7.8,1.78,4,1.03,7.78,2.56,11.52,4.27,2.4.88,3.93,4.07,6.68,3.69,1.35-.25,2.83-.15,4.2.08,1.55.23,3.01,1.01,4.28,1.83.04.03.07,0-.1.03-.18.06-.21.22-.2.2-.15-1-.87-2.17-1.32-3.12,0,0,.65-.11.65-.11,1.15-.23,2.34.31,3.18,1.04-.28-.12-.59.18-.55.4-.29-.75-.9-1.61-1.33-2.34,1.1-.15,2.28-.19,3.37,0,.11.03.27-.01.12.04-.08.05-.11.13-.11.14-.06-.38-.42-.91-.75-1.3-1.53-1.72-4-1.07-6.09-1.08-3.03-.14-5.38-2.42-7.21-4.6-1.48-1.8-2.73-3.77-3.87-5.78,1.94-5.92,1.28-12.55-1.69-18.03,3.2,5.36,4.09,12.08,2.27,18.08,1.98,2.63,4.74,7.8,8.98,9.21,2.14.73,4.51-.4,6.73.53,1.22.52,2.42,1.68,2.52,3.1-.02.15-.11.37-.31.5-.41.19-.54.09-.71.09-.83-.12-1.61-.16-2.43-.06,0,0,.34-.7.34-.7.4.69.88,1.28,1.09,2.09,0,.06.04.16-.08.39-.16.28-.59.29-.8.12-.76-.61-1.6-1.08-2.53-.89,0,0,.35-.69.35-.69.34.84,1.92,3.14.67,3.71-.56.11-.74-.16-1.1-.34-1.65-1.14-3.55-1.6-5.51-1.69-1.02-.11-2.04.28-3.09.12-1.1-.19-2.11-.75-2.92-1.48-1.86-2.05-4.34-2.94-6.84-3.97-2.51-1.04-5.01-1.99-7.62-2.66-2.64-.85-5.4-.7-7.96-2.01-2.69-1.62-2.35-5.06-2.07-7.7.36-5.37-.79-10.81-2.99-15.76h0Z"/>
      </g>
      <path class="cls-4" d="M161.43,51.83c-3.47-12.17-20-26-20-26-1.72-1.97-4.34-4.58-8-7-1.22-.81-6.17-4.07-11-5-11.38-2.19-21.75,8.66-23,10-3.76-1.91-9.57-4.43-17-6-5.5-1.16-33.17-6.99-51,10-2.27,2.16-15.8,15.57-12,31,1.55,6.29,5.41,10.61,8,13-2.53,1.74-6.68,4.92-6,7,.66,2.02,5.53,1.93,11,2,23.03.28,32.06,2.88,33,0,.35-1.07-.38-3.05-6-7,4.17.77,9.25,1.29,15,1,13.62-.68,24.04-5.56,30-9,2.32-.46,5.87-1.33,10-3,5.12-2.07,5.38-3.06,9-4,2.36-.61,7.62-1.98,13,0,2.45.9,3.51,1.98,6,2,2.54.02,4.62-1.06,6-2,1.7.07,11.3.35,13-4,.47-1.19.19-2.35,0-3Z"/>
      <path class="cls-5" d="M114.43,31.83c.3-1.03.88-2.5,2-4,1.74-2.33,3.87-3.49,5-4-.51-1.78-1.41-4.28-3-7-2.38-4.07-4.81-8.21-9-9-4.88-.92-9.76,3.15-12,7-2.36,4.06-3.22,10.36,0,14,1.62,1.83,3.75,2.4,6,3,4.73,1.26,8.81.56,11,0Z"/>
      <path class="cls-5" d="M122.43,13.83c-.42-1.07-.96-2.82-1-5-.04-1.97-.09-5.15,2-7,2.13-1.88,5.28-1.31,7-1,1.07.19,6.57,1.19,9,6,2.19,4.33,1.04,10.08-3,14-2.02-1.32-4.36-2.69-7-4-2.49-1.23-4.84-2.21-7-3Z"/>
      <path d="M50.43,71.83c7.93-4.23,12.27-13.87,9.94-22.51-2.21-8.9-12.35-13.64-20.94-11.49,8.86-3.02,19.49,1.94,21.91,11.23,2.35,8.98-2.33,19.12-10.91,22.77h0Z"/>
      <path d="M59.12,74.22c-2.24-2.06-5.54-3.02-8.69-2.39,3.05-.95,6.62-.39,9.31,1.61l-.63.78h0Z"/>
      <g>
        <path class="cls-8" d="M75.43,49.83c.99,2.1,2.38,5.56,3,10,.98,7-.96,9.27,1,12,2.16,3.01,5.1,1.06,15,5,4.39,1.75,6.59,2.62,8,4,.58.56,1.47,1.55,3,2,1.41.41,1.73-.21,4,0,.98.09,2.42.22,4,1,1.18.58,1.75,1.19,2,1,.2-.15.14-.82-1-3,.25-.04.6-.07,1,0,1.2.21,1.86,1.11,2,1,.09-.07-.06-.5-1-2,.48-.05,1.17-.09,2,0,.57.06.87.16,1,0,.26-.32-.42-1.43-1-2-1.66-1.65-4.53-1.02-6-1-2.53.03-6.2-1.71-11-10,.53-1.73,1.04-4.13,1-7-.07-5.12-1.88-9-3-11"/>
        <path d="M75.43,49.83c2.41,4.85,3.72,10.32,3.51,15.79-.16,2.52-.59,5.6,1.91,7.09,2.32,1.12,5.29,1.02,7.81,1.78,4,1.03,7.78,2.56,11.52,4.27,2.4.88,3.93,4.07,6.68,3.69,1.35-.25,2.83-.15,4.2.08,1.55.23,3.01,1.01,4.28,1.83.04.03.07,0-.1.03-.18.06-.21.22-.2.2-.15-1-.87-2.17-1.32-3.12,0,0,.65-.11.65-.11,1.15-.23,2.34.31,3.18,1.04-.28-.12-.59.18-.55.4-.29-.75-.9-1.61-1.33-2.34,1.1-.15,2.28-.19,3.37,0,.11.03.27-.01.12.04-.08.05-.11.13-.11.14-.06-.38-.42-.91-.75-1.3-1.53-1.72-4-1.07-6.09-1.08-3.03-.14-5.38-2.42-7.21-4.6-1.48-1.8-2.73-3.77-3.87-5.78,1.94-5.92,1.28-12.55-1.69-18.03,3.2,5.36,4.09,12.08,2.27,18.08,1.99,2.63,4.72,7.78,8.98,9.21,2.14.73,4.51-.4,6.73.53,1.22.52,2.42,1.68,2.52,3.1-.02.15-.11.37-.31.5-.41.19-.54.09-.71.09-.83-.12-1.61-.16-2.43-.06,0,0,.34-.7.34-.7.4.69.88,1.28,1.09,2.09,0,.06.04.16-.08.39-.16.28-.59.29-.8.12-.76-.61-1.6-1.08-2.53-.89,0,0,.35-.69.35-.69.34.84,1.92,3.14.67,3.71-.56.11-.74-.16-1.1-.34-1.65-1.14-3.55-1.6-5.51-1.69-1.02-.11-2.04.28-3.09.12-1.1-.19-2.11-.75-2.92-1.48-1.86-2.05-4.34-2.94-6.84-3.97-2.51-1.04-5.01-1.99-7.62-2.66-2.64-.85-5.4-.7-7.96-2.01-2.69-1.62-2.35-5.06-2.07-7.7.36-5.37-.79-10.81-2.99-15.76h0Z"/>
      </g>
      <path class="cls-3" d="M159.43,46.83c-.84.46-2.72,1.65-4,4-1.71,3.13-1.18,6.16-1,7,1.04.11,3.07.15,5-1,.67-.4,1.55-.94,2-2,.23-.55.37-1.29,0-3-.26-1.18-.79-2.97-2-5Z"/>
      <path d="M59.96,81.67c1.17-2.55-.82-5.43-3.53-5.84,1.38.09,2.78.73,3.69,1.89.94,1.15,1.2,2.81.78,4.27l-.95-.32h0Z"/>
      <path d="M62.97,81.64c.93-1.66.2-3.91-1.54-4.8.94.32,1.8,1.03,2.27,1.99.48.96.55,2.12.2,3.2l-.92-.39h0Z"/>
      <path d="M148.33,59.32c-2.76-.71-5.2-2.34-6.9-4.49,1.95,1.93,4.49,3.17,7.1,3.51l-.2.98h0Z"/>
      <circle class="cls-2" cx="137.52" cy="40.38" r="6.59"/>
      <circle class="cls-7" cx="137.72" cy="40.24" r="5.08"/>
      <circle cx="137.35" cy="40.3" r="3.08"/>
      <circle class="cls-1" cx="140.63" cy="37.24" r="2.08"/>
    </g>
  </g>
</svg>