<?xml version="1.0" encoding="UTF-8"?>
<svg id="Layer_2" data-name="Layer 2" xmlns="http://www.w3.org/2000/svg" viewBox="0 0 154.22 166.72">
  <defs>
    <style>
      .cls-1 {
        fill: #d64227;
      }

      .cls-2 {
        fill: #a41e21;
      }

      .cls-3 {
        fill: #fff;
      }

      .cls-4 {
        fill: #8b1d1b;
      }

      .cls-5 {
        fill: #901e21;
      }

      .cls-6 {
        fill: #231f20;
      }

      .cls-7 {
        fill: #333;
      }
    </style>
  </defs>
  <g id="Layer_1-2" data-name="Layer 1">
    <g>
      <path class="cls-4" d="M33.01,66.31c-.47-.68,1.81-2.1,5-7,2.09-3.22,2.52-4.78,4-5,1.65-.25,3.71,1.31,4,3,.4,2.33-2.64,4.4-5,6-3.09,2.1-7.39,3.89-8,3Z"/>
      <path class="cls-4" d="M44.01,50.31c-1.25,1.25-1.79,3.48-1,5,.66,1.26,2.06,1.7,3,2,2,.63,3.47.32,6,0,6.28-.78,6.65,0,8-1,2.63-1.93,3.53-6.54,2-8-1.16-1.11-2.87.43-8,1-5.87.65-8.14-.86-10,1Z"/>
      <path class="cls-4" d="M71.01,60.31c-.33-2.4-2.07-2.55-4-6-2.2-3.94-1.55-6.66-3-7-1.37-.33-3.42,1.78-4,4-.27,1.03-.32,2.49,2,7,2.68,5.21,4.22,8.2,6,8,1.73-.19,3.37-3.36,3-6Z"/>
      <path class="cls-4" d="M25.01,70.31c-.89.05-1.5.6-4,4-3.17,4.32-3.16,4.76-3,5,.55.79,3.28-.1,5-1,2.08-1.09,5.67-3.74,5-6-.34-1.16-1.76-2.08-3-2Z"/>
      <path class="cls-4" d="M46.01,58.31c-1.77-1.39-5.07,3.62-14,6-4.82,1.28-8.4,1.04-9,3-.44,1.44.99,3.18,2,4,2.24,1.83,5.18,1.43,8,1,3.71-.56,8.09-1.23,11-5,2.32-3.02,3.53-7.8,2-9Z"/>
      <path class="cls-4" d="M54.01,78.31c-2.45.32-4.39-2.38-7-6-2.55-3.54-4.68-6.5-4-10,.49-2.53,2.4-5.14,4-5,.84.08,1.19.88,3,4,2.54,4.36,3.81,6.55,5,8,1.96,2.38,2.89,2.63,3,4,.18,2.14-1.82,4.72-4,5Z"/>
      <path class="cls-4" d="M13.01,92.31c-1.65.58-1.06,2.89-3,6-1.92,3.08-4.38,3.86-4,5,.28.84,1.87,1.16,3,1,1.25-.18,2.11-.97,3-2,1.28-1.48,5.69-6.58,4-9-.61-.88-1.98-1.36-3-1Z"/>
      <path class="cls-4" d="M29.01,78.31c-1.87-.4-2.72,1.94-7,5-5.16,3.69-8.07,3.25-9,6-.74,2.19.2,5.13,2,6,1.36.66,2.88-.03,5-1,1.88-.86,2.93-1.68,7-5,4.22-3.44,4.77-3.91,5-5,.52-2.44-1.03-5.57-3-6Z"/>
      <path class="cls-4" d="M51.01,85.31c-.37-1.38-2.56-.69-8-3-4.1-1.74-6.46-2.74-9-5-1.4-1.24-2.08-2.18-3-2-1.52.3-2.66,3.45-2,6,.46,1.78,1.7,2.86,3,4,1.21,1.06,2.06,1.46,5,3,5.33,2.8,5.29,2.94,6,3,4.04.35,8.58-3.87,8-6Z"/>
      <path class="cls-4" d="M145.01,91.31c1.36,0,1.62,2.66,4,7,2.07,3.77,4.03,5.68,5,10,.3,1.32.27,1.81,0,2-1.01.72-5.24-3-8-7-1.56-2.26-4.51-6.54-3-10,.1-.23.89-2,2-2Z"/>
      <path class="cls-4" d="M132.01,81.31c2.21-1.06,4.08,3.24,11,6,1.4.56,2.73.94,3,2,.35,1.37-1.23,3.26-3,4-1.51.64-3.36.1-7-1-5.14-1.55-5.75-2.49-6-3-.62-1.28-.3-2.69,0-4,.37-1.64.78-3.42,2-4Z"/>
      <path class="cls-4" d="M110.01,93.31c2.41-1.74,5.5-4.08,9-7,6.02-5.02,8.48-7.79,11-7,1.66.52,2.75,2.41,3,4,.29,1.81-.28,4.74-8,11-3.85,3.12-9.75,7.29-18,11"/>
      <path class="cls-4" d="M139.01,73.31c-.48,2.54,1.07,4.7,2,6,1.46,2.03,4.12,4.56,5,4,.88-.56-.43-3.94-2-8-1.86-4.81-2.66-5.01-3-5-.96.02-1.76,1.75-2,3Z"/>
      <path class="cls-4" d="M124.01,61.31c1.4-.84,2.86.94,8,3,6.28,2.52,9.36,1.97,10,4,.55,1.74-1.07,4.19-3,5-1.4.59-2.42.07-6-1-6.9-2.06-7.82-1.54-9-3-1.98-2.45-1.79-6.92,0-8Z"/>
      <path class="cls-2" d="M40.01,95.31c-3.04-3.25-8.54-2.1-9-2-4.25.95-7.7,4.4-9,9-1.44.39-5.02,1.58-8,5-3.54,4.05-3.93,8.6-4,10C8.42,118.62.27,125.57,0,136.31c-.31,12.73,10.66,21.6,19,25,13.58,5.55,26.11-.98,28-2-2.39-.51-7.15-1.88-11-6-5.04-5.39-6.88-13.73-5-15,1.09-.73,3.43.9,5,2,2.92,2.04,4.36,4.64,5,6,1.05-1.38,4.49-6.27,4-13-.76-10.5-10.38-15.68-11-16v-6c.38.39,1.12,1.05,2,1,3.53-.21,8.76-11.91,4-17Z"/>
      <path class="cls-4" d="M109.01,80.31c1.7-.48,4.23-1.36,7-3,2.57-1.53,10.25-6.09,10-12-.13-2.96-2.23-6.03-4-6-1.46.03-2.23,2.17-4,5-1.48,2.37-3.93,5.63-8,9-.25.2-1.99,1.64-2,4,0,1.52.71,2.61,1,3Z"/>
      <path class="cls-5" d="M22.01,102.31c6.12-3.09,12.64,2.57,12,9-.99-6-5.83-10.4-12-9h0Z"/>
      <path class="cls-5" d="M10.01,117.31c5.73-5.19,14.81-5.91,21.39-1.93.93.57,1.81,1.21,2.61,1.93-7.23-4.62-16.77-4.62-24,0h0Z"/>
      <path class="cls-5" d="M10.01,117.31c10-5.02,19.6,1.04,21.58,11.61.61,3.14.38,6.4-.58,9.39.56-3.05.58-6.22-.17-9.22-2.45-10.08-10.81-15.44-20.83-11.78h0Z"/>
      <path class="cls-4" d="M134.01,56.31c.2,1.35,1.11,2.2,2,3,1.17,1.05,3.39,2.55,4,2,.78-.71-1.58-4.34-2-5-.97-1.49-2.09-3.23-3-3-.78.2-1.18,1.79-1,3Z"/>
      <path class="cls-4" d="M118.01,53.31c1,1.1,1.83.89,7,2,5.54,1.19,6.6,1.85,8,1,1.62-.99,2.7-3.42,2-5-.84-1.9-3.59-1.1-9-3-5.1-1.79-6.52-3.85-8-3-1.84,1.06-2.09,5.69,0,8Z"/>
      <path class="cls-4" d="M108.01,63.31c.9.44,2.54-1.34,5-4,3.72-4.03,5.95-6.51,6-10,.03-2.07-.7-4.72-2-5-1.28-.28-2.76,1.82-5,5-1.39,1.97-2.23,3.16-3,5-1.44,3.45-2.3,8.37-1,9Z"/>
      <path class="cls-2" d="M71.01,133.31c-8.09.34-16.36.7-24-5-1.35-1.01-13.36-10.28-11-24,2.13-12.36,14.08-17.61,15-18,.33-2.22,1.23-6.1,4-10,4.51-6.35,10.91-8.42,13-9,.44-1.78,1.47-4.9,4-8,2.14-2.62,4.48-4.16,6-5,.5-1.27,1.39-3.13,3-5,1.8-2.1,3.73-3.33,5-4,.22-1.53.54-3.21,1-5,.59-2.27,1.29-4.27,2-6-.42-.89-1.11-2.68-1-5,.08-1.79.61-3.17,1-4-.84-.34-2.58-1.17-4-3-1.92-2.48-2.01-5.15-2-6-.77.42-4.03,2.06-8,1-2.62-.7-4.28-2.24-5-3-.71-.11-1.76-.2-3,0-1.32.21-2.34.65-3,1-.7,1.64-1.91,3.89-4,6-3.61,3.64-6.81,3.8-8,7-1.14,3.06.83,5.49,0,6-1.34.82-8.13-4.38-10-12-.24-.98-2.46-10.63,4-16,3.39-2.82,7.42-3.01,9-3,.9-.8,2.93-2.39,6-3,3.88-.77,6.95.51,8,1,1.09-.54,4.25-1.92,8-1,4.46,1.09,7.95,5,9,10,4.43-2.88,9.97-2.27,13,1,3.29,3.55,2.1,8.61,2,9,.85.58,2.88,2.15,4,5,1.5,3.8.32,7.18,0,8,.62,1,2,3.51,2,7,0,1.18-.16,4.04-2,7,.96,1.03,3.24,3.76,4,8,.78,4.31-.45,7.7-1,9,.75,1.51,1.9,4.32,2,8,.11,4.23-1.23,7.45-2,9,.84,1.94,1.6,4.28,2,7,1.45,9.97-3.06,17.97-5,21-.07,2.65-.56,6.85-3,11-7.06,11.98-24.1,12.71-31,13Z"/>
      <path class="cls-5" d="M51.01,86.31c15.03-8.29,37.01-7.96,47.95,6.8,3.49,4.7,5.46,10.42,6.05,16.2-.99-5.66-3.09-11.21-6.66-15.74-11.09-14.2-32.12-14.35-47.34-7.26h0Z"/>
      <path class="cls-5" d="M68.01,67.31c12.72-6.47,28.49-2.36,36.91,9.04,1.17,1.57,2.24,3.21,3.09,4.96-2.07-3.29-4.64-6.22-7.56-8.71-8.78-7.71-21.64-9.55-32.44-5.29h0Z"/>
      <path class="cls-5" d="M78.01,54.31c9.35-3.68,21.51-2.18,27.78,6.29.86,1.17,1.63,2.4,2.22,3.71-6.37-10.4-18.81-12.8-30-10h0Z"/>
      <path class="cls-5" d="M86.01,45.31c5.64-4.12,14.37-3.19,19,2-5.61-3.96-12.69-4.71-19-2h0Z"/>
      <path class="cls-5" d="M89.01,34.31c2.6-7.25,12.4-7.59,16-1-4.61-5.19-12.2-5-16,1h0Z"/>
      <path class="cls-5" d="M89.01,25.31c1.63-4.64,7.6-6.99,12-5-1.18-.08-2.32-.06-3.44.07-3.43.41-6.34,2.19-8.56,4.93h0Z"/>
      <path class="cls-5" d="M83.01,16.31c-.26-2.34.97-4.8,3-6-.98,2.16-1.87,3.91-3,6h0Z"/>
      <path class="cls-5" d="M70.01,14.31c3.66-3.88,3.17-9.72-1-13,5.42,2.13,6.05,10.07,1,13h0Z"/>
      <path class="cls-5" d="M64.01,15.31c-.55-5.44-4.01-9.93-9-12,5.56.61,10.02,6.44,9,12h0Z"/>
      <path class="cls-6" d="M58.01,113.31c.3-.5,4.1,2.51,9,3,6.97.7,12.27-4.07,13-3,.43.63-1.6,2.05-4,6-2.63,4.32-2.12,5.78-4,7-3.1,2-8.67.74-10-2-.92-1.9.83-3.22,0-6-.96-3.22-4.25-4.58-4-5Z"/>
      <path class="cls-2" d="M99.01,94.31c.85-1.65,4.78-1.15,6-1,4.17.53,6.93,2.95,8,4,1.45,0,4.26.22,7,2,5.93,3.84,6,11.35,6,12,1.34,1.13,5.82,5.16,7,12,1.61,9.31-4.2,16.1-5,17-.16,2.81-.82,7.91-4,13-6.5,10.4-19.79,14.85-31,13-6.83-1.13-11.89-4.42-15-7,2.6-.06,6.13-.48,10-2,8.79-3.45,13.38-10.28,15-13-2.3.43-5.84.81-10,0-2.46-.48-3.35-1.02-5-1-2.37.03-5.81,1.25-10,7,.16-2.07,1.15-12.37,10-20,7.31-6.3,15.49-6.91,18-7,.06-.94.27-2.39,1-4,.63-1.37,1.41-2.36,2-3-.91-1.05-2.15-2.72-3-5-.8-2.15-.76-3.5-1-5-1.12-7.03-7.14-9.8-6-12Z"/>
      <path class="cls-5" d="M109.01,116.31c2.98-6.04,11.22-8.3,17-5-6.13-1.79-12.91.01-17,5h0Z"/>
      <path class="cls-5" d="M128.01,140.31c-1.08-11.02-14.44-12.48-20.17-4.01-1.81,2.52-3.25,5.32-4.83,8.01,1.21-2.9,2.49-5.76,4.19-8.44,1.73-2.72,4.48-4.83,7.61-5.7,6.46-1.84,13.74,3.22,13.2,10.14h0Z"/>
      <path class="cls-5" d="M106.01,123.31c4.99-1.31,10.64,2.09,12,7-2.7-4.13-6.99-6.76-12-7h0Z"/>
      <path class="cls-5" d="M105.01,105.31c-.58-4.31,3.66-8.63,8-8-4.11,1-6.96,3.92-8,8h0Z"/>
      <path class="cls-1" d="M62.01,124.31c-.18-1.77,2.61-3.59,5-4,3.37-.58,6.99,1.46,7,3,0,.72-.78,1.71-1,2,0,0-.45.57-1,1-1.86,1.44-4.74,1.04-5,1-1.48-.22-4.81-1.16-5-3Z"/>
      <circle class="cls-3" cx="48.67" cy="101.35" r="12.04"/>
      <circle class="cls-7" cx="48.42" cy="100.98" r="9.27"/>
      <circle cx="48.5" cy="101.67" r="5.62"/>
      <circle class="cls-3" cx="43.16" cy="95.46" r="3.8"/>
      <circle class="cls-3" cx="84.67" cy="99.35" r="12.04"/>
      <circle class="cls-7" cx="84.42" cy="98.98" r="9.27"/>
      <circle cx="84.5" cy="99.67" r="5.62"/>
      <circle class="cls-3" cx="79.16" cy="93.46" r="3.8"/>
    </g>
  </g>
</svg>