<?xml version="1.0" encoding="UTF-8"?>
<svg id="Layer_2" data-name="Layer 2" xmlns="http://www.w3.org/2000/svg" viewBox="0 0 157.1 144.82">
  <defs>
    <style>
      .cls-1 {
        fill: none;
      }

      .cls-1, .cls-2, .cls-3, .cls-4, .cls-5 {
        stroke: #000;
        stroke-miterlimit: 10;
      }

      .cls-6, .cls-2 {
        fill: #fff;
      }

      .cls-4 {
        fill: #f3eb88;
      }

      .cls-7 {
        fill: #3a3a3a;
      }

      .cls-5 {
        fill: #6cc267;
      }
    </style>
  </defs>
  <g id="Layer_1-2" data-name="Layer 1">
    <g>
      <path class="cls-5" d="M148.19,99.53c11.28-13.76,11.01-33.08.39-45.02-11.35-12.76-33.34-15.75-44.42-4.32-9.33,9.63-7.69,26.15-1.1,36.46,8.51,13.31,27.15,19.19,45.13,12.88Z"/>
      <path class="cls-5" d="M64.68,92.9c-9.35-7.75-10.05-12.2-18.09-16.03-5.18-2.46-10.04-3.06-13.2-3.21-.05,2.94.21,7.2,1.81,11.95,1.48,4.38,3.87,8.51,15.47,20.05,14.74,14.67,17.65,14.73,19.12,14.57,6.4-.67,12.66-8.16,11.77-13.91-.78-5-6.35-4.71-16.88-13.43Z"/>
      <path class="cls-5" d="M33.49,75.69c-3.95,18.05-7.89,36.1-11.84,54.15-.53-.52-1.69-1.51-3.36-1.72-3.11-.39-6.38,2.11-6.22,3.89.17,1.92,4.38,3.25,7.57,3.16,2.73-.08,4.81-1.19,5.93-1.92,3.51-15.16,7.01-30.33,10.52-45.49-.59-1.44-1.18-3.14-1.64-5.08-.64-2.64-.88-5.02-.95-6.99Z"/>
      <path class="cls-5" d="M102.15,85.5c-.55-.27-6.41-3.1-11.26-.11-4.04,2.49-4.66,7.35-4.89,9.09-1.59,12.4,11.56,26.04,17.62,24.23,2.04-.61,2.14-2.63,6.29-9.41,2.87-4.69,5.63-8.32,7.61-10.74-2.58-1.24-5.98-3.2-9.41-6.29-2.64-2.38-4.58-4.77-5.97-6.77Z"/>
      <path class="cls-5" d="M86.7,91.01c-2.36-1.31-26.55-14.25-51.19-2.13-15.81,7.78-22.78,21.43-24.87,26.01,6.07,4.17,22.28,14.11,45.29,14.52,21.81.39,37.69-8,44.05-11.83-1.49-.6-8.76-3.72-12.28-11.92-2.88-6.71-1.5-12.76-1-14.64Z"/>
      <path class="cls-5" d="M99.98,117.57c.22-.04.43,3.12,2.68,8.86,1.38,3.52,2.86,6.32,3.98,8.25,3.15-2.11,6.85-1.88,8.83.13,1.19,1.21,2.15,3.46,1.31,4.63-1.31,1.81-6.99,1.03-10.62-1.61-7.75-5.65-6.65-20.18-6.18-20.26Z"/>
      <path class="cls-5" d="M99.98,117.57c-1.68,2.51-4.14,6.29-6.9,11.03-6.79,11.63-6.24,13.29-5.75,14.02,2.03,2.97,11,1.68,11.83-1.02.37-1.21-.81-2.92-2.28-3.56-1.56-.69-3.57-.21-5.02,1.25.44-2.58,1.11-5.46,2.1-8.54,1.73-5.36,3.96-9.77,6.02-13.17Z"/>
      <path class="cls-4" d="M10.64,114.89c8.26,1.06,15.12,1.15,19.97,1.02,18.05-.49,32.26-4.69,43.06-7.96,5.57-1.69,10.1-3.3,13.15-4.44.66,2.02,2.22,5.86,5.83,9.34,2.71,2.61,5.51,4,7.33,4.73-6.68,3.89-16.03,8.14-27.72,10.28-20.71,3.79-36.9-1.22-41.06-2.61-9.11-3.04-16.02-7.18-20.56-10.36Z"/>
      <path class="cls-5" d="M99.98,117.57c9,13.43,18.37,16.88,23.03,17.98,1,.24,10.04,2.31,11.31-.3.77-1.57-1.41-4.58-3.95-5.83-2.9-1.43-6.65-.76-9.53,1.77-2.13-.79-4.41-1.78-6.78-3.04-6.19-3.29-10.82-7.23-14.09-10.59Z"/>
      <path class="cls-5" d="M69.79,120.24c3.57-5.33-7.77-21.06-20.85-29.72-9.25-6.14-18.52-8.17-24.4-8.93.4,2.02,1.1,4.83,2.41,8.01,1.15,2.79,3.7,8.14,13.74,18.18,9.41,9.4,14.25,14.11,21.15,14.48,2.28.12,6.38.34,7.95-2.01Z"/>
      <path class="cls-5" d="M24.82,82.43c-4.15,15.87-8.3,31.74-12.45,47.61-1.23-.2-4.05-.49-6.99.95-2.15,1.06-5.31,3.52-4.83,5.3.55,2.04,5.82,3.1,9.84,1.49,2.82-1.13,4.4-3.32,5.1-4.46,1.57-7.58,3.42-15.49,5.61-23.7,1.86-6.99,3.83-13.67,5.86-20.04-.71-2.39-1.42-4.78-2.13-7.17Z"/>
      <circle class="cls-2" cx="128.6" cy="74.83" r="9.55"/>
      <circle class="cls-3" cx="130.27" cy="77.09" r="6.76"/>
      <circle class="cls-7" cx="130.21" cy="77.49" r="3.18"/>
      <path class="cls-1" d="M119.76,42.9c-5.28-10.44-10.48-18.06-14.27-23.09,0,0-15.84-21.05-25.7-19.19-.62.12-2.64.5-4.31,2.57-.17.21-2.98,3.8-1.96,6.95.58,1.8,2.15,2.64,3.53,2.55,1.45-.09,3.63-1.27,3.84-3.44.15-1.57-.76-3.35-2.17-3.55-.96-.14-1.98.49-2.65,1.61"/>
      <path class="cls-1" d="M103.47,51.47c-6.42-10.61-12.67-18.39-17.21-23.54,0,0-18.99-21.53-30.44-19.91-.72.1-3.07.43-4.95,2.47-.19.21-3.38,3.74-2.11,6.92.73,1.82,2.58,2.7,4.18,2.65,1.68-.06,4.2-1.19,4.38-3.36.13-1.57-.97-3.38-2.62-3.62-1.13-.16-2.3.44-3.05,1.55"/>
      <path d="M117.91,63.68c2.83-6.58,13.3-7.48,16.98-1.33-2.98-.85-5.65-1.42-8.61-1.16-2.96.24-5.53,1.27-8.37,2.49h0Z"/>
      <path d="M139.67,101.75c-2.9,1.7-5.46-2.59-2.82-4.5-.19.6-.28,1.14-.26,1.67.08,1.69,1.25,2.69,3.08,2.83h0Z"/>
      <circle class="cls-6" cx="127.26" cy="73.02" r="3.18"/>
    </g>
  </g>
</svg>