<?xml version="1.0" encoding="UTF-8"?>
<svg id="Layer_2" data-name="Layer 2" xmlns="http://www.w3.org/2000/svg" viewBox="0 0 185.76 207.81">
  <defs>
    <style>
      .cls-1 {
        fill: #4a9c5d;
      }

      .cls-2 {
        fill: #68ba67;
      }

      .cls-3 {
        fill: #6cc267;
      }

      .cls-4 {
        fill: #60b467;
      }

      .cls-5 {
        fill: none;
        stroke: #6cc267;
        stroke-miterlimit: 10;
      }

      .cls-6 {
        fill: #fff;
      }

      .cls-7 {
        fill: #666;
      }

      .cls-8 {
        fill: #58a44d;
      }

      .cls-9 {
        fill: #4a9855;
      }

      .cls-10 {
        fill: #82ca71;
      }
    </style>
  </defs>
  <g id="Layer_1-2" data-name="Layer 1">
    <g>
      <path class="cls-3" d="M71.46,153.15c20.56-45.06,30.67-59.39,35-58,9.1,2.91-3.28,76.4,8,79,2.29.53,4.48-2.11,11-2,5.1.09,11.88,1.84,12,4,.22,3.81-20,12.26-29,5-4.11-3.32-4.46-8.76-5-16-.75-10.04-1.97-25.01-4-45-7.67,11.67-15.33,23.33-23,35-1.67-.67-3.33-1.33-5-2Z"/>
      <path class="cls-1" d="M110.07,182.46c1.82-6.29,3.13-12.51,4-19,.53,6.51-.9,13.25-4,19h0Z"/>
      <path class="cls-3" d="M57.54,146.72c1.86.88-1.45,13.84-8,25-3.7,6.31-9.8,16.69-19,18-2.25.32-2.38-.23-11,0-4.82.13-6.71.35-8-1-1.8-1.88-1.45-5.74,0-8,2.63-4.1,10.28-5.11,19-2,2.84-3.15,7.08-7.95,12-14,10.52-12.92,13.69-18.62,15-18Z"/>
      <path class="cls-3" d="M32.57,77.96c-11.93-3.64-36.61,20.5-32,40,1.66,7.01,7.41,14.74,15,16,11.51,1.91,22.81-11.83,26-24,3.32-12.67-.63-29.45-9-32Z"/>
      <path class="cls-4" d="M34.57,154.96c-.78,2.67,5.65,8.68,23,16,15.75,6.64,41.55,17.4,76,12,15.91-2.49,40.38-9.49,40-16-.35-6.01-21.45-4.09-61-16-26.46-7.97-55.04-20.28-61-12-1.71,2.37-.79,5.25-4,9-4.94,5.76-12.24,4.41-13,7Z"/>
      <path class="cls-9" d="M49.1,122.34c4.62-3.43,12.1,4.58,27.44,11,24.85,10.39,52.15,8.99,71.54,8,12.83-.66,20.4-2.16,21.49.61,1.57,4.02-11.59,14.41-25,20-24.75,10.32-48.45,3.47-66.07-1.61-19.93-5.75-25.32-11.91-27.93-16.39-4.34-7.43-5.82-18.38-1.47-21.61Z"/>
      <path class="cls-2" d="M41.57,105.96c4.14.09,7.06,8.34,8,11,5.74,16.23,2.09,38.63-7,41-5.38,1.4-12.21-4.33-15-10-3.17-6.46-1-12.64,3-24,2.79-7.92,6.36-18.1,11-18Z"/>
      <path class="cls-8" d="M51.57,143.96c-1.61-2.05-4.23-5.94-5.5-11.5-.37-1.6-1.39-6.69,0-13,.55-2.52,1.34-4.55,2-6,1.72,3.01,4.36,8.56,5,16,.54,6.27-.56,11.37-1.5,14.5Z"/>
      <path class="cls-10" d="M49.57,116.96c4.61-3.5,12.49,4.37,28,11,28.66,12.25,58.08,9.43,73,8,21.89-2.1,33.35-7.39,35-4,2.06,4.25-12.97,18.59-31,26-22.43,9.21-42.07,4.65-75-3-12.88-2.99-21.46-6.11-27-14-5.72-8.14-7.59-20.51-3-24Z"/>
      <path class="cls-3" d="M78.57,177.96c-3.44-1.9,23.58-61.49,32-59,9.02,2.67-3.34,76.38,8,79,2.29.53,4.48-2.11,11-2,5.1.09,11.88,1.84,12,4,.22,3.81-20,12.26-29,5-4.11-3.32-4.46-8.76-5-16-.75-10.04-1.97-25.01-4-45-13.02,20.34-23.21,34.99-25,34Z"/>
      <path class="cls-3" d="M70.57,155.96c1.86.88-1.45,13.84-8,25-3.7,6.31-9.8,16.69-19,18-2.25.32-2.38-.23-11,0-4.82.13-6.71.35-8-1-1.8-1.88-1.45-5.74,0-8,2.63-4.1,10.28-5.11,19-2,2.84-3.15,7.08-7.95,12-14,10.52-12.92,13.69-18.62,15-18Z"/>
      <path class="cls-5" d="M36.57,80.96c-.89-5.54-2.41-19.98,6-33,11.58-17.92,37.26-25.88,63-18"/>
      <path class="cls-5" d="M24.07,78.46c-2.55-6.2-5.86-17.02-4-30C24.65,16.53,56.22,1.73,59.07.46"/>
      <circle class="cls-6" cx="21.57" cy="98.96" r="8"/>
      <circle class="cls-7" cx="19.54" cy="98.51" r="5.45"/>
      <circle cx="18.61" cy="98.58" r="3.96"/>
      <circle class="cls-6" cx="22.09" cy="95.07" r="3.96"/>
      <path d="M3.57,122.96c3.01.53,5.73-1.35,7-4-.58,3.01-4.04,5.32-7,4h0Z"/>
      <path class="cls-1" d="M155.57,160.96c3.25,4.54,3.63,11.07,1,16,1.23-5.43.95-10.78-1-16h0Z"/>
      <path class="cls-1" d="M148.07,161.96c2.32,5.35,1.91,11.95-1,17,1.58-5.63,1.94-11.23,1-17h0Z"/>
      <path class="cls-1" d="M140.07,163.46c2.33,5.35,1.94,11.96-1,17,1.61-5.62,1.95-11.23,1-17h0Z"/>
      <path class="cls-1" d="M164.07,163.46c2.01,2.49,2.02,6.52,0,9,.67-3.12.67-5.88,0-9h0Z"/>
      <path class="cls-1" d="M118.07,182.46c1.99-6.27,1.98-12.73,0-19,3.34,5.67,3.34,13.33,0,19h0Z"/>
      <path class="cls-1" d="M126.07,180.46c2.08-5.55,2.02-11.47,0-17,3.38,4.92,3.42,12.07,0,17h0Z"/>
      <path class="cls-1" d="M133.07,180.46c.67-5.4.66-10.6,0-16,2.04,5.03,2.03,10.97,0,16h0Z"/>
      <path class="cls-3" d="M48.4,119.08c8.1,7.49,18.68,12.2,29.67,13.37-11.1-.85-21.91-5.29-30.33-12.63,0,0,.67-.75.67-.75h0Z"/>
      <path class="cls-3" d="M47.43,127.11c9.47,10.29,23.76,15.49,37.64,14.35-13.99,1.5-28.55-3.48-38.36-13.65,0,0,.72-.69.72-.69h0Z"/>
    </g>
  </g>
</svg>