<?xml version="1.0" encoding="UTF-8"?>
<svg id="Layer_2" data-name="Layer 2" xmlns="http://www.w3.org/2000/svg" viewBox="0 0 135.92 151.12">
  <defs>
    <style>
      .cls-1 {
        fill: #a6bd68;
      }

      .cls-2 {
        fill: #a6c080;
      }

      .cls-3 {
        fill: #fff;
      }

      .cls-4 {
        fill: #bd4e27;
      }

      .cls-5 {
        fill: #456f30;
      }

      .cls-6 {
        fill: #5d873c;
      }

      .cls-7 {
        fill: #333;
      }

      .cls-8 {
        fill: #c6dd80;
      }
    </style>
  </defs>
  <g id="Layer_1-2" data-name="Layer 1">
    <g>
      <path class="cls-6" d="M22.43,21.3c-.11-1.42-.54-8.96,5-15,1.24-1.35,7.1-7.74,15-6,7.5,1.65,10.56,9.84,11,11,.59,1.57.86,2.96,1,4"/>
      <path class="cls-8" d="M20.43,80.3c-1.58,6.43-2.94,14.57-3,24-.04,5.55.38,10.58,1,15-1.7.53-4.49,1.32-8,2-6.04,1.17-8.9.98-10,3-.88,1.62-.33,4.11,1,5,1.28.85,2.94-.02,6-1,2.12-.68,5.15-1.5,9-2-9.39,4.32-11.29,6.65-11,8,.29,1.36,2.93,2.24,5,2,2.2-.25,4.12-1.79,5-4-1.45,1.71-1.83,3.81-1,5,1.13,1.62,4.24,1.12,6,0,1.42-.9,1.57-1.95,3-4,1.16-1.66,2.92-4.18,5-5,4.89-1.92,10.16,6.05,14,4,1.36-.73,2.29-2.58,2-4-.69-3.33-7.81-2.7-10-7-1.18-2.33-.31-4.87,0-6,1.33-4.8,1.24-14.45-4.5-35.5"/>
      <circle class="cls-3" cx="36.5" cy="16.08" r="11.43"/>
      <circle class="cls-7" cx="36.89" cy="15.92" r="8.8"/>
      <circle cx="36.24" cy="15.86" r="5.33"/>
      <circle class="cls-3" cx="43" cy="12.03" r="3.6"/>
      <path class="cls-6" d="M10.43,31.3c.77-2.27,2.53-3.55,6-6,1.96-1.38,4.72-3.31,9-5,19.98-7.89,34-5,34-5,4.42.93,18.85,4.61,28,17,5.79,7.84,3.36,10.9,10,23,6.58,12,10.89,12.49,17,22,2.22,3.46,16.63,26.72,8,42-9.1,16.1-39.61,12.18-49,11-10.85-1.37-33.72-4.25-45-23-5.43-9.03-6.12-18.34-6-24-1.33-1.67-2.67-3.33-4-5-1.32-.75-3.2-2-5-4-1.57-1.74-3.56-3.94-4-7-.47-3.25,1.03-5.86,4-11,1.49-2.59,2.94-4.61,4-6-2.53-3.56-4.07-6.76-5-9-1.87-4.53-2.97-7.17-2-10Z"/>
      <path class="cls-1" d="M37.43,131.3c.56-.41,1.32-1.05,2-2,.98-1.36,1.35-2.71,1.5-3.5.47.23,1.22.7,1.5,1.5.77,2.18-2.38,5.44-4,5-.29-.08-.67-.32-1-1Z"/>
      <path class="cls-8" d="M53.43,53.3c5.98,5.52,10.68,10.39,14,14,5.98,6.5,9.04,9.86,12,15,2.24,3.89,3.94,7.92,6,15,5.73,19.68,8.6,29.51,5,34-7.78,9.69-38.57-.98-54-15-7.38-6.71-10.29-13.3-11-15-3.12-7.45-3.23-14.19-3-18-1-1.33-2-2.67-3-4-1.55-.88-3.85-2.44-6-5-1.83-2.18-3.9-4.65-4-8-.05-1.75.97-3.83,3-8,1.01-2.07,1.85-3.39,3.53-6.03,1.14-1.79,1.37-2.02,1.47-1.97.65.28-6.36,11.98-3,16,.88,1.05,3.08,2.3,12,0,6.42-1.66,16.09-5.1,27-13Z"/>
      <path class="cls-1" d="M75.93,96.8c-.31,4.22-1.23,10.27-4,17-3.31,8.04-7.84,13.66-11,17-.67-.33-1.33-.67-2-1,3.14-3.78,6.73-8.76,10-15,3.54-6.75,5.68-13,7-18Z"/>
      <path class="cls-1" d="M84.93,94.8c-1.78,1.23-4.89,3.75-7,8-4.46,8.97-.57,17.77,0,19,2.62,5.68,6.96,8.75,9,10h4c1-.33,2-.67,3-1-1.92-1.18-7.32-4.86-10-12-3.93-10.47,1.24-19.7,2-21-.33-1-.67-2-1-3Z"/>
      <path class="cls-6" d="M22.93,82.8c-.57,3.2-.89,7.36,0,12,3.43,17.9,21.91,28.1,22,28,.07-.08-10.47-5.81-17-19-4.12-8.33-4.92-16.14-5-21Z"/>
      <path class="cls-5" d="M119.93,87.8c-2.45-1.09-9.77-3.97-19-2-8.77,1.87-14.13,7.02-16,9,.67,2.33,1.33,4.67,2,7,2.12-2.14,7.48-6.96,16-9,8.92-2.14,16.17,0,19,1-.67-2-1.33-4-2-6Z"/>
      <path class="cls-6" d="M90.43,131.3c-1.9-1.08-6.05-3.77-9-9-.24-.42-3.77-6.85-3-13,1.62-12.91,22.26-25.19,39-20,.8.25,15.09,4.92,18,18,2.42,10.87-4.46,21.18-11,26-6.96,5.13-10.15,1.55-19,8-4.9,3.57-7.48,7.26-14,9-2.94.78-7.39,1.36-8,0-.69-1.54,3.79-5.07,8-8-4.48,2.64-7.61,4.54-10,6-1.75,1.07-3.58,2.21-6,2-1.3-.11-3.68-.7-4-2-.54-2.18,4.89-5.43,10-8-2.32,1.38-4.06,2.43-5,3-3.6,2.18-4.97,3.04-7,3-.74-.02-2.56-.06-3-1-.86-1.86,4.23-6.07,7-8,3.14-2.19,8.6-5.14,17-6Z"/>
      <path class="cls-8" d="M75.43,96.3c-.86,5-2.54,11.68-6,19-3.81,8.07-8.41,14.03-12,18,.37-.05,3.56-.43,6,2,1.55,1.55,3.02,4.46,2,6-1.58,2.39-6.96-1.74-13,1-3.35,1.52-3.69,3.7-8,5-2.4.72-5.53,1.02-6,0-.69-1.47,4.67-4.58,4-6-.45-.95-3.31-.55-7,0-5.29.78-7.48,1.75-8,1-.36-.52.04-1.91,4-6-.17-.52-.32-1.29,0-2,.78-1.7,3.68-1.69,5-2,5.44-1.29,7.01-13.77,8-19,1.25-6.57,4.24-15.61,12-26"/>
      <path class="cls-6" d="M46.43,27.3c.3-1.06,5.18-17.19,18-20,1.4-.31,6.12-1.34,11,1,6.74,3.23,8.59,10.41,9,12,1.92,7.43-1.18,13.5-2,15"/>
      <path class="cls-4" d="M17.43,50.3c-.87,1.34-7.41,11.54-4,16,3.81,4.97,17.61-.32,22-2,8.3-3.18,14.28-7.7,18-11-5.47-4.03-10.23-7.39-14-10-14.72-10.19-19.58-12.56-24-11-2.41.85-4.01,2.62-5,4,.56,1.59,1.22,3.26,2,5,1.57,3.49,3.32,6.48,5,9Z"/>
      <path class="cls-2" d="M30.43,137.3c2.4-2.08,5.95-2.88,9-2-3.15-.16-6.2.52-9,2h0Z"/>
      <circle class="cls-3" cx="66.43" cy="27.15" r="15.35"/>
      <circle class="cls-7" cx="66.88" cy="26.82" r="11.82"/>
      <circle cx="66.02" cy="26.95" r="7.17"/>
      <circle class="cls-3" cx="73.66" cy="19.84" r="4.84"/>
      <path class="cls-1" d="M39.93,144.8c2.18-1.33,3.35-2.92,3-4-.16-.49-.58-.75-1-1-2.4-1.46-5.52-.19-6,0-.73.29-1.86.87-3,2,.88-.38,2.26-.86,4-1,.6-.05,4.53-.37,5,1,.37,1.08-1.56,2.65-2,3Z"/>
    </g>
  </g>
</svg>