<?xml version="1.0" encoding="UTF-8"?>
<svg id="Layer_2" data-name="Layer 2" xmlns="http://www.w3.org/2000/svg" viewBox="0 0 175.84 141.48">
  <defs>
    <style>
      .cls-1 {
        fill: #fff;
      }

      .cls-2 {
        fill: #c02526;
      }

      .cls-3 {
        fill: #cd6f2b;
      }

      .cls-4 {
        fill: none;
      }

      .cls-5 {
        fill: #db7b27;
      }

      .cls-6 {
        fill: #333;
      }

      .cls-7 {
        fill: #f79341;
      }

      .cls-8 {
        fill: #ebcea2;
      }

      .cls-9 {
        fill: #ffe6b4;
      }
    </style>
  </defs>
  <g id="Layer_1-2" data-name="Layer 1">
    <g>
      <path class="cls-7" d="M10.36,67.99c.15-4.3,1.11-15.2,9-25,8.98-11.15,21.19-13.76,27-15,16.77-3.59,41.7-.74,57,18,2.45,3,15.67,19.2,11,40-3.97,17.67-18.19,26.88-24,30-26.16,14.06-54.15-2.53-60-6-16.43-9.74-22.16-22.51-23-27-.79-4.24,0-8,0-8,.68-3.25,2.07-5.64,3-7Z"/>
      <path class="cls-9" d="M47.36,27.99c.32-1.47.89-3.6,2-6,4.1-8.86,11.69-13.12,17-16,3.79-2.06,15.52-8.43,25-5,1.24.45,4.45,1.61,5,4,.36,1.54-.65,2.52-2,7-.65,2.15-.97,3.22-1,4-.11,2.81,1.78,5.04,7,10,7.13,6.77,8.24,7.01,10,10,1.33,2.27,3.78,6.45,2,10-1.45,2.88-4.9,3.76-6,4-2.87-4.02-11.04-14.38-26-20-15.11-5.68-28.21-3.16-33-2Z"/>
      <path class="cls-9" d="M112.36,60.99c.58-1.65,1.54-4.13,3-7,9.51-18.7,26.35-26.65,32-29,5.41-2.25,18.39-7.64,25-2,.73.63,1.24,1.26,1.57,1.73.15.27.35.7.43,1.27.06.4.04.74,0,1,.19.1.7.39,1,1,.47.95.06,1.87,0,2,.33,1.05.9,3.4,0,6-.28.8-.64,1.47-1,2-.21,2.56-.88,6.22-3,10-.64,1.14-1.32,2.14-2,3-1.21,3.42-3.29,7.81-7,12-1,1.13-2.01,2.12-3,3-1.9,2.55-5.71,6.94-12,10-3.86,1.88-7.42,2.66-10,3,1.23.33,3.03.92,5,2,.99.54,8.21,4.64,11,13,1.86,5.57-.29,6.92,2,14,1.22,3.78,1.94,6.01,4,8,5.03,4.86,11.53,2.03,14,6,1.71,2.74.31,6.83-1,9-4.95,8.23-19.35,7.19-22,7-16.54-1.2-27.31-13.04-30-16-7.39-8.13-10.57-16.8-12-22,2.12-3.14,6.23-10.15,7-20,.68-8.73-1.58-15.54-3-19Z"/>
      <path class="cls-9" d="M101.36,107.99c1.75.95,4.02,2.5,6,5,5.45,6.85,4.29,15.19,4,17,.46.78,1.45,2.72,1,5-.57,2.9-3.12,4.46-4,5-6.23,3.82-17.23-.25-24-6-2.28-1.94-6.33-5.97-9-13,3.73-.59,9.13-1.89,15-5,4.91-2.6,8.54-5.61,11-8Z"/>
      <path class="cls-9" d="M49.36,118.99c-.16,2.32-.04,6.12,2,10,2.28,4.33,7.46,9.7,13,9,1.26-.16,2.28-.6,3-1,1.48.48,2.41.29,3,0,2.83-1.39,3.27-7.78,1-16-2.91.22-6.28.28-10,0-4.63-.35-8.67-1.13-12-2Z"/>
      <path class="cls-8" d="M81.85,119.92c.68,6.36,4.77,12.17,10.51,15.07-6-2.65-10.46-8.41-11.49-14.93,0,0,.99-.14.99-.14h0Z"/>
      <path class="cls-9" d="M24.36,105.99c-1.07.78-2.6,2.07-4,4-1.24,1.71-4.4,6.06-3,10,1.22,3.45,5.31,4.78,6,5,6.06,1.96,13.79-1.78,20-9-2.82-.8-6.27-2.04-10-4-3.75-1.97-6.74-4.12-9-6Z"/>
      <path class="cls-9" d="M64.36,102.99c-1.03,2.03-2.32,5.09-3,9-.82,4.71-1.58,9.15,1,13,2.59,3.87,8.21,6.63,13,5,4.04-1.37,5.78-5.28,7-8,1.11-2.48,3.38-7.57,1-13-2.69-6.12-9.15-7.79-10-8"/>
      <path class="cls-2" d="M28.36,64.99c-.13,1.72-.08,5.04,2,8,.72,1.02,2.21,3.15,4,3,1.83-.16,2.93-2.62,4-5,.78-1.75,1.73-4.44,2-8"/>
      <g>
        <path class="cls-7" d="M27.36,61.99c-.82,1.58-.2,3.39,1,4,1.33.68,3.4-.09,4-2,1.2,1.52,3.11,2.29,5,2,2.72-.42,3.9-2.8,4-3"/>
        <path class="cls-3" d="M27.36,61.99c-.32,1.37.16,3.05,1.4,3.63,1.26.46,2.76-.51,3.12-1.78,0,0,.29-.9.29-.9,1.52,2.46,4.73,3.53,7.15,1.69.74-.37,1.44-.93,2.04-1.64-.96,4.33-7.02,4.58-9.39,1.31,0,0,.87-.16.87-.16-.28.88-.88,1.66-1.69,2.12-2.92,1.77-6-1.64-3.79-4.27h0Z"/>
      </g>
      <path class="cls-5" d="M62.36,98.99c11.05.13,26.43-8.47,22.21-21.34-.49-1.65-1.26-3.21-2.21-4.66,1.13,1.33,2.01,2.87,2.67,4.5,5.25,13.22-11.09,23.03-22.67,21.5h0Z"/>
      <path class="cls-5" d="M86.36,44.99c2.86-.13,5.85,2.45,5.47,5.52-.12,1.01-.51,1.95-1.09,2.77l-.24-.74c1.99.58,3.71,2.18,4.19,4.23.55,2.05-.45,4.27-2.1,5.5,0,0-.14-.64-.14-.64.59.17,1.15.43,1.65.78,1.5.98,2.4,2.83,2.26,4.58-.21-2.55-2.3-4.52-4.78-4.78,3.53-2.66,2.83-7.35-1.36-8.76,0,0-.64-.21-.64-.21,3.05-3.3,1-7.57-3.22-8.24h0Z"/>
      <path class="cls-5" d="M95.36,68.99c3.76,3.06,3.07,9.52-1,12,2.82-3.56,3.38-8.05,1-12h0Z"/>
      <path class="cls-5" d="M92.36,78.99c4.61,3.18,2.61,10.66-3,11,4.7-1.82,6-7.13,3-11h0Z"/>
      <path class="cls-5" d="M87.36,100.99c5.21-1.79,7.28-7.45,4-12,4.9,3.89,2.11,11.68-4,12h0Z"/>
      <path class="cls-4" d="M95.36,45.99c1.8.16,3.35,1.33,4,3,.67,1.71.27,3.67-1,5"/>
      <path class="cls-5" d="M94.36,49.99c2.53-.08,4.38,2.82,3.28,5.13,0,0-.21-.43-.21-.43,1.28.31,2.48.89,3.5,1.74,3.21,2.63,3.39,7.73.8,10.85,0,0-.13-.71-.13-.71,3.53,2.02,5.19,6.83,3.26,10.48-.6,1.17-1.46,2.19-2.5,2.94,1.83-1.72,2.93-4.24,2.64-6.74-.28-2.64-2.05-4.91-4.35-6.13,0,0,.33-.43.33-.43,3.21-4.02,1.31-10.02-3.69-11.4,0,0-.36-.11-.36-.11,1.28-2.14-.03-4.88-2.56-5.19h0Z"/>
      <path class="cls-5" d="M99.36,78.99c7.02,2.33,5.38,12.87-2,13,6.27-1.6,7.53-9.6,2-13h0Z"/>
      <path class="cls-5" d="M100.36,92.99c3.08,5-1.54,10.73-7.1,9.48,0,0,.59-.49.59-.49,0,1.08-.23,2.14-.68,3.12-1.27,2.94-4.73,4.58-7.81,3.89,1.96.04,3.97-.58,5.39-1.93,1.56-1.45,2.23-3.59,2.12-5.66,5.29,1.37,9.55-3.26,7.49-8.41h0Z"/>
      <path class="cls-5" d="M106.36,61.99c2.52,2.69,3.02,6.9,1.38,10.2,0,0-.18-.57-.18-.57,3.76,1.84,4.44,7.1,1.1,9.75,0,0,.11-.61.11-.61,1.92,3.25,1.43,7.74-1.38,10.3-.89.84-1.91,1.52-3.03,1.94,2.08-1.15,3.76-3.02,4.43-5.21.72-2.33.24-4.88-1.05-6.9.74-.59,1.39-1.35,1.75-2.23,1.11-2.47-.31-5.38-2.71-6.5,1.9-3.08,1.68-7.22-.42-10.17h0Z"/>
      <path class="cls-4" d="M81.36,102.99c.64.04,2.33.07,4-1,2.6-1.66,2.96-4.59,3-5"/>
      <path class="cls-8" d="M54.93,26.73c4.41-7.03,10.49-13.02,17.54-17.41,7.09-4.32,15.75-5.91,23.89-4.33-8.13-1.4-16.69.33-23.63,4.76-6.84,4.45-12.75,10.5-16.94,17.5,0,0-.85-.52-.85-.52h0Z"/>
      <path class="cls-8" d="M64.94,26.72c6.66-10.1,18.37-16.49,30.42-16.73-11.92.57-23.3,7.15-29.58,17.27,0,0-.84-.55-.84-.55h0Z"/>
      <path class="cls-8" d="M72.99,27.65c5.49-5.6,12.73-9.37,20.36-10.66-7.57,1.62-14.53,5.66-19.64,11.34l-.73-.69h0Z"/>
      <path class="cls-8" d="M80.03,29.62c4.9-4.04,11.1-6.35,17.33-6.62-6.21.6-12.15,3.23-16.67,7.38l-.65-.76h0Z"/>
      <path class="cls-8" d="M87.05,32.6c4.5-3.25,9.86-5.2,15.3-5.6-5.41.74-10.55,2.99-14.7,6.4l-.61-.79h0Z"/>
      <path class="cls-8" d="M94.09,36.57c4.11-2.34,8.64-3.89,13.26-4.57-4.56,1.01-8.9,2.86-12.74,5.43l-.52-.85h0Z"/>
      <path class="cls-8" d="M99.3,40.5c3.44-.2,6.86-1.05,10.05-2.5-3.04,1.75-6.42,2.95-9.95,3.5l-.11-.99h0Z"/>
      <path class="cls-8" d="M103.37,45.49c2.79.26,5.73-.62,7.99-2.5-2.02,2.13-4.96,3.43-8.01,3.5l.03-1h0Z"/>
      <path class="cls-8" d="M112.99,62.65c4.36-4.56,8.2-9.54,11.72-14.82,9.68-12.48,24.28-21.69,40.16-23.06,3.16-.24,6.34-.16,9.48.22-3.15-.33-6.32-.38-9.47-.09-15.73,1.54-30.16,10.89-39.57,23.37-3.42,5.29-7.27,10.42-11.6,15.06l-.73-.69h0Z"/>
      <path class="cls-8" d="M114.11,65.56c2.62-1.44,4.95-3.41,6.82-5.76,1.85-2.42,3.3-5.22,5.6-7.28,4.4-4.32,9.56-7.78,15.02-10.55,5.45-2.87,11.43-4.47,17.43-5.61,5.98-1.28,11.31-4.82,15.37-9.36-3.99,4.6-9.3,8.23-15.31,9.6-5.99,1.23-11.87,2.88-17.26,5.81-5.38,2.82-10.45,6.33-14.72,10.64-2.28,2.1-3.61,4.85-5.45,7.29-1.91,2.46-4.3,4.55-7.02,6.09l-.49-.87h0Z"/>
      <path class="cls-8" d="M115.16,69.54l4.08-2.01c4.05-2.18,7.38-5.38,10.95-8.24,7.23-5.57,14.96-11.3,24.05-13.27,9.3-1.14,16.69-8.09,21.12-16.03-3.63,6.65-9.26,12.73-16.56,15.32-4.45,1.14-8.99,1.92-13.02,4.25-6.77,3.54-12.87,8.27-18.62,13.27-3.29,3.11-7.5,5.69-11.6,7.61,0,0-.4-.92-.4-.92h0Z"/>
      <path class="cls-8" d="M115.28,73.5c5.85-.77,11.43-2.89,16.33-6.21,2.5-1.59,5.05-3.21,7.88-4.26,8.35-3.04,16.56-6.61,24.19-11.17,5-3.22,8.45-8.43,10.67-13.87-1.06,2.77-2.46,5.42-4.21,7.83-3.37,5.07-8.81,7.95-14.11,10.6-5.3,2.68-10.75,5.13-16.31,7.18-5.54,2.17-9.94,6.54-15.6,8.56-2.8,1.09-5.72,1.87-8.69,2.31l-.14-.99h0Z"/>
      <path class="cls-8" d="M121.22,75.51c7.78-2.33,18.75-5.44,26.17-8.44,8.52-3.41,16-9.13,21.97-16.08-5.86,7.08-13.27,12.96-21.77,16.54-4.24,1.8-8.61,3.24-12.94,4.76l-13.15,4.18-.27-.96h0Z"/>
      <path class="cls-8" d="M125.34,77.49c12.16-.14,24.23-4.23,34.01-11.5-9.64,7.58-21.7,12.02-33.99,12.5,0,0-.03-1-.03-1h0Z"/>
      <path class="cls-8" d="M115.26,78.5c7.34-1.29,14.89-1.11,22.1.49-7.27-1.27-14.76-1.1-21.9.49l-.19-.98h0Z"/>
      <path class="cls-8" d="M131.52,79.52c4.24,1.6,8.24,3.8,11.84,6.47-3.79-2.4-7.9-4.27-12.16-5.53l.32-.95h0Z"/>
      <path class="cls-8" d="M123.5,80.52c10.04,3.28,18.89,9.89,24.85,18.48-6.24-8.39-15.22-14.62-25.15-17.52l.3-.95h0Z"/>
      <path class="cls-8" d="M116.72,78.65c3.95,4.28,8.23,8.56,12.64,12.35-3.49-2.72-6.91-5.56-10.13-8.6,0,0-3.23-3.05-3.23-3.05l.72-.69h0Z"/>
      <path class="cls-8" d="M135.72,93.66c2.92,3.24,5.61,6.69,8.06,10.3,2.59,3.47,4.14,7.67,7.1,10.85,6.2,6.14,15.16,8.42,23.47,10.19-8.43-1.63-17.41-3.73-23.83-9.84-3.05-3.14-4.68-7.33-7.36-10.77-2.49-3.53-5.23-6.9-8.18-10.05l.74-.68h0Z"/>
      <path class="cls-8" d="M120.8,85.76c3.2,6.44,7.08,12.56,11.56,18.23-4.73-5.46-8.91-11.42-12.44-17.77l.88-.47h0Z"/>
      <path class="cls-8" d="M137.72,113.65c4.56,5.1,10.39,8.9,16.76,11.38,6.29,2.73,13.65,3.07,19.88-.04-9.57,5.17-20.75,1.35-29.36-4.04-2.92-1.87-5.6-4.11-8-6.62l.73-.68h0Z"/>
      <path class="cls-8" d="M114.8,85.76c2.48,4.55,5.89,10.83,8.49,15.22,2.94,5,5.85,10.07,9.77,14.33,7.91,8.47,18.74,14.27,30.3,15.68-11.62-1.25-22.57-6.93-30.66-15.34-5.95-6.48-10-14.33-14.48-21.82,0,0-4.3-7.61-4.3-7.61l.88-.47h0Z"/>
      <path class="cls-8" d="M113.84,89.88c2.83,13.54,10.97,25.52,21.63,34.2,6.64,5.36,14.82,9.51,23.53,9.21,5.19-.26,10.21-2.15,14.36-5.3-4.12,3.2-9.14,5.16-14.35,5.49-8.79.41-17.09-3.68-23.85-9.01-10.89-8.64-19.26-20.69-22.29-34.37,0,0,.98-.22.98-.22h0Z"/>
      <path class="cls-8" d="M111.85,93.9c2.07,12.04,7.95,23.35,16.51,32.09-8.85-8.56-15.07-19.81-17.49-31.91,0,0,.98-.19.98-.19h0Z"/>
      <path class="cls-8" d="M31.69,111.37c-3.83,3.04-7.21,6.87-10.33,10.62,2.89-4,6.01-8.05,9.67-11.38,0,0,.66.75.66.75h0Z"/>
      <path class="cls-8" d="M35.81,113.21c-2.37,4.54-6.06,8.33-10.45,10.78,4.22-2.74,7.56-6.7,9.55-11.22l.9.43h0Z"/>
      <polygon class="cls-8" points="40.79 115.24 36.36 121.99 39.92 114.75 40.79 115.24 40.79 115.24"/>
      <path class="cls-8" d="M54.85,119.96c.14,5.07,2.09,10.12,5.5,14.03-3.66-3.68-6.01-8.69-6.5-13.97l1-.06h0Z"/>
      <path class="cls-8" d="M67.05,137.39c-1.78-1.57-2.5-4.19-1.69-6.39-.44,2.15.51,4.44,2.31,5.61,0,0-.62.79-.62.79h0Z"/>
      <path class="cls-8" d="M66.86,105.02c-.53,6.97-.36,14.01.5,20.97-1.19-6.92-1.7-13.97-1.5-21.03l1,.05h0Z"/>
      <path class="cls-8" d="M69.84,103.87c1.77,7.59,2.61,15.37,2.52,23.12-.24-7.75-1.41-15.45-3.48-22.88l.97-.25h0Z"/>
      <path class="cls-8" d="M71.74,102.67c5.61,6.63,7.34,16.11,4.62,24.33,2.35-8.15.37-17.4-5.38-23.67,0,0,.76-.65.76-.65h0Z"/>
      <path class="cls-8" d="M74.61,103.56c6.19,3.72,9.33,11.43,7.74,18.43.28-1.73.3-3.49.08-5.21-.61-5.15-3.8-9.86-8.33-12.36,0,0,.51-.86.51-.86h0Z"/>
      <path class="cls-8" d="M96.71,111.64c2.46,2.8,6.89,2.79,9.65.36-1.95,2.01-5.15,2.94-7.85,1.87-.91-.34-1.76-.86-2.5-1.52l.7-.71h0Z"/>
      <path class="cls-8" d="M94.83,112.84c1.28,4.32,5.97,7.31,10.44,6.13,1.47-.36,2.88-1.03,4.09-1.97-1.15,1.01-2.54,1.76-4.02,2.22-4.7,1.5-9.83-1.5-11.45-6.06,0,0,.95-.31.95-.31h0Z"/>
      <path class="cls-8" d="M100.72,121.65c2.56,2.96,6.8,4.28,10.64,3.35-1.9.62-3.99.72-5.98.26-1.99-.45-3.87-1.47-5.38-2.92l.72-.69h0Z"/>
      <path class="cls-8" d="M88.77,116.72c5.04,8.12,14.03,13.52,23.58,14.27-9.69-.43-19-5.64-24.42-13.73,0,0,.84-.55.84-.55h0Z"/>
      <path class="cls-8" d="M84.82,118.81c4.08,10.85,14.17,20.57,26.53,18.18-8.94,2.05-17.96-2.8-23.05-10.08-1.77-2.39-3.26-4.98-4.42-7.74l.93-.36h0Z"/>
      <circle class="cls-1" cx="13.43" cy="51.09" r="13.43"/>
      <circle class="cls-6" cx="13.82" cy="50.79" r="10.34"/>
      <circle cx="13.07" cy="50.91" r="6.27"/>
      <circle class="cls-1" cx="19.75" cy="44.69" r="4.23"/>
      <circle class="cls-1" cx="54.77" cy="50.43" r="13.43"/>
      <circle class="cls-6" cx="55.17" cy="50.14" r="10.34"/>
      <circle cx="54.41" cy="50.25" r="6.27"/>
      <circle class="cls-1" cx="61.1" cy="44.03" r="4.23"/>
    </g>
  </g>
</svg>