<?xml version="1.0" encoding="UTF-8"?>
<svg id="Layer_2" data-name="Layer 2" xmlns="http://www.w3.org/2000/svg" viewBox="0 0 154.64 140.4">
  <defs>
    <style>
      .cls-1 {
        fill: #efccb0;
      }

      .cls-2 {
        fill: #fff;
      }

      .cls-3 {
        fill: none;
      }

      .cls-4 {
        fill: #6c3d13;
      }

      .cls-5 {
        fill: #333;
      }

      .cls-6 {
        fill: #7c471d;
      }

      .cls-7 {
        fill: #ffe0bc;
      }
    </style>
  </defs>
  <g id="Layer_1-2" data-name="Layer 1">
    <g>
      <path class="cls-6" d="M24,63.77c.42,2.23.8,5.78,0,10-.59,3.11-1.08,5.66-3,8-3.47,4.22-7.49,2.72-10,7-1.26,2.14-1.92,5.38-1,6,.29.19.69.11,1,0,.16,1.53.94,2.72,2,3,.23.06.56.1,1,0,.17.36.49.87,1,1,.74.18,1.48-.53,2-1,0,0,.57-.52,4-3,2.05-1.48,3.98-2.22,6-3,1.27-.49,2.3-.8,3-1,5.52-1.59,19.72-4.72,21-5"/>
      <path class="cls-6" d="M23,42.77c-1.72-.6-6.15-2.42-9-7-3.02-4.86-2.4-9.83-2-13,.23-1.81,1.46-11.61,10-18C30.53-1.61,40.25-.01,45,.77c4.19.69,12.56,2.06,18,9,4.13,5.26,4.67,11.37,5,15,.96,10.73-3.19,17.78,0,20,1.18.83,2.69.5,5,0,5.9-1.28,9.77-4.9,11-6,0,0,7.72-7.23,21-9,12.79-1.71,22.97,5.25,27,8,13.86,9.47,18.35,23.56,20,29,1.33,4.4,6.19,21.36-2,40-7.68,17.49-23.31,28.41-38,32-11.86,2.9-26.14,1.76-27-2-.46-2,4.25-3.75,17-12,10.46-6.77,15.69-10.16,19-14,3.9-4.53,8.87-13.19,8-30-16.23.93-29.18,2.63-38,4-10.5,1.64-14.68,2.75-23,3-12.82.39-23.68.72-32-5-15.79-10.86-13.3-37.2-13-40Z"/>
      <path class="cls-7" d="M12,23.77c.56-.61,1.55-1.52,3-2,4.86-1.6,7.95,4,15,4,3.84,0,4.34-1.66,8-1,3.31.6,4.26,2.21,7,2,2.72-.21,3.2-1.9,6-3,4.34-1.71,10.97-.73,13,3,1.96,3.59-1.04,8.44-2,10-4.14,6.71-11.65,8.53-14,9,.61,1.69,1.38,4.07,2,7,.59,2.81,1.16,5.52,1,9-.23,4.9-1.77,6.57-2,9-.35,3.59,2.18,9.07,16,17,3.7-4.66,9.52-10.35,18-14,4.2-1.81,9.4-4.05,16-3,7.67,1.22,15.7,6.65,15,10-.63,3.02-7.93,2.18-29,5-21.09,2.82-27.3,5.48-38,2-2.9-.94-8.11-2.69-13-7-14.38-12.67-11.48-34.75-11-38-1.22-.38-5.95-2.02-9-7-3.32-5.42-2.25-10.86-2-12Z"/>
      <path class="cls-1" d="M95.5,70.27h2c.86,1.56,2.4,3.88,5,6,1.83,1.49,3.63,2.42,5,3-.66.44-2.2,1.31-4,1-.61-.1-1.87-.45-4-3-1.16-1.39-2.78-3.67-4-7Z"/>
      <path class="cls-6" d="M114,41.77c-1.67-.23-4.74-.4-8,1-6.05,2.6-8.17,8.65-9,11-.61,1.74-3.6,10.97,2,19,2.99,4.29,7.04,6.22,9,7-1.84-.25-5.24-.46-9,1-4.86,1.89-6.78,5.19-7,6-.15.56,0,1,0,1,.2.58.74.88,1,1-.4,1.24.07,2.5,1,3,.89.48,1.86.06,2,0,.02.08.49,1.59,2,2,1.09.3,2.27-.1,3-1,.36.73.98,1.68,2,2,1.64.51,3.15-.95,5-2,3.74-2.13,5.32-.61,10-2,5.68-1.69,9.79-6.67,10-7,2.87-4.61,2.26-9.46,2-11"/>
      <circle class="cls-2" cx="20.64" cy="18.37" r="6.79"/>
      <path class="cls-4" d="M27.5,91.27c.59-.66,1.25-1.34,2-2,3.13-2.77,6.46-4.21,9-5,.43.23,1.12.6,2,1,1.54.7,1.96.75,2,1,.03.2-.1.99-7,3-3.22.94-5.97,1.58-8,2Z"/>
      <path class="cls-1" d="M38.5,84.27c.79-.04,1.96-.23,3-1,1.36-1,1.82-2.46,2-3,.79-2.34,2.65-6.13,6-12,.29,1.93,1.02,8.35-3,14-1.28,1.81-2.74,3.1-4,4-1.33-.67-2.67-1.33-4-2Z"/>
      <circle class="cls-5" cx="20.86" cy="18.25" r="5.22"/>
      <circle cx="20.47" cy="18.26" r="3.17"/>
      <circle class="cls-2" cx="24.24" cy="15.59" r="2.14"/>
      <path d="M92.76,88.69c.84-2.37,2.88-4.18,5.24-4.92-2.25.88-4.11,2.75-4.76,5.08,0,0-.47-.16-.47-.16h0Z"/>
      <path d="M95.78,91.66c1.68-3.29,4.73-5.78,8.22-6.89-3.39,1.25-6.28,3.82-7.78,7.11,0,0-.45-.22-.45-.22h0Z"/>
      <path d="M100.77,92.67c1.38-3.31,4.67-5.67,8.23-5.91-3.47.4-6.58,2.83-7.77,6.09,0,0-.46-.19-.46-.19h0Z"/>
      <path class="cls-6" d="M52,64.77c-1.92,3.63-3.18,6.75-4,9-2.31,6.34-2.28,9.13-5,11-2.1,1.45-2.7.18-7,2-1.86.79-5.88,2.56-7,6-.06.2-.8,2.46,0,3,.28.19.68.12,1,0-.02.17-.22,1.78,1,3s2.83,1.02,3,1c.19.29.5.7,1,1,2.22,1.36,5.67-.73,8-2,5.63-3.07,3.14-.49,15-6,6.17-2.87,9.29-4.33,11-6,4.02-3.93,5.43-8.86,6-12"/>
      <path d="M29.76,95.69c.84-2.37,2.88-4.18,5.24-4.92-2.25.88-4.11,2.75-4.76,5.08,0,0-.47-.16-.47-.16h0Z"/>
      <path d="M33.75,99.81c-.24-4.13,5.08-5.38,8.25-6.04-2.92.76-8.1,2.16-7.75,5.96,0,0-.49.08-.49.08h0Z"/>
      <path d="M10.75,94.73c.53-2.99,2.56-5.61,5.25-6.96-2.56,1.47-4.4,4.11-4.75,7.04,0,0-.49-.08-.49-.08h0Z"/>
      <path d="M13.75,97.72c.82-3.94,3.67-7.23,7.25-8.95-3.44,1.84-6.12,5.17-6.75,9.05,0,0-.49-.1-.49-.1h0Z"/>
      <path class="cls-6" d="M18,8.77c-1.82-.57-3.76-.21-5,1-1.71,1.67-1.85,4.76,0,7"/>
      <path class="cls-6" d="M62,12.77c1.46-2.47,4.61-3.32,7-2,2.54,1.4,3.14,4.66,2,7-1.04,2.15-3.48,3.4-6,3"/>
      <path d="M62,18.77c.23-2.76,3.37-4.83,6-4-2.64-.03-5.01,1.51-6,4h0Z"/>
      <ellipse cx="29.5" cy="25.27" rx="5.5" ry="3.5"/>
      <path d="M18,29.77c1.78,6.7,11.08,6.51,10.75-.97,0,0,.49-.02.49-.02-.01,1.32.35,2.68,1.07,3.8,1.45,2.3,4.36,3.43,7.02,2.95,1.34-.22,2.62-.84,3.66-1.75-4.46,4.5-12.35,1.46-12.25-5,0,0,.49-.02.49-.02.37,7.92-9.68,8.37-11.25,1.03h0Z"/>
      <path class="cls-3" d="M19,28.77c-2.3.08-5.01.35-8,1-4.56,1-8.27,2.57-11,4"/>
      <path d="M20,30.77c-5.99.41-11.63,2.88-16,7,3.84-4.62,9.99-7.31,16-7h0Z"/>
      <path d="M22,31.77c-9.05,3.05-16.46,10.14-20,19,2.89-9.16,10.69-16.61,20-19h0Z"/>
      <path class="cls-3" d="M21,33.77c-1.86,1.12-4.51,3.01-7,6-2.85,3.42-4.27,6.81-5,9"/>
      <path d="M24,34.77c-5.35,4.8-9.17,11.05-11,18,1.14-7.11,5.2-13.74,11-18h0Z"/>
      <path d="M41,29.77c5.83-1.5,12.45.07,17,4-4.98-3.35-11.04-4.79-17-4h0Z"/>
      <path class="cls-3" d="M43,31.77c2.32.61,7.46,2.29,12,7,5.68,5.9,6.75,12.74,7,15"/>
      <path d="M41,32.77c9.23,3.66,15.78,13.08,16,23-.94-9.79-7.14-18.72-16-23h0Z"/>
      <path d="M41,34.77c5.51,4.54,9.46,11.03,11,18-2.22-6.79-5.96-12.94-11-18h0Z"/>
      <path class="cls-1" d="M23.14,42.29c5.07,1.61,10.53,2.55,15.86,2.48-4.05.27-8.15.06-12.15-.65l-3.99-.87.28-.96h0Z"/>
      <circle class="cls-2" cx="41.74" cy="20.33" r="6.76"/>
      <circle class="cls-5" cx="41.96" cy="20.21" r="5.2"/>
      <circle cx="41.57" cy="20.23" r="3.15"/>
      <circle class="cls-2" cx="45.19" cy="17.41" r="2.13"/>
      <path class="cls-4" d="M95.5,70.27c-.86-1.9-1.98-5.05-2-9-.01-2.12.26-11.67,8-17,5.3-3.65,11.08-3.23,13-3-1.6,0-7.83.21-13,5-5.64,5.24-5.92,12.17-6,14-.19,4.55,1.14,8.11,2,10h-2Z"/>
      <path class="cls-4" d="M130.5,73.27c.73,3.2,1.28,7.29,1,12-.7,11.69-6.1,20.12-9,24,2.25-4.48,4.67-10.55,6-18,.65-3.65.93-7.01,1-10,.39-1,.8-2.36,1-4,.19-1.59.13-2.96,0-4Z"/>
    </g>
  </g>
</svg>