<?xml version="1.0" encoding="UTF-8"?>
<svg id="Layer_2" data-name="Layer 2" xmlns="http://www.w3.org/2000/svg" viewBox="0 0 155.14 141.4">
  <defs>
    <style>
      .cls-1 {
        fill: none;
      }

      .cls-1, .cls-2, .cls-3, .cls-4, .cls-5 {
        stroke: #000;
        stroke-miterlimit: 10;
      }

      .cls-2, .cls-6 {
        fill: #7c471d;
      }

      .cls-7, .cls-3 {
        fill: #fff;
      }

      .cls-5 {
        fill: #ffe0bc;
      }

      .cls-8 {
        fill: #333;
      }
    </style>
  </defs>
  <g id="Layer_1-2" data-name="Layer 1">
    <g>
      <path class="cls-2" d="M24,64.27c.42,2.23.8,5.78,0,10-.59,3.11-1.08,5.66-3,8-3.47,4.22-7.49,2.72-10,7-1.26,2.14-1.92,5.38-1,6,.29.19.69.11,1,0,.16,1.53.94,2.72,2,3,.23.06.56.1,1,0,.17.36.49.87,1,1,.74.18,1.48-.53,2-1,0,0,.57-.52,4-3,2.05-1.48,3.98-2.22,6-3,1.27-.49,2.3-.8,3-1,5.52-1.59,19.72-4.72,21-5"/>
      <path class="cls-2" d="M23,43.27c-1.72-.6-6.15-2.42-9-7-3.02-4.86-2.4-9.83-2-13,.23-1.81,1.46-11.61,10-18C30.53-1.11,40.25.49,45,1.27c4.19.69,12.56,2.06,18,9,4.13,5.26,4.67,11.37,5,15,.96,10.73-3.19,17.78,0,20,1.18.83,2.69.5,5,0,5.9-1.28,9.77-4.9,11-6,0,0,7.72-7.23,21-9,12.79-1.71,22.97,5.25,27,8,13.86,9.47,18.35,23.56,20,29,1.33,4.4,6.19,21.36-2,40-7.68,17.49-23.31,28.41-38,32-11.86,2.9-26.14,1.76-27-2-.46-2,4.25-3.75,17-12,10.46-6.77,15.69-10.16,19-14,3.9-4.53,8.87-13.19,8-30-16.23.93-29.18,2.63-38,4-10.5,1.64-14.68,2.75-23,3-12.82.39-23.68.72-32-5-15.79-10.86-13.3-37.2-13-40Z"/>
      <path class="cls-5" d="M12,24.27c.56-.61,1.55-1.52,3-2,4.86-1.6,7.95,4,15,4,3.84,0,4.34-1.66,8-1,3.31.6,4.26,2.21,7,2,2.72-.21,3.2-1.9,6-3,4.34-1.71,10.97-.73,13,3,1.96,3.59-1.04,8.44-2,10-4.14,6.71-11.65,8.53-14,9,.61,1.69,1.38,4.07,2,7,.59,2.81,1.16,5.52,1,9-.23,4.9-1.77,6.57-2,9-.35,3.59,2.18,9.07,16,17,3.7-4.66,9.52-10.35,18-14,4.2-1.81,9.4-4.05,16-3,7.67,1.22,15.7,6.65,15,10-.63,3.02-7.93,2.18-29,5-21.09,2.82-27.3,5.48-38,2-2.9-.94-8.11-2.69-13-7-14.38-12.67-11.48-34.75-11-38-1.22-.38-5.95-2.02-9-7-3.32-5.42-2.25-10.86-2-12Z"/>
      <g>
        <path class="cls-6" d="M114,42.27c-1.67-.23-4.74-.4-8,1-6.05,2.6-8.17,8.65-9,11-.61,1.74-3.6,10.97,2,19,2.99,4.29,7.04,6.22,9,7-1.84-.25-5.24-.46-9,1-4.86,1.89-6.78,5.19-7,6-.15.56,0,1,0,1,.2.58.74.88,1,1-.4,1.24.07,2.5,1,3,.89.48,1.86.06,2,0,.02.08.49,1.59,2,2,1.09.3,2.27-.1,3-1,.36.73.98,1.68,2,2,1.64.51,3.15-.95,5-2,3.74-2.13,5.32-.61,10-2,5.68-1.69,9.79-6.67,10-7,2.87-4.61,2.26-9.46,2-11"/>
        <path d="M114,42.27c-10.15-1.33-16.38,7.02-17.7,16.21-1.6,9.06,3.17,18.12,11.87,21.36,0,0,3.66,1.43,3.66,1.43l-3.9-.53c-4.7-.64-9.77.57-13.32,3.78-.91.95-2.14,2.03-2.2,3.4,0,.06.02.14.03.19,0-.02.02.05-.02-.06l.02.05c.12.43.7.73,1.13.91-.86,2.06.6,3.8,2.7,2.63.44,2.18,2.84,3.11,4.38,1.34,0,0,.43-.54.43-.54.73,1.81,2.02,3.22,4.03,2.08,1.47-.79,2.95-2,4.75-2.5,1.81-.56,3.64-.31,5.35-.53,5.14-.62,10.06-3.81,13.02-7.99,1.74-3.06,2.27-6.74,1.75-10.24,1.45,8.21-2.36,13.68-9.53,17.35-1.62.8-3.37,1.32-5.17,1.55-1.8.24-3.6.05-5.2.59-3.41,1.08-6.83,5.83-9.49.71,0,0,.73.08.73.08-.75.94-2.03,1.45-3.23,1.21-1.22-.23-2.16-1.19-2.55-2.36,0,0,.62.29.62.29-.5.21-1.03.31-1.59.25-1.76-.19-2.61-2.31-2.05-3.81,0,0,.25.57.25.57-2.87-1.36-.48-4.39,1.15-5.89,3.74-3.46,9.16-4.7,14.11-4,0,0-.24.9-.24.9-9.1-3.48-14.02-12.87-12.19-22.34,1.49-9.34,8.04-17.81,18.36-16.1h0Z"/>
      </g>
      <circle class="cls-3" cx="20.64" cy="18.87" r="6.79"/>
      <circle class="cls-8" cx="20.86" cy="18.75" r="5.22"/>
      <circle cx="20.47" cy="18.76" r="3.17"/>
      <circle class="cls-7" cx="24.24" cy="16.09" r="2.14"/>
      <path d="M92.53,89.11c.93-2.39,3.06-4.18,5.47-4.84-2.2.94-3.97,2.85-4.53,5.16,0,0-.95-.32-.95-.32h0Z"/>
      <path d="M95.55,92.05c1.77-3.29,4.9-5.74,8.45-6.78-3.34,1.32-6.15,3.93-7.55,7.22,0,0-.9-.44-.9-.44h0Z"/>
      <path d="M100.54,93.08c1.48-3.33,4.86-5.66,8.46-5.81-3.43.48-6.45,2.94-7.54,6.19,0,0-.93-.37-.93-.37h0Z"/>
      <g>
        <path class="cls-6" d="M52,65.27c-1.92,3.63-3.18,6.75-4,9-2.31,6.34-2.28,9.13-5,11-2.1,1.45-2.7.18-7,2-1.86.79-5.88,2.56-7,6-.06.2-.8,2.46,0,3,.28.19.68.12,1,0-.02.17-.22,1.78,1,3s2.83,1.02,3,1c.19.29.5.7,1,1,2.22,1.36,5.67-.73,8-2,5.63-3.07,3.14-.49,15-6,6.17-2.87,9.29-4.33,11-6,4.02-3.93,5.43-8.86,6-12"/>
        <path d="M52,65.27c-1.6,3.23-3,6.54-4.12,9.95-.89,2.56-1.41,5.23-2.53,7.73-.8,1.69-2.34,3.19-4.28,3.46-.94.11-1.77.18-2.62.42-4.04,1.25-9.87,3.96-9.26,8.96.13.21.4.09.64.02,0,0,.72-.26.72-.26l-.09.77c-.3,2.13,1.71,3.88,3.78,3.4,1.07,2.12,3.66,1.54,5.47.69,1.94-.86,3.78-2.1,5.88-2.93,2.12-.76,4.18-1.14,6.23-2.02,4.03-1.62,8.02-3.45,11.94-5.3,1.93-.97,3.94-1.91,5.41-3.46,3.09-3.04,4.94-7.18,5.81-11.44-.65,4.31-2.4,8.55-5.45,11.79-1.53,1.67-3.57,2.67-5.49,3.69-3.93,1.95-7.84,3.89-11.91,5.54-1.97.87-4.23,1.34-6.21,2.06-1.97.79-3.78,2.03-5.82,2.96-2,1-5.16,1.57-6.53-.77,0,0,.49.22.49.22-1.88.25-3.82-.9-4.37-2.73-.18-.59-.25-1.19-.17-1.83l.62.51c-1.57.61-2.2-.75-1.95-2.06.64-4.96,5.79-7.34,10.06-8.59,1.74-.46,3.55-.09,4.96-1.4,2.64-2.34,2.87-6.45,4.26-9.58,1.25-3.39,2.75-6.68,4.51-9.82h0Z"/>
      </g>
      <path d="M29.53,96.11c.93-2.39,3.06-4.18,5.47-4.84-2.2.94-3.97,2.85-4.53,5.16,0,0-.95-.32-.95-.32h0Z"/>
      <path d="M33.51,100.34c-.18-4.3,5.19-5.48,8.49-6.08-2.79.78-7.93,2.3-7.51,5.92,0,0-.99.15-.99.15h0Z"/>
      <path d="M10.51,95.19c.61-3.03,2.74-5.63,5.49-6.92-2.49,1.53-4.25,4.19-4.51,7.08,0,0-.99-.16-.99-.16h0Z"/>
      <path d="M13.51,98.17c.9-3.97,3.85-7.25,7.49-8.9-3.38,1.9-5.97,5.25-6.51,9.1,0,0-.98-.19-.98-.19h0Z"/>
      <path class="cls-2" d="M18,9.27c-1.82-.57-3.76-.21-5,1-1.71,1.67-1.85,4.76,0,7"/>
      <path class="cls-2" d="M62,13.27c1.46-2.47,4.61-3.32,7-2,2.54,1.4,3.14,4.66,2,7-1.04,2.15-3.48,3.4-6,3"/>
      <path class="cls-1" d="M62,19.27c.11-.44.55-1.92,2-3,1.73-1.29,3.62-1.05,4-1"/>
      <ellipse class="cls-4" cx="29.5" cy="25.77" rx="5.5" ry="3.5"/>
      <path d="M18,30.27c1.19,4.17,6.52,6.59,9.51,2.8.79-1.03,1.09-2.46.99-3.75l.99-.05c-.02,1.27.34,2.58,1.03,3.66,1.39,2.25,4.19,3.38,6.79,2.96,1.33-.18,2.6-.78,3.68-1.63-4.43,4.77-12.65,1.6-12.5-5.01,0,0,.99-.05.99-.05.48,8.13-10.13,8.69-11.5,1.05h0Z"/>
      <path d="M19,29.27c-6.59.91-12.81,2.56-19,5,5.52-3.68,12.39-5.49,19-5h0Z"/>
      <path d="M20,31.27c-5.99.78-11.36,3.14-16,7,3.56-4.87,10-7.69,16-7h0Z"/>
      <path d="M22,32.27c-8.89,3.37-16.14,10.31-20,19,.3-1.16.73-2.28,1.19-3.39,3.38-7.74,10.53-13.82,18.81-15.61h0Z"/>
      <path d="M21,34.27c-5.25,3.98-9.26,9-12,15,1.35-6.44,6.01-12.27,12-15h0Z"/>
      <path d="M24,35.27c-5.12,5.08-8.81,11.13-11,18,.77-7.16,4.98-14.04,11-18h0Z"/>
      <path d="M41,30.27c5.76-1.87,12.67-.23,17,4-5.23-3.05-10.96-4.42-17-4h0Z"/>
      <path d="M43,32.27c10.41,1.81,18.68,11.46,19,22-.26-1.27-.55-2.52-.96-3.73-2.6-8.6-9.53-15.46-18.04-18.27h0Z"/>
      <path d="M41,33.27c9.41,3.33,16.15,13.02,16,23-.2-1.22-.41-2.42-.74-3.59-2.03-8.28-7.77-15.39-15.26-19.41h0Z"/>
      <path d="M41,35.27c5.74,4.27,9.82,10.94,11,18-2.57-6.7-6.2-12.67-11-18h0Z"/>
      <path class="cls-1" d="M23,43.27c1.25.37,2.59.71,4,1,4.47.92,8.55,1.12,12,1"/>
      <circle class="cls-3" cx="41.74" cy="20.83" r="6.76"/>
      <circle class="cls-8" cx="41.96" cy="20.71" r="5.2"/>
      <circle cx="41.57" cy="20.73" r="3.15"/>
      <circle class="cls-7" cx="45.19" cy="17.91" r="2.13"/>
    </g>
  </g>
</svg>