<?xml version="1.0" encoding="UTF-8"?>
<svg id="Layer_2" data-name="Layer 2" xmlns="http://www.w3.org/2000/svg" viewBox="0 0 114.1 72.12">
  <defs>
    <style>
      .cls-1 {
        fill: #fff;
      }

      .cls-2 {
        fill: #d75327;
      }

      .cls-3 {
        fill: none;
        stroke: #bf3f1d;
        stroke-miterlimit: 10;
      }

      .cls-4 {
        fill: #333;
      }
    </style>
  </defs>
  <g id="Layer_1-2" data-name="Layer 1">
    <g>
      <path class="cls-2" d="M99.23,43.12c-5.68-1.19-10.07-2.79-13-4-18.06-7.48-24.18-18.64-38-19-3.46-.09-6.28.52-8,1-.15-.54-.63-1.94-2-3-2.13-1.65-4.65-1.08-5-1-.96-.88-4.1-3.56-9-4-4.5-.4-7.83,1.32-9,2-1.17-.04-4.16.03-7,2-4.89,3.39-5,9.38-5,10-.53.34-2.34,1.61-3,4-1.05,3.82,1.86,6.86,2,7-.14.52-.37,1.65,0,3,.47,1.71,1.59,2.68,2,3,.17.5.47,1.22,1,2,.55.82,1.05,1.56,2,2,.22.1,1.82.85,3,0,.83-.6.96-1.63,1-2,.19-1.58-.79-2.75-1-3v-2c.09-.03.76-.29,1-1,.15-.46.05-.85,0-1,.54.07,1.22.1,2,0,1.34-.17,2.36-.64,3-1,.5.35,1.17.73,2,1,2.19.72,4.13.27,5,0,.71.91,1.68,1.98,3,3,2.26,1.75,4.51,2.59,6,3,.82.72,2.18,1.85,4,3,2.17,1.38,9.93,5.94,20,5,1.74-.16,4.61-.46,8-2,2.76-1.26,4.74-2.84,6-4,3.33.67,6.67,1.33,10,2-1.67-1-3.33-2-5-3,2.03.51,4.76,1,8,1,2.09,0,4.86-.2,8-1-1.67-.67-3.33-1.33-5-2,1.78.12,3.79.14,6,0,2.64-.17,5-.55,7-1Z"/>
      <path class="cls-2" d="M70.23,46.12c.36.81.98,1.92,2,3,3.86,4.08,9.83,3.75,11.52,3.66,9.05-.5,14.44-7.92,14.73-8.33,4.75-6.76,3.44-14.33,2.74-18.32-1.85-10.65-8.92-18.05-15.17-21.73-5.45-3.21-8.93-2.81-9.71-2.69-3.55.51-8.19,2.91-9.2,7.25-.62,2.67.08,6.25,2.4,7.86,1.75,1.21,3.64,1.01,3.64,1.01.34-.04,1.2-.13,2.04-.69,2.29-1.51,2.26-4.92,2-5-.22-.07-.63,2.25-1.82,2.39-.9.11-2.14-1.05-2.18-2.39-.02-.72.29-1.58,1-2,1.13-.67,2.68.13,3.4,1.08.8,1.05.61,2.31.54,2.77-.27,1.78-1.55,2.83-1.95,3.15-1.57,1.29-3.99,1.9-5.81,1.23-3.69-1.36-5.29-8.17-3.04-12.61C69.96.66,76.87.08,77.46.03c10.64-.75,20.95,11.05,24.77,22.08,1.48,4.29,5.13,14.84-1,24-6.3,9.41-17.94,9.89-19.7,9.96-2.72.11-7.52.31-11.3-2.96-1.58-1.37-2.49-2.92-3-4,.33-.33.67-.67,1-1,.67-.67,1.33-1.33,2-2Z"/>
      <path class="cls-2" d="M68.23,48.12c.05,1.23.25,3.02,1,5,2.41,6.4,8.32,9.2,10,10,.81.39,9.95,4.54,19,0,7.64-3.84,10.12-11.31,12-17,.68-2.06,5.17-16.32-2-29-1.47-2.6-3.62-6.29-8-8-3.75-1.47-9.61-1.68-13,2-1.99,2.16-3.39,5.94-2,9,.18.39,1.01,2.22,3,3,2.22.87,4.98.09,7-2-.91.79-2.24.75-3,0-.88-.87-.55-2.25,0-3,.06-.09.84-1.11,2-1,1.12.11,1.81,1.19,2,2,.31,1.31-.55,2.42-1,3-1.03,1.33-2.43,1.83-3,2-2.47.72-5.51-.22-7-2-2.87-3.45-.63-10.92,4-14,5.41-3.6,12.59-.2,13,0,10.58,5.19,13.58,22.43,11,35-1.01,4.92-3.36,16.39-14,22-10.89,5.75-22.04.9-24,0-2.76-1.27-7.81-3.6-10-9-.96-2.36-1.06-4.55-1-6l2-1,2-1Z"/>
      <path class="cls-2" d="M60.23,52.12c.69,1.41,1.4,3.08,2,5,.45,1.43.77,2.78,1,4,.67.8,1.6,2.15,2,4,.6,2.81-.21,5.94-1,6-.79.06-1.7-2.93-2-5-.24-1.65-.13-3.05,0-4-.67-.96-1.34-1.96-2-3-1.53-2.41-2.86-4.76-4-7h4Z"/>
      <path class="cls-2" d="M54.23,52.12c.55,1.37,1.32,3.88,1,7-.17,1.64-.59,2.99-1,4-.3,1.47-.86,3.6-2,6-.6,1.27-1.48,3.13-2,3-.59-.15-.6-2.8,0-5,.49-1.81,1.35-3.15,2-4-.39-1.12-.76-2.47-1-4-.44-2.8-.27-5.22,0-7h3Z"/>
      <path class="cls-2" d="M50.49,52.88c.28,1.35.58,3.77-.23,6.58-.42,1.47-1.03,2.64-1.57,3.5-.51,1.29-1.38,3.15-2.81,5.17-.76,1.07-1.87,2.63-2.32,2.42-.51-.23-.09-2.66.82-4.58.75-1.58,1.75-2.67,2.49-3.34-.18-1.09-.29-2.38-.26-3.83.06-2.64.6-4.83,1.14-6.41l1.83.33.92.16Z"/>
      <path class="cls-2" d="M47.39,52.19c-.29,1.34-1.01,3.68-2.88,5.92-.98,1.17-2.02,2-2.86,2.56-1,.97-2.54,2.32-4.67,3.58-1.13.67-2.78,1.64-3.11,1.27-.38-.42,1-2.47,2.61-3.85,1.32-1.14,2.69-1.72,3.63-2.04.32-1.1.74-2.31,1.32-3.6.88-1.98,1.88-3.61,2.8-4.9.54-.01,1.45.04,2.39.55.31.16.56.35.77.52Z"/>
      <path class="cls-3" d="M32.23,45.12c.37-.9.83-2.28,1-4,.32-3.34-.71-5.61-1-7-.53-2.56.56-6.59,8-13"/>
      <path class="cls-3" d="M23.23,39.12c-.38-.93-.83-2.3-1-4-.34-3.29.57-5.8,1-7,2.34-6.48,8.73-10.27,10-11"/>
      <path class="cls-3" d="M16.23,38.12c-.75-1.43-1.46-3.1-2-5-2.2-7.74-.26-14.6,1-18"/>
      <path class="cls-3" d="M11.23,39.12c-.97-.82-1.99-1.81-3-3-2.75-3.24-4.2-6.57-5-9"/>
      <path class="cls-3" d="M10.23,41.12c-1.11-.16-2.49-.45-4-1-1.66-.61-3-1.35-4-2"/>
      <path class="cls-3" d="M10.23,43.12c-.66.35-1.68.79-3,1-1.24.2-2.29.11-3,0"/>
      <path class="cls-2" d="M7.23,48.12c-.37,1.17-.82,2.88-1,5-.25,2.93-.46,5.25,1,7,.4.49,1.53,1.65,4,2,.38.55,1.63,2.21,4,3,.63.21,2.63.79,5,0,.98,1.42,2.51,2.18,4,2,.28-.03,1.49-.19,2-1,.78-1.25-.27-3.82-3-6,.5-.14,1.25-.42,2-1,.44-.34.77-.7,1-1,.71.19,2.22.5,4,0,1.13-.32,1.84-.52,2-1,.63-1.87-7.54-6.22-9-7-2.88-1.53-6.89-3.41-12-5,.36,1.12-.05,2.34-1,3-.89.62-2.09.62-3,0Z"/>
      <path class="cls-3" d="M11.23,45.12c.74.71,1.79,1.73,3,3,2.19,2.29,4.07,4.25,6,7,.83,1.18,1.91,2.86,3,5"/>
      <path class="cls-3" d="M8.23,49.12c.22,1.53.54,3.21,1,5,.59,2.27,1.29,4.27,2,6"/>
      <path class="cls-3" d="M10.23,49.12c.64,2.04,1.58,4.44,3,7,2.26,4.07,4.9,7.02,7,9"/>
      <path class="cls-3" d="M12.23,49.12c.68,1.78,1.64,3.84,3,6,2.31,3.67,4.94,6.27,7,8"/>
      <path class="cls-3" d="M14.23,50.12c1.6,1.7,3.31,3.69,5,6,2.08,2.84,3.72,5.56,5,8"/>
      <path class="cls-3" d="M15.23,48.12l6,3,8,4"/>
      <path class="cls-3" d="M18.23,51.12c.82.65,1.82,1.35,3,2,1.86,1.03,3.6,1.63,5,2"/>
      <path class="cls-3" d="M21.23,55.12c.23.31.56.67,1,1,1.17.87,2.43.99,3,1"/>
      <circle class="cls-1" cx="70.95" cy="28.71" r="6.77"/>
      <circle class="cls-4" cx="71.15" cy="28.56" r="5.21"/>
      <circle cx="70.77" cy="28.62" r="3.16"/>
      <circle class="cls-1" cx="74.14" cy="25.48" r="2.14"/>
      <circle class="cls-1" cx="57.96" cy="31.83" r="7.21"/>
      <circle class="cls-4" cx="58.17" cy="31.67" r="5.55"/>
      <circle cx="57.76" cy="31.73" r="3.37"/>
      <circle class="cls-1" cx="61.35" cy="28.39" r="2.27"/>
    </g>
  </g>
</svg>