<?xml version="1.0" encoding="UTF-8"?>
<svg id="Layer_2" data-name="Layer 2" xmlns="http://www.w3.org/2000/svg" viewBox="0 0 255.53 211.47">
  <defs>
    <style>
      .cls-1 {
        fill: #fff;
      }

      .cls-2 {
        fill: #e7e5ed;
      }

      .cls-3 {
        fill: none;
      }

      .cls-4 {
        fill: #febf31;
      }

      .cls-5 {
        fill: #333;
      }

      .cls-6 {
        fill: #ffb91a;
      }

      .cls-7 {
        fill: #fffdf7;
      }

      .cls-8 {
        fill: #ebeded;
      }
    </style>
  </defs>
  <g id="Layer_1-2" data-name="Layer 1">
    <g>
      <path class="cls-8" d="M61.05,145.21c8.3-17.82,17.74-30.56,25-39,14.59-16.97,37.89-36.96,43-33,.66.51.9,1.34,1,2,6.35-5.66,12.32-7.96,16-9,3.04-.86,10.98-3.1,13,0,1.56,2.4-1.19,6.78-2,8,1.22-1.04,4.8-3.83,10-4,2.55-.08,4.63.49,6,1"/>
      <path class="cls-7" d="M57.05,54.21c-2.61,1.49-9.75,5.12-19,4-10.68-1.3-21.06-8.56-24-18C8.91,23.75,26.96,2.53,46.05.21c22.23-2.7,37.59,21.24,40,25,17.85,27.83,4.68,60.41,4,62-6.63,15.55-19,29-19,29-9.2,10-21.1,18.92-19,26,.12.42.59,1.98,2,3,3.82,2.75,10.87-1.2,14-3,7.98-4.59,12.72-10.45,14-12,2.27-2.75,12.51-10.83,33-27,17.8-14.04,21.67-16.28,25-18,11.26-5.81,10.88-2.91,23-9,12.99-6.53,21.11-13.73,31-12,1.66.29,3.1.78,4,2,3.93,5.33-7.01,18.8-8,20,3.16-1.18,7.97-2.62,14-3,4.33-.27,6.9-.42,8,1,2.76,3.58-5.83,14.34-8,17,7.96-4.13,15.8-4.73,20-1,.59.53,1.71,1.52,2,3,.94,4.84-7.59,11.43-21,17,3.96,1.38,4.79,3.38,5,4,1.29,3.86-3.09,10.11-12,14,18.09-5.68,22.77-4.03,24-2,.69,1.14.65,2.97-1,6,9.77-7.44,15.44-10.44,17-9,1.12,1.04.12,4.37-3,10,1.25-.94,14.52-10.73,19-7,2.93,2.44.76,9.53,0,12-7.56,24.7-49.05,43.15-51,44,0,0-74.98,32.56-155,13-16.52-4.04-30.99-9.89-38-23-5.39-10.07-4.53-20.98-4-25,1.49-11.34,7.07-18.87,14-28,9.98-13.14,13.51-12.2,27-28,14.92-17.47,15.96-24.88,16-29,.08-7.8-3.33-14.11-6-18Z"/>
      <path class="cls-1" d="M33.05,47.21c-.26-2.07-.98-5.06-3-8-1.35-1.97-3.81-5.55-8-6-2.48-.27-4.4.69-5,1-.61.31-4.67,2.5-5,7-.3,4.04,2.64,6.69,3,7"/>
      <path class="cls-4" d="M35.05,48.21c1.44,1.06,1.43,2.42,3,3,1.57.58,2.67-.36,3,0,.97,1.07-6.32,12.1-19,20-5.85,3.64-17.53,9.55-21,6-1.26-1.29-1.05-3.43-1-4,.42-4.42,5.13-4.73,9-10,1.72-2.33,3.14-6.56,6-15,.76-2.23,1.6-4.9,4-6,1.5-.69,3.42-.69,5,0,2.84,1.24,2.28,3.73,5,5,2.52,1.18,3.96-.51,6,1Z"/>
      <path class="cls-2" d="M119.05,159.21c6.32-2.73,17.77-5.61,23.04.24,2.68,3.41,1.48,8.6-1.38,11.5-2.83,3.01-6.76,4.61-10.66,5.26,3.77-1.04,7.51-2.8,10.09-5.78,2.47-2.73,3.59-7.34,1.17-10.36-4.72-5.4-16.19-2.77-22.26-.86h0Z"/>
      <path class="cls-2" d="M134.05,175.21c11.73,12.29-11.95,17.29-20.61,18.13-11.69,1.44-23.8.1-34.62-4.63-7.21-3.07-13.86-7.38-19.77-12.5,6.16,4.79,12.85,8.9,20.06,11.79,7.19,2.9,14.86,4.66,22.61,4.85,8.81.63,45.59-2.45,32.33-17.64h0Z"/>
      <path class="cls-2" d="M147.05,129.21c7.24-6.26,24.78-7.8,22.68,5.95-.99,6.08-5.39,11.17-10.68,14.05,4.89-3.34,8.86-8.29,9.78-14.19,1.88-12.79-14.82-10.73-21.78-5.81h0Z"/>
      <path class="cls-2" d="M163.05,146.21c8.82-2.9,17.99,3.29,12.64,12.74-3.87,7.26-11.45,11.56-19.64,11.26,7.81-.48,15.16-4.7,18.77-11.74,5.19-8.8-3.63-14.16-11.77-12.26h0Z"/>
      <path class="cls-2" d="M205.05,120.21c-5.48,1.05-10.67,2.36-16,4,4.74-2.91,10.45-4.34,16-4h0Z"/>
      <path class="cls-2" d="M200.05,137.21c-5.62,2.99-11.74,4.92-18,6,5.87-2.4,11.91-4.3,18-6h0Z"/>
      <path class="cls-2" d="M221.05,142.21c-8.31,9.67-19.69,16.72-32,20,1.47-.6,2.95-1.19,4.39-1.85,10.18-4.4,19.49-10.61,27.61-18.15h0Z"/>
      <path class="cls-2" d="M206.05,154.21c3.39-.58,8.58-1.28,10.5,2.37.88,2.23.09,4.83-1.25,6.7-3.9,4.71-9.58,7.46-14.84,10.35-5.38,2.71-10.89,5.15-16.47,7.4-5.58,2.23-11.23,4.31-16.95,6.17,10.98-4.48,22.44-9.05,32.96-14.46,5.19-2.76,10.75-5.47,14.69-9.93,1.25-1.65,2.05-4.01,1.34-6.02-1.75-3.43-6.71-2.9-9.98-2.59h0Z"/>
      <path class="cls-2" d="M162.05,180.21c13.91,8.81-11.58,11.53-17.35,12.58-4.95.76-9.92,1.47-14.9,2.08-12.44,1.63-25.29,1.93-37.45-1.57-12.13-3.28-23.52-9.26-33.29-17.09,8.06,5.92,16.92,10.78,26.36,14.07,9.41,3.33,19.35,5.08,29.34,4.77,9.98-.16,19.91-1.73,29.83-3.02,5.59-1.01,30.84-2.95,17.46-11.82h0Z"/>
      <path class="cls-2" d="M166.05,80.21c5.52.07,5.86,4.58,3.69,8.61-1.85,3.42-4.6,6.19-7.69,8.39,1.29-1.39,2.54-2.79,3.71-4.25,3.01-3.73,7.93-11.3.29-12.75h0Z"/>
      <path class="cls-2" d="M164.05,100.21c17.13-6.5,20.99,1.98,11.27,15.84-2.14,2.98-4.58,5.71-7.27,8.16l1.77-2.07c4.22-5.33,8.84-11.22,9.72-18.11.52-7.99-10.81-4.94-15.49-3.82h0Z"/>
      <path class="cls-2" d="M204.05,101.21c-3.07,1.97-6.42,3.31-10,4,3.07-1.97,6.42-3.3,10-4h0Z"/>
      <path class="cls-3" d="M57.05,54.21c1-.28,2.49-.83,4-2,.88-.68,1.53-1.4,2-2"/>
      <ellipse class="cls-6" cx="19.48" cy="56.8" rx="4" ry="1.29" transform="translate(-37.9 39.1) rotate(-53.93)"/>
      <circle class="cls-1" cx="45.53" cy="30.24" r="12.01"/>
      <circle class="cls-5" cx="45.89" cy="29.98" r="9.25"/>
      <circle cx="45.21" cy="30.08" r="5.61"/>
      <circle class="cls-1" cx="51.19" cy="24.52" r="3.79"/>
    </g>
  </g>
</svg>