<?xml version="1.0" encoding="UTF-8"?>
<svg id="Layer_2" data-name="Layer 2" xmlns="http://www.w3.org/2000/svg" viewBox="0 0 262.87 126.13">
  <defs>
    <style>
      .cls-1 {
        fill: #009a53;
      }

      .cls-2 {
        fill: #ff4a3f;
      }

      .cls-3 {
        fill: #ffe7bc;
      }

      .cls-4 {
        fill: #fff;
      }

      .cls-5 {
        fill: #333;
      }

      .cls-6 {
        fill: #3f2200;
      }

      .cls-7 {
        fill: #ffbc3f;
      }

      .cls-8 {
        fill: #00aa6b;
      }

      .cls-9 {
        fill: #9c8071;
      }
    </style>
  </defs>
  <g id="Layer_1-2" data-name="Layer 1">
    <g>
      <path class="cls-8" d="M40.89,55.83c.11-1.89.37-8.67-3.56-20.47-4.2-12.59-13.09-30.59-17.8-29.37-3.1.81-.53,8.94-4.45,23.14C10.48,45.8,3.5,47.07.84,61.17c-2.81,14.91,2.04,29.19,5.34,29.37,2.64.14,2.77-8.82,9.79-13.35,5.92-3.82,13.54-2.44,18.69-.89,2.29-3.95,5.7-11.08,6.23-20.47Z"/>
      <path class="cls-8" d="M166.36,14.89C157.74,3.57,143.88-2,130.77.65c-14.63,2.95-21.93,14.86-23.14,16.91,2.88,2.39,8.28,6.2,16.02,8.01,4.58,1.07,8.61,1.11,11.57.89"/>
      <path class="cls-8" d="M152.13,102.1c-5.05,6.89-8.99,12.39-11.57,16.02-4.07,5.73-5.53,7.88-8.01,8.01-4.77.25-10.25-7.14-8.9-11.57.75-2.44,3.13-2.6,7.12-6.23,3.11-2.83,5.05-5.84,6.23-8.01"/>
      <path class="cls-8" d="M84.49,101.21c-5.82,2.72-10.33,5.29-13.35,7.12-6.56,3.97-9.46,6.46-12.46,5.34-2.31-.86-3.32-3.38-4.45-6.23-1.76-4.43-2.55-10.95,0-12.46,1.06-.63,1.82.12,4.45,0,2.67-.12,4.81-1.01,6.23-1.78"/>
      <path class="cls-3" d="M262.47,14c-3.16-8.46-22.03-9.01-32.04-8.9-58.32.69-99.67,24.03-99.67,24.03-29.28,16.52-34.71,29.22-52.5,27.59-6.59-.61-19.65-3.62-37.38-.89-6.99,1.08-12.03,2.63-13.35,6.23-1.85,5.06,4.59,11.66,7.12,14.24,22.23,22.74,63.18,27.59,63.18,27.59,6.18.73,58.42,6.32,98.78-18.69,11.78-7.3,14.26-12.07,29.37-19.58,11.83-5.88,23.05-9.29,29.37-20.47,2.14-3.79,3.1-7.36,3.56-9.79-.92.97-2.67,2.55-5.34,3.56-1.75.66-3.33.85-4.45.89,2.05-1.21,5.2-3.43,8.01-7.12,2.06-2.71,3.13-5.15,3.56-6.23,1.64-4.08,2.83-9.64,1.78-12.46Z"/>
      <path class="cls-8" d="M35.55,58.5c2.62-.98,6.77-2.33,12.01-3.11,12.01-1.8,24.03.22,24.55.31,4.45.78,8.07,1.83,13.41.91,3.17-.55,5.5-1.54,7.07-2.22,2.91-1.26,4.68-2.48,13.72-9.08,4.26-3.11,3.92-2.88,5.44-3.98,5.84-4.21,10.59-7.44,11.81-8.25,6.75-4.49,12.44-6.81,23.68-11.52,4.66-1.95,8.65-3.63,13.83-5.4,11.82-4.06,22.35-6.11,31-7.35,23.08-3.29,63.84-9.12,69.96,4.74,1.95,4.41.13,10.08-2.67,13.35-7.38,8.62-23.17,2.3-42.27,2.22-11.86-.05-24.7,5.01-50.72,14.24-39.96,14.17-48.46,23.43-62.44,27.38,0,0-5.85,1.43-12.31,1.98-24.03,2.05-47.68-9.7-56.06-14.24Z"/>
      <path class="cls-7" d="M35.1,58.94c-1.28,2.8,9.44,11.81,21.36,16.91,24.67,10.55,49.65,2.3,61.4-1.78,20.94-7.25,16.4-12.12,38.27-19.58,23.85-8.13,44.09-7.42,46.27-16.91.12-.53.72-3.42-.89-5.34-4.57-5.46-21.85,2.71-48.05,14.24-31.11,13.68-46.67,20.52-51.61,21.36-35.8,6.07-64.7-13.37-66.74-8.9Z"/>
      <path class="cls-2" d="M35.1,60.72c-1.66,2.22,5.8,10.22,6.23,10.68,2.79,2.97,9.18,8.8,27.59,13.35,15.69,3.87,26.1,6.44,38.27,2.67,9.64-2.99,10.41-6.88,21.36-11.57,13.24-5.68,15.56-1.11,32.04-5.34,6.08-1.56,24.13-6.83,36.49-22.25,2.24-2.8,4.46-5.62,3.56-7.12-2.01-3.36-17.94,2.78-44.49,13.35-58.61,23.34-62.94,26.05-73.86,24.92-25.74-2.67-44.55-22.19-47.16-18.69Z"/>
      <path class="cls-9" d="M204.46,70.06c-13.9-4.49-23.81-18.76-22.4-33.42.4-4.79,1.75-9.51,4.11-13.67-1.97,4.31-3.11,9-3.34,13.72-.95,14.43,8.45,27.92,21.63,33.37h0Z"/>
      <path class="cls-8" d="M178.82,61.17c-13.7-.09-17.11,2.32-17.8,4.45-1.03,3.19,4.08,5.67,5.34,13.35,1.07,6.54-1.71,10.44,0,11.57,2.6,1.72,10.63-6.21,12.46-8.01,5.68-5.6,9.33-11.17,11.57-15.13"/>
      <path class="cls-6" d="M59.13,58.05c.24-.7,2.53-1.3,3.56,0,.69.88.61,2.33,0,2.67-1.01.57-3.88-1.74-3.56-2.67Z"/>
      <path class="cls-6" d="M69.81,60.72c.13-.59,1.24-.79,1.78-.89,1.87-.34,4.35.09,4.45.89.11.86-2.47,2.43-4.45,1.78-.93-.3-1.92-1.16-1.78-1.78Z"/>
      <path class="cls-6" d="M83.16,60.72c-1.52-.28-2.85,1.18-2.67,1.78.26.87,4.11.94,4.45,0,.2-.54-.7-1.58-1.78-1.78Z"/>
      <path class="cls-6" d="M75.15,65.17c.22-1.09,3.04-1.64,3.56-.89.43.62-.38,2.68-1.78,2.67-1.01,0-1.92-1.08-1.78-1.78Z"/>
      <path class="cls-6" d="M89.39,60.72c-.21-1.12,2.25-3.59,4.45-2.67,1.53.64,2.35,2.66,1.78,3.56-.93,1.46-5.95.54-6.23-.89Z"/>
      <path class="cls-6" d="M86.72,65.17c.26-.65,2.26-.8,2.67,0,.28.55-.18,1.59-.89,1.78-.96.25-2.02-1.18-1.78-1.78Z"/>
      <path class="cls-6" d="M96.51,53.6c.19-.99,2.07-1.49,2.67-.89s.1,2.48-.89,2.67c-.85.16-1.94-.93-1.78-1.78Z"/>
      <path class="cls-6" d="M99.18,59.83c.36-.89,1.65-1.4,2.67-.89.99.5,1.39,1.78.89,2.67-.36.64-1.12.96-1.78.89-1.2-.12-2.23-1.58-1.78-2.67Z"/>
      <path class="cls-6" d="M104.52,53.6c.63-1.23,2.66-1.79,3.56-.89.64.63.61,1.9,0,2.67-.89,1.11-2.91,1-3.56,0-.36-.55-.25-1.3,0-1.78Z"/>
      <path class="cls-6" d="M110.75,46.48c-.38-.68,1.46-3.04,2.67-2.67.62.2,1.08,1.11.89,1.78-.36,1.32-3.19,1.55-3.56.89Z"/>
      <path class="cls-6" d="M112.52,52.71c1.36-.77,3.57.63,3.56,1.78,0,.91-1.41,1.82-2.67,1.78-.18,0-1.32-.05-1.78-.89-.5-.9.05-2.2.89-2.67Z"/>
      <path class="cls-6" d="M117.86,46.48c-.81.31-.81,3.25,0,3.56.53.2,1.78-.56,1.78-1.78s-1.25-1.98-1.78-1.78Z"/>
      <path class="cls-6" d="M118.75,41.14c.27-1.17,3.41-2.11,4.45-.89.75.87.08,2.47,0,2.67-.07.18-.77,1.82-1.78,1.78-.55-.02-.96-.61-1.78-1.78-.65-.93-.98-1.41-.89-1.78Z"/>
      <path class="cls-6" d="M124.09,49.15c-.21-1.58,2.37-3.27,3.56-2.67s1.39,3.68,0,4.45c-1.18.66-3.38-.44-3.56-1.78Z"/>
      <path class="cls-6" d="M127.65,41.14c.51-.93,1.89-1.48,2.67-.89.72.54.75,1.92,0,2.67s-2.12.73-2.67,0c-.4-.53-.26-1.31,0-1.78Z"/>
      <path class="cls-6" d="M130.32,34.02c.19-.19,1.17-1.17,1.78-.89.61.29.81,1.86,0,2.67s-2.38.61-2.67,0c-.28-.61.7-1.59.89-1.78Z"/>
      <path class="cls-6" d="M136.55,40.25c.6,0,1.29,1.19.89,1.78-.34.5-1.44.5-1.78,0-.4-.59.29-1.78.89-1.78Z"/>
      <path class="cls-6" d="M137.44,34.02c.72-1.14,2.5-1.74,3.56-.89,1,.8.98,2.58,0,3.56-.98.98-2.76,1-3.56,0-.62-.77-.46-1.94,0-2.67Z"/>
      <path class="cls-6" d="M141.89,42.03c1.14-.9,3.14-.84,3.56,0,.38.77-.51,2.28-1.78,2.67-1.01.31-2.42-.05-2.67-.89-.2-.69.45-1.44.89-1.78Z"/>
      <circle class="cls-4" cx="226.9" cy="20.76" r="7.96" transform="translate(162.64 239.37) rotate(-78.85)"/>
      <circle class="cls-5" cx="228.1" cy="20.57" r="6.12"/>
      <circle cx="229.66" cy="20.28" r="3.71" transform="translate(166.31 241.97) rotate(-79.1)"/>
      <circle class="cls-4" cx="224.66" cy="19.87" r="3.11"/>
      <path class="cls-1" d="M166.36,67.39c3.67-2.27,8.19-3.24,12.46-2.67-4.27.69-8.28,1.54-12.46,2.67h0Z"/>
      <path class="cls-1" d="M169.03,72.73c3.47-2.5,7.42-4.29,11.57-5.34-3.68,2.19-7.54,3.92-11.57,5.34h0Z"/>
      <path class="cls-1" d="M170.81,82.52c4.61-3.44,8.69-7.23,12.46-11.57-2.73,5.05-7.23,9.21-12.46,11.57h0Z"/>
      <path class="cls-1" d="M170.81,76.29c1.77-1.71,3.85-2.91,6.23-3.56-1.76,1.72-3.85,2.9-6.23,3.56h0Z"/>
      <path class="cls-1" d="M159.24,16.67c-8.21-7.67-20.19-10.66-31.02-7.69-1.56.37-3.07.88-4.57,1.46,11.56-6.2,26.93-3.76,35.6,6.23h0Z"/>
      <path class="cls-1" d="M149.46,20.23c-8.82-5.13-19.3-7.01-29.37-5.34,1.23-.37,2.48-.64,3.75-.87,8.9-1.48,18.43.73,25.62,6.21h0Z"/>
      <path class="cls-1" d="M140.56,23.79c-7.1-1.57-14.13-2.73-21.36-3.56,7.24-.41,14.64.83,21.36,3.56h0Z"/>
      <polygon class="cls-1" points="147.15 103.24 135.22 119.9 146.42 102.74 147.15 103.24 147.15 103.24"/>
      <polygon class="cls-1" points="141.79 104.16 130.77 117.23 141.1 103.6 141.79 104.16 141.79 104.16"/>
      <polygon class="cls-1" points="79.33 100.73 61.36 108.33 78.97 99.92 79.33 100.73 79.33 100.73"/>
      <polygon class="cls-1" points="74.82 98.98 61.36 102.1 74.59 98.11 74.82 98.98 74.82 98.98"/>
      <polygon class="cls-1" points="68.48 97.21 63.14 96.76 68.48 96.32 68.48 97.21 68.48 97.21"/>
      <path class="cls-1" d="M35.11,56.8c-2.34-13.21-6.39-26.13-12.02-38.35,5.9,12.09,10.24,24.95,12.89,38.19l-.87.17h0Z"/>
      <path class="cls-1" d="M30.65,58.52c-.42-9.69-4.06-19.21-10.23-26.72,6.44,7.38,10.4,16.88,11.12,26.67l-.89.05h0Z"/>
      <path class="cls-1" d="M28.02,60.45c-2.59-6.25-6.76-11.87-12.05-16.2,5.47,4.09,9.94,9.58,12.87,15.84l-.81.36h0Z"/>
      <path class="cls-8" d="M23.09,44.26c-.99-1.4-2.16-2.9-3.56-4.45-1.22-1.35-2.42-2.54-3.56-3.56"/>
      <path class="cls-1" d="M27.23,63.27c-4.83-4.95-10.87-8.76-17.49-11,6.7,1.96,12.97,5.53,18.11,10.36l-.62.63h0Z"/>
      <path class="cls-1" d="M25.54,65.12c-6.04-3.72-14.06-3.96-20.25-.38,1.52-.93,3.18-1.67,4.89-2.19,5.22-1.58,11-.82,15.79,1.81l-.44.77h0Z"/>
      <path class="cls-1" d="M27.47,69.62c-6.14-1.16-12.85,1.07-17.01,5.81-1.41,1.57-2.56,3.36-3.39,5.31,3.01-8.18,11.9-13.4,20.54-12l-.14.88h0Z"/>
      <path class="cls-1" d="M26.64,66.06c-7.35-.28-14.75,2.83-19.57,8.45,4.65-5.89,12.08-9.33,19.59-9.34v.89h-.02Z"/>
      <path class="cls-9" d="M197.86,26.04c-3.42,7.27-3.54,16.18.6,23.16,3.12,5.45,8.5,9.4,14.41,11.42-3.56-.76-6.91-2.45-9.81-4.7-9.07-6.96-11.12-20.25-5.19-29.88h0Z"/>
      <path class="cls-6" d="M142.55,28.09c.27-1.06,1.52-1.67,2.49-1.52,1.6.24,2.62,2.51,1.94,3.57-.61.95-2.66,1.01-3.72,0-.06-.06-.98-.96-.71-2.04Z"/>
      <path class="cls-6" d="M149.19,35.08c1.42-1.59,4.48-1.26,4.83-.37.21.54-.57,1.3-.91,1.63-1.43,1.39-3.92,1.92-4.54,1.1-.42-.56.05-1.7.63-2.35Z"/>
      <path class="cls-6" d="M154.06,28.71c.14-.85,1.98-1.53,2.69-.85.61.59.36,2.14-.45,2.5-.92.4-2.37-.82-2.24-1.65Z"/>
      <path class="cls-6" d="M149.8,25.41c0-.68,2.14-1.56,2.68-1,.34.35.17,1.39-.52,1.82-.92.56-2.15-.3-2.16-.82Z"/>
    </g>
  </g>
</svg>