<?xml version="1.0" encoding="UTF-8"?>
<svg id="Layer_2" data-name="Layer 2" xmlns="http://www.w3.org/2000/svg" viewBox="0 0 136 108.2">
  <defs>
    <style>
      .cls-1 {
        fill: #a2af4c;
      }

      .cls-2 {
        fill: #2c461f;
      }

      .cls-3 {
        fill: #fff;
      }

      .cls-4 {
        fill: #4e3a14;
      }

      .cls-5 {
        fill: #14220d;
      }

      .cls-6 {
        fill: none;
      }

      .cls-7 {
        fill: #2a3e1b;
      }

      .cls-8 {
        fill: #8c9d3a;
      }

      .cls-9 {
        fill: #231f20;
      }

      .cls-10 {
        fill: #482c11;
      }

      .cls-11 {
        fill: #333;
      }

      .cls-12 {
        fill: #6a140e;
      }
    </style>
  </defs>
  <g id="Layer_1-2" data-name="Layer 1">
    <g>
      <path class="cls-6" d="M64.76,104c.62-1.25,1.81-2.06,3-2,1.65.08,3.2,1.82,3,4,.51-1.77,1.8-3,3-3,1.57,0,3.44,2.11,3,5-1.47.11-4.06.11-7-1-2.32-.88-3.98-2.11-5-3Z"/>
      <path class="cls-7" d="M28.76,61c5.3.51,21.86,2.19,31-9,4.36-5.34,5.09-11.24,5.5-14.5.25-2.04,1.9-17.37-9.5-28.5C53.86,7.16,46.75.21,35.76,0,25.01-.2,14.34,6.07,9.76,16c-3.09,6.7-2.49,13.05-2,16-1.33,1.27-3.36,3.64-4,7-1.52,8.07,6.39,14.66,8,16,5.81,4.84,12.28,5.55,17,6Z"/>
      <path class="cls-12" d="M16.76,43c2.43,1.86,5.83,3.79,10,4,6.8.34,11.01-4.12,12-3,1.48,1.67-6.2,13.43-11,12-2.16-.64-3.53-3.9-4-5-.86-2.02-1-3.86-1-5"/>
      <path class="cls-5" d="M13.76,44c2.26-.08,3.91-1.74,4-4,.17.53.16,1.12.02,1.67-.37,1.73-2.39,2.86-4.02,2.33h0Z"/>
      <path class="cls-5" d="M38.76,41c-.99,2.1.71,4.35,3,4-.49.27-1.1.33-1.67.19-1.82-.35-2.66-2.88-1.33-4.19h0Z"/>
      <circle class="cls-9" cx="23.76" cy="36" r="1"/>
      <path class="cls-2" d="M128.76,68c.99-.48,2.17-.81,4-2,1.96-1.28,2.6-2.21,3-2,.77.41-.36,4.59-2,8-1.19,2.48-3.47,6.25-8,10-2.06-1.06-2.74-2.32-3-3-1.44-3.7,2.21-9.15,6-11Z"/>
      <circle class="cls-9" cx="30.76" cy="36" r="1"/>
      <path class="cls-10" d="M52.76,58c1.54,3.75,4.47,9.56,10,15,12.32,12.11,27.8,12.84,33,13,11.28.35,24.25-2.84,30-10,1.18-1.47,4.26-5.31,3-8-.51-1.09-1.8-2.11-3-2-1.65.15-2.67,2.36-3,3-3.64,6.97-20.85,8.88-22,9-3.39.35-12.82,1.19-23-4-12.63-6.45-17.68-17.74-19-21-.73.9-1.71,1.96-3,3-1.07.86-2.11,1.51-3,2Z"/>
      <path class="cls-4" d="M64.76,33c2.46-2.01,12.11-9.38,25-8,14.81,1.59,22.98,13.57,26,18,6.87,10.08,7.85,20.32,8,25-.66.78-1.66,1.86-3,3-8.38,7.13-18.98,7.04-24,7-5.1-.04-13.94-.12-23-6-9.86-6.4-13.76-15.62-15-19,1.42-1.48,3.58-4.12,5-8,1.92-5.26,1.39-9.86,1-12Z"/>
      <path class="cls-10" d="M78.76,26c-.47,1.13-1.84,3.95-5,6-3.91,2.54-7.91,2.14-9,2,1.23-1.41,3.18-3.33,6-5,3.14-1.86,6.07-2.64,8-3Z"/>
      <path class="cls-10" d="M82.76,25c-1.31,1.6-2.31,2.99-3,4-.81,1.19-.98,1.53-1,2-.06,1.43,1.38,2.01,3,4,2.19,2.69,1.32,3.77,3,5,.45.33.79.46,6,1,3.92.41,4.8.45,6,0,1.36-.51,2.25-1.32,3-2,1.6-1.45,2.51-3,3-4-.18-.87-.48-1.9-1-3-1.18-2.52-2.89-4.12-4-5-1.98-.78-4.69-1.63-8-2-2.73-.31-5.12-.21-7,0Z"/>
      <path class="cls-10" d="M66.76,37c.34-.36.61-.55,4-2,4.86-2.08,5.36-2.16,6-2,1.54.37,2.44,1.7,4,4,1.13,1.66,1.76,2.6,2,4,.18,1.05.1,2.19-2,7-1.49,3.41-2.24,5.12-3,6-.88,1.01-2.96,3.05-7,4-.66-1.44-1.62-3.18-3-5-1.73-2.27-3.55-3.89-5-5,1.01-1.96,1.62-3.68,2-5,.93-3.22.68-4.58,2-6Z"/>
      <path class="cls-10" d="M85.76,43c3.33.33,6.67.67,10,1,1.48,4,2.41,7.44,3,10,1.1,4.72,1.1,6.67,0,8-.46.56-1.31,1.04-3,2-1.62.92-3.02,1.57-4,2-3.67-3-7.33-6-11-9,1.67-4.67,3.33-9.33,5-14Z"/>
      <path class="cls-10" d="M98.76,43c-.96,3.2,2.51,4.62,3,10,.35,3.8-1.21,4.9,0,7,1.26,2.19,4.33,3.39,7,3,2.03-.29,3.36-1.43,4-2,.32-.28,2.75-2.49,3-6,.1-1.32-.27-2.55-1-5-.69-2.32-1.05-3.53-2-5-.31-.47-1.57-2.37-4-4-1.85-1.24-3.22-2.16-5-2-2.12.19-4.36,1.86-5,4Z"/>
      <path class="cls-10" d="M102.76,30c-.78.47-.24,4.17,2,6,1.45,1.18,2.34.56,4,2,1.6,1.39,1.82,2.87,3,3,.81.09,1.53-.51,2-1-1.15-1.18-2.87-2.92-5-5-5.17-5.03-5.73-5.16-6-5Z"/>
      <path class="cls-10" d="M116.76,43c-.67.33-1.33.67-2,1l3,12c1.67,1,3.33,2,5,3-.54-2.87-1.45-6.3-3-10-.95-2.27-1.98-4.27-3-6Z"/>
      <path class="cls-10" d="M113.76,75c-1.06-.63-.26-2.63-1-7-.28-1.67-.68-3.04-1-4l6-6c1.67,1.33,3.33,2.67,5,4,.33,2,.67,4,1,6-.89,1.11-2.2,2.56-4,4-2.02,1.62-4.7,3.77-6,3Z"/>
      <path class="cls-10" d="M88.76,77c-.22-.91,2.01-1.53,3-4,.72-1.79.42-3.64,0-5,3-1.33,6-2.67,9-4,2.67.67,5.33,1.33,8,2,.43.33,2.56,1.99,3,5,.37,2.53-.67,4.44-1,5-2.7.7-6.84,1.6-12,2-1.63.13-9.6.68-10-1Z"/>
      <path class="cls-10" d="M68.76,67c.67-2,1.33-4,2-6,2.67-.67,5.33-1.33,8-2,2.21,1.31,7.43,4.63,10,9,.52.89.94,1.83,1,3,.15,3.06-2.26,5.34-3,6-2.55-.38-6.66-1.34-11-4-3.26-2-5.53-4.28-7-6Z"/>
      <path class="cls-10" d="M61.76,50c1.19.68,3.42,2.2,5,5,2.8,4.97,1.31,10.03,1,11-1.55-1.57-3.3-3.56-5-6-1.76-2.53-3.06-4.94-4-7l3-3Z"/>
      <path class="cls-8" d="M35.76,61c.37,3.42,1.53,9.8,6,16,6,8.33,14.31,11.32,19,13,6.53,2.35,11.71,2.6,20,3,8.11.39,12.92.63,19-1,3.95-1.06,10.83-3.54,18-10-5.21,2.03-17.61,6-32.5,2.5-5.02-1.18-15.78-3.86-24.5-13.5-4.35-4.81-6.71-9.71-8-13-2.25,1.13-5.67,2.49-10,3-2.72.32-5.1.22-7,0Z"/>
      <path class="cls-1" d="M36.76,68c6.67,1.67,13.56.09,19-4-4.49,5.27-12.75,7.12-19,4h0Z"/>
      <path class="cls-1" d="M41.76,77c7.03,2.17,14.37-.5,19-6-3.44,6.53-12.4,9.69-19,6h0Z"/>
      <path class="cls-1" d="M51.76,86c6.61.35,12.77-3.29,16-9-1.9,6.5-9.39,10.89-16,9h0Z"/>
      <path class="cls-1" d="M86.76,93c.94-2.58,2.38-4.77,4-7-.35,2.77-1.93,5.2-4,7h0Z"/>
      <path class="cls-1" d="M99.76,92c1.29-1.97,1.85-3.65,2-6,1.38,1.99.28,5.23-2,6h0Z"/>
      <path class="cls-2" d="M64.76,105c-.65-1.38-1.64-3.83-2-7-.84-7.52,2.07-17.48,8-19,2.55-.65,4.88.45,6,1,9.72,4.77,9.99,20.56,10,22-.7.91-4,5.03-10,6-6.48,1.04-11.19-2.39-12-3Z"/>
      <path class="cls-2" d="M106.76,85c1.06,1.69,2.49,4.43,3,8,.63,4.44-.66,6.67,1,9,1.48,2.08,4.08,2.51,7,3,2.38.4,7.82,1.3,11-2,1.33-1.38,1.73-2.95,2-4,1.28-4.99-1.15-9.53-3-13-.97-1.81-2.54-4.34-5-7-2,1.3-4.68,2.79-8,4-3.03,1.1-5.77,1.69-8,2Z"/>
      <path class="cls-2" d="M39.76,74c-1.8,2.53-4.09,6.22-6,11-2.21,5.55-3.55,8.89-2,12,2,4.01,7.39,4.77,9,5,5.31.75,11.55-1.25,12-4,.17-1.02-.57-1.45-1-3-.82-2.97.64-5.95,2-8-1.99-.8-5-2.28-8-5-3.22-2.92-5.03-6.02-6-8Z"/>
      <path class="cls-2" d="M94.76,93c.54,3.46-.59,4.65-1,5-.51.44-1.02.53-3,1-1.73.41-3.11.77-4,1-.33-2.33-.67-4.67-1-7h9Z"/>
      <path class="cls-6" d="M31.76,97c.2-.22.94-.99,2-1,1.34-.01,2.69,1.2,3,3,.89-.89,1.71-.98,2-1,1.65-.09,3.43,1.49,4,4-1.23.11-4.72.24-8-2-1.44-.98-2.39-2.12-3-3Z"/>
      <path class="cls-6" d="M110.76,101c.2-.22.94-.99,2-1,1.34-.01,2.69,1.2,3,3,.09-.16,1.17-1.92,3-2,1.84-.08,3.73,1.57,4,4-3.14.64-5.59.31-7,0-2.73-.6-3.66-1.58-4-2-.59-.72-.86-1.48-1-2Z"/>
      <circle class="cls-3" cx="46.43" cy="24.56" r="13.43"/>
      <circle class="cls-11" cx="46.82" cy="24.26" r="10.34"/>
      <circle cx="46.07" cy="24.38" r="6.27"/>
      <circle class="cls-3" cx="52.75" cy="18.16" r="4.23"/>
      <circle class="cls-3" cx="13.43" cy="22.56" r="13.43"/>
      <circle class="cls-11" cx="13.82" cy="22.26" r="10.34"/>
      <circle cx="13.07" cy="22.38" r="6.27"/>
      <circle class="cls-3" cx="19.75" cy="16.16" r="4.23"/>
    </g>
  </g>
</svg>