<?xml version="1.0" encoding="UTF-8"?>
<svg id="Layer_2" data-name="Layer 2" xmlns="http://www.w3.org/2000/svg" xmlns:xlink="http://www.w3.org/1999/xlink" viewBox="0 0 2412.26 1172.96">
  <defs>
    <style>
      .cls-1 {
        fill: #851c24;
      }

      .cls-2 {
        fill: #fff;
      }

      .cls-3 {
        fill: #f0f0f0;
      }

      .cls-4 {
        fill: url(#radial-gradient);
      }

      .cls-5 {
        fill: #231f20;
      }

      .cls-6 {
        fill: #1b1b1a;
      }

      .cls-7 {
        fill: url(#radial-gradient-2);
      }

      .cls-8 {
        font-family: SuperFuntime, 'Super Funtime';
        font-size: 79.26px;
      }

      .cls-9 {
        fill: #414042;
      }

      .cls-10 {
        fill: url(#linear-gradient);
      }
    </style>
    <linearGradient id="linear-gradient" x1="891.29" y1="737.78" x2="1533.11" y2="402.84" gradientUnits="userSpaceOnUse">
      <stop offset="0" stop-color="#84e6e6"/>
      <stop offset=".22" stop-color="#8ce6e6"/>
      <stop offset=".57" stop-color="#a4e6e6"/>
      <stop offset=".82" stop-color="#b9e6e6"/>
    </linearGradient>
    <radialGradient id="radial-gradient" cx="1684.55" cy="451.16" fx="1677.23" fy="451.16" r="22.42" gradientTransform="translate(-1543.98 -1.05) scale(1.61 1.53)" gradientUnits="userSpaceOnUse">
      <stop offset=".33" stop-color="#3c3c3c"/>
      <stop offset=".66" stop-color="#323232"/>
      <stop offset=".9" stop-color="#282828"/>
    </radialGradient>
    <radialGradient id="radial-gradient-2" cx="1742.29" cy="451.16" fx="1742.29" fy="451.16" r="22.49" gradientTransform="translate(-1543.98 -1.05) scale(1.61 1.53)" gradientUnits="userSpaceOnUse">
      <stop offset=".54" stop-color="#3c3c3c"/>
      <stop offset=".75" stop-color="#343434"/>
      <stop offset=".96" stop-color="#282828"/>
    </radialGradient>
  </defs>
  <g id="Layer_1-2" data-name="Layer 1">
    <rect class="cls-2" width="2412.26" height="1172.96"/>
    <g>
      <ellipse class="cls-10" cx="1213.7" cy="569.53" rx="365.87" ry="346.94"/>
      <path class="cls-2" d="M1064.2,507.13c-3.78,4.55-10.42,13.92-11.55,26.77-1.45,16.55,7.11,29.03,10.91,34.57,20.79,30.3,86.44,46.88,151.25,46.93,65.34.05,131.24-16.71,150.06-46.36,10.3-16.23,10.04-32.14,10.04-32.14-.23-14.4-6.53-25.22-10.04-30.36.32-12-.01-56.24-34.25-94.83-43.7-49.25-107.27-49.47-120.16-49.21-13.65.28-68.98,2.28-109.85,45.83-37.99,40.48-36.89,88.51-36.41,98.81Z"/>
      <path class="cls-9" d="M1181.02,510.55c-.11,3-1.08,20.41-15.94,32.89-17.19,14.44-46.87,17.14-63.31,2.24-13.97-12.66-11.71-31.98-11.39-34.38,3.62-27.09,35.58-54.16,62.14-45.83,18.22,5.71,29.19,26.59,28.49,45.09Z"/>
      <path class="cls-9" d="M1246.45,510.55c.11,3,1.08,20.41,15.94,32.89,17.19,14.44,46.87,17.14,63.31,2.24,13.97-12.66,11.71-31.98,11.39-34.38-3.62-27.09-35.58-54.16-62.14-45.83-18.22,5.71-29.19,26.59-28.49,45.09Z"/>
      <ellipse class="cls-2" cx="1153.36" cy="510.63" rx="27.69" ry="26.26"/>
      <ellipse class="cls-2" cx="1274.11" cy="510.63" rx="27.69" ry="26.26"/>
      <path class="cls-5" d="M1202.11,527.96c2.09-5.36,22.27-5.74,24.48-.6,1.49,3.46-3.98,12.11-12.55,11.9-7.95-.19-13.27-7.86-11.93-11.31Z"/>
      <path class="cls-1" d="M1231.44,547.78c-1.07.44-3.31,1.19-6.1.84-1.83-.23-3.11-.84-3.69-1.12-4.58-2.21-6.48-6.88-6.98-8.24-.57,1.46-2.57,6.03-7.22,8.24-1.69.8-3.42,1.14-3.9,1.23-2.76.51-5.08.2-6.48-.09,0,0,0,0,0,0,0,0,9.66,16.6,18.26,16.78,3.77.08,9.22-2.94,16.11-17.64Z"/>
      <path class="cls-3" d="M1214.25,386.89c1.44.15,2.02-8.25,6.7-15.08,3.74-5.46,9.53-8.32,14.23-9.92-2.28-.44-7.25-1.1-12.93.8-8.04,2.69-11.95,8.62-13,10.34-.4-1.97-.92-6.16,1.21-10.54,2.97-6.09,9.85-10.05,17.77-10.42-8.18-3.94-17.78-3.19-24.44,1.89-6.4,4.88-7.49,12.27-7.95,15.48-1.34,9.23,2.66,17.18,3.35,17.06.33-.05-.12-1.94.1-6.45.22-4.24.46-8.3,2.62-12.5,1.15-2.25,2.51-3.88,3.46-4.89-.44,1.49-.81,3.34-.85,5.49-.08,5.49,2.11,9.67,3.43,11.77.7-1.71,1.9-4.09,4-6.51,3.93-4.51,9.1-6.93,9.42-6.55.22.27-2.66,1.76-5.23,5.56-3.61,5.32-3.15,10.05-3.03,11.01.13,1.06.4,3.39,1.15,3.47Z"/>
      <path class="cls-9" d="M1072.84,453.09c3.69-10.05,10.77-25.43,24.41-41.06,13.69-15.68,28.37-25.15,38.11-30.46-.96-1.48-17.69-26.48-45.92-26.23-28.88.26-54.06,26.82-51.79,54.46,1.53,18.66,15.37,35.32,35.19,43.28Z"/>
      <path class="cls-9" d="M1354.44,453.09c-3.69-10.05-10.77-25.43-24.41-41.06-13.69-15.68-28.37-25.15-38.11-30.46.96-1.48,17.69-26.48,45.92-26.23,28.88.26,54.06,26.82,51.79,54.46-1.53,18.66-15.37,35.32-35.19,43.28Z"/>
      <ellipse class="cls-5" cx="1167.48" cy="511.79" rx="11.82" ry="14.19"/>
      <ellipse class="cls-5" cx="1261.32" cy="511.79" rx="11.82" ry="14.19"/>
      <path class="cls-9" d="M1167.59,611.49c-5.23,2.58-18.87,10.17-25.68,25.52-11.25,25.37,6.1,49.57,7.03,50.91,22.42,32.09,107.21,32.55,128.83,2.47,12.74-17.73,6.87-42.23,6.45-43.96-4.62-19.03-17.38-30.27-21.97-33.97-13.58,1.83-29.56,3.12-47.44,2.94-17.83-.19-33.73-1.8-47.23-3.9Z"/>
      <path class="cls-2" d="M1162.19,702.86c-1.67-6.53-4.03-19.97,1.52-35.43,2.4-6.69,6.41-17.79,17.77-25.7,19.59-13.63,52.89-11.52,69.3,3.87,7.87,7.38,10.34,16.34,12.34,23.58,3.95,14.36,1.94,26.62.17,33.57-4,2.07-7.65,3.62-10.73,4.77-38.65,14.53-75.93,1.25-80.67-.52-4.3-1.6-7.66-3.16-9.7-4.16Z"/>
      <path class="cls-9" d="M1281.1,613.04c-17.84-9.37-42.24,13.19-50.97,21.26-7.66,7.08-15.05,14.13-14.09,23.56.93,9.11,9.3,17.07,18.1,19.38,6.89,1.8,16.04-2.22,34.05-10.35,13.61-6.14,20.47-9.29,23.05-13.24,7.93-12.11,2.94-33.74-10.14-40.61Z"/>
      <path class="cls-9" d="M1146.29,612.78c16.96-10.73,43.24,9.84,52.65,17.21,8.25,6.46,16.23,12.9,16.09,22.38-.13,9.15-7.78,17.74-16.35,20.72-6.71,2.34-16.18-.96-34.84-7.66-14.1-5.06-21.21-7.66-24.12-11.39-8.96-11.45-5.86-33.4,6.57-41.26Z"/>
      <ellipse class="cls-4" cx="1169.23" cy="687.99" rx="36.22" ry="34.34"/>
      <ellipse class="cls-7" cx="1262.23" cy="687.99" rx="36.22" ry="34.34"/>
      <ellipse class="cls-2" cx="1240.5" cy="677.46" rx="5.81" ry="6.55" transform="translate(-170.86 601.03) rotate(-25.54)"/>
      <ellipse class="cls-2" cx="1261.34" cy="666.62" rx="5.85" ry="6.5"/>
      <ellipse class="cls-2" cx="1281.64" cy="676.51" rx="6.55" ry="5.81" transform="translate(118.67 1541.24) rotate(-64.46)"/>
      <ellipse class="cls-2" cx="1262.17" cy="701.13" rx="22.95" ry="20.37"/>
      <ellipse class="cls-2" cx="1147.14" cy="677.5" rx="5.81" ry="6.55" transform="translate(-180.01 560.78) rotate(-25.54)"/>
      <ellipse class="cls-2" cx="1167.98" cy="666.67" rx="5.85" ry="6.5"/>
      <ellipse class="cls-2" cx="1188.28" cy="676.55" rx="6.55" ry="5.81" transform="translate(65.52 1457.02) rotate(-64.46)"/>
      <ellipse class="cls-2" cx="1168.81" cy="701.17" rx="22.95" ry="20.37"/>
      <ellipse class="cls-2" cx="1171.04" cy="504.08" rx="5.75" ry="4.46"/>
      <ellipse class="cls-2" cx="1257.03" cy="504.08" rx="5.75" ry="4.46"/>
      <text class="cls-8" transform="translate(1111.83 800.1) scale(1.05 1)"><tspan x="0" y="0">Li-hó !</tspan></text>
      <path class="cls-6" d="M1243.96,625.68c-.5-.85,5.87-5.64,13.39-9.13,6.61-3.06,10.91-5.06,16.32-4.36,10.5,1.34,17.47,11.8,16.53,12.9-.72.84-5.5-4.48-14.23-6.35-16.29-3.49-31.24,8.25-32.01,6.94Z"/>
      <path class="cls-6" d="M1185.84,624.98c.5-.85-5.87-5.64-13.39-9.13-6.61-3.06-10.91-5.06-16.32-4.36-10.5,1.34-17.47,11.8-16.53,12.9.72.84,5.5-4.48,14.23-6.35,16.29-3.49,31.24,8.25,32.01,6.94Z"/>
      <path class="cls-6" d="M1175.12,613.42c.16-.83,15.02,2.57,38.45,2.98,27.78.48,45.31-3.63,45.47-2.72.17.98-19.97,7.52-45,6.88-21.6-.55-39.09-6.24-38.92-7.14Z"/>
      <path class="cls-3" d="M1060.88,562.38c11.72,7.32,30.1,17.63,54.19,26.39,26.2,9.52,99.82,31.99,184.13,6.55,16.38-4.94,40.48-13.9,67.16-30.75-2.79,4.44-7.41,10.7-14.65,16.67-3.42,2.83-8.66,6.6-19.88,11.71-16.35,7.44-30.17,10.78-34.11,11.71-41.38,9.73-81.81,9.72-81.81,9.72-30.95,0-53.2-4.01-71.77-7.34-9.03-1.62-27.79-5.27-47.71-14.48-7.69-3.56-14.34-7.38-20.92-13.09-7.13-6.19-11.77-12.51-14.65-17.06Z"/>
      <path class="cls-6" d="M1385.3,389.18c2.13,5.09,4.64,13.4,3.24,23.31-3.68,26.08-30.94,38.48-33.48,39.58-2.06-6.11-5.22-13.65-10.15-21.73-4.76-7.8-9.87-13.99-14.3-18.65,4.11,1.26,14.74,3.93,27.16.29,18.27-5.35,26.15-20.15,27.51-22.82Z"/>
      <path class="cls-6" d="M1042.39,389.55c-2.13,5.09-4.64,13.4-3.24,23.31,3.68,26.08,30.94,38.48,33.48,39.58,2.06-6.11,5.22-13.65,10.15-21.73,4.76-7.8,9.87-13.99,14.3-18.65-4.11,1.26-14.74,3.93-27.16.29-18.27-5.35-26.15-20.15-27.51-22.82Z"/>
      <path class="cls-3" d="M1198.56,708.52c3.91,1.02,9.13,1.99,15.32,2.07,7.74.1,14.11-1.21,18.52-2.47,1.09,1.19,2.19,2.39,3.28,3.58-5.84,1.01-12.87,1.81-20.86,1.87-7.4.05-13.98-.54-19.52-1.36,1.09-1.23,2.17-2.46,3.26-3.68Z"/>
      <path class="cls-2" d="M1082.48,432.61c-14.88-9.71-16.09-28.73-6.54-38.08,8.65-8.47,26.13-9.03,37.61,1.73-5.04,4.12-10.67,9.33-16.3,15.77-6.44,7.37-11.23,14.48-14.77,20.58Z"/>
      <path class="cls-2" d="M1346.36,435.37c14.98-9.31,16.9-28.44,7.16-38.66-8.98-9.42-27.06-10.45-38.92.27,5.26,4.38,11.21,10,17.12,17.04,6.46,7.69,11.19,15.08,14.64,21.36Z"/>
      <path class="cls-3" d="M1146.25,703.38c.3,1.84,1.5,7.56,6.79,12.24,5.98,5.29,13.05,5.57,15.1,5.62,3.11.08,10.67-.32,16.75-5.95,5.15-4.77,6.24-10.51,6.51-12.43-1.59,1.49-9.78,8.87-22.72,8.93-12.62.05-20.76-6.9-22.44-8.41Z"/>
      <path class="cls-3" d="M1239.59,703.34c.3,1.84,1.5,7.56,6.79,12.24,5.98,5.29,13.05,5.57,15.1,5.62,3.11.08,10.67-.32,16.75-5.95,5.15-4.77,6.24-10.51,6.51-12.43-1.59,1.49-9.78,8.87-22.72,8.93-12.62.05-20.76-6.9-22.44-8.41Z"/>
    </g>
  </g>
</svg>