<?xml version="1.0" encoding="UTF-8"?>
<svg id="Layer_2" data-name="Layer 2" xmlns="http://www.w3.org/2000/svg" viewBox="0 0 2408.67 1177.62">
  <defs>
    <style>
      .cls-1 {
        fill: #42c148;
      }

      .cls-2 {
        fill: #6c2d00;
      }

      .cls-3 {
        fill: none;
        stroke: #000;
        stroke-miterlimit: 10;
      }

      .cls-4 {
        letter-spacing: -.06em;
      }

      .cls-5 {
        fill: #6e463e;
      }

      .cls-6 {
        fill: #851c24;
      }

      .cls-7 {
        fill: #fff;
      }

      .cls-8 {
        fill: #f0f0f0;
      }

      .cls-9 {
        fill: #843d00;
      }

      .cls-10 {
        fill: #74cd6e;
      }

      .cls-11 {
        fill: #459900;
      }

      .cls-12 {
        fill: #231f20;
      }

      .cls-13 {
        letter-spacing: -.03em;
      }

      .cls-14 {
        fill: #1b1b1a;
      }

      .cls-15 {
        fill: #94e9ff;
      }

      .cls-16 {
        fill: #7ad960;
      }

      .cls-17 {
        letter-spacing: 0em;
      }

      .cls-18 {
        font-size: 75.08px;
      }

      .cls-18, .cls-19, .cls-20 {
        font-family: LuckiestGuy-Regular, 'Luckiest Guy';
      }

      .cls-21 {
        fill: #cda986;
      }

      .cls-19 {
        font-size: 65.28px;
      }

      .cls-22 {
        fill: #414042;
      }

      .cls-23 {
        fill: #a26b4a;
      }

      .cls-20 {
        font-size: 140.36px;
      }

      .cls-24 {
        fill: #ddc9a6;
      }
    </style>
  </defs>
  <g id="Layer_1-2" data-name="Layer 1">
    <path class="cls-15" d="M2406.67,0v1059.96H.85v1.08c-.12,38.46-.23,76.93-.35,115.4V0h2406.17Z"/>
    <path class="cls-7" d="M2407.01,1176.43c0-3.19,0-6.37.02-9.56.04-14.67.07-29.34.11-44.01v-2.08c.18-76.01.35-152,.55-228.01.18-75.41.35-150.8.53-226.21.16-63.46.32-126.93.46-190.39-.62.11-1.27.25-1.99.38-15.07,2.94-52.88,12.42-84.43,42.94-33.38,32.33-39.03,68.18-40.32,80.02-14.47-6.89-101.75-46.85-205.49-16.68-87.82,25.54-129.93,84.61-140.18,100.02-24.67-6.05-93.59-19.89-172.84,4.99-98.3,30.87-143.15,99.53-153.63,116.68-7.69-3.8-19.69-9.36-35.38-14.98-15.56-5.57-34.76-11.21-56.96-15.25-26.68-4.85-57.71-7.41-92.03-4.78-15.33,1.18-29.85,3.28-43.49,6.05-6.55,1.32-12.88,2.8-19.02,4.41-65.21,17.05-107.74,48.32-123.3,60.65-20.64-7.32-90.87-29.65-175.21-7.76-71.88,18.65-113.65,58.95-128.68,75.01-12.49-7.76-89.53-53.92-190.12-35.01-80.83,15.22-126.09,62.91-138.26,76.68-.19-13.78-2.77-63.95-46.09-100.01-52.28-43.51-142.74-48.9-218.93-8.35,1.22-13.66,3.88-64.52-36.49-106.67-45.1-47.08-125.54-64.12-201.64-41.67,1.66-3.55,15-33.59-3.85-60-18.28-25.64-59.23-37.18-97.94-25.01-.48,173.32-.95,346.63-1.41,519.95-.04,11.65-.07,23.32-.11,34.99-.02,4.55-.02,9.1-.04,13.65h2406.15Z"/>
    <path class="cls-5" d="M1035.58,506.16c19.03,73.73,36.29,161.73,45.41,261.69,9.92,108.72,7.84,205.57,1.1,286.31,11.67-7.72,15.63-8.2,16.95-6.94,1.7,1.64-.22,6.97-.48,6.94-.24-.04.33-4.69.48-6.94,8.57-123.47-1.58-279.38-1.58-279.38-4.64-71.29-13.37-159.87-30.21-261.69-3.89,0-7.78,0-11.67,0-6.67,0-13.33,0-20,0Z"/>
    <path class="cls-1" d="M2408.65,1122.86c-.66,17.86-1.32,35.71-1.98,53.57-801.94.4-1603.88.8-2405.82,1.19,801.94-.4,1603.88-.8,2405.82-1.19H.85v1.19c-.12-16.58-.24-33.15-.35-49.73.16-.03.34-.08.49-.11,268.11-60.05,623.44-122.98,1019.01-145.11,82.33-4.63,166.4-7.46,251.78-8.13,29.71-.23,58.6-.2,86.6.08,5.93.05,11.82.11,17.66.18,13.5.17,26.77.4,39.84.67,33.58.72,65.76,1.75,96.43,3.02,21.83.9,42.88,1.93,63.15,3.05,161.83,8.96,273.68,23.94,321.55,30.75,20.45,2.91,40.56,5.94,60.34,9.07,7.23,1.15,14.42,2.31,21.54,3.48,36.12,5.94,71.05,12.21,104.74,18.71,38.62,7.46,101.38,19.57,181.98,39.73,38.89,9.72,87.45,22.7,143.02,39.57Z"/>
    <path class="cls-10" d="M2075.32,1132.89c-.61,15.1-30.74,28.85-77.3,43.54H.83v1.19c-.02-.4-.02-.8-.03-1.19-.1-4.52-.2-9.02-.3-13.54.11-.03.25-.06.36-.11,125.31-34.53,300.35-77.61,512.54-113.24,121.14-20.32,266.52-44.4,435.84-57.66,97.16-7.61,202.21-11.67,315.08-9.4,5.5.11,11.02.23,16.57.38.31,0,.64,0,.95.02,11.94.31,23.87.67,35.81,1.12,29.93,1.1,59.82,2.6,89.49,4.47,19.8,1.24,39.51,2.65,59.06,4.21,130.31,10.35,253.93,27.29,355.34,46.91,6.5,1.24,12.92,2.51,19.23,3.78,12.74,2.59,25.07,5.19,36.99,7.84,104.99,23.32,177.27,49.11,193.92,71.64,2.53,3.42,3.78,6.77,3.65,10.03Z"/>
    <path class="cls-22" d="M1120.57,451.16c-9.86,19.95-16.06,37.51-20.03,50.64-17.01,56.36-8.96,85.15-6.81,92.18.09.31.16.52.2.64,19.35,62.59,130.14,82.64,167.77,33.65,21.74-28.3,22.11-72.33,22.1-77.08,0-.09,0-.17,0-.24-.09-26.22-5.63-48.71-14.04-67.96-21.92-.92-47.95-3.6-76.77-9.81-28.11-6.05-52.41-14.07-72.43-22.03Z"/>
    <path class="cls-7" d="M1113.14,586.73c-.62-9.38-.5-28.47,10.46-48.53,4.74-8.69,12.64-23.09,29.4-31.42,28.88-14.36,71.95-3.9,89.73,21.06,8.53,11.97,9.62,24.88,10.5,35.33,1.74,20.71-3.83,37.17-7.81,46.35-5.72,1.95-10.87,3.25-15.17,4.15-54.04,11.28-99.63-15.5-105.41-19.01-5.24-3.18-9.27-6.1-11.69-7.94Z"/>
    <path class="cls-14" d="M1151.45,466.27c.4-1.11,19.04,6.95,49.58,12.83,36.22,6.97,60.15,5.28,60.14,6.57,0,1.39-27.93,5.84-60.52-.71-28.12-5.65-49.64-17.47-49.2-18.68Z"/>
    <path class="cls-23" d="M905.96,1111.23c10.63,12.5,26.5,17.74,40,13.33,10.63-3.47,16.37-11.8,18.34-15-1.1-227.25-2.19-454.5-3.29-681.75-.92-1.12-8.84-10.45-21.72-9.99-10.42.37-16.96,6.9-18.34,8.33-5,228.36-10,456.71-15,685.07Z"/>
    <path class="cls-23" d="M1471.85,1111.23c10.63,12.5,26.5,17.74,40,13.33,10.63-3.47,16.37-11.8,18.34-15-1.1-227.25-2.19-454.5-3.29-681.75-.92-1.12-8.84-10.45-21.72-9.99-10.42.37-16.96,6.9-18.34,8.33-5,228.36-10,456.71-15,685.07Z"/>
    <rect class="cls-24" x="1987.73" y="666.56" width="420.94" height="456.31"/>
    <rect class="cls-23" x="834.29" y="462.82" width="746.75" height="43.34"/>
    <path class="cls-5" d="M1407.68,506.16c-19.03,73.73-36.29,161.73-45.41,261.69-9.92,108.72-7.84,205.57-1.1,286.31-11.67-7.72-15.63-8.2-16.95-6.94-1.7,1.64.22,6.97.48,6.94.24-.04-.33-4.69-.48-6.94-8.57-123.47,1.58-279.38,1.58-279.38,4.64-71.29,13.37-159.87,30.21-261.69h31.67Z"/>
    <rect class="cls-23" x="1047.45" y="949.94" width="343.62" height="128.55"/>
    <rect class="cls-23" x="1046.37" y="784.43" width="357.02" height="128.55"/>
    <rect class="cls-23" x="985.07" y="573.13" width="466.01" height="174.33"/>
    <text class="cls-20" transform="translate(1064.4 707.05)"><tspan x="0" y="0">PL</tspan><tspan class="cls-4" x="147.08" y="0">A</tspan><tspan x="226.44" y="0">Y</tspan></text>
    <text class="cls-18" transform="translate(1065.8 877.88)"><tspan x="0" y="0">Se</tspan><tspan class="cls-17" x="83.14" y="0">t</tspan><tspan x="124.64" y="0">tings</tspan></text>
    <text class="cls-19" transform="translate(1063.75 1036.25)"><tspan class="cls-13" x="0" y="0">e</tspan><tspan x="35.73" y="0">xit game</tspan></text>
    <path class="cls-7" d="M1028.6,283.59c-6.22,5.2-17.56,16.22-22.73,33.51-6.67,22.27.85,41.72,4.19,50.35,18.26,47.21,98.75,87.92,182.93,105.74,84.87,17.97,175.33,13.06,208.34-22.41,18.07-19.42,22.33-41.28,22.33-41.28,3.86-19.8-1.2-36.34-4.28-44.34,3.88-16.35,16.23-77.06-17.1-139.31-42.54-79.45-125.07-97.17-141.89-100.34-17.82-3.36-90.27-15.77-155.95,32.7-61.05,45.05-73.5,111.16-75.85,125.4Z"/>
    <path class="cls-22" d="M1179.38,320.28c-1.01,4.07-7.3,27.66-30.21,40.69-26.51,15.07-65.84,10.64-82.9-14.28-14.49-21.17-5.97-47.02-4.86-50.22,12.53-36.13,61.87-64.45,93.98-45.77,22.02,12.81,30.25,44.43,23.99,69.58Z"/>
    <path class="cls-22" d="M1264.39,338.21c-.72,4.13-4.49,28.26,11.21,49.42,18.17,24.49,55.94,36.32,81.6,20.41,21.8-13.52,24.45-40.6,24.73-43.98,3.13-38.11-30.57-83.94-67.49-79.82-25.32,2.83-45.61,28.43-50.05,53.97Z"/>
    <circle class="cls-7" cx="1143.42" cy="312.82" r="36.76"/>
    <circle class="cls-7" cx="1300.29" cy="345.9" r="36.76"/>
    <path class="cls-12" d="M1201.75,349.91c4.26-6.78,30.59-1.77,31.98,5.89.93,5.15-8.67,15.49-19.75,12.87-10.28-2.43-14.97-14.4-12.23-18.76Z"/>
    <path class="cls-6" d="M1234.12,385.1c-1.52.31-4.64.73-8.17-.52-2.3-.82-3.8-2-4.47-2.54-5.31-4.28-6.43-11.21-6.69-13.2-1.16,1.84-5.08,7.56-11.76,9.31-2.43.64-4.77.63-5.42.61-3.74-.06-6.66-1.11-8.4-1.89,0,0,0,0,0,0,.01,0,7.75,25.38,18.88,28,4.87,1.14,12.82-1.5,26.03-19.76Z"/>
    <path class="cls-8" d="M1258.27,159.97c1.82.6,5.01-10.75,13.06-18.82,6.43-6.45,14.78-8.79,21.35-9.69-2.84-1.23-9.1-3.49-17.03-2.45-11.22,1.48-18.02,8.53-19.88,10.6.05-2.81.59-8.69,4.62-14.11,5.61-7.54,15.7-11.07,26.1-9.41-9.49-7.64-22.18-9.24-32.3-4.1-9.72,4.94-13.27,14.76-14.8,19.02-4.41,12.28-1.5,24.26-.58,24.29.44.02.4-2.7,2-8.81,1.51-5.75,3-11.24,7.01-16.41,2.14-2.76,4.38-4.63,5.91-5.76-1,1.92-2.02,4.36-2.68,7.29-1.69,7.49-.05,13.83,1.06,17.06,1.4-2.15,3.65-5.09,7.07-7.82,6.4-5.1,13.83-7,14.12-6.39.21.43-3.96,1.68-8.4,6.18-6.23,6.31-6.99,12.91-7.12,14.26-.14,1.49-.45,4.76.49,5.07Z"/>
    <path class="cls-7" d="M2406.81,50.69c-2.58-2.42-5.33-4.57-8.26-6.48-19.94-13.01-43.34-11.47-72.19-9.24-64.21,4.99-111.16,31.27-135.59,47.58-15.12-7.98-51.28-24.6-100.3-23.34-52.65,1.37-89.69,22.56-103.9,31.68-15.64-7.3-70.56-30.6-137.92-15-44.37,10.27-73.8,32.72-87.76,45-22.59-6.54-72.1-17.33-125.38,1.66-23.8,8.5-56.49,25.84-76.99,47.76-13.07,13.94-21.19,29.74-18.92,46.29.74,5.39,2.51,10.38,4.95,14.93,5.7,10.66,15.08,19,23.41,24.91.28.21.58.41.86.6,6.3,4.37,11.91,7.36,14.77,8.86,48.44,25.67,100.64,4.55,107.46,1.66,37.39,8.55,93.52,17.07,161.18,11.33,56.12-4.77,101.9-17.79,134.36-29.66,34.27,12.08,137.66,43.66,248.98,3.33,37.3-13.51,66.38-31.79,87.76-48.33,43.58,20.76,67.7,10.98,73.45,8.32,3.6-1.66,6.95-3.75,10.05-6.22V50.69Z"/>
    <path class="cls-22" d="M1055.44,211.92c7.7-12.76,21.34-31.9,43.58-49.56,22.31-17.73,44.12-26.69,58.31-31.29-.81-2.29-15.34-41.13-52.08-48.51-37.59-7.55-77.98,21.93-83.01,60.43-3.4,25.98,9.76,52.6,33.21,68.94Z"/>
    <path class="cls-22" d="M1421.28,289.07c-1.89-14.78-6.64-37.8-19.85-62.94-13.26-25.23-29.59-42.23-40.71-52.17,1.67-1.76,30.64-31.43,67.24-23.35,37.44,8.27,62.48,51.55,51.54,88.8-7.38,25.14-30.17,44.18-58.22,49.66Z"/>
    <ellipse class="cls-12" cx="1161.44" cy="318.27" rx="19.86" ry="15.7" transform="translate(610.35 1389.04) rotate(-78.09)"/>
    <ellipse class="cls-12" cx="1283.35" cy="343.98" rx="19.86" ry="15.7" transform="translate(681.96 1528.73) rotate(-78.09)"/>
    <ellipse class="cls-7" cx="1168.28" cy="308.68" rx="6.25" ry="7.64" transform="translate(625.18 1388.13) rotate(-78.09)"/>
    <path class="cls-7" d="M579.74,299.3c27.92-18.19,60.81-12.16,81.68-8.33,13.96,2.56,34.94,8.14,58.34,21.67,7.01-4.31,26.64-15.08,53.34-13.33,32.6,2.14,53.15,21.48,58.34,26.67,11.34-2.57,29.74-5.29,51.67-1.67,4.11.68,44.44,7.34,45.22,19.63.77,12.03-36.55,27.06-70.23,32.05-46.81,6.93-56.23-10.03-116.68-13.33-54.41-2.98-62.94,9.88-115.01,1.67-19.56-3.09-68.3-10.77-71.67-31.67-2.49-15.43,20.94-30.69,25-33.34Z"/>
    <ellipse class="cls-7" cx="1280.01" cy="332.24" rx="6.25" ry="7.64" transform="translate(690.79 1516.14) rotate(-78.09)"/>
    <path class="cls-11" d="M488.38,309.48c.77,18.28-9.33,31.21-12.51,34.99,3.27,10.52,7.62,29.76,3.57,53.34-4.87,28.36-19.28,47.82-26.81,56.68,2.59,16.43,4.51,45.83-8.93,78.34-6.23,15.07-16.58,40.09-44.68,58.34-26.66,17.32-54.41,18.85-66.14,18.86-9.51,8.39-23.09,18.68-41.09,27.81-19.88,10.08-38.23,15.23-51.77,17.99h-.02c-4.74.65-25.02,3.17-50.61-1.94-1.59-.33-3.2-.67-4.83-1.04-18.79-4.37-47.86-14.82-101.86-68.34-31.11-30.83-58.32-57.79-82.21-98.87V126.6c14.38-24.4,34.33-46.74,66.13-58.82,51.46-19.55,102.93-.39,119.73,6.68,10.38-12.98,36.45-41.64,80.42-53.35,46.18-12.29,117.52-7.34,146.53,38.34,17.41,27.42,12.3,58.01,8.94,71.68,6.95,2.92,49.73,21.67,66.13,68.34,15.26,43.45-3.39,79.71-7.16,86.68.3.49.6,1.03.91,1.6,2.61,4.67,5.84,12.18,6.25,21.74Z"/>
    <path class="cls-8" d="M1008.32,358.38c13.11,13.23,34.01,32.4,62.78,51,31.28,20.22,120.44,71.17,237.32,59.42,22.71-2.28,56.61-7.96,96.14-23.73-4.91,5.32-12.72,12.63-23.84,18.82-5.27,2.93-13.16,6.67-29.21,10.59-23.39,5.72-42.3,6.5-47.69,6.69-56.57,1.99-109.09-9.09-109.09-9.09-40.21-8.49-67.96-20.06-91.12-29.72-11.26-4.7-34.58-14.84-57.79-32.91-8.96-6.98-16.5-14.05-23.4-23.67-7.47-10.43-11.68-20.36-14.1-27.39Z"/>
    <path class="cls-14" d="M1479.83,209.96c1.3,7.56,2.16,19.64-2.52,32.83-12.32,34.72-51.32,44.24-54.93,45.06-.91-8.94-2.84-20.13-6.91-32.55-3.93-12-8.78-21.87-13.19-29.46,4.98,2.86,18.01,9.42,35.21,7.85,25.28-2.32,39.8-20.44,42.34-23.72Z"/>
    <path class="cls-14" d="M1034.24,116.52c-4.24,6.39-9.9,17.09-10.95,31.05-2.75,36.74,29.08,61.19,32.06,63.4,4.44-7.81,10.72-17.27,19.46-26.98,8.44-9.39,16.87-16.46,23.96-21.63-5.71.6-20.28,1.35-35.38-7.04-22.19-12.33-28.16-34.77-29.15-38.8Z"/>
    <path class="cls-7" d="M1073.88,186.51c-16.53-17.38-12.6-43.76,2.51-53.96,13.68-9.24,36.55-5.22,48.36,12.67-7.74,4.27-16.56,9.86-25.73,17.14-10.49,8.33-18.77,16.76-25.14,24.15Z"/>
    <path class="cls-7" d="M1415.9,262.57c22.15-8.66,30.17-34.33,20.47-51.01-8.94-15.37-32.13-21.73-50.64-10.29,5.57,7.44,11.67,16.78,17.32,28.03,6.17,12.31,10.18,23.73,12.85,33.27Z"/>
    <path class="cls-22" d="M1388.85,458.79c3.56,16.28,20.31,24.07,23.83,25.7,16.72,7.78,39.57,6.33,55.01-8.33,14.52-13.8,22.55-39.36,10-56.67-12.91-17.81-39.35-15.53-54.02-10-19.59,7.39-39.36,28.57-34.82,49.3Z"/>
    <path class="cls-9" d="M153.74,1177.55c0-.37-.02-.75-.03-1.12-.66-16.66-1.17-34.29-1.49-52.85-.18-9.76-.3-19.79-.34-30.06-.54-105.99,5.71-238.43,29.11-388.99,1.03-6.68,2.1-13.34,3.19-19.94,26.94-164.68,66.89-306.69,77.24-305.1,9.7,1.49-15.86,127.85-23.5,320.54-1.95,48.7-2.74,101.63-1.53,157.85,1.76,81.41,7.39,154.13,14.1,215.45.99,9.17,2.02,18.1,3.07,26.75,3.42,28.41,7.01,53.97,10.43,76.36.07.35.11.7.16,1.06l-110.41.06Z"/>
    <path class="cls-22" d="M1038.91,376.02c32.65-8.06,68.52,56.92,73.83,66.56,12.78,23.16,25.15,45.57,15.49,63.49-11.65,21.61-49.55,25.95-75.27,15.43-37.01-15.14-51.28-61.82-45.26-96.4.85-4.86,8.18-43.39,31.22-49.08Z"/>
    <path class="cls-9" d="M229.6,467.5c-4.22,17.04-8.43,34.07-12.65,51.11-80.01-108.44-117.01-164.81-111.01-169.12,5.47-3.93,46.69,35.4,123.66,118.02Z"/>
    <path class="cls-2" d="M1928.63,664.51c43.58-67.78,87.17-135.57,130.75-203.35,115.81-.56,231.62-1.11,347.43-1.67v208.36c-159.39-1.11-318.79-2.22-478.18-3.33Z"/>
    <path class="cls-2" d="M2408.67,893.21v229.66h-124.91c-2.91-10.64-6.03-23.98-8.51-39.55-3.37-21.28-5.47-46.79-4.03-75.44,2.63-52.15,4.3-85.47,32.24-106.68,27.36-20.76,71.75-23.71,103.35-8.88.32.13.63.28.93.44.32.15.63.29.93.44Z"/>
    <rect class="cls-2" x="2069.98" y="721.35" width="120.01" height="161.7"/>
    <path class="cls-16" d="M917,1136.23c-14.13-8.33-11.02-22.82-21.67-31.67-6.3-5.24-17.77-8.8-40.41-2.33,6.56-6.49,17.55-15.14,32.96-18.66,7.64-1.74,16.93-3.86,24.11.98,10.29,6.94,9.25,23.46,11.67,23.34,3.01-.16-1.22-25.32,11.67-41.67,7.68-9.74,19.12-13.41,26.67-15-10.43,6.45-15.63,17.9-13.33,28.34,1.21,5.53,5.33,14.44,12.63,15.97,13,2.75,22.21-20.87,34.05-19.31,6.31.83,13.78,8.88,20,38.34-9.41-11.4-17.22-13.2-21.67-13.33-17.67-.55-38.79,23.22-43.34,28.34-3.25,3.65-6.86,8.2-13.33,10-9.55,2.66-18.62-2.52-20-3.33Z"/>
    <path class="cls-16" d="M1482.89,1143.03c-14.13-8.33-11.02-22.82-21.67-31.67-6.3-5.24-17.77-8.8-40.41-2.33,6.56-6.49,17.55-15.14,32.96-18.66,7.64-1.74,16.93-3.86,24.11.98,10.29,6.94,9.25,23.46,11.67,23.34,3.01-.16-1.22-25.32,11.67-41.67,7.68-9.74,19.12-13.41,26.67-15-10.43,6.45-15.63,17.9-13.33,28.34,1.21,5.53,5.33,14.44,12.63,15.97,13,2.75,22.21-20.87,34.05-19.31,6.31.83,13.78,8.88,20,38.34-9.41-11.4-17.22-13.2-21.67-13.33-17.67-.55-38.79,23.22-43.34,28.34-3.25,3.65-6.86,8.2-13.33,10-9.55,2.66-18.62-2.52-20-3.33Z"/>
    <rect class="cls-21" x="2051.92" y="1009.91" width="91.68" height="26.38"/>
    <rect class="cls-21" x="2097.76" y="983.08" width="91.68" height="26.38"/>
    <polyline class="cls-3" points=".5 1127.9 .5 1162.89 .5 1176.43 .82 1176.43 .85 1176.43 2147 1176.43 2406.67 1176.43 2407.01 1176.43"/>
  </g>
</svg>