<?xml version="1.0" encoding="UTF-8"?>
<svg id="Layer_2" data-name="Layer 2" xmlns="http://www.w3.org/2000/svg" viewBox="0 0 2409.51 1182.48">
  <defs>
    <style>
      @font-face {
        font-family: 'Luckiest Guy';
        src: url('../Font/LuckiestGuy-Regular.ttf') format('truetype');
        font-weight: 400;
        font-style: normal;
      }

      .cls-1 {
        fill: #42c148;
      }

      .cls-2 {
        fill: #6c2d00;
      }

      .cls-3 {
        letter-spacing: 0em;
      }

      .cls-4 {
        fill: #6e463e;
      }

      .cls-5 {
        fill: #851c24;
      }

      .cls-6 {
        letter-spacing: -.02em;
      }

      .cls-7 {
        fill: #fff;
      }

      .cls-8 {
        fill: #f0f0f0;
      }

      .cls-9 {
        letter-spacing: 0em;
      }

      .cls-10 {
        fill: #843d00;
      }

      .cls-11 {
        fill: #74cd6e;
      }

      .cls-12 {
        font-size: 140.94px;
      }

      .cls-12, .cls-13, .cls-14 {
        font-family: 'Luckiest Guy';
      }

      .cls-15 {
        fill: #459900;
      }

      .cls-16 {
        letter-spacing: 0em;
      }

      .cls-17 {
        fill: #231f20;
      }

      .cls-13 {
        font-size: 65.55px;
      }

      .cls-18 {
        fill: #1b1b1a;
      }

      .cls-19 {
        fill: #94e9ff;
      }

      .cls-20 {
        fill: #7ad960;
      }

      .cls-14 {
        font-size: 58.44px;
      }

      .cls-21 {
        letter-spacing: -.05em;
      }

      .cls-22 {
        letter-spacing: -.06em;
      }

      .cls-23 {
        fill: #cda986;
      }

      .cls-24 {
        fill: #414042;
      }

      .cls-25 {
        fill: #a26b4a;
      }

      .cls-26 {
        fill: #ddc9a6;
      }
    </style>
  </defs>
  <g id="Layer_1-2" data-name="Layer 1">
    <path class="cls-19" d="M2407.51,0v1064.33H.36v1.08c-.12,38.61-.23,77.24-.35,115.87V0h2407.51Z"/>
    <path class="cls-7" d="M2407.85,1181.28c0-3.2,0-6.4.02-9.6.04-14.73.07-29.46.11-44.2v-2.09c.18-76.32.35-152.62.55-228.95.18-75.72.35-151.43.53-227.15.16-63.73.32-127.45.46-191.18-.62.11-1.27.25-1.99.38-15.08,2.95-52.91,12.47-84.47,43.12-33.4,32.46-39.05,68.46-40.34,80.35-14.48-6.92-101.81-47.04-205.6-16.75-87.86,25.65-130,84.96-140.26,100.43-24.68-6.07-93.64-19.98-172.94,5.01-98.35,31-143.23,99.94-153.71,117.16-7.7-3.81-19.7-9.4-35.4-15.04-15.57-5.6-34.78-11.26-56.99-15.32-26.69-4.87-57.75-7.44-92.08-4.8-15.34,1.18-29.87,3.29-43.52,6.07-6.55,1.32-12.89,2.81-19.03,4.43-65.25,17.12-107.8,48.52-123.37,60.9-20.66-7.35-90.92-29.77-175.31-7.8-71.92,18.73-113.71,59.19-128.75,75.32-12.5-7.8-89.58-54.15-190.22-35.15-80.87,15.29-126.16,63.17-138.34,77-.19-13.84-2.77-64.22-46.11-100.42-52.31-43.69-142.82-49.1-219.05-8.38,1.22-13.72,3.88-64.79-36.51-107.11-45.12-47.27-125.61-64.39-201.75-41.84,1.66-3.57,15.01-33.72-3.85-60.25-18.29-25.74-59.26-37.34-98-25.11-.48,174.03-.95,348.06-1.41,522.09-.04,11.7-.07,23.42-.11,35.14-.02,4.57-.02,9.13-.04,13.7h2407.49Z"/>
    <path class="cls-4" d="M1028.39,508.25c19.11,74.04,36.44,162.39,45.59,262.77,9.96,109.17,7.87,206.42,1.1,287.49,11.71-7.75,15.7-8.24,17.02-6.96,1.71,1.65-.22,7-.48,6.96-.24-.04.33-4.7.48-6.96,8.61-123.98-1.59-280.53-1.59-280.53-4.66-71.59-13.42-160.53-30.33-262.77h-11.72c-6.69,0-13.39,0-20.08,0Z"/>
    <path class="cls-1" d="M2409.49,1127.49c-.66,17.93-1.32,35.86-1.98,53.79-802.39.4-1604.77.8-2407.16,1.2,802.38-.4,1604.77-.8,2407.16-1.2H.36v1.2c-.12-16.64-.24-33.29-.35-49.93.16-.03.34-.08.49-.11,268.25-60.3,623.79-123.48,1019.58-145.7,82.37-4.64,166.5-7.49,251.92-8.17,29.73-.23,58.63-.2,86.65.08,5.93.05,11.83.11,17.67.18,13.51.17,26.78.4,39.86.68,33.6.72,65.8,1.75,96.48,3.03,21.84.91,42.9,1.94,63.18,3.06,161.92,9,273.83,24.04,321.73,30.88,20.46,2.92,40.59,5.97,60.38,9.1,7.24,1.15,14.42,2.32,21.56,3.49,36.14,5.97,71.09,12.26,104.79,18.79,38.64,7.49,101.44,19.65,182.08,39.89,38.91,9.76,87.5,22.79,143.1,39.74Z"/>
    <path class="cls-11" d="M2230.81,1137.56c-.65,15.16-33.05,28.97-83.12,43.72H.36v1.2c-.02-.4-.02-.8-.04-1.2-.11-4.54-.21-9.06-.32-13.59.12-.03.26-.06.39-.11,134.74-34.68,322.93-77.93,551.07-113.7,130.25-20.41,286.56-44.58,468.61-57.9,104.46-7.64,217.41-11.72,338.76-9.44,5.91.11,11.85.23,17.81.38.34,0,.69,0,1.02.02,12.83.31,25.67.68,38.5,1.12,32.18,1.11,64.31,2.61,96.21,4.49,21.29,1.25,42.48,2.66,63.5,4.23,140.1,10.4,273.02,27.4,382.05,47.1,6.99,1.25,13.89,2.52,20.67,3.8,13.7,2.6,26.96,5.21,39.77,7.87,112.88,23.42,190.59,49.32,208.49,71.94,2.72,3.43,4.06,6.8,3.92,10.07Z"/>
    <path class="cls-24" d="M1113.73,453.02c-9.9,20.03-16.13,37.66-20.11,50.85-17.08,56.59-9,85.5-6.84,92.55.09.31.16.52.2.65,19.43,62.85,130.68,82.98,168.46,33.79,21.83-28.42,22.2-72.63,22.19-77.39,0-.09,0-.17,0-.24-.09-26.32-5.65-48.91-14.1-68.24-22.01-.93-48.15-3.62-77.08-9.85-28.23-6.08-52.62-14.13-72.72-22.12Z"/>
    <path class="cls-7" d="M1106.27,589.15c-.62-9.42-.5-28.58,10.5-48.73,4.76-8.72,12.7-23.19,29.52-31.55,29-14.42,72.24-3.92,90.1,21.15,8.56,12.02,9.66,24.99,10.54,35.48,1.74,20.79-3.84,37.33-7.84,46.55-5.75,1.96-10.91,3.27-15.24,4.17-54.26,11.32-100.04-15.57-105.84-19.09-5.26-3.2-9.31-6.13-11.74-7.97Z"/>
    <path class="cls-18" d="M1144.74,468.19c.4-1.11,19.11,6.98,49.79,12.88,36.37,7,60.39,5.3,60.39,6.59,0,1.4-28.04,5.87-60.77-.72-28.24-5.68-49.85-17.54-49.41-18.76Z"/>
    <path class="cls-25" d="M898.24,1115.81c10.68,12.55,26.61,17.82,40.17,13.39,10.67-3.48,16.43-11.85,18.41-15.06-1.1-228.19-2.2-456.37-3.3-684.56-.92-1.13-8.88-10.49-21.81-10.03-10.47.37-17.03,6.93-18.41,8.37-5.02,229.3-10.04,458.6-15.06,687.9Z"/>
    <path class="cls-25" d="M1466.46,1115.81c10.68,12.55,26.61,17.82,40.17,13.39,10.67-3.48,16.43-11.85,18.41-15.06-1.1-228.19-2.2-456.37-3.3-684.56-.92-1.13-8.88-10.49-21.81-10.03-10.47.37-17.03,6.93-18.41,8.37-5.02,229.3-10.04,458.6-15.06,687.9Z"/>
    <rect class="cls-26" x="1986.39" y="669.3" width="423.12" height="458.19"/>
    <rect class="cls-25" x="826.27" y="464.73" width="749.82" height="43.52"/>
    <path class="cls-4" d="M1402.02,508.25c-19.11,74.04-36.44,162.39-45.59,262.77-9.96,109.17-7.87,206.42-1.1,287.49-11.71-7.75-15.7-8.24-17.02-6.96-1.71,1.65.22,7,.48,6.96.24-.04-.33-4.7-.48-6.96-8.61-123.98,1.59-280.53,1.59-280.53,4.66-71.59,13.42-160.53,30.33-262.77h31.8Z"/>
    <rect class="cls-25" x="1040.31" y="953.85" width="345.03" height="129.08"/>
    <rect class="cls-25" x="1027.87" y="787.66" width="382.53" height="129.08"/>
    <rect class="cls-25" x="977.67" y="575.49" width="467.93" height="175.05"/>
    <text class="cls-12" transform="translate(1057.33 709.96)"><tspan class="cls-9" x="0" y="0">M</tspan><tspan x="110.25" y="0">ain</tspan></text>
    <text class="cls-14" transform="translate(1046.2 876.88)"><tspan x="0" y="0">Peng</tspan><tspan class="cls-22" x="143.26" y="0">a</tspan><tspan class="cls-3" x="176.33" y="0">turan</tspan></text>
    <text class="cls-13" transform="translate(1097.32 1047.39)"><tspan class="cls-21" x="0" y="0">K</tspan><tspan class="cls-16" x="37.26" y="0">el</tspan><tspan class="cls-6" x="104.64" y="0">u</tspan><tspan x="143.62" y="0">ar</tspan></text>
    <path class="cls-7" d="M1021.38,284.76c-6.25,5.22-17.63,16.29-22.83,33.65-6.69,22.36.86,41.89,4.21,50.56,18.33,47.4,99.16,88.28,183.69,106.17,85.22,18.04,176.06,13.11,209.2-22.5,18.15-19.5,22.43-41.45,22.43-41.45,3.87-19.88-1.21-36.49-4.29-44.52,3.9-16.42,16.3-77.37-17.17-139.89-42.72-79.77-125.58-97.57-142.47-100.75-17.89-3.37-90.65-15.83-156.59,32.83-61.3,45.24-73.8,111.62-76.16,125.91Z"/>
    <path class="cls-24" d="M1172.78,321.6c-1.02,4.09-7.33,27.78-30.34,40.86-26.62,15.13-66.11,10.68-83.24-14.34-14.55-21.26-6-47.21-4.88-50.43,12.58-36.27,62.12-64.72,94.36-45.96,22.11,12.87,30.37,44.61,24.09,69.87Z"/>
    <path class="cls-24" d="M1258.14,339.6c-.72,4.15-4.51,28.37,11.25,49.63,18.24,24.59,56.17,36.47,81.94,20.5,21.89-13.57,24.55-40.77,24.83-44.17,3.14-38.26-30.7-84.29-67.77-80.15-25.43,2.84-45.8,28.55-50.25,54.19Z"/>
    <circle class="cls-7" cx="1136.68" cy="314.11" r="36.91"/>
    <circle class="cls-7" cx="1294.19" cy="347.32" r="36.91"/>
    <path class="cls-17" d="M1195.24,351.36c4.28-6.81,30.72-1.78,32.11,5.92.93,5.17-8.7,15.56-19.83,12.92-10.32-2.44-15.03-14.46-12.28-18.84Z"/>
    <path class="cls-5" d="M1227.75,386.69c-1.53.31-4.66.73-8.2-.52-2.31-.82-3.82-2.01-4.49-2.55-5.33-4.29-6.46-11.25-6.72-13.26-1.17,1.85-5.1,7.59-11.81,9.35-2.44.64-4.79.63-5.44.62-3.75-.07-6.69-1.12-8.43-1.9,0,0,0,0,0,0,.01,0,7.78,25.49,18.95,28.11,4.89,1.15,12.87-1.51,26.13-19.84Z"/>
    <path class="cls-8" d="M1252,160.63c1.83.6,5.03-10.8,13.11-18.9,6.46-6.48,14.84-8.82,21.44-9.73-2.85-1.24-9.13-3.5-17.1-2.46-11.26,1.48-18.09,8.57-19.96,10.65.05-2.82.59-8.73,4.64-14.17,5.64-7.57,15.77-11.12,26.21-9.45-9.53-7.67-22.27-9.28-32.44-4.12-9.76,4.96-13.32,14.82-14.86,19.1-4.42,12.33-1.51,24.36-.58,24.39.44.02.4-2.71,2.01-8.84,1.51-5.78,3.01-11.29,7.04-16.48,2.15-2.77,4.4-4.65,5.93-5.78-1.01,1.92-2.03,4.38-2.7,7.32-1.7,7.53-.05,13.89,1.06,17.13,1.4-2.15,3.66-5.11,7.1-7.85,6.43-5.12,13.88-7.03,14.18-6.42.21.43-3.97,1.69-8.44,6.2-6.25,6.33-7.02,12.97-7.15,14.31-.14,1.49-.46,4.78.49,5.09Z"/>
    <path class="cls-7" d="M2407.64,50.9c-2.59-2.43-5.36-4.59-8.3-6.51-20.04-13.06-43.56-11.52-72.56-9.28-64.54,5.01-111.73,31.4-136.29,47.77-15.2-8.01-51.55-24.7-100.82-23.44-52.92,1.38-90.16,22.65-104.44,31.81-15.73-7.33-70.92-30.73-138.64-15.06-44.6,10.31-74.18,32.86-88.22,45.18-22.71-6.57-72.47-17.4-126.03,1.67-23.92,8.54-56.78,25.94-77.39,47.95-13.13,14-21.3,29.86-19.02,46.48.74,5.41,2.52,10.42,4.97,15,5.73,10.7,15.16,19.08,23.54,25.01.28.21.58.41.86.61,6.33,4.39,11.97,7.39,14.84,8.9,48.69,25.78,101.16,4.57,108.01,1.67,37.59,8.59,94,17.14,162.01,11.37,56.41-4.79,102.43-17.86,135.06-29.78,34.45,12.13,138.37,43.84,250.27,3.34,37.5-13.57,66.73-31.92,88.22-48.53,43.81,20.85,68.05,11.03,73.83,8.36,3.61-1.67,6.98-3.77,10.1-6.24V50.9Z"/>
    <path class="cls-24" d="M1048.33,212.8c7.73-12.81,21.42-32.03,43.76-49.77,22.4-17.8,44.3-26.8,58.55-31.42-.82-2.3-15.4-41.3-52.3-48.71-37.75-7.58-78.3,22.02-83.36,60.68-3.41,26.09,9.8,52.81,33.35,69.22Z"/>
    <path class="cls-24" d="M1415.68,290.26c-1.9-14.84-6.67-37.95-19.93-63.2-13.31-25.33-29.71-42.41-40.88-52.39,1.68-1.77,30.77-31.56,67.52-23.45,37.6,8.31,62.74,51.77,51.75,89.17-7.41,25.25-30.29,44.36-58.46,49.86Z"/>
    <ellipse class="cls-17" cx="1154.76" cy="319.58" rx="19.95" ry="15.76" transform="translate(603.78 1383.55) rotate(-78.09)"/>
    <ellipse class="cls-17" cx="1277.18" cy="345.4" rx="19.95" ry="15.76" transform="translate(675.67 1523.82) rotate(-78.09)"/>
    <ellipse class="cls-7" cx="1161.64" cy="309.95" rx="6.28" ry="7.67" transform="translate(618.66 1382.64) rotate(-78.09)"/>
    <path class="cls-7" d="M570.67,300.53c28.04-18.27,61.06-12.21,82.01-8.37,14.01,2.57,35.09,8.18,58.58,21.76,7.04-4.32,26.75-15.15,53.56-13.39,32.74,2.14,53.37,21.56,58.58,26.78,11.39-2.58,29.87-5.31,51.89-1.67,4.13.68,44.62,7.37,45.41,19.71.77,12.08-36.7,27.17-70.51,32.18-47,6.96-56.46-10.07-117.16-13.39-54.64-2.99-63.2,9.92-115.49,1.67-19.64-3.1-68.58-10.82-71.97-31.8-2.5-15.49,21.03-30.82,25.11-33.47Z"/>
    <ellipse class="cls-7" cx="1273.82" cy="333.61" rx="6.28" ry="7.67" transform="translate(684.54 1511.18) rotate(-78.09)"/>
    <path class="cls-15" d="M487.64,310.76c.77,18.35-9.32,31.33-12.51,35.14,3.27,10.56,7.62,29.88,3.57,53.56-4.87,28.48-19.27,48.01-26.8,56.91,2.59,16.5,4.51,46.02-8.93,78.66-6.23,15.13-16.58,40.26-44.66,58.58-26.65,17.39-54.39,18.93-66.11,18.94-9.51,8.42-23.08,18.76-41.07,27.92-19.87,10.12-38.21,15.29-51.75,18.07h-.02c-4.74.66-25.01,3.18-50.58-1.95-1.59-.33-3.2-.67-4.83-1.05-18.78-4.39-47.84-14.88-101.81-68.62-31.1-30.96-58.29-58.03-82.17-99.28V127.13c14.38-24.5,34.32-46.94,66.09-59.06,51.44-19.63,102.88-.39,119.67,6.7,10.37-13.03,36.43-41.81,80.38-53.57,46.16-12.34,117.46-7.37,146.46,38.5,17.4,27.53,12.3,58.24,8.94,71.98,6.94,2.93,49.71,21.76,66.09,68.62,15.25,43.63-3.39,80.04-7.15,87.04.3.49.59,1.03.91,1.61,2.61,4.69,5.84,12.23,6.24,21.83Z"/>
    <path class="cls-8" d="M1001.02,359.86c13.16,13.29,34.15,32.54,63.04,51.21,31.41,20.31,120.94,71.47,238.3,59.66,22.8-2.29,56.85-7.99,96.54-23.83-4.93,5.34-12.78,12.68-23.94,18.9-5.29,2.94-13.22,6.7-29.33,10.64-23.48,5.74-42.48,6.53-47.89,6.72-56.81,2-109.54-9.13-109.54-9.13-40.37-8.52-68.24-20.15-91.49-29.84-11.31-4.72-34.73-14.9-58.03-33.05-9-7.01-16.57-14.1-23.5-23.77-7.5-10.47-11.73-20.44-14.16-27.5Z"/>
    <path class="cls-18" d="M1474.47,210.82c1.31,7.59,2.17,19.72-2.53,32.96-12.37,34.86-51.53,44.42-55.16,45.24-.92-8.98-2.85-20.21-6.94-32.68-3.95-12.05-8.82-21.96-13.24-29.59,5,2.87,18.08,9.46,35.35,7.88,25.39-2.33,39.96-20.53,42.51-23.82Z"/>
    <path class="cls-18" d="M1027.04,117c-4.26,6.41-9.94,17.16-10.99,31.18-2.76,36.89,29.2,61.44,32.19,63.66,4.46-7.84,10.77-17.34,19.54-27.1,8.48-9.43,16.94-16.52,24.06-21.72-5.73.61-20.37,1.36-35.52-7.07-22.28-12.38-28.27-34.92-29.27-38.96Z"/>
    <path class="cls-7" d="M1066.84,187.27c-16.6-17.45-12.65-43.94,2.52-54.19,13.74-9.27,36.7-5.24,48.56,12.72-7.77,4.29-16.63,9.9-25.84,17.21-10.54,8.37-18.85,16.83-25.24,24.25Z"/>
    <path class="cls-7" d="M1410.28,263.66c22.25-8.69,30.29-34.47,20.55-51.22-8.98-15.43-32.26-21.82-50.84-10.34,5.59,7.47,11.72,16.84,17.39,28.14,6.2,12.36,10.23,23.83,12.9,33.41Z"/>
    <path class="cls-24" d="M1383.12,460.68c3.58,16.35,20.4,24.17,23.93,25.81,16.79,7.81,39.73,6.36,55.23-8.37,14.58-13.85,22.65-39.52,10.04-56.91-12.96-17.88-39.52-15.59-54.24-10.04-19.67,7.42-39.52,28.69-34.96,49.51Z"/>
    <path class="cls-10" d="M153.17,1182.4c0-.37-.02-.75-.03-1.12-.66-16.73-1.17-34.43-1.49-53.07-.18-9.8-.3-19.87-.34-30.19-.54-106.43,5.71-239.42,29.1-390.6,1.03-6.7,2.1-13.39,3.18-20.02,26.93-165.36,66.86-307.96,77.2-306.36,9.7,1.49-15.85,128.37-23.48,321.86-1.95,48.9-2.74,102.05-1.53,158.5,1.76,81.75,7.39,154.76,14.1,216.34.98,9.21,2.02,18.18,3.07,26.87,3.41,28.53,7.01,54.19,10.42,76.67.07.35.11.71.16,1.06l-110.35.06Z"/>
    <path class="cls-24" d="M1031.73,377.57c32.79-8.09,68.8,57.16,74.14,66.83,12.83,23.25,25.25,45.75,15.55,63.75-11.7,21.7-49.75,26.05-75.58,15.49-37.16-15.2-51.49-62.08-45.45-96.79.85-4.88,8.22-43.57,31.35-49.28Z"/>
    <path class="cls-10" d="M228.99,469.42c-4.22,17.11-8.43,34.21-12.65,51.32-79.97-108.88-116.96-165.49-110.96-169.82,5.47-3.95,46.67,35.55,123.6,118.5Z"/>
    <path class="cls-2" d="M1926.99,667.25c43.81-68.06,87.62-136.13,131.43-204.19,116.41-.56,232.82-1.12,349.23-1.67v209.21c-160.22-1.12-320.44-2.23-480.66-3.35Z"/>
    <path class="cls-2" d="M2409.51,896.89v230.6h-125.56c-2.93-10.69-6.06-24.07-8.55-39.71-3.38-21.37-5.5-46.99-4.05-75.75,2.64-52.36,4.32-85.83,32.4-107.11,27.5-20.85,72.12-23.81,103.89-8.92.32.13.63.28.93.44.32.15.63.29.93.44Z"/>
    <rect class="cls-2" x="2080.03" y="724.32" width="129.63" height="162.37"/>
    <path class="cls-20" d="M909.32,1140.91c-14.19-8.37-11.07-22.91-21.76-31.8-6.32-5.26-17.84-8.84-40.57-2.34,6.59-6.51,17.62-15.2,33.1-18.73,7.67-1.75,17-3.88,24.21.99,10.33,6.97,9.29,23.56,11.72,23.43,3.02-.16-1.23-25.43,11.72-41.84,7.71-9.78,19.2-13.46,26.78-15.06-10.47,6.47-15.69,17.97-13.39,28.45,1.22,5.55,5.36,14.49,12.68,16.04,13.06,2.76,22.3-20.96,34.19-19.39,6.34.84,13.84,8.92,20.08,38.5-9.45-11.45-17.29-13.25-21.76-13.39-17.74-.55-38.95,23.31-43.52,28.45-3.26,3.67-6.89,8.23-13.39,10.04-9.59,2.67-18.69-2.53-20.08-3.35Z"/>
    <path class="cls-20" d="M1477.54,1147.74c-14.19-8.37-11.07-22.91-21.76-31.8-6.32-5.26-17.84-8.84-40.57-2.34,6.59-6.51,17.62-15.2,33.1-18.73,7.67-1.75,17-3.88,24.21.99,10.33,6.97,9.29,23.56,11.72,23.43,3.02-.16-1.23-25.43,11.72-41.84,7.71-9.78,19.2-13.46,26.78-15.06-10.47,6.47-15.69,17.97-13.39,28.45,1.22,5.55,5.36,14.49,12.68,16.04,13.06,2.76,22.3-20.96,34.19-19.39,6.34.84,13.84,8.92,20.08,38.5-9.45-11.45-17.29-13.25-21.76-13.39-17.74-.55-38.95,23.31-43.52,28.45-3.26,3.67-6.89,8.23-13.39,10.04-9.59,2.67-18.69-2.53-20.08-3.35Z"/>
    <rect class="cls-23" x="2005.76" y="1029.07" width="99.02" height="26.49"/>
    <rect class="cls-23" x="2055.27" y="1000.38" width="99.02" height="26.49"/>
  </g>
</svg>