<?xml version="1.0" encoding="UTF-8"?>
<svg id="Layer_2" data-name="Layer 2" xmlns="http://www.w3.org/2000/svg" viewBox="0 0 1364.84 768.95">
  <defs>
    <style>
      .cls-1 {
        fill: #42c148;
      }

      .cls-2 {
        font-size: 38px;
      }

      .cls-2, .cls-3, .cls-4 {
        font-family: Luckiest Guy, 'Super Funtime';
      }

      .cls-5 {
        fill: #6c2d00;
      }

      .cls-3 {
        font-size: 42.63px;
      }

      .cls-6 {
        fill: #6e463e;
      }

      .cls-7 {
        fill: #851c24;
      }

      .cls-8 {
        fill: #fff;
      }

      .cls-4 {
        font-size: 91.65px;
      }

      .cls-9 {
        fill: #f0f0f0;
      }

      .cls-10 {
        letter-spacing: -.07em;
      }

      .cls-11 {
        fill: #843d00;
      }

      .cls-12 {
        fill: #74cd6e;
      }

      .cls-13 {
        letter-spacing: -.02em;
      }

      .cls-14 {
        fill: #459900;
      }

      .cls-15 {
        fill: #231f20;
      }

      .cls-16 {
        fill: #1b1b1a;
      }

      .cls-17 {
        fill: #94e9ff;
      }

      .cls-18 {
        letter-spacing: -.01em;
      }

      .cls-19 {
        fill: #cda986;
      }

      .cls-20 {
        fill: #414042;
      }

      .cls-21 {
        letter-spacing: -.01em;
      }

      .cls-22 {
        fill: #a26b4a;
      }

      .cls-23 {
        fill: #ddc9a6;
      }
    </style>
  </defs>
  <g id="Layer_1-2" data-name="Layer 1">
    <path class="cls-17" d="M1363.71,0v692.12H.2v.7c-.07,25.11-.13,50.23-.2,75.35V0h1363.71Z"/>
    <path class="cls-8" d="M1363.9,768.17c0-2.08,0-4.16.01-6.24.02-9.58.04-19.16.06-28.74v-1.36c.1-49.63.2-99.25.31-148.88.1-49.24.2-98.47.3-147.71.09-41.44.18-82.88.26-124.32-.35.07-.72.16-1.13.25-8.54,1.92-29.97,8.11-47.85,28.04-18.92,21.11-22.12,44.52-22.85,52.25-8.2-4.5-57.67-30.59-116.46-10.89-49.77,16.68-73.64,55.25-79.45,65.31-13.98-3.95-53.04-12.99-97.96,3.26-55.71,20.16-81.13,64.99-87.07,76.19-4.36-2.48-11.16-6.11-20.05-9.78-8.82-3.64-19.7-7.32-32.28-9.96-15.12-3.17-32.71-4.84-52.16-3.12-8.69.77-16.92,2.14-24.65,3.95-3.71.86-7.3,1.83-10.78,2.88-36.96,11.13-61.06,31.55-69.88,39.6-11.7-4.78-51.5-19.36-99.3-5.07-40.74,12.18-64.41,38.49-72.93,48.98-7.08-5.07-50.74-35.21-107.75-22.86-45.81,9.94-71.46,41.08-78.36,50.07-.11-9-1.57-41.76-26.12-65.3-29.63-28.41-80.9-31.93-124.08-5.45.69-8.92,2.2-42.13-20.68-69.65-25.56-30.74-71.15-41.87-114.28-27.21.94-2.32,8.5-21.93-2.18-39.18-10.36-16.74-33.57-24.28-55.51-16.33-.27,113.17-.54,226.34-.8,339.51-.02,7.61-.04,15.23-.06,22.85-.01,2.97-.01,5.94-.02,8.91h1363.7Z"/>
    <path class="cls-6" d="M570.06,330.51c12.43,48.15,23.69,105.6,29.65,170.87,6.48,70.99,5.12,134.23.72,186.95,7.62-5.04,10.21-5.36,11.07-4.53,1.11,1.07-.14,4.55-.31,4.53-.16-.02.21-3.06.31-4.53,5.6-80.62-1.03-182.42-1.03-182.42-3.03-46.55-8.73-104.39-19.72-170.87h-7.62c-4.35,0-8.71,0-13.06,0Z"/>
    <path class="cls-1" d="M1364.83,733.19c-.37,11.66-.75,23.32-1.12,34.98-454.5.26-909.01.52-1363.51.78,454.5-.26,909.01-.52,1363.51-.78H.2v.78c-.07-10.82-.13-21.65-.2-32.47.09-.02.19-.05.28-.07,151.95-39.21,353.34-80.3,577.53-94.75,46.66-3.02,94.31-4.87,142.7-5.31,16.84-.15,33.21-.13,49.08.05,3.36.03,6.7.07,10.01.12,7.65.11,15.17.26,22.58.44,19.03.47,37.27,1.14,54.65,1.97,12.37.59,24.3,1.26,35.79,1.99,91.72,5.85,155.11,15.63,182.24,20.08,11.59,1.9,22.99,3.88,34.2,5.92,4.1.75,8.17,1.51,12.21,2.27,20.47,3.88,40.27,7.97,59.36,12.22,21.89,4.87,57.46,12.78,103.14,25.94,22.04,6.35,49.56,14.82,81.06,25.84Z"/>
    <path class="cls-12" d="M1263.62,739.74c-.37,9.86-18.72,18.84-47.08,28.43H.2v.78c-.01-.26-.01-.52-.02-.78-.06-2.95-.12-5.89-.18-8.84.07-.02.15-.04.22-.07,76.32-22.55,182.92-50.68,312.15-73.94,73.78-13.27,162.32-28.99,265.44-37.65,59.17-4.97,123.15-7.62,191.89-6.14,3.35.07,6.71.15,10.09.25.19,0,.39,0,.58.01,7.27.2,14.54.44,21.81.73,18.23.72,36.43,1.7,54.5,2.92,12.06.81,24.06,1.73,35.97,2.75,79.36,6.76,154.65,17.82,216.41,30.63,3.96.81,7.87,1.64,11.71,2.47,7.76,1.69,15.27,3.39,22.53,5.12,63.94,15.23,107.96,32.07,118.1,46.78,1.54,2.23,2.3,4.42,2.22,6.55Z"/>
    <path class="cls-20" d="M625.55,294.59c-6.44,13.03-10.49,24.49-13.08,33.07-11.1,36.8-5.85,55.6-4.45,60.19.06.2.11.34.13.42,12.64,40.87,84.98,53.96,109.55,21.97,14.19-18.48,14.44-47.23,14.43-50.33,0-.06,0-.11,0-.16-.06-17.12-3.68-31.81-9.17-44.38-14.31-.6-31.31-2.35-50.13-6.4-18.36-3.95-34.22-9.19-47.29-14.38Z"/>
    <path class="cls-8" d="M620.7,383.11c-.41-6.13-.32-18.59,6.83-31.69,3.1-5.67,8.26-15.08,19.2-20.52,18.86-9.38,46.98-2.55,58.59,13.75,5.57,7.82,6.28,16.25,6.86,23.07,1.13,13.52-2.5,24.27-5.1,30.27-3.74,1.27-7.1,2.13-9.91,2.71-35.28,7.36-65.05-10.12-68.83-12.41-3.42-2.08-6.05-3.99-7.64-5.19Z"/>
    <path class="cls-16" d="M645.72,304.46c.26-.72,12.43,4.54,32.38,8.38,23.65,4.55,39.27,3.45,39.27,4.29,0,.91-18.23,3.81-39.52-.47-18.36-3.69-32.41-11.41-32.13-12.2Z"/>
    <path class="cls-22" d="M485.42,725.59c6.94,8.16,17.3,11.59,26.12,8.71,6.94-2.27,10.69-7.7,11.97-9.8-.72-148.39-1.43-296.77-2.15-445.16-.6-.73-5.77-6.82-14.18-6.52-6.81.24-11.08,4.51-11.97,5.44-3.27,149.11-6.53,298.22-9.8,447.33Z"/>
    <path class="cls-22" d="M854.93,725.59c6.94,8.16,17.3,11.59,26.12,8.71,6.94-2.27,10.69-7.7,11.97-9.8-.72-148.39-1.43-296.77-2.15-445.16-.6-.73-5.77-6.82-14.18-6.52-6.81.24-11.08,4.51-11.97,5.44-3.27,149.11-6.53,298.22-9.8,447.33Z"/>
    <rect class="cls-23" x="1109.06" y="435.24" width="255.78" height="297.95"/>
    <rect class="cls-22" x="438.62" y="302.21" width="487.6" height="28.3"/>
    <path class="cls-6" d="M813.03,330.51c-12.43,48.15-23.69,105.6-29.65,170.87-6.48,70.99-5.12,134.23-.72,186.95-7.62-5.04-10.21-5.36-11.07-4.53-1.11,1.07.14,4.55.31,4.53.16-.02-.21-3.06-.31-4.53-5.6-80.62,1.03-182.42,1.03-182.42,3.03-46.55,8.73-104.39,19.72-170.87h20.68Z"/>
    <rect class="cls-22" x="577.81" y="620.28" width="224.37" height="83.94"/>
    <rect class="cls-22" x="578.1" y="512.2" width="224.37" height="83.94"/>
    <rect class="cls-22" x="537.08" y="374.23" width="304.29" height="113.83"/>
    <text class="cls-4" transform="translate(599.88 458.68)"><tspan x="0" y="0">Main</tspan></text>
    <text class="cls-2" transform="translate(592.64 567.22)"><tspan class="cls-18" x="0" y="0">P</tspan><tspan x="18.89" y="0">en</tspan><tspan class="cls-13" x="57.72" y="0">g</tspan><tspan class="cls-10" x="78.39" y="0">a</tspan><tspan x="98.91" y="0">turan</tspan></text>
    <text class="cls-3" transform="translate(625.89 678.11)"><tspan class="cls-21" x="0" y="0">K</tspan><tspan x="21.19" y="0">eluar</tspan></text>
    <path class="cls-8" d="M565.5,185.17c-4.06,3.4-11.47,10.59-14.85,21.88-4.35,14.54.56,27.24,2.74,32.88,11.92,30.82,64.48,57.41,119.45,69.04,55.42,11.73,114.49,8.53,136.04-14.63,11.8-12.68,14.58-26.96,14.58-26.96,2.52-12.93-.78-23.73-2.79-28.95,2.54-10.68,10.6-50.32-11.17-90.97-27.78-51.88-81.67-63.45-92.65-65.52-11.63-2.19-58.95-10.3-101.83,21.35-39.86,29.42-47.99,72.58-49.52,81.88Z"/>
    <path class="cls-20" d="M663.95,209.13c-.66,2.66-4.77,18.06-19.73,26.57-17.31,9.84-42.99,6.95-54.13-9.32-9.46-13.82-3.9-30.7-3.17-32.79,8.18-23.59,40.4-42.08,61.36-29.88,14.38,8.37,19.75,29.01,15.67,45.43Z"/>
    <path class="cls-20" d="M719.46,220.84c-.47,2.7-2.93,18.45,7.32,32.27,11.86,15.99,36.53,23.72,53.28,13.33,14.24-8.83,15.97-26.51,16.15-28.72,2.04-24.88-19.96-54.81-44.07-52.12-16.54,1.85-29.78,18.57-32.68,35.24Z"/>
    <circle class="cls-8" cx="640.48" cy="204.26" r="24.01"/>
    <circle class="cls-8" cx="742.91" cy="225.86" r="24.01"/>
    <path class="cls-15" d="M678.56,228.48c2.78-4.43,19.97-1.16,20.88,3.85.61,3.36-5.66,10.12-12.9,8.4-6.71-1.59-9.77-9.4-7.98-12.25Z"/>
    <path class="cls-7" d="M699.7,251.46c-.99.2-3.03.48-5.33-.34-1.5-.53-2.48-1.31-2.92-1.66-3.47-2.79-4.2-7.32-4.37-8.62-.76,1.2-3.32,4.94-7.68,6.08-1.59.42-3.12.41-3.54.4-2.44-.04-4.35-.73-5.48-1.24,0,0,0,0,0,0,0,0,5.06,16.58,12.33,18.28,3.18.75,8.37-.98,16.99-12.9Z"/>
    <path class="cls-9" d="M715.47,104.45c1.19.39,3.27-7.02,8.52-12.29,4.2-4.21,9.65-5.74,13.94-6.33-1.85-.81-5.94-2.28-11.12-1.6-7.32.96-11.76,5.57-12.98,6.92.03-1.83.38-5.68,3.02-9.22,3.67-4.92,10.25-7.23,17.04-6.15-6.2-4.99-14.48-6.04-21.09-2.68-6.35,3.23-8.66,9.63-9.66,12.42-2.88,8.02-.98,15.84-.38,15.86.29.01.26-1.76,1.31-5.75.98-3.76,1.96-7.34,4.58-10.71,1.4-1.8,2.86-3.02,3.86-3.76-.65,1.25-1.32,2.85-1.75,4.76-1.11,4.89-.03,9.03.69,11.14.91-1.4,2.38-3.32,4.62-5.11,4.18-3.33,9.03-4.57,9.22-4.17.14.28-2.58,1.1-5.49,4.03-4.07,4.12-4.57,8.43-4.65,9.31-.09.97-.3,3.11.32,3.31Z"/>
    <path class="cls-8" d="M1363.71,33.1c-1.57-1.58-3.24-2.98-5.02-4.23-12.12-8.49-26.33-7.49-43.86-6.03-39.02,3.26-67.55,20.42-82.39,31.07-9.19-5.21-31.16-16.06-60.95-15.24-31.99.9-54.5,14.73-63.13,20.69-9.51-4.76-42.87-19.98-83.81-9.79-26.96,6.7-44.85,21.37-53.33,29.38-13.73-4.27-43.81-11.32-76.19,1.09-14.46,5.55-34.33,16.87-46.79,31.18-7.94,9.1-12.87,19.42-11.5,30.22.45,3.52,1.52,6.78,3.01,9.75,3.46,6.96,9.17,12.4,14.23,16.26.17.14.35.27.52.39,3.83,2.86,7.24,4.81,8.97,5.79,29.44,16.76,61.15,2.97,65.3,1.09,22.72,5.58,56.82,11.15,97.94,7.4,34.1-3.11,61.92-11.62,81.64-19.36,20.82,7.89,83.65,28.51,151.29,2.17,22.67-8.82,40.34-20.76,53.33-31.56,26.48,13.56,41.14,7.17,44.63,5.44,2.18-1.09,4.22-2.45,6.11-4.06V33.1Z"/>
    <path class="cls-20" d="M583.03,138.38c5.03-8.33,13.93-20.83,28.45-32.36,14.57-11.57,28.81-17.43,38.07-20.43-.53-1.49-10.01-26.86-34.01-31.68-24.55-4.93-50.92,14.32-54.2,39.46-2.22,16.97,6.37,34.34,21.69,45.02Z"/>
    <path class="cls-20" d="M821.91,188.75c-1.23-9.65-4.34-24.68-12.96-41.1-8.66-16.47-19.32-27.58-26.58-34.07,1.09-1.15,20.01-20.53,43.9-15.25,24.45,5.4,40.8,33.66,33.66,57.99-4.82,16.42-19.7,28.85-38.02,32.43Z"/>
    <ellipse class="cls-15" cx="652.24" cy="207.82" rx="12.97" ry="10.25" transform="translate(314.3 803.14) rotate(-78.09)"/>
    <ellipse class="cls-15" cx="731.85" cy="224.61" rx="12.97" ry="10.25" transform="translate(361.06 894.36) rotate(-78.09)"/>
    <ellipse class="cls-8" cx="656.71" cy="201.56" rx="4.08" ry="4.99" transform="translate(323.98 802.55) rotate(-78.09)"/>
    <path class="cls-8" d="M272.41,195.43c18.23-11.88,39.71-7.94,53.33-5.44,9.11,1.67,22.82,5.32,38.09,14.15,4.58-2.81,17.4-9.85,34.83-8.71,21.29,1.39,34.71,14.02,38.09,17.41,7.4-1.68,19.42-3.45,33.74-1.09,2.68.44,29.02,4.79,29.53,12.81.5,7.86-23.86,17.67-45.85,20.93-30.56,4.53-36.72-6.55-76.19-8.71-35.53-1.94-41.1,6.45-75.1,1.09-12.77-2.01-44.6-7.04-46.8-20.68-1.62-10.07,13.67-20.04,16.33-21.77Z"/>
    <ellipse class="cls-8" cx="729.66" cy="216.94" rx="4.08" ry="4.99" transform="translate(366.83 886.14) rotate(-78.09)"/>
    <path class="cls-14" d="M297.13,202.08c.47,11.94-5.68,20.38-7.62,22.85,1.99,6.87,4.64,19.43,2.18,34.83-2.97,18.52-11.74,31.22-16.33,37.01,1.58,10.73,2.75,29.93-5.44,51.15-3.8,9.84-10.1,26.18-27.21,38.09-16.24,11.31-33.14,12.31-40.28,12.32-5.79,5.48-14.06,12.2-25.02,18.16-12.11,6.58-23.28,9.94-31.53,11.75h-.01c-2.89.43-15.24,2.07-30.82-1.27-.97-.21-1.95-.44-2.94-.68-11.45-2.86-29.15-9.68-62.04-44.62-18.95-20.13-35.52-37.74-50.07-64.56V82.67c8.76-15.93,20.91-30.52,40.27-38.41,31.34-12.77,62.69-.26,72.92,4.36,6.32-8.47,22.2-27.19,48.98-34.84,28.12-8.02,71.57-4.8,89.24,25.03,10.6,17.9,7.49,37.88,5.45,46.81,4.23,1.91,30.29,14.15,40.27,44.62,9.29,28.37-2.07,52.05-4.36,56.6.18.32.36.67.55,1.04,1.59,3.05,3.56,7.95,3.8,14.2Z"/>
    <path class="cls-9" d="M552.26,234.01c8.56,8.64,22.21,21.16,40.99,33.3,20.43,13.21,78.64,46.47,154.96,38.8,14.83-1.49,36.97-5.2,62.78-15.5-3.21,3.48-8.31,8.24-15.57,12.29-3.44,1.92-8.6,4.36-19.07,6.92-15.27,3.73-27.62,4.25-31.14,4.37-36.94,1.3-71.23-5.94-71.23-5.94-26.25-5.54-44.38-13.1-59.5-19.41-7.35-3.07-22.58-9.69-37.74-21.49-5.85-4.56-10.77-9.17-15.28-15.46-4.88-6.81-7.63-13.29-9.21-17.88Z"/>
    <path class="cls-16" d="M860.14,137.1c.85,4.93,1.41,12.82-1.65,21.44-8.04,22.67-33.51,28.89-35.87,29.42-.6-5.84-1.85-13.14-4.51-21.25-2.57-7.83-5.74-14.28-8.61-19.24,3.25,1.87,11.76,6.15,22.99,5.12,16.51-1.52,25.99-13.35,27.65-15.49Z"/>
    <path class="cls-16" d="M569.18,76.08c-2.77,4.17-6.47,11.16-7.15,20.28-1.8,23.99,18.99,39.96,20.93,41.4,2.9-5.1,7-11.27,12.71-17.62,5.51-6.13,11.01-10.75,15.65-14.12-3.73.39-13.24.88-23.1-4.6-14.49-8.05-18.39-22.7-19.04-25.33Z"/>
    <path class="cls-8" d="M595.07,121.78c-10.79-11.35-8.23-28.58,1.64-35.24,8.93-6.03,23.87-3.41,31.58,8.27-5.05,2.79-10.81,6.44-16.8,11.19-6.85,5.44-12.26,10.95-16.42,15.77Z"/>
    <path class="cls-8" d="M818.4,171.45c14.47-5.65,19.7-22.42,13.37-33.31-5.84-10.03-20.98-14.19-33.06-6.72,3.63,4.86,7.62,10.95,11.31,18.3,4.03,8.04,6.65,15.5,8.39,21.73Z"/>
    <path class="cls-20" d="M800.73,299.58c2.33,10.63,13.26,15.71,15.56,16.78,10.92,5.08,25.84,4.13,35.92-5.44,9.48-9.01,14.73-25.7,6.53-37.01-8.43-11.63-25.7-10.14-35.27-6.53-12.79,4.82-25.7,18.65-22.74,32.19Z"/>
    <path class="cls-11" d="M93.33,768.9c0-.24-.01-.49-.02-.73-.4-10.88-.71-22.39-.91-34.51-.11-6.37-.18-12.92-.21-19.63-.33-69.21,3.48-155.69,17.73-254,.63-4.36,1.28-8.71,1.94-13.02,16.41-107.53,40.74-200.26,47.04-199.22,5.91.97-9.66,83.48-14.31,209.3-1.19,31.8-1.67,66.36-.93,103.07,1.07,53.16,4.5,100.64,8.59,140.68.6,5.99,1.23,11.82,1.87,17.47,2.08,18.55,4.27,35.24,6.35,49.86.04.23.07.46.1.69l-67.24.04Z"/>
    <path class="cls-20" d="M572.23,245.53c21.32-5.26,44.74,37.17,48.21,43.46,8.34,15.12,16.42,29.75,10.11,41.45-7.61,14.11-32.35,16.94-49.15,10.07-24.17-9.88-33.49-40.37-29.56-62.94.55-3.18,5.34-28.34,20.38-32.05Z"/>
    <path class="cls-11" d="M139.53,305.26c-2.57,11.12-5.14,22.25-7.71,33.37-48.73-70.81-71.26-107.62-67.61-110.43,3.33-2.57,28.44,23.12,75.31,77.06Z"/>
    <path class="cls-5" d="M1073.15,433.9c26.48-44.26,52.97-88.52,79.45-132.78,70.37-.36,140.74-.73,211.11-1.09v136.05c-96.85-.73-193.71-1.45-290.56-2.18Z"/>
    <path class="cls-5" d="M1364.84,583.24v149.96h-75.9c-1.77-6.95-3.67-15.66-5.17-25.82-2.05-13.9-3.33-30.55-2.45-49.26,1.6-34.05,2.61-55.81,19.59-69.66,16.63-13.56,43.6-15.48,62.8-5.8.19.09.38.18.56.29.19.1.38.19.56.29Z"/>
    <rect class="cls-5" x="1165.67" y="471.02" width="78.36" height="105.59"/>
    <rect class="cls-19" x="1120.77" y="669.19" width="59.86" height="17.22"/>
    <rect class="cls-19" x="1150.7" y="650.53" width="59.86" height="17.22"/>
  </g>
</svg>