<?xml version="1.0" encoding="UTF-8"?>
<svg id="Layer_2" data-name="Layer 2" xmlns="http://www.w3.org/2000/svg" viewBox="0 0 2412.43 1172.47">
  <defs>
    <style>
      @font-face {
        font-family: 'Luckiest Guy';
        src: url('../Font/LuckiestGuy-Regular.ttf') format('truetype');
        font-weight: 400;
        font-style: normal;
      }

      .cls-1 {
        fill: #42c148;
      }

      .cls-2 {
        fill: #6c2d00;
      }

      .cls-3 {
        font-size: 137.64px;
      }

      .cls-3, .cls-4, .cls-5 {
        font-family: LuckiestGuy-Regular, 'Luckiest Guy';
      }

      .cls-6 {
        letter-spacing: -.02em;
      }

      .cls-4 {
        font-size: 57px;
      }

      .cls-7 {
        fill: #fff;
      }

      .cls-8 {
        fill: #74cd6e;
      }

      .cls-9 {
        fill: #94e9ff;
      }

      .cls-10 {
        letter-spacing: -.02em;
      }

      .cls-5 {
        font-size: 64px;
      }

      .cls-11 {
        fill: #414042;
      }

      .cls-12 {
        letter-spacing: -.01em;
      }

      .cls-13 {
        letter-spacing: 0em;
      }

      .cls-14 {
        fill: #a26b4a;
      }

      .cls-15 {
        fill: #ddc9a6;
      }
    </style>
  </defs>
  <g id="Layer_1-2" data-name="Layer 1">
    <path class="cls-9" d="M2410.43,0v1055.31H.36v1.07c-.12,38.29-.23,76.59-.35,114.89V0h2410.43Z"/>
    <path class="cls-7" d="M2410.76,1171.28c0-3.17,0-6.34.02-9.51.04-14.61.07-29.21.11-43.82v-2.07c.18-75.67.35-151.33.55-227.01.18-75.08.35-150.14.53-225.22.16-63.19.32-126.37.46-189.56-.62.11-1.27.24-2,.38-15.09,2.93-52.97,12.37-84.58,42.75-33.44,32.19-39.1,67.88-40.39,79.67-14.49-6.86-101.93-46.64-205.85-16.6-87.97,25.43-130.16,84.24-140.43,99.58-24.71-6.02-93.75-19.81-173.15,4.97-98.47,30.74-143.4,99.09-153.9,116.17-7.71-3.78-19.73-9.32-35.44-14.91-15.59-5.55-34.82-11.16-57.06-15.19-26.73-4.83-57.82-7.38-92.2-4.76-15.36,1.17-29.91,3.26-43.57,6.02-6.56,1.31-12.9,2.79-19.05,4.39-65.33,16.97-107.93,48.11-123.52,60.38-20.68-7.29-91.03-29.52-175.52-7.73-72.01,18.57-113.85,58.69-128.91,74.68-12.51-7.73-89.69-53.69-190.45-34.86-80.97,15.16-126.31,62.64-138.51,76.34-.19-13.72-2.78-63.67-46.17-99.57-52.37-43.32-142.99-48.69-219.32-8.31,1.22-13.6,3.89-64.24-36.55-106.2-45.18-46.87-125.76-63.84-202-41.49,1.66-3.54,15.02-33.44-3.85-59.74-18.31-25.52-59.34-37.02-98.12-24.9-.48,172.56-.95,345.11-1.41,517.67-.04,11.6-.07,23.22-.11,34.84-.02,4.53-.02,9.06-.04,13.59h2410.41Z"/>
    <path class="cls-1" d="M2412.41,1117.94c-.66,17.78-1.32,35.56-1.98,53.34-803.36.4-1606.72.79-2410.07,1.19,803.36-.4,1606.72-.79,2410.07-1.19H.35v1.19c-.12-16.5-.24-33.01-.35-49.51.16-.03.34-.08.49-.11,268.58-59.79,624.55-122.44,1020.81-144.47,82.47-4.6,166.7-7.43,252.23-8.1,29.77-.23,58.7-.2,86.75.08,5.94.05,11.84.11,17.69.18,13.52.17,26.81.4,39.91.67,33.64.72,65.88,1.74,96.6,3,21.86.9,42.95,1.92,63.26,3.03,162.12,8.92,274.17,23.83,322.12,30.62,20.49,2.9,40.64,5.92,60.45,9.03,7.25,1.14,14.44,2.3,21.58,3.46,36.18,5.92,71.18,12.15,104.92,18.63,38.69,7.43,101.56,19.49,182.31,39.55,38.95,9.68,87.61,22.6,143.28,39.4Z"/>
    <path class="cls-8" d="M326.16,1112.68c.61,15.03,30.83,28.73,77.53,43.35h2002.94v1.19c.02-.4.02-.79.03-1.19.1-4.5.2-8.98.3-13.48-.12-.03-.25-.06-.36-.11-125.68-34.38-301.21-77.27-514.02-112.74-121.49-20.23-267.29-44.2-437.1-57.41-97.43-7.58-202.79-11.62-315.98-9.36-5.52.11-11.05.23-16.62.38-.31,0-.64,0-.95.02-11.97.3-23.94.67-35.91,1.11-30.02,1.1-59.99,2.59-89.74,4.45-19.86,1.24-39.62,2.64-59.23,4.19-130.68,10.31-254.66,27.17-356.36,46.7-6.52,1.24-12.96,2.5-19.28,3.77-12.78,2.58-25.15,5.17-37.1,7.81-105.29,23.22-177.78,48.9-194.47,71.33-2.54,3.4-3.79,6.74-3.66,9.99Z"/>
    <path class="cls-7" d="M109.04,172.21c-13.65,20.02-35.38,26.7-47.95,30.64-26.22,8.22-49.14,5.24-60.25,3.07.81-52.42,1.62-104.83,2.44-157.25.21.08.41.17.61.24,57.28-.46,103.52,28.47,114.14,66.66.75,2.74,8.22,31.41-8.99,56.63Z"/>
    <rect class="cls-14" x="894.79" y="363.01" width="615.09" height="616.65" rx="57.06" ry="57.06"/>
    <rect class="cls-11" x="1229.58" y="432.01" width="233.58" height="69.59"/>
    <rect class="cls-15" x="2.05" y="664.17" width="418.63" height="454.31"/>
    <path class="cls-2" d="M476.17,662.13c-43.35-67.49-86.69-134.98-130.04-202.46-115.17-.55-230.35-1.11-345.52-1.66,0,69.15,0,138.29,0,207.44,158.52-1.11,317.04-2.21,475.56-3.32Z"/>
    <rect class="cls-2" x="245.61" y="718.65" width="119.49" height="160.99" transform="translate(610.7 1598.3) rotate(-180)"/>
    <path class="cls-2" d="M2.69,889.76c4.56,1.62,11.82,4.7,19.02,10.48,10.96,8.79,19.71,22.15,24.49,46.72,6.06,31.16,7.99,91.88,1.67,169.73-15.06.57-30.12,1.15-45.19,1.72v-228.65Z"/>
    <path class="cls-7" d="M481.34,293.14c19.68-4.25,47.74-10.01,82.53-3.38,20.31,3.87,35.59,10.57,45.16,15.55,6.19-3.25,29.72-14.74,61.71-11.65,26.93,2.6,44.38,14.03,50.41,18.39,22.43,13.17,35.07,31.65,29.59,44.14-7.04,16.05-46.51,27.95-90.32,12.26-9.99,4.61-45.17,19.53-88.76,12.26-20.5-3.42-35.74-10.56-45.16-15.94-3.75,1.43-36.07,13.26-66.96,0-22.23-9.54-41.95-31.32-34.66-47.81,5.69-12.86,25.43-17.12,56.46-23.82Z"/>
    <path class="cls-7" d="M1992.07,0c-1.77,39.72-56.22,75.37-64.99,81.12-95.97,62.8-213.98,5.5-225.77-.44-28.96,14.73-93.68,42.69-179.16,37.78-75.95-4.35-131.8-32.54-159.4-48.98-62.48,19.87-106.7,14-129.24,8.8-10.09-2.33-17.31-4.88-20.6-6.1-11.27-4.15-79-29.11-83.98-72.18h863.13Z"/>
    <text class="cls-3" transform="translate(911.76 281.95)"><tspan x="0" y="0">Se</tspan><tspan class="cls-13" x="152.42" y="0">t</tspan><tspan x="228.5" y="0">tings</tspan></text>
    <text class="cls-4" transform="translate(933.64 487.78)"><tspan x="0" y="0">Lang</tspan><tspan class="cls-10" x="134.37" y="0">u</tspan><tspan class="cls-12" x="168.27" y="0">a</tspan><tspan x="203.26" y="0">ge</tspan></text>
    <text class="cls-5" transform="translate(1076.17 636.93)"><tspan class="cls-6" x="0" y="0">V</tspan><tspan x="37.72" y="0">olume</tspan></text>
  </g>
</svg>