<?xml version="1.0" encoding="UTF-8"?>
<svg id="Layer_2" data-name="Layer 2" xmlns="http://www.w3.org/2000/svg" viewBox="0 0 89.73 47.22">
  <defs>
    <style>
      .cls-1 {
        fill: none;
      }

      .cls-1, .cls-2, .cls-3, .cls-4, .cls-5 {
        stroke: #000;
        stroke-miterlimit: 10;
      }

      .cls-6, .cls-2 {
        fill: #fff;
      }

      .cls-3 {
        fill: #724900;
      }

      .cls-7 {
        fill: #333;
      }

      .cls-5 {
        fill: #322900;
      }
    </style>
  </defs>
  <g id="Layer_1-2" data-name="Layer 1">
    <g>
      <path class="cls-4" d="M56.06,35.58l-3.17,6.35c.06.17.11.39,0,.53-.16.2-.55.11-1.06,0-1.76-.37-2.11-.37-2.12-.53-.02-.27,1.01-.52,1.06-.53.67-.16,1.24-.08,1.59,0,.71-2.12,1.41-4.23,2.12-6.35.53.18,1.06.35,1.59.53Z"/>
      <g>
        <path d="M43.37,28.17c-1.21,1.58-3.24,3.74-6.35,5.29-.93.46-1.82.8-2.64,1.06h-1.59c-1.76.35-3.53.71-5.29,1.06h-1.06c-.25.3-.6.69-1.04,1.13-.09.09-.57.59-1.08.99-1.15.9-2.5,1.76-2.64,1.59-.17-.2,1.14-1.6,2.12-2.64.86-.92,1.61-1.64,2.12-2.12v-1.06c1.59-.18,3.17-.35,4.76-.53v-.53c1.51,0,4.67-.19,7.93-2.12,2.05-1.21,3.41-2.66,4.23-3.7"/>
        <path d="M43.37,28.17c-2.16,3.1-5.35,5.59-8.99,6.69,0,0-1.59.03-1.59.03-1.39.34-3.61.8-5.29,1.12,0,0-1.06,0-1.06,0l.34-.16c-1.22,1.4-2.65,2.75-4.28,3.66-.3.13-.42.27-.85.26-1.22-.43.23-1.72.62-2.22.65-.75,2.59-2.66,3.33-3.38,0,0-.15.34-.15.34v-1.06s.01-.41.01-.41l.4-.04,4.76-.49-.37.41c0-.23.02-.72.02-.94,4.72.26,9.48-1.8,12.56-5.4-2.72,3.89-7.43,6.18-12.17,6.22,0,0,.41-.4.41-.4,0,.22.02.68.02.9,0,0-.38.05-.38.05l-4.76.57.4-.45c0,.13,0,1.14,0,1.24l-.15.15c-.99,1.01-2.84,2.85-3.71,3.95-.15.18-.33.42-.37.51.07-.19-.11-.47-.35-.5-.13-.01-.08,0-.05-.01.07-.02.19-.08.29-.13,1.53-.82,2.91-2.09,4.06-3.38,0,0,.15-.16.15-.16.1,0,1.12,0,1.25,0,1.31-.28,3.61-.7,5.26-.99,0,0,.03,0,.03,0l1.59.03c3.04-.85,6.76-3.21,8.99-6h0Z"/>
      </g>
      <path class="cls-5" d="M84.09,25c-.98,1.82-2.75,4.57-5.82,6.87-6.24,4.7-13.53,4.36-16.39,4.23-5.02-.23-12.59-1.82-17.45-3.7-.85-.33-3.25-1.3-6.35-1.06-1.83.14-3.3.66-4.23,1.06.67-.39,2.67-1.65,3.7-4.23.72-1.81.63-3.42.53-4.23,15.34.35,30.67.71,46.01,1.06Z"/>
      <path class="cls-1" d="M32.79,34.52c-.71-.53-1.41-1.06-2.12-1.59"/>
      <path class="cls-1" d="M49.18,28.17c.23.6.49,1.51.53,2.64.04,1.4-.28,2.51-.53,3.17"/>
      <path class="cls-1" d="M68.22,30.29c.22.73.42,1.62.53,2.64.13,1.23.09,2.31,0,3.17"/>
      <path class="cls-3" d="M28.56,17.59c1.87-.89,4.58-2.07,7.93-3.17,4.74-1.55,14.25-4.56,25.91-3.17,12.82,1.53,21.98,7.63,26.44,11.11-2.81,1.67-6.91,3.76-12.16,5.29-10.01,2.91-18.34,2.06-21.68,1.59-8.52-1.21-14.53-4.29-17.45-5.82-3.83-2-6.84-4.12-8.99-5.82Z"/>
      <path class="cls-5" d="M38.08,25.53c0,4.69-4.37,7.94-8.46,7.93-3.06,0-6.3-1.82-7.4-4.76-1.73-4.59,2.14-10.86,7.4-11.11,4.06-.19,8.46,3.22,8.46,7.93Z"/>
      <g>
        <path d="M52.36,32.4c-1.21,1.58-3.24,3.74-6.35,5.29-.93.46-1.82.8-2.64,1.06h-1.59c-1.76.35-3.53.71-5.29,1.06h-1.06c-.25.3-.6.69-1.04,1.13-.09.09-.57.59-1.08.99-1.15.9-2.5,1.76-2.64,1.59-.17-.2,1.14-1.6,2.12-2.64.86-.92,1.61-1.64,2.12-2.12v-1.06c1.59-.18,3.17-.35,4.76-.53v-.53c1.51,0,4.67-.19,7.93-2.12,2.05-1.21,3.41-2.66,4.23-3.7"/>
        <path d="M52.36,32.4c-2.16,3.11-5.34,5.59-8.99,6.69,0,0-1.59.03-1.59.03-1.39.34-3.61.8-5.29,1.12,0,0-1.06,0-1.06,0l.34-.16c-1.22,1.4-2.65,2.76-4.28,3.66-.3.13-.42.27-.85.26-1.22-.43.23-1.72.62-2.22.65-.75,2.59-2.66,3.33-3.38,0,0-.15.34-.15.34v-1.06s.01-.41.01-.41l.4-.04,4.76-.49-.37.41c0-.23.02-.72.02-.94,4.72.26,9.48-1.8,12.56-5.4-2.72,3.89-7.43,6.18-12.17,6.22,0,0,.41-.4.41-.4,0,.22.02.68.02.9,0,0-.38.04-.38.04l-4.76.57.4-.45c0,.13,0,1.14,0,1.24l-.15.15c-.99,1.01-2.84,2.85-3.71,3.95-.15.18-.33.42-.37.51.07-.19-.11-.47-.35-.5-.13-.01-.08,0-.05-.01.07-.02.19-.08.29-.13,1.53-.82,2.91-2.09,4.06-3.38,0,0,.15-.16.15-.16.1,0,1.12,0,1.25,0,1.31-.28,3.61-.7,5.26-.99,0,0,.03,0,.03,0l1.59.03c3.04-.84,6.76-3.21,8.99-6h0Z"/>
      </g>
      <path class="cls-1" d="M36.49,39.81c-.53-.71-1.06-1.41-1.59-2.12"/>
      <path class="cls-1" d="M41.78,38.75c-.71-.53-1.41-1.06-2.12-1.59"/>
      <path class="cls-4" d="M70.87,37.16c.18,1.23.35,2.47.53,3.7-1.48,1.5-1.69,1.97-1.59,2.12.15.2,1.02-.16,1.59-.53.53-.35.87-.77,1.06-1.06v-3.7c-.53-.18-1.06-.35-1.59-.53Z"/>
      <path class="cls-4" d="M66.11,33.46c-.26,1.02,2.49,2.52,3.7,3.17.82.45,2.07,1.05,3.7,1.59v6.35c.22.28.57.67,1.06,1.06.78.63,1.92,1.27,2.12,1.06.15-.17-.3-.79-.53-1.06-.54-.64-1.21-.93-1.59-1.06.35-2.29.71-4.58,1.06-6.87-2.64-1.57-4.49-2.79-5.82-3.7-.83-.57-2.18-1.53-3.17-1.06-.11.05-.45.21-.53.53Z"/>
      <g>
        <path d="M75.62,30.29c.89.53,2.13,1.15,3.7,1.59,1.92.53,3.6.59,4.76.53.53,1.94,1.06,3.88,1.59,5.82-.04.14-.08.34,0,.53.1.23.34.39,1.06.53.67.13,2.04.3,2.12,0,.04-.15-.27-.36-.53-.53-.61-.4-1.23-.5-1.59-.53-.35-2.29-.71-4.58-1.06-6.87-1.51-.59-3.28-1.16-5.29-1.59-1.12-.24-2.18-.41-3.17-.53"/>
        <path d="M75.62,30.29c2.72,1.4,5.76,2,8.73,1.72.63,2.02,1.2,4.05,1.78,6.08.05.13.03.14,0,.27-.05.17-.01.2,0,.21.62.3,1.73.4,2.39.35-.12.03-.22.3-.17.41.04.12.05.09.02.07-.56-.5-1.33-.73-2.08-.74-.36-2.42-.71-4.84-1-7.27l.23.29c-1.33-.57-2.7-1.04-4.09-1.44-1.39-.44-2.83-.66-4.24-1.02,2.93.22,5.83.74,8.6,1.77,0,0,.19.07.19.07.45,2.35.83,4.72,1.21,7.08l-.44-.41c.6.04,1.21.22,1.74.55.35.26.63.32.82.81.1.25-.12.65-.35.73-.29.14-.55.12-.82.12-.97-.1-1.75-.07-2.63-.61-.42-.33-.44-.94-.31-1.26v.27c-.51-1.95-1.03-3.89-1.49-5.85l.38.27c-3,.07-6.03-.78-8.48-2.49h0Z"/>
      </g>
      <path class="cls-1" d="M56.06,29.76c.23.6.49,1.51.53,2.64.04,1.4-.28,2.51-.53,3.17"/>
      <path class="cls-1" d="M62.4,30.29c.32.46,1,1.59,1.06,3.17.04,1.21-.3,2.15-.53,2.64"/>
      <path class="cls-1" d="M73.51,28.7c.34.52.83,1.42,1.06,2.64.21,1.12.11,2.06,0,2.64"/>
      <path class="cls-1" d="M79.33,27.11c.18.31.36.66.53,1.06.25.58.41,1.12.53,1.59"/>
      <path class="cls-1" d="M28.03,28.7c.19.88,1.05,1.28,1.59,1.06.46-.19.77-.88.53-1.59"/>
      <path d="M28.56,20.77C23.48,11.72,13.35,8.43,3.8,12.19c-1.31.45-2.57,1.04-3.8,1.7,9.78-7.32,23.74-4.91,28.56,6.87h0Z"/>
      <path d="M30.09,20.76c.11-3.96-.24-7.89-1.93-11.46-2.6-4.58-7.74-7.07-12.65-8.39-1.27-.31-2.56-.53-3.88-.72v-.1c1.33-.14,2.68-.12,4.03.05,5.47.63,10.2,4.22,12.79,9,2.28,3.36,3.01,7.77,1.75,11.63,0,0-.1-.02-.1-.02h0Z"/>
      <circle class="cls-2" cx="33.22" cy="23.36" r="4.21"/>
      <circle class="cls-7" cx="33.31" cy="23.23" r="3.24"/>
      <circle cx="33.1" cy="23.34" r="1.97"/>
      <circle class="cls-6" cx="34.54" cy="20.86" r="1.33"/>
      <circle class="cls-2" cx="23.59" cy="25.99" r="4.21"/>
      <circle class="cls-7" cx="23.68" cy="25.87" r="3.24"/>
      <circle cx="23.46" cy="25.97" r="1.97"/>
      <circle class="cls-6" cx="24.91" cy="23.5" r="1.33"/>
    </g>
  </g>
</svg>