<?xml version="1.0" encoding="UTF-8"?>
<svg id="Layer_2" data-name="Layer 2" xmlns="http://www.w3.org/2000/svg" viewBox="0 0 412.74 224.43">
  <defs>
    <style>
      .cls-1 {
        fill: none;
      }

      .cls-1, .cls-2, .cls-3, .cls-4, .cls-5, .cls-6, .cls-7 {
        stroke: #000;
        stroke-miterlimit: 10;
      }

      .cls-2 {
        fill: #2f401b;
      }

      .cls-8, .cls-3 {
        fill: #fff;
      }

      .cls-4 {
        fill: #202e16;
      }

      .cls-5 {
        fill: #172112;
      }

      .cls-9 {
        fill: #333;
      }

      .cls-6 {
        fill: #667d36;
      }

      .cls-7 {
        fill: #3f5e2c;
      }
    </style>
  </defs>
  <g id="Layer_1-2" data-name="Layer 1">
    <g>
      <path class="cls-4" d="M401.55,54.8c-.28,1.92-.05,4.74,1,5,1,.24,2.69-1.85,3-4,.35-2.38-.95-5.02-2-5-1.01.02-1.78,2.5-2,4Z"/>
      <path class="cls-6" d="M162.55,85.8c-70.17,3.21-93.63,10.26-100,17-.94.99-3.88,4.49-9,8-6.99,4.79-10.69,4.56-21,10-7.02,3.7-10.56,5.62-12,9-2.48,5.82.32,13.63,5,18,6,5.61,14.47,4.96,25,4,17.03-1.55,20.82-6.71,34-7,5.06-.11,10.66.51,24,5,28.46,9.57,38.74,18.76,57,26,15.69,6.22,27.66,7.19,50,9,20.92,1.69,62.28,4.6,104-14,3.02-1.34.56-.36,16-8,41.96-20.76,48.44-22.25,58-32,3.96-4.03,13.42-13.74,17-29,.98-4.19,1.98-10.76,1-19"/>
      <path class="cls-2" d="M3.55,92.8c-2.58-2.37-2.91-6.07-3-7-.37-4.07,1.4-7.07,2-8-1.95-3.41-.76-7.48,2-9,2.08-1.14,4.9-.76,7,1,2.07-1.13,8.56-4.34,17-3,6.64,1.06,11.1,4.39,13,6,2.88-.16,6.69-.04,11,1,2.29.55,4.3,1.27,6,2,2.34-1.06,5.83-2.22,10-2,4.83.25,6.86,2.16,10,1,2.07-.76,3.41-2.85,6-7,4.26-6.81,3.82-8.69,7-12,1.22-1.27,3.87-4.04,8-5,7-1.63,12.98,3.16,14,4,1.66.2,4.09.51,7,1,7.1,1.19,15.5,3.12,32,9,7.56,2.69,17.08,6.31,28,11,7.46-3.26,18.38-7.51,32-11,32.3-8.27,59.93-7.12,73-6,12.64,1.08,13.41,2.29,45,6,11.73,1.38,21.43,2.37,28,3,.51-1.25,1.19-3.38,1-6,0,0-.22-3.04-2-6-9.02-15.05-34-22-34-22-34.68-9.65-65.99-8.87-87-21-1.83-1.06-7.55-4.36-7-6,.73-2.17,12.02.01,19,1,20.63,2.93,26.13-1.38,51-2,15.93-.4,43.88-.82,73,12,9.9,4.36,16.36,7.2,23,14,14.73,15.08,20.6,39.6,14,60-6.06,18.74-20.75,28.12-40,40-21.94,13.54-39.72,18.25-74,27,0,0-56.32,14.38-102,7-3.42-.55-9.31-1.7-15-6-11.35-8.57-13.48-23.35-14-30,2.37-2.74,6.08-7.78,8-15,1.53-5.75,3.55-13.51-1-19-5.21-6.29-16.54-6.57-22-2-3.32,2.78-1.91,5.22-5,10-5.57,8.64-17.48,11.86-26,12-7.49.12-7.46-2.75-19-4-11.26-1.22-12,1.43-20,0-12.66-2.27-12.45-9.21-24-11-10.82-1.68-13.1,4.09-23,1-7.28-2.27-7.46-5.84-15-7-6.64-1.02-10.62,1.11-14-2Z"/>
      <path class="cls-1" d="M211.55,167.8c-1.95,2.4-5.5,6.12-11,9-7.1,3.71-13.7,4.06-17,4"/>
      <path class="cls-1" d="M184.55,163.8c-1.88,1.9-5.51,5.05-11,7-7.12,2.52-13.31,1.58-16,1"/>
      <path class="cls-1" d="M171.55,151.8c-3.95,1.79-8.63,3.57-14,5-9.3,2.47-17.59,3.06-24,3"/>
      <path class="cls-1" d="M164.55,129.8c-5.85,6.6-11.73,10.08-16,12-8.91,4.02-17.06,4.07-33,4-8.78-.04-16.03-.54-21-1"/>
      <path class="cls-1" d="M290.55,159.8c-.06,2.5-.46,6.06-2,10-2.77,7.06-7.59,11.2-10,13"/>
      <path class="cls-1" d="M311.55,154.8c-.62,2.96-1.76,6.84-4,11-3.5,6.52-8.03,10.69-11,13"/>
      <path class="cls-1" d="M369.55,131.8c-.59,2.58-1.51,5.66-3,9-1.88,4.22-4.1,7.55-6,10"/>
      <path class="cls-1" d="M386.55,120.8c-.34,2.6-.94,5.66-2,9-1.45,4.54-3.32,8.22-5,11"/>
      <path class="cls-1" d="M402.55,104.8c-.11,3.18-.58,7.34-2,12-1.91,6.27-4.78,10.96-7,14"/>
      <path class="cls-2" d="M316.55,118.8c-5.27,13.24-6.08,24.2-6,31,.11,10.1,2.2,13.8,4,16,4.85,5.93,12.45,6.82,15,7-1.34.64-3.9,2.1-6,5-2.68,3.71-2.97,7.53-3,9,2,.33,4,.67,6,1v5c3.67-.33,7.33-.67,11-1v2h10c.92.36,2.3.81,4,1,2.18.25,6.84.3,16-6,6.51-4.47,12.84-8.82,16-17,.94-2.43,2.3-6.08,1-10-1.07-3.24-3.45-5.15-6-7-4.09-2.97-10.33-7.01-19-11,2.08-2.62,5.03-6.97,7-13,2.03-6.22,2.17-11.62,2-15"/>
      <path d="M347.05,193.75c.51-4.92,4.05-9.09,8.5-10.96-4.18,2.11-7.34,6.32-7.5,11.04,0,0-1-.09-1-.09h0Z"/>
      <path d="M337.07,191.68c1.24-4.37,3.98-8.19,7.49-10.88-3.29,2.95-5.65,6.88-6.51,11.12l-.97-.24h0Z"/>
      <path d="M326.13,187.52c2.39-3.31,5.24-6.25,8.42-8.72-2.97,2.73-5.53,5.86-7.58,9.28l-.83-.55h0Z"/>
      <path d="M329.66,172.31c8.83,1.98,17.99,2.26,26.89.49-6.63,1.53-13.53,2.05-20.33,1.45-2.27-.25-4.51-.64-6.78-.96l.21-.98h0Z"/>
      <path d="M359.94,144.11c-2.3,2.58-5.22,4.53-8.39,5.68,3.04-1.46,5.67-3.66,7.61-6.32l.78.63h0Z"/>
      <path class="cls-2" d="M194.55,159.8c.19,2.41.89,7.14,4,12,4.17,6.51,10.01,9.14,12,10,1.05.46,7.61,3.2,15,2,10.47-1.7,19.39-10.79,23-23"/>
      <path d="M360.05,143.78c-.07,3.06-1.37,6-3.5,8.01,1.88-2.25,2.76-5.2,2.5-7.99l1-.03h0Z"/>
      <path class="cls-2" d="M230.55,141.8c3.35-.25,8.2-.43,14,0,13.49,1,29.09,2.16,36,13,4.42,6.92,3.4,14.85,3,18-1.18,9.22-6.19,15.23-11,21-3.37,4.04-9.12,9.93-18,15-1.03,2.14-2.85,5.23-6,8-8.08,7.1-20.81,8.46-22,6-.11-.22-.15-.54,0-1-.87.26-2.27.64-4,1-4.61.95-8.63,1.77-10,0-.32-.42-.88-1.47,0-4-6.06,2.64-10.87,2.86-12,1-1.03-1.7,1.19-4.91,2-6-3.3,1.27-6.08,1.29-7,0-.98-1.37.38-3.87,1-5,4.17-7.59,16.02-11.42,22-13,2.28-4.57,5.21-9.68,9-15,5.42-7.61,11.08-13.54,16-18"/>
      <path d="M226.14,221.52c.71-.88,2.52-3.12,3.22-3.97,1.89-2.1,3.98-4.03,6.2-5.75-2.09,1.88-4,3.94-5.72,6.15-.61.88-2.24,3.22-2.86,4.12,0,0-.83-.56-.83-.56h0Z"/>
      <path d="M212.13,218.52c2.79-3.92,6.36-7.25,10.42-9.72-3.87,2.75-7.14,6.28-9.58,10.28l-.83-.55h0Z"/>
      <path d="M201.76,214.04c2.84-3.71,6.82-6.43,11.17-7.78-4.25,1.67-7.91,4.63-10.36,8.36l-.81-.58h0Z"/>
      <path d="M242.21,142.16c-3.34-3.39-7.85-5.65-12.66-6.36,4.84.38,9.62,2.34,13.34,5.64l-.68.73h0Z"/>
      <path d="M235.05,170.78c.3-4.26,2.37-8.28,5.5-10.98-2.91,2.95-4.54,7.01-4.5,11.02l-1-.04h0Z"/>
      <path class="cls-2" d="M166.55,176.8c-1.73,1.89-4.38,4.47-8,7-7.8,5.44-15.13,7.14-19,8-4.51,1-7.08,1-11,1-5.76,0-7.47-.83-8-2-.32-.7-.17-1.46,0-2-.83.4-2.22.93-4,1-1.53.06-3.31.12-4-1-.61-1-.19-2.64,1-4-.75.41-2.17,1.06-4,1-.9-.03-2.55-.08-3-1-.57-1.16,1.11-3.01,2-4,1.43-1.58,2.97-2.49,4-3,0-1.99.56-3.26,1-4,1.75-2.97,5.52-4.02,13-6,2.74-.73,4.03-.93,6-2,2.35-1.27,3.98-2.85,5-4"/>
      <path d="M120.16,188.48c2.98-3.43,7.06-5.76,11.39-6.68-4.25,1.25-8.03,3.85-10.61,7.32l-.78-.63h0Z"/>
      <path d="M113.17,184.48c4.09-4.66,9.53-8.01,15.38-9.68-5.76,1.99-10.91,5.6-14.62,10.32l-.77-.64h0Z"/>
      <path d="M112.21,177.43c3.5-3.04,7.85-4.99,12.34-5.63-4.43.98-8.53,3.21-11.66,6.37l-.68-.73h0Z"/>
      <path class="cls-7" d="M147.55,62.8c.49-.3,3.42-2.02,7-1,4.47,1.28,5.9,5.67,6,6,1.26-1.03,3.67-2.64,7-3,1.7-.18,3.96-.43,6,1,2.78,1.94,2.98,5.46,3,6,.45-.41,2.26-1.98,5-2,3.6-.02,5.75,2.67,6,3,1.33-.67,2.67-1.33,4-2,3.05-6.34,8.04-9.18,11-8,.43.17,2.04.91,3,4,2-.67,4-1.33,6-2,3.62-7.18,9.07-10.3,12-9,2.26,1,2.84,4.56,3,6,2-.33,4-.67,6-1,5.41-6.85,11.28-9.68,14-8,.4.25,2.08,1.42,2,6h7c5.18-6.09,11.23-7.98,14-6,.43.31,1.86,1.48,2,5h6c5.39-5.63,12.03-6.58,15-4,.35.31,2.12,1.94,2,6,2.33.33,4.67.67,7,1,7.23-4.08,13.19-5.21,15-3,.4.49,1.12,1.77,0,5,2,.33,4,.67,6,1,7.05-4.66,13.04-6.12,15-4,.38.41,1.42,1.84,0,6h5c5.26-4.06,11.12-4.58,14-2,.57.51,1.61,1.66,2,4h8c3.23-4.66,8.23-11.07,11-10,.87.33,1.77,1.5,2,5l3-3c-.13-.44-3.12-11.14,2-15,.52-.39,1.18-.75,2-1,.17-1.52.32-4.54-1-8-1.43-3.75-3.82-6.01-5-7,1.53,1.23,4.32,3.8,6,8,1.78,4.44,1.34,8.27,1,11-.27,2.11-1.68,13.37-10,18-3.24,1.8-6.34,1.94-8,2-22.4.77-49-4-49-4-3.87-.69-15.52-2.78-26-4-33.87-3.93-60.64.63-68,2-11.73,2.18-27.76,6.17-46,14-4.46-2.03-9.12-4.04-14-6-6.56-2.64-12.91-4.96-19-7Z"/>
      <path class="cls-7" d="M183.55,77.8c.62-1.72,5.75-2.61,9,0,2.5,2.01,3.38,5.69,2,9l2,2c3.67-1.33,7.33-2.67,11-4,3.87-7.48,9.04-11.15,12-10,.46.18,2.18.98,3,5,2.33-.67,4.67-1.33,7-2,6.21-6.42,12.99-8.33,16-6,.54.42,1.84,1.66,2,5,2-.33,4-.67,6-1,6.69-7.13,13.89-9.38,17-7,.51.39,2.07,1.8,2,6h6c5.6-5.42,12.06-6.5,15-4,.49.42,1.84,1.75,2,5h7c5.82-4.71,11.77-5.35,14-3,.34.36,1.47,1.71,1,5,2,.33,4,.67,6,1,5.92-5.02,11.78-6.15,14-4,.36.35,1.49,1.61,1,5h7c6.68-3.94,12.77-4.55,15-2,.45.52.96,1.41,1,3h5c.31-.49,2.96-4.57,8-5,3.64-.31,6.27,1.47,7,2,.67-.67,1.33-1.33,2-2,1.13.36,3.48.91,6,0,4.44-1.61,7.29-7.03,6-9-.32-.5-1.07-1.03-3-1,.33-1.33.67-2.67,1-4,3.69-3.67,4.68-7.25,5-9,.2-1.1,1.09-5.92-1-7-1.39-.72-3.39.58-4,1-.33-1.33-.67-2.67-1-4,.45-1.8.89-4.71,0-8-.44-1.62-1.57-5.8-4-6-2.05-.17-3.75,2.59-4,3-1.33-1-2.67-2-4-3-.21-2.17-.86-5.56-3-9-.3-.48-4.39-6.93-7-6-2.23.8-2.02,6.49-2,7-7.44-11.03-12.44-16.04-15-15-1.38.56-2.05,2.89-2,7-8.07-8.79-11.08-10.64-12-10-1.05.72.75,4.56-1,6-1,.82-2.68.47-4,0-5.22-5.51-9.95-8.33-12-7-.44.29-1.69,1.37-1,6h-4c-1.45-1.43-9.11-8.86-12-7-.6.39-1.43,1.46-1,5h-5c-4.27-4.56-9.07-5.65-11-4-1.42,1.21-1.19,3.81-1,5h-4c-.27-3.02-2.98-5.27-6-5s-5.27,2.98-5,6h-2c-3.46-4.69-8.52-5.8-11-4-1.86,1.35-1.99,4.15-2,5-3.18-4.79-7.7-6.38-10-5-.27.16-1.67,1.06-2,4,5.77-.02,14.45-.04,25,0,32.3.11,48.45.17,55,1,16.29,2.07,47.72,6.05,62,28,2.37,3.65,7.53,11.83,6,22-1.71,11.33-10.65,18.02-12,19-9.75,7.07-19.62,4.85-51,2-7.44-.68-25.22-2.27-43-3-20.57-.84-33.51-1.37-50,1-15.88,2.28-29.63,6.47-41,11-11.45-6.73-13.49-9.63-13-11Z"/>
      <path class="cls-4" d="M239.55,92.8c-.24-1.14-4.13-1.39-7-1-3.02.41-7.11,1.82-7,3,.12,1.33,5.52,2.62,10,1,1.78-.65,4.2-2.04,4-3Z"/>
      <path class="cls-4" d="M208.55,97.8c-.16-.88-3.07-1.13-5-1-3.49.24-7.16,1.96-7,3,.15.94,3.43,1.35,6,1,3.02-.41,6.17-2.04,6-3Z"/>
      <path class="cls-4" d="M183.55,84.8c2.71,2.06,2.27,6.35,1,7-1.9.98-7.96-4.91-7-7,.57-1.24,3.85-1.63,6,0Z"/>
      <path class="cls-4" d="M164.55,75.8c-2.05-.54-4.8-.67-5,0-.21.71,2.43,2.33,5,3,2.05.54,4.8.67,5,0,.21-.71-2.43-2.33-5-3Z"/>
      <path class="cls-4" d="M272.55,91.8c-.26-1.51-4.35-1.94-6-2-2.46-.09-6.71.4-7,2-.27,1.48,2.86,3.82,6,4,3.62.2,7.27-2.47,7-4Z"/>
      <path class="cls-4" d="M300.55,90.8c-4.36-.77-9.12,1.58-9,3,.11,1.3,4.33,1.98,7,2,2.78.02,6.85-.66,7-2,.13-1.14-2.62-2.58-5-3Z"/>
      <path class="cls-4" d="M332.55,91.8c-4.16-.65-8.92.62-9,2-.07,1.27,3.82,2.71,7,3,3.63.33,7.9-.68,8-2,.09-1.21-3.32-2.58-6-3Z"/>
      <path class="cls-4" d="M358.55,90.8c-3.3.08-7.08,1.67-7,3,.08,1.38,4.35,2.69,8,2,2.29-.44,5.12-1.81,5-3-.12-1.24-3.44-2.06-6-2Z"/>
      <path class="cls-4" d="M378.55,85.8c-2.28.6-4.4,2.73-4,4,.43,1.35,3.67,1.63,6,1,1.68-.46,4.12-1.74,4-3-.13-1.39-3.34-2.69-6-2Z"/>
      <path class="cls-4" d="M396.55,72.8c-1.92,1.93-2.97,5.15-2,6,.89.78,3.47-.46,5-2,1.92-1.93,2.97-5.15,2-6-.89-.78-3.47.46-5,2Z"/>
      <path class="cls-4" d="M378.55,50.8c.13-1.9-1-4.02-2-4-1.05.02-1.84,2.37-2,4-.14,1.42.06,3.75,1,4,1,.27,2.85-1.8,3-4Z"/>
      <path class="cls-4" d="M370.55,37.8c-1.06.18-2.46-2.83-3-5-.15-.61-.88-3.55,0-4,.86-.45,3.29,1.5,4,4,.62,2.18-.06,4.84-1,5Z"/>
      <path class="cls-4" d="M351.55,25.8c-1.53-1.22-2.56-3.37-2-4,.63-.71,3.3.52,5,2,.16.14,2.47,2.17,2,3-.43.76-3.18.46-5-1Z"/>
      <path class="cls-4" d="M341.55,17.8c.75.44,2.2,1.47,2,2-.19.49-1.78.45-3,0-1.85-.68-3.32-2.47-3-3,.32-.54,2.51.12,4,1Z"/>
      <path class="cls-2" d="M118.55,64.8c.32-.58,5.34-9.41,15-10,8.23-.5,16.25,5.19,19,14"/>
      <path d="M113.59,55.3c-4.82.15-9.51,2.18-13.04,5.5,1.66-1.78,3.65-3.29,5.85-4.41,2.21-1.11,4.63-1.83,7.11-2.09l.07,1h0Z"/>
      <path d="M58.7,75.32c5.64,1.9,10.56,5.65,13.85,10.48-3.56-4.63-8.62-8.01-14.15-9.52l.29-.96h0Z"/>
      <path d="M78.68,74.31c4.92,1.5,9.6,3.69,13.87,6.48-4.44-2.51-9.21-4.37-14.13-5.52l.26-.97h0Z"/>
      <path class="cls-1" d="M142.55,105.8c-1.94,6.08-5.04,9.34-7,11-6.96,5.88-16.62,5.95-24,6-7.09.05-8.15-1.13-13,0-5.58,1.3-6.73,3.47-13,5-5.72,1.4-6.62.06-12,1-7.77,1.36-7.83,4.51-17,8-11.68,4.45-19.95,2.54-22,2-2.22-.58-7.83-2.05-9-6-.11-.36-.47-1.63,0-3,.95-2.8,4.59-3.73,9-5,9.44-2.72,14.16-4.07,17-6,3.55-2.41,3.22-3.59,8-7,3.53-2.52,6.78-4.07,9-5"/>
      <path class="cls-3" d="M128.55,120.8c.11-.41-.46-1.22-4-3-3.71,3.64-4.23,4.7-4,5,.25.33,1.31-.36,4-1,2.69-.64,3.86-.49,4-1Z"/>
      <path class="cls-3" d="M116.55,115.8c.27.62-.61,1.97-5,5-3.98-5.14-4.37-6.61-4-7,.37-.38,1.35.38,4,1,3.2.75,4.71.33,5,1Z"/>
      <path class="cls-3" d="M105.55,122.8c.38-.5-.25-1.99-4-6-3.08,4.05-3.43,5.51-3,6,.32.37.94.05,3,0,2.72-.06,3.67.44,4,0Z"/>
      <path class="cls-3" d="M96.55,111.8c.53.57.27,2.26-3,7-4.61-4.7-5.42-6.43-5-7,.32-.44,1.23.02,4,0,2.73-.02,3.56-.48,4,0Z"/>
      <path class="cls-3" d="M86.55,127.8c.33-.43-.12-1.77-4-6-3.16,5.22-3.4,6.67-3,7,.45.38,1.56-.8,4-1,1.83-.15,2.69.4,3,0Z"/>
      <path class="cls-3" d="M79.55,111.8c.29.56-.59,2.01-6,6-2.39-6.98-2.46-8.78-2-9,.43-.21,1.07,1.11,3,2,2.6,1.2,4.64.3,5,1Z"/>
      <path class="cls-3" d="M58.55,101.8c.75,1.55-4.02,5.25-5,6-3.97-4.63-4.49-6.36-4-7,.19-.25.55-.36,4,0,4.58.47,4.88.76,5,1Z"/>
      <path class="cls-3" d="M36.55,102.8c.5.74.02,2.53-4,7-4.03-7.69-4.45-9.7-4-10,.43-.29,1.4,1.12,4,2,2.35.79,3.53.31,4,1Z"/>
      <path class="cls-3" d="M14.55,94.8c.39.55-.23,2.06-4,6-3.89-4.14-4.35-5.52-4-6,.28-.38.98-.08,3,0,3.33.13,4.6-.55,5,0Z"/>
      <path class="cls-3" d="M67.55,130.8c.17-.7-.45-1.88-4-4-2.37,6.26-2.41,7.78-2,8,.35.19.9-.66,3-2,2.03-1.3,2.84-1.35,3-2Z"/>
      <path class="cls-3" d="M50.55,138.8c.7-1.44-3.47-4.81-5-6-.77,1.05-4.15,5.71-3,7,.39.44,1.6.3,4,0,2.49-.31,3.74-.47,4-1Z"/>
      <path class="cls-3" d="M30.55,131.8c1.34,2.91,1.83,5.43,1,6-1.18.81-5.51-1.99-5-4,.28-1.09,1.96-1.87,4-2Z"/>
      <path class="cls-3" d="M35.55,122.8c.24-.96-.89-2.52-3-3-1.57,1.31-1.72,3.23-1,4,.96,1.03,3.69.25,4-1Z"/>
      <path class="cls-3" d="M49.55,117.8c.16-.43-.55-1.42-5-4-.81,4.7-.46,5.83,0,6,.37.14.7-.4,2-1,1.79-.82,2.83-.56,3-1Z"/>
      <path d="M37.55,78.8c2.61-2,6.1-3.16,9.42-2.32,1.69.4,3.44,1.84,3.37,3.72,0,1.78-.83,3.31-1.79,4.6,4.23-8.9-5.32-8.71-11-6h0Z"/>
      <path class="cls-5" d="M33.55,85.8c2.67-3.32,5.47-4.52,7-5,1.27-.4,3.95-1.25,5,0,.65.77.5,2.11,0,3-.35.63-1.11,1.44-4,2-1.72.34-4.48.64-8,0Z"/>
      <path class="cls-1" d="M43.55,76.8c-.96-1.57-4.99-7.76-13-10-11.27-3.15-20.26,4.36-21,5"/>
      <circle class="cls-3" cx="132.29" cy="72.54" r="12.76"/>
      <circle class="cls-9" cx="132.64" cy="72.23" r="9.82"/>
      <circle cx="132.38" cy="72.91" r="5.96"/>
      <circle class="cls-8" cx="139.48" cy="67.92" r="4.02"/>
    </g>
  </g>
</svg>