<?xml version="1.0" encoding="UTF-8"?>
<svg id="Layer_2" data-name="Layer 2" xmlns="http://www.w3.org/2000/svg" viewBox="0 0 138.69 78.37">
  <defs>
    <style>
      .cls-1 {
        fill: #5f008f;
      }

      .cls-1, .cls-2, .cls-3, .cls-4 {
        stroke: #000;
        stroke-miterlimit: 10;
      }

      .cls-2 {
        fill: none;
      }

      .cls-5, .cls-4 {
        fill: #fff;
      }

      .cls-3 {
        fill: #7000c9;
      }

      .cls-6 {
        fill: #333;
      }
    </style>
  </defs>
  <g id="Layer_1-2" data-name="Layer 1">
    <g>
      <path class="cls-1" d="M101.38,31.41c-1.86,14.91-18.99,23.49-32.97,23.49s-31.11-8.59-32.97-23.49c-1.8-14.38,11.68-26.09,23.78-29.62,2.24-.65,9.64-2.55,18.38,0,12.1,3.53,25.58,15.24,23.78,29.62Z"/>
      <ellipse class="cls-1" cx="67.8" cy="58.25" rx="23.71" ry="14.89"/>
      <path class="cls-3" d="M85.65,9.44c.11-1.93,3.51-4.33,16.95-6.66,4.34,1.32,10.55,3.54,17.56,7.27,2.32,1.23,13.45,7.15,12.71,9.08-.6,1.57-8.97.28-15.74-2.42-5.81-2.32-10.04-5.5-12.71-7.87-3.98,4.55-9.45,6.41-13.93,4.84-1.74-.61-4.95-2.3-4.84-4.24Z"/>
      <path class="cls-3" d="M91.44,20.69c.2-1.93,3.71-4.15,17.25-5.84,4.27,1.53,10.37,4.04,17.19,8.1,2.26,1.34,13.1,7.79,12.26,9.68-.68,1.54-8.97-.15-15.61-3.17-5.7-2.59-9.76-5.98-12.32-8.47-4.2,4.35-9.74,5.95-14.14,4.17-1.71-.69-4.83-2.53-4.63-4.47Z"/>
      <path class="cls-3" d="M93.09,30.67c.57-1.85,4.46-3.34,18.06-2.34,3.88,2.34,9.37,6,15.27,11.31,1.95,1.76,11.31,10.21,10.13,11.9-.96,1.37-8.77-1.91-14.68-6.17-5.08-3.66-8.4-7.78-10.42-10.72-4.97,3.44-10.72,3.92-14.68,1.32-1.54-1.01-4.24-3.43-3.67-5.29Z"/>
      <path class="cls-3" d="M91.73,39.42c1.35-1.38,5.49-.94,17.14,6.15,2.39,3.85,5.61,9.61,8.43,17.03.93,2.45,5.42,14.24,3.59,15.21-1.49.78-6.93-5.7-10.25-12.19-2.85-5.57-3.93-10.75-4.39-14.3-5.99.8-11.33-1.4-13.67-5.52-.91-1.6-2.21-4.99-.85-6.38Z"/>
      <path class="cls-3" d="M53.86,9.1c-.11-1.94-3.53-4.34-17.02-6.69-4.35,1.33-10.59,3.55-17.63,7.29-2.33,1.24-13.51,7.18-12.77,9.12.6,1.57,9,.28,15.81-2.43,5.84-2.33,10.08-5.53,12.77-7.9,4,4.57,9.49,6.43,13.98,4.86,1.75-.61,4.97-2.31,4.86-4.26Z"/>
      <path class="cls-3" d="M47.44,20.4c-.2-1.93-3.73-4.17-17.32-5.86-4.29,1.53-10.41,4.06-17.26,8.13-2.27,1.35-13.15,7.82-12.31,9.72.68,1.54,9.01-.15,15.67-3.19,5.72-2.6,9.8-6,12.37-8.51,4.21,4.37,9.78,5.97,14.2,4.19,1.72-.69,4.85-2.54,4.65-4.48Z"/>
      <path class="cls-3" d="M45.18,31.02c-.57-1.86-4.48-3.36-18.14-2.35-3.9,2.35-9.41,6.02-15.33,11.36-1.96,1.77-11.36,10.25-10.17,11.95.97,1.38,8.8-1.92,14.74-6.2,5.1-3.67,8.43-7.81,10.46-10.77,4.99,3.46,10.77,3.93,14.74,1.32,1.55-1.02,4.26-3.44,3.68-5.31Z"/>
      <path class="cls-3" d="M46.31,39.2c-1.35-1.38-5.49-.94-17.14,6.15-2.39,3.85-5.61,9.61-8.43,17.03-.93,2.45-5.42,14.24-3.59,15.21,1.49.78,6.93-5.7,10.25-12.19,2.85-5.57,3.93-10.75,4.39-14.3,5.99.8,11.33-1.4,13.67-5.52.91-1.6,2.21-4.99.85-6.38Z"/>
      <path class="cls-2" d="M57.47,64.03c1.35.8,4.89,2.65,9.73,2.43,4.58-.2,7.81-2.15,9.12-3.04"/>
      <path class="cls-2" d="M57.47,61.59c.09.27.28.99,0,1.82-.44,1.29-1.65,1.76-1.82,1.82"/>
      <path class="cls-2" d="M75.71,61.59c0,.29.06,1.07.61,1.82.65.9,1.57,1.15,1.82,1.22"/>
      <circle class="cls-4" cx="55.3" cy="48.92" r="8.58"/>
      <circle class="cls-6" cx="55.55" cy="48.73" r="6.61"/>
      <circle cx="55.07" cy="48.8" r="4.01"/>
      <circle class="cls-5" cx="59.34" cy="44.83" r="2.71"/>
      <circle class="cls-4" cx="76.62" cy="48.24" r="8.58"/>
      <circle class="cls-6" cx="76.87" cy="48.05" r="6.61"/>
      <circle cx="76.39" cy="48.13" r="4.01"/>
      <circle class="cls-5" cx="80.66" cy="44.15" r="2.71"/>
    </g>
  </g>
</svg>