<?xml version="1.0" encoding="UTF-8"?>
<svg id="Layer_2" data-name="Layer 2" xmlns="http://www.w3.org/2000/svg" viewBox="0 0 228.13 167.54">
  <defs>
    <style>
      .cls-1, .cls-2 {
        fill: #fff;
      }

      .cls-3 {
        fill: #8cc63f;
      }

      .cls-3, .cls-2 {
        stroke: #000;
        stroke-miterlimit: 10;
      }

      .cls-4 {
        fill: #333;
      }
    </style>
  </defs>
  <g id="Layer_1-2" data-name="Layer 1">
    <g>
      <path class="cls-3" d="M23.03,64c-2.29,8.17-4.86,20.25-5,35-.18,18.67-.33,33.82,10,47,10.49,13.39,30.71,23.36,46,18,13.72-4.8,13.56-18.46,25-20,14.88-2,21.14,20.3,37,20,18.1-.34,23.25-29.66,39-29,16.44.69,22.44,33.12,39,32,5.39-.37,9.99-4.16,12-8,6.06-11.57-8.03-29.98-19-39-4.93-4.06-18.68-15.35-35-13-18.87,2.72-21.32,20.8-37,21-14.87.19-17.65-16.01-34-17-18.62-1.13-26.51,19.17-38,15-11.21-4.06-14.04-27.12-16-43-.97-7.9-1.08-14.51-1-19,1.2-.25,17.98-4.08,24-20,4.97-13.14.02-27.65-10-36C48.14-1.91,30.77-1.75,19.03,7c-14.33,10.67-13.11,28.74-13,30,1.47,17.37,15.57,26.14,17,27Z"/>
      <path class="cls-3" d="M24.03,40c-.13,3.69,2.67,6.75,6,7,3.66.27,7.11-2.92,7-7"/>
      <path class="cls-3" d="M23.03,64c2.39.87,5.81,1.81,10,2,5.68.25,10.24-1,13-2-.15,2.37-.18,5.06,0,8,.18,2.97.56,5.65,1,8-2.65.93-8.67,2.61-16,1-5.15-1.13-8.88-3.44-11-5l3-12Z"/>
      <path class="cls-3" d="M18.03,95c3.12,1.59,9.56,4.34,18,4,5.66-.23,10.15-1.76,13-3,.24,2.22.57,4.56,1,7,.31,1.74.64,3.4,1,5-1.94,2.01-5.56,5.19-11,7-10.65,3.54-19.95-.95-22-2v-18Z"/>
      <path class="cls-3" d="M57.03,121c-.86,2.84-3.13,8.94-9,14-9.44,8.13-20.8,7.22-23,7,1.9,2.67,4.5,5.84,8,9,2.83,2.56,5.59,4.52,8,6,2.94-.59,11.11-2.63,18-10,7.88-8.43,8.83-18.21,9-21-.94.25-2.81.61-5,0-3.88-1.08-5.67-4.36-6-5Z"/>
      <path class="cls-3" d="M81.03,119c1.24,4.58,2.35,9.95,3,16,.91,8.48.64,15.96,0,22,.67-.95,1.68-2.36,3-4,2.82-3.51,4.4-5.44,7-7,1.05-.63,2.7-1.46,5-2-.58-4.77-.98-10.13-1-16-.02-6.27.39-11.97,1-17-1.86-.01-4.29.19-7,1-5.66,1.7-9.29,5.12-11,7Z"/>
      <path class="cls-3" d="M121.03,122c-.06,3.83-.68,10.15-4,17-1.88,3.87-4.1,6.85-6,9,1.91,1.44,3.93,3.1,6,5,1.86,1.71,3.52,3.39,5,5,2.26-1.89,5.52-5.12,8-10,4.39-8.63,3.51-16.84,3-20-1.63-.33-3.72-.91-6-2-2.66-1.27-4.65-2.79-6-4Z"/>
      <path class="cls-3" d="M149.03,122c1.43,2.35,2.92,5.35,4,9,2.81,9.5,1.17,17.79,0,22,1.25-1.71,2.29-3.08,3-4,6-7.79,8.52-9.89,10-11,1.27-.95,2.36-1.62,3-2,.49-2.77.9-7,0-12-1.21-6.7-4.16-11.47-6-14-2.14,1.29-4.53,2.93-7,5-2.89,2.42-5.2,4.85-7,7Z"/>
      <path class="cls-3" d="M193.03,111c-.26,3.58-.99,8.49-3,14-2.09,5.71-4.82,10.06-7,13,1.56,1.35,3.28,3,5,5,2.14,2.49,3.77,4.9,5,7,2.62-1.26,7.76-4.18,12-10,4.75-6.52,5.74-13.09,6-16-2.81-2.85-6.44-6.02-11-9-2.44-1.6-4.8-2.91-7-4Z"/>
      <path class="cls-3" d="M202.03,161c2.79-.04,7.65-.47,13-3,6.51-3.08,10.3-7.65,12-10,.34,1.18,1.6,6.05-1,11-1.92,3.66-4.92,5.39-6,6-1.28.72-4.19,2.3-8,2-5.96-.48-9.44-5.21-10-6Z"/>
      <circle class="cls-2" cx="54.99" cy="19.97" r="15.54"/>
      <circle class="cls-4" cx="55.45" cy="19.63" r="11.96"/>
      <circle cx="54.57" cy="19.77" r="7.25"/>
      <circle class="cls-1" cx="62.31" cy="12.57" r="4.9"/>
      <circle class="cls-2" cx="16.04" cy="17.02" r="15.54"/>
      <circle class="cls-4" cx="16.49" cy="16.68" r="11.96"/>
      <circle cx="15.62" cy="16.81" r="7.25"/>
      <circle class="cls-1" cx="23.35" cy="9.62" r="4.9"/>
    </g>
  </g>
</svg>