<?xml version="1.0" encoding="UTF-8"?>
<svg id="Layer_2" data-name="Layer 2" xmlns="http://www.w3.org/2000/svg" viewBox="0 0 2410.29 1185.71">
  <defs>
    <style>
      .cls-1 {
        fill: #e8f7ff;
        stroke: #000;
        stroke-miterlimit: 10;
      }

      .cls-2 {
        fill: #bfbfbf;
      }

      .cls-3 {
        fill: #666;
      }

      .cls-4 {
        fill: #8c8c8c;
      }

      .cls-5 {
        fill: #858585;
      }

      .cls-6 {
        fill: gray;
      }

      .cls-7 {
        fill: #9a8a00;
      }
    </style>
  </defs>
  <g id="Layer_1-2" data-name="Layer 1">
    <rect class="cls-1" x=".88" y="1.44" width="2406.82" height="712.1"/>
    <path class="cls-2" d="M1.76,74.49c15.83,4.46,40.13,11.48,69.5,20.76,200.53,63.35,338.96,137.37,399.08,168.23,240.5,123.48,479.57,246.23,723.4,257.8,39.34,1.87,159.03,6.86,318.02,28.86,45.06,6.23,95.07,15,153.49,28.05,110.62,24.71,137.91,39.45,241.03,63.06,206.88,47.36,382.56,54.82,497.9,53.83l3.52,486.01c-802.57.26-1605.13.51-2407.7.77C.59,812.74,1.17,443.62,1.76,74.49Z"/>
    <path class="cls-7" d="M771.61,1044.77c-12.23-127.36-10.73-227.63-6.91-296.64,6.05-109.37,19.45-168.04-11.47-242.59-13.67-32.96-35.82-60.23-24.51-88.85,17.1-43.27,92.38-49.57,104.17-50.55,62.57-5.23,111.32,23.02,132.62,37.46-12.75-15.83-41.6-47.26-89.73-66.57-40.7-16.33-76.77-16.61-96.51-15.32,2.69-19.36,15.02-91.25,78.13-144,93.28-77.98,211.91-42.58,220.6-39.83-9.37-7.33-83.21-63.05-178.47-39.83-75.05,18.3-114.17,73.59-123.32,87.32-5.51-26.63-10.43-67.82-1.53-116.43,5.08-27.74,13.38-50.94,21.45-68.94-11.91,9.95-28.46,25.52-44.43,47.49-6.98,9.61-74.74,104.86-42.38,158.81,13.69,22.82,35.06,21.2,42.89,46.98,6.08,20.03,1.17,47.31-14.3,57.19-26.14,16.7-91.24-10.68-108.26-55.15-22.83-59.66,27.48-185.01,27.06-202.47,0-.26-.05-1.93.03-4.18.17-4.43.89-11.56,3.8-19.56,4.7-12.96,12.86-22,19.15-27.67-4.13,1.07-12.76,3.9-20.68,11.59-9.38,9.11-12.16,19.62-13.02,23.74-2.04-11.78-4.09-23.55-6.13-35.33-10.98.03-21.96.06-32.94.1-.37,3.78-.88,7.61-1.53,11.49-8.04,47.85-35.13,84.39-60.51,109.53,1.37-14.44,1.71-34.72-3.06-58.21-5.68-27.99-16.33-49.32-24.51-62.9h-10.72c6.31,22.53,15.1,66.1,3.06,118.05-7.07,30.52-19.09,54.26-29.11,70.47-11.51-17.14-26.52-36.22-45.96-55.15-46.14-44.92-95.55-67.82-128.68-79.66,32.07,21.57,76.19,57.5,113.36,113.36,16.26,24.44,28.08,48.02,36.77,68.94-24.06.6-56.65,3.92-93.45,15.32-42.78,13.26-75.16,32.45-96.51,47.49,20.78-7.43,52.51-16.43,91.91-18.38,36.56-1.81,110.38-5.46,153.19,39.83,18.72,19.8,25.11,42.19,32.17,76.6,27.68,134.88,22.98,217.53,22.98,217.53-10.93,191.95-31.11,364.25-39.83,435.06,81.7-2.04,163.4-4.09,245.11-6.13Z"/>
    <path class="cls-3" d="M668.75,838.37c4.9,14.69-22.19,23.16-32.3,63.06-11.87,46.86,14.2,79.84,30.76,136.88,9.78,33.67,18.13,82.23,10.77,146.11H1.25c.51-89.72,1.03-179.44,1.54-269.15,71.85-15.64,179.09-37.73,310.68-59.98,221.05-37.39,345.16-47.22,355.28-16.92Z"/>
    <path class="cls-3" d="M1450.57,982.69c-5.25,31.81-3.79,56.91-1.54,73.82,4.17,31.3,12.43,44.92,10.77,70.75-1.65,25.57-11.9,45.72-19.99,58.44,323.5-.51,646.99-1.03,970.49-1.54-1.03-81.52-2.05-163.03-3.08-244.55"/>
    <path class="cls-4" d="M1838.26,1096.51c-.71,10.54-.56,24.96,3.08,41.53,4.59,20.93,12.88,36.8,19.23,46.91-423.47-.51-846.94-1.03-1270.4-1.54.96-6.61,1.86-16.55.77-28.45-1.56-17.04-6.15-26.67-9.23-38.45-3.15-12.09-5.62-29.92-1.54-53.83"/>
    <path class="cls-6" d="M2.79,756.85c108.44-8.94,192.46.49,249.16,10.77,80.43,14.57,98.12,29.43,161.49,27.68,69.42-1.91,102.48-21.23,166.11-6.15,50.67,12.01,91.88,39,89.21,47.68-3.31,10.73-69.8-18.92-156.88-1.54-60.43,12.06-56.35,31.92-129.19,55.37-95.62,30.78-108.4-1.59-196.87,30.76-51.84,18.96-74.5,39.96-113.81,32.3-32.6-6.36-56.02-28.41-70.75-46.14.51-50.24,1.03-100.48,1.54-150.73Z"/>
    <path class="cls-6" d="M1452.11,985.77c-5.39-12.33,11.5-31.37,24.61-46.14,34.27-38.62,77.37-51.85,95.36-56.91,68.28-19.19,122.79-18.45,196.87-19.99,190.89-3.97,181.26-16.19,246.08-6.15,83.65,12.96,98.5,33.13,153.8,23.07,48.11-8.75,68.36-29.74,138.42-47.68,41.82-10.71,77.19-14.13,99.97-15.38v119.97c-37.55,24.48-95.46,55.78-170.72,70.75-79.98,15.91-114.37.4-295.3-16.92-146.26-14-219.39-21-284.53-15.38-106.79,9.21-193.9,35.13-204.56,10.77Z"/>
    <path class="cls-6" d="M638.61,1030.37c98.44,23.4,202.59,5.87,302.99,18.46,33.52,4.2,103.35,8.95,243.01,18.46,138.76,9.44,228.07,15.52,342.98,18.46,196.16,5.02,309.39-3.15,310.68,9.23,1.26,12.02-104.3,32.05-113.81,33.84-241.39,45.24-368.43-5.7-593.68-15.38-300.6-12.92-517.69,58.76-546-10.77-5.42-13.31-11.99-51.6,6.15-67.67,14.5-12.85,39.29-6.61,47.68-4.61Z"/>
    <path class="cls-5" d="M227.34,910.65c-5.06,19.37-11.62,47.38-16.92,81.52-12.06,77.74-10.41,141.31-7.69,141.5,2.59.18.98-57.2,24.61-129.19,14.12-43.03,32.36-76.33,46.14-98.43-6.59-.74-14.98-1.08-24.61,0-8.48.95-15.74,2.75-21.53,4.61Z"/>
    <path class="cls-5" d="M494.96,839.91c-5.08,9.63-11.11,23.13-15.38,39.99-12.02,47.4-2.03,89.3,0,89.21,1.59-.08-3.04-25.7,4.61-59.98,7.4-33.13,22.7-58.41,35.37-75.36-8.2,2.05-16.41,4.1-24.61,6.15Z"/>
    <path class="cls-5" d="M1656.66,975c.21,7.75.37,18.9,0,32.3-.84,30.86-4.36,70.78-7.69,70.75-2.97-.02-5.03-31.89-6.15-49.22-1.42-21.88-1.61-39.96-1.54-52.29,5.13-.51,10.25-1.03,15.38-1.54Z"/>
    <path class="cls-5" d="M1807.39,979.62c.68,6.76,1.41,16.27,1.54,27.68.15,13.45.27,24.3-1.54,24.61-1.77.3-5.98-9.38-16.92-55.37,5.64,1.03,11.28,2.05,16.92,3.08Z"/>
    <path class="cls-5" d="M2185.74,1013.45c1.95,18.28,4.47,45.39,6.15,78.44,1.52,29.77,3.97,77.98,0,78.44-4.15.48-14.57-51.18-19.99-96.9-2.88-24.29-4.07-44.53-4.61-58.44,6.15-.51,12.3-1.03,18.46-1.54Z"/>
    <path class="cls-5" d="M84.31,955.26c-5.55,11.12-12.21,28.01-13.84,49.22-1.65,21.49,2.33,41.56,4.61,41.53,2.23-.03,1.24-19.08,7.69-44.6,5.09-20.12,12.65-35.78,18.46-46.14h-16.92Z"/>
    <path class="cls-7" d="M2410.29,304.43c-40.03,30.4-91.89,37.38-133.81,16.92-44.84-21.88-79.64-75.8-66.13-121.5,6.39-21.63,26.39-51.36,58.44-55.37,21.93-2.75,39.5,7.8,46.14,12.3-.23-2.74-1.79-18.32-15.38-29.22-15.94-12.79-34.82-8.23-36.91-7.69,2.07-7.99,5.37-17.54,10.77-27.68,11.02-20.69,25.55-33.99,35.37-41.53-11.85,2.72-29.4,8.37-46.14,21.53-20.87,16.4-32.5,33.27-39.99,44.6-14.33,21.7-37.18,52.03-73.82,87.67,26.71-49.55,18.71-104.88-13.84-132.27-24.55-20.65-55.84-19.34-66.13-18.46,38.34,13.75,47.81,32.65,50.75,41.53,9.55,28.74-47.25,95.86-124.58,135.35-81.66,41.7-161.27,40.01-235.32,38.45-65.19-1.38-142.23-13.36-163.84-17.12-18.52-3.22-31.49-5.95-31.49-5.95-40.84-9.03-63.04-18.93-64.6-15.38-1.75,3.99,51.86,42.53,126.12,66.13,65.66,20.87,94.53,13.22,183.02,27.68,36.56,5.98,86.81,16.3,146.11,35.37-21.58,3.45-55.37,11.74-90.74,33.84-54.04,33.75-80.28,80.02-90.74,101.51,29.98-26.53,80.04-64.14,150.73-89.21,17.13-6.07,40.91-13.34,69.21-18.46,43.96-7.95,155.38-33.13,226.09,18.46,70.57,51.49,85.47,133,107.66,250.7,20.63,109.43,14.33,196.81,9.23,261.46-8.28,104.84-28.53,193.85-49.22,263h123.04V304.43Z"/>
  </g>
</svg>