<?xml version="1.0" encoding="UTF-8"?>
<svg id="Layer_2" data-name="Layer 2" xmlns="http://www.w3.org/2000/svg" viewBox="0 0 242.76 194.99">
  <defs>
    <style>
      .cls-1 {
        fill: #ffcd23;
      }

      .cls-1, .cls-2, .cls-3, .cls-4, .cls-5 {
        stroke: #000;
        stroke-miterlimit: 10;
      }

      .cls-2 {
        fill: none;
      }

      .cls-6, .cls-3 {
        fill: #fff;
      }

      .cls-5 {
        fill: #ff2d27;
      }

      .cls-7 {
        fill: #333;
      }
    </style>
  </defs>
  <g id="Layer_1-2" data-name="Layer 1">
    <g>
      <path class="cls-1" d="M60.53,23.91c-1.03-1-4.96-4.55-10-4-3.97.43-7.28,3.26-7,4,.26.66,3.13-1.05,7,0,3.62.98,4.81,3.48,7,3,1.45-.32,2.4-1.74,3-3Z"/>
      <path class="cls-1" d="M72.9,16.42c-.94-1.09-4.53-4.98-9.6-4.89-3.99.07-7.55,2.59-7.33,3.35.19.68,3.21-.76,6.97.63,3.51,1.3,4.47,3.9,6.7,3.62,1.47-.19,2.55-1.51,3.26-2.72Z"/>
      <path class="cls-1" d="M88.44,12.18c-.69-1.26-3.37-5.82-8.35-6.81-3.92-.77-7.93.93-7.88,1.72.04.71,3.3-.07,6.68,2.09,3.16,2.02,3.55,4.76,5.78,4.96,1.48.13,2.81-.94,3.76-1.97Z"/>
      <path class="cls-1" d="M104.65,9.75c-.42-1.38-2.11-6.39-6.78-8.37-3.68-1.56-7.95-.71-8.06.07-.1.7,3.24.61,6.11,3.42,2.68,2.62,2.5,5.39,4.65,6.03,1.42.43,2.94-.35,4.08-1.15Z"/>
      <path class="cls-1" d="M121.74,14.86c.06-1.44.12-6.73-3.64-10.14-2.96-2.68-7.27-3.29-7.64-2.59-.33.63,2.86,1.65,4.64,5.24,1.66,3.36.58,5.91,2.4,7.23,1.2.87,2.89.64,4.23.26Z"/>
      <path class="cls-1" d="M139.44,21.7c.32-1.4,1.33-6.6-1.75-10.63-2.42-3.17-6.56-4.55-7.04-3.92-.44.56,2.52,2.14,3.62,5.99,1.03,3.6-.5,5.92,1.05,7.54,1.02,1.08,2.73,1.15,4.12,1.02Z"/>
      <path class="cls-1" d="M153.74,35.65c1.02-1.01,4.68-4.83,4.26-9.89-.33-3.98-3.07-7.37-3.81-7.1-.67.24.97,3.16-.19,7-1.08,3.59-3.61,4.71-3.18,6.92.28,1.46,1.67,2.44,2.92,3.08Z"/>
      <path class="cls-1" d="M162.51,55.09c1.4-.34,6.49-1.77,8.72-6.33,1.75-3.59,1.13-7.9.35-8.05-.7-.14-.78,3.21-3.73,5.92-2.76,2.54-5.51,2.21-6.27,4.32-.5,1.4.19,2.96.94,4.14Z"/>
      <path class="cls-1" d="M161.19,74.6c1.42.23,6.67.91,10.5-2.41,3.01-2.62,4.13-6.83,3.47-7.28-.59-.4-1.97,2.65-5.75,3.99-3.53,1.26-5.94-.12-7.46,1.53-1.01,1.09-.98,2.8-.75,4.17Z"/>
      <path class="cls-1" d="M153.96,91.64c1.14.87,5.45,3.95,10.39,2.83,3.89-.88,6.86-4.07,6.5-4.78-.33-.63-2.99,1.4-6.95.8-3.71-.56-5.18-2.91-7.3-2.18-1.4.48-2.18,2-2.64,3.32Z"/>
      <path class="cls-1" d="M144.09,104.86c1.11.92,5.28,4.17,10.27,3.25,3.93-.73,7.02-3.79,6.68-4.51-.3-.64-3.04,1.28-6.98.52-3.68-.71-5.05-3.12-7.2-2.47-1.42.43-2.26,1.91-2.77,3.21Z"/>
      <path class="cls-1" d="M131.72,113.52c.66,1.28,3.23,5.9,8.18,7,3.9.87,7.95-.74,7.91-1.54-.03-.71-3.3-.01-6.63-2.25-3.11-2.09-3.43-4.84-5.66-5.09-1.48-.16-2.83.87-3.81,1.88Z"/>
      <path class="cls-1" d="M122.69,120.59c.67,1.27,3.28,5.87,8.24,6.93,3.91.83,7.94-.81,7.9-1.6-.03-.71-3.3.02-6.65-2.19-3.13-2.07-3.47-4.81-5.71-5.04-1.48-.15-2.82.9-3.79,1.91Z"/>
      <path class="cls-1" d="M115.1,129.45c1.06.97,5.07,4.42,10.1,3.74,3.96-.54,7.2-3.45,6.89-4.18-.27-.66-3.1,1.13-7,.18-3.64-.89-4.9-3.36-7.08-2.82-1.44.36-2.35,1.8-2.92,3.08Z"/>
      <path class="cls-1" d="M112.51,138.36c1.33.55,6.27,2.44,10.77.09,3.54-1.85,5.6-5.69,5.07-6.27-.48-.52-2.53,2.12-6.52,2.55-3.73.4-5.75-1.5-7.61-.25-1.23.83-1.6,2.49-1.7,3.89Z"/>
      <path class="cls-1" d="M157.26,145.5c-.56-1.32-2.79-6.12-7.65-7.58-3.82-1.15-7.98.16-8.01.96-.02.71,3.29.25,6.45,2.73,2.95,2.31,3.07,5.08,5.28,5.49,1.46.27,2.89-.67,3.93-1.59Z"/>
      <path class="cls-1" d="M149.15,151.22c-.22-1.42-1.18-6.62-5.52-9.25-3.42-2.06-7.77-1.83-7.99-1.07-.2.68,3.13,1.06,5.57,4.25,2.28,2.97,1.71,5.69,3.75,6.63,1.35.63,2.96.07,4.2-.57Z"/>
      <path class="cls-1" d="M78.3,45.12c.52,1.34,2.28,6.33-.18,10.77-1.94,3.49-5.83,5.45-6.4,4.91-.51-.49,2.18-2.48,2.71-6.45.5-3.72-1.35-5.78-.06-7.62.86-1.21,2.53-1.54,3.93-1.6Z"/>
      <path class="cls-1" d="M88.06,40.76c.33,1.4,1.36,6.59-1.7,10.64-2.41,3.18-6.54,4.58-7.03,3.95-.44-.56,2.51-2.15,3.59-6.01,1.01-3.61-.52-5.91,1.02-7.55,1.02-1.08,2.72-1.17,4.11-1.03Z"/>
      <path class="cls-1" d="M98.41,39.64c.06,1.44.09,6.73-3.67,10.12-2.97,2.67-7.28,3.26-7.65,2.56-.32-.63,2.87-1.64,4.66-5.22,1.68-3.35.6-5.91,2.42-7.22,1.2-.87,2.89-.63,4.24-.24Z"/>
      <path class="cls-1" d="M107.12,37.42c.12,1.43.38,6.72-3.24,10.27-2.85,2.8-7.14,3.57-7.53,2.88-.35-.62,2.79-1.76,4.43-5.42,1.53-3.42.35-5.93,2.11-7.32,1.17-.92,2.87-.76,4.22-.42Z"/>
      <path class="cls-1" d="M118.18,41.55c-.38,1.39-1.94,6.44-6.56,8.54-3.63,1.65-7.93.91-8.06.13-.12-.7,3.23-.69,6.02-3.57,2.61-2.69,2.36-5.45,4.49-6.15,1.41-.46,2.95.27,4.11,1.05Z"/>
      <path class="cls-1" d="M126.32,48.01c-.8,1.2-3.87,5.51-8.91,6.05-3.97.43-7.81-1.62-7.69-2.41.11-.7,3.28.35,6.84-1.5,3.32-1.73,3.95-4.43,6.19-4.43,1.49,0,2.72,1.18,3.57,2.29Z"/>
      <path class="cls-1" d="M134.52,52.91c-.92,1.1-4.44,5.06-9.51,5.06-3.99,0-7.59-2.45-7.39-3.22.18-.69,3.23.71,6.96-.76,3.49-1.37,4.4-3.98,6.64-3.74,1.48.16,2.57,1.47,3.31,2.66Z"/>
      <path class="cls-1" d="M137.57,61.2c-1.22.73-5.8,3.29-10.93,1.93-4.03-1.07-7.03-4.21-6.63-4.83.36-.56,3.08,1.49,7.23,1.19,3.88-.28,5.49-2.35,7.68-1.54,1.45.54,2.22,1.99,2.65,3.24Z"/>
      <path class="cls-1" d="M135.73,72.53c-1.45.06-6.83.12-11.58-3.33-3.73-2.72-5.8-6.69-5.21-7.03.53-.3,2.64,2.63,6.91,4.27,3.99,1.53,6.23.52,8.19,2.19,1.3,1.1,1.63,2.66,1.68,3.9Z"/>
      <path class="cls-1" d="M130.51,80.96c-1.44-.02-6.72-.26-9.92-4.2-2.51-3.1-2.87-7.45-2.15-7.77.65-.29,1.48,2.95,4.97,4.93,3.26,1.85,5.87.91,7.08,2.8.8,1.25.48,2.92.02,4.24Z"/>
      <path class="cls-1" d="M123.73,88.49c-1.38-.41-6.4-2.08-8.4-6.75-1.57-3.67-.74-7.95.05-8.06.7-.1.62,3.24,3.44,6.1,2.63,2.67,5.4,2.48,6.05,4.62.43,1.42-.34,2.94-1.14,4.09Z"/>
      <path class="cls-1" d="M114.18,94.59c-1.17-.83-5.38-4.03-5.77-9.09-.31-3.98,1.86-7.76,2.64-7.62.7.13-.46,3.27,1.29,6.88,1.63,3.38,4.31,4.08,4.24,6.33-.05,1.48-1.27,2.68-2.4,3.5Z"/>
      <path class="cls-1" d="M104.5,102.73c-1.1-.93-5.04-4.46-5.02-9.53.02-3.99,2.49-7.58,3.25-7.38.69.18-.72,3.22.73,6.96,1.35,3.5,3.96,4.42,3.71,6.65-.17,1.48-1.48,2.57-2.67,3.29Z"/>
      <path class="cls-1" d="M94.47,111.51c-1.2-.79-5.53-3.84-6.1-8.88-.45-3.97,1.58-7.82,2.37-7.71.7.1-.34,3.28,1.54,6.83,1.75,3.31,4.45,3.93,4.46,6.17,0,1.49-1.17,2.72-2.27,3.59Z"/>
      <path class="cls-1" d="M87.51,127.14c-1.29-.63-5.98-3.09-7.19-8.02-.96-3.88.56-7.96,1.35-7.95.71.01.09,3.3,2.4,6.57,2.16,3.06,4.92,3.32,5.22,5.54.2,1.47-.81,2.85-1.79,3.85Z"/>
      <path class="cls-1" d="M85.78,143.65c-1.44.05-6.73.06-10.11-3.72-2.66-2.98-3.23-7.3-2.52-7.66.63-.32,1.62,2.87,5.2,4.68,3.35,1.69,5.9.63,7.21,2.46.86,1.21.62,2.9.22,4.24Z"/>
      <path class="cls-1" d="M92.63,162.74c-1.13.88-5.41,3.99-10.37,2.91-3.9-.85-6.89-4.02-6.53-4.73.32-.63,3,1.38,6.96.75,3.7-.59,5.15-2.95,7.28-2.23,1.41.47,2.2,1.99,2.66,3.3Z"/>
      <path class="cls-1" d="M107.23,175.7c-.75,1.23-3.65,5.65-8.67,6.39-3.95.58-7.87-1.32-7.78-2.11.08-.71,3.29.23,6.77-1.76,3.25-1.86,3.78-4.58,6.02-4.67,1.48-.06,2.76,1.08,3.66,2.15Z"/>
      <path class="cls-1" d="M125.06,183.38c-.35,1.39-1.78,6.49-6.34,8.7-3.59,1.74-7.9,1.11-8.06.33-.14-.7,3.21-.77,5.93-3.72,2.54-2.75,2.22-5.51,4.33-6.26,1.4-.5,2.96.2,4.14.95Z"/>
      <path class="cls-1" d="M144.71,177.95c.72,1.25,3.21,5.92,1.45,10.67-1.39,3.74-4.93,6.27-5.58,5.82-.58-.41,1.78-2.78,1.7-6.79-.07-3.75-2.21-5.51-1.21-7.52.66-1.33,2.27-1.9,3.64-2.18Z"/>
      <path class="cls-1" d="M159.09,172.85c.8,1.19,3.63,5.67,2.22,10.54-1.11,3.84-4.46,6.62-5.14,6.21-.61-.37,1.57-2.9,1.2-6.9-.34-3.73-2.6-5.34-1.75-7.41.56-1.37,2.13-2.06,3.47-2.44Z"/>
      <path class="cls-1" d="M170.29,164.8c.91,1.11,4.15,5.3,3.21,10.28-.74,3.92-3.82,7.01-4.53,6.67-.64-.31,1.29-3.04.55-6.98-.7-3.68-3.1-5.07-2.44-7.21.43-1.42,1.92-2.26,3.23-2.76Z"/>
      <path class="cls-1" d="M135.53,153.91c-1.49-1.07-.66-3.48-1-7-.54-5.6-3.5-8.68-3-9,.54-.35,3.96,3.26,6,8,.61,1.42,2.79,6.48,1,8-.75.64-2.15.62-3,0Z"/>
      <path class="cls-1" d="M128.72,155.26c-.66-1.38.72-3.44,1.68-6.83,1.53-5.4.52-9.04.98-9.21.49-.19,1.63,4.05,1.43,9.02-.06,1.49-.27,6.79-2.02,7.78-.73.41-1.69.05-2.07-.75Z"/>
      <path class="cls-1" d="M120.71,153.64c-.25-1.82,2.07-2.88,4.39-5.54,3.69-4.25,3.88-8.52,4.46-8.37.62.16.36,5.11-1.67,9.86-.61,1.42-2.77,6.48-5.11,6.23-.98-.11-1.92-1.13-2.07-2.18Z"/>
      <path class="cls-1" d="M114.8,147.49c.62-1.73,3.16-1.6,6.45-2.9,5.23-2.07,7.37-5.77,7.81-5.38.48.43-2.03,4.7-6.02,7.98-1.19.98-5.45,4.48-7.41,3.18-.82-.54-1.19-1.89-.83-2.88Z"/>
      <path class="cls-1" d="M112.44,141.05c1.13-1.45,3.5-.53,7.03-.73,5.62-.32,8.81-3.17,9.11-2.66.32.56-3.41,3.83-8.22,5.69-1.44.56-6.58,2.54-8.03.7-.61-.77-.54-2.17.11-3Z"/>
      <path class="cls-5" d="M56.53,28.91c.99-2.87,3.72-4.81,4-5,2.9-2.01,5.92-2.04,7-2,.56-1.03,2.03-3.42,5-5,4.08-2.18,8.05-1.25,9-1,.55-.81,2.76-3.85,7-5,4.54-1.23,8.19.57,9,1,.6-.43,4.2-2.94,9-2,5.3,1.04,7.7,5.42,8,6,.51-.53,3.17-3.15,7-3,4.08.16,7.82,3.37,9,8,.45-.16,4.37-1.42,8,1,4.14,2.76,4.01,7.73,4,8,.68-.21,5.11-1.54,9,1,3.89,2.53,5.64,7.87,4,13,.95.52,4.48,2.6,6,7,2.15,6.21-1.64,11.51-2,12,.82,1.03,2.86,3.89,3,8,.21,6.39-4.35,10.44-5,11,.14,1.16.45,5.07-2,9-2.73,4.37-6.97,5.71-8,6,.05.37.54,5.02-3,8-2.44,2.05-5.26,2.03-6,2-.29,1.02-1.04,3.14-3,5-2.76,2.62-6.04,2.94-7,3-.29,1-1.04,3.11-3,5-2.34,2.26-4.99,2.83-6,3-.36,1.08-.97,2.51-2,4-1.37,1.98-2.92,3.25-4,4,.22.65.83,2.68,0,5-.54,1.53-1.47,2.51-2,3,.46.39,1.48,1.37,2,3,.6,1.86.18,3.44,0,4,.52.1,1.31.35,2,1,1.23,1.16,1.6,3.1,1,5,.59-.19,2.18-.61,4,0,2.83.96,3.86,3.63,4,4,.52-.33,1.57-.89,3-1,2-.15,3.48.68,4,1,.63-.55,1.98-1.6,4-2,2.99-.6,5.35.63,6,1,.43-.72,1.34-2.03,3-3,2.62-1.54,5.25-1.14,6-1,.08-.36.84-3.54,4-5,2.92-1.35,5.61-.18,6,0,.27-.84,1.28-3.62,4-5,4.62-2.34,9.61,1.67,10,2,3.95,3.28,6.08,10.02,3,14-1.8,2.33-4.73,2.85-6,3,.02.48.12,4.35-3,7-2.48,2.1-5.33,2.03-6,2-.16.75-.95,3.92-4,6-4.05,2.75-8.55,1.17-9,1-.29.57-2.04,3.87-6,5-4.84,1.38-8.68-1.73-9-2-.28.4-3.83,5.17-10,5-6.52-.18-9.82-5.69-10-6-1.18.13-6.36.57-11-3-3.22-2.48-4.53-5.63-5-7-.91-.31-5.57-1.99-8-7-1.97-4.06-1.26-7.84-1-9-.83-.87-3.63-4.03-4-9-.4-5.36,2.31-9.11,3-10-2.1-3.57-2.11-7.86,0-11,1.99-2.97,5.13-3.8,6-4-.23-.54-1.52-3.69,0-7,1.37-2.99,4.49-4.93,8-5,.09-.71.63-4.48,4-7,2.46-1.84,5.06-1.99,6-2,.01-.37.27-4.73,4-7,2.63-1.6,5.32-1.14,6-1-.06-.49-.23-2.36,1-4,1.3-1.74,3.66-2.52,6-2-.12-.25-1.22-2.55,0-5,.12-.25,1.3-2.51,4-3-.27-.96-.77-3.25,0-6,.75-2.65,2.28-4.31,3-5-.37-.65-1.05-2.09-1-4,.07-2.69,1.55-4.49,2-5-.84-.19-3.15-.85-5-3-1.32-1.54-1.81-3.14-2-4-1.05-.16-3.01-.59-5-2-2.47-1.75-3.58-4-4-5-.41.26-2.86,1.78-6,1-3.34-.83-4.79-3.59-5-4-1.01.42-2.76,1-5,1-1.09,0-2.93-.14-5-1-.49.48-1.87,1.7-4,2-3.31.46-5.68-1.69-6-2-.35.6-1.87,3.05-5,4-2.27.69-4.21.24-5,0-.38.93-1.23,2.63-3,4,0,0-2.48,1.92-6,2-7.89.19-17.57-11.58-15-19Z"/>
      <path class="cls-5" d="M44.53,51.91c-1.56-1.68-5.94-6.38-5-12,1.21-7.24,10.69-12.74,19-11,5.78,1.21,10.26,5.75,12,11,2.04,6.15.67,14.42-5,18-7.21,4.55-16.73-1.41-21-6Z"/>
      <path class="cls-4" d="M43.53,50.91c-2.3,1.51-10.36,6.38-21,5C8.58,54.11-.08,42.81.53,41.91c.43-.63,5.43,3.72,14,6,9.9,2.64,19.14,1.09,26-1,1,1.33,2,2.67,3,4Z"/>
      <path class="cls-4" d="M47.53,54.91c-2.61,2.75-6.57,7.81-8,15-2.79,14.06,6.08,26.31,7,26,.82-.28-4.95-10.49-2-23,1.54-6.53,4.94-11.51,8-15-1.67-1-3.33-2-5-3Z"/>
      <path class="cls-4" d="M173.53,141.91c4.21-5.83,9.01-14.23,11-25,3.85-20.79-5.12-37.63-4-38,1.07-.36,10.98,14.39,10,33-.85,16.11-9.48,27.74-14,33l-3-3Z"/>
      <path class="cls-4" d="M179.24,148.78c6.61-2.82,15.86-5.66,26.8-5.24,21.13.81,35.59,13.26,36.2,12.24.58-.97-11.62-13.87-30-17-15.9-2.7-29.15,3.15-35.27,6.41.76,1.2,1.51,2.39,2.27,3.59Z"/>
      <path class="cls-2" d="M67.53,21.91c1.08.25,7.35,1.79,11,8,3.15,5.37,2.26,10.68,2,12"/>
      <path class="cls-2" d="M81.53,15.91c1.91,1.62,6,5.54,8,12,1.28,4.12,1.22,7.73,1,10"/>
      <path class="cls-2" d="M97.53,11.91c1.72,2.5,6.2,9.76,5,19-.36,2.77-1.16,5.13-2,7"/>
      <path class="cls-2" d="M114.53,15.91c.72,1.72,2.58,6.8,1,13-1.17,4.59-3.67,7.6-5,9"/>
      <path class="cls-2" d="M130.53,20.91c.22,2,1,10.88-5,17-1.29,1.31-2.68,2.28-4,3"/>
      <path class="cls-2" d="M142.53,29.91c-.27,2.12-.97,5.45-3,9-2.92,5.11-6.97,7.83-9,9"/>
      <path class="cls-2" d="M155.53,43.91c-.34,1.13-1.94,5.96-7,9-4.93,2.96-9.8,2.22-11,2"/>
      <path class="cls-2" d="M136.53,63.91c1.7,1.03,5.22,2.83,10,3,6.69.24,11.46-2.89,13-4"/>
      <path class="cls-2" d="M133.53,74.91c1.57,1.34,3.56,2.77,6,4,7.33,3.69,14.4,3.42,18,3"/>
      <path class="cls-2" d="M129.53,82.91c.39,1.81,1.36,5.02,4,8,5.23,5.89,12.7,6,14,6"/>
      <path class="cls-2" d="M122.53,88.91c.04,1.97.4,4.92,2,8,4.06,7.82,12.61,9.72,14,10"/>
      <path class="cls-2" d="M112.53,96.91c.26,2.04,1.07,6.05,4,10,4.26,5.74,10.13,7.52,12,8"/>
      <path class="cls-2" d="M102.53,105.91c.18,1.67.94,6.63,5,11,4.65,5.01,10.47,5.83,12,6"/>
      <path class="cls-2" d="M94.53,117.91c.35,1.33,1.85,6.44,7,10,5.24,3.62,10.66,3.15,12,3"/>
      <path class="cls-2" d="M88.53,132.91c1.24,1.55,3.82,4.3,8,6,7.03,2.85,13.4.61,15,0"/>
      <path class="cls-2" d="M89.53,151.91c1.43.66,7.14,3.08,14,1,5.72-1.73,8.93-5.59,10-7"/>
      <path class="cls-2" d="M98.53,167.91c2.04-.26,6.05-1.07,10-4,5.74-4.26,7.52-10.13,8-12"/>
      <path class="cls-2" d="M114.53,177.91c1.66-.77,5.37-2.76,8-7,4.16-6.7,2.35-13.74,2-15"/>
      <path class="cls-2" d="M134.53,178.91c1.06-1.53,2.63-4.29,3-8,.83-8.32-5.12-14.17-6-15"/>
      <path class="cls-2" d="M149.53,175.91c.48-1.8,1.21-5.56,0-10-1.8-6.58-6.61-10.06-8-11"/>
      <path class="cls-2" d="M150.53,150.91c1.67.1,2.99.52,4,1,7.97,3.76,8.01,16.36,8,17"/>
      <path class="cls-2" d="M160.53,145.91c.96.09,4.93.59,8,4,3.73,4.15,3.1,9.26,3,10"/>
      <circle class="cls-3" cx="42.46" cy="43.83" r="9.58"/>
      <circle class="cls-7" cx="42.13" cy="43.69" r="7.37"/>
      <circle cx="42.47" cy="44.12" r="4.47"/>
      <circle class="cls-6" cx="36.26" cy="42.17" r="3.02"/>
      <circle class="cls-3" cx="57.3" cy="57.68" r="9.58"/>
      <circle class="cls-7" cx="56.98" cy="57.54" r="7.37"/>
      <circle cx="57.32" cy="57.97" r="4.47"/>
      <circle class="cls-6" cx="51.11" cy="56.02" r="3.02"/>
    </g>
  </g>
</svg>