<?xml version="1.0" encoding="UTF-8"?>
<svg id="Layer_2" data-name="Layer 2" xmlns="http://www.w3.org/2000/svg" viewBox="0 0 187.5 190.65">
  <defs>
    <style>
      .cls-1, .cls-2 {
        fill: #fff;
      }

      .cls-3, .cls-2, .cls-4, .cls-5, .cls-6 {
        stroke: #000;
        stroke-miterlimit: 10;
      }

      .cls-3, .cls-7 {
        fill: #333;
      }

      .cls-5 {
        fill: #550900;
      }

      .cls-8 {
        fill: #1f1f21;
      }

      .cls-6 {
        fill: #999;
      }
    </style>
  </defs>
  <g id="Layer_1-2" data-name="Layer 1">
    <g>
      <path class="cls-4" d="M179.87,64.74c2.47.22,4.37,3.06,5,4,3.53,5.27,1.46,12.14,0,17-3.31,10.99-10.22,17.59-13,20-4.67,4.05-9.69,8.4-12,7-6.29-3.81,9.66-48.93,20-48Z"/>
      <path class="cls-3" d="M118.87,55.74c1.68-1.32,2.56-1.72,4-3,2.01-1.79,3.26-3.68,4-5-.39.46-1.37,1.48-3,2-1.86.6-3.44.18-4,0,.78-.05,2.99-.3,5-2,2.67-2.26,2.96-5.39,3-6-.87.66-1.87,1.34-3,2-1.43.84-2.78,1.49-4,2,1.07-1.05,2.43-2.71,3-5,.54-2.16.03-3.47,0-5-.09-4.89,4.83-7.42,7-11,1.94-3.2,2.7-8.93-3-20,4.97-2.78,9.32-3.67,12-4,16.25-2.01,29.88,9.26,32,14,.22.49,1.09,2.65,3,5,1.14,1.41,2.26,2.4,3,3-.46.47-1.16,1-2,1-1.69,0-2.71-2.16-3-2-.48.26,2.9,5.96,5,13,1.49,5.01,1.12,6.62,3,11,1.35,3.14,2.9,5.5,4,7-1.67-1.33-3.33-2.67-5-4,1.67,5.33,3.33,10.67,5,16-2-1.67-4-3.33-6-5,.9,3.02,1.8,7.11,2,12,.2,4.83-.36,8.94-1,12l-3-6c-1.11,3.92-2.95,9.56-6,16-3.48,7.35-9.2,19.42-21,29-10.13,8.23-20.25,10.98-28,13-19.62,5.11-36.99,2.7-48,0-1.36.82-3.5,2.16-6,4-7.64,5.62-9.76,9.38-17,16-2.32,2.12-12.83,11.73-15,10-.99-.79.02-3.71,1-6-4.01,1.35-7,2.86-9,4-3.29,1.87-5.46,3.62-8,3-1.42-.35-2.41-1.3-3-2-2.02.9-5.54,2.13-10,2-2.41-.07-4.45-.52-6-1,1.04-1.24,2.36-2.62,4-4,2.16-1.81,4.25-3.1,6-4-1.65.47-3.68.87-6,1-1.07.06-2.08.05-3,0,4.27-3,8.6-6,13-9,7.06-4.82,14.07-9.48,21-14,22.99-11.18,36.14-24,44-34,0,0,9.96-12.68,34-41,1.93-2.28,3.3-3.66,5-5Z"/>
      <path class="cls-6" d="M62.87,143.74c1.29,1.91,1.8,3.34,4,10,2.2,6.69,2.54,7.85,4,9,2.33,1.84,5.38,1.95,7,2,4.06.14,6.12-1.42,9,0,.56.27,1.79.9,2,2,.23,1.24-1.09,1.8-1,3,.14,1.79,3.19,1.85,4,4,.69,1.83-.47,4.57-2,5-1.63.45-2.9-1.92-6-4-3.19-2.15-6.55-2.8-9-3,.77.98,1.81,2.34,3,4,2.99,4.16,3.29,5.14,3,6-.37,1.1-1.73,2.1-3,2-2-.15-2.41-2.9-6-8-3.38-4.81-5.39-5.74-6-6-2.08-.88-4.37-.98-5-1-3.02-.1-4.02.75-6,0-.32-.12-2.88-1.13-3-3-.11-1.71,1.89-2.94,2-3,1.58-.93,3.29-.59,6,0,1.51.33,3.6.91,6,2-.45-3.02-1.31-6.82-3-11-2.13-5.26-4.82-9.25-7-12,.01-1.24.2-2.65,1-3,1.48-.64,4.38,2.6,6,5Z"/>
      <path class="cls-3" d="M105.87,100.74c2.56,3.01-2.68,11.76-6,16-7.69,9.82-13.6,6.28-24,17-4.08,4.21-9.03,10.79-13,10-2.35-.47-4-2-4-2-.51-.47-1.68-1.56-2-3-.58-2.59,1.94-4.58,5-9,2.36-3.41,3.08-5.43,4-7,5.88-10.03,35.22-27.63,40-22Z"/>
      <path class="cls-3" d="M33.87,135.74c1.55,2.33,16.25-4.94,45-20,25.1-13.15,31.34-16.75,38-25,3.36-4.16,15.16-18.77,10-28-4.64-8.31-20.16-7.16-22-7-10.44.89-17.47,6.69-20,9,1.33.33,2.67.67,4,1-2.51.76-6.19,2.19-10,5-3.3,2.43-5.55,5.04-7,7,3.05-.58,3.86-.35,4,0,.47,1.13-6.1,3.75-11,9-4.28,4.59-6.12,9.95-7,14-.92.38-3.23,1.46-5,4-1.74,2.5-1.96,5-2,6-1.71,1.3-3.91,3.24-6,6-1.97,2.6-3.21,5.08-4,7-1.17,1.15-2.63,2.8-4,5-1.78,2.87-3.7,5.95-3,7Z"/>
      <path class="cls-8" d="M75.87,80.74c-4.43,3.46-6.77,6.28-8,8-.74,1.03-1.42,2.16-1,3,.57,1.14,2.76,1.02,3,1-3.88,4.76-5.54,7.42-5,8,.31.32,1.31-.01,3-1-.82.76-2.04,2.07-3,4-.64,1.3-1.94,3.92-1,5,.84.96,3.34.57,6-1-.63.82-1.5,2.17-2,4-.37,1.37-.89,3.28,0,4,.77.63,2.45.22,4-1-.14.37-.43,1.27,0,2,.37.63,1.13,1.16,2,1,.74-.14,1.34-.73,1.5-1.5-.82-5.97-1.33-13.06-1-21,.22-5.31.78-10.17,1.5-14.5Z"/>
      <path class="cls-6" d="M106.87,149.74c-.7,1.35,2.86,4.83,6,7,8.03,5.55,17.07,5.14,17,6-.05.64-5.01.94-6,1-4.31.26-5.99-.21-7,1-.91,1.08-.9,3.04,0,4,1.1,1.18,3.32.59,6,0,6.69-1.47,10.03-2.21,13-2,1.12.08,7.33.52,12,4,.63.47,2.48,1.93,5,2,.73.02,2.46.07,3-1,.4-.81.01-2.04-1-3,.55.23,2.81,1.08,5,0,.55-.27,1.78-.88,2-2,.39-1.96-2.64-3.79-3-4-1.16-.69-2.28-.91-3-1,.07-.43.38-2.63-1-4-.73-.72-1.79-1.08-4-1-3.72.14-5.73,1.34-8,2-3.33.96-6.22.31-12-1-4.01-.91-7.32-1.66-11-4-2.55-1.62-3.84-3.09-7-4-1.94-.56-5.41-1.14-6,0Z"/>
      <g>
        <path class="cls-7" d="M77.87,79.74c-1.45,1.42-3.51,3.46-6,6-1.88,1.91-3.21,3.3-3,5,.11.89.6,1.56,1,2-.15.72-.44,1.79-1,3-1.06,2.29-2.36,3.46-2,4,.15.22.59.38,2,0-.39.91-1.03,2.34-2,4-1.4,2.41-2.33,3.37-2,4,.25.48,1.26.85,5,0-.32.95-.71,2.31-1,4-.26,1.52-.18,1.83,0,2,.41.38,1.58.27,5-2,.04-.03.07-.04.08-.03.19.14-1.73,2.71-1.08,4.03.25.5.98,1,3,1"/>
        <path d="M77.87,79.74c-.91,1.07-1.83,2.13-2.76,3.18-.94,1.03-1.81,2.14-2.81,3.12-.97.99-2,1.97-2.6,3.08-.29.56-.42,1.13-.31,1.71.1.57.42,1.11.85,1.58l.17.19-.05.25c-.35,1.65-1,3.25-1.88,4.68l-.66,1.05c-.21.33-.45.71-.5.91,0,.04,0,.04-.01-.01-.02-.04-.06-.06-.04-.04.04.02.21.04.37.03.34-.02.73-.11,1.1-.21l.99-.26-.4.94c-.47,1.11-1,2.19-1.57,3.25-.57,1.06-1.22,2.08-1.86,3.07-.16.25-.31.49-.43.73-.13.23-.19.47-.16.5,0,.03.07.12.3.18.21.06.48.08.75.08,1.1-.01,2.27-.24,3.4-.5l.86-.19-.28.84c-.5,1.5-.87,3.07-1.09,4.63-.02.19-.04.38-.05.56-.02.17.03.35.02.3-.02-.03,0,.02.13.02.12,0,.29-.02.45-.07.68-.19,1.4-.57,2.08-.96.34-.2.69-.4,1.02-.62l.5-.33.13-.08.08-.05s.06-.03.13-.06c.04-.01.08-.03.18-.03.05,0,.12,0,.21.04.11.05.15.09.17.12.07.07.13.19.14.27,0,.04,0,.08,0,.11,0,.1-.01.11-.02.14-.02.08-.03.1-.05.14-.03.07-.06.12-.08.17-.43.74-.85,1.38-1.12,2.1-.28.7-.33,1.49.38,1.86.66.38,1.49.5,2.29.57-.81.04-1.64.08-2.46-.25-.4-.16-.8-.54-.9-1.02-.11-.47-.05-.92.05-1.34.19-.84.58-1.62.87-2.33l.04-.11s0-.03,0,0c0,0,0,0,0,.07,0,.03,0,.05,0,.08,0,.06.06.17.12.23.03.02.06.06.16.11.08.03.15.04.19.04.09,0,.12-.02.15-.03l.06-.03s-.03.02-.05.03l-.13.09-.52.33-1.06.64c-.73.4-1.45.81-2.33,1.06-.23.06-.46.1-.75.1-.27,0-.67-.1-.93-.47-.23-.41-.17-.65-.18-.88,0-.23.03-.44.06-.65.23-1.65.61-3.25,1.13-4.82l.59.65c-1.18.26-2.36.51-3.63.52-.32,0-.65-.02-1.01-.12-.33-.08-.86-.33-1-.9-.1-.57.12-.9.25-1.19.15-.29.31-.55.47-.81.65-1.01,1.27-1.99,1.83-3.02.56-1.03,1.07-2.08,1.53-3.16l.59.68c-.41.11-.83.21-1.31.24-.24,0-.49.02-.83-.11-.16-.07-.38-.22-.47-.46-.11-.23-.08-.45-.06-.61.17-.59.42-.88.64-1.25l.65-1.03c.83-1.36,1.43-2.83,1.76-4.38l.12.44c-.52-.56-.95-1.27-1.1-2.08-.16-.81.04-1.67.4-2.35.74-1.36,1.81-2.31,2.77-3.33.98-1,2.09-1.88,3.12-2.82,1.05-.93,2.11-1.85,3.18-2.76Z"/>
      </g>
      <path class="cls-3" d="M127.87,133.74c.39,1.19-2.56,1.79-7,7-4.03,4.73-4.36,7.47-8,9-.47.2-4.14,1.74-6,0-.78-.73-1.15-1.95-1-3,.2-1.35,1.18-1.79,2-3,1.53-2.27.51-4.31,1-6,1.55-5.36,18.09-6.77,19-4Z"/>
      <path class="cls-6" d="M142.87,29.74c.18-4.31-3.7-7.63-6-10-2.83-2.91-6.34-7.56-9-15-.57-.38-1.24-.73-2-1-3.98-1.42-7.79.37-9,1-2.25.21-14.5,1.55-20,11-.76,1.31-1.5,2.97-2,5,5.59-1.31,10.39-1.81,14-2,6.52-.34,14.1-.61,22,3,4.89,2.24,9.51,5.79,9,7-.59,1.39-7.28-1.85-15-1-8.28.91-14.64,6.17-19,11,1.8-.62,4.55-1.44,8-2,4.35-.7,5.36-.26,10-1,5.79-.92,5.14-1.76,9-2,4.63-.28,7.35.81,9-1,.9-.99.97-2.28,1-3Z"/>
      <path class="cls-5" d="M130.87,27.74c5.7.4,8.62,1.74,9,1,.46-.91-3.34-4-7-6-3.14-1.72-6.02-2.56-8-3,2.23.83,3.45,3.05,3,5-.33,1.41-1.5,2.54-3,3,1.37-.1,3.47-.18,6,0Z"/>
      <path class="cls-4" d="M152.87,157.74c.32-.95,2.04-1.1,3-1,2.36.26,3.72,2.52,4,3-1.2-.1-2.22-.07-3,0-1.58.14-2.26.43-3,0-.7-.41-1.22-1.33-1-2Z"/>
      <path class="cls-4" d="M158.87,165.74c.63-.78,2.28-.31,3,0,2.18.94,2.86,3.42,3,4-.76-.51-1.78-.99-3-1-.96,0-1.4.29-2,0-1.01-.49-1.62-2.22-1-3Z"/>
      <path class="cls-4" d="M154.87,170.74c1.48-.14,2.67,1.66,3,3,.51,2.06-.8,3.75-1,4,0-.81-.15-2.05-1-3-1.17-1.31-2.82-1.12-3-2-.16-.77.91-1.9,2-2Z"/>
      <path class="cls-4" d="M117.87,165.74c-.33-.97-2.03-1.14-3-1-2.63.39-3.87,3.65-4,4,1.23-1.64,2.25-2.02,3-2,1.34.03,2.03,1.33,3,1,.73-.25,1.24-1.3,1-2Z"/>
      <path class="cls-4" d="M88.87,165.74c.73-.2,1.47.5,2,1,1.33,1.25,1.81,2.87,2,4-.4-.81-1.03-1.68-2-2-1.38-.45-2.46.53-3,0-.61-.6-.09-2.71,1-3Z"/>
      <path class="cls-4" d="M90.87,174.74c1.05-.31,2.59,1.34,3,3,.5,2.03-.79,3.73-1,4,.17-.51.36-1.31,0-2-.65-1.23-2.41-.86-3-2-.52-1.01.1-2.74,1-3Z"/>
      <path class="cls-4" d="M79.87,180.74c1.23.03,1.9,1.72,2,2,1,2.72-1.73,5.71-2,6,.22-.73.44-1.87,0-3-.61-1.57-2.01-1.87-2-3,0-.95,1.01-2.02,2-2Z"/>
      <path class="cls-4" d="M52.87,167.74c-.73.36-1.48-.86-3-1-1.59-.15-3,.96-4,2,.03-.71.2-1.9,1-3,1.48-2.05,4.67-3.16,6-2,1.12.98.91,3.55,0,4Z"/>
      <polygon points="87.77 170.23 77.87 167.74 87.97 169.25 87.77 170.23 87.77 170.23"/>
      <path d="M155.8,162.23c-3.24-.64-6.69-.49-9.93.51,3.13-1.3,6.62-1.83,10.07-1.49l-.14.99h0Z"/>
      <path d="M10.72,157.26c12.81-3.79,24.36-11.46,33.15-21.52-8.58,10.33-20.03,18.33-32.85,22.48,0,0-.3-.95-.3-.95h0Z"/>
      <path d="M16.63,164.3c11.38-6,21.92-13.62,31.24-22.56-9.08,9.18-19.46,17.11-30.76,23.44l-.48-.88h0Z"/>
      <path d="M36.6,159.32c6.62-4.06,12.51-9.37,17.27-15.58-4.49,6.41-10.19,12.01-16.73,16.42l-.54-.84h0Z"/>
      <path d="M57.69,100.27c4.53-1.51,8.74-4.1,12.17-7.53-3.19,3.66-7.26,6.59-11.83,8.47l-.35-.94h0Z"/>
      <path d="M50.7,110.27c6.01-2.03,11.99-4.85,17.17-8.53-2.54,1.97-5.24,3.76-8.05,5.35-2.42,1.45-6.16,3.01-8.78,4.12,0,0-.33-.94-.33-.94h0Z"/>
      <path d="M40.78,123.24c10.21-1.55,20.01-5.93,28.08-12.51-7.86,6.83-17.58,11.58-27.92,13.49l-.17-.99h0Z"/>
      <g>
        <path class="cls-7" d="M69.87,92.74c2.54-1.01,5.25-2.31,8-4,11.77-7.23,17.97-17.63,21-24"/>
        <path d="M69.68,92.27c12.92-4.84,23.22-15.2,29.18-27.54-5.69,12.56-15.9,23.28-28.82,28.46,0,0-.37-.93-.37-.93h0Z"/>
      </g>
      <g>
        <path class="cls-7" d="M68.87,99.74c2.89-.65,5.92-1.62,9-3,18.15-8.16,26.18-25.71,29-33"/>
        <path d="M68.76,99.25c15.75-3.21,28.32-15.18,35.3-29.3,1.04-2.02,1.97-4.1,2.81-6.21-.8,2.13-1.7,4.22-2.7,6.27-5.89,12.31-15.72,23.16-28.62,28.17-2.14.84-4.33,1.52-6.57,2.05,0,0-.22-.98-.22-.98h0Z"/>
      </g>
      <g>
        <path class="cls-7" d="M69.87,107.74c3.42-1.17,7.15-2.78,11-5,13.6-7.84,21.18-19.07,25-26"/>
        <path d="M69.71,107.26c15.43-5,28.3-16.42,36.16-30.53-7.62,14.35-20.37,26.11-35.84,31.47,0,0-.32-.95-.32-.95h0Z"/>
      </g>
      <g>
        <path class="cls-7" d="M73.87,111.74c3.58-1.06,7.69-2.63,12-5,10.68-5.87,17.32-13.75,21-19"/>
        <path d="M73.73,111.26c13.33-3.7,25.12-12.26,33.14-23.52-7.8,11.52-19.49,20.42-32.86,24.48,0,0-.28-.96-.28-.96h0Z"/>
      </g>
      <circle class="cls-2" cx="147.44" cy="13.61" r="5.43"/>
      <circle class="cls-7" cx="145.93" cy="13.3" r="4.18"/>
      <circle cx="145.85" cy="13" r="2.53"/>
      <circle class="cls-1" cx="148.52" cy="12.11" r="1.71"/>
      <path class="cls-8" d="M113.37,122.24c-2.18-3.07,2.95-8.78,8-19,9.46-19.15,9.88-36.4,9.5-36.5-.29-.07-1.61,9.6-8,20-4.23,6.88-9.78,11.29-14,14-.42,2.86-1.42,7.24-4,12-1.48,2.74-3.66,6.75-8,10-4.86,3.63-7.7,2.77-14,7-2.74,1.84-4.73,3.7-6,5,6.46,1.32,11.95,1.81,16,2,7.04.33,10.64.46,15-1,4.39-1.47,5.12-3.01,9-4,5.16-1.32,9.89-.14,13,1,5.91-2.15,15.19-6.45,24-15,10.08-9.79,14.25-20.02,17-27,2.48-6.29,5.63-17.28,4-18-3.07-1.36-14.58,37.4-44.5,48.5-.91.34-14.07,5.11-17,1Z"/>
    </g>
  </g>
</svg>