<?xml version="1.0" encoding="UTF-8"?>
<svg id="Layer_2" data-name="Layer 2" xmlns="http://www.w3.org/2000/svg" viewBox="0 0 259.53 312.28">
  <defs>
    <style>
      .cls-1 {
        fill: none;
      }

      .cls-1, .cls-2, .cls-3, .cls-4, .cls-5, .cls-6, .cls-7, .cls-8, .cls-9 {
        stroke: #000;
        stroke-miterlimit: 10;
      }

      .cls-2 {
        fill: #644300;
      }

      .cls-10, .cls-3 {
        fill: #fff;
      }

      .cls-4 {
        fill: #ffb135;
      }

      .cls-5 {
        fill: #ffc759;
      }

      .cls-6 {
        fill: #564900;
      }

      .cls-11 {
        fill: #333;
      }

      .cls-7 {
        fill: #ba7700;
      }

      .cls-8, .cls-12 {
        fill: #ffeac9;
      }

      .cls-9 {
        fill: #ff7859;
      }
    </style>
  </defs>
  <g id="Layer_1-2" data-name="Layer 1">
    <g>
      <path class="cls-8" d="M231.57,90.39c-.94,3.91-1.64,9.06-1,15,1.83,17.04,13.29,27.8,17,31-2.63-.81-7.44-2.68-12-7-3.89-3.68-5.95-7.58-7-10,.31,2.95,1.19,7.77,4,13,2.61,4.86,5.82,8.11,8,10-2.83-1.25-9.95-4.87-15-13-4.08-6.56-4.84-12.88-5-16-.88,1.93-2.55,6.31-2,12,.53,5.42,2.81,9.25,4,11-3.21-3.28-7.85-8.88-11-17-5.15-13.29-3.12-25.14-2-30"/>
      <path class="cls-5" d="M58.57,198.39c-.25,3.34-.19,8.48,2,14,2.32,5.86,4.8,6.47,9,14,3.43,6.14,6.04,10.81,6,17-.04,6.64-3.09,9.18-1,13,1.6,2.93,5.55,5.4,9,5,2.93-.34,4.13-2.6,7-2,1.77.37,2.95,1.58,4,1,.79-.44.94-1.57,1-2,.65-4.94-9.5-21.59-13-32-1.45-4.31-2.78-10.61-2-19"/>
      <path class="cls-6" d="M220.57,27.39c1.41-12.08-5.28-22.91-15-26-10.06-3.2-19.01,3.26-20,4,1.82-.12,4.71-.08,8,1,2.05.68,6.21,2.05,9,6,3.85,5.46,2.29,11.9,2,13"/>
      <path class="cls-6" d="M202.57,25.39c-1.58-2.96-5.98-10.27-15-15-2.72-1.43-12.7-6.46-25-3-12.91,3.64-18.88,13.97-20,16,1.24-1.23,9.22-8.88,21-8,9.99.75,18.87,7.34,23,17"/>
      <path class="cls-5" d="M231.57,92.39c3.14-.15,5.44.42,7,1,1.98.74,4.54,2.11,6.88,1.06.05-.02.09-.04.12-.06,2.43-1.32,3.05-5.81,2-11,1.38-.62,3.42-1.42,6-2,2.66-.6,3.22-.36,4-1,2.38-1.96,1.73-7.94-1-12-1.8-2.67-4.06-3.86-6-5-1.62-.95-11.66-6.84-17-14-5.22-7.01-1.9-9.8-8-17-1.94-2.29-6.25-7.23-12-7-1.69.07-3.07.57-4,1-2.12-.83-6.68-2.26-12-1-9.02,2.14-13.16,10.34-14,12-3.85,7.61-.94,11.88-2,23-.41,4.24-1.64,17.08-9,26-9.47,11.47-25.64,12.31-39,13-7.23.37-21.09.95-37-5-16.97-6.35-23.37-15.3-39-15-7.31.14-12.27,2.21-14,3-6.77,3.08-10.61,7.65-15,13-3.26,3.97-9.01,11.1-13,22-5.21,14.24-4.48,26.85-4,35,.55,9.46,2.14,14.87,2,28-.1,8.8-.87,12.12-2,15-2.32,5.93-5.18,7.59-6,13-.64,4.25.88,4.84,2,12,1.17,7.47,2.59,16.49-1,25-.88,2.09-2.44,5.06-2,9,.11,1.01.54,4.81,3,6,2.08,1,3.27-.99,7-1,4.72-.02,6.82,3.15,9,2,1.66-.88,1.91-3.5,2-5,.74-13.03-6.64-19.52-5-30,1.14-7.25,5.4-8.84,5-17-.17-3.48-1.05-5.16,0-8,1.43-3.9,4.57-4.79,9-9,1.97-1.87,4.56-4.75,7-9,3.68,4.63,10.14,11.58,20,17,16.32,8.97,32.34,8.45,46,8,7.66-.25,18.81-1.28,32-5-3.79,3.76-8.64,9.7-11,18-1.38,4.84-.55,5.69-2,17-1.43,11.14-2.14,16.71-4,22-2.76,7.85-6.1,12.26-4,15,1.51,1.98,5.03,1.99,6,2,4.01.02,5.13-2.31,9-2,2.88.23,4.33,1.69,5,1,.76-.79-.72-3.12-2-6,0,0-2.18-4.9-3-11-.19-1.44-1.32-10.76,4-19,1.73-2.67,2-1.94,4-5,3.91-5.99,3.29-9.47,6-14,2.5-4.18,5.8-5.87,9-8,12.16-8.1,19.58-20.36,23-26,1.81-2.99,8.36-14.26,11-30,1.38-8.25.19-8.81,2-25,1.21-10.86,1.87-16.88,4-23,1.65-4.74,5.1-12.2,13-20,7.33,1,14.67,2,22,3Z"/>
      <path class="cls-12" d="M35.07,173.89c7.62,7.13,19.35,15.64,34,16,14.79.36,18.19-7.94,35-10,26.46-3.24,36.53,15.06,50,8,15.04-7.89,10.91-34.92,27-40,3.91-1.23,7.6-.64,10,0-.36,9.73-2.27,17.59-4,23-5.46,17.07-14.8,27.59-17,30-5.12,5.6-10.21,9.48-14,12-9.17-2.5-18.33-5-27.5-7.5-8.64,2.78-26.65,7.24-48,2-6-1.47-16.85-4.28-28-13-9.21-7.2-14.59-15.3-17.5-20.5Z"/>
      <path class="cls-5" d="M119.57,169.39c-2.58,10.81-1.45,18.8,0,24,3.99,14.3,16.85,30.56,18,32,1.33,1.67,3.39,4.09,5,8,1.88,4.56,1.3,6.7,3,11,1.76,4.45,3.42,4.8,6,9,5.24,8.54,5.04,17.97,5,20-.18,8.4-3.2,10.69-1,16,.3.73,2.7,6.32,7,7,2.81.45,4.08-1.59,8-1,2.72.41,3.69,1.62,5,1,2.09-.98,2.01-5.2,2-6-.1-5.93-3.47-8.56-7-15-1.04-1.9-5.56-10.45-6-21-.26-6.21,1.18-6.42,1-12-.31-9.82-4.97-15.4-8-22-3.05-6.64-5.61-16.81-3-32"/>
      <path d="M41.16,183.67c-10.82-15.31-14.37-35.04-10.59-53.29-3.44,18.16.42,37.75,11.41,52.71,0,0-.82.58-.82.58h0Z"/>
      <path class="cls-2" d="M7.57,260.39c-3.55,4.73-4.29,10.14-2,13,2.14,2.68,6.31,2.36,11,2,4.79-.37,9.6-.73,11-4,1.2-2.82-.52-6.88-4-10-1.85-.83-4.99-1.94-9-2-2.92-.04-5.33.49-7,1Z"/>
      <path class="cls-2" d="M122.57,277.39c-.85,1.65-2.16,4.89-1,8,2.15,5.78,11.3,7.16,17,5,1.31-.5,3.23-1.22,4-3,1.24-2.87-1.03-7.36-6-11-1.74-.94-3.11-1.05-4-1-2.32.13-3.31,1.47-6,2-1.68.33-3.12.16-4,0Z"/>
      <path class="cls-2" d="M160.57,295.39c-.3.64-2.38,5.32,0,10,2.39,4.71,7.41,5.69,9,6,1.11.22,7.51,1.46,10-2,2.14-2.98.95-8.8-4-13-2.15-.94-3.86-1.05-5-1-2.43.11-3.55,1.07-6,1-1.74-.05-3.14-.59-4-1Z"/>
      <path class="cls-2" d="M77.57,259.39c-.33.48-4.77,7.1-2,13,3.6,7.67,15.62,6.19,17,6,2.48-.34,5.49-.75,7-3,2.21-3.3.45-9.47-5-15-1.45-.73-3.63-1.51-6-1-2.19.47-2.96,1.72-5,2-1.31.18-3.31-.01-6-2Z"/>
      <path class="cls-8" d="M28.57,95.39c-1.76.86-6.68,2.97-11,1-6.1-2.78-9.47-13.02-5-24-1,.73-4.74,3.62-6,9-1.15,4.88.45,8.8,1,10-.52-.15-2.62-.83-4-3-1.42-2.23-1.09-4.48-1-5-.43,1.26-1.63,5.3,0,10,1.34,3.87,3.89,6.12,5,7-.83.2-1.88.3-3,0-2.61-.71-3.73-3.16-4-3-.38.23.84,5.56,5,9,4.99,4.14,11.45,3.25,13,3"/>
      <path class="cls-5" d="M225.57,32.39c1.21-.24,2.93-.58,5-1,5.29-1.07,7.96-1.62,9-2,5.19-1.92,6.63-4.72,8-4,1.65.87,1.04,5.72,0,9-2.49,7.84-9.32,12.54-14,15"/>
      <path class="cls-5" d="M191.57,47.39c-1.2-1.49-2.9-3.56-5-6-6.04-7.04-7.72-8.23-9-9-2.38-1.43-4.31-1.97-8-3-5.57-1.55-8.36-2.33-10-1-3.02,2.45-.35,10.02,0,11,3.22,9.1,11.64,12.85,12,13,8.17,3.48,15.57.59,17,0"/>
      <path class="cls-4" d="M188.57,52.39c-4.93-1.25-8.05-3.33-10-5-3.54-3.04-6.9-7.95-9-11-2.01-2.92-3.27-5.11-6-6-1.92-.62-3.74-.34-5,0-.3,2.38-.51,7.12,2,12,4.42,8.59,13.68,10.59,16,11,5.33.94,9.73-.22,12-1Z"/>
      <path class="cls-4" d="M229.57,40.39c.07-.76.29-1.89,1-3,.89-1.38,2.08-2.02,4-3,3.42-1.75,5.14-2.63,6-3,2.02-.86,4.72-1.93,8-3-.2,2.35-.84,6.06-3,10-3.77,6.87-9.72,9.96-12,11"/>
      <path class="cls-7" d="M246.57,68.39c-.55,1.73,2.29,4.56,7,7,2.61-1.15,4.22-3.18,4-5-.11-.95-.69-1.63-1-2-1.69-2.01-4.41-2-5-2-1.55,0-4.52.5-5,2Z"/>
      <path class="cls-9" d="M247.57,83.39c-2.54-.58-6.17-1.69-10-4-6.27-3.77-9.34-8.49-10-8-.27.2-.01,1.16,5,10,4.41,7.77,5.74,9.72,8,10,2.61.32,4.77-1.78,5-2,2.38-2.37,2.05-5.58,2-6"/>
      <path d="M216.57,89.39c-10.94,1.75-24.52-4.16-25.99-16.2-.19-1.6-.21-3.22,0-4.8-.27,14.35,13.13,21.4,26,21h0Z"/>
      <path class="cls-1" d="M183.57,26.39c.51-1.02,2.21-4.13,6-6,4.12-2.04,7.95-1.25,9-1"/>
      <path class="cls-1" d="M178.57,21.39c.3-1.07,1.26-3.88,4-6,4.27-3.3,9.3-2.17,10-2"/>
      <path class="cls-1" d="M172.57,17.39c.13-.91.63-3.66,3-6,2.79-2.75,6.19-2.97,7-3"/>
      <path class="cls-1" d="M165.57,15.39c.05-.98.25-2.43,1-4,1.47-3.08,4.04-4.52,5-5"/>
      <path class="cls-1" d="M158.57,15.39c-.18-.56-.6-2.14,0-4,.52-1.63,1.54-2.61,2-3"/>
      <path class="cls-1" d="M153.57,16.39c-.24-.25-.85-.93-1-2-.23-1.66.85-2.84,1-3"/>
      <path class="cls-1" d="M149.57,18.39c-.19-.1-.7-.39-1-1-.47-.95-.06-1.87,0-2"/>
      <path class="cls-1" d="M205.57,21.39c1.32-.45,3.02-.87,5-1,4.53-.3,8.11,1.09,10,2"/>
      <path class="cls-1" d="M204.57,16.39c.95-.78,3.38-2.56,7-3,3.29-.4,5.86.51,7,1"/>
      <path class="cls-1" d="M202.57,12.39c.7-.94,2.29-2.79,5-4,3.07-1.38,5.84-1.16,7-1"/>
      <path class="cls-1" d="M198.57,8.39c.48-.96,1.92-3.53,5-5,1.57-.75,3.02-.95,4-1"/>
      <circle class="cls-3" cx="216.06" cy="54.07" r="11.18"/>
      <circle class="cls-11" cx="215.82" cy="53.74" r="8.61"/>
      <circle cx="215.92" cy="54.37" r="5.22"/>
      <circle class="cls-10" cx="210.74" cy="48.81" r="3.52"/>
    </g>
  </g>
</svg>