<?xml version="1.0" encoding="UTF-8"?>
<svg id="Layer_2" data-name="Layer 2" xmlns="http://www.w3.org/2000/svg" viewBox="0 0 160.11 170.5">
  <defs>
    <style>
      .cls-1 {
        fill: none;
      }

      .cls-1, .cls-2, .cls-3, .cls-4, .cls-5, .cls-6, .cls-7 {
        stroke: #000;
        stroke-miterlimit: 10;
      }

      .cls-2 {
        fill: #00d09b;
      }

      .cls-3 {
        fill: #dbdbda;
      }

      .cls-4 {
        fill: #ffb819;
      }

      .cls-8, .cls-5 {
        fill: #fff;
      }

      .cls-9 {
        fill: #666;
      }

      .cls-10 {
        fill: #333;
      }

      .cls-6 {
        fill: #999;
      }

      .cls-7 {
        fill: #ff8e4b;
      }
    </style>
  </defs>
  <g id="Layer_1-2" data-name="Layer 1">
    <g>
      <path class="cls-7" d="M54.6,156.06c-.52.11-1.31.36-2,1-1.47,1.37-1,3.18-2,5-.95,1.72-2.68,2.45-4,3-6.01,2.51-10.5-2.63-16,0-1.56.74-3.24,2.13-3,3,.27.99,2.88.82,8,1,12.13.42,13.72,1.89,17,0,1.58-.91,2.94-2.24,5-2,1.6.19,1.82,1.11,4,2,.6.24,4.79,1.95,7,0,1.21-1.07,1.73-3.15,1-4-.6-.7-1.69-.17-5,0-2.73.14-5.31.25-6-1-.24-.44-.16-.96,0-2,.2-1.33.66-2.36,1-3"/>
      <path class="cls-3" d="M9.6,12.06c1.73-3.91,3.03-6.87,6-9C20.35-.36,27.05,0,31.6,2.06c7.52,3.41,10.09,11.9,13,22,3.39,11.78,2.17,16.15,4,25,2.67,12.9,8.93,21.41,16,31,17.82,24.2,40.92,36.59,57,45,20.96,10.97,38.59,16.11,38,18-.26.84-3.86.1-20-2-24.98-3.25-21.54-2.15-33-4-1.13-.18-7.93-1.28-17-2-11.21-.89-13.33-.19-15,1-2.04,1.46-1.54,2.34-8,14-6.75,12.19-2.69,2.9-5,7-.31.55-.87,1.58-2,2-1.27.48-3.08.12-4-1-1.07-1.29-.11-2.6-1-5-.58-1.56-1.51-2.46-2-3-3.64-4.05-5.99-14.65-10-21-3.95-6.26-7.17-4.66-16-12-1.6-1.33-11.1-9.36-16-20-8.67-18.81-1.19-41.94,1-48,.69-1.9,8.06-22.01,5-27-1.36-2.23-3-3-3-3-2.3-1.08-4.06.01-5-1-1.1-1.18.1-3.95,1-6Z"/>
      <path class="cls-6" d="M6.6,78.06c.39.6,1.02,1.39,2,2,1.58.99,3.22,1.01,4,1,31.11-.24,41-9,41-9,1.2-1.07,2.2-2.1,3-3-1.66-2.39-3.44-5.39-5-9-2.5-5.78-3.55-11.05-4-15-1.92,1.86-7.4,6.65-16,8-10.2,1.6-17.9-2.73-20-4-1.48,3.68-3.01,8.39-4,14-1.02,5.82-1.17,10.94-1,15Z"/>
      <path class="cls-5" d="M22.6,72.06c2.04-2.35,6.67-7.02,14-9,9.45-2.55,17.5.96,22,3,8.19,3.71,12.32,8.56,17,13,25.57,24.22,63.78,32.35,67,33,4.55.92,10.01,1.74,10,3,0,2.42-20.13,4.37-32,5-10.78.57-19.75.34-26,0-4.86,1.41-12.13,2.99-21,3-23.87.02-40.07-11.41-45-15-6.88-5.01-14.5-10.72-16-20-.18-1.14-1.73-11.5,4-15,2.04-1.25,4.35-1.23,6-1Z"/>
      <path class="cls-4" d="M10.6,13.06c.59.24.82.49,2,1,1.22.53,2.28.83,3,1-.66.19-1.72.51-3,1-3.52,1.35-4.43,2.34-7,3-.72.18-4.37,1.12-5,0-.59-1.06,1.68-3.68,4-5,.6-.34,3.51-2,6-1Z"/>
      <path class="cls-4" d="M10.6,9.06c1,.21,1.03,1.74,3,3,1.2.77,1.99.71,2,1,.02.92-7.91,2.96-9,1-.83-1.49,2.27-5.37,4-5Z"/>
      <path class="cls-1" d="M16.6,33.06c.96.38,8.58,3.29,16-1,5.87-3.39,9.34-9.98,9-17"/>
      <path class="cls-2" d="M11.6,49.06c2.61,1.46,8.35,4.2,16,4,10.78-.28,17.96-6.2,20-8-.2-4.62-.76-10.04-2-16-1.11-5.32-2.54-10.01-4-14,.16,1.78.26,5.8-2,10-3.78,7.04-10.98,8.77-12,9-5.12,1.13-9.31-.31-11-1-.47,2.44-1.11,5.13-2,8-.93,2.99-1.96,5.66-3,8Z"/>
      <path class="cls-9" d="M48.6,119.06c6.25-2.07,13.87-5.19,22-10,9.56-5.65,16.81-11.86,22-17,1.67,1,3.33,2,5,3-4.56,5.2-11.73,12.13-22,18-7.05,4.03-13.67,6.48-19,8-2.67-.67-5.33-1.33-8-2Z"/>
      <path class="cls-5" d="M22.72,166.25c.57-1.68,2.11-2.67,3.53-2.45,1.15.17,2.26,1.14,2.43,2.34.11.74-.13,1.71-.56,1.8-.64.13-1-1.82-2.43-2.34-.99-.36-2.1.11-2.97.65Z"/>
      <path class="cls-9" d="M76.1,122.56c4.59-1.76,9.66-4.04,15-7,8.22-4.56,14.85-9.53,20-14,1.67.67,3.33,1.33,5,2-2.96,3.47-7.52,8-14,12-4.82,2.98-9.36,4.82-13,6-2.33.47-5.01.86-8,1-1.78.08-3.45.07-5,0Z"/>
      <path class="cls-5" d="M23.84,169c-.23-2.09.93-3.93,2.56-4.41,1.32-.39,3,.09,3.79,1.29.49.74.72,1.9.3,2.22-.62.46-1.98-1.45-3.79-1.29-1.24.11-2.2,1.17-2.86,2.19Z"/>
      <path class="cls-5" d="M75.35,167.93c-.03-2.1-1.4-3.78-3.08-4.06-1.36-.23-2.97.46-3.6,1.74-.39.8-.48,1.98-.03,2.24.68.38,1.79-1.69,3.6-1.74,1.25-.04,2.32.89,3.11,1.83Z"/>
      <circle class="cls-5" cx="23.94" cy="11.26" r="7.15"/>
      <circle class="cls-10" cx="24.15" cy="11.1" r="5.51"/>
      <circle cx="23.75" cy="11.16" r="3.34"/>
      <circle class="cls-8" cx="27.31" cy="7.85" r="2.25"/>
    </g>
  </g>
</svg>