<?xml version="1.0" encoding="UTF-8"?>
<svg id="Layer_2" data-name="Layer 2" xmlns="http://www.w3.org/2000/svg" viewBox="0 0 260.29 230.17">
  <defs>
    <style>
      .cls-1 {
        fill: none;
      }

      .cls-1, .cls-2, .cls-3, .cls-4, .cls-5, .cls-6 {
        stroke: #000;
        stroke-miterlimit: 10;
      }

      .cls-7, .cls-3 {
        fill: #fff;
      }

      .cls-2, .cls-8 {
        fill: #333;
      }

      .cls-4 {
        fill: #bf1900;
      }

      .cls-9, .cls-5 {
        fill: #431b00;
      }

      .cls-6 {
        fill: #d7703e;
      }
    </style>
  </defs>
  <g id="Layer_1-2" data-name="Layer 1">
    <g>
      <path class="cls-6" d="M199.4,134.76c-.68-7.57-.98-19.27,2-33,2.6-12,8.21-37.91,23-41,10.25-2.14,21.4,7.42,27,15,14.7,19.89,7.05,47.53,0,73-5.11,18.45-9.61,33.95-24,48-11.47,11.2-24.07,16.46-32,19,4.38-5.24,10.98-14.68,14-28,6.05-26.65-6.9-48.14-10-53Z"/>
      <path class="cls-5" d="M54.4,121.76c2.22,3.62,2.34,6.25,2,8-.39,2.05-1.71,4.47-1,5,.28.21.58-.1,1,0,1.52.37,2.52,5.76,1,11-1.18,4.08-3.47,6.62-3,7,.59.49,4.16-3.61,5-3,.65.47-.58,3.59-2,6-2.08,3.53-4.46,5.31-4,6,.36.54,2.19-.74,3,0,.92.83-.16,3.54-1,5-1.2,2.09-2.87,3.32-4,4-8.26.57-14.99,4.34-17,10-.22.63-2.35,6.63,1,10,1.64,1.65,3.88,1.94,5,2,.06,2.61,1.62,4.95,4,6,2.32,1.02,5.04.63,7-1,.19.67,1.19,4.01,4,5,.49.17,1.99.61,6-1,4.01-1.61,6.67-3.73,7-4,8.11-6.57,12.31-9.75,16-15,5.74-8.17,15.09-21.48,11-37-4.91-18.65-25.24-25.44-27-26"/>
      <path class="cls-6" d="M145.4,81.76c1.72.99,4.48,2.99,10,7,7.62,5.53,17.53,12.73,25,20,12.48,12.15,18.74,25.11,22,32,8.53,18.04,15.18,32.11,11,48-5.99,22.8-32.27,41.75-52,37-10.2-2.46-17.76-11.04-23-17-7.58-8.61-6.15-11.15-14-23-12.44-18.77-18.34-15.89-32-36-5.03-7.41-7.2-12.18-14-18-9.43-8.08-14.83-7.11-16-11-4.22-13.96,57.01-53.93,83-39Z"/>
      <path class="cls-5" d="M131.4,98.76c6.38,3.6,7.79,15.73,8,18,.41,4.32-.38,6.36,1,11,1.6,5.39,4.68,9.49,4,10-.59.44-3-2.59-4-2-1.54.91,1.63,8.75,1,9-.47.19-2.44-4.2-3-4-.84.3,2.38,10.42,1,11-.69.29-1.72-2.18-3-2-2.7.37-3.06,12.04-4,12-.47-.02-.54-2.98-1-3-.93-.05-2.05,12.04-3,12-.47-.02-.53-2.98-1-3-.9-.03-1.68,10.99-3,11-.79,0-1.02-3.94-2-4-1.74-.11-3.63,12.14-5,12-.81-.08-.31-4.4-2-5-1.94-.69-5.31,4.04-6,5-3.39,4.75-4.21,9.15-5,9-.81-.15-.23-4.86-1-5-.71-.13-2.07,3.67-3,7-1.25,4.47-1.76,8.3-2,11-.42.75-2.21,3.71-6,5-3.29,1.12-6.1.3-7,0-.51.42-2.74,2.19-6,2-2.64-.15-4.41-1.51-5-2-.44.05-3.63.36-6-2-1.53-1.52-1.9-3.32-2-4-.51-.22-2.84-1.29-4-4-1.25-2.93-.19-5.55,0-6-.65-.58-1.54-1.57-2-3-1.2-3.73,1.53-7.37,2-8,4.89-6.52,16.1-6.22,16-7-.06-.44-3.58.11-4-1-.4-1.06,2.34-2.72,6-6,2.36-2.12,7.96-7.14,7-9-.8-1.55-5.86-.28-6-1-.11-.53,2.64-.9,5-3,2.8-2.49,4.21-6.62,3-8-.85-.97-2.73-.27-3-1-.39-1.06,3.38-3.02,3-4-.33-.85-3.36.1-4-1-.6-1.02,1.28-3.13,2-4,3.13-3.79,2.41-6.07,5-13,0,0,2.09-5.6,6-12,7.07-11.58,24.31-22.91,33-18Z"/>
      <path class="cls-6" d="M49.4,121.76c14.42-.08,16.1-3.01,26-2,9.14.93,10.83,3.74,16,2,6.19-2.09,5.45-6.71,12-10,8.94-4.5,19.24-.39,20-3,.37-1.28-2.14-2.16-2-4,.33-4.41,15.22-6.39,15-8-.13-.97-5.59-.44-6-2-.58-2.19,9.58-5.76,9-9-.26-1.44-2.36-1.29-3-3-1.43-3.79,6.89-9.76,6-11-.65-.91-5.39,1.86-6,1-.83-1.17,7-7.46,6-9-.65-1.01-4.69.69-5,0-.37-.83,5.4-3.51,5-5-.49-1.8-9.67-.46-10-2-.22-1.01,3.68-1.86,4-4,.32-2.14-3.13-4.44-6-6,2.27-4.67,5.45-12.66,6-23,.44-8.14.84-15.6-4-20-7.53-6.86-21.8-.91-24,0-9.82,4.09-15.02,11.7-17,15-6.1.07-14.03.72-23,3-8.65,2.2-15.71,5.25-21,8-4.25-3.01-11.87-7.39-22-8-5.06-.3-18.08-1.09-23,7-3.12,5.13-1.86,11.97,0,16,2.42,5.26,5.24,4.43,10,12,3.61,5.75,2.76,7.46,6,10,2.73,2.14,5.4,2.54,8,6,.9,1.19,1.81,2.4,2,4,.42,3.53-2.9,7.41-8,10,1.14-.32,5.99-1.62,7,0,.92,1.47-1.5,5.07-6,9,3.89.65,7.03,1.37,7,2-.04.85-5.85.79-6,2-.2,1.63,10.2,3.9,10,5-.17.94-7.87.15-8,1-.16.99,10.04,2.67,10,5-.02,1.48-4.13,2.24-4,3,.24,1.37,13.75-.28,14,1,.22,1.14-10.18,3.27-10,5,.16,1.57,8.95,2.03,15,2Z"/>
      <path class="cls-3" d="M68.4,100.76c-1.88,1.19-3.59,1.46-7,2-2.49.39-6.35.97-11,0-3.04-.64-10.07-2.1-11-6-.92-3.83,4.48-8.19,3-10-.6-.73-1.75-.35-2-1-.58-1.54,5.52-4.62,5-6-.36-.96-3.53-.01-4-1-.59-1.24,3.2-5.23,8-7,4.88-1.8,11.34-1.5,16,2,2.48,1.86,3.77,4.12,6,8,1.86,3.23,2.78,4.85,3,7,.47,4.66-2.13,9.56-6,12Z"/>
      <path class="cls-3" d="M92.4,76.76c.06-1.71.22-6.03,3-10,4.96-7.09,14.62-7.85,15-7,.29.64-4.43,2.92-4,4,.34.86,3.48-.24,8,0,5.81.31,11.14,2.71,11,4-.11,1.07-3.99,1.16-4,2-.02,1.26,8.8.8,10,4,1.18,3.15-5.54,8.33-9,11-7.12,5.49-11.89,9.17-18,8-4.75-.91-9.16-4.51-11-9-1.15-2.81-1.06-5.38-1-7Z"/>
      <path class="cls-3" d="M69.4,78.76c-1.02-2.41-1.06-5.51,0-6,1.16-.53,2.81,2.45,4,2,2.05-.78-.46-10.52,1-11,1.25-.41,4.41,6.28,5,6,.48-.23-1.22-4.92-1-5,.23-.09,2.15,5.2,3,5,.78-.18.17-4.84,1-5,.56-.11,1.02,1.96,2,2,1.4.06,2.35-4.12,3-4,.87.17-.19,7.7,1,8,.82.21,2.01-3.21,3-3,.19.04.77.29,1,4,.3,4.7-.53,6.03,0,9,.17.97.55,3.06,2,5,2.39,3.19,5.12,2.51,8,5,3.93,3.4,4,9.15,4,10-.01,5.15-2.91,10.56-8,13-3.87,1.85-7.57,1.29-9,1-1.45.83-4.33,2.19-8,2-6.1-.32-12.22-4.81-13-10-.31-2.05.46-4.03,2-8,2.38-6.14,4.33-6.87,4-10-.33-3.16-2.76-6.65-3-7-.89-1.26-1.44-1.68-2-3Z"/>
      <path class="cls-1" d="M71.4,100.76c-5.13,1.9-14.08,4.36-25,3-4.73-.59-8.77-1.77-12-3"/>
      <path class="cls-1" d="M71.4,103.76c-5.96,1.65-13.01,3.14-21,4-10.81,1.16-20.34.82-28,0"/>
      <path class="cls-1" d="M71.4,108.76c-2.2.49-5.57,1.55-9,4-5.79,4.14-8.16,9.67-9,12"/>
      <path class="cls-1" d="M102.4,92.76c3.37-.18,7.48-.71,12-2,8.13-2.32,14.16-6.1,18-9"/>
      <path class="cls-1" d="M103.4,95.76c4.78-.51,10.18-1.43,16-3,10.81-2.92,19.53-7.17,26-11"/>
      <path class="cls-1" d="M103.4,98.76c3.54-.25,7.58-.32,12,0,6.63.48,12.37,1.68,17,3"/>
      <path class="cls-3" d="M41.4,37.76c-.45-4.53-9.83-6.74-11-7-5.33-1.2-14.03-1.25-16,3-.8,1.72-.2,3.52,1,7,1.76,5.09,4.26,8.77,6,11-.84.11-1.75.37-2,1-.52,1.34,2.31,3.48,3,4,.56.42,6.9,5.13,10,3,2.58-1.77-.44-5.96,2-12,2.42-5.99,7.33-6.66,7-10Z"/>
      <path class="cls-3" d="M98.4,23.76c-1.44-4.27,5.92-10.14,7-11,7.73-6.16,19.77-9.07,23-5,1.38,1.74.92,4.83,0,11-.69,4.63-1.93,8.57-1,9,.61.28,1.51-1.23,2-1,1.23.58-.37,11.76-5,13-3.9,1.05-5.68-6.09-16-11-5.75-2.74-9.12-2.39-10-5Z"/>
      <path d="M56.4,42.76c-10.74,7.55-17.42,20.24-17.29,33.39-.04,1.87.09,3.74.29,5.61-3.46-14.88,3.63-31.49,17-39h0Z"/>
      <path d="M87.4,34.76c15.54.11,30.6,9.82,37,24-.99-1.65-2.03-3.27-3.19-4.79-7.89-10.87-20.51-17.82-33.81-19.21h0Z"/>
      <path class="cls-5" d="M176.4,180.76c1.42-15.75-6.31-28.77-17-32-6.8-2.05-15.73-.45-21,5-8.81,9.12-8.94,29.99-9,43-.02,3.63.1,9.38-3,11-3.74,1.95-8.28-4.13-16-3-3.83.56-8.01,2.84-8,5,.01,2.36,5.06,3.8,11,6,22.01,8.16,29.06,16.76,35,13,1.32-.83,3.12-2.62,4-7"/>
      <path class="cls-5" d="M212.4,70.76c2.33-.33,4.67-.67,7-1,.67,2,1.33,4,2,6h4v3c1.67-.67,3.33-1.33,5-2v6c3-1.33,6-2.67,9-4-.67,2-1.33,4-2,6h5v8c2-1.33,4-2.67,6-4-.67,2.67-1.33,5.33-2,8,2.33-.33,4.67-.67,7-1-.67,2.33-1.33,4.67-2,7,2-1.33,4-2.67,6-4,.67,2.33,1.33,4.67,2,7,.21,2.6.27,5.63,0,9-.21,2.58-.57,4.93-1,7-1-1.67-2-3.33-3-5l-6,3c-.33-2-.67-4-1-6-2,1.67-4,3.33-6,5-.33-3.33-.67-6.67-1-10-1.67,1.67-3.33,3.33-5,5v-5c-2,.67-4,1.33-6,2v-9c-1.67,2.33-3.33,4.67-5,7,.33-3.33.67-6.67,1-10-2.33,2-4.67,4-7,6,.33-2,.67-4,1-6-2.67,1-5.33,2-8,3,.67-3,1.33-6,2-9-2.67,2-5.33,4-8,6,.67-3,1.33-6,2-9-1.67,1-3.33,2-5,3,.47-3.03,1.35-6.83,3-11,1.84-4.65,4.08-8.32,6-11Z"/>
      <path class="cls-5" d="M200.4,105.76c.67,1.33,1.33,2.67,2,4,1.67-1.33,3.33-2.67,5-4v8c1.67-1.33,3.33-2.67,5-4v7c1.67-1.33,3.33-2.67,5-4v12c2.67-2,5.33-4,8-6v8c2-.67,4-1.33,6-2-.67,2-1.33,4-2,6,2.33-.67,4.67-1.33,7-2,.67,2,1.33,4,2,6,2.33-.67,4.67-1.33,7-2-1,1.67-2,3.33-3,5,2.33-.67,4.67-1.33,7-2v7c1.33-1,2.67-2,4-3-.54,2.87-1.2,5.88-2,9-1.21,4.71-2.58,9.05-4,13-.67-1.67-1.33-3.33-2-5l-6,3v-7c-2.67,1.33-5.33,2.67-8,4v-7c-1.33,1-2.67,2-4,3v-6c-2.67,2-5.33,4-8,6v-9c-2.33.33-4.67.67-7,1-.33-3-.67-6-1-9-1.67.67-3.33,1.33-5,2-.33-3-.67-6-1-9l-6,6c-.09-3.85-.1-7.85,0-12,.15-5.98.5-11.66,1-17Z"/>
      <path class="cls-5" d="M211.4,161.76c1,2.33,2,4.67,3,7,1-1.67,2-3.33,3-5,.67,3,1.33,6,2,9,1.33-2,2.67-4,4-6l3,6c1.67-.67,3.33-1.33,5-2v5l6-3c-.64,3.29-1.02,6.57,0,7,1.2.51,3.58-3.28,4-3,.54.36-2.6,7.28-8,14-3.29,4.09-6.57,7.05-9,9,.67-2.33,1.33-4.67,2-7-1.67,1-3.33,2-5,3v-6c-3.64,4.53-5.97,6.53-7,6-.81-.42-.81-2.42,0-6-.09.08-.19.17-.29.27-.46.44-.85.88-.85.88h0c.06-.19.89-.91.89-.91.09-.08.18-.16.25-.23.33-3.66.45-8.06,0-13-.54-5.95-1.75-11.01-3-15Z"/>
      <path class="cls-1" d="M175.4,112.76c.81.26,4.96,1.69,7,6,1.19,2.52,1.12,4.86,1,6-1.33-1-2.67-2-4-3,.94,1.32,2.15,3.33,3,6,.75,2.37.96,4.47,1,6-1.33-2-2.67-4-4-6,3.72,7.49,4.16,13.66,2,15-1.9,1.18-6.07-1.19-10-5,.72.69,2.25,2.35,3,5,.77,2.75.27,5.04,0,6-.73-1.42-2.23-3.87-5-6-2.3-1.76-4.56-2.59-6-3,.35,1.28.68,2.61,1,4,.39,1.73.72,3.4,1,5-.4-.78-2.44-4.56-7-6-3.19-1.01-5.92-.33-7,0"/>
      <path class="cls-2" d="M98.33,101.07c.41,3.57-3.93,7-9.69,7.66-5.76.66-10.76-1.7-11.17-5.27-.41-3.57,3.93-7,9.69-7.66,5.76-.66,10.76,1.7,11.17,5.27Z"/>
      <path class="cls-1" d="M88.4,108.76c.33,2,.67,4,1,6"/>
      <polygon points="84.9 213.76 85.4 207.76 85.9 213.76 84.9 213.76 84.9 213.76"/>
      <g>
        <path class="cls-9" d="M74.4,213.76l3-6"/>
        <polygon points="73.95 213.54 77.4 207.76 74.84 213.98 73.95 213.54 73.95 213.54"/>
      </g>
      <g>
        <path class="cls-9" d="M66.4,207.76c1.67-1.67,3.33-3.33,5-5"/>
        <polygon points="66.04 207.41 71.4 202.76 66.75 208.11 66.04 207.41 66.04 207.41"/>
      </g>
      <g>
        <path class="cls-9" d="M62.4,197.76c3-1.33,6-2.67,9-4"/>
        <polygon points="62.19 197.3 71.4 193.76 62.6 198.22 62.19 197.3 62.19 197.3"/>
      </g>
      <path class="cls-4" d="M76.4,115.76c2.75,2.49,5.46,3.54,7,4,1.29.39,4.87,1.32,9,0,5.85-1.87,8.47-6.93,9-8-.96.82-2.99,2.33-6,3-2.62.58-4.8.27-6,0-1.11.67-3.19,1.71-6,2-3.23.33-5.77-.5-7-1Z"/>
      <path class="cls-1" d="M78.4,179.76c2.28-.52,4.58-.82,5,0,.55,1.08-2.38,3.54-2,4,.45.54,4.37-2.98,6-2,1.56.94-1.12,6.37,0,7,1.03.58,3.85-3.58,5-3,1.37.7-1.19,7.43,0,8,1.19.57,5-5.54,6-5,.77.42-1.05,4.27,0,5,.74.51,2.52-.76,4-2"/>
      <circle class="cls-3" cx="105.53" cy="78.37" r="10.07"/>
      <circle class="cls-8" cx="106.97" cy="80.84" r="7.75"/>
      <circle cx="106.67" cy="81.33" r="4.7"/>
      <circle class="cls-7" cx="102.12" cy="78.75" r="3.17"/>
      <circle class="cls-3" cx="59.98" cy="88.88" r="10.07"/>
      <circle class="cls-8" cx="61.43" cy="91.35" r="7.75"/>
      <circle cx="61.13" cy="91.84" r="4.7"/>
      <circle class="cls-7" cx="56.58" cy="89.26" r="3.17"/>
      <path class="cls-6" d="M152.4,221.76c-.5-2.99-2.03-14.46,5-26,7.78-12.76,20.38-16.32,23-17"/>
      <path d="M39.95,192.54c1.83-3.3,4.95-5.76,8.45-6.78-3.39,1.34-6.14,4.01-7.55,7.22l-.89-.45h0Z"/>
      <path d="M50.92,197.61c1.04-2.85,3.02-5.28,5.48-6.85-2.27,1.85-3.86,4.41-4.52,7.15l-.96-.29h0Z"/>
    </g>
  </g>
</svg>