<?xml version="1.0" encoding="UTF-8"?>
<svg id="Layer_2" data-name="Layer 2" xmlns="http://www.w3.org/2000/svg" viewBox="0 0 2411.29 1181.22">
  <defs>
    <style>
      .cls-1 {
        font-size: 119.55px;
      }

      .cls-1, .cls-2 {
        font-family: Luckiest Guy, 'Super Funtime';
      }

      .cls-3 {
        fill: none;
        stroke: #000;
        stroke-miterlimit: 10;
      }

      .cls-4 {
        fill: #851c24;
      }

      .cls-5 {
        letter-spacing: -.08em;
      }

      .cls-6 {
        fill: #fff;
      }

      .cls-7 {
        fill: #f0f0f0;
      }

      .cls-8 {
        letter-spacing: -.07em;
      }

      .cls-9 {
        fill: #231f20;
      }

      .cls-10 {
        fill: #1b1b1a;
      }

      .cls-11 {
        fill: #94e9ff;
      }

      .cls-12 {
        letter-spacing: -.03em;
      }

      .cls-13 {
        fill: #ffed21;
      }

      .cls-14 {
        letter-spacing: -.02em;
      }

      .cls-2 {
        font-size: 98.09px;
      }

      .cls-15 {
        fill: #414042;
      }
    </style>
  </defs>
  <g id="Layer_1-2" data-name="Layer 1">
    <polygon class="cls-11" points="2410.79 0 2410.79 1178.31 .85 1178.31 .85 1180.72 .5 1180.72 .5 0 2410.79 0"/>
    <path class="cls-6" d="M102.92,1178.31c.03.81.05,1.61.03,2.41H2.13c0-.8,0-1.61.02-2.41.03-18.43.08-36.86.13-55.29,36.11-12.22,74.32-.63,91.37,25.1,6.68,10.1,9.02,20.7,9.27,30.19Z"/>
    <path class="cls-6" d="M2410.82,991.25v187.06h-425.94c19.29-24.42,56.59-61.51,117.05-80.39,97.03-30.28,178.67,9.82,192.21,16.74,1.2-11.88,6.49-47.86,37.71-80.31,29.51-30.63,64.88-40.15,78.97-43.1Z"/>
    <path class="cls-6" d="M2410.82,50.89c-2.59-2.42-5.35-4.59-8.28-6.5-20-13.06-43.46-11.52-72.4-9.27-64.39,5.01-111.48,31.39-135.98,47.75-15.16-8.01-51.43-24.69-100.59-23.42-52.8,1.38-89.95,22.64-104.2,31.79-15.69-7.32-70.76-30.71-138.32-15.05-44.5,10.3-74.01,32.84-88.01,45.16-22.65-6.57-72.31-17.4-125.74,1.67-23.87,8.53-56.65,25.93-77.21,47.93-13.1,13.99-21.25,29.85-18.98,46.46.74,5.41,2.52,10.42,4.96,14.99,5.72,10.7,15.13,19.07,23.48,25,.28.21.58.41.86.61,6.31,4.39,11.94,7.39,14.81,8.89,48.58,25.77,100.92,4.57,107.77,1.67,37.5,8.58,93.78,17.13,161.64,11.37,56.28-4.78,102.19-17.85,134.75-29.76,34.37,12.12,138.05,43.82,249.69,3.34,37.41-13.56,66.57-31.91,88.01-48.5,43.71,20.84,67.89,11.02,73.66,8.35,3.61-1.67,6.97-3.77,10.08-6.24V50.89Z"/>
    <path class="cls-6" d="M241.82,975.51c28.02-18.26,61.03-12.2,81.97-8.36,14.01,2.57,35.07,8.17,58.55,21.75,7.03-4.32,26.74-15.14,53.53-13.38,32.72,2.14,53.34,21.55,58.55,26.77,11.38-2.58,29.85-5.31,51.86-1.67,4.13.68,44.6,7.37,45.39,19.7.77,12.08-36.68,27.16-70.48,32.16-46.98,6.96-56.44-10.06-117.1-13.38-54.61-2.99-63.17,9.92-115.43,1.67-19.63-3.1-68.55-10.81-71.94-31.79-2.5-15.48,21.02-30.8,25.09-33.46Z"/>
    <polyline class="cls-3" points="2411.13 1180.72 2410.79 1180.72 2150.68 1180.72 1952.65 1180.72 110.51 1180.72 2.25 1180.72 .85 1180.72 .82 1180.72 .5 1180.72 .5 1167.13 .5 1132.01"/>
    <path class="cls-6" d="M1533.22,586.95c-84.76,55.47-188.98,4.86-199.4-.39-25.57,13.01-82.74,37.71-158.22,33.38-67.07-3.84-116.4-28.74-140.78-43.26-55.18,17.55-94.24,12.36-114.13,7.77-8.92-2.06-15.28-4.3-18.2-5.38-9.94-3.66-69.76-25.71-74.17-63.76-4.46-38.51,50.41-71.13,74.17-81.81,6.7-3.01,23.24-9.81,46.11-12.01,41.38-3.98,73.74,9.93,88.77,17.66,16.93-9.88,69.65-37.67,136.95-26.27,36.72,6.21,63.94,21.74,79.91,32.77,29.07-9.17,73.1-19.6,126.81-18.72,79.58,1.32,201.57,27.85,209.25,81.25,5.44,37.84-48.8,73.35-57.06,78.76Z"/>
    <g>
      <path class="cls-15" d="M502.01,826.48c4.91,19.14,7.09,35.54,8.12,47.68,4.45,52.09-7.82,75.64-10.97,81.35-.14.25-.24.42-.29.52-28.29,50.85-128.24,47.96-151.96-1.5-13.7-28.58-5.96-66.91-5.08-71.03.02-.08.03-.15.04-.21,4.88-22.76,13.82-41.3,24.65-56.49,19.22,3.21,42.33,5.66,68.51,5.54,25.54-.11,48.12-2.62,66.98-5.87Z"/>
      <path class="cls-6" d="M483.61,945.66c2.26-8.04,5.65-24.65-.19-44.09-2.53-8.42-6.76-22.39-19.79-32.69-22.47-17.77-61.81-16.58-81.84,1.86-9.61,8.84-12.92,19.86-15.6,28.78-5.31,17.68-3.49,33.01-1.71,41.71,4.62,2.74,8.85,4.82,12.43,6.39,44.89,19.7,89.42,4.79,95.09,2.8,5.14-1.8,9.17-3.61,11.62-4.76Z"/>
      <path class="cls-10" d="M472.4,833.96c-.15-1.04-17.82,2.55-45.44,2.06-32.76-.58-53.24-6.44-53.47-5.31-.25,1.21,23.2,10.19,52.72,10.47,25.47.24,46.34-6.08,46.18-7.22Z"/>
      <path class="cls-6" d="M612.64,697.72c4.45,5.66,12.29,17.31,13.62,33.29,1.71,20.58-8.39,36.1-12.87,42.99-24.52,37.68-101.93,58.3-178.35,58.36-77.05.06-154.76-20.78-176.95-57.66-12.15-20.19-11.84-39.97-11.84-39.97.28-17.91,7.7-31.36,11.84-37.75-.38-14.92.01-69.94,40.39-117.93,51.53-61.25,126.5-61.52,141.7-61.19,16.1.35,81.34,2.84,129.53,57,44.8,50.34,43.5,110.07,42.93,122.87Z"/>
      <path class="cls-15" d="M474.88,701.97c.13,3.72,1.27,25.38,18.8,40.9,20.27,17.96,55.27,21.31,74.66,2.79,16.47-15.74,13.81-39.77,13.43-42.76-4.27-33.69-41.95-67.35-73.28-57-21.49,7.1-34.43,33.07-33.6,56.07Z"/>
      <path class="cls-15" d="M397.72,701.97c-.13,3.72-1.27,25.38-18.8,40.9-20.27,17.96-55.27,21.31-74.66,2.79-16.47-15.74-13.81-39.77-13.43-42.76,4.27-33.69,41.95-67.35,73.28-57,21.49,7.1,34.43,33.07,33.6,56.07Z"/>
      <circle class="cls-6" cx="507.5" cy="702.07" r="32.65"/>
      <circle class="cls-6" cx="365.11" cy="702.07" r="32.65"/>
      <path class="cls-9" d="M450.01,723.62c-2.46-6.67-26.26-7.14-28.87-.74-1.75,4.3,4.69,15.05,14.8,14.8,9.38-.23,15.65-9.77,14.06-14.06Z"/>
      <path class="cls-4" d="M415.43,748.27c1.26.55,3.9,1.49,7.19,1.04,2.15-.29,3.67-1.04,4.35-1.39,5.4-2.74,7.64-8.56,8.23-10.25.67,1.81,3.03,7.5,8.51,10.25,2,1,4.03,1.42,4.59,1.53,3.26.63,6,.25,7.64-.11,0,0,0,0,0,0-.01,0-11.39,20.64-21.54,20.87-4.44.1-10.87-3.66-19-21.94Z"/>
      <path class="cls-7" d="M435.7,548.2c-1.69.19-2.38-10.26-7.9-18.75-4.41-6.79-11.24-10.35-16.78-12.34,2.69-.55,8.54-1.37,15.24,1,9.48,3.34,14.09,10.72,15.33,12.86.47-2.45,1.08-7.66-1.43-13.11-3.5-7.58-11.62-12.5-20.96-12.96,9.65-4.9,20.97-3.97,28.82,2.35,7.54,6.07,8.83,15.25,9.38,19.25,1.58,11.48-3.14,21.36-3.95,21.22-.39-.07.15-2.42-.12-8.02-.25-5.28-.54-10.32-3.08-15.54-1.36-2.79-2.96-4.83-4.08-6.08.52,1.85.96,4.16,1,6.82.1,6.82-2.49,12.03-4.05,14.63-.82-2.12-2.24-5.09-4.71-8.09-4.63-5.61-10.73-8.62-11.1-8.14-.26.34,3.13,2.18,6.17,6.91,4.26,6.62,3.71,12.5,3.58,13.69-.15,1.32-.48,4.22-1.36,4.32Z"/>
      <path class="cls-15" d="M602.45,630.52c-4.35-12.5-12.7-31.63-28.79-51.06-16.14-19.49-33.45-31.28-44.94-37.88,1.13-1.84,20.87-32.93,54.15-32.61,34.05.33,63.75,33.35,61.07,67.73-1.81,23.2-18.12,43.92-41.49,53.82Z"/>
      <path class="cls-15" d="M270.39,630.52c4.35-12.5,12.7-31.63,28.79-51.06,16.14-19.49,33.45-31.28,44.94-37.88-1.13-1.84-20.87-32.93-54.15-32.61-34.05.33-63.75,33.35-61.07,67.73,1.81,23.2,18.12,43.92,41.49,53.82Z"/>
      <ellipse class="cls-9" cx="490.84" cy="703.51" rx="13.94" ry="17.64"/>
      <ellipse class="cls-9" cx="380.19" cy="703.51" rx="13.94" ry="17.64"/>
      <ellipse class="cls-6" cx="486.65" cy="693.92" rx="6.79" ry="5.55"/>
      <ellipse class="cls-6" cx="385.24" cy="693.92" rx="6.79" ry="5.55"/>
      <path class="cls-7" d="M616.56,766.43c-13.82,9.1-35.5,21.93-63.9,32.82-30.89,11.84-117.71,39.78-217.12,8.14-19.31-6.15-47.74-17.29-79.2-38.24,3.29,5.53,8.74,13.3,17.27,20.73,4.04,3.51,10.22,8.21,23.44,14.56,19.28,9.25,35.57,13.41,40.22,14.56,48.8,12.1,96.47,12.09,96.47,12.09,36.5,0,62.74-4.98,84.63-9.13,10.65-2.02,32.77-6.56,56.26-18.01,9.06-4.42,16.91-9.18,24.67-16.28,8.41-7.69,13.89-15.55,17.27-21.22Z"/>
      <path class="cls-10" d="M234,551.03c-2.52,6.33-5.47,16.67-3.82,28.99,4.34,32.43,36.49,47.85,39.48,49.22,2.43-7.6,6.15-16.97,11.97-27.02,5.61-9.71,11.64-17.39,16.86-23.19-4.85,1.57-17.38,4.89-32.03.37-21.54-6.65-30.84-25.06-32.45-28.37Z"/>
      <path class="cls-10" d="M638.36,551.5c2.52,6.33,5.47,16.67,3.82,28.99-4.34,32.43-36.49,47.85-39.48,49.22-2.43-7.6-6.15-16.97-11.97-27.02-5.61-9.71-11.64-17.39-16.86-23.19,4.85,1.57,17.38,4.89,32.03.37,21.54-6.65,30.84-25.06,32.45-28.37Z"/>
      <path class="cls-6" d="M591.08,605.05c17.55-12.07,18.97-35.72,7.71-47.36-10.2-10.53-30.81-11.23-44.35,2.15,5.94,5.13,12.59,11.6,19.22,19.62,7.59,9.16,13.24,18.01,17.42,25.59Z"/>
      <path class="cls-6" d="M279.91,608.47c-17.67-11.58-19.93-35.36-8.44-48.08,10.58-11.72,31.91-13,45.89.33-6.2,5.45-13.22,12.44-20.18,21.18-7.62,9.57-13.2,18.76-17.27,26.56Z"/>
      <path class="cls-15" d="M289.34,737.97c27.5-11.66,68.1,40.27,74.11,47.98,14.47,18.51,28.47,36.42,22.52,53.49-7.18,20.59-39.8,29.73-63.84,24.12-34.59-8.06-53.67-47-53.26-78.16.06-4.38,1.07-39.21,20.47-47.43Z"/>
      <ellipse class="cls-15" cx="480.83" cy="986.79" rx="49.29" ry="34.03" transform="translate(-540.24 583.84) rotate(-42.49)"/>
      <ellipse class="cls-15" cx="344.36" cy="958.94" rx="34.03" ry="49.29" transform="translate(-426.75 292.95) rotate(-29.43)"/>
      <path class="cls-15" d="M606.06,781.61c-20.23-21.98-78.65,8.54-87.31,13.07-20.82,10.88-40.97,21.41-42.6,39.41-1.97,21.72,23.96,43.52,48.17,48.34,34.83,6.95,68.29-20.63,80.79-49.18,1.76-4.02,15.22-36.15.96-51.65Z"/>
    </g>
    <path class="cls-6" d="M1577.84,848.87c-96.75,63.31-215.71,5.55-227.6-.45-29.18,14.84-94.44,43.04-180.6,38.1-76.55-4.38-132.86-32.81-160.69-49.38-62.98,20.04-107.56,14.11-130.27,8.87-10.18-2.35-17.45-4.91-20.78-6.14-11.35-4.18-79.63-29.34-84.66-72.77-5.09-43.95,57.54-81.19,84.66-93.38,7.65-3.44,26.52-11.2,52.63-13.71,47.23-4.55,84.17,11.34,101.33,20.16,19.32-11.28,79.5-43,156.32-29.99,41.91,7.08,72.98,24.82,91.21,37.41,33.18-10.46,83.44-22.37,144.74-21.37,90.84,1.51,230.08,31.79,238.84,92.74,6.21,43.2-55.7,83.72-65.13,89.9Z"/>
    <path class="cls-6" d="M500.58,141.82c19.84-4.28,48.12-10.09,83.2-3.4,20.47,3.9,35.88,10.66,45.52,15.67,6.24-3.27,29.96-14.85,62.2-11.74,27.14,2.62,44.73,14.15,50.82,18.54,22.61,13.28,35.35,31.9,29.83,44.49-7.1,16.18-46.89,28.18-91.05,12.36-10.07,4.65-45.53,19.69-89.48,12.36-20.66-3.45-36.03-10.64-45.52-16.07-3.78,1.44-36.36,13.36-67.5,0-22.41-9.62-42.29-31.57-34.93-48.2,5.74-12.97,25.63-17.26,56.91-24.01Z"/>
    <path class="cls-6" d="M912.58,1177.42c25.15-17.59,60.9-37.5,106.74-48.63,130.37-31.65,239.47,32.65,266.86,49.91-124.53-.43-249.07-.86-373.6-1.29Z"/>
    <path class="cls-6" d="M2410.82,503.2v137.27c-5.94.37-12.1.46-18.45.23-42.6-1.52-74.05-16.55-89.34-25.16-10.61,6.44-62.8,36.7-123.04,20.4-9.61-2.6-58.39-15.79-62.37-42.38-5.2-34.84,67.68-84.8,138.22-83.2,33.44.75,59.17,12.94,72.47,20.41,11.21-7.06,40.72-23.9,82.5-27.57Z"/>
    <circle class="cls-13" cx="489.13" cy="135.38" r="85.53"/>
    <path class="cls-6" d="M269.42,115.8c15.98-4.28,38.75-10.09,66.99-3.4,16.48,3.9,28.89,10.66,36.66,15.67,5.03-3.27,24.12-14.85,50.09-11.74,21.86,2.62,36.02,14.15,40.92,18.54,18.21,13.28,28.47,31.9,24.02,44.49-5.72,16.18-37.76,28.18-73.31,12.36-8.11,4.65-36.67,19.69-72.05,12.36-16.64-3.45-29.01-10.64-36.66-16.07-3.04,1.44-29.28,13.36-54.35,0-18.05-9.62-34.06-31.57-28.13-48.2,4.62-12.97,20.64-17.26,45.83-24.01Z"/>
    <text class="cls-1" transform="translate(1008.3 295.39)"><tspan class="cls-14" x="0" y="0">K</tspan><tspan class="cls-8" x="58.58" y="0">a</tspan><tspan x="123.13" y="0">t</tspan><tspan class="cls-12" x="176.09" y="0">e</tspan><tspan x="230.49" y="0">gori</tspan></text>
    <text class="cls-2" transform="translate(979.92 546.48)"><tspan x="0" y="0">Tebak a</tspan><tspan class="cls-5" x="341.25" y="0">p</tspan><tspan x="383.43" y="0">a?</tspan></text>
    <text class="cls-2" transform="translate(799.9 800.55)"><tspan x="0" y="0">Objek tersembunyi</tspan></text>
  </g>
</svg>