<?xml version="1.0" encoding="UTF-8"?>
<svg id="Layer_2" data-name="Layer 2" xmlns="http://www.w3.org/2000/svg" viewBox="0 0 194.1 240.94">
  <defs>
    <style>
      .cls-1 {
        fill: none;
        stroke: #000;
        stroke-miterlimit: 10;
      }

      .cls-2 {
        fill: #fff;
      }

      .cls-3 {
        fill: #55351c;
      }

      .cls-4 {
        fill: #cfffcc;
      }
    </style>
  </defs>
  <g id="Layer_1-2" data-name="Layer 1">
    <g>
      <g>
        <g>
          <rect class="cls-3" x="20.14" y="13.88" width="160.12" height="217.32" transform="translate(17.31 -12.31) rotate(7.69)"/>
          <ellipse class="cls-3" cx="42.99" cy="17.52" rx="3.06" ry="3.1" transform="translate(19.87 57.77) rotate(-82.31)"/>
          <ellipse class="cls-3" cx="40.8" cy="33.69" rx="3.06" ry="3.1" transform="translate(1.95 69.62) rotate(-82.31)"/>
          <ellipse class="cls-3" cx="38.62" cy="49.87" rx="3.06" ry="3.1" transform="translate(-15.98 81.46) rotate(-82.31)"/>
          <ellipse class="cls-3" cx="36.43" cy="66.05" rx="3.06" ry="3.1" transform="translate(-33.9 93.31) rotate(-82.31)"/>
          <ellipse class="cls-3" cx="34.25" cy="82.23" rx="3.06" ry="3.1" transform="translate(-51.83 105.16) rotate(-82.31)"/>
          <ellipse class="cls-3" cx="32.06" cy="98.41" rx="3.06" ry="3.1" transform="translate(-69.75 117) rotate(-82.31)"/>
          <ellipse class="cls-3" cx="29.87" cy="114.58" rx="3.06" ry="3.1" transform="translate(-87.68 128.85) rotate(-82.31)"/>
          <ellipse class="cls-3" cx="27.69" cy="130.76" rx="3.06" ry="3.1" transform="translate(-105.6 140.69) rotate(-82.31)"/>
          <ellipse class="cls-3" cx="25.5" cy="146.94" rx="3.06" ry="3.1" transform="translate(-123.53 152.54) rotate(-82.31)"/>
          <ellipse class="cls-3" cx="23.32" cy="163.12" rx="3.06" ry="3.1" transform="translate(-141.45 164.38) rotate(-82.31)"/>
          <ellipse class="cls-3" cx="21.13" cy="179.29" rx="3.06" ry="3.1" transform="translate(-159.38 176.23) rotate(-82.31)"/>
          <ellipse class="cls-3" cx="18.95" cy="195.47" rx="3.06" ry="3.1" transform="translate(-177.3 188.08) rotate(-82.31)"/>
          <ellipse class="cls-3" cx="16.76" cy="211.65" rx="3.06" ry="3.1" transform="translate(-195.23 199.92) rotate(-82.31)"/>
          <path class="cls-3" d="M42.99,17.52c-.24-3.85-2.77-7.08-6.21-8.05-3.87-1.09-8.98.67-10.03,4.82-.93,3.67,1.62,7.97,6.07,9.06"/>
          <path class="cls-3" d="M41.3,33.55c-.24-3.85-2.77-7.08-6.21-8.05-3.87-1.09-8.98.67-10.03,4.82-.93,3.67,1.62,7.97,6.07,9.06"/>
          <path class="cls-3" d="M38.87,49.8c-.24-3.85-2.77-7.08-6.21-8.05-3.87-1.09-8.98.67-10.03,4.82-.93,3.67,1.62,7.97,6.07,9.06"/>
          <path class="cls-3" d="M36.16,65.7c-.24-3.85-2.77-7.08-6.21-8.05-3.87-1.09-8.98.67-10.03,4.82-.93,3.67,1.62,7.97,6.07,9.06"/>
          <path class="cls-3" d="M34.65,82.23c-.24-3.85-2.77-7.08-6.21-8.05-3.87-1.09-8.98.67-10.03,4.82-.93,3.67,1.62,7.97,6.07,9.06"/>
          <path class="cls-3" d="M31.94,98.13c-.24-3.85-2.77-7.08-6.21-8.05-3.87-1.09-8.98.67-10.03,4.82-.93,3.67,1.62,7.97,6.07,9.06"/>
          <path class="cls-3" d="M29.5,114.38c-.24-3.85-2.77-7.08-6.21-8.05-3.87-1.09-8.98.67-10.03,4.82-.93,3.67,1.62,7.97,6.07,9.06"/>
          <path class="cls-3" d="M27.81,130.41c-.24-3.85-2.77-7.08-6.21-8.05-3.87-1.09-8.98.67-10.03,4.82-.93,3.67,1.62,7.97,6.07,9.06"/>
          <path class="cls-3" d="M25.9,146.94c-.24-3.85-2.77-7.08-6.21-8.05-3.87-1.09-8.98.67-10.03,4.82-.93,3.67,1.62,7.97,6.07,9.06"/>
          <path class="cls-3" d="M23.19,162.84c-.24-3.85-2.77-7.08-6.21-8.05-3.87-1.09-8.98.67-10.03,4.82-.93,3.67,1.62,7.97,6.07,9.06"/>
          <path class="cls-3" d="M20.76,179.09c-.24-3.85-2.77-7.08-6.21-8.05-3.87-1.09-8.98.67-10.03,4.82-.93,3.67,1.62,7.97,6.07,9.06"/>
          <path class="cls-3" d="M19.07,195.12c-.24-3.85-2.77-7.08-6.21-8.05-3.87-1.09-8.98.67-10.03,4.82-.93,3.67,1.62,7.97,6.07,9.06"/>
          <path class="cls-3" d="M17.26,211.51c-.24-3.85-2.77-7.08-6.21-8.05-3.87-1.09-8.98.67-10.03,4.82-.93,3.67,1.62,7.97,6.07,9.06"/>
        </g>
        <rect class="cls-3" x="56.52" y="39.89" width="102.27" height="55.1" transform="translate(10 -13.81) rotate(7.69)"/>
      </g>
      <g>
        <g>
          <rect class="cls-4" x="19.36" y="9.42" width="155" height="213" transform="translate(16.39 -11.93) rotate(7.69)"/>
          <circle class="cls-2" cx="41.63" cy="13.1" r="3"/>
          <circle class="cls-2" cx="39.49" cy="28.95" r="3"/>
          <circle class="cls-2" cx="37.35" cy="44.81" r="3"/>
          <circle class="cls-2" cx="35.21" cy="60.66" r="3"/>
          <circle class="cls-2" cx="33.06" cy="76.52" r="3"/>
          <circle class="cls-2" cx="30.92" cy="92.38" r="3"/>
          <circle class="cls-2" cx="28.78" cy="108.23" r="3"/>
          <circle class="cls-2" cx="26.64" cy="124.09" r="3"/>
          <circle class="cls-2" cx="24.5" cy="139.94" r="3"/>
          <circle class="cls-2" cx="22.35" cy="155.8" r="3"/>
          <circle class="cls-2" cx="20.21" cy="171.66" r="3"/>
          <circle class="cls-2" cx="18.07" cy="187.51" r="3"/>
          <circle class="cls-2" cx="15.93" cy="203.37" r="3"/>
          <path class="cls-1" d="M41.63,13.1c-.22-3.77-2.68-6.93-6-7.87-3.74-1.06-8.69.67-9.72,4.74-.91,3.6,1.56,7.8,5.87,8.87"/>
          <path class="cls-1" d="M39.98,28.81c-.22-3.77-2.68-6.93-6-7.87-3.74-1.06-8.69.67-9.72,4.74-.91,3.6,1.56,7.8,5.87,8.87"/>
          <path class="cls-1" d="M37.59,44.74c-.22-3.77-2.68-6.93-6-7.87-3.74-1.06-8.69.67-9.72,4.74-.91,3.6,1.56,7.8,5.87,8.87"/>
          <path class="cls-1" d="M34.94,60.32c-.22-3.77-2.68-6.93-6-7.87-3.74-1.06-8.69.67-9.72,4.74-.91,3.6,1.56,7.8,5.87,8.87"/>
          <path class="cls-1" d="M33.45,76.52c-.22-3.77-2.68-6.93-6-7.87-3.74-1.06-8.69.67-9.72,4.74-.91,3.6,1.56,7.8,5.87,8.87"/>
          <path class="cls-1" d="M30.8,92.1c-.22-3.77-2.68-6.93-6-7.87-3.74-1.06-8.69.67-9.72,4.74-.91,3.6,1.56,7.8,5.87,8.87"/>
          <path class="cls-1" d="M28.42,108.03c-.22-3.77-2.68-6.93-6-7.87-3.74-1.06-8.69.67-9.72,4.74-.91,3.6,1.56,7.8,5.87,8.87"/>
          <path class="cls-1" d="M26.76,123.74c-.22-3.77-2.68-6.93-6-7.87-3.74-1.06-8.69.67-9.72,4.74-.91,3.6,1.56,7.8,5.87,8.87"/>
          <path class="cls-1" d="M24.88,139.95c-.22-3.77-2.68-6.93-6-7.87-3.74-1.06-8.69.67-9.72,4.74-.91,3.6,1.56,7.8,5.87,8.87"/>
          <path class="cls-1" d="M22.23,155.53c-.22-3.77-2.68-6.93-6-7.87-3.74-1.06-8.69.67-9.72,4.74-.91,3.6,1.56,7.8,5.87,8.87"/>
          <path class="cls-1" d="M19.85,171.45c-.22-3.77-2.68-6.93-6-7.87-3.74-1.06-8.69.67-9.72,4.74-.91,3.6,1.56,7.8,5.87,8.87"/>
          <path class="cls-1" d="M18.19,187.17c-.22-3.77-2.68-6.93-6-7.87-3.74-1.06-8.69.67-9.72,4.74-.91,3.6,1.56,7.8,5.87,8.87"/>
          <path class="cls-1" d="M16.41,203.23c-.22-3.77-2.68-6.93-6-7.87-3.74-1.06-8.69.67-9.72,4.74-.91,3.6,1.56,7.8,5.87,8.87"/>
        </g>
        <rect class="cls-1" x="54.66" y="34.91" width="99" height="54" transform="translate(9.23 -13.39) rotate(7.69)"/>
      </g>
    </g>
  </g>
</svg>