<?xml version="1.0" encoding="UTF-8"?>
<svg id="Layer_2" data-name="Layer 2" xmlns="http://www.w3.org/2000/svg" viewBox="0 0 965.74 413.75">
  <defs>
    <style>
      .cls-1 {
        fill: #e9db9a;
      }

      .cls-2 {
        fill: #935;
      }

      .cls-3 {
        fill: none;
        stroke: #0a4578;
        stroke-miterlimit: 10;
      }

      .cls-4 {
        fill: #9f8066;
        opacity: .78;
      }

      .cls-5 {
        fill: #e8e0cc;
      }

      .cls-6 {
        fill: #0a5980;
      }
    </style>
  </defs>
  <g id="Layer_1-2" data-name="Layer 1">
    <g>
      <path class="cls-1" d="M89.74,317.76c22.83,29.38,45.66,58.76,68.49,88.15l11.41-9.05c-23.3-27.37-46.6-54.73-69.9-82.1-3.33,1-6.67,2-10,3Z"/>
      <path class="cls-4" d="M5.79,239.3c23.21-11.05,44.97-15.04,44.97-15.04,21.73-3.98,1.12-.04,32.81-4.87,3.33-.51,8.53-1.31,15.2-.22,6.3,1.02,10.77,3.21,12.79,4.19,13.59,6.59,27.46,12.3,41.05,18.91,31.53,15.33,42.44,17.11,46.39,31.56,1.06,3.89,1.28,7.42,1.3,9.7-5.93,3.72-14.49,8.64-25.06,13.1-11.95,5.05-24.94,8.89-55.3,12.39-40.19,4.63-60.52,6.77-72.01-1.88-5.66-4.26-12.53-12.41-26.27-28.71-9.08-10.77-16.27-20.17-21.19-26.8-.44-1.75-.85-4.51.12-7.12,1.2-3.23,3.91-4.6,5.2-5.21Z"/>
      <path class="cls-1" d="M61.31,323.23c7.64,9.43,15.28,18.87,22.93,28.3l11.41-9.05-17.91-23.73c-2.29.68-4.63,1.35-7,2-3.19.88-6.34,1.7-9.43,2.47Z"/>
      <rect class="cls-1" x="772.82" y="352.53" width="119.43" height="14.56" transform="translate(33.36 788.64) rotate(-51.59)"/>
      <path class="cls-4" d="M961.12,253.86c-21.42-13.39-42.41-19.99-42.41-19.99-20.96-6.6-1.11-.19-31.81-8.89-3.23-.91-8.26-2.35-15.02-2.22-6.38.12-11.12,1.57-13.25,2.22-14.38,4.36-28.92,7.85-43.29,12.22-33.37,10.14-44.42,10.36-50.36,23.33-1.6,3.49-2.31,6.76-2.65,8.89,5.35,4.26,13.14,9.98,22.97,15.55,11.12,6.3,23.44,11.6,53.01,18.88,39.14,9.64,58.97,14.33,71.57,7.78,6.21-3.23,14.15-9.93,30.04-23.33,10.5-8.85,18.94-16.68,24.74-22.21.68-1.57,1.48-4.1.88-6.66-.74-3.17-3.23-4.81-4.42-5.55Z"/>
      <path class="cls-1" d="M905.74,321.76l-30.61,38-11.41-9.05c8.34-10.98,16.68-21.97,25.02-32.95,2.6.69,5.27,1.35,8,2,3.06.72,6.06,1.39,9,2Z"/>
      <path class="cls-6" d="M910.8,51.2c-9.59,29.31-20.48,65.69-29.73,104.88-4.2,17.79-8.08,36.23-9.08,60.29-.66,15.72.19,27.33.83,36.34,1.78,25.05,3.92,57.03,6.61,100.75-2.2,1.38-4.4,2.75-6.61,4.13-3.3-1.1-6.61-2.2-9.91-3.3-2-15.76-3.69-32.3-4.96-49.55-1.72-23.51-2.45-45.87-2.48-66.89-6.52,3.23-13.46,7.05-20.65,11.56-10.93,6.86-20.26,13.96-28.08,20.65-.83,46.52-1.65,93.05-2.48,139.57-1.65,1.38-3.3,2.75-4.96,4.13-2.75-1.65-5.51-3.3-8.26-4.96-.55-46.25-1.1-92.5-1.65-138.74-15.09-4.83-30.78-9.53-47.07-14.04-20.48-5.67-40.34-10.59-59.46-14.87-.55,44.6-1.1,89.19-1.65,133.79-2.48,1.1-4.96,2.2-7.43,3.3l-4.96-2.48c0-53.68,0-107.36,0-161.04,30.28-10.74,60.56-21.47,90.84-32.21,1.65-51.75,3.3-103.51,4.96-155.26,6.88,1.8,16.81,4.24,28.9,6.61,15.99,3.13,28.01,4.57,52.03,7.43,24.81,2.96,37.12,3.78,42.94,4.13,7.74.46,14.26.7,18.99.83,1.1,1.65,2.2,3.3,3.3,4.96Z"/>
      <path class="cls-5" d="M857.12,204.81c3.03-19.55,6.06-39.09,9.08-58.64-30.83-5.78-61.66-11.56-92.5-17.34-.55,17.34-1.1,34.69-1.65,52.03,13.19,1.36,28.93,4.01,46.25,9.08,15.04,4.41,28.03,9.71,38.82,14.87Z"/>
      <rect class="cls-5" x="869.51" y="62.77" width="8.26" height="71.85" transform="translate(1714.01 357.08) rotate(-169.35)"/>
      <rect class="cls-5" x="854.06" y="60.13" width="8.26" height="71.85" transform="translate(1683.85 349) rotate(-169.35)"/>
      <rect class="cls-5" x="840.84" y="57.65" width="8.26" height="71.85" transform="translate(1658.11 341.65) rotate(-169.35)"/>
      <rect class="cls-5" x="826.8" y="55.18" width="8.26" height="71.85" transform="translate(1630.73 334.14) rotate(-169.35)"/>
      <rect class="cls-5" x="812.76" y="52.7" width="8.26" height="71.85" transform="translate(1603.35 326.64) rotate(-169.35)"/>
      <rect class="cls-5" x="797.07" y="50.22" width="8.26" height="71.85" transform="translate(1572.7 318.83) rotate(-169.35)"/>
      <rect class="cls-5" x="779.73" y="46.92" width="8.26" height="71.85" transform="translate(1538.92 309.07) rotate(-169.35)"/>
      <path class="cls-2" d="M855.47,203.99c-20.03-9.95-39.64-14.87-39.64-14.87-19.59-4.9-1.03-.14-29.73-6.61-3.02-.68-7.72-1.75-14.04-1.65-5.96.09-10.39,1.17-12.39,1.65-13.44,3.24-27.03,5.84-40.47,9.08-31.19,7.54-41.52,7.7-47.07,17.34-1.49,2.59-2.15,5.03-2.48,6.61,5,3.17,12.28,7.42,21.47,11.56,10.39,4.68,21.91,8.63,49.55,14.04,36.59,7.17,55.12,10.65,66.89,5.78,5.8-2.4,13.23-7.38,28.08-17.34,9.81-6.58,17.71-12.4,23.12-16.52.63-1.17,1.38-3.05.83-4.96-.69-2.36-3.02-3.58-4.13-4.13Z"/>
      <path class="cls-3" d="M907.5,46.25c-12.57,38.25-20.91,70.76-26.43,94.97-10.13,44.41-11.93,65.89-12.39,71.85-1.41,18.32-.96,33.94,0,64.42.64,20.22,1.81,47.53,4.13,80.11"/>
      <path class="cls-3" d="M858.77,213.07c1.38-.55,2.75-1.1,4.13-1.65.97-11.14,2.66-26.15,5.78-43.77,1.71-9.63,3.89-20.27,8.26-37.99,4.57-18.52,11.22-43.48,20.65-73.5-19.03-1.64-38.88-3.8-59.46-6.61-22.84-3.12-44.61-6.76-65.24-10.74-1.3,28.39-2.15,57.58-2.48,87.54-.2,18.47-.19,36.64,0,54.51"/>
      <path class="cls-6" d="M523.18,203.5h-116.69c-6.22-67.83-12.45-135.67-18.67-203.5,16.88,4.87,39.45,9.56,66.28,10.27,33.44.88,61.11-4.75,80.28-10.27-3.73,67.83-7.47,135.67-11.2,203.5Z"/>
      <rect class="cls-5" x="411.17" y="106.42" width="100.82" height="60.68"/>
      <rect class="cls-5" x="407.76" y="30.87" width="7.71" height="67.07" transform="translate(826.76 99.34) rotate(175.92)"/>
      <rect class="cls-5" x="424.56" y="30.87" width="7.71" height="67.07" transform="translate(860.33 98.15) rotate(175.92)"/>
      <rect class="cls-5" x="441.36" y="30.87" width="7.71" height="67.07" transform="translate(893.89 96.95) rotate(175.92)"/>
      <rect class="cls-5" x="457.23" y="30.87" width="7.71" height="67.07" transform="translate(922.17 128.8) rotate(180)"/>
      <rect class="cls-5" x="474.03" y="30.87" width="7.71" height="67.07" transform="translate(948.63 168.96) rotate(-175.15)"/>
      <rect class="cls-5" x="491.77" y="30.87" width="7.71" height="67.07" transform="translate(984.04 170.46) rotate(-175.15)"/>
      <rect class="cls-5" x="508.57" y="30.87" width="7.71" height="67.07" transform="translate(1017.58 171.88) rotate(-175.15)"/>
      <path class="cls-3" d="M406.5,121.35c-3.73-36.09-7.47-72.19-11.2-108.28,16.11,4.12,37.03,7.89,61.61,8.4,27.95.58,51.56-3.26,69.08-7.47-2.49,35.78-4.98,71.57-7.47,107.35h-112.02Z"/>
      <path class="cls-6" d="M47.77,43.45c9.59,29.31,20.48,65.69,29.73,104.88,4.2,17.79,8.08,36.23,9.08,60.29.66,15.72-.19,27.33-.83,36.34-1.78,25.05-3.92,57.03-6.61,100.75,2.2,1.38,4.4,2.75,6.61,4.13,3.3-1.1,6.61-2.2,9.91-3.3,2-15.76,3.69-32.3,4.96-49.55,1.72-23.51,2.45-45.87,2.48-66.89,6.52,3.23,13.46,7.05,20.65,11.56,10.93,6.86,20.26,13.96,28.08,20.65.83,46.52,1.65,93.05,2.48,139.57,1.65,1.38,3.3,2.75,4.96,4.13,2.75-1.65,5.51-3.3,8.26-4.96.55-46.25,1.1-92.5,1.65-138.74,15.09-4.83,30.78-9.53,47.07-14.04,20.48-5.67,40.34-10.59,59.46-14.87.55,44.6,1.1,89.19,1.65,133.79,2.48,1.1,4.96,2.2,7.43,3.3,1.65-.83,3.3-1.65,4.96-2.48v-161.04c-30.28-10.74-60.56-21.47-90.84-32.21-1.65-51.75-3.3-103.51-4.96-155.26-6.88,1.8-16.81,4.24-28.9,6.61-15.99,3.13-28.01,4.57-52.03,7.43-24.81,2.96-37.12,3.78-42.94,4.13-7.74.46-14.26.7-18.99.83-1.1,1.65-2.2,3.3-3.3,4.96Z"/>
      <path class="cls-3" d="M51.07,38.49c12.57,38.25,20.91,70.76,26.43,94.97,10.13,44.41,11.93,65.89,12.39,71.85,1.41,18.32.96,33.94,0,64.42-.64,20.22-1.81,47.53-4.13,80.11"/>
      <path class="cls-2" d="M103.1,196.23c20.03-9.95,39.64-14.87,39.64-14.87,19.59-4.9,1.03-.14,29.73-6.61,3.02-.68,7.72-1.75,14.04-1.65,5.96.09,10.39,1.17,12.39,1.65,13.44,3.24,27.03,5.84,40.47,9.08,31.19,7.54,41.52,7.7,47.07,17.34,1.49,2.59,2.15,5.03,2.48,6.61-5,3.17-12.28,7.42-21.47,11.56-10.39,4.68-21.91,8.63-49.55,14.04-36.59,7.17-55.12,10.65-66.89,5.78-5.8-2.4-13.23-7.38-28.08-17.34-9.81-6.58-17.71-12.4-23.12-16.52-.63-1.17-1.38-3.05-.83-4.96.69-2.36,3.02-3.58,4.13-4.13Z"/>
      <path class="cls-6" d="M184.86,257.35c-1.93,21.75-3.85,43.5-5.78,65.24,1.38,1.38,2.75,2.75,4.13,4.13,2.2-.28,4.4-.55,6.61-.83,2.48-23.95,4.96-47.9,7.43-71.85-1.87.57-3.8,1.12-5.78,1.65-2.26.61-4.46,1.16-6.61,1.65Z"/>
      <path class="cls-5" d="M101.45,197.06c-3.03-19.55-6.06-39.09-9.08-58.64,30.83-5.78,61.66-11.56,92.5-17.34.55,17.34,1.1,34.69,1.65,52.03-13.19,1.36-28.93,4.01-46.25,9.08-15.04,4.41-28.03,9.71-38.82,14.87Z"/>
      <rect class="cls-5" x="80.8" y="55.01" width="8.26" height="71.85" transform="translate(-15.34 17.26) rotate(-10.65)"/>
      <rect class="cls-5" x="96.26" y="52.38" width="8.26" height="71.85" transform="translate(-14.59 20.07) rotate(-10.65)"/>
      <rect class="cls-5" x="109.47" y="49.9" width="8.26" height="71.85" transform="translate(-13.9 22.46) rotate(-10.65)"/>
      <rect class="cls-5" x="123.51" y="47.42" width="8.26" height="71.85" transform="translate(-13.2 25.02) rotate(-10.65)"/>
      <rect class="cls-5" x="137.55" y="44.94" width="8.26" height="71.85" transform="translate(-12.5 27.57) rotate(-10.65)"/>
      <rect class="cls-5" x="153.24" y="42.47" width="8.26" height="71.85" transform="translate(-11.77 30.42) rotate(-10.65)"/>
      <rect class="cls-5" x="170.58" y="39.16" width="8.26" height="71.85" transform="translate(-10.86 33.57) rotate(-10.65)"/>
      <path class="cls-3" d="M99.8,205.32c-1.38-.55-2.75-1.1-4.13-1.65-.97-11.14-2.66-26.15-5.78-43.77-1.71-9.63-3.89-20.27-8.26-37.99-4.57-18.52-11.22-43.48-20.65-73.5,19.03-1.64,38.88-3.8,59.46-6.61,22.84-3.12,44.61-6.76,65.24-10.74,1.3,28.39,2.15,57.58,2.48,87.54.2,18.47.19,36.64,0,54.51"/>
      <path class="cls-4" d="M888.74,317.76c2.6.69,5.27,1.35,8,2,3.06.72,6.06,1.39,9,2,15.65-16.35,19.29-20.71,19-21-.43-.44-8.51,9.54-22,13-5.49,1.41-10.39,1.36-14,1v3Z"/>
      <path class="cls-4" d="M61.74,322.76c2.86-.54,5.86-1.19,9-2,2.45-.63,4.78-1.3,7-2-1.33-2-2.67-4-4-6-2.09.17-4.45.21-7,0-7.31-.6-13.12-2.96-17-5l12,15Z"/>
    </g>
  </g>
</svg>