<?xml version="1.0" encoding="UTF-8"?>
<svg id="Layer_2" data-name="Layer 2" xmlns="http://www.w3.org/2000/svg" viewBox="0 0 208.44 491.09">
  <defs>
    <style>
      .cls-1 {
        fill: #ff5610;
      }

      .cls-2 {
        fill: #e6cecc;
      }

      .cls-3 {
        fill: #fff;
      }

      .cls-4 {
        opacity: .78;
      }

      .cls-5 {
        fill: none;
        stroke: #fff;
        stroke-miterlimit: 10;
        stroke-width: .5px;
      }

      .cls-6 {
        fill: #993c33;
      }

      .cls-7 {
        fill: #3c342d;
      }

      .cls-8 {
        fill: #9f8066;
      }

      .cls-9 {
        fill: #f0d0b4;
      }

      .cls-10 {
        fill: #ff9a70;
      }

      .cls-11 {
        fill: #339997;
      }
    </style>
  </defs>
  <g id="Layer_1-2" data-name="Layer 1">
    <g>
      <g class="cls-4">
        <path class="cls-8" d="M208.43,306.66v18.07c-13.54-.39-29.05-1.85-36.94-8.3-3.15-2.57-4.35-5.38-4.47-8.19v-.19c-.02-.73.04-1.46.17-2.19,0-.02,0-.03.01-.05.63-3.77,2.85-7.35,4.59-10.16.39-.63.97-1.57,1.8-2.75.02-.04.05-.07.08-.1.24-.36.52-.74.81-1.15.02-.02.04-.04.06-.07,4.58-6.14,14.54-16.69,33.89-23.58v38.66Z"/>
        <path class="cls-8" d="M101.93,471.7c-1.34,2.29-3.45,5.53-6.77,9.42-3.53,4.15-4.83,4.82-5.5,5.14-5.79,2.74-14.8,2.71-32.59,2.53-16.36-.16-17.99-1.11-18.66-1.74-2.86-2.69,2.31-8.25,11.62-11.13,8.45-2.62,16.39-1.81,17.51-1.69,2.03-1.14,4.05-2.28,6.08-3.42,9.44.3,18.88.6,28.32.9Z"/>
        <path class="cls-8" d="M128.84,473.22c-1.95,2.29-4.49,5.53-6.77,9.42-2.43,4.15-2.1,4.82-1.88,5.14,1.84,2.75,10.89,2.74,28.9,2.61,16.57-.12,19.54-1.06,21.13-1.69,6.71-2.67,9.53-8.24,4.38-11.14-4.68-2.63-13.76-1.85-15.05-1.73l-1.16-3.43c-9.85.27-19.7.55-29.55.82Z"/>
        <path class="cls-8" d="M208.43,285.82c-7.42.29-15.12,3.15-17.63,6.64-2.65,3.68,1.51,6.68,9.3,6.69,2.29,0,4.63-.25,6.87-.71.03,0,.05,0,.07,0,.47-.1.93-.21,1.39-.32v-12.29Z"/>
        <path class="cls-8" d="M208.43,298.11v-9.69c-5.23.52-10.31,2.58-12.08,5.03-2.06,2.87,1.18,5.2,7.23,5.21,1.12,0,2.26-.08,3.39-.22.03,0,.05,0,.07,0,.47-.07.93-.14,1.39-.23v-.09Z"/>
        <path class="cls-8" d="M174.64,291.69c-.59-.72-2.05-2.05-5.53-2.48-6.69-.84-16.67,2.15-21.65,5.41-3.82,2.5-4.12,4.79-4.26,5.93-.69,5.34,7.83,7.65,8.93,7.93,5.62,1.45,11.95,1.21,14.95,1.01-.21-2.75.21-6.45,2.59-10.88,1.39-2.58,3.17-4.92,4.97-6.92Z"/>
        <path class="cls-8" d="M208.44,392.04v23.52c-13.21,19.41-26.42,38.82-39.63,58.23-3.28.1-6.56.19-9.84.28h-.01c-10.53.31-21.04.62-31.57.92h-.01c-2.55.07-5.1.15-7.65.22,11.79-21.26,23.59-42.52,35.38-63.78-15.73,20.93-31.46,41.85-47.19,62.78-2.45-.1-4.9-.2-7.35-.3-10.11-.41-20.22-.82-30.32-1.22-4.37-.18-8.73-.35-13.1-.53,18.65-25.06,37.28-50.11,55.93-75.17,1.39-1.88,2.79-3.75,4.18-5.63.13-.17.26-.34.38-.51.07-.08.13-.17.19-.25,3.44.27,7.02.51,10.73.73,11.13.67,23.45,1.15,36.91,1.31,15.19.18,29.62-.08,42.97-.6Z"/>
        <path class="cls-8" d="M208.44,258.87v17.3c-1.23.89-2.58,1.8-4.08,2.73-10.81,6.71-23.18,10.79-29.78,12.72-.03.01-.06.02-.09.03-.08.02-.16.05-.24.07,0-.15-.01-.3,0-.45.05-11.41,12.9-23.72,34.19-32.4Z"/>
        <path class="cls-8" d="M208.44,331.86v61.99c-11.85,1.58-27.09,2.96-43.72,2.75-17.9-.22-31.3-2.23-40.35-4.15-.01,0-.02,0-.03-.01-1.97-.42-3.73-.84-5.29-1.23h-.01c-.49-.12-.95-.24-1.4-.36-.04-.01-.07-.02-.11-.03-.07.14-.15.32-.27.54-.6,1.19-1.89,3.41-4.18,5.63-2.31,2.23-5.64,4.47-10.34,5.68-12.64,3.27-31.01-2.03-33.96-9.44-2.02-5.09,4.29-8.5,44.74-37.55,20.72-14.88,28.05-20.46,44.2-25.17,6.58-1.91,12.96-3.22,18.78-4.1h0c.37-.07.74-.12,1.11-.17.04,0,.08,0,.12-.02,6.49-.94,12.22-1.38,16.6-1.6.94,3.78,6.26,6.46,14.1,7.24Z"/>
        <path class="cls-8" d="M208.43,306.66l-6.03,3.56c1.01-.91,2.51-2.09,4.72-3.39.44-.26.88-.51,1.31-.74v.57Z"/>
        <path class="cls-8" d="M194.69,324.13c4.16.32,8.75.59,13.74.77v6.9c-6.87-.8-11.47-3.05-13.07-5.69-.47-.76-.62-1.46-.67-1.98Z"/>
        <path class="cls-8" d="M186.63,325.38c-3.82,8.98-10.39,20.43-22.06,33.62-11.91,13.45-25.71,24.83-37.72,33.59-1.27-.02-3.05-.13-4.86-.5-2.14-.44-3.43-1.06-4.15-1.49,11.08-8.27,23.23-18.42,34.19-30.14,12.34-13.19,19.82-24.79,24.5-34.11,1.46-.17,2.97-.33,4.53-.49,1.94-.19,3.8-.35,5.57-.49Z"/>
        <path class="cls-8" d="M158.08,350.58c5.57,0,11.13.01,16.7.02-2.83,2.96-5.65,5.93-8.48,8.89-5.22,0-10.44-.01-15.66-.02,2.48-2.97,4.96-5.93,7.44-8.9Z"/>
      </g>
      <g>
        <path class="cls-9" d="M163.79,97.32c-.85,14.97-1.7,31.36-14,44-15.19,15.61-36.22,15.25-51,15-14.42-.24-35.81-.51-51-17-12.66-13.74-13.49-30.91-14-42-.38-8.28-2.04-44.2,22-61,11.6-8.1,23.89-8.06,44-8,21.82.07,36.22.11,48,10,18.46,15.49,16.86,43.72,16,59Z"/>
        <path class="cls-7" d="M87.98,453.32c.29,4.63.5,11.18,0,19.06-.53,8.39-1.31,9.75-1.73,10.4-3.65,5.55-12.31,5.51-29.46,5.2-15.78-.29-17.98-2.19-19.06-3.47-4.59-5.42-3.46-16.67,3.47-22.53,6.29-5.31,14.44-3.71,15.59-3.47l3.47-6.93c9.24.58,18.48,1.16,27.72,1.73Z"/>
        <path class="cls-7" d="M114.78,456.32c-.29,4.63-.5,11.18,0,19.06.53,8.39,1.31,9.75,1.73,10.4,3.65,5.55,12.31,5.51,29.46,5.2,15.78-.29,17.98-2.19,19.06-3.47,4.59-5.42,3.46-16.67-3.47-22.53-6.29-5.31-14.44-3.71-15.59-3.47-1.16-2.31-2.31-4.62-3.47-6.93-9.24.58-18.48,1.16-27.72,1.73Z"/>
        <circle class="cls-3" cx="63.29" cy="90.82" r="13.5"/>
        <circle cx="66.29" cy="92.82" r="10.5"/>
        <circle class="cls-3" cx="130.29" cy="91.82" r="13.5"/>
        <circle cx="127.29" cy="93.82" r="10.5"/>
        <path class="cls-9" d="M33.79,89.32c-1.06-1.45-3.37-4.13-7-5-6.98-1.68-14.48,4.39-17,11-1.93,5.07-.64,9.7,0,12,3.01,10.79,12.76,15.43,14,16,6.37,2.91,12.27,2.42,15,2-2.1-5.56-4.23-13.03-5-22-.45-5.23-.35-9.95,0-14Z"/>
        <path class="cls-9" d="M164.29,90.82c.68-.7,5.78-5.79,13-5,8.93.98,12.61,10.01,13,11,3.74,9.62-2.89,18.51-4,20-1.73,2.32-6.28,7.51-14,9-5.46,1.05-9.93-.25-12-1,1.2-5.39,2.27-11.41,3-18,.64-5.73.93-11.09,1-16Z"/>
        <path class="cls-6" d="M47.43,289.38c-.67,55-1.33,110-2,165,16.67,1.33,33.33,2.67,50,4,.67-42.33,1.33-84.67,2-127,3.33,43,6.67,86,10,129,15.33-1,30.67-2,46-3-1-55.67-2-111.33-3-167-16.2,2.1-35.04,3.45-56,3-17.33-.38-33.09-1.93-47-4Z"/>
        <path class="cls-2" d="M33.43,89.38c4.94-3.85,14.18-12.18,20-26,3.87-9.19,4.83-17.48,5-23,5.79,1.63,14.84,4.14,26,7,25.61,6.57,30.72,6.93,41,12,2.08,1.03,12.43,6.22,24,16,6.41,5.42,11.36,10.7,15,15,.69-2.3,11.79-41.41-13.64-69.06C133.59,2.61,110.41.83,103.79.32c-6.68-.51-37.03-2.85-58,20-16.42,17.9-20.97,44.58-12.36,69.06Z"/>
        <path class="cls-11" d="M75.29,155.82c-7.88.86-20.03,3.43-31,12-12.22,9.55-15.4,20.87-25,51C.55,277.63-3.14,284.54,2.29,294.82c7.92,14.98,29.14,25.63,39,19,7.92-5.33,6.43-20.41,6-24,9.61,4.49,26.79,11.02,49.14,11.56,24.24.58,42.95-6.16,52.86-10.56-1.32,12.66,2.34,23.89,10,28,10.33,5.54,25.22-1.7,32-11,8.43-11.57,1.6-22.59-13.86-82.44-8.25-31.95-10.06-43.34-22-54-11.51-10.27-25.25-13.44-34.14-14.56-4.6,8.99-14.02,14.48-24,14-9.5-.46-18.01-6.27-22-15Z"/>
        <path class="cls-10" d="M118.29,113.82c1.29,1.78,2.75,4.11,4,7,.95,2.2,1.58,4.24,2,6"/>
        <path class="cls-10" d="M79.11,113.69c-1.18,1.45-2.6,3.49-3.82,6.13-1.22,2.64-1.84,5.04-2.18,6.87"/>
        <path class="cls-1" d="M84.29,128.82c2.43,1.18,7.02,2.99,13,3,7.24.01,12.59-2.62,15-4"/>
        <path class="cls-9" d="M75.29,154.82c.4,1.05,1.03,2.46,2,4,3.9,6.2,11.31,11.33,20,12,8.75.67,19.65-3.11,23-11,.65-1.52.9-2.93,1-4-6.53.7-13.91,1.13-22,1-8.92-.14-16.98-.94-24-2Z"/>
        <path class="cls-5" d="M58.43,38.38c8.46,5.72,21.95,13.37,40,18,20.18,5.17,37.39,4.34,48,3"/>
        <path class="cls-3" d="M50.43,15.38c2.67,7.67,5.33,15.33,8,23"/>
        <path class="cls-6" d="M68.43,157.38c2.51,18.15,4.11,41.32,2,68-2.15,27.22-7.53,50.25-13,68-1.23-.05-3-.25-5-1-2.34-.88-4.01-2.12-5-3,4.92-16.73,9.57-37.28,12-61,2.74-26.69,1.93-50.15,0-69,1.28-.35,2.61-.68,4-1,1.73-.39,3.4-.72,5-1Z"/>
        <path class="cls-3" d="M58.43,208.38h16c-.67,6-1.33,12-2,18h-15c.33-6,.67-12,1-18Z"/>
        <path class="cls-6" d="M128.39,158.38c-2.52,18.14-4.11,41.31-2,68,2.16,27.24,7.56,50.27,13.04,68,1.18-.19,2.54-.5,4-1,2.52-.86,4.51-2,5.96-3-4.92-16.73-9.57-37.28-12-61-2.74-26.69-1.93-50.15,0-69-1.28-.35-2.61-.68-4-1-1.73-.39-3.4-.72-5-1Z"/>
        <path class="cls-3" d="M138.39,208.38h-16c.67,6,1.33,12,2,18,5,0,10,0,15,0-.33-6-.67-12-1-18Z"/>
      </g>
    </g>
  </g>
</svg>