<?xml version="1.0" encoding="UTF-8"?>
<svg id="Layer_2" data-name="Layer 2" xmlns="http://www.w3.org/2000/svg" viewBox="0 0 2413.26 1179.5">
  <defs>
    <style>
      .cls-1 {
        fill: #d4d0ce;
        stroke: #ebeee7;
      }

      .cls-1, .cls-2 {
        stroke-miterlimit: 10;
      }

      .cls-3 {
        fill: #ab7b51;
      }

      .cls-4 {
        fill: #fff;
      }

      .cls-5 {
        fill: none;
      }

      .cls-6 {
        fill: #c09c7c;
      }

      .cls-7 {
        fill: #955223;
      }

      .cls-8 {
        fill: #b8ab95;
      }

      .cls-2 {
        fill: #fef4d9;
        stroke: #a67c52;
      }

      .cls-9 {
        fill: #4d3525;
      }
    </style>
  </defs>
  <g id="Layer_1-2" data-name="Layer 1">
    <polyline class="cls-2" points="2087.99 838.9 2412.76 838.9 2412.76 779.47 2412.76 778.7 2087.99 778.7"/>
    <polyline class="cls-2" points="306.05 778.7 3.44 778.7 .5 778.7 .5 838.9 306.05 838.9"/>
    <polyline class="cls-2" points="2087.53 779.47 2409.77 779.47 2412.76 779.47 2412.76 719.26 2409.77 719.26 2087.53 719.26"/>
    <polyline class="cls-2" points="306.05 719.26 3.41 719.26 3.41 778.7 3.41 779.47 306.05 779.47"/>
    <polyline class="cls-2" points="306.05 659.06 3.41 659.06 3.41 719.26 306.05 719.26"/>
    <polyline class="cls-2" points="2087.53 719.26 2409.77 719.26 2412.76 719.26 2412.76 659.06 2409.77 659.06 2087.53 659.06"/>
    <polyline class="cls-2" points="306.05 598.46 1.95 598.46 1.95 599.23 1.95 658.67 306.05 658.67"/>
    <polyline class="cls-2" points="2087.53 658.67 2411.26 658.67 2412.76 658.67 2412.76 599.23 2412.76 598.46 2411.26 598.46 2087.53 598.46"/>
    <polyline class="cls-2" points="306.05 539.03 1.95 539.03 1.95 598.46 1.95 599.23 306.05 599.23"/>
    <polyline class="cls-2" points="2087.53 599.23 2411.26 599.23 2412.76 599.23 2412.76 598.46 2412.76 539.03 2411.26 539.03 2087.53 539.03"/>
    <polyline class="cls-2" points="306.05 478.82 1.95 478.82 1.95 539.03 306.05 539.03"/>
    <polyline class="cls-2" points="2087.53 539.03 2411.26 539.03 2412.76 539.03 2412.76 478.82 2411.26 478.82 2087.53 478.82"/>
    <polyline class="cls-2" points="306.05 478.62 1.23 478.62 1.23 419.19 1.23 418.42 306.05 418.42"/>
    <polyline class="cls-2" points="2087.53 418.42 2412 418.42 2412.76 418.42 2412.76 419.19 2412.76 478.62 2412 478.62 2087.53 478.62"/>
    <rect class="cls-2" x="2.18" y="59.31" width="2410.16" height="58.66"/>
    <polyline class="cls-2" points="306.05 358.98 1.23 358.98 1.23 418.42 1.23 419.19 306.05 419.19"/>
    <polyline class="cls-2" points="2087.53 419.19 2412 419.19 2412.76 419.19 2412.76 418.42 2412.76 358.98 2412 358.98 2087.53 358.98"/>
    <polyline class="cls-2" points="306.05 298.78 1.23 298.78 1.23 358.98 306.05 358.98"/>
    <polyline class="cls-2" points="2087.53 358.98 2412 358.98 2412.76 358.98 2412.76 298.78 2412 298.78 2087.53 298.78"/>
    <polyline class="cls-2" points="306.05 238.2 2.68 238.2 2.68 238.97 2.68 298.41 306.05 298.41"/>
    <polyline class="cls-2" points="2087.53 298.41 2409.05 298.41 2411.28 298.41 2411.28 238.97 2411.28 238.2 2409.05 238.2 2087.53 238.2"/>
    <polyline class="cls-2" points="306.05 178.77 2.68 178.77 2.68 238.2 2.68 238.97 306.05 238.97"/>
    <polyline class="cls-2" points="2087.53 238.97 2410.51 238.97 2412.76 238.97 2412.76 238.2 2412.76 178.77 2410.51 178.77 2087.53 178.77"/>
    <polyline class="cls-2" points="2087.99 118.56 2409.05 118.56 2411.28 118.56 2411.28 178.77 2409.05 178.77 2087.99 178.77"/>
    <polyline class="cls-2" points="306.05 118.56 2.68 118.56 2.68 178.77 306.05 178.77"/>
    <polygon class="cls-7" points="2087.53 100.22 2087.53 838.9 2028.87 838.9 2028.87 143.51 367.8 143.51 367.8 838.9 306.05 838.9 306.05 100.22 2087.53 100.22"/>
    <rect class="cls-8" x="367.8" y="180.31" width="1661.07" height="660.14"/>
    <rect class="cls-1" x="367.8" y="143.51" width="1661.07" height="98.28"/>
    <rect class="cls-1" x="367.8" y="143.51" width="1661.07" height="85.88"/>
    <path class="cls-1" d="M367.8,200.17c553.69-.47,1107.38-.93,1661.07-1.4"/>
    <path class="cls-1" d="M368.51,170.54c553.45.3,1106.91.59,1660.36.89"/>
    <g>
      <path class="cls-4" d="M389.41,340.27c65.35,166.21,130.7,332.42,196.06,498.63"/>
      <path class="cls-4" d="M585.47,340.27c-65.35,166.21-130.7,332.42-196.06,498.63"/>
      <rect class="cls-9" x="389.41" y="491.56" width="196.06" height="10.81"/>
      <rect class="cls-9" x="389.41" y="653.65" width="196.06" height="10.81"/>
      <rect class="cls-9" x="389.41" y="334.1" width="196.06" height="10.81"/>
      <rect class="cls-9" x="387.87" y="801.85" width="196.06" height="10.81"/>
      <rect class="cls-9" x="378.61" y="334.1" width="10.81" height="504.8"/>
      <rect class="cls-9" x="583.92" y="334.1" width="10.81" height="504.8"/>
    </g>
    <rect class="cls-6" x="409.48" y="704.6" width="151.29" height="97.26"/>
    <rect class="cls-3" x="398.67" y="704.6" width="174.44" height="18.52"/>
    <path class="cls-5" d="M411.02,568.75c4.72,3.42,17.34,11.61,35.51,12.35,19.72.81,33.85-7.66,38.59-10.81"/>
    <rect class="cls-2" x="1.61" y=".5" width="2410.16" height="58.66"/>
    <rect x="1479.57" y="362.51" width="271.7" height="15.44"/>
    <rect class="cls-4" x=".5" y="838.9" width="2412.26" height="340.6"/>
  </g>
</svg>