<?xml version="1.0" encoding="UTF-8"?>
<svg id="Layer_2" data-name="Layer 2" xmlns="http://www.w3.org/2000/svg" viewBox="0 0 328.51 269">
  <defs>
    <style>
      .cls-1 {
        fill: #d4cdbf;
      }

      .cls-2 {
        fill: #272234;
      }

      .cls-3 {
        fill: #5d576a;
      }

      .cls-4 {
        fill: #403d36;
      }

      .cls-5 {
        fill: #cdb383;
      }

      .cls-6 {
        fill: #dacfd3;
      }

      .cls-7 {
        fill: #1a1723;
      }
    </style>
  </defs>
  <g id="Layer_1-2" data-name="Layer 1">
    <g>
      <rect class="cls-4" x="16.94" y="190" width="37" height="79" rx="9.05" ry="9.05"/>
      <path class="cls-2" d="M36.94,82c-1.67.56-3.94,1.07-5,0-1.98-2,2.66-7.02,1-12-1.69-5.06-8.78-6.72-10-7-6.17-1.44-12.71.75-17,5-3.88,3.85-7.77,11.22-5,16,2.23,3.85,7.88,4.45,13,5,2.78.3,3.77.02,16,0,1.27,0,2.32,0,3,0"/>
      <path class="cls-2" d="M291.57,82.5c1.67.56,3.94,1.07,5,0,1.98-2-2.66-7.02-1-12,1.69-5.06,8.78-6.72,10-7,6.17-1.44,12.71.75,17,5,3.88,3.85,7.77,11.22,5,16-2.23,3.85-7.88,4.45-13,5-2.78.3-3.77.02-16,0-1.27,0-2.32,0-3,0"/>
      <rect class="cls-4" x="276.94" y="190" width="37" height="79" rx="9.05" ry="9.05"/>
      <path class="cls-2" d="M18.94,187c-2.62-15.23-5.08-21.47-4-34,.7-8.14,2.54-14.7,4-19-.86-18.05,3.55-29.62,8-37,3.19-5.3,5.68-7.24,10-15,5.88-10.57,7.99-19.06,10-26,1.28-4.4,8.35-28.79,15-39C69.48,5.42,84.26.13,165.94,0c75.69-.12,88.97,4.39,98,15,4.48,5.27,15.64,21.12,21,42,2.36,9.18,2.42,14.75,7,25,5.38,12.04,10.45,14.53,14,25,3.77,11.1,4.23,21.11,4,28,2,4.47,4.6,11.33,6,20,1.45,8.98.79,14.85-3,41-4.04,27.91-4.66,30.69-8,34-6.9,6.83-16.72,7.31-31,8-13.59.66-24.72-1.26-32-3H83.94c-7.65,1.88-19.51,3.96-34,3-11.51-.76-17.27-1.14-22-5-8.11-6.63-3.61-14.68-9-46Z"/>
      <path class="cls-5" d="M36.94,131c-.02-6.05-.05-13.81,5-18,5.87-4.87,15.24-2.14,26,1,5.61,1.64,8.46,2.5,11,5,4.81,4.72,5.32,11.36,6,20,.55,7.01.82,10.51-1,13-4.53,6.19-16.31,4.26-24,3-8.05-1.32-14.61-2.39-19-8-3.96-5.06-3.98-11.01-4-16Z"/>
      <path class="cls-5" d="M295.41,130.94c.02-6.05.05-13.81-5-18-5.87-4.87-15.24-2.14-26,1-5.61,1.64-8.46,2.5-11,5-4.81,4.72-5.32,11.36-6,20-.55,7.01-.82,10.51,1,13,4.53,6.19,16.31,4.26,24,3,8.05-1.32,14.61-2.39,19-8,3.96-5.06,3.98-11.01,4-16Z"/>
      <path class="cls-1" d="M47.94,86c1.91-8.74,4.82-21.17,9-36,5.45-19.35,7.59-23.44,11-27,7.52-7.87,17.66-9.49,38-11,28.28-2.1,50.06-2.04,58-2,0,0,21.21.1,71,4,10.97.86,20.66,1.75,28,9,5.47,5.4,6.56,11.28,11,28,2.21,8.32,5.52,20.34,10,35H47.94Z"/>
      <path class="cls-3" d="M92.94,131c6.38-10.57,26.27-2.72,72-2,47.5.75,68.95-7.04,75,4,4.47,8.16-2.2,21.63-10,29-10.89,10.29-22.36,7.16-68,7-39.19-.13-49.15,2.11-59-7-8.61-7.97-15.03-22.67-10-31Z"/>
      <path class="cls-3" d="M64.94,199c-3.78,3.87-8.46,9.76-7,15,2.97,10.66,29.35,11.51,106,11,80.33-.54,107.64-1.85,110-12,1-4.29-2.77-8.87-6-12-3.81-.04-51.5-.49-103-1-50-.49-96.41-.96-100-1Z"/>
      <rect class="cls-6" x="118.94" y="175" width="96" height="22" rx="5.84" ry="5.84"/>
      <rect class="cls-5" x="42.94" y="161" width="24" height="7" rx="2.33" ry="2.33" transform="translate(14.34 -4.11) rotate(4.93)"/>
      <rect class="cls-5" x="264.61" y="160.75" width="24" height="7" rx="2.33" ry="2.33" transform="translate(566.3 304.12) rotate(175.07)"/>
      <path class="cls-7" d="M53.94,251h17c2.33-1.67,4.67-3.33,7-5h175c2.33,1.67,4.67,3.33,7,5h17v-13c-6.61.14-13.99-.1-22-1-4.61-.52-8.95-1.21-13-2H83.94c-4.35.79-9.02,1.48-14,2-5.69.6-11.04.9-16,1v13Z"/>
      <path class="cls-5" d="M47.94,185c2.51-2.01,5.9-3.37,24-3,6.46.13,12.53.44,20,1,7.68.58,19.02,1.59,19,2-.03.47-14.85-1.03-35,1-7.09.71-13.59,1.74-21,4-5.43,1.66-9.84,3.52-13,5,.74-2.9,2.32-7.06,6-10Z"/>
      <path class="cls-5" d="M284.23,184.58c-2.51-2.01-5.9-3.37-24-3-6.46.13-12.53.44-20,1-7.68.58-19.02,1.59-19,2,.03.47,14.85-1.03,35,1,7.09.71,13.59,1.74,21,4,5.43,1.66,9.84,3.52,13,5-.74-2.9-2.32-7.06-6-10Z"/>
    </g>
  </g>
</svg>