<?xml version="1.0" encoding="UTF-8"?>
<svg id="Layer_2" data-name="Layer 2" xmlns="http://www.w3.org/2000/svg" viewBox="0 0 54.15 60.51">
  <defs>
    <style>
      .cls-1 {
        letter-spacing: 0em;
      }

      .cls-2 {
        fill: none;
        stroke: #000;
        stroke-miterlimit: 10;
      }

      .cls-3 {
        letter-spacing: -.03em;
      }

      .cls-4 {
        letter-spacing: 0em;
      }

      .cls-5 {
        letter-spacing: 0em;
      }

      .cls-6 {
        font-family: MyriadPro-Regular, 'Myriad Pro';
        font-size: 12px;
      }

      .cls-7 {
        fill: #afb1c0;
      }
    </style>
  </defs>
  <g id="Layer_1-2" data-name="Layer 1">
    <g>
      <path class="cls-7" d="M49.44,60.51H.44V5.51C4.97,3.37,13.2.2,23.94,0c11.83-.21,20.87,3.31,25.5,5.5v55Z"/>
      <path d="M5.44,7.51c.08-2.28,10.96-3.93,19-4,8.75-.07,19.92,1.68,20,4,.07,2.21-9.97,4.91-19,5-9.63.1-20.08-2.75-20-5Z"/>
      <text class="cls-6" transform="translate(11.83 41.27)"><tspan class="cls-3" x="0" y="0">P</tspan><tspan class="cls-1" x="6.07" y="0">ai</tspan><tspan class="cls-4" x="14.66" y="0">n</tspan><tspan class="cls-5" x="21.28" y="0">t</tspan></text>
      <path d="M.44,5.51c.57,3.48.34,6.16,0,8-.31,1.68-.8,3.2,0,4,.7.69,2.24.72,3,0,1.55-1.47-.91-5.43,0-6,.81-.51,4.24,1.73,5,5,.66,2.87-1.12,4.84,0,6,.84.87,2.74.67,4,0,2.95-1.56,3.36-6.13,4-6,.4.08-.08,1.78,1,3,.7.79,1.95,1.27,3,1,1.88-.48,2.19-3.1,3-3,1.15.14.34,5.5,3,7,.87.49,2.22.62,3,0,1.72-1.38-.76-5.37,1-7,.96-.88,2.86-.78,4,0,1.14.78,1.27,2.09,2,7,.77,5.18,1.08,6.75,2,7,.86.23,1.8-.79,2-1,1.44-1.54,1.2-3.71,1-7-.37-6.04-.19-8.98,0-9,.21-.02-.06,3.35,2,5,1.62,1.3,4.52,1.41,6,0,.44-.42,1.04-1.24,1-5-.02-1.96-.21-4.71-1-8-3.93,2.13-12.49,6.09-24,6C13.21,12.42,4.29,7.8.44,5.51Z"/>
      <path class="cls-2" d="M.44,5.51c2.48,4.81,8.39,14.61,20,21,1.49.82,22.7,12.21,30.5,3.5,4.37-4.88,3.14-14.52-1.5-23.5"/>
    </g>
  </g>
</svg>