<?xml version="1.0" encoding="UTF-8"?>
<svg id="Layer_2" data-name="Layer 2" xmlns="http://www.w3.org/2000/svg" viewBox="0 0 132.78 93.86">
  <defs>
    <style>
      .cls-1 {
        fill: #fff;
      }

      .cls-2 {
        fill: #333;
      }

      .cls-3 {
        fill: #999;
      }

      .cls-4 {
        fill: #a57b81;
      }
    </style>
  </defs>
  <g id="Layer_1-2" data-name="Layer 1">
    <g>
      <g>
        <path class="cls-3" d="M30.72,22.48v66.69h-13.49c.5-.75,1-1.5,1.5-2.25-.75-.5-1.5-1-2.25-1.5.5-1,1-2,1.5-3-.75-.5-1.5-1-2.25-1.5.5-1.25,1-2.5,1.5-3.75-1-.75-2-1.5-3-2.25.5-1,1-2,1.5-3-1-.75-2-1.5-3-2.25.5-1,1-2,1.5-3-1-.75-2-1.5-3-2.25.5-1.25,1-2.5,1.5-3.75-1-.75-2-1.5-3-2.25.5-1,1-2,1.5-3-1-.75-2-1.5-3-2.25.5-1.25,1-2.5,1.5-3.75-1-.75-2-1.5-3-2.25.5-1.25,1-2.5,1.5-3.75-1-.75-2-1.5-3-2.25.5-1,1-2,1.5-3-1-.75-2-1.5-3-2.25.5-1.25,1-2.5,1.5-3.75-1-.75-2-1.5-3-2.25.5-1.25,1-2.5,1.5-3.75-1.25-1.25-2.5-2.5-3.75-3.75h30.72Z"/>
        <path class="cls-2" d="M8.24,31.47c.19.5.8.82,1.5.75h21.73c.33-.15.71-.4.75-.75,0-.04,0-.07,0-.11V1.5c-.11-.15-1.16-1.5-3-1.5-.19,0-1.9.03-3,1.5v3.75h-11.99V1.5c-.11-.15-1.16-1.5-3-1.5-.19,0-1.9.03-3,1.5v29.22c-.05.15-.12.45,0,.75Z"/>
        <path class="cls-1" d="M27.72,10.49c-5.02,0-10.04,0-15.07,0-.19-.19-.5-.18-.67,0-.15.16-.15.42,0,.61v3.14h5.24c.75,1.75,1.5,3.5,2.25,5.24h8.99v-8.24c.21-.21.21-.54,0-.75s-.54-.21-.75,0Z"/>
      </g>
      <g>
        <path class="cls-3" d="M63.45,87.68s-.05-.09-.07-.14c-.25-3.53-.5-7.06-.76-10.59h-6.6c-.25,3.54-.5,7.07-.76,10.6-.02.04-.04.08-.07.12-.21.31-.56.41-.73.45-.88-.48-4.48-2.6-5.87-7.05-1.27-4.07-.22-8.59,2.48-11.55,1.15-1.27,2.4-2.03,3.3-2.48.28-1.97.61-4.82.83-8.25.24-3.89.16-7.05,0-13.2-.42-15.95-.49-18.17-.83-22.28-.29-3.5-.6-6.37-.83-8.25-.33-.32-2.83-2.81-2.48-6.6.03-.33.39-3.66,3.3-5.78,2.92-2.13,7.05-2.07,9.9,0,.72.52,3.13,2.46,3.3,5.78.21,4.02-3.06,6.43-3.3,6.6.02,1.78.05,4.68,0,8.25-.11,7.96-.46,10.98-.83,22.28-.21,6.58-.23,9.52,0,13.2.21,3.44.55,6.28.83,8.25.91.35,3.91,1.64,5.78,4.95,2.34,4.15,1.09,8.27.83,9.08-1.58,4.83-5.78,6.73-6.44,7.02-.13,0-.72-.02-.98-.42Z"/>
        <circle class="cls-1" cx="59.32" cy="8.46" r="4.13"/>
      </g>
      <g>
        <path class="cls-3" d="M113.38,71.45c-.81-1.05-2.2-.87-7.46-.75-6.02.14-6.76-.05-7.46.75-.81.92-.4,1.82,0,8.2.27,4.26.2,5.64-.75,6.71-.29.33-1.18,1.21-3.73,1.49-5.22.57-9.8-2.21-11.93-3.73-.27.13-.61.36-.75.75-.56,1.6,3.11,4.47,5.97,5.97,2.36,1.24,4.34,1.59,8.2,2.24,2.49.42,6.13.53,13.43.75,2.91.09,5.7.14,6.71-1.49.44-.71.17-1.13.75-2.24.59-1.12,1.82-2.5,3.73-2.98.29-.07,2.48-.58,4.48.75.75.5,1.22,1.09,1.49,1.49h5.22c.46-.75,1.49-2.62,1.49-5.22,0-.88-.12-3.01-1.49-5.22h-5.22c-.31.41-.79.97-1.49,1.49-.56.42-2.17,1.62-4.48,1.49-.24-.01-2.79-.2-4.48-2.24-.86-1.04-1.11-2.1-1.49-3.73-.69-2.91-.05-3.57-.75-4.48Z"/>
        <path class="cls-4" d="M110.4,70.71c-.19-9.45.28-17.11.75-22.38.78-8.8,1.17-13.19,2.24-19.39,1.96-11.36,3.79-15.09,1.49-20.14-.21-.46-3.43-7.28-8.95-7.46-4.46-.14-8.11,4.12-9.7,7.46-2.3,4.85-.58,8.47,1.49,20.88,0,0,1.18,7.04,2.24,17.9.53,5.44,1.04,13.34.75,23.12h9.7Z"/>
      </g>
    </g>
  </g>
</svg>