<?xml version="1.0" encoding="UTF-8"?>
<svg id="Layer_2" data-name="Layer 2" xmlns="http://www.w3.org/2000/svg" viewBox="0 0 2416.34 1180.44">
  <defs>
    <style>
      .cls-1 {
        fill: #4033aa;
      }

      .cls-2 {
        fill: #bfbd95;
      }

      .cls-3 {
        fill: #9f99d5;
      }

      .cls-4 {
        fill: #fff;
      }

      .cls-5 {
        fill: #ff8467;
      }

      .cls-6 {
        fill: none;
      }

      .cls-6, .cls-7 {
        stroke: #006837;
      }

      .cls-6, .cls-7, .cls-8 {
        stroke-miterlimit: 10;
      }

      .cls-9 {
        fill: #ffc07e;
      }

      .cls-10 {
        fill: #0058ff;
      }

      .cls-11 {
        fill: #99bcff;
      }

      .cls-12 {
        fill: #ffd566;
      }

      .cls-7 {
        fill: #73bf83;
      }

      .cls-13 {
        fill: #908cab;
      }

      .cls-8 {
        fill: #ffb0f0;
        stroke: #f0f;
      }

      .cls-14 {
        fill: #aa335c;
      }

      .cls-15 {
        fill: #ff99d1;
      }

      .cls-16 {
        fill: #669bff;
      }

      .cls-17 {
        fill: #fffcc7;
      }
    </style>
  </defs>
  <g id="Layer_1-2" data-name="Layer 1">
    <rect class="cls-2" y=".65" width="2416.34" height="1179.4"/>
    <rect class="cls-17" x="384.31" y="0" width="1649.21" height="892.05"/>
    <path class="cls-7" d="M2263.43,1177.13H169.72c72.04-94.77,144.08-189.55,216.11-284.32,549.23-.26,1098.45-.51,1647.68-.77,76.64,95.03,153.27,190.06,229.91,285.09Z"/>
    <line class="cls-6" x1="621.11" y1="879.79" x2="457.11" y2="1180.2"/>
    <line class="cls-6" x1="844.89" y1="911.97" x2="774.38" y2="1180.2"/>
    <line class="cls-6" x1="1084" y1="924.23" x2="1084" y2="1178.67"/>
    <line class="cls-6" x1="1300.11" y1="911.97" x2="1396.67" y2="1180.2"/>
    <line class="cls-6" x1="1539.98" y1="898.18" x2="1714.71" y2="1177.13"/>
    <line class="cls-6" x1="1795.95" y1="899.71" x2="1996.73" y2="1177.13"/>
    <line class="cls-6" x1="291.58" y1="1019.26" x2="2155.37" y2="1019.26"/>
    <g>
      <rect class="cls-10" x="621.26" y="654.29" width="970.42" height="22.54"/>
      <rect class="cls-11" x="627.19" y="676.84" width="319.12" height="255.06"/>
      <rect class="cls-15" x="1265.44" y="676.84" width="319.12" height="255.06"/>
      <rect class="cls-15" x="658.03" y="714.8" width="121.01" height="182.7"/>
      <rect class="cls-15" x="790.9" y="714.8" width="119.82" height="182.7"/>
      <circle class="cls-4" cx="763.03" cy="805.55" r="8.9"/>
      <circle class="cls-4" cx="806.92" cy="805.55" r="8.9"/>
      <rect class="cls-16" x="1289.17" y="694.63" width="272.86" height="66.43"/>
      <rect class="cls-16" x="1289.17" y="778.86" width="272.86" height="130.5"/>
      <circle class="cls-4" cx="1426.19" cy="727.25" r="8.9"/>
      <circle class="cls-4" cx="1426.19" cy="804.37" r="8.9"/>
      <rect class="cls-9" x="1607.42" y="588.57" width="426.1" height="343.33"/>
      <rect class="cls-8" x="1915.5" y="665.2" width="277.42" height="424.57"/>
      <path class="cls-1" d="M2033.52,588.57c53.13,25.55,106.27,51.09,159.4,76.64h-318.81c-27.08-20.44-54.16-40.87-81.23-61.31h-185.46v-15.33h426.1Z"/>
      <path class="cls-3" d="M1914.73,665.2c-40.62-20.44-81.23-40.87-121.85-61.31v329.54c40.62,52.11,81.23,104.23,121.85,156.34v-424.57Z"/>
      <rect class="cls-5" x="1635.01" y="643.75" width="134.88" height="254.43"/>
      <path class="cls-1" d="M1809.74,639.15c28.36,16.35,56.71,32.7,85.07,49.05.77,113.93,1.53,227.87,2.3,341.8-29.2-36.27-58.39-72.55-87.59-108.82.07-94.01.15-188.01.22-282.02Z"/>
    </g>
    <rect class="cls-14" x="692.38" y="424.57" width="228.38" height="10.73"/>
    <path class="cls-13" d="M730.7,513.46c-.19,7.91,6.33,16.87,12.26,16.86,7.32,0,14.9-13.67,12.26-22.99-1.68-5.93-6.48-6.54-9.2-13.79-2.22-5.95-1.04-10.99,0-16.86,1.21-6.84,7.6-43.02-1.53-47.51-1.33-.66-3.19-.73-4.6,0-4.14,2.16-3.74,11.06,0,47.51.9,8.77,1.27,12.07,0,16.86-2.73,10.31-9.02,12.31-9.2,19.93Z"/>
    <path class="cls-12" d="M836.46,654.47c-7.31,13.5-2.07,37.3,13.79,45.98,7.84,4.29,21.21,6.5,30.65-1.53,9.15-7.78,11.57-22.6,4.6-35.25.57,1.54,8.38,21.73,22.99,22.99,1.65.14,4.94.43,7.66-1.53,7.07-5.08,5.56-21.8,0-30.65-13.4-21.35-67-23.47-79.7,0Z"/>
    <path class="cls-13" d="M913.51,530.32h-58.43v-71.25h18.53c2.03-3.36,4.26-8.27,4.28-14.25,0-5.65-1.97-8.69,0-11.4,2.31-3.17,8.64-3.95,11.4-1.43,2.47,2.26.82,6,1.43,12.83.55,6.15,2.59,11.03,4.28,14.25h18.53v71.25Z"/>
  </g>
</svg>