<?xml version="1.0" encoding="UTF-8"?>
<svg id="Layer_2" data-name="Layer 2" xmlns="http://www.w3.org/2000/svg" viewBox="0 0 236.5 316">
  <defs>
    <style>
      .cls-1 {
        fill: #cff;
      }

      .cls-2 {
        fill: #955223;
      }

      .cls-3 {
        fill: #2a8500;
      }
    </style>
  </defs>
  <g id="Layer_1-2" data-name="Layer 1">
    <rect class="cls-2" width="227" height="316"/>
    <rect class="cls-1" x="13.55" y="20.76" width="198.45" height="276.25"/>
    <path class="cls-3" d="M13.55,297h89.42c8.22-4.18,11.63-14.07,8-22-3.33-7.3-11.86-11.27-20-9,1.55-7.36-.91-14.65-6-18-7.12-4.7-19.48-1.73-25,9-.98-1.21-9.64-11.44-24-11-13.51.42-21.34,9.95-22.42,11.32v39.68Z"/>
    <path class="cls-3" d="M139.52,297c-8.12-4.18-11.48-14.07-7.9-22,3.29-7.3,11.71-11.27,19.75-9-1.53-7.36.9-14.65,5.92-18,7.03-4.7,19.23-1.73,24.68,9,1.2-1.42,9.91-11.39,23.69-11,12.96.36,20.7,9.6,22.71,12,13.23,15.8,6.45,37.42,5.92,39h-94.78Z"/>
    <rect class="cls-2" x="99" y="21" width="6" height="276"/>
  </g>
</svg>