<?xml version="1.0" encoding="UTF-8"?>
<svg id="Layer_2" data-name="Layer 2" xmlns="http://www.w3.org/2000/svg" viewBox="0 0 2413.26 1188.99">
  <defs>
    <style>
      .cls-1, .cls-2 {
        fill: #fff;
      }

      .cls-1, .cls-3, .cls-4, .cls-5, .cls-6 {
        stroke-miterlimit: 10;
      }

      .cls-1, .cls-3, .cls-6 {
        stroke: #a1e9ff;
      }

      .cls-3 {
        fill: #a5dbff;
      }

      .cls-7 {
        fill: #f0fffe;
      }

      .cls-4 {
        fill: #f5ffff;
        stroke: #caeeff;
      }

      .cls-8 {
        fill: #c1e3ff;
      }

      .cls-5 {
        fill: #cbefff;
        stroke: #000;
      }

      .cls-6 {
        fill: none;
      }

      .cls-9 {
        fill: #fffffe;
      }
    </style>
  </defs>
  <g id="Layer_1-2" data-name="Layer 1">
    <rect class="cls-5" x=".5" y="504.49" width="2412.26" height="684"/>
    <path class="cls-8" d="M1324.45,690.19c-1.44,8.64-2.97,20.87-3.1,35.59-.16,19.07-.23,28.61,3.1,35.59,8.36,17.55,37.43,19.47,99.04,21.67,89.06,3.17,121.71,2.48,129.99,20.12,5.54,11.79-5.8,19.03-3.1,34.05,6.54,36.34,84.64,58.9,153.2,61.9,95.04,4.16,99.47-32.44,202.73-30.95,65.78.95,90.74,16.19,128.44-4.64,29.65-16.38,57.17-49.55,65-86.66,2.83-13.45,2.41-31.15,1.55-66.54-.58-23.86-1.94-43.6-3.1-57.26"/>
    <rect class="cls-7" x="2.26" y="0" width="2406.97" height="506.04"/>
    <path class="cls-2" d="M1.79,899.11c43.38,2.17,109.02,2.53,187.25-9.29,156.3-23.6,192.73-70.06,304.86-89.76,83.62-14.69,86.99,7,389.97,61.9,243.91,44.2,284.53,37.9,354.38,85.11,99.83,67.48,148.46,169.33,173.32,241.41H1.79v-289.39Z"/>
    <path class="cls-2" d="M1443.61,731.98c92.73,7.18,140.39,11.41,151.66,38.69,2.63,6.37.49,7.25,3.1,13.93,15.86,40.64,107.99,38.4,129.99,40.24,63.57,5.32,73.36-16.49,188.8-34.05,87.54-13.31,103.74-4.09,129.99-24.76,47.54-37.44,67.16-124.95,34.05-168.68-31.17-41.17-85.66-12.58-233.68-29.4-135.83-15.43-144.74-45.73-250.7-43.33-54.1,1.23-141.66,4.42-208.92,65-38.7,34.86-75.99,93.87-58.81,122.25,7.18,11.87,20.54,12.84,114.52,20.12Z"/>
    <path class="cls-8" d="M794.12,476.64c-.61,13.19-2.11,32.57-6.19,55.71-3.46,19.61-8.33,39.39-10.83,46.43-18.21,51.14-131.75,46.86-242.96,80.47-85.6,25.87-91.49,50.52-162.49,78.92-75.48,30.2-192.58,51.86-368.31,3.1-.52-24.24-1.03-48.49-1.55-72.73"/>
    <path class="cls-2" d="M1.79,678.58c89.13,31.04,161.3,35.58,207.37,34.84,166.38-2.67,174.41-77.14,405.45-118.95,36.34-6.58,98.93-16.09,142.37-56.47,8.9-8.27,46.85-43.55,34.05-80.5-13.8-39.82-77.5-55.53-95.95-60.08-85.82-21.17-125.32,13.6-242.96,26.43-174.32,19.01-245.24-40.12-363.67,6.01-42.14,16.41-70.51,38.45-86.66,52.87v195.85Z"/>
    <path class="cls-9" d="M1705.14,437.95c29.09-20.68,45.28-30.5,80.47-55.71,29.62-21.22,53.11-39.3,68.09-51.07,6.77-2.26,16.93-4.77,29.4-4.64,15.93.16,28.36,4.54,35.59,7.74,15.85,23.09,35.68,48.5,60.35,74.28,41.84,43.72,84.24,74.57,119.16,95.95-160.43.52-320.85,1.03-481.28,1.55,36.26-30.26,66.96-52.99,88.21-68.09Z"/>
    <path class="cls-9" d="M1392.54,506.04c38.13-5.56,96.77-19.6,156.3-58.81,24.64-16.23,44.57-33.55,60.35-49.52,10.83-1.03,21.67-2.06,32.5-3.1,13.16,9.88,27.08,19.71,41.78,29.4,55.59,36.62,110.02,62.91,159.39,82.02h-450.33Z"/>
    <path class="cls-9" d="M1948.1,506.04c14.35-14.1,28.8-28.54,43.33-43.33,14.8-15.06,29.24-30.02,43.33-44.88,5.67-.52,11.35-1.03,17.02-1.55,4.46,11.65,11.6,26.51,23.21,41.78,19.81,26.05,42.93,40.54,57.26,47.97h-184.15Z"/>
    <path class="cls-4" d="M63.35,498.3c-25.37-65.18-7.02-138.96,44.88-182.61,58.28-49.02,146-49.22,204.27,0,51.25,43.29,69.55,116.23,44.88,181.06-98.01.52-196.02,1.03-294.03,1.55Z"/>
    <path class="cls-6" d="M60.26,388.43c32.32,12.18,83.85,27.2,148.56,27.86,66.94.68,120.29-14.29,153.2-26.31"/>
    <path class="cls-6" d="M52.52,437.95c35.2,11.66,88.09,24.74,153.2,24.76,70.01.02,126.31-15.08,162.49-27.86"/>
    <path class="cls-1" d="M147.21,498.3c-18.55-47.1-11.96-93.79,14.38-115.01,7.22-5.82,21.86-14.5,41.04-14.99,0,0,26.21-.66,47.61,17.38,26.56,22.4,33.67,67.71,16.77,112.61h-119.8Z"/>
    <path class="cls-3" d="M168.58,498.3c.34-8.79.83-19.8,1.55-32.5,1.68-29.76,2.79-36.42,7.74-43.33,1.53-2.13,10.84-14.67,26.31-15.48,18.57-.97,30.12,15.78,30.95,17.02,1.92,2.88,5.55,9.23,6.19,35.59.25,10.08.06,23.25-1.55,38.69h-71.19Z"/>
    <path class="cls-1" d="M154.66,289.39c13.47,1.88,29.08,3.2,46.43,3.1,19.97-.12,37.69-2.08,52.62-4.64"/>
    <path class="cls-6" d="M108.23,315.69c27.62,5.07,61.04,9.08,99.04,9.29,40.66.22,76.24-3.97,105.23-9.29"/>
    <path class="cls-6" d="M77.28,351.29c31.39,8.57,74.23,16.86,125.35,17.02,57.94.19,105.79-10.13,139.28-20.12"/>
    <path class="cls-6" d="M173.23,292.48c-9.29,9.8-18.57,19.6-27.86,29.4"/>
    <path class="cls-6" d="M201.08,292.48c-.52,10.32-1.03,20.63-1.55,30.95"/>
    <path class="cls-6" d="M235.13,290.93c8.77,10.32,17.54,20.63,26.31,30.95"/>
    <path class="cls-1" d="M119.06,318.79c-9.29,11.86-18.57,23.73-27.86,35.59"/>
    <path class="cls-1" d="M173.23,323.43c-3.61,14.44-7.22,28.89-10.83,43.33"/>
    <path class="cls-1" d="M230.49,324.98c5.16,13.93,10.32,27.86,15.48,41.78"/>
    <path class="cls-1" d="M290.84,318.79c8.77,11.86,17.54,23.73,26.31,35.59"/>
    <path class="cls-1" d="M128.35,362.12c-7.22,13.41-14.44,26.82-21.67,40.24"/>
    <path class="cls-1" d="M284.65,362.12c6.19,13.93,12.38,27.86,18.57,41.78"/>
    <path class="cls-1" d="M81.92,396.16c-4.64,15.48-9.29,30.95-13.93,46.43"/>
    <path class="cls-1" d="M337.26,397.71c3.1,14.96,6.19,29.92,9.29,44.88"/>
    <path class="cls-1" d="M98.95,450.33c-.52,15.99-1.03,31.98-1.55,47.97"/>
    <path class="cls-1" d="M314.05,450.33c1.55,15.48,3.1,30.95,4.64,46.43"/>
    <path class="cls-1" d="M204.18,407c-.52-12.9-1.03-25.79-1.55-38.69"/>
    <path class="cls-1" d="M250.6,385.33c-7.74,10.32-15.48,20.63-23.21,30.95"/>
    <path class="cls-1" d="M160.85,383.78c7.74,11.86,15.48,23.73,23.21,35.59"/>
    <path class="cls-1" d="M239.77,442.59c11.35-6.19,22.7-12.38,34.05-18.57"/>
    <path class="cls-1" d="M171.68,441.04c-11.35-4.64-22.7-9.29-34.05-13.93"/>
    <path class="cls-1" d="M241.32,471.99c11.35-1.03,22.7-2.06,34.05-3.1"/>
    <path class="cls-1" d="M170.13,473.54c-10.32-2.06-20.63-4.13-30.95-6.19"/>
  </g>
</svg>