<?xml version="1.0" encoding="UTF-8"?>
<svg id="Layer_2" data-name="Layer 2" xmlns="http://www.w3.org/2000/svg" viewBox="0 0 192.82 212.28">
  <defs>
    <style>
      .cls-1, .cls-2 {
        fill: #ffba20;
      }

      .cls-3 {
        fill: none;
      }

      .cls-3, .cls-4, .cls-5, .cls-6, .cls-7, .cls-2 {
        stroke: #000;
        stroke-miterlimit: 10;
      }

      .cls-8, .cls-5 {
        fill: #fff;
      }

      .cls-4 {
        fill: #592d00;
      }

      .cls-7 {
        fill: #fff2db;
      }

      .cls-9 {
        fill: #333;
      }
    </style>
  </defs>
  <g id="Layer_1-2" data-name="Layer 1">
    <g>
      <path class="cls-4" d="M43.73,21.72c-4.51-4.36-8.7-7.64-12-10-5.03-3.6-8.69-5.4-16-9C11.69.73,10.28.23,8.73.72c-1,.31-4.06,1.67-6,13-1.29,7.57-3.2,18.73,2,32,1.43,3.65,4.08,9.19,9,15,2.13-5.56,4.33-9.95,6-13,3.79-6.94,7.64-13.84,15-20,3.53-2.96,6.82-4.87,9-6Z"/>
      <path class="cls-7" d="M30.73,31.72c-.76-2.92-1.99-6.38-4-10C21.51,12.33,13.97,7.16,9.73,4.72c-2.84,7.33-3.72,13.68-4,18-.39,6.17-.85,13.36,3,21,2.44,4.84,5.7,8.08,8,10"/>
      <path class="cls-4" d="M83.73,23.72c4.22-5.69,8.42-9.11,11.36-11.12,1.32-.91,2.52-1.61,3.66-2.29,3.26-1.93,5.55-3.01,12.34-6.09C119.14.57,120.27.12,121.73.72c1.23.5,2.6,1.71,4,6,.76,2.32,3.34,11.11-.94,28.6-.91,3.72-1.45,5.91-2.7,8.93-3.27,7.88-8.03,13.28-11.36,16.47-.93-3.58-2.44-8.1-5-13-1.19-2.29-4.62-8.5-11-15-2.63-2.68-6.26-5.91-11-9Z"/>
      <path class="cls-7" d="M94.73,32.72c1.4-3.39,3.58-7.65,7-12,5.91-7.54,12.69-11.78,17-14,2.02,5,2.72,9.26,3,12,.32,3.18,1.85,18.23-8,29-2.29,2.51-4.58,4.11-6,5"/>
      <path class="cls-4" d="M95.73,199.72c-8.07,1.51-13.79,2.58-16,3,0,0-11.69,2.2-35,3-2.04.07-5.55.15-7-2-1.32-1.95-.5-5.1,1-7,2.12-2.68,5.67-2.89,8-3,4.78-.22,8.26,1.37,10,2,4.26,1.55,11.07,2.08,22-3,2.29,1.01,4.62,2.01,7,3,3.39,1.41,6.72,2.74,10,4Z"/>
      <path class="cls-2" d="M6.73,79.72c-1.61-.88-3-2-3-2-1.3-1.05-2.29-2.12-3-3,1.23-.85,3.02-2.18,5-4,8.62-7.96,10.9-16.36,14-23,1.27-2.71,10.45-21.73,28-28,11.66-4.17,22.45-1.07,26,0,12.92,3.89,26,14.37,32,28,3.32,7.54,3.79,14.51,11,21,3.6,3.25,7.37,5.01,10,6-.98,1.25-2.59,2.94-5,4-2.82,1.24-5.4,1.03-6,1-8.1-.43-31.7,11.14-55,13,0,0-26.35,2.11-54-13Z"/>
      <path class="cls-7" d="M92.73,75.72c.65-1.31,3.18-6.84,1-13-.25-.71-3.2-8.71-9-9-4.71-.23-8.15,4.77-9,6-1.97,2.86-1.68,4.38-4,14-2.07,8.6-3.07,10.55-5,12-3.11,2.33-6.85,2.01-7,2-2.64-.26-4.46-1.6-5-2-6.84-5.04-2.46-15.98-10-26-1.43-1.9-3.71-4.85-7-5-5.07-.24-8.65,6.34-9,7-2.74,5.19-1.45,10.43-1,12-1.43-.56-4.34-1.46-8-1-2.71.34-4.77,1.3-6,2-2.68,1.48-3.64,2.99-7,5-1.64.98-3.07,1.62-4,2,.94,1.5,2.24,3.25,4,5,3.25,3.22,6.65,5.01,9,6h-5c1.15,1.03,2.84,2.46,5,4,15.58,11.13,32.5,11.71,41,12,26.98.92,48.37-10.7,57-16-1.33-.33-2.67-.67-4-1,2.41-1.27,5.14-2.9,8-5,2.78-2.05,5.1-4.11,7-6-1.71.25-4.03.28-6-1-1.06-.69-1.56-1.46-2-2-2.38-2.92-6.59-3.52-10-4-6.27-.89-11.45.91-14,2Z"/>
      <path d="M27.89,73.25c6.29,2.29,12.05,5.9,16.84,10.47-5.01-4.33-10.9-7.59-17.16-9.53l.32-.95h0Z"/>
      <path d="M92.82,76.21c-6.91,1.16-13.53,4.12-19.1,8.51,5.35-4.64,11.9-7.97,18.9-9.49l.19.98h0Z"/>
      <path d="M47.73,92.72c3.34,5.77,11.2,4.31,12.51-2.1,0,0,.75-3.68.75-3.68l.23,3.75c.43,6.74,7.4,7.75,10.65,2.2.38-.68.64-1.41.85-2.17-.16,1.57-.84,3.1-1.91,4.33-2.22,2.56-6.59,3.27-8.83.32-1.09-1.3-1.66-2.96-1.75-4.62l.98.07c-1.37,6.98-10.52,8.7-13.49,1.9h0Z"/>
      <path class="cls-6" d="M54.73,85.72c-.21-.77-.53-1.93,0-3,1.66-3.33,10.34-3.33,12,0,.53,1.07.21,2.23,0,3-.61,2.23-2.72,5-6,5s-5.39-2.77-6-5Z"/>
      <g>
        <path class="cls-1" d="M76.73,20.72c-1.2-.45-2.94-1.12-5-2-5.02-2.14-7.78-3.32-10-5-1.83-1.38-5.1-4.46-7-11-.45.61-2.61,3.71-2,8,.59,4.16,3.38,6.51,4,7-1.44.66-3.18,1.62-5,3-2.27,1.73-3.89,3.55-5,5,.71-.58,2.06-1.52,4-2,2.23-.56,4.09-.23,5,0-.65.26-4.33,1.82-6,6-1.55,3.87-.29,7.27,0,8,1-1.33,2-2.67,3-4,.87-.61,2.22-1.43,4-2,2.84-.91,4.43-.43,7-1,1.53-.34,3.64-1.1,6-3"/>
        <path d="M76.73,20.72c-6.77-2.82-14.92-4.55-19.21-11.04-1.43-2.09-2.44-4.44-3.18-6.85l.72.13c-3.45,4.7-2.22,11.57,2.56,14.87-4.12,1.79-7.77,4.62-10.5,8.18,0,0-.69-.67-.69-.67,2.97-2.48,7.15-2.94,10.74-1.72,0,0-1.27.51-1.27.51-5.19,1.99-7.93,8.29-5.85,13.45,0,0-.6-.08-.6-.08l3.04-3.97c2.52-1.89,5.74-2.71,8.84-2.68,3.06-.06,5.99-1.26,8.39-3.14-2.33,2.01-5.28,3.32-8.37,3.48-2.94,0-6.33,1.15-8.39,2.69,0,0-2.96,4.03-2.96,4.03l-.36.5c-2.73-5.69.04-12.81,5.92-15.12,0,0,.06.86.06.86-2.96-.75-6.24,0-8.59,1.94l-3.16,2.61,2.47-3.29c2.64-3.51,6.19-6.32,10.19-8.14l-.1.8c-4.96-3.9-5.63-11.51-1.54-16.28,3.16,12.64,11.25,14.2,21.84,18.91h0Z"/>
      </g>
      <path d="M52.31,33.45c1.82-2.55,3.99-4.82,6.42-6.73-2.21,2.16-4.09,4.62-5.58,7.27l-.84-.54h0Z"/>
      <path class="cls-2" d="M92.73,102.72c.92,2.7,2.63,6.53,6,10,1.88,1.94,3.55,3,5,4,0,0,3.09,2.12,13,11,6.62,5.93,24.23,28.07,21,53-.37,2.82-2.35,18.15-11,21-3.09,1.02-6.83.37-9,0-5.57-.96-9.66-3.36-12-5-4.32,1.12-10.89,2.13-18,0-7.76-2.32-8.54-6.1-15-7-9.64-1.35-13.05,6.34-21,4-6.81-2-10.24-9.38-11-11-2.49-5.33-2.15-10.18-2-12,.38-4.6,1.94-8.06,3-10-2.11-5.3-4.52-13.2-5-23-.65-13.37,2.61-23.96,5-30,6.27,1.03,14.47,1.76,24,1,11.23-.89,20.43-3.54,27-6Z"/>
      <path class="cls-2" d="M41.73,160.72c2.03,6.47,3.17,9.33,5,15,1.66,5.14,3.88,12.62,6,22-.81.16-3.3.75-5,3-1.49,1.97-2.47,5.33-1,7,1.01,1.15,2.83,1.08,5,1,0,0,2.74-.1,5-1,6.28-2.5,18.06-24.17,10-36-2.75-4.03-4.17-2.32-9-8-7.07-8.3-6.43-15.19-13-19-2.89-1.67-5.88-2-8-2,1,4.14,2.62,10.42,5,18Z"/>
      <path class="cls-4" d="M47.73,179.72c1.33-2.33,2.67-4.67,4-7,1.67,2,3.33,4,5,6,.67-2,1.33-4,2-6,3.53,2.96,5.19,6.04,6,8,4.73,11.38-2.52,24.64-8,27-1.79.77-4,1-4,1-2.15.22-4.73.49-6-1-1.48-1.75-.45-5.08,1-7,1.72-2.27,4.23-2.85,5-3-1.67-6-3.33-12-5-18Z"/>
      <path d="M105.5,197.17c-3.14-1.62-5.94-3.86-8.19-6.57-2.25-2.71-3.92-5.89-4.9-9.26-1-3.37-1.28-6.94-.83-10.41.24-1.74.63-3.44,1.14-5.11.55-1.66,1.19-3.28,2-4.84.83-1.54,1.75-3.03,2.88-4.37,1.13-1.33,2.43-2.53,3.92-3.47,1.49-.95,3.21-1.48,4.95-1.66,1.77-.14,3.51.29,5.14.88,3.25,1.21,6.45,2.61,9.33,4.55,2.9,1.91,5.52,4.21,7.81,6.81-2.32-2.57-4.96-4.84-7.87-6.71-2.89-1.9-6.1-3.25-9.34-4.42-1.62-.56-3.32-.96-5.03-.8-1.69.2-3.35.73-4.78,1.67-1.44.93-2.69,2.11-3.78,3.43-1.09,1.33-1.98,2.8-2.77,4.32-.77,1.53-1.39,3.14-1.9,4.77-.47,1.65-.84,3.33-1.05,5.02-.4,3.4-.08,6.86.93,10.12,1,3.26,2.65,6.32,4.85,8.91,2.21,2.59,4.94,4.72,7.97,6.24l-.45.89Z"/>
      <g>
        <path class="cls-1" d="M92.73,147.72c-1.28,9.85-3.25,17.98-5,24-5.12,17.62-7.54,14.45-12,29-.74,2.42-2.1,7.16-6,9-2,.94-4.32.97-7,1-3.85.04-4.74-.75-5-1-1.66-1.62-1.1-4.5-1-5,.53-2.72,2.43-4.45,3-5,2.7-2.64,3.51-7.13,5-16,2.32-13.79,2.88-29.21,3-33"/>
        <path d="M92.73,147.72c-1.38,11.66-3.82,23.29-8.13,34.24-1.12,2.74-2.58,5.34-3.99,7.88-2.11,3.85-3.53,7.99-4.79,12.19-1.18,4.34-4.3,8.78-9.18,9.01-2.94.11-6.33.68-9-.79-2.47-2.26-1.66-6.28-.01-8.77.78-1.26,2.05-2.14,2.85-3.35,2.29-3.69,2.66-8.24,3.55-12.45,2.12-11.54,3.1-23.26,3.72-34.97-.21,11.74-1.01,23.49-2.97,35.1-.81,4.32-1.19,8.96-3.57,12.81-.81,1.26-2.05,2.11-2.83,3.36-1.39,2.06-2.12,5.69-.17,7.5,1.07.68,2.68.7,3.98.74,4.38.11,8.77-.24,11.04-4.54,1.46-2.44,2.06-5.35,3.06-8.13,1.74-5.65,5.23-10.55,7.61-15.89,4.45-10.84,7.05-22.38,8.84-33.94h0Z"/>
      </g>
      <path class="cls-7" d="M37.73,106.72c-3.09,1.65-4.91,3.55-6,5-2.32,3.08-2.37,5.45-5,8-1.73,1.68-3.65,2.54-5,3,.78.4,2.61,1.21,5,1,3.4-.3,5.49-2.44,6-3-1.29,1.76-3.15,4.81-4,9-1.46,7.19,1.01,12.97,2,15,.47-1.49,1.11-3.18,2-5,.98-1.98,2.03-3.65,3-5-.11,2.22-.01,6.37,2,11,2.39,5.49,6.17,8.66,8,10-.41-1.38-.79-3.06-1-5-.25-2.33-.17-4.37,0-6,.96,3.15,2.49,6.99,5,11,5.5,8.78,12.76,13.63,17,16,1.29-2.87,1.79-5.31,2-7,.93-7.36-1.94-12.87,1-16,.42-.45.95-.84,2-2,1.44-1.59,2.41-3.05,3-4,1.12-.24,2.12-.59,3-1,9.21-4.29,10.75-17.51,11-20,.74,4.07,1.46,4.98,2,5,1.37.06,2.67-5.56,3-7,.94-4.09,1.06-7.59,1-10,.65.37,2.09,1.05,4,1,2.69-.07,4.49-1.55,5-2-1.05-.16-3.01-.59-5-2-2.47-1.75-3.58-4-4-5-6.6,2.75-16.54,6.03-29,7-11.59.91-21.28-.49-28-2Z"/>
      <path d="M67.73,137.72c.01,5.28-.05,11.09-3.08,15.65-.67.81-1.51,1.45-2.05,2.37-1.1,1.7-1.27,3.9-.87,5.98-.4-.99-.61-2.07-.62-3.16.02-1.65.67-3.33,1.76-4.59,1.12-1.09,1.87-2.38,2.37-3.88,1.38-3.96,1.82-8.22,2.48-12.37h0Z"/>
      <path d="M74.3,142.46c2.56-3.83,4.42-8.17,5.43-12.74-.68,4.62-2.23,9.15-4.57,13.26l-.85-.52h0Z"/>
      <path class="cls-2" d="M134.73,155.72c.08-4.34.65-10.72,3-18,1.44-4.44,6.34-18.91,21-30,13.52-10.23,27.55-11.71,33-12-2.67,3.91-6.06,10.07-7,18-1.3,11.04,3.48,14.32,6,30,1.5,9.33,3.61,23.67-4,36-2.64,4.27-5.75,7.19-8,9,2.33-1,4.67-2,7-3-1.05,2.31-3.37,6.54-8,10-7.5,5.61-15.73,5.19-18,5,.1.65.34,1.46,1,2,1.72,1.4,4.93-.2,5,0,.09.25-4.62,3.51-11,4-5.95.46-10.66-1.7-13-3,1,1.33,2,2.67,3,4-1,.22-4.39.82-8-1-4.3-2.17-5.73-6.19-6-7,1.48-2.23,3.45-5.6,5-10,.77-2.17,3.78-11.23,2-23-.7-4.59-1.93-8.33-3-11Z"/>
      <path class="cls-7" d="M137.73,138.72c2.33-2.67,4.67-5.33,7-8-.75,1.77-1.56,4.14-2,7-.57,3.67-.34,6.8,0,9,.36-2.01,1.14-4.93,3-8,3.26-5.38,7.87-7.97,10-9-.83,1.97-1.85,5.08-2,9-.19,4.97,1.1,8.85,2,11,.98-1.18,1.99-2.51,3-4,1.19-1.75,2.18-3.44,3-5v8c1.25-1.16,2.72-2.8,4-5,2.83-4.86,3.06-9.61,3-12,1.18,3.4,2.28,7.42,3,12,1.39,8.81.87,16.42,0,22,1.67-2.95,3.47-6.63,5-11,1.57-4.49,2.47-8.59,3-12,1.07,2.07,2.52,5.51,3,10,.51,4.81-.32,8.71-1,11,1.79-1.92,4.14-4.9,6-9,2.4-5.28,2.92-10.06,3-13-1.18-3.05-2.71-7.49-4-13-1.65-7.09-2.69-11.53-2-17,.4-3.16,1.7-9.28,7-16-5.39.39-21.53,2.28-36,15-11.81,10.38-16.34,22.58-18,28Z"/>
      <path class="cls-4" d="M105.73,196.72c-1.47-.46-4.58-1.18-8,0-4.34,1.5-8.85,5.94-8,10,.49,2.33,2.58,3.73,3,4,1.35.86,2.95,1.22,6,1,3.84-.28,5.97-1.18,9-2,2.82-.77,7.55-1.51,17-3,2.26-.36,4.69-.72,5-2,.26-1.06-1.08-2.29-2-3"/>
      <path class="cls-4" d="M65.73,176.72c2-2.67,4-5.33,6-8l3,9c2.33-2.33,4.67-4.67,7-7,1,3.33,2,6.67,3,10-2.35,4.05-3.94,7.49-5,10-1.34,3.19-2.52,6.59-3,8-.82,2.4-.67,2.18-1,3-1.04,2.55-2.52,6.2-6,8-2.05,1.06-3.94,1.04-7,1-2.66-.03-3.99-.05-5-1-1.91-1.79-1.53-5.65,0-8,.66-1.01,1.3-1.39,2-2,.94-.82,3.1-3.03,5-15,.32-2.02.7-4.74,1-8Z"/>
      <path class="cls-3" d="M88.73,167.72l3,3"/>
      <path d="M47.25,208.85c-.24-1.19-.11-2.43.34-3.51.45-1.08,1.22-1.99,2.15-2.62-.82.76-1.41,1.74-1.67,2.78-.26,1.04-.19,2.13.15,3.09l-.97.26Z"/>
      <path d="M51.25,208.85c-.35-1.89.26-3.85,1.48-5.13-.97,1.5-1.11,3.36-.52,4.87l-.97.26h0Z"/>
      <path d="M58.27,210.93c-.96-2.33.09-5.3,2.45-6.21-1,.61-1.75,1.58-1.99,2.66-.27,1.07-.05,2.22.45,3.13l-.91.42h0Z"/>
      <path d="M61.27,210.93c-1.02-2.4.88-5.31,3.45-5.21-1.14.16-2.15.87-2.62,1.83-.49.95-.4,2.1.08,2.96l-.91.42h0Z"/>
      <path d="M37.23,203.78c-.28-3.03,2.68-5.54,5.5-4.06-.62-.21-1.28-.28-1.91-.17-1.9.27-2.99,2.38-2.59,4.11,0,0-.99.12-.99.12h0Z"/>
      <path d="M40.31,206c-1.45-2.36.91-5.31,3.41-4.28-2.21-.6-4.03,2.01-2.59,3.72,0,0-.83.56-.83.56h0Z"/>
      <path d="M97.34,212.03c-2.42-3.22.46-7.75,4.39-6.31-.79-.2-1.63-.17-2.37.11-2.31.77-2.85,3.9-1.24,5.58,0,0-.78.63-.78.63h0Z"/>
      <path d="M92.31,210.99c-2-3.36.55-7.59,4.42-7.27-.83.04-1.64.27-2.34.68-2.13,1.15-2.65,4.21-1.24,6.05,0,0-.84.54-.84.54h0Z"/>
      <circle class="cls-5" cx="83.65" cy="65.65" r="11.58"/>
      <circle class="cls-9" cx="83.99" cy="65.4" r="8.91"/>
      <circle cx="83.34" cy="65.5" r="5.4"/>
      <circle class="cls-8" cx="89.1" cy="60.14" r="3.65"/>
      <circle class="cls-5" cx="37.89" cy="65.41" r="11.58"/>
      <circle class="cls-9" cx="38.23" cy="65.16" r="8.91"/>
      <circle cx="37.58" cy="65.26" r="5.4"/>
      <circle class="cls-8" cx="43.34" cy="59.89" r="3.65"/>
    </g>
  </g>
</svg>