<?xml version="1.0" encoding="UTF-8"?>
<svg id="Layer_2" data-name="Layer 2" xmlns="http://www.w3.org/2000/svg" viewBox="0 0 191.5 211.28">
  <defs>
    <style>
      .cls-1 {
        fill: #ffba20;
      }

      .cls-2 {
        fill: #fff;
      }

      .cls-3 {
        fill: none;
      }

      .cls-4 {
        fill: #592d00;
      }

      .cls-5 {
        fill: #eda21a;
      }

      .cls-6 {
        fill: #333;
      }

      .cls-7 {
        fill: #fff2db;
      }
    </style>
  </defs>
  <g id="Layer_1-2" data-name="Layer 1">
    <g>
      <path class="cls-4" d="M43,21.22c-4.51-4.36-8.7-7.64-12-10-5.03-3.6-8.69-5.4-16-9C10.96.23,9.55-.27,8,.22c-1,.31-4.06,1.67-6,13-1.29,7.57-3.2,18.73,2,32,1.43,3.65,4.08,9.19,9,15,2.13-5.56,4.33-9.95,6-13,3.79-6.94,7.64-13.84,15-20,3.53-2.96,6.82-4.87,9-6Z"/>
      <path class="cls-7" d="M30,31.22c-.76-2.92-1.99-6.38-4-10C20.78,11.83,13.24,6.66,9,4.22c-2.84,7.33-3.72,13.68-4,18-.39,6.17-.85,13.36,3,21,2.44,4.84,5.7,8.08,8,10"/>
      <path class="cls-4" d="M83,23.22c4.22-5.69,8.42-9.11,11.36-11.12,1.32-.91,2.52-1.61,3.66-2.29,3.26-1.93,5.55-3.01,12.34-6.09C118.41.07,119.54-.38,121,.22c1.23.5,2.6,1.71,4,6,.76,2.32,3.34,11.11-.94,28.6-.91,3.72-1.45,5.91-2.7,8.93-3.27,7.88-8.03,13.28-11.36,16.47-.93-3.58-2.44-8.1-5-13-1.19-2.29-4.62-8.5-11-15-2.63-2.68-6.26-5.91-11-9Z"/>
      <path class="cls-7" d="M94,32.22c1.4-3.39,3.58-7.65,7-12,5.91-7.54,12.69-11.78,17-14,2.02,5,2.72,9.26,3,12,.32,3.18,1.85,18.23-8,29-2.29,2.51-4.58,4.11-6,5"/>
      <path class="cls-4" d="M95,199.22c-8.07,1.51-13.79,2.58-16,3,0,0-11.69,2.2-35,3-2.04.07-5.55.15-7-2-1.32-1.95-.5-5.1,1-7,2.12-2.68,5.67-2.89,8-3,4.78-.22,8.26,1.37,10,2,4.26,1.55,11.07,2.08,22-3,2.29,1.01,4.62,2.01,7,3,3.39,1.41,6.72,2.74,10,4Z"/>
      <path class="cls-1" d="M6,79.22c-1.61-.88-3-2-3-2-1.3-1.05-2.29-2.12-3-3,1.23-.85,3.02-2.18,5-4,8.62-7.96,10.9-16.36,14-23,1.27-2.71,10.45-21.73,28-28,11.66-4.17,22.45-1.07,26,0,12.92,3.89,26,14.37,32,28,3.32,7.54,3.79,14.51,11,21,3.6,3.25,7.37,5.01,10,6-.98,1.25-2.59,2.94-5,4-2.82,1.24-5.4,1.03-6,1-8.1-.43-31.7,11.14-55,13,0,0-26.35,2.11-54-13Z"/>
      <path class="cls-7" d="M92,75.22c.65-1.31,3.18-6.84,1-13-.25-.71-3.2-8.71-9-9-4.71-.23-8.15,4.77-9,6-1.97,2.86-1.68,4.38-4,14-2.07,8.6-3.07,10.55-5,12-3.11,2.33-6.85,2.01-7,2-2.64-.26-4.46-1.6-5-2-6.84-5.04-2.46-15.98-10-26-1.43-1.9-3.71-4.85-7-5-5.07-.24-8.65,6.34-9,7-2.74,5.19-1.45,10.43-1,12-1.43-.56-4.34-1.46-8-1-2.71.34-4.77,1.3-6,2-2.68,1.48-3.64,2.99-7,5-1.64.98-3.07,1.62-4,2,.94,1.5,2.24,3.25,4,5,3.25,3.22,6.65,5.01,9,6h-5c1.15,1.03,2.84,2.46,5,4,15.58,11.13,32.5,11.71,41,12,26.98.92,48.37-10.7,57-16-1.33-.33-2.67-.67-4-1,2.41-1.27,5.14-2.9,8-5,2.78-2.05,5.1-4.11,7-6-1.71.25-4.03.28-6-1-1.06-.69-1.56-1.46-2-2-2.38-2.92-6.59-3.52-10-4-6.27-.89-11.45.91-14,2Z"/>
      <path class="cls-3" d="M27,73.22c2.12.72,4.49,1.68,7,3,4.26,2.24,7.57,4.79,10,7"/>
      <path class="cls-3" d="M92,75.22c-2.1.41-4.47,1.03-7,2-5.27,2.01-9.26,4.74-12,7"/>
      <path d="M47,92.22c3.21,6.15,11.57,4.62,12.88-2.02,0,0,.19-.89.19-.89l.06.91c.65,8.6,10.34,7.55,11.88,0-.26,1.55-.95,3.04-2.05,4.19-4.2,4.27-9.79,1.51-10.07-4.19,0,0,.24.02.24.02-1.37,6.74-9.99,8.38-13.12,1.98h0Z"/>
      <path d="M54,85.22c-.21-.77-.53-1.93,0-3,1.66-3.33,10.34-3.33,12,0,.53,1.07.21,2.23,0,3-.61,2.23-2.72,5-6,5s-5.39-2.77-6-5Z"/>
      <path class="cls-1" d="M76,20.22c-1.2-.45-2.94-1.12-5-2-5.02-2.14-7.78-3.32-10-5-1.83-1.38-5.1-4.46-7-11-.45.61-2.61,3.71-2,8,.59,4.16,3.38,6.51,4,7-1.44.66-3.18,1.62-5,3-2.27,1.73-3.89,3.55-5,5,.71-.58,2.06-1.52,4-2,2.23-.56,4.09-.23,5,0-.65.26-4.33,1.82-6,6-1.55,3.87-.29,7.27,0,8,1-1.33,2-2.67,3-4,.87-.61,2.22-1.43,4-2,2.84-.91,4.43-.43,7-1,1.53-.34,3.64-1.1,6-3"/>
      <path class="cls-3" d="M52,33.22c.78-1.22,1.76-2.59,3-4,1.03-1.18,2.05-2.17,3-3"/>
      <path class="cls-1" d="M92,102.22c.92,2.7,2.63,6.53,6,10,1.88,1.94,3.55,3,5,4,0,0,3.09,2.12,13,11,6.62,5.93,24.23,28.07,21,53-.37,2.82-2.35,18.15-11,21-3.09,1.02-6.83.37-9,0-5.57-.96-9.66-3.36-12-5-4.32,1.12-10.89,2.13-18,0-7.76-2.32-8.54-6.1-15-7-9.64-1.35-13.05,6.34-21,4-6.81-2-10.24-9.38-11-11-2.49-5.33-2.15-10.18-2-12,.38-4.6,1.94-8.06,3-10-2.11-5.3-4.52-13.2-5-23-.65-13.37,2.61-23.96,5-30,6.27,1.03,14.47,1.76,24,1,11.23-.89,20.43-3.54,27-6Z"/>
      <path class="cls-1" d="M41,160.22c2.03,6.47,3.17,9.33,5,15,1.66,5.14,3.88,12.62,6,22-.81.16-3.3.75-5,3-1.49,1.97-2.47,5.33-1,7,1.01,1.15,2.83,1.08,5,1,0,0,2.74-.1,5-1,6.28-2.5,18.06-24.17,10-36-2.75-4.03-4.17-2.32-9-8-7.07-8.3-6.43-15.19-13-19-2.89-1.67-5.88-2-8-2,1,4.14,2.62,10.42,5,18Z"/>
      <path class="cls-4" d="M47,179.22c1.33-2.33,2.67-4.67,4-7,1.67,2,3.33,4,5,6,.67-2,1.33-4,2-6,3.53,2.96,5.19,6.04,6,8,4.73,11.38-2.52,24.64-8,27-1.79.77-4,1-4,1-2.15.22-4.73.49-6-1-1.48-1.75-.45-5.08,1-7,1.72-2.27,4.23-2.85,5-3-1.67-6-3.33-12-5-18Z"/>
      <path class="cls-5" d="M105,196.22c-9.63-4.39-15.67-15.3-14.29-25.81,1.14-8.27,5.74-18.53,15-19.71,1.82-.16,3.61.3,5.24.91,6.55,2.33,12.62,6.21,17.05,11.61-4.72-5.08-10.74-8.72-17.3-10.88-1.61-.54-3.27-.92-4.92-.77-7.01.81-11.04,7.86-13.07,13.97-3.96,11.55,1.41,25.01,12.29,30.68h0Z"/>
      <path class="cls-1" d="M92,147.22c-1.28,9.85-3.25,17.98-5,24-5.12,17.62-7.54,14.45-12,29-.74,2.42-2.1,7.16-6,9-2,.94-4.32.97-7,1-3.85.04-4.74-.75-5-1-1.66-1.62-1.1-4.5-1-5,.53-2.72,2.43-4.45,3-5,2.7-2.64,3.51-7.13,5-16,2.32-13.79,2.88-29.21,3-33"/>
      <path class="cls-7" d="M37,106.22c-3.09,1.65-4.91,3.55-6,5-2.32,3.08-2.37,5.45-5,8-1.73,1.68-3.65,2.54-5,3,.78.4,2.61,1.21,5,1,3.4-.3,5.49-2.44,6-3-1.29,1.76-3.15,4.81-4,9-1.46,7.19,1.01,12.97,2,15,.47-1.49,1.11-3.18,2-5,.98-1.98,2.03-3.65,3-5-.11,2.22-.01,6.37,2,11,2.39,5.49,6.17,8.66,8,10-.41-1.38-.79-3.06-1-5-.25-2.33-.17-4.37,0-6,.96,3.15,2.49,6.99,5,11,5.5,8.78,12.76,13.63,17,16,1.29-2.87,1.79-5.31,2-7,.93-7.36-1.94-12.87,1-16,.42-.45.95-.84,2-2,1.44-1.59,2.41-3.05,3-4,1.12-.24,2.12-.59,3-1,9.21-4.29,10.75-17.51,11-20,.74,4.07,1.46,4.98,2,5,1.37.06,2.67-5.56,3-7,.94-4.09,1.06-7.59,1-10,.65.37,2.09,1.05,4,1,2.69-.07,4.49-1.55,5-2-1.05-.16-3.01-.59-5-2-2.47-1.75-3.58-4-4-5-6.6,2.75-16.54,6.03-29,7-11.59.91-21.28-.49-28-2Z"/>
      <path class="cls-3" d="M67,137.22c-.59,10.36-2.35,14.38-4,16-.31.3-1.41,1.31-2,3-.66,1.9-.36,3.74,0,5"/>
      <path class="cls-3" d="M74,142.22c.99-1.61,2.06-3.61,3-6,1.03-2.62,1.63-5.01,2-7"/>
      <path class="cls-1" d="M134,155.22c.08-4.34.65-10.72,3-18,1.44-4.44,6.34-18.91,21-30,13.52-10.23,27.55-11.71,33-12-2.67,3.91-6.06,10.07-7,18-1.3,11.04,3.48,14.32,6,30,1.5,9.33,3.61,23.67-4,36-2.64,4.27-5.75,7.19-8,9,2.33-1,4.67-2,7-3-1.05,2.31-3.37,6.54-8,10-7.5,5.61-15.73,5.19-18,5,.1.65.34,1.46,1,2,1.72,1.4,4.93-.2,5,0,.09.25-4.62,3.51-11,4-5.95.46-10.66-1.7-13-3,1,1.33,2,2.67,3,4-1,.22-4.39.82-8-1-4.3-2.17-5.73-6.19-6-7,1.48-2.23,3.45-5.6,5-10,.77-2.17,3.78-11.23,2-23-.7-4.59-1.93-8.33-3-11Z"/>
      <path class="cls-7" d="M137,137.41c2.35-2.65,4.71-5.3,7.06-7.94-.76,1.76-1.57,4.11-2.02,6.95-.57,3.65-.34,6.75,0,8.94.36-2,1.15-4.9,3.03-7.94,3.29-5.34,7.94-7.92,10.09-8.94-.83,1.95-1.87,5.04-2.02,8.94-.19,4.93,1.11,8.79,2.02,10.92.99-1.17,2.01-2.5,3.03-3.97,1.2-1.74,2.2-3.42,3.03-4.96v7.94c1.26-1.16,2.75-2.78,4.04-4.96,2.86-4.82,3.09-9.54,3.03-11.91,1.19,3.38,2.3,7.37,3.03,11.91,1.4,8.74.88,16.3,0,21.84,1.69-2.93,3.5-6.58,5.05-10.92,1.59-4.46,2.5-8.52,3.03-11.91,1.08,2.05,2.55,5.47,3.03,9.93.52,4.78-.33,8.65-1.01,10.92,1.8-1.91,4.18-4.86,6.06-8.94,2.42-5.25,2.94-9.99,3.03-12.91-1.19-3.03-2.74-7.44-4.04-12.91-1.67-7.04-2.71-11.44-2.02-16.88.4-3.13,1.72-9.21,7.06-15.89-5.44.39-21.73,2.26-36.33,14.89-11.92,10.31-16.49,22.42-18.17,27.8Z"/>
      <path class="cls-4" d="M105,196.22c-1.47-.46-4.58-1.18-8,0-4.34,1.5-8.85,5.94-8,10,.49,2.33,2.58,3.73,3,4,1.35.86,2.95,1.22,6,1,3.84-.28,5.97-1.18,9-2,2.82-.77,7.55-1.51,17-3,2.26-.36,4.69-.72,5-2,.26-1.06-1.08-2.29-2-3"/>
      <path class="cls-4" d="M65,176.22c2-2.67,4-5.33,6-8l3,9c2.33-2.33,4.67-4.67,7-7,1,3.33,2,6.67,3,10-2.35,4.05-3.94,7.49-5,10-1.34,3.19-2.52,6.59-3,8-.82,2.4-.67,2.18-1,3-1.04,2.55-2.52,6.2-6,8-2.05,1.06-3.94,1.04-7,1-2.66-.03-3.99-.05-5-1-1.91-1.79-1.53-5.65,0-8,.66-1.01,1.3-1.39,2-2,.94-.82,3.1-3.03,5-15,.32-2.02.7-4.74,1-8Z"/>
      <path class="cls-3" d="M88,167.22l3,3"/>
      <path class="cls-3" d="M47,208.22c-.14-.52-.37-1.65,0-3,.47-1.71,1.59-2.68,2-3"/>
      <path class="cls-3" d="M51,208.22c-.14-.53-.36-1.66,0-3,.25-.93.69-1.6,1-2"/>
      <path class="cls-3" d="M58,210.22c-.12-.26-.94-2.1,0-4,.6-1.22,1.61-1.8,2-2"/>
      <path class="cls-3" d="M61,210.22c-.09-.2-.69-1.56,0-3,.54-1.14,1.7-1.91,3-2"/>
      <path class="cls-3" d="M37,203.22c-.21-1.73.62-3.34,2-4,1.39-.66,2.76-.1,3,0"/>
      <path class="cls-3" d="M40,205.22c-.62-.91-.62-2.11,0-3,.66-.95,1.88-1.36,3-1"/>
      <path class="cls-3" d="M97,211.22c-1.23-1.54-1.19-3.68,0-5,.96-1.07,2.53-1.46,4-1"/>
      <path class="cls-3" d="M92,210.22c-.99-1.55-.99-3.52,0-5,1.37-2.07,3.87-2.01,4-2"/>
      <circle class="cls-2" cx="82.92" cy="65.15" r="11.58"/>
      <circle class="cls-6" cx="83.26" cy="64.9" r="8.91"/>
      <circle cx="82.61" cy="65" r="5.4"/>
      <circle class="cls-2" cx="88.37" cy="59.64" r="3.65"/>
      <circle class="cls-2" cx="37.16" cy="64.91" r="11.58"/>
      <circle class="cls-6" cx="37.5" cy="64.66" r="8.91"/>
      <circle cx="36.85" cy="64.76" r="5.4"/>
      <circle class="cls-2" cx="42.61" cy="59.39" r="3.65"/>
    </g>
  </g>
</svg>