<?xml version="1.0" encoding="UTF-8"?>
<svg id="Layer_2" data-name="Layer 2" xmlns="http://www.w3.org/2000/svg" viewBox="0 0 236.91 169.38">
  <defs>
    <style>
      .cls-1, .cls-2 {
        stroke: #000;
        stroke-miterlimit: 10;
      }

      .cls-1, .cls-3 {
        fill: #e92c00;
      }

      .cls-4, .cls-2 {
        fill: #fff;
      }

      .cls-5 {
        fill: #333;
      }
    </style>
  </defs>
  <g id="Layer_1-2" data-name="Layer 1">
    <g>
      <path class="cls-1" d="M151.2,50.68c5.33-3.67,10.67-7.33,16-11,1.28-6.52,4.09-14.7,11-20,15.56-11.94,39.87-5.94,40-4,.06.88-4.85,2.53-9,3-3.87.44-5.44-.34-7,1-2.43,2.08-.9,5.9-3,7-2.09,1.1-5.31-1.81-6-1-.71.84,2.9,3.87,2,6-.71,1.68-3.4.88-5,3-1.29,1.7-1.35,4.62,0,6,1.8,1.84,5.65.48,7,0,9.26-3.28,12.57-13.6,14-13,.98.41.5,5.75-2,11-3.72,7.8-12.37,16.38-23,16-3.4-.12-6.15-1.13-8-2-3.33,2.33-6.67,4.67-10,7-5.67-3-11.33-6-17-9Z"/>
      <path class="cls-1" d="M84.2,109.68c.88,1.2-.82,3.1-2,7,0,0-.92,3.06-1,8-.11,7.38,3.94,14.02,6,17-5.51-1.61-8.09-4.74-9-6-2.95-4.08-2.64-8.39-2-17,.49-6.6,1.74-8.22,3-9,1.67-1.03,4.2-1.09,5,0Z"/>
      <path class="cls-1" d="M89.2,108.68c-.88.69,1.21,3.15,2,8,.49,2.99,0,6.66-1,14-.67,4.97-1.1,6.75,0,9,1.29,2.62,4.02,4.57,5,4,1.05-.62-.86-3.62-1-9-.13-4.97,1.42-5.61,2-13,.48-6.08-.38-7.98-1-9-1.73-2.86-5.08-4.72-6-4Z"/>
      <path class="cls-1" d="M150.2,89.68c3.2-2.3,6.69-5.22,8-10,.89-3.25.46-6.17,0-8,2.07-.61,5.02-1.76,8-4,5.51-4.14,8.8-10.27,8-11-.77-.71-5.42,3.61-6,3-.77-.81,7.02-8.82,6-10-.91-1.05-8.04,4.14-9,3-.68-.81,2.7-3.68,2-5-1.05-2-9.81,2.49-23,5-12.13,2.31-18.76,1.19-26,7-1.87,1.5-3.19,2.99-4,4-2.08-.25-4.44-.31-7,0-11.12,1.36-18.35,8.91-21,12-.98.05-2.43.25-4,1-3.08,1.47-4.52,4.04-5,5-.45-.19-3.07-1.25-6,0-2.71,1.16-3.78,3.49-4,4-.9-.3-3.71-1.12-7,0-3.79,1.29-5.58,4.25-6,5-.18-.17-3.6-3.24-8-2-3.16.89-5.53,3.65-6,7-1.35.16-6.16.87-10,5-2.88,3.09-3.72,6.51-4,8-6.17,1.09-10.51,3.4-13,5-3.34,2.14-11.16,7.15-11,14,.04,1.72.57,3.11,1,4-3.44,3.45-3.39,8.56-1,11,2.68,2.74,8.73,2.56,12-2,4.47,7.86,7.98,8.05,9,8,6.73-.34,10.81-16.34,12-21,1.48-5.79,1.89-10.73,2-14,.72,2.99,3.28,5.04,6,5,3.11-.05,4.88-2.8,5-3,1.94,2.76,5.24,3.94,8,3,2.74-.93,3.83-3.57,4-4,.71.31,5.17,2.19,10,0,3.91-1.77,5.58-5.09,6-6,3.67,1,7.33,2,11,3,0,0,4.46,1.3,13,1,8.86-.31,11.65-4.66,28-12,8.95-4.02,14.36-5.52,22-11Z"/>
      <path class="cls-1" d="M150.2,89.68c3.46.05,3.8,2.97,9,5,5.28,2.06,7.95.24,13,3,1.84,1.01,3.17,2.17,4,3,0-2.14.29-5.51,2-9,8.48-17.29,41.87-16.71,42-16,.07.39-9.92.35-18,8-5.88,5.57-8.31,12.91-7,14,1.17.98,4.89-3.39,9-2,2,.68,2.43,2.16,4,2,2.33-.24,2.62-3.63,5-4,2.21-.34,3.21,2.4,5,2,2.55-.57,1.67-6.35,5-8,2.57-1.27,4.74,1.35,7,0,2.97-1.77,1.83-7.82,3-8,.87-.13,2.48,3.1,3,6,2.1,11.59-11.82,24.64-22,31-6.69,4.18-15,9.38-25,7-6.45-1.54-10.79-5.56-13-8-2.76-.33-5.8-.94-9-2-13.25-4.39-21.27-13.81-25-19,1.89-2.38,4.67-5.05,8-5Z"/>
      <path class="cls-1" d="M127.2,97.68c1.12-.47,2.47,2.28,6,5,4.74,3.66,6.98,2.3,11,5,5.66,3.8,9.26,11.89,7,17-1.13,2.56-3.82,4.54-5,4-1.28-.59.07-3.73-1-8-1.25-4.98-4.93-8.09-6-9-5.37-4.54-9.73-2.94-12-7-1.56-2.78-1.17-6.52,0-7Z"/>
      <path class="cls-1" d="M104.2,112.68c-.65,1.52,5.38,3.39,8,9,3.23,6.92-1,14.67,0,15,.7.23,3.23-3.44,4-8,.97-5.74-.72-13.6-6-16-2.43-1.11-5.56-1.03-6,0Z"/>
      <path class="cls-1" d="M126.2,117.68c.31,1.39.21,3.61,0,8-.22,4.58-.46,5.83,0,6,.78.28,3.12-2.59,4-6,.26-1,.87-3.93-2-12-.4-1.12-3.68-10.34-5-10-.79.21-.81,3.88,0,7,.94,3.61,2.26,3.71,3,7Z"/>
      <path class="cls-1" d="M117.2,99.68c1.13-.59,3.38,1.53,6,4,3,2.82,4.32,4.92,6,7,4.64,5.77,6.36,4.49,10,9,1.16,1.44,7.07,8.78,5,17-1.01,4-3.53,6.67-5,8,.35-2.1.64-5.27,0-9-.51-3.01-2.1-9.1-7-14-5.1-5.09-8.2-3.31-12-8-4.3-5.31-4.77-13.08-3-14Z"/>
      <path class="cls-1" d="M104.2,103.68c.95-.67,3.51,4.48,12,10,5.56,3.62,9.46,4.66,10,8,.33,2.04-.92,2.96-2,6-1.54,4.31-.7,7.17,0,14,.15,1.44,1.76,17.6,0,18-1.09.25-3.67-5.55-5-11-2.43-9.98-.62-18.72,1-24-1.65-.85-3.79-2.12-6-4-7.67-6.53-11.26-16.11-10-17Z"/>
      <path class="cls-1" d="M94.2,106.68c1.56-.88,10.14,11.02,13,15,1.03,1.43,5,7,5,7h0s-1.62,12.65-5,39c-1.51-3.05-3.1-7.09-4-12-1.95-10.62.39-19.4,2-24-1.63-2.29-3.84-5.67-6-10-2.84-5.69-6.24-14.3-5-15Z"/>
      <path d="M174.2,56.18c6.51.02,23.03.07,29.31.09,3.25.07,6.46-.23,9.75-.39,4.18-.36,6.83,1.68,6.06,6.08-.55,3.31-1.96,6.31-3.4,9.23-6.02,11.59-13.59,22.34-22.26,32.07-9.59,10.18-15.95,19.71-17.69,33.93-.85,6.46-.62,13.02.24,19.47-.9-6.45-1.17-13.01-.36-19.49,1.65-14.29,7.98-23.9,17.53-34.16,8.58-9.76,16.07-20.54,21.99-32.11,1.41-2.9,2.78-5.9,3.28-9.05.64-3.97-1.53-5.56-5.35-5.24-3.22.17-6.5.5-9.77.45-6.22.02-22.88.07-29.31.09,0,0,0-1,0-1h0Z"/>
      <path d="M171.2,50.18c12.74.25,25.77-7.87,28.99-20.58,2.55-9.8.44-23.13-9.5-27.94-9.24-3.77-21.82,3.6-30.51,7.05-15.74,7.08-32.22,12.88-49.43,14.99-17.15,2.25-34.63,1.35-51.55-2.02,16.94,3.29,34.41,4.1,51.52,1.77,17.17-2.19,33.57-8.05,49.26-15.2,3.95-1.74,7.88-3.53,11.91-5.11,8-3.21,17.91-5.78,24.35,1.8,8.4,10.23,7.39,26.68-1.51,36.29-5.95,6.51-14.79,9.96-23.53,9.94v-1h0Z"/>
      <g>
        <path class="cls-3" d="M115.2,65.68c-.27.65-4.37,10.99,2,20,4.8,6.79,13.54,10,22,8"/>
        <path d="M115.2,65.68c-.59,1.81-.96,3.69-1.12,5.57-.18,1.88-.16,3.77.13,5.62.3,1.85.8,3.65,1.55,5.35.42.83.82,1.67,1.36,2.43.48.8,1.07,1.52,1.67,2.22,1.21,1.41,2.61,2.66,4.17,3.68,1.56,1.02,3.28,1.79,5.05,2.39,3.56,1.17,7.43,1.38,11.19.72-1.83.54-3.75.78-5.68.81-1.93,0-3.86-.28-5.73-.8-3.74-1.04-7.17-3.21-9.75-6.15-.63-.75-1.23-1.52-1.72-2.36-.55-.81-.96-1.7-1.38-2.58-.75-1.8-1.29-3.69-1.48-5.63-.41-3.86.22-7.79,1.75-11.29Z"/>
      </g>
      <g>
        <path class="cls-3" d="M87.2,78.68c.31,3.06,1.47,10.28,7,17,3.52,4.28,7.45,6.7,10,8"/>
        <path d="M87.2,78.68c.47,2.59,1.14,5.13,2.1,7.54.95,2.42,2.14,4.73,3.6,6.87,1.45,2.14,3.14,4.12,5.04,5.89,1.9,1.77,4.02,3.32,6.26,4.7-1.22-.5-2.39-1.13-3.53-1.8-1.12-.7-2.2-1.48-3.24-2.32-2.07-1.68-3.85-3.71-5.36-5.91-1.48-2.22-2.69-4.63-3.49-7.17-.4-1.27-.74-2.56-.98-3.86-.21-1.31-.37-2.62-.4-3.94Z"/>
      </g>
      <g>
        <path class="cls-3" d="M78.2,85.68c-.09,2.69.1,8.09,3,14,2.52,5.14,5.96,8.35,8,10"/>
        <path d="M78.2,85.68c.36,7.91,3.33,15.64,8.64,21.53.73.87,1.54,1.66,2.36,2.47-7.66-5.17-12.07-14.82-11-24h0Z"/>
      </g>
      <g>
        <path class="cls-3" d="M68.2,88.68c.17,2.52.77,6.59,3,11,1.59,3.15,3.5,5.45,5,7"/>
        <path d="M68.2,88.68c1.13,6.61,3.83,12.71,8,18-5.22-4.28-8.3-11.26-8-18h0Z"/>
      </g>
      <g>
        <path class="cls-3" d="M54.2,93.68c-.15,3.09.05,7.79,2,13,.89,2.39,1.97,4.39,3,6"/>
        <path d="M54.2,93.68c.38,6.69,2,13,5,19-4.21-5.21-6.05-12.4-5-19h0Z"/>
      </g>
      <g>
        <path class="cls-3" d="M42.2,99.68c.47,2.12,1.11,4.47,2,7,.94,2.65,1.98,4.99,3,7"/>
        <path d="M42.2,99.68c1.74,4.71,3.37,9.25,5,14-2.86-4.11-4.61-9.01-5-14h0Z"/>
      </g>
      <g>
        <path class="cls-3" d="M14.2,140.68c2.65-3.8,5.33-7.8,8-12,3.26-5.13,6.26-10.14,9-15"/>
        <path d="M13.79,140.39c1.51-2.19,5.33-7.73,6.79-9.84,1.62-2.18,9.02-14.36,10.62-16.87-2.81,4.83-9.19,16.12-12.26,20.57,0,0-4.33,6.72-4.33,6.72l-.82-.57h0Z"/>
      </g>
      <g>
        <path class="cls-3" d="M3.2,131.68c8-6.67,16-13.33,24-20"/>
        <polygon points="2.88 131.3 27.2 111.68 3.52 132.06 2.88 131.3 2.88 131.3"/>
      </g>
      <circle class="cls-2" cx="137.74" cy="64.88" r="6.96"/>
      <circle class="cls-5" cx="138.52" cy="63.75" r="5.36"/>
      <circle cx="140.73" cy="62.08" r="3.25"/>
      <path class="cls-4" d="M134.48,61.24c1.49-.68,3.22.05,3.87,1.62s-.04,3.39-1.54,4.07c-1.49.68-3.22-.05-3.87-1.62-.64-1.57.04-3.39,1.54-4.07Z"/>
    </g>
  </g>
</svg>