<?xml version="1.0" encoding="UTF-8"?>
<svg id="Layer_2" data-name="Layer 2" xmlns="http://www.w3.org/2000/svg" viewBox="0 0 235.91 167.87">
  <defs>
    <style>
      .cls-1 {
        fill: #c12400;
      }

      .cls-2 {
        fill: #fff;
      }

      .cls-3 {
        fill: #333;
      }

      .cls-4 {
        fill: #c71200;
      }

      .cls-5 {
        fill: #e92c00;
      }
    </style>
  </defs>
  <g id="Layer_1-2" data-name="Layer 1">
    <g>
      <path class="cls-5" d="M150.7,50.87c5.33-3.67,10.67-7.33,16-11,1.28-6.52,4.09-14.7,11-20,15.56-11.94,39.87-5.94,40-4,.06.88-4.85,2.53-9,3-3.87.44-5.44-.34-7,1-2.43,2.08-.9,5.9-3,7-2.09,1.1-5.31-1.81-6-1-.71.84,2.9,3.87,2,6-.71,1.68-3.4.88-5,3-1.29,1.7-1.35,4.62,0,6,1.8,1.84,5.65.48,7,0,9.26-3.28,12.57-13.6,14-13,.98.41.5,5.75-2,11-3.72,7.8-12.37,16.38-23,16-3.4-.12-6.15-1.13-8-2-3.33,2.33-6.67,4.67-10,7-5.67-3-11.33-6-17-9Z"/>
      <path class="cls-1" d="M150.2,51.37c4.38-2.97,8.29-4.32,11-5,1.9-.48,6.03-1.51,7,0,.94,1.46-1.73,4.25-1,5,1.03,1.07,6.93-3.96,8-3,.57.51-.11,2.77-5,10-2.33,1.33-4.67,2.67-7,4-4.33-3.67-8.67-7.33-13-11Z"/>
      <path class="cls-5" d="M83.7,109.87c.88,1.2-.82,3.1-2,7,0,0-.92,3.06-1,8-.11,7.38,3.94,14.02,6,17-5.51-1.61-8.09-4.74-9-6-2.95-4.08-2.64-8.39-2-17,.49-6.6,1.74-8.22,3-9,1.67-1.03,4.2-1.09,5,0Z"/>
      <path class="cls-5" d="M88.7,108.87c-.88.69,1.21,3.15,2,8,.49,2.99,0,6.66-1,14-.67,4.97-1.1,6.75,0,9,1.29,2.62,4.02,4.57,5,4,1.05-.62-.86-3.62-1-9-.13-4.97,1.42-5.61,2-13,.48-6.08-.38-7.98-1-9-1.73-2.86-5.08-4.72-6-4Z"/>
      <path class="cls-5" d="M149.7,89.87c3.2-2.3,6.69-5.22,8-10,.89-3.25.46-6.17,0-8,2.07-.61,5.02-1.76,8-4,5.51-4.14,8.8-10.27,8-11-.77-.71-5.42,3.61-6,3-.77-.81,7.02-8.82,6-10-.91-1.05-8.04,4.14-9,3-.68-.81,2.7-3.68,2-5-1.05-2-9.81,2.49-23,5-12.13,2.31-18.76,1.19-26,7-1.87,1.5-3.19,2.99-4,4-2.08-.25-4.44-.31-7,0-11.12,1.36-18.35,8.91-21,12-.98.05-2.43.25-4,1-3.08,1.47-4.52,4.04-5,5-.45-.19-3.07-1.25-6,0-2.71,1.16-3.78,3.49-4,4-.9-.3-3.71-1.12-7,0-3.79,1.29-5.58,4.25-6,5-.18-.17-3.6-3.24-8-2-3.16.89-5.53,3.65-6,7-1.35.16-6.16.87-10,5-2.88,3.09-3.72,6.51-4,8-6.17,1.09-10.51,3.4-13,5-3.34,2.14-11.16,7.15-11,14,.04,1.72.57,3.11,1,4-3.44,3.45-3.39,8.56-1,11,2.68,2.74,8.73,2.56,12-2,4.47,7.86,7.98,8.05,9,8,6.73-.34,10.81-16.34,12-21,1.48-5.79,1.89-10.73,2-14,.72,2.99,3.28,5.04,6,5,3.11-.05,4.88-2.8,5-3,1.94,2.76,5.24,3.94,8,3,2.74-.93,3.83-3.57,4-4,.71.31,5.17,2.19,10,0,3.91-1.77,5.58-5.09,6-6,3.67,1,7.33,2,11,3,0,0,4.46,1.3,13,1,8.86-.31,11.65-4.66,28-12,8.95-4.02,14.36-5.52,22-11Z"/>
      <path class="cls-5" d="M149.7,89.87c3.46.05,3.8,2.97,9,5,5.28,2.06,7.95.24,13,3,1.84,1.01,3.17,2.17,4,3,0-2.14.29-5.51,2-9,8.48-17.29,41.87-16.71,42-16,.07.39-9.92.35-18,8-5.88,5.57-8.31,12.91-7,14,1.17.98,4.89-3.39,9-2,2,.68,2.43,2.16,4,2,2.33-.24,2.62-3.63,5-4,2.21-.34,3.21,2.4,5,2,2.55-.57,1.67-6.35,5-8,2.57-1.27,4.74,1.35,7,0,2.97-1.77,1.83-7.82,3-8,.87-.13,2.48,3.1,3,6,2.1,11.59-11.82,24.64-22,31-6.69,4.18-15,9.38-25,7-6.45-1.54-10.79-5.56-13-8-2.76-.33-5.8-.94-9-2-13.25-4.39-21.27-13.81-25-19,1.89-2.38,4.67-5.05,8-5Z"/>
      <path class="cls-5" d="M126.7,97.87c1.12-.47,2.47,2.28,6,5,4.74,3.66,6.98,2.3,11,5,5.66,3.8,9.26,11.89,7,17-1.13,2.56-3.82,4.54-5,4-1.28-.59.07-3.73-1-8-1.25-4.98-4.93-8.09-6-9-5.37-4.54-9.73-2.94-12-7-1.56-2.78-1.17-6.52,0-7Z"/>
      <path class="cls-5" d="M103.7,112.87c-.65,1.52,5.38,3.39,8,9,3.23,6.92-1,14.67,0,15,.7.23,3.23-3.44,4-8,.97-5.74-.72-13.6-6-16-2.43-1.11-5.56-1.03-6,0Z"/>
      <path class="cls-5" d="M125.7,117.87c.31,1.39.21,3.61,0,8-.22,4.58-.46,5.83,0,6,.78.28,3.12-2.59,4-6,.26-1,.87-3.93-2-12-.4-1.12-3.68-10.34-5-10-.79.21-.81,3.88,0,7,.94,3.61,2.26,3.71,3,7Z"/>
      <path class="cls-5" d="M116.7,99.87c1.13-.59,3.38,1.53,6,4,3,2.82,4.32,4.92,6,7,4.64,5.77,6.36,4.49,10,9,1.16,1.44,7.07,8.78,5,17-1.01,4-3.53,6.67-5,8,.35-2.1.64-5.27,0-9-.51-3.01-2.1-9.1-7-14-5.1-5.09-8.2-3.31-12-8-4.3-5.31-4.77-13.08-3-14Z"/>
      <path class="cls-5" d="M103.7,103.87c.95-.67,3.51,4.48,12,10,5.56,3.62,9.46,4.66,10,8,.33,2.04-.92,2.96-2,6-1.54,4.31-.7,7.17,0,14,.15,1.44,1.76,17.6,0,18-1.09.25-3.67-5.55-5-11-2.43-9.98-.62-18.72,1-24-1.65-.85-3.79-2.12-6-4-7.67-6.53-11.26-16.11-10-17Z"/>
      <path class="cls-5" d="M93.7,106.87c1.56-.88,10.14,11.02,13,15,1.03,1.43,5,7,5,7h0s-1.62,12.65-5,39c-1.51-3.05-3.1-7.09-4-12-1.95-10.62.39-19.4,2-24-1.63-2.29-3.84-5.67-6-10-2.84-5.69-6.24-14.3-5-15Z"/>
      <path class="cls-4" d="M173.7,56.87c6.51-.09,23.02-.29,29.31-.31,3.25.04,6.46-.3,9.75-.49,4.22-.41,6.9,1.66,6.14,6.1-.54,3.33-1.93,6.34-3.36,9.28-5.96,11.64-13.5,22.44-22.19,32.19-9.53,10.17-15.91,19.6-17.71,33.78-.91,6.43-.74,12.99.06,19.45-.96-6.44-1.29-13.01-.54-19.51,1.62-14.39,7.89-24.01,17.51-34.32,4.28-4.89,8.34-9.97,11.98-15.35,3.65-5.36,7.15-10.87,10.08-16.65,1.43-2.89,2.81-5.88,3.32-9,.65-3.93-1.47-5.49-5.27-5.22-3.22.14-6.51.43-9.77.35-6.22-.02-22.88-.23-29.31-.31h0Z"/>
      <path class="cls-4" d="M170.7,50.87c12.91.08,25.9-8.22,29.08-21.05,3.2-11.34-1.5-29.44-15.77-28.89-8.55.6-16.41,4.94-24.23,8.21-7.9,3.48-15.91,6.81-24.17,9.41-16.49,5.28-33.94,7.42-51.23,6.63-8.64-.44-17.23-1.55-25.68-3.3,8.49,1.59,17.09,2.53,25.7,2.81,17.21.6,34.53-1.74,50.93-7.01,8.21-2.62,16.16-5.95,24.04-9.46,7.97-3.3,15.8-7.61,24.6-8.2,14.88-.57,19.92,18.14,16.41,29.96-3.3,12.99-16.73,21.25-29.68,20.89h0Z"/>
      <path class="cls-4" d="M114.7,65.87c-3.78,11.25,1.13,23.59,12.82,27.28,3.56,1.17,7.43,1.38,11.18.72-3.69,1.08-7.7,1.05-11.41.01-12.19-3.36-17.66-16.72-12.59-28.01h0Z"/>
      <path class="cls-4" d="M86.7,78.87c1.68,10.36,7.91,19.69,17,25-1.22-.5-2.39-1.13-3.53-1.8-7.99-4.84-13.22-13.87-13.47-23.2h0Z"/>
      <path class="cls-4" d="M77.7,85.87c.36,7.91,3.33,15.64,8.64,21.53.73.87,1.54,1.66,2.36,2.47-7.66-5.17-12.07-14.82-11-24h0Z"/>
      <path class="cls-4" d="M67.7,88.87c1.13,6.61,3.83,12.71,8,18-5.22-4.28-8.3-11.26-8-18h0Z"/>
      <path class="cls-4" d="M53.7,93.87c.38,6.69,2,13,5,19-4.21-5.21-6.05-12.4-5-19h0Z"/>
      <path class="cls-4" d="M41.7,99.87c1.74,4.71,3.37,9.25,5,14-2.86-4.11-4.61-9.01-5-14h0Z"/>
      <path class="cls-4" d="M13.7,140.87c2.59-4.67,5.58-9.05,8.37-13.58,2.7-4.48,5.62-9.13,8.63-13.42-4.8,9.5-10.41,18.64-17,27h0Z"/>
      <path class="cls-4" d="M2.7,131.87c7.54-7.17,15.59-13.88,24-20-7.54,7.17-15.59,13.88-24,20h0Z"/>
      <circle class="cls-2" cx="137.24" cy="65.06" r="6.96"/>
      <circle class="cls-3" cx="138.02" cy="63.93" r="5.36"/>
      <circle cx="140.23" cy="62.27" r="3.25"/>
      <path class="cls-2" d="M133.98,61.42c1.49-.68,3.22.05,3.87,1.62.64,1.57-.04,3.39-1.54,4.07s-3.22-.05-3.87-1.62.04-3.39,1.54-4.07Z"/>
    </g>
  </g>
</svg>