<?xml version="1.0" encoding="UTF-8"?>
<svg id="Layer_2" data-name="Layer 2" xmlns="http://www.w3.org/2000/svg" viewBox="0 0 216.9 147.39">
  <defs>
    <style>
      .cls-1 {
        fill: #ffe7bf;
      }

      .cls-2 {
        fill: #999;
      }

      .cls-3 {
        fill: #ccc;
      }
    </style>
  </defs>
  <g id="Layer_1-2" data-name="Layer 1">
    <g>
      <path class="cls-2" d="M8,94.21C5.61,87.53.06,87.1,0,83.21c-.06-4.09,6.07-6.09,14-12,8.11-6.05,9.12-9.49,15-15,14.89-13.97,25.68-6.48,46-21,13.23-9.46,11.63-13.33,22-18,15.78-7.11,22.24.62,43-4,12.63-2.81,20.07-11.3,36-13,3.8-.41,7.88-.48,11,2,4.76,3.78,1.98,9.25,7,16,4.34,5.83,9.07,5.29,10,10,.7,3.54-1.81,4.66-2,10-.18,5.15,1.99,9.13,3,11,4.09,7.53,8.78,6.83,11,13,1.27,3.53,1.43,8.49-1,12-2.59,3.74-5.69,2.32-10,6-5.68,4.84-3.03,9.64-8,14-5.5,4.82-10.48.49-16,5-6.25,5.11-2.17,12.54-8,17-6.21,4.75-13.89-1.34-20,4-3.78,3.3-1.5,6.2-5,10-6.37,6.91-16.11-.27-28,6-8.26,4.35-7.37,9.82-14,11-8.12,1.44-10.58-6.58-21-7-10.41-.42-13.39,7.36-21,5-6.87-2.13-6.46-9.1-14-11-5.54-1.4-6.8,2.11-14,1-1.23-.19-9.34-1.56-14-8-2.65-3.66-1.07-4.66-4-10-3.79-6.92-7.12-6.48-9-12-1.69-4.97.73-6.15-1-11Z"/>
      <path class="cls-3" d="M14,71.21c-5.91,4.31-10.99,8.02-11,12,0,3.85,4.72,3.89,7,10,1.93,5.16-.87,6.69,1,12,1.69,4.8,4.24,4.31,8,11,2.81,5.01,1.65,5.77,4,9,4.5,6.18,11.96,7.79,13,8,8.13,1.64,10.16-2.98,16-1,7.34,2.5,6.8,10.72,13,12,5.9,1.22,7.74-5.96,16-7,10.04-1.26,13.75,8.55,23,7,7.16-1.2,6.14-7.29,15-11,11.36-4.76,19.15,2.69,26-3,4.6-3.82,1.99-7.94,7-12,6.57-5.34,13.34-.09,19-5,5.7-4.94,1.31-12.38,7-17,5.78-4.69,12.86.92,18-4,4.31-4.13,1-9.67,6-14,3.88-3.36,7.6-1.51,10-5,2.53-3.69.67-9.07,0-11-2.05-5.93-5.13-6.13-8-11-5.73-9.74,1.81-17.02-4-25-3.4-4.67-6.93-3.49-10-9-3-5.39-.94-8.89-3-12-4.74-7.16-24.45-1.97-28-1,0,0-109.68,29.86-136,59-.19.21-1.7,1.93-4,4-2.32,2.09-4.17,3.39-5,4Z"/>
      <path class="cls-1" d="M160,5.21c2.65.27,9.9.98,13,6,2.82,4.57-.69,7.9,2,15,2.25,5.93,5.38,5.4,6,10,.4,3-1.39,7.04-5,15-2.34,5.15-2.69,5.21-3,7-1.15,6.66,3.22,9.23,2,13-1.66,5.15-10.44,2.4-20,9-8.2,5.65-6.66,11.06-14,14-6.83,2.74-9.1-1.57-17,1-6.76,2.2-6.34,5.75-16,11-5.49,2.98-9.12,4.96-14,5-9.69.08-11.66-7.59-20-7-7.85.55-10.52,7.67-16,6-3.85-1.17-3.01-4.82-8-8-6.43-4.1-11.28-.22-15-4-3.71-3.76.14-8.59-4-14-3.16-4.13-6.67-2.96-9-7-2.58-4.48-.67-10.06,0-12,1.31-3.81,4-8.05,14-15,10.97-7.62,21.94-15.24,34-17,2.46-.36,7.41-.83,11.74-4.41,2.35-1.94,2.3-2.96,5.26-5.59,3.89-3.46,7.76-5.08,10-6,5.41-2.21,9.93-2.67,13-3,16.56-1.77,24.83-2.66,30-4,10.69-2.78,12.63-5.74,20-5Z"/>
      <path class="cls-1" d="M150,121.21c-4-4.67-8-9.33-12-14"/>
      <path class="cls-1" d="M174.48,103.93c-4.99-2.14-9.97-4.28-14.96-6.43"/>
      <path class="cls-1" d="M200,81.21c-5.33-1.67-10.67-3.33-16-5"/>
      <path class="cls-1" d="M202,40.21c-4,.67-8,1.33-12,2"/>
      <path class="cls-1" d="M193,21.21l-6,6"/>
      <path class="cls-1" d="M40,133.21c1.33-4,2.67-8,4-12"/>
      <path class="cls-1" d="M21,122.21c3.67-2.67,7.33-5.33,11-8"/>
      <path class="cls-1" d="M59,138.21c1.33-3.67,2.67-7.33,4-11"/>
      <path class="cls-1" d="M75,139.21l-3-12"/>
      <path class="cls-1" d="M113,137.21c-2.33-5.33-4.67-10.67-7-16"/>
      <path class="cls-1" d="M129,131.21c-1-5.67-2-11.33-3-17"/>
      <path class="cls-1" d="M161,115.21c-2.33-4.33-4.67-8.67-7-13"/>
      <path class="cls-1" d="M187,94.21c-2.67-4-5.33-8-8-12"/>
      <path class="cls-1" d="M206,76.21c-3.33-2.33-6.67-4.67-10-7"/>
      <path class="cls-1" d="M208,56.21c-5.33,1-10.67,2-16,3"/>
      <path class="cls-1" d="M188,9.21c-3,.67-6,1.33-9,2"/>
      <path class="cls-1" d="M15,110.21c2.33-2.67,4.67-5.33,7-8"/>
      <path class="cls-1" d="M11,97.21c2.33-1,4.67-2,7-3"/>
      <path class="cls-1" d="M6,87.21c1.67-2,3.33-4,5-6"/>
    </g>
  </g>
</svg>