<?xml version="1.0" encoding="UTF-8"?>
<svg id="Layer_2" data-name="Layer 2" xmlns="http://www.w3.org/2000/svg" viewBox="0 0 287.83 302.63">
  <defs>
    <style>
      .cls-1 {
        fill: none;
      }

      .cls-1, .cls-2, .cls-3 {
        stroke: #000;
        stroke-miterlimit: 10;
      }

      .cls-4, .cls-2 {
        fill: #fff;
      }

      .cls-5 {
        fill: #333;
      }
    </style>
  </defs>
  <g id="Layer_1-2" data-name="Layer 1">
    <g>
      <path class="cls-2" d="M69.38,244.11c3.37,6.74,6.74,13.49,10.12,20.23-1.82,2.35-5.14,7.3-3.61,11.56,2.41,6.72,15.22,7.04,22.4,7.23,11.63.3,24.86.63,30.35-7.95,6.2-9.69-1.43-24.57-7.23-31.79-15.48-19.3-43.74-16.29-46.97-15.9"/>
      <path class="cls-2" d="M130.81,62.02c-21.51.76-40.47,5.41-44.8,6.5-18.84,4.76-36.99,9.35-51.31,20.23C-8.85,121.86.74,199.82,2.9,217.38c3.01,24.45,9.76,43.54,14.45,54.92-1.78,3.03-3.74,7.57-2.17,11.56,2.42,6.14,11.68,7.17,25.29,8.67,14.2,1.57,23.78,2.49,29.63-3.61.62-.65,4.45-4.64,3.61-9.39-.8-4.58-5.67-8.4-12.28-9.39,2.32-6.16,4.58-13.16,6.5-20.96,1.66-6.72,2.81-13.02,3.61-18.79,4.54,1.85,10.95,4.25,18.79,6.5,26.99,7.76,49.19,7.55,57.81,7.23,11.17-.42,26.48-2.05,44.08-7.23-.8,4.27-1.45,10.26-.72,17.34.83,8.11,3.14,14.53,5.06,18.79-2,2.58-3.57,5.67-2.89,8.67,1.78,7.86,17.84,9.78,26.74,10.84,6.63.79,29.6,3.53,33.96-5.78,1.14-2.43.96-5.56,0-7.95-2.21-5.52-8.55-7.04-9.39-7.23,2.45-4.98,5.67-12.11,8.67-20.96,7.89-23.24,9.06-42.94,9.39-59.98.98-49.43,1.47-74.14-5.06-85.27-27.51-46.87-111.16-43.92-127.18-43.36Z"/>
      <path class="cls-2" d="M165.49,117.66c-1.95-.97-31.93-16.57-34.69-48.41-2.86-32.97,26.08-53.06,31.07-56.36,31.93-21.1,82.79-14.68,102.61,15.9,12.63,19.49,8.52,42.42,7.23,48.41-5.44,25.2-23.08,38.74-27.46,41.91"/>
      <g>
        <path class="cls-4" d="M105.51,189.92c-2.24,9.3-4.35,22.84-2.89,39.02,2.07,23.01,10.34,40.27,15.9,49.86-4.91,4.75-5.37,8.11-5.06,10.12,1.71,11.01,31.34,12.9,33.24,13.01,4.32.24,25.67,1.45,28.9-7.23,1.39-3.73-1.04-7.99-1.45-8.67-3.54-5.97-10.82-6.47-11.56-6.5,3.49-7.76,6.94-17.2,9.39-28.18,5.22-23.36,3.7-43.55,1.45-57.09"/>
        <path d="M105.52,189.92c-7.07,29.86-2.18,62.24,13.34,88.69,0,0,.15.26.15.26-1.59,1.55-3.1,3.23-4.12,5.17-5.76,11.31,13.88,14.93,21.47,16.24,9.73,1.43,29.64,3.35,37.3-3.41,3.23-3.03,1.94-8.07-.3-11.32-2.37-3.47-6.62-5.32-10.77-5.65l-.54-.04.22-.48c7.51-16.51,11.83-34.43,12.84-52.54.61-10.88.06-21.81-1.66-32.58,1.87,10.74,2.58,21.7,2.11,32.6-.85,18.19-5.17,36.2-12.61,52.82l-.32-.52c4.38.32,8.85,2.23,11.4,5.93,2.49,3.54,3.77,9.09.24,12.4-7.85,7.1-28.08,5.29-38.06,3.73-7.19-1.35-21.99-3.92-23.19-12.68-.27-4.01,2.59-7.38,5.25-10.01,0,0-.07.47-.07.47-15.48-26.63-20.29-59.19-12.68-89.07h0Z"/>
      </g>
      <path d="M71.26,230.79c-19.7-14.11-34.58-34.58-42.34-57.49,6.07,17.02,15.98,32.69,29.02,45.23,4.33,4.17,8.99,8,13.91,11.45l-.58.82h0Z"/>
      <path d="M192.02,236.43c24.95-11.21,43.45-33.89,52.24-59.52-6.49,19.35-18.12,37.21-34.39,49.71-5.36,4.23-11.26,7.78-17.43,10.72l-.42-.91h0Z"/>
      <path class="cls-2" d="M135.14,43.23c-3.42-3.17-9.69-9.99-11.56-20.23-.78-4.28-1.85-10.12,1.45-15.17C130.45-.49,143,.47,144.54.59c11.27.87,18.09,9.05,19.51,10.84-4.59,2.81-10.65,7.19-16.62,13.73-6.06,6.64-9.9,13.19-12.28,18.07Z"/>
      <path class="cls-2" d="M245.7,11.43c1.98-2.15,7.91-8.01,17.34-9.39,2.95-.43,14.67-2.16,20.96,5.78,6.61,8.34,1.46,20.08.72,21.68-3.92,8.57-11.59,12.1-13.73,13.01-1.11-4.07-3.47-10.66-8.67-17.34-5.92-7.62-12.71-11.73-16.62-13.73Z"/>
      <path class="cls-3" d="M187.89,68.52c3.02-6.41,13.1-5.97,17.34-5.78,4.31.19,11.81.52,14.45,5.78,2.13,4.24-.03,9.45-2.17,12.28-3.79,5.01-9.79,5.56-12.28,5.78-2.4.22-7.76.7-12.28-2.89-4.3-3.41-7.42-10.16-5.06-15.17Z"/>
      <path class="cls-1" d="M182.83,95.26c1.3,1.04,4.32,3.16,8.67,3.61,7.1.74,12.12-3.55,13.01-4.34.73.7,3.84,3.48,8.67,3.61,5.29.15,8.74-3,9.39-3.61"/>
      <path class="cls-1" d="M205.23,86.58c-.24,2.65-.48,5.3-.72,7.95"/>
      <path class="cls-1" d="M154.65,111.15c6.72,8.41,7.32,14.23,6.5,18.07-.82,3.84-3.29,6.81-2.17,7.95,1.13,1.15,5.21-.31,7.95-2.89,4.75-4.48,3.84-10.8,5.06-10.84,1.63-.05,5.98,11.19,2.17,21.68-2.33,6.39-6.7,9.79-5.78,10.84.91,1.04,6.22-1.13,10.12-5.06,5.79-5.84,6.07-13.17,7.23-13.01,1.32.19-1.58,9.47,2.17,20.23,2.15,6.17,4.84,8.11,5.78,15.17.7,5.26-.22,8.39.72,8.67,1.55.47,7.18-6.98,7.95-15.9.94-10.97-6.05-17.49-2.89-20.96,1.93-2.11,6.55-1.9,9.39,0,6.27,4.19,3.44,16.25,5.78,16.62,1.7.27,4.69-5.85,5.78-12.28,1.23-7.21-.11-13.72,0-13.73.12-.01.07,8.74,5.06,16.62,1.42,2.25,3.44,4.72,4.34,4.34,1.29-.55-1.43-6.29,0-13.73,1-5.22,3.74-9.66,5.06-9.39,1.17.24.34,4.02,2.89,8.67,1.53,2.79,4.07,5.52,5.06,5.06,1.05-.49-.37-4.23-.72-11.56-.18-3.85-.45-9.46,1.45-10.12,1.15-.4,2.66,1.2,2.89,1.45,2.64,2.8,1.43,7.08,2.17,7.23.81.16,3.27-4.79,3.61-10.84.24-4.28-.65-7.81-1.45-10.12"/>
      <path class="cls-2" d="M203.79,135c1.47,1.01,3.7,2.84,5.06,5.78,2.35,5.08-.48,7.91.72,16.62.53,3.83,1.29,8.8,5.06,11.56,1.87,1.37,3.69,1.62,3.61,2.17-.14.97-6.26,2.49-10.84,0-4.54-2.47-2.67-6.22-9.39-16.62-1.2-1.85-2.5-3.65-2.89-6.5-.45-3.29.57-6.13,1.45-7.95"/>
      <path class="cls-2" d="M139.48,35.28c-1.5-1.23-4.22-3.8-5.78-7.95-.52-1.4-3.42-9.09.72-13.73,3.28-3.67,8.91-3.14,11.56-2.89,5.89.56,9.93,3.65,11.56,5.06-3.32,2.57-7.07,5.9-10.84,10.12-2.94,3.29-5.31,6.49-7.23,9.39Z"/>
      <path class="cls-2" d="M253.65,16.49c.89-1.15,2.51-2.95,5.06-4.34,1.71-.93,6.16-3.34,10.12-1.45,4.61,2.21,5.01,8.57,5.06,9.39.47,7.45-5.76,12.43-6.5,13.01-1.56-2.78-3.67-6.03-6.5-9.39-2.5-2.97-5-5.35-7.23-7.23Z"/>
      <path d="M66.73,290.97c1.57-5.23-2.17-10.51-7.46-11.44,5.61.62,9.76,6.1,8.43,11.68,0,0-.97-.23-.97-.23h0Z"/>
      <path d="M71.78,285.99c.52-4.58-2.33-9.22-6.73-10.81,4.66,1.32,7.93,6.01,7.73,10.87,0,0-1-.06-1-.06h0Z"/>
      <path d="M168.62,299.88c-1.08-4.97-4.84-9.19-9.63-10.97,5.02,1.5,9.15,5.63,10.6,10.71,0,0-.97.25-.97.25h0Z"/>
      <path d="M174.39,296.15c.22-5.18-3.77-9.93-8.89-10.84,5.36.61,9.78,5.37,9.89,10.83,0,0-1,.01-1,.01h0Z"/>
      <path d="M248.82,290.98c.91-3.92-1.1-8.36-4.9-9.92-1.25-.55-2.62-.84-4-.81,1.38-.1,2.78.1,4.1.58,2.68.96,4.79,3.3,5.54,6.06.37,1.39.48,2.84.25,4.3l-.98-.2h0Z"/>
      <path d="M254.6,283.9c-.11-4.02-3.42-7.51-7.45-7.99,4.24.15,7.99,3.63,8.45,7.9,0,0-1,.09-1,.09h0Z"/>
      <circle class="cls-2" cx="176.15" cy="43.65" r="14.82"/>
      <circle class="cls-5" cx="176.59" cy="43.33" r="11.41"/>
      <circle cx="175.75" cy="43.46" r="6.92"/>
      <circle class="cls-4" cx="183.13" cy="36.59" r="4.67"/>
      <circle class="cls-2" cx="232.7" cy="43.61" r="14.82"/>
      <circle class="cls-5" cx="233.14" cy="43.29" r="11.41"/>
      <circle cx="232.31" cy="43.42" r="6.92"/>
      <circle class="cls-4" cx="239.68" cy="36.55" r="4.67"/>
    </g>
  </g>
</svg>