<?xml version="1.0" encoding="UTF-8"?>
<svg id="Layer_2" data-name="Layer 2" xmlns="http://www.w3.org/2000/svg" viewBox="0 0 286.83 301.62">
  <defs>
    <style>
      .cls-1 {
        fill: #ebebe9;
      }

      .cls-2 {
        fill: #fff;
      }

      .cls-3, .cls-4 {
        fill: none;
      }

      .cls-4 {
        stroke: #000;
        stroke-miterlimit: 10;
        stroke-width: .25px;
      }

      .cls-5 {
        fill: #333;
      }

      .cls-6 {
        fill: #ebecef;
      }

      .cls-7 {
        fill: #e7e9e7;
      }
    </style>
  </defs>
  <g id="Layer_1-2" data-name="Layer 1">
    <g>
      <path class="cls-2" d="M68.88,243.61c3.37,6.74,6.74,13.49,10.12,20.23-1.82,2.35-5.14,7.3-3.61,11.56,2.41,6.72,15.22,7.04,22.4,7.23,11.63.3,24.86.63,30.35-7.95,6.2-9.69-1.43-24.57-7.23-31.79-15.48-19.3-43.74-16.29-46.97-15.9"/>
      <path class="cls-2" d="M130.31,61.52c-21.51.76-40.47,5.41-44.8,6.5-18.84,4.76-36.99,9.35-51.31,20.23C-9.35,121.36.24,199.32,2.4,216.88c3.01,24.45,9.76,43.54,14.45,54.92-1.78,3.03-3.74,7.57-2.17,11.56,2.42,6.14,11.68,7.17,25.29,8.67,14.2,1.57,23.78,2.49,29.63-3.61.62-.65,4.45-4.64,3.61-9.39-.8-4.58-5.67-8.4-12.28-9.39,2.32-6.16,4.58-13.16,6.5-20.96,1.66-6.72,2.81-13.02,3.61-18.79,4.54,1.85,10.95,4.25,18.79,6.5,26.99,7.76,49.19,7.55,57.81,7.23,11.17-.42,26.48-2.05,44.08-7.23-.8,4.27-1.45,10.26-.72,17.34.83,8.11,3.14,14.53,5.06,18.79-2,2.58-3.57,5.67-2.89,8.67,1.78,7.86,17.84,9.78,26.74,10.84,6.63.79,29.6,3.53,33.96-5.78,1.14-2.43.96-5.56,0-7.95-2.21-5.52-8.55-7.04-9.39-7.23,2.45-4.98,5.67-12.11,8.67-20.96,7.89-23.24,9.06-42.94,9.39-59.98.98-49.43,1.47-74.14-5.06-85.27-27.51-46.87-111.16-43.92-127.18-43.36Z"/>
      <path class="cls-1" d="M154.15,110.65c6.72,8.41,7.32,14.23,6.5,18.07-.82,3.84-3.29,6.81-2.17,7.95,1.13,1.15,5.21-.31,7.95-2.89,4.75-4.48,3.84-10.8,5.06-10.84,1.63-.05,5.98,11.19,2.17,21.68-2.33,6.39-6.7,9.79-5.78,10.84.91,1.04,6.22-1.13,10.12-5.06,5.79-5.84,6.07-13.17,7.23-13.01,1.32.19-1.58,9.47,2.17,20.23,2.15,6.17,4.84,8.11,5.78,15.17.7,5.26-.22,8.39.72,8.67,1.55.47,7.18-6.98,7.95-15.9.94-10.97-6.05-17.49-2.89-20.96,1.93-2.11,6.55-1.9,9.39,0,6.27,4.19,3.44,16.25,5.78,16.62,1.7.27,4.69-5.85,5.78-12.28,1.23-7.21-.11-13.72,0-13.73.12-.01.07,8.74,5.06,16.62,1.42,2.25,3.44,4.72,4.34,4.34,1.29-.55-1.43-6.29,0-13.73,1-5.22,3.74-9.66,5.06-9.39,1.17.24.34,4.02,2.89,8.67,1.53,2.79,4.07,5.52,5.06,5.06,1.05-.49-.37-4.23-.72-11.56-.18-3.85-.45-9.46,1.45-10.12,1.15-.4,2.66,1.2,2.89,1.45,2.64,2.8,1.43,7.08,2.17,7.23.81.16,3.27-4.79,3.61-10.84.24-4.28-.65-7.81-1.45-10.12"/>
      <path class="cls-2" d="M164.99,117.16c-6.47-3.9-32.34-19.5-34.69-48.41-2.71-33.33,28.27-54.51,31.07-56.36,31.93-21.1,82.79-14.68,102.61,15.9,12.55,19.37,8.58,42.13,7.23,48.41-1.21,5.62-6.72,27.89-27.46,41.91-25.82,17.46-58.48,10.79-78.76-1.45Z"/>
      <path class="cls-2" d="M105.01,189.42c-2.24,9.3-4.35,22.84-2.89,39.02,2.07,23.01,10.34,40.27,15.9,49.86-4.91,4.75-5.37,8.11-5.06,10.12,1.71,11.01,31.34,12.9,33.24,13.01,4.32.24,25.67,1.45,28.9-7.23,1.39-3.73-1.04-7.99-1.45-8.67-3.54-5.97-10.82-6.47-11.56-6.5,3.49-7.76,6.94-17.2,9.39-28.18,5.22-23.36,3.7-43.55,1.45-57.09"/>
      <path class="cls-7" d="M71.05,229.88c-17.68-11.72-31.48-28.99-39.56-48.56-1.13-2.8-2.19-5.64-3.08-8.52,8.55,22.55,23.31,42.61,42.63,57.09h0Z"/>
      <path class="cls-7" d="M191.73,236.39c21.39-10.52,38.27-28.97,48.07-50.58,1.45-3.07,2.75-6.21,3.96-9.39-7.99,26.02-26.74,49.2-52.03,59.98h0Z"/>
      <path class="cls-2" d="M134.64,42.73c-3.42-3.17-9.69-9.99-11.56-20.23-.78-4.28-1.85-10.12,1.45-15.17C129.95-.99,142.5-.03,144.04.09c11.27.87,18.09,9.05,19.51,10.84-4.59,2.81-10.65,7.19-16.62,13.73-6.06,6.64-9.9,13.19-12.28,18.07Z"/>
      <path class="cls-2" d="M245.2,10.93c1.98-2.15,7.91-8.01,17.34-9.39,2.95-.43,14.67-2.16,20.96,5.78,6.61,8.34,1.46,20.08.72,21.68-3.92,8.57-11.59,12.1-13.73,13.01-1.11-4.07-3.47-10.66-8.67-17.34-5.92-7.62-12.71-11.73-16.62-13.73Z"/>
      <path d="M187.39,68.02c3.02-6.41,13.1-5.97,17.34-5.78,4.31.19,11.81.52,14.45,5.78,2.13,4.24-.03,9.45-2.17,12.28-3.79,5.01-9.79,5.56-12.28,5.78-2.4.22-7.76.7-12.28-2.89-4.3-3.41-7.42-10.16-5.06-15.17Z"/>
      <path d="M182.33,94.76c6.28,5.15,15.65,4.57,21.6-.81.09-.07.06-.1.16,0,3.58,3.46,9.16,4.61,13.78,2.69,1.54-.61,2.97-1.49,4.2-2.61-1.2,1.15-2.62,2.06-4.16,2.71-4.66,2-10.33.85-13.99-2.62,0,0,.16,0,.16,0-5.93,5.41-15.6,5.97-21.76.63h0Z"/>
      <path class="cls-4" d="M204.73,86.08c-.24,2.65-.48,5.3-.72,7.95"/>
      <path class="cls-2" d="M203.29,134.5c1.47,1.01,3.7,2.84,5.06,5.78,2.35,5.08-.48,7.91.72,16.62.53,3.83,1.29,8.8,5.06,11.56,1.87,1.37,3.69,1.62,3.61,2.17-.14.97-6.26,2.49-10.84,0-4.54-2.47-2.67-6.22-9.39-16.62-1.2-1.85-2.5-3.65-2.89-6.5-.45-3.29.57-6.13,1.45-7.95"/>
      <path class="cls-6" d="M138.98,34.78c-1.5-1.23-4.22-3.8-5.78-7.95-.52-1.4-3.42-9.09.72-13.73,3.28-3.67,8.91-3.14,11.56-2.89,5.89.56,9.93,3.65,11.56,5.06-3.32,2.57-7.07,5.9-10.84,10.12-2.94,3.29-5.31,6.49-7.23,9.39Z"/>
      <path class="cls-6" d="M253.15,15.99c.89-1.15,2.51-2.95,5.06-4.34,1.71-.93,6.16-3.34,10.12-1.45,4.61,2.21,5.01,8.57,5.06,9.39.47,7.45-5.76,12.43-6.5,13.01-1.56-2.78-3.67-6.03-6.5-9.39-2.5-2.97-5-5.35-7.23-7.23Z"/>
      <path class="cls-3" d="M66.72,290.58c.2-.82.76-3.6-.72-6.5-2.15-4.22-6.74-4.99-7.23-5.06"/>
      <path class="cls-3" d="M71.77,285.52c.06-.89.16-4.19-2.17-7.23-1.81-2.36-4.11-3.29-5.06-3.61"/>
      <path class="cls-3" d="M168.6,299.25c-.36-1.37-1.13-3.58-2.89-5.78-2.59-3.24-5.79-4.57-7.23-5.06"/>
      <path class="cls-3" d="M174.39,295.64c-.01-1.02-.18-3.83-2.17-6.5-2.6-3.5-6.4-4.2-7.23-4.34"/>
      <path class="cls-3" d="M248.81,290.58c.09-.42.88-4.62-2.17-7.95-2.84-3.1-6.72-2.92-7.23-2.89"/>
      <path class="cls-3" d="M254.59,283.36c-.07-.78-.37-3.04-2.17-5.06-2.22-2.49-5.11-2.83-5.78-2.89"/>
      <circle class="cls-2" cx="175.65" cy="43.15" r="14.82"/>
      <circle class="cls-5" cx="176.09" cy="42.83" r="11.41"/>
      <circle cx="175.25" cy="42.96" r="6.92"/>
      <circle class="cls-2" cx="182.63" cy="36.09" r="4.67"/>
      <circle class="cls-2" cx="232.2" cy="43.11" r="14.82"/>
      <circle class="cls-5" cx="232.64" cy="42.79" r="11.41"/>
      <circle cx="231.81" cy="42.92" r="6.92"/>
      <circle class="cls-2" cx="239.18" cy="36.05" r="4.67"/>
    </g>
  </g>
</svg>