<?xml version="1.0" encoding="UTF-8"?>
<svg id="Layer_2" data-name="Layer 2" xmlns="http://www.w3.org/2000/svg" viewBox="0 0 159.96 142.06">
  <defs>
    <style>
      .cls-1 {
        fill: #ff962b;
      }

      .cls-1, .cls-2, .cls-3, .cls-4, .cls-5 {
        stroke: #000;
        stroke-miterlimit: 10;
      }

      .cls-6, .cls-2 {
        fill: #e26c00;
      }

      .cls-7, .cls-4 {
        fill: #fff;
      }

      .cls-3 {
        fill: #ffdaa1;
      }

      .cls-8 {
        fill: #333;
      }
    </style>
  </defs>
  <g id="Layer_1-2" data-name="Layer 1">
    <g>
      <path class="cls-1" d="M53.13,137.56h-26c.36-.81.97-1.93,2-3,4.66-4.86,12.6-3.3,14-3,5.28,1.15,8.62,4.44,10,6Z"/>
      <path class="cls-1" d="M24.13,97.56c-1.08.2-1.59.97-4,5-4.42,7.39-4.84,8.4-5,10-.09.89-.55,5.38,2,7,1.28.82,3.27.88,4,0,.69-.83-.3-1.83,0-4,.03-.25.37-2.5,2-4,1.78-1.64,3.24-.66,5-2,1.88-1.43,2.71-4.44,2-7-.81-2.91-3.69-5.43-6-5Z"/>
      <path class="cls-1" d="M28.13,21.56c.22-.74.55-1.78,1-3,.69-1.86,2.29-6.15,5-10C37.61,3.61,42.48,0,43.13.56c.41.35-1.16,2.09-2,5-1.16,4.03-.03,7.58,1,11,.72,2.41,2.13,6.08,5,10"/>
      <path class="cls-3" d="M21.13,62.56c.26,1.83.5,4.65,0,8-.51,3.45-1.31,4.22-2,8-.96,5.24-.49,9.95,0,10,.14.01.22-.36,1-2,.39-.83.74-1.51,1-2-.2,1.72-.33,4.14,0,7,.78,6.85,3.73,12.09,4,12,.1-.04-.25-.83,0-2,.18-.82.58-1.49,1-2,.12,1.77.38,4.19,1,7,.55,2.48,1.69,7.44,5,13,3.06,5.14,6.27,7.91,11,12,3.05,2.63,5.31,4.13,8,4,1.44-.07,2.11-.56,4-1,4.55-1.05,7.1.45,8,0,2.32-1.15-1.67-16.45-22-66"/>
      <path class="cls-1" d="M1.13,54.56c-.81-2.74-.06-5.52,3-11,5.94-10.65,8.91-15.98,15-19,1.19-.59,10.87-5.21,21-1,10.66,4.43,14.22,15.48,16,21,1.98,6.15,2.15,11.55,2,15,5.03.41,13.73,1.77,23,7,4.72,2.66,13.33,7.52,19,18,6.89,12.74,4.73,25.13,4,29-1.21,6.4-3.56,18.68-14,24-5.82,2.97-11.73,2.54-15,2,.67.67,1.33,1.33,2,2h-28c-.12-.77-.36-3.01,1-5,1.59-2.33,4.3-2.74,6-3,3.12-.48,5.68.41,7,1-1.83-3.68-3.23-6.48-4-8-2.87-5.71-3.75-7.38-4-10-.28-2.95.41-5.43,1-7-2.46,1.47-4.53,1.89-6,2-1.99.15-2.69-.3-5,0-2.01.26-4.18.55-5,2-1.05,1.85.97,4.07,0,5-.76.73-2.82.15-4-1-1.58-1.55-1.62-4.17-1-6,.93-2.74,2.98-2.69,6-6,1.73-1.89,4.58-5.03,4-8-.58-2.94-3.94-2.72-7-7-1.18-1.65-1.8-3.79-3-8-2.44-8.6-1.4-9.16-3-12-3.3-5.84-10.17-7.78-11-8-5.88-1.57-7.93,1.18-13-1-1.08-.47-5.71-2.62-7-7Z"/>
      <path class="cls-5" d="M1.13,51.56c.34-.25.59-.02,2,0,1.98.03,2.51-.41,3,0,.67.55.49,2.04,0,3-.71,1.4-2.56,2.6-4,2-1.9-.79-2.01-4.26-1-5Z"/>
      <path class="cls-1" d="M50.13,39.56c4-5.42,4.91-9.91,5-13,.16-5.52-2.24-7.48-2-14,.25-6.75,3.03-10.34,2-11-1.35-.86-7.11,4.65-11,11-4.09,6.69-5.49,13.33-6,18"/>
      <path class="cls-2" d="M49.13,15.56c-.73.61-6.25,5.38-6,13,.17,5.32,3.05,8.9,4,10,1.05-1.17,5.07-5.92,5-13-.05-4.88-2.01-8.45-3-10Z"/>
      <path d="M55.69,109.32c3.39-5.72,7.88-11.46,14.03-14.28,6.36-2.64,13.61-.6,19.41,2.52-5.81-2.93-13.01-4.81-19.21-2.06-5.94,2.91-10.19,8.65-13.35,14.3,0,0-.88-.47-.88-.47h0Z"/>
      <path d="M59.78,103.2l2.04-1.96-.11.17c2.85-7.84,1.36-16.64-2.57-23.86,2.09,3.59,3.63,7.53,4.29,11.67.68,4.18.4,8.53-.9,12.57l-.08.08-1.96,2.04-.71-.71h0Z"/>
      <path class="cls-1" d="M105.13,102.56c1.61-1.04,4.06-2.92,6-6,3.98-6.3,3.71-14.23,1-20-2.85-6.08-8.18-9.3-11-11-4.84-2.92-8.64-3.43-14-8-1.82-1.56-3.16-3.02-4-4,.6.55,1.96,1.62,4,2,1.24.23,2.3.13,3,0-1.53-.57-5.19-2.15-8-6-1.99-2.73-2.71-5.44-3-7,.39.68,1.3,2.03,3,3,1.18.68,2.29.91,3,1-1.64-1.12-4.35-3.32-6-7-.48-1.07-.79-2.08-1-3,.33.52.96,1.34,2,2,1.68,1.06,3.36,1.04,4,1-1.1-.73-3.59-2.6-5-6-.83-2-1-3.81-1-5,.14.5.42,1.25,1,2,1.06,1.36,2.44,1.84,3,2-1.48-3.62-1.38-6.26-1-8,.32-1.47.82-2.27,1-4,.26-2.5-.41-4.62-1-6,.54.38,1.32,1.01,2,2,.52.75.82,1.46,1,2,.14-.48,1.12-3.92-1-7-1.36-1.98-3.27-2.75-4-3,1.04-.24,2.46-.4,4,0,3.64.95,5.43,4.38,6,4,.37-.25-.17-1.89-1-3-1.06-1.42-2.51-1.87-3-2,.63-.15,1.72-.32,3,0,2.45.61,3.71,2.53,4,3,.02-.17.23-1.78-1-3s-2.83-1.02-3-1c1.29-.21,3.02-.34,5,0,4.8.81,7.86,3.77,9,5-.14-1.08-.55-3.07-2-5-.67-.89-1.39-1.54-2-2,2.11.21,4.91.72,8,2,4.94,2.04,8.21,5.06,10,7-.67-1.67-1.33-3.33-2-5,1.07.28,2.07.62,3,1,10.33,4.23,15.1,14.76,17,20,.5-1.23,1.33-3.77,1-7-.29-2.81-1.33-4.89-2-6,1.59,1.25,4.03,3.5,6,7,2.3,4.08,2.85,7.88,3,10,.41-.93.87-2.3,1-4,.22-2.73-.52-4.87-1-6,.91,1.06,2.13,2.72,3,5,1.3,3.39,1.18,6.4,1,8,.35-.66.79-1.68,1-3,.2-1.24.11-2.29,0-3,1.05,1.66,2.11,3.66,3,6,2.46,6.46,2.38,12.34,2,16,.65-1,1.39-2.34,2-4,.55-1.51.84-2.89,1-4,.93,2.82,1.94,6.95,2,12,.07,5.55-1.03,10.05-2,13,1.33-1.67,2.67-3.33,4-5,.43,3.28.72,8.69-1,15-1.32,4.85-3.37,8.55-5,11,.46.1,1.17.18,2,0,1.74-.37,2.72-1.62,3-2-.84,3.41-3.19,10.76-10,16-1.71,1.32-3.42,2.28-5,3h4c-3.35,4.11-6.76,6.59-9,8-11.99,7.54-24.65,5.63-28,5-3.07-.58-5.5-1.41-7-2,.37-1.58.71-3.25,1-5,.66-3.98.94-7.68,1-11Z"/>
      <path d="M8.13,53.56c2.74-2.26,6.46-3.38,10-3-3.54.33-6.87,1.32-10,3h0Z"/>
      <path d="M8.39,55.22c2.48-1.54,5.79-1.93,8.5-.77-2.9-.46-5.71-.13-8.5.77h0Z"/>
      <path class="cls-6" d="M105.13,110.56c4.07-.21,11.77-1.3,18-7,8.65-7.91,8.57-19.29,8.5-30.5-.03-4.67-1.21-7.49-2-9-.71-1.35-1.47-2.36-2-3,.15.16,1.23,1.34,1,3-.15,1.07-.76,1.75-1,2-.78-3.39-2.4-8.56-6-14-4.11-6.21-8.95-9.98-12-12-.04.27-.06.61,0,1,.15,1.02.72,1.71,1,2-1.22-.49-2.84-1.36-4-3-1.25-1.77-1.33-3.51-1.5-4.5-1.21-7.25-12.68-7.73-14.5-15.5-.67-2.87.39-4.97-1.5-7.5-1.33-1.78-3.33-2.7-4-3-1.99-.9-3.85-1.02-5-1,.78.48,2.04,1.4,3,3,1.85,3.06,1.18,6.24,1,7-.18-.54-.48-1.25-1-2-.68-.99-1.46-1.62-2-2,.41.92.89,2.29,1,4,.16,2.54-.63,4.04-1,6-.34,1.82-.39,4.48,1,8-.5-.14-1.25-.42-2-1-1.36-1.06-1.84-2.44-2-3,0,1.23.16,4.09,2,7,1.34,2.12,3,3.36,4,4-.53.1-1.22.15-2,0-2.44-.47-3.73-2.55-4-3,.45,1.5,1.3,3.72,3,6,1.38,1.86,2.86,3.16,4,4-.71-.09-1.82-.32-3-1-1.7-.97-2.61-2.32-3-3,.29,1.56,1.01,4.27,3,7,2.81,3.85,6.47,5.43,8,6-.7.13-1.76.23-3,0-2.04-.38-3.4-1.45-4-2,1.63,1.82,4.27,4.47,8,7,5.68,3.86,8.15,3.55,12,6,6.16,3.92,12.36,12.68,11,22-1.13,7.74-6.97,12.49-9,14v8Z"/>
      <circle class="cls-4" cx="26.95" cy="43.08" r="8.68"/>
      <circle class="cls-8" cx="27.21" cy="42.89" r="6.68"/>
      <circle cx="26.72" cy="42.96" r="4.05"/>
      <circle class="cls-7" cx="31.04" cy="38.94" r="2.73"/>
    </g>
  </g>
</svg>