<?xml version="1.0" encoding="UTF-8"?>
<svg id="Layer_2" data-name="Layer 2" xmlns="http://www.w3.org/2000/svg" viewBox="0 0 471.16 278.65">
  <defs>
    <style>
      .cls-1 {
        fill: #164ea2;
      }

      .cls-2 {
        fill: #fff;
      }

      .cls-3 {
        fill: none;
      }

      .cls-4 {
        fill: #333;
      }

      .cls-5 {
        fill: #1f2b5e;
      }

      .cls-6 {
        fill: #ccc;
      }
    </style>
  </defs>
  <g id="Layer_1-2" data-name="Layer 1">
    <g>
      <path class="cls-1" d="M11,179.38c-1.58-9.01-2.91-22.79,0-39,8.24-45.84,43.07-70.33,47-73,2.96-2.01,43.51-28.67,89-16,30.96,8.63,53.27,32.43,81,62,17.21,23.45,35.77,35.21,47,41,16.54,8.53,25.13,8.21,28,8,20.73-1.56,33.73-19.72,38-26,6-8.82,15.92-23.43,11-37-2.67-7.35-8.58-11.32-20-19-15.96-10.72-21.17-8.65-29-17-1.54-1.65-11.77-12.82-11-28,1.08-21.31,23.19-38.15,29-35,3.1,1.68-1.35,7.45,2,15,7.67,17.29,42.1,12.09,49,30,.68,1.76.91,3.28,1,4,.47-.8,1.45-2.36,3-4,14.15-15.02,40.23.23,59-14,8.56-6.49,12-12,12-12,3.84-6.15,4.5-11.4,9-13,2.89-1.03,6.15-.11,8,1,10.37,6.21,10.37,38.58-6,58-6.26,7.43-13,10.68-24,16-29.42,14.22-42.29,7.3-51,19-7.28,9.78.55,16.18-6,39-4.56,15.9-12.36,26.69-17,33,0,0-15.68,21.32-41,35-51.97,28.08-117.91,2.46-124,0-17.45,6.86-31.55,8.53-40,9-64.71,3.62-110.86-45.6-143-25-1.98,1.27-3.41,2.48-4,3C3.15,193.78-.14,189.89,0,186.38c.17-4.14,5.13-8.31,11-7Z"/>
      <path class="cls-2" d="M8,194.38c-.12.34-1.26,3.9,1,7,1.79,2.45,4.46,2.92,5,3,1.78,2.14,4.51,5.32,8,9,57,60,139.76,64.48,159,65,26.26.7,64.73,1.74,106-21,57.86-31.88,79.27-87.35,85-104-6.79,12.99-19.79,32.97-43,48-58.44,37.85-127.04,9.05-134,6-7.4,2.9-18.37,6.44-32,8-28.79,3.3-52.33-4.17-64-8-19.95-6.55-33.28-14.75-56-20-5.68-1.31-17.18-3.65-28,2-3.22,1.68-5.56,3.64-7,5Z"/>
      <path class="cls-6" d="M332,210.38c-27.26,18.26-60.56,27.37-93.33,25.15-19.63-1.34-39.01-6.48-56.67-15.15,17.69,8.61,37.06,13.69,56.68,14.96,32.74,2.08,66.01-6.75,93.32-24.96h0Z"/>
      <path class="cls-6" d="M301,233.38c-35.85,19.74-79.51,20.89-117.89,8.08-12.86-4.14-25.28-9.58-37.11-16.08,11.85,6.47,24.28,11.87,37.14,15.96,38.39,12.59,81.97,11.66,117.86-7.96h0Z"/>
      <path class="cls-6" d="M303,238.38c-39.66,17.26-84.94,24.84-127.42,14.47-25.44-5.94-49.27-18.12-69.58-34.47,20.35,16.3,44.18,28.41,69.62,34.29,42.47,10.22,87.69,2.9,127.38-14.29h0Z"/>
      <path class="cls-6" d="M291,248.38c-53.25,22.16-117.73,28.59-169.63-.46-17.1-9.41-32.1-22.41-44.37-37.54,24.4,30.58,60.89,50.66,99.69,55.29,38.72,4.93,78.42-2.46,114.31-17.29h0Z"/>
      <path class="cls-6" d="M273,259.38c-47.6,19.05-102.47,19.86-150.1.52-28.54-11.48-54.31-29.68-74.9-52.52,20.62,22.79,46.42,40.93,74.97,52.34,47.65,19.19,102.4,18.64,150.03-.34h0Z"/>
      <path class="cls-6" d="M111,266.38c-31.34-12.02-59.53-32.19-81-58,21.72,25.6,49.78,45.68,81,58h0Z"/>
      <path class="cls-1" d="M39,229.38c-2.1,3.52-4.9,9.46-5,17-.19,14.86,10.24,28.1,14,27,2.69-.79.04-8.38,5-15,4.13-5.52,11.34-7.43,18-8-5.31-2.76-11.04-6.06-17-10-5.6-3.7-10.59-7.42-15-11Z"/>
      <path class="cls-1" d="M267,200.38c18.07,2.27,30.15,7.98,38,13,12.6,8.06,16.11,15.48,32,22,3.35,1.38,8.14,3.08,8,5-.26,3.54-17.01,4.92-18,5-35.36,2.77-70.17-17.35-80-25-1-.78-3.76-3-8-5-6.77-3.2-13.27-3.94-18-4"/>
      <ellipse class="cls-5" cx="124.5" cy="69.38" rx="8.5" ry="3"/>
      <path class="cls-3" d="M8,194.38c1.43-1.35,3.76-3.32,7-5,10.81-5.62,22.28-3.32,28-2,23.73,5.46,38.44,14.44,59,21,8.79,2.8,32.67,10.5,61,7,24.43-3.02,42.68-13.14,53-20"/>
      <path class="cls-3" d="M49,236.38c-1.99,1.74-6.36,6.06-8,13-3.06,12.92,6.14,23.08,7,24"/>
      <path class="cls-6" d="M13.97,204.26c4.25-1.24,10.67-2.87,15.04-3.88-4.37,1.08-10.72,2.81-14.96,4.12,0,0-.07-.24-.07-.24h0Z"/>
      <circle class="cls-2" cx="198.16" cy="177.88" r="16"/>
      <circle class="cls-4" cx="198.63" cy="177.53" r="12.32"/>
      <circle cx="197.73" cy="177.67" r="7.47"/>
      <circle class="cls-2" cx="205.69" cy="170.26" r="5.04"/>
    </g>
  </g>
</svg>