<?xml version="1.0" encoding="UTF-8"?>
<svg id="Layer_2" data-name="Layer 2" xmlns="http://www.w3.org/2000/svg" viewBox="0 0 283.25 286.03">
  <defs>
    <style>
      .cls-1 {
        fill: #898989;
      }

      .cls-2 {
        fill: #fff;
      }

      .cls-3, .cls-4 {
        fill: none;
      }

      .cls-5 {
        fill: #ffb076;
      }

      .cls-4 {
        stroke: #ededec;
        stroke-miterlimit: 10;
      }

      .cls-6 {
        fill: #333;
      }

      .cls-7 {
        fill: #999;
      }

      .cls-8 {
        fill: #ff6440;
      }
    </style>
  </defs>
  <g id="Layer_1-2" data-name="Layer 1">
    <g>
      <path class="cls-7" d="M211.03,123c3.03.27,7.29.99,12,3,6.33,2.7,10.59,6.49,13,9h-5c3.24,1.96,8.45,5.69,13,12,4.19,5.82,6.09,11.44,7,15-1.67-1-3.33-2-5-3,2.98,4.24,6.19,9.57,9,16,1.71,3.91,3.01,7.62,4,11-1.67-.67-3.33-1.33-5-2,1.18,3.02,2.79,6.43,5,10,4.25,6.87,9.13,11.74,13,15h-6c1.24,1.59,3.77,4.85,7,9,8.68,11.13,10.99,13.96,10,16-1.25,2.57-6.89,2.2-10,2-3.84-.25-11.47-1.44-20-8,.47,1.47.83,3.27,0,4-1.49,1.32-6.03-1.52-8-3-2.34-1.75-6.82-5.93-9-15,0,3.09-.53,3.86-1,4-1.89.55-6.88-8.07-9-17-.69-2.89-1.29-6.71-1-16,.35-11.37,1.66-19.11,2-22,1-8.63-1.18-21.58-16-40Z"/>
      <path class="cls-7" d="M131.03,195c-.11,1.83-.05,4.71,1,8,.85,2.64,2.04,4.65,3,6,.67-1,1.33-2,2-3,.15,1.37.57,3.63,2,6,2.29,3.81,5.69,5.45,7,6v-4c1.25,1.49,3.24,3.68,6,6,3.74,3.14,5.56,3.71,7,6,.51.8,1.85,3.22,1,10-.9,7.16-2.11,16.82-9,21-3.72,2.25-6.13,1.11-13,5-2.27,1.29-4.2,2.65-5,5-.56,1.64-.89,4.76,1,6,1.56,1.02,3.68.14,4,0,.21.46,1.04,2.11,3,3,2.42,1.1,4.64.16,5,0,1.08.4,2.82.92,5,1,4.68.18,10.7-1.67,13-6,.91-1.72.75-2.89,1-5,.74-6.26,3.81-9.6,7-15,3.66-6.19,8.35-14.14,8-23-.29-7.35-3.79-8.49-5-16-.97-6.06-.09-13.99,6-24-6.15-.71-14-1.04-23,0-11.25,1.3-20.42,4.28-27,7Z"/>
      <path class="cls-7" d="M39.03,164c-.02,3.64.29,8.94,2,15,1.58,5.62,3.65,9.34,5,12,4.35,8.54,6.25,15.68,9,26,3.71,13.94,7.61,38.08,0,42-1.55.8-2.72.31-7,2-3.43,1.35-7.44,2.92-8,6-.24,1.29.13,2.83,1,4,1.05,1.41,2.5,1.87,3,2,.07.35.45,2,2,3,1.46.94,3.4.93,5,0,.86.67,2.21,1.54,4,2,7.09,1.84,14.16-4.47,17-7,9.52-8.49,9.36-38.16,0-75"/>
      <path class="cls-7" d="M14.03,6c.56-.93,5.74.73,10,3,7.73,4.12,10.56,8.96,18,12,5.65,2.31,8.02.97,13,2,13.74,2.85,21.17,17.76,24,23,6.72,12.44,4.09,18,12,28,3.85,4.86,8.03,8.05,11,10-.44.34-1.12.76-2,1-2.15.58-3.77-.39-4,0-.3.53,2.55,2.35,5,5,2.01,2.18,3.24,4.38,4,6-1.67-.33-3.33-.67-5-1,.2,1.52.68,3.73,2,6,3.86,6.65,11.9,8.65,19,10,23.03,4.36,43.56,3.16,46,3,16.71-1.08,18.14-2.72,25-1,16.09,4.03,25.18,17.33,27,20,11.67,17.09,9.44,36.24,9,40-1.63,13.99-5.71,13.94-5,25,.98,15.36,9.76,17.64,9,32-.33,6.18-2.43,14.76-6,22-1.4,2.84-3.85,7.15-6,14-1.44,4.59-.97,4.66-2,7-3.04,6.87-10.31,13.45-16,12-1.89-.48-3.2-1.89-4-3-1.4,1.21-3.31,1.6-5,1-2.12-.75-2.89-2.71-3-3-.27.21-2.24,1.68-4,1-2.1-.81-2.42-4.04-2-6,.55-2.57,2.61-4.03,4-5,3.29-2.28,5.39-1.77,8-3,2.84-1.35,4.31-3.84,7-10,5.97-13.66,8.95-20.5,8-27-.33-2.28-.98-6.67-4-11-3.33-4.77-7.13-5.99-11-12-1.57-2.44-2.49-4.63-3-6v6c-1.51-.54-4.56-1.89-7-5-4.29-5.47-3.2-11.92-3-13l-3,3c-1-1.33-2-2.67-3-4-3.93-.37-9.86-.68-17,0-6.7.64-11.65,1.88-23,5-23.09,6.35-21.27,6.36-25,7-5.17.89-19.05,3.28-33-2-17.39-6.59-26.02-21.75-33-34-6.33-11.11-11.94-20.96-12-34-.14-28.31,25.97-47.18,30-50,.13-1.04.19-2.41,0-4-.2-1.64-.61-3-1-4,1.67,1,3.33,2,5,3,.45-2.67.71-6.76-1-11-2.39-5.93-7.49-9.33-13-13-6.43-4.29-7.89-3.62-11-7-3.49-3.79-2.58-5.64-6-12-3.45-6.41-7.67-10.65-13-16-6.28-6.3-10.55-9.09-10-10Z"/>
      <path class="cls-2" d="M7.03,12c-1.84,3.1-1.95,6.04-2,8-.15,6.15,2.53,10.83,4,13-1.1.13-3.11.54-5,2C1.17,37.21-.24,40.9.03,44c.1,1.15.57,3.65,10,12,5.43,4.81,6.76,5.14,9,8,3.11,3.98,4.4,8.17,5,11,1.15,6.24.17,10.36-1,13-.64,1.45-1.42,2.65-3,6-1.38,2.92-2.37,5.37-3,7,1.67-.67,3.33-1.33,5-2-1.11,2.27-2.44,5.68-3,10-.73,5.65.22,10.27,1,13,.49-.89,1.14-1.93,2-3,1.04-1.29,2.1-2.27,3-3-1.31,2.08-3.09,5.61-3,10,.05,2.52,1.04,5.05,3,10,2.46,6.2,3.53,7.54,5,12,1.12,3.39,1.7,6.23,2,8,1.33-.67,2.67-1.33,4-2,.47,2.48,1.12,5.17,2,8,1.72,5.54,3.9,10.22,6,14,.67-1.67,1.33-3.33,2-5,.89,2.64,2.39,6.23,5,10,7.25,10.48,19.23,16.85,21,15,1.12-1.17-2.3-5.14-6-12-4.03-7.47-8.32-18.2-10-33,2.33-5.67,4.67-11.33,7-17,1,1.67,2,3.33,3,5,1.22-1.72,3.31-5.16,4-10,.88-6.23-1.09-11.07-2-13,1.67,1,3.33,2,5,3,.61-2.06,1.27-5.19,1-9-.4-5.74-2.68-9.93-4-12h5c-.52-1.48-1.42-3.65-3-6-1.45-2.15-2.45-2.95-4-5-1.14-1.52-2.65-3.81-4-7,.13-1.04.19-2.41,0-4-.2-1.64-.61-3-1-4,1.67,1,3.33,2,5,3,.28-2.16.45-5.86-1-10-.57-1.62-1.79-4.48-5-8-7.27-7.97-13.07-6.51-19-13-3.52-3.85-1.04-3.88-6-12-4.12-6.73-8.76-11.51-17-20-2.48-2.55-4.57-4.61-6-6-1.39.59-4.77,2.25-7,6Z"/>
      <path class="cls-4" d="M64.03,80c.27.75,1.06,3.24,0,6-.56,1.45-1.42,2.44-2,3-1-1.67-2-3.33-3-5-.18,1.35-.76,4.25-3,7-3.31,4.05-7.85,4.84-9,5,.33-2.33.67-4.67,1-7-1.53,1-3.2,2-5,3-2.09,1.15-4.1,2.15-6,3l-3-9"/>
      <path class="cls-8" d="M13.03,38c-2.93-.42-5.34.44-6,2-.69,1.61.67,3.53,1,4,3.67,5.2,14.44,3.29,16,3"/>
      <path class="cls-4" d="M9.03,33c2.58,3.37,6.16,7.31,11,11,2.07,1.58,4.09,2.9,6,4"/>
      <path class="cls-1" d="M110.53,165.85c-1.97,6.21-4.12,11.07-5.77,14.43-3.26,6.66-4.88,8.11-5.77,12.51-1.16,5.72.53,8.42.96,14.43.33,4.65-.49,5.67-3.85,20.2-6.59,28.47-5.57,33.74-4.81,36.56.56,2.08,1.29,3.96.96,6.73-.83,7.03-7.8,14.4-15.39,14.43-2.03,0-3.69-.51-4.81-.96.63-1.81-.04-3.76-1.52-4.69-1.18-.74-2.72-.73-4,0-3-.33-6-.67-9-1-.23-.89-.48-2.39.09-3.93,1.85-5.01,9.93-3.96,14.43-8.66,2.39-2.49,2.66-5.44,2.89-14.43.44-17.11.66-25.66-.4-37.98-.37-4.28-.98-10.48-2-18"/>
      <path d="M21.03,16c2.55-2.41,1.22-7.21,1-8C21.25,5.15,18.61.03,14.03,0,9.11-.03,5.08,5.85,6.03,10c.45,1.94,1.89,3.1,3,4,3.15,2.54,9.1,4.74,12,2Z"/>
      <path class="cls-7" d="M76.03,47c2.5-.08,6.58.12,11,2,1.25.53,3.81,1.74,13,11,7.48,7.54,8.62,9.59,8,11-.44,1-1.63,1.35-4,2-4.13,1.14-7.26.98-10,1-6.97.05-6.96,1.25-11,1-3.03-.19-7.56-1.13-13-5"/>
      <path class="cls-5" d="M79.03,56c.13,1.07.2,2.44,0,4-.34,2.67-1.28,4.73-2,6,1.56.64,3.97,1.49,7,2,1.32.22,10.79,1.81,12-1,.98-2.26-3.65-6.81-8-9-3.56-1.8-6.95-2.03-9-2Z"/>
      <path class="cls-4" d="M36.03,154c1.95-.97,4.51-2.52,7-5,4.46-4.44,6.26-9.38,7-12"/>
      <path class="cls-3" d="M24.03,75c.49.89,1.14,1.93,2,3,1.04,1.29,2.1,2.27,3,3"/>
      <path class="cls-7" d="M114.03,162c-2.05,6.46-4.29,11.5-6,15-3.39,6.92-5.07,8.43-6,13-1.2,5.94.55,8.75,1,15,.35,4.83-.5,5.89-4,21-6.85,29.59-5.79,35.08-5,38,.58,2.16,1.34,4.11,1,7-.87,7.3-8.11,14.97-16,15-2.1,0-3.84-.53-5-1-.44.29-1.94,1.2-4,1-2.29-.22-3.68-1.65-4-2-.49.13-3.83.94-6-1-2.19-1.95-2.04-5.66-1-8,2.49-5.58,10.2-3.67,15-9,2.11-2.34,2.7-5.02,3-15,.3-9.82.45-30.86-4-51-.4-1.8-.67-2.88-1-4-2.5-8.56-5.82-12.11-9-19-1.26-2.73-2.85-6.75-4-12"/>
      <path class="cls-1" d="M179.03,191c.41-.27-1.34-2.77-2-6-.73-3.57.12-6.78,1-9-1,1.33-2,2.67-3,4-.34-2.92-.5-6.68,0-11,.82-7.08,3.24-11.91,3-12-.25-.09-3.16,4.9-4.5,11.5-1.24,6.08-.7,11.38,0,15l2-1c-.17,1.1-.4,3.6,1,6,.84,1.43,2.18,2.7,2.5,2.5Z"/>
      <path class="cls-1" d="M43.53,272.99c.19-2.79,2.69-5.23,5.5-4.99-1.3.1-2.55.68-3.35,1.64-.81.93-1.18,2.2-1.16,3.37l-1-.03h0Z"/>
      <path class="cls-1" d="M50.57,276.2c-1.17-2.96,1.47-5.84,4.46-5.2-2.69-.23-4.86,2.35-3.54,4.8,0,0-.92.39-.92.39h0Z"/>
      <path class="cls-1" d="M65.57,284.19c-1.28-3.29,1.06-6.87,4.46-7.19-3.07.6-4.99,4.02-3.54,6.81,0,0-.92.38-.92.38h0Z"/>
      <path class="cls-1" d="M73.57,285.18c-1.03-2.89.6-6.27,3.46-7.18-1.26.62-2.28,1.7-2.72,2.98-.46,1.26-.36,2.68.18,3.84l-.93.37h0Z"/>
      <path class="cls-1" d="M137.56,273.15c-.93-3.2,2.44-6.37,5.48-5.15-2.84-.8-5.62,2.19-4.52,4.85,0,0-.96.29-.96.29h0Z"/>
      <path class="cls-1" d="M145.64,276.31c-2.42-3.22.46-7.75,4.39-6.31-.79-.2-1.63-.17-2.37.11-2.31.77-2.85,3.9-1.24,5.58,0,0-.78.63-.78.63h0Z"/>
      <path class="cls-1" d="M189.58,280.21c-1.02-2.4.88-5.31,3.45-5.21-1.14.16-2.15.87-2.62,1.83-.49.95-.4,2.1.08,2.96l-.91.42h0Z"/>
      <path class="cls-1" d="M197.6,282.24c-1.32-2.69.44-6.07,3.44-6.24-2.66.51-3.99,3.51-2.56,5.76,0,0-.87.49-.87.49h0Z"/>
      <circle class="cls-2" cx="46.33" cy="39.88" r="9.78"/>
      <circle class="cls-6" cx="46.65" cy="40.04" r="7.53"/>
      <circle cx="46.32" cy="39.59" r="4.57"/>
      <circle class="cls-2" cx="52.62" cy="41.73" r="3.08"/>
    </g>
  </g>
</svg>