<?xml version="1.0" encoding="UTF-8"?>
<svg id="Layer_2" data-name="Layer 2" xmlns="http://www.w3.org/2000/svg" viewBox="0 0 79.43 161.43">
  <defs>
    <style>
      .cls-1 {
        fill: none;
      }

      .cls-1, .cls-2, .cls-3, .cls-4, .cls-5 {
        stroke: #000;
        stroke-miterlimit: 10;
      }

      .cls-2 {
        fill: #e0e0e0;
      }

      .cls-3 {
        fill: #333;
      }

      .cls-4 {
        fill: #999;
      }

      .cls-5 {
        fill: #666;
      }
    </style>
  </defs>
  <g id="Layer_1-2" data-name="Layer 1">
    <g>
      <path class="cls-5" d="M31.63,14.6c.14-.5.42-1.25,1-2,1.06-1.36,2.44-1.84,3-2,.33,5.67.67,11.33,1,17,1.67-5.67,3.33-11.33,5-17,.55.36,1.36.99,2,2,.78,1.22.93,2.4,1,3,.28,2.33-.01,9.04-1,18-3.67-.67-7.33-1.33-11-2-.33-5.67-.67-11.33-1-17Z"/>
      <path class="cls-4" d="M28.63,9.6c-1.62,2.13-3.75,5.48-5,10-.62,2.23-.9,4.28-1,6-.68-.61-1.67-1.36-3-2-1.14-.55-2.19-.84-3-1,.42,2.84.76,5.84,1,9,.52,6.95.42,13.33,0,19-.4.31-1.07.75-2,1-1.34.36-2.47.14-3,0,.61,1.31,2.47,5.74,1,11-2.26,8.08-10.33,10.79-11,11,1.15,2.45,2.72,6.62,3,12,.3,5.81-1.03,10.4-2,13,1-.33,2-.67,3-1-.33,2-.67,4-1,6,3.34,3.03,7.96,6.44,14,9,17.85,7.57,33.98,1.8,39,0,9.15-3.28,11.86-6.97,13-9,1.85-3.28,2.13-6.68,2-10-.61-15.37-10.41-35.76-13-41,.54-4.04.86-9.56,0-16-.83-6.22-2.48-11.3-4-15l-3,3c0-1.8-.2-4.24-1-7-1.06-3.65-2.75-6.33-4-8,1.33-.91,2.35-1.58,3-2,.92-.59,1.69-1.07,2-2,.13-.39.19-.89,0-1-.29-.17-.86.78-2,1-.41.08-.76.04-1,0,1.73-1.33,2.49-2.98,2-4-.4-.83-1.65-1.31-2-1-.35.3.38,1.2,0,2-.31.66-1.21.9-2,1,.06-.13.5-1.1,0-2-.47-.85-1.6-1.31-2-1-.34.26.1.9,0,2-.13,1.47-1.16,3.03-2,3-.94-.04-1.22-2.06-2-2-.55.04-1.04,1.11-1,2,.06,1.28,1.25,2.46,3,3-.33,7.67-.67,15.33-1,23-.59-.49-2.36-1.85-5-2-3.26-.19-5.49,1.58-6,2-.33-7.33-.67-14.67-1-22,.45-.23,1.46-.82,2-2,.59-1.31.4-2.9,0-3-.48-.12-.88,1.91-2,2-.83.07-1.87-.95-2-2-.18-1.44,1.38-2.38,1-3-.27-.44-1.32-.4-2,0-.88.51-1.32,1.72-1,3-.27-.19-.66-.51-1-1-.69-1.01-.59-1.92-1-2-.37-.07-.81.58-1,1-.39.89-.08,1.77,0,2,.47,1.33,1.73,1.89,2,2-.26.04-.6.07-1,0-1.24-.21-1.85-1.12-2-1-.19.15.46,1.9,2,3,1.12.8,2.32.97,3,1Z"/>
      <path class="cls-1" d="M22.63,25.6c1,.86,2.02,1.85,3,3,4.84,5.63,6.43,11.98,7,16"/>
      <path class="cls-1" d="M17.63,50.6c2.83-.69,5.86-1.66,9-3,14.04-6.02,22.56-16.38,27-23"/>
      <path d="M70.26,104.21l-17.36-40.39c-.69-1.59-1.73-3-3.1-4.03-1.37-1.06-3.03-1.6-4.8-2.01-3.54-.85-7.14-1.57-10.73-2.27-7.19-1.39-14.41-2.68-21.63-3.91,7.26.98,14.52,2.02,21.77,3.17,3.62.58,7.24,1.17,10.85,1.91,1.79.35,3.73.89,5.32,2.05,1.61,1.11,2.87,2.72,3.69,4.45l18.74,39.81-2.74,1.22h0Z"/>
      <path d="M71.58,104.67c-5.03-5.03-17.66-17.67-22.51-22.52-1.32-1.26-4.3-4.44-5.65-5.55-.65-.52-1.36-.98-2.1-1.35l.31.07c-.14,0-.28-.05-.37-.1-2.87-1.46-6.12-1.27-9.26-1.45-9.78-.32-19.58-.27-29.38-.17,11.43-.48,22.87-1.12,34.33-.82,1.7.03,3.39.47,4.94,1.15.78.27,3.25,1.87,4.49,3.23,2.49,2.31,9.12,8.47,11.69,10.86,0,0,15.6,14.5,15.6,14.5l-2.1,2.14h0Z"/>
      <path class="cls-4" d="M60.63,133.6c.63.75,1.63,1.84,3,3,4.72,4,8.55,4.32,11,6,2.7,1.85,5.18,6.34,4,18-1.33-.8-3.37-1.94-6-3-7.92-3.19-12.03-1.97-16-5-1.79-1.37-3.94-3.9-5-9"/>
      <path class="cls-4" d="M18.8,133.3c-.63.75-1.63,1.84-3,3-4.72,4-8.55,4.32-11,6-2.7,1.85-5.18,6.34-4,18,1.33-.8,3.37-1.94,6-3,7.92-3.19,12.03-1.97,16-5,1.79-1.37,3.94-3.9,5-9"/>
      <path d="M70.79,104.41c-8.22-3.99-21.36-10.4-29.45-14.33-3.04-1.7-6.53-2.16-9.91-.99,0,0-8.26,2.83-8.26,2.83l-16.55,5.67,16.19-6.61,8.11-3.31c3.5-1.49,7.79-1.27,11.24.44,3.66,1.52,10.42,4.36,14.13,5.9,0,0,16.16,6.75,16.16,6.75l-1.68,3.63h0Z"/>
      <path class="cls-4" d="M38.63,106.6c-4.86.12-11.06.28-16,5-5.23,4.99-6.77,12.91-5,19,1.89,6.51,8.13,12.91,12,14,.51.15,2.35.58,3,2,.52,1.14.12,2.56,0,3-.26.93-.7,1.6-1,2,.15.04,2.47.57,4-1,.71-.72.92-1.57,1-2,.2,1.18.68,3.08,2,5,2.38,3.47,5.84,4.66,7,5-.65-.49-2.18-1.76-3-4-1.04-2.83-.25-5.3,0-6,.16.56.64,1.94,2,3,.75.58,1.5.86,2,1-.32-.45-1.41-2.08-1-4,.29-1.38,1.21-2.25,2-3,1.36-1.29,2.72-1.88,3-2,2.77-1.24,8.58-6.15,11-12,.2-.49,3.78-9.53-1-17-5.39-8.42-17.11-8.13-22-8Z"/>
      <path class="cls-1" d="M22.63,126.6c.32,2.15,2.01,3.79,4,4,2.31.25,4.59-1.47,5-4"/>
      <path class="cls-1" d="M48.84,126.83c.32,2.15,2.01,3.79,4,4,2.31.25,4.59-1.47,5-4"/>
      <path class="cls-1" d="M31.63,119.6c1.33-.71,4.18-2,8-2,1.51,0,4.63.2,8,2"/>
      <path class="cls-2" d="M31.63,119.6c-.58-2.73.11-4.78,1-5,.82-.2,2.13,1.05,3,3-.67.33-1.33.67-2,1s-1.33.67-2,1Z"/>
      <path class="cls-2" d="M47.16,119.45c.58-2.73-.11-4.78-1-5-.82-.2-2.13,1.05-3,3,.67.33,1.33.67,2,1s1.33.67,2,1Z"/>
      <path class="cls-5" d="M34.63,122.6c-.99,2.35,2.27,7.27,6,7,3.4-.25,6.06-4.74,5-7-.84-1.8-3.91-1.95-5-2-.44-.02-5.07-.2-6,2Z"/>
      <path class="cls-3" d="M37.63,122.6c.15.14.05.35,0,1-.1,1.35.22,1.86,0,2-.41.26-2.25-.94-2-2,.2-.84,1.64-1.33,2-1Z"/>
      <path class="cls-3" d="M42.37,122.59c-.15.14-.05.35,0,1,.1,1.35-.22,1.86,0,2,.41.26,2.25-.94,2-2-.2-.84-1.64-1.33-2-1Z"/>
      <path class="cls-1" d="M21.63,138.6c-.24,1.75-.79,3.87-2,6-2.8,4.92-7.69,7.39-9,8-2.57,1.2-3.98,1.22-6,3-1.54,1.36-2.46,2.88-3,4"/>
      <path class="cls-1" d="M57.32,138.48c.25,1.81.82,3.98,2.08,6.18,2.91,5.07,8,7.6,9.36,8.24,2.67,1.24,4.14,1.26,6.24,3.09,1.6,1.4,2.56,2.97,3.12,4.12"/>
      <path class="cls-1" d="M23.63,110.6c-.1-1.1-.17-3.43,1-6,.92-2.01,2.2-3.31,3-4,.33,1,.67,2,1,3,.17-1.09.63-3.02,2-5,1.03-1.48,2.18-2.43,3-3v4c.47-1.2,1.12-2.56,2-4,1.32-2.16,2.77-3.8,4-5-.35,1-.52,2.12,0,3,.61,1.02,1.73.97,3,2,.78.63,1.51,1.57,2,3v-3c.83.6,1.96,1.57,3,3,1.11,1.53,1.69,2.99,2,4,.33-.67.67-1.33,1-2,.91.69,1.99,1.67,3,3,2.03,2.68,2.73,5.42,3,7-.95-.58-2.3-1.32-4-2-4.67-1.88-8.63-1.96-12-2-3.53-.04-7.91-.05-13,2-1.72.69-3.08,1.44-4,2Z"/>
      <path class="cls-1" d="M6.63,104.6c2.33-3,4.67-6,7-9"/>
      <path class="cls-1" d="M22.63,91.6c-4.33,5-8.67,10-13,15"/>
      <path class="cls-1" d="M11.63,108.6l24-21"/>
    </g>
  </g>
</svg>