<?xml version="1.0" encoding="UTF-8"?>
<svg id="Layer_2" data-name="Layer 2" xmlns="http://www.w3.org/2000/svg" viewBox="0 0 78.43 160.1">
  <defs>
    <style>
      .cls-1 {
        fill: #fff;
      }

      .cls-2 {
        fill: #666;
      }

      .cls-3 {
        fill: #999;
      }

      .cls-4 {
        fill: #79797a;
      }

      .cls-5 {
        fill: #7f7f7f;
      }
    </style>
  </defs>
  <g id="Layer_1-2" data-name="Layer 1">
    <g>
      <path class="cls-2" d="M31.13,14.1c.14-.5.42-1.25,1-2,1.06-1.36,2.44-1.84,3-2,.33,5.67.67,11.33,1,17,1.67-5.67,3.33-11.33,5-17,.55.36,1.36.99,2,2,.78,1.22.93,2.4,1,3,.28,2.33-.01,9.04-1,18-3.67-.67-7.33-1.33-11-2-.33-5.67-.67-11.33-1-17Z"/>
      <path class="cls-3" d="M28.13,9.1c-1.62,2.13-3.75,5.48-5,10-.62,2.23-.9,4.28-1,6-.68-.61-1.67-1.36-3-2-1.14-.55-2.19-.84-3-1,.42,2.84.76,5.84,1,9,.52,6.95.42,13.33,0,19-.4.31-1.07.75-2,1-1.34.36-2.47.14-3,0,.61,1.31,2.47,5.74,1,11-2.26,8.08-10.33,10.79-11,11,1.15,2.45,2.72,6.62,3,12,.3,5.81-1.03,10.4-2,13,1-.33,2-.67,3-1-.33,2-.67,4-1,6,3.34,3.03,7.96,6.44,14,9,17.85,7.57,33.98,1.8,39,0,9.15-3.28,11.86-6.97,13-9,1.85-3.28,2.13-6.68,2-10-.61-15.37-10.41-35.76-13-41,.54-4.04.86-9.56,0-16-.83-6.22-2.48-11.3-4-15l-3,3c0-1.8-.2-4.24-1-7-1.06-3.65-2.75-6.33-4-8,1.33-.91,2.35-1.58,3-2,.92-.59,1.69-1.07,2-2,.13-.39.19-.89,0-1-.29-.17-.86.78-2,1-.41.08-.76.04-1,0,1.73-1.33,2.49-2.98,2-4-.4-.83-1.65-1.31-2-1-.35.3.38,1.2,0,2-.31.66-1.21.9-2,1,.06-.13.5-1.1,0-2-.47-.85-1.6-1.31-2-1-.34.26.1.9,0,2-.13,1.47-1.16,3.03-2,3-.94-.04-1.22-2.06-2-2-.55.04-1.04,1.11-1,2,.06,1.28,1.25,2.46,3,3-.33,7.67-.67,15.33-1,23-.59-.49-2.36-1.85-5-2-3.26-.19-5.49,1.58-6,2-.33-7.33-.67-14.67-1-22,.45-.23,1.46-.82,2-2,.59-1.31.4-2.9,0-3-.48-.12-.88,1.91-2,2-.83.07-1.87-.95-2-2-.18-1.44,1.38-2.38,1-3-.27-.44-1.32-.4-2,0-.88.51-1.32,1.72-1,3-.27-.19-.66-.51-1-1-.69-1.01-.59-1.92-1-2-.37-.07-.81.58-1,1-.39.89-.08,1.77,0,2,.47,1.33,1.73,1.89,2,2-.26.04-.6.07-1,0-1.24-.21-1.85-1.12-2-1-.19.15.46,1.9,2,3,1.12.8,2.32.97,3,1Z"/>
      <path class="cls-4" d="M22.13,25.1c6.08,4.21,9.73,11.68,10,19-1.72-7.15-4.86-13.68-10-19h0Z"/>
      <path class="cls-4" d="M17.13,50.1c12.71-3.68,24.02-11.41,32.45-21.57,1.24-1.43,2.4-2.92,3.55-4.43-7.79,13.02-20.96,23.16-36,26h0Z"/>
      <path class="cls-4" d="M71.13,103.1c-5.54-11.41-13.16-28.17-18.5-39.89-.73-1.61-1.81-3.04-3.23-4.07-1.41-1.06-3.1-1.58-4.88-1.97-7.14-1.56-14.37-2.83-21.57-4.12,0,0-10.82-1.95-10.82-1.95,7.28.9,14.53,1.96,21.77,3.16,3.62.59,7.23,1.25,10.83,2.03,3.72.57,7.32,2.94,8.81,6.5,5.23,11.82,12.73,28.52,17.59,40.31h0Z"/>
      <path class="cls-4" d="M72.13,103.1c-7.26-6.58-16.13-14.98-23.26-21.79-1.37-1.24-4.39-4.33-5.78-5.42-.68-.51-1.41-.97-2.17-1.34l.21.05c-.19,0-.31-.11-.47-.17-2.85-1.34-6.06-1.11-9.15-1.24-6.65-.17-22.53-.07-29.38-.08,9.79-.56,19.59-.92,29.39-.82,3.08.11,6.32-.14,9.23,1.12.16.07.41.16.57.24-.03-.02-.13-.05-.19-.04l.21.05c2.93,1.3,5.79,4.85,8.14,6.97,7.07,6.89,15.79,15.44,22.65,22.48h0Z"/>
      <path class="cls-3" d="M60.13,133.1c.63.75,1.63,1.84,3,3,4.72,4,8.55,4.32,11,6,2.7,1.85,5.18,6.34,4,18-1.33-.8-3.37-1.94-6-3-7.92-3.19-12.03-1.97-16-5-1.79-1.37-3.94-3.9-5-9"/>
      <path class="cls-3" d="M18.3,132.8c-.63.75-1.63,1.84-3,3-4.72,4-8.55,4.32-11,6-2.7,1.85-5.18,6.34-4,18,1.33-.8,3.37-1.94,6-3,7.92-3.19,12.03-1.97,16-5,1.79-1.37,3.94-3.9,5-9"/>
      <path class="cls-4" d="M71.13,102.1c-10.76-4.38-21.41-9.26-32.05-13.87-5.65-2.18-11.13,1.47-16.45,3.09,0,0-8.23,2.94-8.23,2.94-2.76.95-5.5,1.92-8.27,2.84,2.69-1.13,5.4-2.2,8.1-3.3l8.13-3.2c5.45-1.89,11.14-5.53,17.05-3.32,10.69,4.73,21.22,9.68,31.72,14.81h0Z"/>
      <path class="cls-3" d="M38.13,106.1c-4.86.12-11.06.28-16,5-5.23,4.99-6.77,12.91-5,19,1.89,6.51,8.13,12.91,12,14,.51.15,2.35.58,3,2,.52,1.14.12,2.56,0,3-.26.93-.7,1.6-1,2,.15.04,2.47.57,4-1,.71-.72.92-1.57,1-2,.2,1.18.68,3.08,2,5,2.38,3.47,5.84,4.66,7,5-.65-.49-2.18-1.76-3-4-1.04-2.83-.25-5.3,0-6,.16.56.64,1.94,2,3,.75.58,1.5.86,2,1-.32-.45-1.41-2.08-1-4,.29-1.38,1.21-2.25,2-3,1.36-1.29,2.72-1.88,3-2,2.77-1.24,8.58-6.15,11-12,.2-.49,3.78-9.53-1-17-5.39-8.42-17.11-8.13-22-8Z"/>
      <path class="cls-4" d="M22.13,126.1c1.59,4.7,7.36,4.61,9,0,.03,1.12-.44,2.27-1.28,3.12-2.7,2.95-7.86.86-7.72-3.12h0Z"/>
      <path class="cls-4" d="M48.34,126.33c1.59,4.7,7.36,4.61,9,0,.03,1.12-.44,2.27-1.28,3.12-2.7,2.95-7.86.86-7.72-3.12h0Z"/>
      <path class="cls-4" d="M31.13,119.1c4.6-3.33,11.4-3.33,16,0-5.25-1.98-10.75-1.98-16,0h0Z"/>
      <path class="cls-1" d="M31.13,119.1c-.58-2.73.11-4.78,1-5,.82-.2,2.13,1.05,3,3-.67.33-1.33.67-2,1s-1.33.67-2,1Z"/>
      <path class="cls-1" d="M46.66,118.95c.58-2.73-.11-4.78-1-5-.82-.2-2.13,1.05-3,3,.67.33,1.33.67,2,1s1.33.67,2,1Z"/>
      <path class="cls-4" d="M34.13,122.1c-.99,2.35,2.27,7.27,6,7,3.4-.25,6.06-4.74,5-7-.84-1.8-3.91-1.95-5-2-.44-.02-5.07-.2-6,2Z"/>
      <path d="M37.13,122.1c.15.14.05.35,0,1-.1,1.35.22,1.86,0,2-.41.26-2.25-.94-2-2,.2-.84,1.64-1.33,2-1Z"/>
      <path d="M41.87,122.09c-.15.14-.05.35,0,1,.1,1.35-.22,1.86,0,2,.41.26,2.25-.94,2-2-.2-.84-1.64-1.33-2-1Z"/>
      <path class="cls-4" d="M21.13,138.1c-.28,6.61-5.29,12.08-11.17,14.6-2.38.95-4.77,1.48-6.54,3.44-.91.86-1.64,1.88-2.3,2.97.92-2.36,2.6-4.52,4.95-5.77,7.04-2.56,13.58-7.47,15.05-15.23h0Z"/>
      <path class="cls-4" d="M56.82,137.98c1.51,8.05,8.36,13.07,15.65,15.69,2.44,1.27,4.19,3.49,5.16,5.93-.68-1.12-1.45-2.18-2.39-3.06-1.84-2.01-4.32-2.56-6.78-3.53-6.08-2.57-11.33-8.19-11.64-15.02h0Z"/>
      <path class="cls-5" d="M23.13,110.1c-.1-1.1-.17-3.43,1-6,.92-2.01,2.2-3.31,3-4,.33,1,.67,2,1,3,.17-1.09.63-3.02,2-5,1.03-1.48,2.18-2.43,3-3v4c.47-1.2,1.12-2.56,2-4,1.32-2.16,2.77-3.8,4-5-.35,1-.52,2.12,0,3,.61,1.02,1.73.97,3,2,.78.63,1.51,1.57,2,3v-3c.83.6,1.96,1.57,3,3,1.11,1.53,1.69,2.99,2,4,.33-.67.67-1.33,1-2,.91.69,1.99,1.67,3,3,2.03,2.68,2.73,5.42,3,7-.95-.58-2.3-1.32-4-2-4.67-1.88-8.63-1.96-12-2-3.53-.04-7.91-.05-13,2-1.72.69-3.08,1.44-4,2Z"/>
      <path class="cls-4" d="M6.13,104.1c1.79-3.42,4.13-6.43,7-9-1.78,3.42-4.13,6.42-7,9h0Z"/>
      <path class="cls-4" d="M22.13,91.1c-3.81,5.45-8.15,10.45-13,15,3.81-5.45,8.15-10.45,13-15h0Z"/>
      <path class="cls-4" d="M11.13,108.1c7.52-7.49,15.58-14.54,24-21-7.53,7.49-15.58,14.54-24,21h0Z"/>
    </g>
  </g>
</svg>