<?xml version="1.0" encoding="UTF-8"?>
<svg id="Layer_2" data-name="Layer 2" xmlns="http://www.w3.org/2000/svg" viewBox="0 0 358.75 443.1">
  <defs>
    <style>
      .cls-1 {
        fill: #ffeaac;
      }

      .cls-1, .cls-2, .cls-3, .cls-4, .cls-5, .cls-6, .cls-7, .cls-8, .cls-9, .cls-10 {
        stroke: #000;
        stroke-miterlimit: 10;
      }

      .cls-2 {
        fill: none;
      }

      .cls-3 {
        fill: #ffe8af;
      }

      .cls-4 {
        fill: #644300;
      }

      .cls-5 {
        fill: #603b00;
      }

      .cls-6 {
        fill: #8f5800;
      }

      .cls-11, .cls-7 {
        fill: #fff;
      }

      .cls-8 {
        fill: #190d00;
      }

      .cls-9 {
        fill: #562b00;
      }

      .cls-12 {
        fill: #333;
      }

      .cls-10 {
        fill: #683700;
      }
    </style>
  </defs>
  <g id="Layer_1-2" data-name="Layer 1">
    <g>
      <path class="cls-6" d="M229.62,332.59c.21.97,1.13,5.29,1,11-.15,6.7-1.61,9.34-2,10-1.75,3-4.24,4.51-5,5-11.93,7.73-39.14,50.61-47,47-4.21-1.93-3.02-17.28,2-29,5.72-13.36,13.62-15.53,15-25,1.88-12.93-14.93-17.78-13-27,2.4-11.48,30.08-20.59,41-11,4.76,4.18,6.48,12.04,8,19Z"/>
      <path class="cls-6" d="M217.62,319.59c-.64,4.08,3.87,8.15,7,10,10.74,6.35,28.28.14,29-6,.6-5.08-10.09-12-20-12-6.24,0-15.18,2.76-16,8Z"/>
      <path class="cls-6" d="M180.62,149.59c9.79,4.83,16.58,10.12,22,16,9.86,10.71,14.09,22.23,16,29,1.6.99,4,2.43,7,4,15.8,8.28,26.86,9.2,37,12,6.26,1.73,29.62,8.17,43,28,2.19,3.25,10.32,15.29,10,31-.22,11.1-4.46,13.99-6,32-.84,9.75-1.25,14.62,0,21,2.32,11.79,7.61,16.98,5,25-1.32,4.04-2.91,3.47-6,9-5.75,10.28-5.19,21.07-5,24,.87,13.57,7.69,20.82,4,25-1.52,1.72-4.05,2.03-6,2,2.7,6.11,1.95,13.11-2,18-4.97,6.15-14.23,8.02-22,4-2.53.64-8.65,1.91-11-1-2.23-2.76.1-7.85,3-14,11.69-24.78,13.64-26.43,16-34,2.24-7.21,5.55-17.82,1-28-1.86-4.16-4.44-6.94-13-14-6.8-5.61-16.18-12.94-28-21-6.65.21-17.16.7-30,2-41.52,4.21-54.34,11.57-76,10-12.61-.91-31.06-5.06-53-21-5.18,3.62-9.86,6.98-14,10-6.51,4.74-7.79,5.81-9,8-2.7,4.89-.93,8.01-4,12-2.41,3.13-4.36,2.31-8,5-5.24,3.87-6.83,9.91-10,22-1.77,6.76-2.66,10.13-2,14,.79,4.6,2.68,6.24,2,10-.82,4.5-3.98,4.63-5,9-1.24,5.34,2.96,7.33,2,12-1.14,5.54-8.41,9.2-14,10-8.62,1.23-14.95-4.09-16-5-3.75.03-5.3-1.16-6-2-3.24-3.85.11-13.51,9-24-.33-2.55-.42-6.17,1-10,2.03-5.5,5.7-7.47,9-11,7.41-7.93,8.37-18.86,9-26,1.07-12.14-2.61-17.97,2-24,2.16-2.83,5.05-4.26,7-5,3.33-13.33,6.67-26.67,10-40-2.81-3.85-6.16-9.55-8-17-4.83-19.55,4.48-35.87,7-40-.64-1.99-1.5-5.11-2-9-1.14-8.92.18-17.86,8-39,4.49-12.15,6.74-18.22,8-20,20.07-28.29,87.42-14.06,118,1Z"/>
      <path class="cls-10" d="M153.62,75.59c1.03-1.09,1.74-.89,5-2,6.95-2.38,8.17-4.83,14-7,0,0,4.29-1.6,10-2,13.94-.98,26.39,10.5,29,13-1.47,2.8-8.44,15.46-21,18-5.85,1.18-15.46.69-21-2-.98-.47-3-1.59-6-2-3.94-.54-5.05.76-7,0-4.54-1.76-6.76-12.03-3-16Z"/>
      <path class="cls-6" d="M77.62,165.59c-1.68-2.14-4.36-5.38-8-9-6.65-6.62-9.35-7.41-13-12-5.56-7-6.79-14.57-7-16-.34-2.25-1.85-14.11,5-23,2.66-3.45,4.43-3.66,7-8,1.96-3.31,2.77-6.3,4-12,1.52-7.05,2.34-12.13,3-16,2.87-16.91,4.32-21.5,8-24,.78-.53,2.95-2,6-2s5.09,1.35,6,2c1.47-1.1,5.37-3.72,11-4,6.84-.34,11.65,2.99,13,4,2.34-1.15,6.53-2.82,12-3,6.56-.22,11.56,1.81,14,3,.94-.89,2.3-1.86,4-2,4.89-.4,9.25,6.26,11,11,2.43,6.61.73,12.05,0,17-2.25,15.35,5.53,21.7,9,39,1.78,8.87,2.68,21.89-2,39"/>
      <path class="cls-2" d="M154.62,84.59c2.22-.07,5.49-.44,9-2,4.18-1.86,5.52-3.99,9-6,4.09-2.36,7.83-2.63,13-3,10.65-.77,20,1.79,26,4"/>
      <path class="cls-10" d="M68.62,69.59c-2.05.91-5.53,2.26-10,3-14.69,2.42-22.57-4.74-32-4-6.44.51-15.66,4.85-26,24,2.66,2.45,12.54,10.95,27,11,4.86.02,12.75.04,19-5,3.35-2.7,4.78-5.68,10-9,3.48-2.21,6.75-3.36,9-4"/>
      <path class="cls-3" d="M70.62,68.59c1.33-.69,5.34-3.04,7-8,1.1-3.26,1.23-7.81-1-11-3.27-4.69-9.64-3.66-18-5-1.92-.31-23.73-4.06-32-18-1.6-2.7-5.68-10.81-2-25-2.52,2.44-9.83,10.14-11,22-1.54,15.64,8.79,26.6,12,30,7.27,7.71,14.9,10.14,27,14,10.51,3.35,14.87,2.62,18,1Z"/>
      <path class="cls-5" d="M93.62,157.59c-.43,5.23,8.75,11.59,17,13,7.74,1.32,9.61-2.57,21-2,8.33.41,10.67,2.66,15,1,5.82-2.24,11.15-8.94,10-14-1.9-8.37-21.05-10.25-31-10-13.18.33-31.41,4.9-32,12Z"/>
      <path class="cls-3" d="M149.62,47.59c2.25-4.43,8.52-1.35,17-7,1.5-1,9.91-6.6,11-16,1.4-12.1-10.5-20.65-11-21,2.79.78,13.69,4.17,20,15,7.17,12.31,4.61,27.67-3,37-4.71,5.78-12.1,10.14-19,11-1.13.14-2.01.16-3,0-8.09-1.31-14.88-13.31-12-19Z"/>
      <circle class="cls-7" cx="90.66" cy="80.21" r="12.04"/>
      <circle class="cls-12" cx="90.41" cy="79.85" r="9.27"/>
      <circle cx="90.49" cy="80.53" r="5.62"/>
      <circle class="cls-11" cx="85.15" cy="74.32" r="3.8"/>
      <path class="cls-4" d="M133.62,147.59c-3.28,2.6-8.3,5.92-15,8-18.44,5.73-44.55.53-49-14-2.37-7.74,1.96-16.33,6-21,1.95-2.25,5.49-5.52,25-11,13.99-3.93,20.98-5.89,27-6,12.29-.22,10.63,3.4,35,7,3.91.58,7.91,1.07,12,4,7.13,5.11,8.74,13.51,9,15,1.43,8.19-1.12,18.99-9,24-6.24,3.97-13.21,2.66-22,1-8.48-1.6-14.96-4.7-19-7Z"/>
      <circle class="cls-7" cx="150.3" cy="79.66" r="12.04"/>
      <circle class="cls-12" cx="150.05" cy="79.29" r="9.27"/>
      <circle cx="150.12" cy="79.97" r="5.62"/>
      <circle class="cls-11" cx="144.79" cy="73.77" r="3.8"/>
      <path class="cls-4" d="M174.62,122.59c.51-.89,5.82-10.54,1-20-.51-.99-3.09-6.06-8-8-8.02-3.17-20.28,2.74-28,16"/>
      <path class="cls-4" d="M116.62,114.59c-1.29-2.28-6.46-10.81-17-14-3.06-.93-13.17-3.99-20,2-5.81,5.1-7.21,14.95-3,24"/>
      <ellipse class="cls-8" cx="96.05" cy="118.01" rx="9.74" ry="14.65" transform="translate(-55.98 111.69) rotate(-48.47)"/>
      <ellipse class="cls-8" cx="161.12" cy="113.89" rx="12.69" ry="8.44" transform="translate(-25.73 177.27) rotate(-53.99)"/>
      <path class="cls-6" d="M127.62,71.59c.64,1.01,3.04,4.51,7,5,2.62.32,4.78-.82,7-2,4.38-2.33,4.17-4.12,7-5,4.49-1.39,7.09,2.49,10,1,3.02-1.55,4.06-7.72,2-12-2.27-4.71-8.42-7.37-15-6"/>
      <path class="cls-6" d="M115.62,67.59c.71,1.19,1.56,3.11,1,5-1.14,3.83-7.37,5.01-11,5-5.12-.02-10.92-2.43-15-6-1.69-1.48-3.14-3.2-6-4-2.35-.65-4.51-.36-6,0"/>
      <path class="cls-1" d="M107.62,116.59c3.96,8.59,12.6,14.08,22,14,9.64-.09,18.34-6.02,22-15,7.29,3.54,8.86,6.8,9,9,.49,7.78-15.92,16.96-31,17-11.61.03-27.17-5.34-28-14-.15-1.6-.03-5.66,6-11Z"/>
      <path class="cls-6" d="M131.62,281.59c-.09,16.76,4.05,26.32,8,32,1.43,2.05,5.6,7.61,9,16,1.78,4.4,2.85,7.11,3,11,.24,6.06-1.99,8.37-1,13,.56,2.63,2.11,5.78,6,9,5.19,24.16,4.32,32.99,2,36-.37.48-2.19,2.65-3,6-.79,3.28-.19,5.98,0,7,1.93,10.31-6.48,17.19-3,24,3.36,6.58,14.68,6.97,16,7,4.43.1,7.95-1.11,10-2,8.66-1.22,11.21-3.89,12-6,1.53-4.07-3.01-7.26-4-16-.63-5.57,1-6.21,1-12,0-9.41-4.27-13.23-7-22-1.65-5.3-2.98-13.2-1-24,2.12-2.44,4.69-6.21,5-11,.46-7-4.28-10.12-5-17-.77-7.39,3.82-12.13,7-18,4-7.37,7.29-19.33,3-39"/>
      <path d="M132.53,296.09c-13.39-2.44-20.74-12.36-21.26-25.66-.49-12.02,3.95-23.82,10.35-33.83-6.23,10.07-10.49,21.85-9.85,33.81.68,12.93,7.86,22.52,20.94,24.7,0,0-.19.98-.19.98h0Z"/>
      <path class="cls-9" d="M337.62,197.59c1.89-.21,1.99-3.24,5-8,4.16-6.58,7.45-6.27,11-11,4.81-6.41,5.97-16.55,3-24-2.75-6.88-7.56-7.79-9-15-.9-4.49.1-8.47,1-11-2.69,1.65-4.15,3.49-5,5-1.31,2.34-1.81,5.05-2,5-.15-.04.12-1.57.12-1.57s.77-4.5.88-12.43c.07-5.2-1.15-9.22-2-12-1.43-4.68-3.36-8.37-5-11-.47,2.55-1.33,6.44-3,11-2.37,6.47-4.44,9.03-6,13-1.62,4.14-2.98,10.57-1,20-.84-.77-2.09-2.09-3-4-3.85-8.06,2.38-17.83,2-18-.44-.19-10.97,12.21-10,29,.55,9.47,4.58,17.26,6,20,1.94,3.75,2.14,2.89,7,11,5.81,9.69,7.62,14.26,10,14Z"/>
      <path d="M191.34,291.18c9.38-6.12,14.94-17.41,14.28-28.59.99,11.34-4.35,22.87-13.72,29.41,0,0-.57-.82-.57-.82h0Z"/>
      <path class="cls-6" d="M308.62,243.59c4.3,3.12,13.37,8.62,25,8,4.4-.24,10.88-.59,14-5,3.63-5.13.57-12.9-3-22-5.44-13.84-10.32-16.54-12-26-1.39-7.83.41-14.67,2-19,.05,3.99.51,10.52,3,18,3.89,11.68,9.14,14.83,15,29,4.04,9.77,6.17,15.16,4,21-3.17,8.53-13.2,11.77-17,13-11.19,3.62-21.1.49-25-1"/>
      <path class="cls-2" d="M66.62,79.59c-1.12.68-2.81,1.54-5,2-4.65.97-8.55-.5-10-1,0,0-4.26-1.47-21-2-6.51-.21-16.55,1.89-30,14"/>
    </g>
  </g>
</svg>