<?xml version="1.0" encoding="UTF-8"?>
<svg id="Layer_2" data-name="Layer 2" xmlns="http://www.w3.org/2000/svg" viewBox="0 0 148.49 171.64">
  <defs>
    <style>
      .cls-1 {
        fill: #a8ff39;
      }

      .cls-2 {
        fill: #6bb6ff;
      }

      .cls-3 {
        fill: #6cc5ef;
      }

      .cls-4 {
        fill: #fffabe;
      }

      .cls-5 {
        fill: #fff;
      }

      .cls-6 {
        fill: none;
      }

      .cls-7 {
        fill: #ffbe2b;
      }

      .cls-8 {
        fill: #fec;
      }

      .cls-9 {
        fill: #4f9eff;
      }

      .cls-10 {
        fill: #333;
      }

      .cls-11 {
        fill: #ff6047;
      }

      .cls-12 {
        fill: #5b9ce9;
      }

      .cls-13 {
        fill: #9be90a;
      }

      .cls-14 {
        fill: #8ce125;
      }

      .cls-15 {
        fill: #84d9ff;
      }
    </style>
  </defs>
  <g id="Layer_1-2" data-name="Layer 1">
    <g>
      <path class="cls-2" d="M83.62,109.44c-1.6.67-4.05,1.7-7,3C30.69,132.72,5.02,156,.62,151.44c-1.54-1.59.17-5.89,1-8,2.17-5.49,6.57-8.58,9-10,.35-1.23.95-3.01,2-5,2.6-4.92,6.19-7.8,6-8-.14-.15-1.96,1.51-4,3-3.21,2.35-10.19,6.65-12,5-1.41-1.28.67-5.81,2-8,2.68-4.4,6.78-6.39,8-7,28.94-14.55,29.04-14.7,31-15,19.41-2.96,35.34,7.64,40,11Z"/>
      <path class="cls-13" d="M62.62,37.44c-.77.18-2.48.59-4,2-1.1,1.02-1.68,2.18-2,3-2.3.97-5.52,2.53-9,5-7.79,5.54-14.11,13.68-13,15,.29.34,1.2.39,4-1-1.6,1.99-3.84,5.02-6,9-2.09,3.86-3.11,6.74-4,9-3.16,8.03-5.76,10.76-9,17-5.39,10.36-9.87,25.23-7,27,2.69,1.66,11.39-8.41,21-19,41.66-45.87,62-58.84,58-66-3.89-6.95-26.88-1.5-29-1Z"/>
      <path class="cls-11" d="M145.62,18.44c.14-1.23.3-2.58,0-4-1.97-9.46-23-17.9-40-13-6.58,1.9-17.45,7.21-24,17-2.59,3.87-4.88,9.01-11,13-3.77,2.46-7.48,3.5-10,4,.94.87,2.99,2.5,6,3,6.09,1.01,10.55-3.53,11-4-.48.96-1.92,3.53-5,5-1.57.75-3.02.95-4,1,.44.55,2.11,2.48,5,3,3.83.69,6.63-1.68,7-2,.07,1.01.3,2.45,1,4,1.08,2.38,2.71,3.72,3,4,5.31,5.21-32.48,56.98-23,70,.71.98,2.09,2.28,5,3-.16,2.39,1.02,3.97,2,4,.75.02,1.54-.87,2-2-.08.6-.28,2.59,1,4,.31.35,1.16,1.28,2,1,.62-.21,1.05-1.02,1-2,.17.38.75,1.57,2,2,0,0,.91.32,2,0,1.96-.57,3.46-5.89,4-13,2.32-1.01,5.51-2.59,9-5,11.71-8.1,17.06-18.88,20-25,1.49-3.1,6.66-14.06,8-28,.32-3.29.21-4.55,1-7,2.14-6.62,6.24-7.76,16-18,5.72-6,8.42-9.92,9-15Z"/>
      <path class="cls-1" d="M38.62,87.44c-.26-.38,2.49-1.85,4-5,.86-1.79.94-3.35,1-4,.44-4.74,4.58-12.68,9-18,7.42-8.93,16.94-12.04,20-13,6.32-1.98,19.03-5.96,28,1,8.62,6.68,8.2,19.14,8,25-.61,18.12-13.11,29.67-17,32-.95.57-2.8,1.44-4,2-5.43,2.55-6.96,2.61-8,2-.54-.32-.86-.77-1-1-4.08,3.63-8.27,4.53-10,3-.32-.29-1.02-1.06-1-3-5.2,4.28-10.07,5.7-12,4-.41-.36-1.01-1.15-1-3-6.76,5.1-10.76,7.1-12,6-.95-.85-.28-3.51,2-8-11.41,9.54-14.18,9.71-15,9-1.56-1.34,1.75-7.72,5-14,4.01-7.74,8.01-13.81,11-18-.93.51-2.29,1.24-4,2-1.51.68-2.83,1.26-3,1Z"/>
      <path class="cls-15" d="M42.62,129.44c-1.49,6.32-6.62,26.8-14,35-1.42,1.57-4.13,4.59-7,4-2.23-.46-3.5-2.89-4-4-3.31,5.32-7.42,8-10,7-1.25-.48-1.86-1.71-2-2-1.37-2.75.36-6.09,3-11,3.64-6.78,5.78-10.75,7-13,2.32-1.31,4.66-2.64,7-4,6.86-3.97,13.53-7.97,20-12Z"/>
      <path class="cls-7" d="M81.62,124.44c.71-.18,1.8-.34,3,0,1.93.54,2.37,1.88,4,2,1.13.08,1.37-.53,3-1,1.76-.51,3.67-.43,5,0,3.72,1.2,5.87,6.07,5,7-.57.61-2-.99-5-1-3.92-.02-6.7,2.7-7,3-.29.29-3.09,3.19-3,7,.03,1.44.45,2.01,0,3-.82,1.78-3.6,2.95-5,2-.72-.49-.89-1.41-1-2-.33-1.83.46-2.59,1-5,.71-3.16-.12-4.16,1-6,.61-1,1.42-1.63,2-2-.08-.43-.29-1.28-1-2-1.53-1.57-3.85-1.04-4-1"/>
      <path class="cls-7" d="M72.62,129.44c-.93,1.17-1.57,2.22-2,3-1.15,2.11-1.05,2.78-1,3,.22,1.03,1.02,1.17,1,2-.03.91-1.03,1.76-2,2-1.58.4-2.85-.85-3-1-1.42-1.44-1.06-3.64-1-4,.24-1.43.93-2.03,3-5,.88-1.26,1.57-2.32,2-3"/>
      <path class="cls-4" d="M82.62,143.44c.35.06-.47,2.61,1,5,.59.95,1.36,1.58,2,2-1.55.35-3.12.01-4-1-1.89-2.16.55-6.08,1-6Z"/>
      <path class="cls-8" d="M130.62,21.44c-.56-.73-1.21-1.83-1-3,.28-1.53,1.8-1.84,2-3,.37-2.14-4.2-4.57-5-5-2.58-1.38-7.16-3.81-12-2-2.95,1.1-4.65,3.28-6,5-.98,1.25-2.42,3.13-3,6-.42,2.1-.22,3.88,0,5-3.35,1.75-4.06,3.07-4,4,.1,1.5,2.22,1.72,3,4,.67,1.97-.61,2.69,0,5,.65,2.47,2.68,3.8,3,4,2.19,1.39,4.42,1.09,5,1"/>
      <path class="cls-4" d="M65.62,136.44c.39.17-.34,1.68,0,4,.19,1.3.64,2.32,1,3-1.87-.85-3.06-2.42-3-4,.06-1.72,1.58-3.18,2-3Z"/>
      <path class="cls-9" d="M144.62,18.44c.46.79,7.79,13.91,1,26-3.36,5.98-8.57,8.86-11,10,.84-1.95,1.73-4.67,2-8,.12-1.47.09-2.81,0-4-1.39,1.49-5.15,5.11-11,6-1.31.2-9.63,1.31-12-3-2.03-3.69,1.42-9.3,4-12,2.64-2.76,4.25-2.34,8-6,3.03-2.95,3.04-4.25,5-6,2.21-1.97,6.21-3.88,14-3Z"/>
      <path class="cls-5" d="M136.62,42.44c-.01.28-5.44,1.3-7-1-.72-1.06-.1-2.06,0-4,.28-5.61-4.32-9.77-4-10,.23-.16,2.64,1.78,4,5,.77,1.83.68,2.83,2,6,.61,1.45,1.08,2.33,2,3,1.46,1.06,3.01.85,3,1Z"/>
      <path class="cls-14" d="M67.62,108.44c5.21-6.5,9.48-13.45,13-21-2.19,8.02-6.79,15.48-13,21h0Z"/>
      <path class="cls-14" d="M78.62,108.44c5.26-5.8,9.77-12.69,10.72-20.61.16-1.12.15-2.25.28-3.39.1,1.13.2,2.28.2,3.43-.2,8.15-4.95,15.6-11.2,20.57h0Z"/>
      <path class="cls-6" d="M86.62,107.44c2.46-2.16,6.25-6.06,9-12,3.99-8.63,3.45-16.53,3-20"/>
      <path class="cls-14" d="M54.62,109.44c4.93-5.99,9.01-12.64,11.81-19.88.43-1.02.8-2.07,1.19-3.12-.18,1.1-.45,2.19-.73,3.28-2.12,7.54-6.36,14.56-12.27,19.72h0Z"/>
      <path class="cls-14" d="M44.62,107.44c4.43-6.65,8.06-13.57,11-21-1.59,7.81-5.5,15.24-11,21h0Z"/>
      <path class="cls-12" d="M10.62,133.44c10.3-6.58,21.03-12.61,32-18-10.3,6.58-21.03,12.61-32,18h0Z"/>
      <path class="cls-3" d="M17.62,164.44c2.35-8.53,5.37-16.93,9-25-2.35,8.53-5.37,16.93-9,25h0Z"/>
      <circle class="cls-5" cx="116.49" cy="18.21" r="9.24"/>
      <circle class="cls-10" cx="116.37" cy="17.89" r="7.11"/>
      <circle cx="116.3" cy="18.41" r="4.31"/>
      <circle class="cls-5" cx="113.42" cy="12.83" r="2.91"/>
    </g>
  </g>
</svg>