<?xml version="1.0" encoding="UTF-8"?>
<svg id="Layer_2" data-name="Layer 2" xmlns="http://www.w3.org/2000/svg" viewBox="0 0 298.97 249.21">
  <defs>
    <style>
      .cls-1 {
        fill: #fff;
      }

      .cls-2 {
        fill: none;
      }

      .cls-3 {
        fill: #333;
      }

      .cls-4 {
        fill: #999;
      }

      .cls-5 {
        fill: #b4b4b4;
      }

      .cls-6 {
        fill: #ebebeb;
      }

      .cls-7 {
        fill: #ccc;
      }
    </style>
  </defs>
  <g id="Layer_1-2" data-name="Layer 1">
    <g>
      <path class="cls-7" d="M80.07,185.19c1.24,5.16,1.22,9.26,1,12-.53,6.46-2.51,8.82-2,15,.26,3.15.53,6.44,3,9,3.11,3.23,8.23,3.69,11,3,7.6-1.88,12.5-16.04,12-35"/>
      <path class="cls-7" d="M201.07,170.19c1.73,3.2.49,9.47-2,22,0,0-4.06,20.22-12,26-4.51,3.28-5.23,1.06-14,5-13.21,5.94-16.27,13.1-23,12-4.38-.71-7.09-4.4-9-7-7.87-10.71-6.14-27.95,1-32,1.47-.84,3.65-1.22,8-2,3.69-.66,6.81-.9,9-1-.84-1.86-1.8-4.6-2-8-.48-8.02,3.44-16.42,10-21,11.26-7.85,28.88-3.47,34,6Z"/>
      <path class="cls-7" d="M263.07,144.19c-5.12-23.44-23.68-36.19-36-58-2.4-4.25-5.35-10.23-6-18-.43-5.15.63-5.25,0-9-1.32-7.83-6.88-12.77-15-20-6.3-5.61-10.06-7.26-12-8-3.58-1.36-6.78-1.83-9-2-2.46-3.85-7.48-10.41-16-14-11.43-4.82-22.28-1.39-33,2-7.38,2.33-19.46,7.23-32,18-6.21-.1-14.87.2-25,2-9.74,1.73-26.08,4.63-38,13-29.55,20.76-27.01,71.72-24,88,1.12,6.06,4.89,26.48,10,36,.67,1.25,2.26,3.98,3,8,.85,4.63-.18,6.76,0,12,.19,5.51,1.43,5.71,2,11,1.16,10.68-3.47,13.68-1,18,3.22,5.64,13.79,5.21,19,5,6.18-.25,13-.54,16-5,3.05-4.55-.38-9.72-2-21-1.25-8.75-.69-16.12,0-21,2.95,1.08,6.29,2.12,10,3,4.38,1.04,8.43,1.65,12,2,.63,1.52,1.82,3.83,4,6,0,0,1.74,1.74,4,3,6.73,3.77,23.65,1.1,39-1,6.74-.92,10.82-1.47,16-4,4.61-2.25,7.92-5.01,10-7,2.37-.87,5.63-2.37,9-5,4.06-3.17,6.57-6.64,8-9,1.26-.05,3.03-.26,5-1,3-1.13,4.97-2.91,6-4,2.25-.06,5.65.17,9,2,4.07,2.22,4.77,5.01,8,8,2.51,2.32,7.04,3.58,16,6,9.84,2.66,14.86,3.96,20,3,4.86-.91,8.33-2.98,10-4,1.06-.65,7.3-4.53,11-11,5.14-8.99,3.09-18.99,2-24Z"/>
      <path class="cls-6" d="M80.07,217.19c.42-.19,3.17-1.36,6,0,2.54,1.22,4.12,3.98,4,7-.41-4.07.9-7.29,3-8,.42-.14,1.08-.25,2,0-.27.93-.63,2.31-1,4-.67,3.08-.51,3.48-1,4-1.81,1.94-7.86.75-11-3-1.26-1.5-1.77-3.08-2-4Z"/>
      <path class="cls-1" d="M230.07,113.19c-4.51,4.34-2.81,14.52,1,21,3.78,6.44,11.41,12.25,20,12,5.84-.17,10.85-3.11,17-9,21.73-20.84,27.57-49.75,29-58,1.52-8.75,2.87-21.86,1-38-6.03,13.11-12.72,23.09-18,30-12.6,16.51-33.56,37.16-46,40-.64.15-2.46.52-4,2Z"/>
      <path class="cls-1" d="M221.07,83.19c1.68-.91,3.48-.35,5,0,4.97,1.15,12.37,1.33,23-3-.42,5.1-1.69,11.45-5,18-2.97,5.87-6.34,12.54-12,13-5.88.47-10.35-6.06-11-7-5.05-7.36-4.45-18.57,0-21Z"/>
      <path class="cls-4" d="M208.07,41.19c-.44-4.26-.07-8.77,2-13,2.53-5.17,5.47-5.55,10-12,5.18-7.38,4.91-11.96,7-12,3.33-.06,7.14,11.51,7,22-.07,4.97-.18,12.81-6,19-3.48,3.69-7.57,5.28-10,6-1.17-1.77-2.79-3.88-5-6-1.76-1.69-3.49-3-5-4Z"/>
      <path class="cls-7" d="M174.07,40.19c-.38-5.13-1.77-13.19-7-21-10.27-15.33-30.29-22.13-34-18-2.15,2.39,2.8,6.63,4,20,.73,8.08-.76,10.12,1,14,1.81,3.99,6.44,8.59,19,11"/>
      <path class="cls-4" d="M141.07,23.19c.07,1.31.53,6.76,5,11,6.1,5.78,14.26,4.16,15,4,.44-2.17,1.84-10.47-3-19-5.57-9.8-15.21-12.53-17-13"/>
      <path class="cls-7" d="M93.07,180.19c1.63,8.56,2,15.76,2,21,0,12.32-.01,18.86-3,27-2.19,5.98-4.97,10.03-3,14,1.84,3.71,6.6,4.91,7,5,3.97.94,7.15-.56,8-1,2.15.66,5.24,1.47,9,2,8.08,1.14,15.66,2.22,19-2,3.11-3.93,1.11-10.63,1-11-.59-1.89-1.21-2.4-2-4-1.2-2.41-2.05-5.82,0-18,.63-3.71,1.56-8.48,3-14,2.21-1.33,3.36-2.84,4-4,3.13-5.67.4-14.57-7-22"/>
      <path class="cls-5" d="M92.07,194.19c-7.69-5.33-10.07-16.01-6.67-24.51.48-1.2.99-2.39,1.67-3.49-.47,1.2-.89,2.4-1.2,3.64-2.57,8.54-.4,18.22,6.2,24.36h0Z"/>
      <path class="cls-5" d="M139.07,186.19c3.91-16.32-3.55-14.97-7.19-27.77-.36-1.4-.66-2.81-.81-4.23.73,2.77,1.68,5.46,2.95,8,1.25,2.61,2.92,4.79,4.59,7.17,3.33,4.99,2.6,11.55.47,16.83h0Z"/>
      <path class="cls-5" d="M64.07,181.19c-16.78-9.17-26.89-28.1-27-47,.24,2.34.55,4.67,1,6.97,2.85,16.17,12.21,31,26,40.03h0Z"/>
      <path class="cls-4" d="M18.07,88.19c-6.5,4.25-10.12,9.04-12,12C-2.11,113.07-.02,127,1.07,134.19c.99,6.58,3.06,13.13,4,13,.9-.12-.05-6.27,1-17,1.38-14.06,4.67-20.43,7-24,1.14-1.75,2.23-3.1,3-4,.26-2.57.59-5.24,1-8,.31-2.06.64-4.06,1-6Z"/>
      <path class="cls-4" d="M5.07,147.19c-1.31.34-1.63,3-2,6-.83,6.82,1.08,13.07,2,13,.8-.06.62-4.8,2-5,.77-.11,1.57,1.27,2,2,2.08,3.58,1.55,6.95,2,7,.5.06,2.33-3.98,2-9-.49-7.48-5.62-14.63-8-14Z"/>
      <path class="cls-5" d="M187.07,164.19c-19.68-2.53-36.25-16.8-41.69-35.89-1.81-6.2-2.67-12.69-2.31-19.11.06,6.4,1.09,12.79,3.05,18.88,5.74,18.72,21.8,32.53,40.95,36.12h0Z"/>
      <path class="cls-5" d="M128.07,82.19c-1.03,22.87,4.19,45.83,15,66-1.52-2.43-2.9-4.94-4.21-7.49-9.01-17.95-12.91-38.51-10.79-58.51h0Z"/>
      <path class="cls-5" d="M122.07,78.19c-.07,9.08.33,18.13,1.51,27.13,0,0,.49,3.87.49,3.87-2.8-10.03-3.49-20.69-2-31h0Z"/>
      <path class="cls-5" d="M71.07,57.19c-13.45,10.36-23.13,25.44-26.44,42.13-1.16,5.53-1.64,11.2-1.56,16.87-.25-2.83-.29-5.68-.17-8.53.87-20,11.47-39.35,28.17-50.47h0Z"/>
      <path class="cls-5" d="M48.07,71.19c-5.15,10.4-8.76,21.55-10.36,33.05-.26,1.64-.44,3.29-.64,4.95-.03-1.67.05-3.33.15-5,.87-11.65,4.55-23.15,10.85-33h0Z"/>
      <path class="cls-2" d="M104.07,35.19c-3,2.33-6,4.67-9,7"/>
      <path class="cls-5" d="M207.07,164.19c-3.55-8.8,6.11-14.14,13.78-13.46,1.09.09,2.16.22,3.22.46-1.08-.01-2.15-.05-3.22.03-7.28.24-15.83,4.41-13.78,12.97h0Z"/>
      <path class="cls-3" d="M229.07,161.19c.35-1.13-3.21-4.23-7-4-2.12.13-4.92,1.33-5,3-.06,1.29,1.52,2.63,3,3,1.29.32,1.8-.25,5-1,3.03-.71,3.84-.5,4-1Z"/>
      <path class="cls-5" d="M246.07,161.19c2.31,5,1.91,11.32-1,16,1.58-5.29,1.93-10.56,1-16h0Z"/>
      <path class="cls-6" d="M31.07,217.19c3.02-.12,5.78,1.46,7,4,1.36,2.83.19,5.58,0,6,.14-.53,1.22-4.31,5-6,.61-.27,3.82-1.7,7,0,2.47,1.32,3.99,4.03,4,7,0,.76,0-4.26,2-7,2.12-2.9,6.7-3.32,11-3,.29,1.01.55,2.5,0,4-1.92,5.21-11.86,5.64-20,6-1.16.05-6.43.23-12-2-1.85-.74-3.2-1.53-4-3-1.34-2.46-.3-5.25,0-6Z"/>
      <path class="cls-6" d="M91.07,231.19c2.38-.05,4.03.54,5,1,6.79,3.19,7.95,13.05,8,14,0,.08,0,.12.01.12.14,0,.1-5.28,2.99-8.12,1.8-1.77,4.59-2.43,7-2,2.63.47,4.22,2.15,5,3,3.49,3.79,3.11,8.85,3,10-.62-6.81,1.64-12.75,6-15,.91-.47,2.22-.94,4-1,.76,1.95,3.27,8.96,0,13-3.39,4.18-11.29,3.08-19,2-3.79-.53-6.87-1.35-9-2-1.4.61-3.5,1.24-6,1-3.49-.33-7.94-2.39-9-6-.37-1.26-.22-2.35,0-4,.36-2.67,1.3-4.73,2-6Z"/>
      <path class="cls-6" d="M142.07,196.19c1.68.14,3.04,3.38,3,6-.08,5.63-6.66,8.84-7,9,3.82.55,6.96,3.31,8,7,1.02,3.62-.15,7.52-3,10,1.47-.41,4.9-1.15,9,0,3.57,1,5.9,2.95,7,4-1.65,1.26-5.01,3.42-9,3-8.29-.88-12.03-12.09-13-15-.49-1.46-2.85-8.94,0-17,.31-.88,2.55-7.21,5-7Z"/>
      <path class="cls-2" d="M176.07,169.19c-.94.43-2.71,1.08-5,1-3-.1-5.13-1.4-6-2"/>
      <circle class="cls-1" cx="196.89" cy="111.46" r="13.43"/>
      <circle class="cls-3" cx="196.6" cy="111.07" r="10.34"/>
      <circle cx="196.71" cy="111.82" r="6.27"/>
      <circle class="cls-1" cx="190.49" cy="105.14" r="4.23"/>
    </g>
  </g>
</svg>