<?xml version="1.0" encoding="UTF-8"?>
<svg id="Layer_2" data-name="Layer 2" xmlns="http://www.w3.org/2000/svg" viewBox="0 0 124.08 167.5">
  <defs>
    <style>
      .cls-1 {
        fill: #fff;
      }

      .cls-2 {
        fill: none;
      }

      .cls-3 {
        fill: #3f1400;
      }

      .cls-4 {
        fill: #9e725c;
      }

      .cls-5 {
        fill: #333;
      }

      .cls-6 {
        fill: #aa8676;
      }

      .cls-7 {
        fill: #9c7464;
      }

      .cls-8 {
        fill: #ece6dc;
      }
    </style>
  </defs>
  <g id="Layer_1-2" data-name="Layer 1">
    <g>
      <path class="cls-3" d="M118.71,109.52c1.79,2.3,3.57,4.6,5.36,6.89-2.81-1.02-5.62-2.04-8.42-3.06"/>
      <path class="cls-6" d="M107.99,84.25c3.08-2.01,9.45-6.18,13.02-13.02,5.16-9.88,2.22-21.01-1.53-35.23-2.27-8.59-4.49-12.7-5.36-22.21-.53-5.79-.29-10.6,0-13.79-1.7,1.59-3.69,3.85-5.36,6.89-4.21,7.68-3.53,15.28-3.06,18.38-2.17-4.57-3.42-4.66-3.83-4.6-1.7.27-2.33,5.36-2.3,8.42.04,3.29.85,5.94,1.53,7.66-1.18-2.16-2.2-3.18-3.06-3.06-1.49.2-2.51,3.78-3.06,10.72-1.28-1.74-2.31-2.5-3.06-2.3-1.38.37-1.89,3.95-1.53,10.72-1.29-2.21-2.31-3.23-3.06-3.06-1.3.29-1.81,4.12-1.53,11.49-2.33-2.45-3.35-2.52-3.83-2.3-1.51.7-.6,5.7,0,8.42-1.37-.98-3.72-2.35-5.36-1.53-2.59,1.29-2.3,7.41-.77,11.49,2.7,7.16,10.98,12.55,19.15,12.25,5.11-.19,8.73-2.55,13.02-5.36Z"/>
      <path class="cls-7" d="M117.18,29.1c-.77,1.21-1.6,2.74-2.3,4.6-1.12,3.01-1.46,5.71-1.53,7.66-.07-.14-1.21-2.47-2.3-2.3-.32.05-.86.35-1.53,3.06-.39,1.59-.81,3.93-.77,6.89-.15-.35-.69-1.46-1.53-1.53-1.04-.09-1.86,1.48-2.3,2.3-.69,1.3-1.93,4.4-.77,9.96-.72-3.27-1.92-5.38-3.06-5.36-1.21.02-2.06,2.41-2.3,3.06-1.3,3.64-.1,7.25.77,9.19-.2-.44-2.24-4.92-3.83-4.6-.97.2-1.34,2.11-1.53,3.06-.31,1.56-.62,4.84,1.53,9.19-3.57-3.11-5.09-2.44-5.36-2.3-2.01,1.03-1.49,6.36,0,9.96.7,1.69,1.43,3.45,3.06,4.6,5.1,3.57,14.83-1.8,19.91-6.13,1.63-1.39,5.86-5.07,8.42-11.49,3.24-8.08,1.8-15.39,0-24.51-1.25-6.34-3.05-11.53-4.6-15.32Z"/>
      <path class="cls-8" d="M113.35,98.04c1.74,1.34,4.58,3.93,6.89,8.42-.93,2.28-3.27,7.07-8.42,10.72-8.61,6.11-18.21,4.2-19.91,3.83-6.79-1.21-16.12-3.68-26.04-9.19-7.15-3.97-14.19-9.28-13.79-9.96.23-.38,2.97.54,13.79,6.13,6.67,2.07,11.02,1.2,13.79,0,4.11-1.79,7.89-5.06,10.72-7.66,1.14-1.05,2.72-2.6,5.36-3.83.56-.26,2.55-1.15,5.36-1.53,1.77-.24,4.94-.63,8.42.77,1.73.69,2.86,1.55,3.83,2.3Z"/>
      <path class="cls-6" d="M86.55,104.93c.04.06,2.26,3.77,2.3,3.83,2.05,3.41,2.27,3.78,2.3,3.83,1.76,2.96,1.74,18.14-9.19,32.17-11.72,15.04-28.31,18.89-36,20.68-10.35,2.41-23.54,3.08-24.51,0-.61-1.95,3.78-5.17,6.13-6.89,3.86-2.83,7.65-4.04,9.96-4.6-.86-.04-3.32-.23-3.83-1.53-.67-1.72,2.49-4.27,3.83-5.36,1.83-1.48,5.01-3.55,9.96-4.6-3.27.83-4.3.5-4.6,0-.7-1.17,1.99-4.32,4.6-6.13,2.02-1.4,4.02-2.01,5.36-2.3-.94.32-3.02.9-3.83,0-1.04-1.17.51-4.32,2.3-6.13,1.35-1.36,2.86-1.99,3.83-2.3-.53-.38-1.49-1.21-1.53-2.3-.06-1.65,2.04-3.6,5.36-3.83-.38-.62-1.2-2.17-.77-3.83.82-3.14,6.31-3.72,7.5-3.82.07,0,.05,0,.16-.01,3.98-.32,6.04-1.4,9.19-2.3,4.16-1.19,4.23-.47,6.89-1.53,1.16-.46,2.82-1.33,4.6-3.06Z"/>
      <path class="cls-6" d="M36.76,83.48c-6.92-5.52-15.05-13.05-22.98-22.98-5.86-7.34-10.35-14.43-13.79-20.68,3.95,4.57,10.18,10.73,19.15,16.08,7.55,4.51,14.6,7,19.91,8.42-3.17-5.49-6.43-12.13-9.19-19.91-5.19-14.63-6.65-27.81-6.89-37.53,1.07,8.37,3.99,22.51,13.02,37.53,7.67,12.74,16.74,21.13,22.98,26.04,5.31.72,13.08,2.44,21.45,6.89,5.57,2.96,9.88,6.32,13.02,9.19,2.35-1.03,7.21-2.7,13.02-1.53,1.32.27,12.03,2.59,14.55,11.49,1.24,4.38-.08,8.28-.77,9.96-.55-1.16-4.84-9.89-13.79-11.49-4.98-.89-9.13.84-10.72,1.53-6.41,2.77-7.31,6.99-11.49,9.96-10.13,7.2-27.54-1.49-29.1-2.3-16.86-8.67-20.88-27.05-21.45-29.87,3.08,2.81,7.39,6.19,13.02,9.19,6.46,3.44,12.43,5.19,16.85,6.13"/>
      <path class="cls-7" d="M91.91,121.01c.38-4.38.74-8.4-1.53-9.96-3.79-2.6-12.76,3.15-12.25,5.36.22.97,2.29,1.37,4.6,1.53-1.46.53-3.68,1.46-6.13,3.06-1.94,1.27-4.11,2.68-3.83,3.83.28,1.16,2.94,1.46,3.83,1.53-1.58.88-3.84,2.33-6.13,4.6-1.44,1.43-3.61,3.57-3.06,4.6.66,1.24,4.9.12,5.36,0-1.64.91-3.88,2.36-6.13,4.6-1.68,1.68-4.61,4.6-3.83,6.13.74,1.44,4.45.91,5.36.77-2.43.62-6.59,2.01-10.72,5.36-5.13,4.15-7.46,9.07-8.42,11.49,5.4-1.04,11.84-3.04,18.38-6.89,4-2.35,13.73-8.21,19.91-19.91.6-1.14,3.84-7.41,4.6-16.08Z"/>
      <path class="cls-4" d="M37.53,153.95c6.91-2.19,14.18-3.42,21.45-3.06-7.18,1.03-14.25,2.21-21.45,3.06h0Z"/>
      <path class="cls-4" d="M47.49,142.46c5.97-2.53,12.75-3.36,19.15-2.3-6.5.34-12.75,1.1-19.15,2.3h0Z"/>
      <path class="cls-4" d="M52.85,134.03c5.37-2.73,11.64-3.83,17.62-3.06-6.01.63-11.75,1.63-17.62,3.06h0Z"/>
      <path class="cls-4" d="M55.14,125.61c5.44-2.47,11.98-2.76,17.62-.77-5.97-.61-11.73-.36-17.62.77h0Z"/>
      <path class="cls-4" d="M58.97,119.48c6.1-3.08,13.8-3,19.91,0-6.63-1.64-13.3-1.73-19.91,0h0Z"/>
      <path class="cls-2" d="M113.35,41.36c.21,1.91.64,4.28,1.53,6.89,1.12,3.27,2.59,5.83,3.83,7.66"/>
      <path class="cls-2" d="M108.76,49.02c-.01,2.23.24,5.5,1.53,9.19.9,2.57,2.05,4.62,3.06,6.13"/>
      <path class="cls-2" d="M104.16,59.74c-.02,1.4.14,4.02,1.53,6.89,1.66,3.44,4.17,5.34,5.36,6.13"/>
      <path class="cls-2" d="M99.57,66.63c.28,1.48.88,3.72,2.3,6.13,1.28,2.16,2.75,3.65,3.83,4.6"/>
      <path class="cls-2" d="M95.74,74.29c.86,1.94,1.87,3.99,3.06,6.13.76,1.36,1.53,2.64,2.3,3.83"/>
      <path class="cls-4" d="M105.69,25.27c1.47,5.62,2.73,11.15,3.83,16.85-2.42-5.27-3.72-11.05-3.83-16.85h0Z"/>
      <path class="cls-4" d="M101.1,36.76c1.23,5.1,2.02,10.16,3.06,15.32-2.37-4.73-3.2-10.07-3.06-15.32h0Z"/>
      <path class="cls-4" d="M94.97,44.42c.72,5.24,1.72,10.2,3.06,15.32-2.63-4.57-3.73-10.09-3.06-15.32h0Z"/>
      <path class="cls-4" d="M90.38,52.85c.82,4.32,2.05,8.23,3.83,12.25-2.97-3.23-4.43-7.91-3.83-12.25h0Z"/>
      <path class="cls-4" d="M85.78,61.27c1.33,3.77,2.79,7.16,4.6,10.72-2.92-2.7-4.65-6.75-4.6-10.72h0Z"/>
      <path class="cls-4" d="M81.95,67.4c2.1,3.58,4.29,6.73,6.89,9.96-3.52-2.15-6.12-5.9-6.89-9.96h0Z"/>
      <path class="cls-4" d="M42.89,88.08c6.42,9.63,17.02,15.72,28.34,17.62-1.45-.05-2.88-.24-4.32-.46-10.03-1.7-19.41-7.98-24.02-17.15h0Z"/>
      <path class="cls-4" d="M52.85,90.38c6.17,6.53,14.71,10.73,23.7,11.35,1.28.13,2.57.14,3.87.14-10.35,1.71-21.52-2.9-27.57-11.49h0Z"/>
      <path class="cls-4" d="M58.97,70.46c-3.57.68-7.15.69-10.72,0,3.57-.69,7.15-.68,10.72,0h0Z"/>
      <path class="cls-2" d="M93.44,86.55c-1.16.46-3.39,1.54-5.36,3.83-2.07,2.4-2.8,4.9-3.06,6.13"/>
      <circle class="cls-1" cx="106.76" cy="103.18" r="5.43"/>
      <circle class="cls-5" cx="107.54" cy="104.52" r="4.18"/>
      <circle cx="107.38" cy="104.78" r="2.53"/>
      <circle class="cls-1" cx="104.92" cy="103.39" r="1.71"/>
      <path class="cls-4" d="M63.5,88.5c-11.14-2.08-21.66-7.34-30.05-14.94,0,0,.13-.07.13-.07l.57,2.3c.51,2.32,1.33,4.56,2.36,6.71-1.49-2.78-2.37-5.93-3.08-8.99,0,0-.06-.24-.06-.24l.19.17c8.47,7.5,18.88,12.72,29.95,15.06h0Z"/>
    </g>
  </g>
</svg>