<?xml version="1.0" encoding="UTF-8"?>
<svg id="Layer_2" data-name="Layer 2" xmlns="http://www.w3.org/2000/svg" viewBox="0 0 128.26 169.26">
  <defs>
    <style>
      .cls-1 {
        fill: #9c7464;
      }

      .cls-1, .cls-2, .cls-3, .cls-4, .cls-5, .cls-6 {
        stroke: #000;
        stroke-miterlimit: 10;
      }

      .cls-2 {
        fill: #ece6dc;
      }

      .cls-3 {
        fill: none;
      }

      .cls-7, .cls-4 {
        fill: #fff;
      }

      .cls-5 {
        fill: #aa8676;
      }

      .cls-8 {
        fill: #333;
      }

      .cls-6 {
        fill: #3f1400;
      }
    </style>
  </defs>
  <g id="Layer_1-2" data-name="Layer 1">
    <g>
      <path class="cls-6" d="M121.44,110.79c1.79,2.3,3.57,4.6,5.36,6.89-2.81-1.02-5.62-2.04-8.42-3.06"/>
      <path class="cls-5" d="M110.72,85.51c3.08-2.01,9.45-6.18,13.02-13.02,5.16-9.88,2.22-21.01-1.53-35.23-2.27-8.59-4.49-12.7-5.36-22.21-.53-5.79-.29-10.6,0-13.79-1.7,1.59-3.69,3.85-5.36,6.89-4.21,7.68-3.53,15.28-3.06,18.38-2.17-4.57-3.42-4.66-3.83-4.6-1.7.27-2.33,5.36-2.3,8.42.04,3.29.85,5.94,1.53,7.66-1.18-2.16-2.2-3.18-3.06-3.06-1.49.2-2.51,3.78-3.06,10.72-1.28-1.74-2.31-2.5-3.06-2.3-1.38.37-1.89,3.95-1.53,10.72-1.29-2.21-2.31-3.23-3.06-3.06-1.3.29-1.81,4.12-1.53,11.49-2.33-2.45-3.35-2.52-3.83-2.3-1.51.7-.6,5.7,0,8.42-1.37-.98-3.72-2.35-5.36-1.53-2.59,1.29-2.3,7.41-.77,11.49,2.7,7.16,10.98,12.55,19.15,12.25,5.11-.19,8.73-2.55,13.02-5.36Z"/>
      <path class="cls-1" d="M119.91,30.37c-.77,1.21-1.6,2.74-2.3,4.6-1.12,3.01-1.46,5.71-1.53,7.66-.07-.14-1.21-2.47-2.3-2.3-.32.05-.86.35-1.53,3.06-.39,1.59-.81,3.93-.77,6.89-.15-.35-.69-1.46-1.53-1.53-1.04-.09-1.86,1.48-2.3,2.3-.69,1.3-1.93,4.4-.77,9.96-.72-3.27-1.92-5.38-3.06-5.36-1.21.02-2.06,2.41-2.3,3.06-1.3,3.64-.1,7.25.77,9.19-.2-.44-2.24-4.92-3.83-4.6-.97.2-1.34,2.11-1.53,3.06-.31,1.56-.62,4.84,1.53,9.19-3.57-3.11-5.09-2.44-5.36-2.3-2.01,1.03-1.49,6.36,0,9.96.7,1.69,1.43,3.45,3.06,4.6,5.1,3.57,14.83-1.8,19.91-6.13,1.63-1.39,5.86-5.07,8.42-11.49,3.24-8.08,1.8-15.39,0-24.51-1.25-6.34-3.05-11.53-4.6-15.32Z"/>
      <path class="cls-2" d="M116.08,99.3c1.74,1.34,4.58,3.93,6.89,8.42-.93,2.28-3.27,7.07-8.42,10.72-8.61,6.11-18.21,4.2-19.91,3.83-6.79-1.21-16.12-3.68-26.04-9.19-7.15-3.97-14.19-9.28-13.79-9.96.23-.38,2.97.54,13.79,6.13,6.67,2.07,11.02,1.2,13.79,0,4.11-1.79,7.89-5.06,10.72-7.66,1.14-1.05,2.72-2.6,5.36-3.83.56-.26,2.55-1.15,5.36-1.53,1.77-.24,4.94-.63,8.42.77,1.73.69,2.86,1.55,3.83,2.3Z"/>
      <path class="cls-5" d="M89.27,106.19c.04.06,2.26,3.77,2.3,3.83,2.05,3.41,2.27,3.78,2.3,3.83,1.76,2.96,1.74,18.14-9.19,32.17-11.72,15.04-28.31,18.89-36,20.68-10.35,2.41-23.54,3.08-24.51,0-.61-1.95,3.78-5.17,6.13-6.89,3.86-2.83,7.65-4.04,9.96-4.6-.86-.04-3.32-.23-3.83-1.53-.67-1.72,2.49-4.27,3.83-5.36,1.83-1.48,5.01-3.55,9.96-4.6-3.27.83-4.3.5-4.6,0-.7-1.17,1.99-4.32,4.6-6.13,2.02-1.4,4.02-2.01,5.36-2.3-.94.32-3.02.9-3.83,0-1.04-1.17.51-4.32,2.3-6.13,1.35-1.36,2.86-1.99,3.83-2.3-.53-.38-1.49-1.21-1.53-2.3-.06-1.65,2.04-3.6,5.36-3.83-.38-.62-1.2-2.17-.77-3.83.82-3.14,6.31-3.72,7.5-3.82.07,0,.05,0,.16-.01,3.98-.32,6.04-1.4,9.19-2.3,4.16-1.19,4.23-.47,6.89-1.53,1.16-.46,2.82-1.33,4.6-3.06Z"/>
      <path class="cls-5" d="M39.49,84.75c-6.92-5.52-15.05-13.05-22.98-22.98-5.86-7.34-10.35-14.43-13.79-20.68,3.95,4.57,10.18,10.73,19.15,16.08,7.55,4.51,14.6,7,19.91,8.42-3.17-5.49-6.43-12.13-9.19-19.91-5.19-14.63-6.65-27.81-6.89-37.53,1.07,8.37,3.99,22.51,13.02,37.53,7.67,12.74,16.74,21.13,22.98,26.04,5.31.72,13.08,2.44,21.45,6.89,5.57,2.96,9.88,6.32,13.02,9.19,2.35-1.03,7.21-2.7,13.02-1.53,1.32.27,12.03,2.59,14.55,11.49,1.24,4.38-.08,8.28-.77,9.96-.55-1.16-4.84-9.89-13.79-11.49-4.98-.89-9.13.84-10.72,1.53-6.41,2.77-7.31,6.99-11.49,9.96-10.13,7.2-27.54-1.49-29.1-2.3-16.86-8.67-20.88-27.05-21.45-29.87,3.08,2.81,7.39,6.19,13.02,9.19,6.46,3.44,12.43,5.19,16.85,6.13"/>
      <path class="cls-1" d="M94.63,122.28c.38-4.38.74-8.4-1.53-9.96-3.79-2.6-12.76,3.15-12.25,5.36.22.97,2.29,1.37,4.6,1.53-1.46.53-3.68,1.46-6.13,3.06-1.94,1.27-4.11,2.68-3.83,3.83.28,1.16,2.94,1.46,3.83,1.53-1.58.88-3.84,2.33-6.13,4.6-1.44,1.43-3.61,3.57-3.06,4.6.66,1.24,4.9.12,5.36,0-1.64.91-3.88,2.36-6.13,4.6-1.68,1.68-4.61,4.6-3.83,6.13.74,1.44,4.45.91,5.36.77-2.43.62-6.59,2.01-10.72,5.36-5.13,4.15-7.46,9.07-8.42,11.49,5.4-1.04,11.84-3.04,18.38-6.89,4-2.35,13.73-8.21,19.91-19.91.6-1.14,3.84-7.41,4.6-16.08Z"/>
      <path d="M40.14,154.72c7.03-1.35,14.41-2.42,21.56-2.58-7.11.49-14.4,1.88-21.33,3.55,0,0-.23-.97-.23-.97h0Z"/>
      <path d="M50.07,143.24c6.29-1.72,12.85-2.35,19.29-1.82-6.46-.2-12.92.77-19,2.78l-.29-.96h0Z"/>
      <path d="M55.4,134.83c5.73-1.95,11.8-2.83,17.79-2.59-6,.1-11.94,1.31-17.44,3.53l-.35-.94h0Z"/>
      <path d="M57.72,126.4c5.8-1.67,12-1.75,17.77-.29-5.84-1.14-11.93-.69-17.46,1.24l-.3-.95h0Z"/>
      <path d="M61.52,120.28c6.49-2.27,13.73-2.02,20.09.47-6.39-2.15-13.51-2.07-19.74.47,0,0-.35-.94-.35-.94h0Z"/>
      <polygon points="68.59 112.59 73.95 113.09 68.59 113.59 68.59 112.59 68.59 112.59"/>
      <path d="M116.57,42.57c.38,5.13,2.06,10.2,4.86,14.61-3.08-4.22-5.12-9.24-5.86-14.5l.99-.11h0Z"/>
      <path d="M111.98,50.28c-.21,5.31,1.21,10.73,4.1,15.32-3.16-4.4-4.97-9.81-5.1-15.32h1Z"/>
      <path d="M107.39,61.01c-.27,5.04,2.23,10.09,6.39,13.01-4.45-2.71-7.33-7.77-7.39-13.03,0,0,1,.01,1,.01h0Z"/>
      <path d="M102.78,67.81c.57,4.05,2.57,7.94,5.64,10.81-3.28-2.62-5.68-6.42-6.62-10.63l.98-.18h0Z"/>
      <path class="cls-3" d="M98.46,75.56c.86,1.94,1.87,3.99,3.06,6.13.76,1.36,1.53,2.64,2.3,3.83"/>
      <path d="M108.91,26.47c.62,5.71,1.73,11.38,3.33,16.92-1.92-5.44-3.37-11.06-4.32-16.78l.99-.14h0Z"/>
      <path d="M104.32,37.99c.37,5.13,1.03,10.43,2.57,15.36-1.33-3.68-2.41-7.49-2.95-11.38,0,0-.61-3.9-.61-3.9,0,0,1-.08,1-.08h0Z"/>
      <path d="M98.2,45.68c-.14,5.18.73,10.41,2.56,15.32-2.14-4.78-3.37-10.01-3.56-15.32h1Z"/>
      <path d="M93.6,54.1c-.06,4.25,1.09,8.55,3.33,12.27-2.51-3.53-4.05-7.82-4.33-12.24l1-.03h0Z"/>
      <path d="M89,62.45c.46,3.82,1.87,7.57,4.1,10.8-2.5-3.03-4.27-6.71-5.09-10.64l.99-.16h0Z"/>
      <path d="M85.14,68.49c1.25,3.8,3.47,7.32,6.43,10.13-3.17-2.56-5.74-5.94-7.36-9.78l.94-.35h0Z"/>
      <path class="cls-3" d="M45.61,89.34c1.41,2.36,3.38,5.06,6.13,7.66,8.18,7.73,17.9,9.47,22.21,9.96"/>
      <path class="cls-3" d="M55.57,91.64c1.85,2.23,5.31,5.8,10.72,8.42,7.2,3.48,13.82,3.33,16.85,3.06"/>
      <polygon points="61.7 72.23 50.98 71.73 61.7 71.23 61.7 72.23 61.7 72.23"/>
      <path d="M96.35,88.27c-4.2,1.48-7.52,5.14-8.61,9.49.8-4.54,3.98-8.56,8.24-10.42,0,0,.37.93.37.93h0Z"/>
      <circle class="cls-4" cx="109.48" cy="104.45" r="5.43"/>
      <circle class="cls-8" cx="110.26" cy="105.78" r="4.18"/>
      <circle cx="110.1" cy="106.04" r="2.53"/>
      <circle class="cls-7" cx="107.65" cy="104.65" r="1.71"/>
    </g>
  </g>
</svg>