<?xml version="1.0" encoding="UTF-8"?>
<svg id="Layer_2" data-name="Layer 2" xmlns="http://www.w3.org/2000/svg" viewBox="0 0 176.84 142.48">
  <defs>
    <style>
      .cls-1 {
        fill: none;
      }

      .cls-1, .cls-2, .cls-3, .cls-4, .cls-5 {
        stroke: #000;
        stroke-miterlimit: 10;
      }

      .cls-6, .cls-3 {
        fill: #fff;
      }

      .cls-2 {
        fill: #ffe6b4;
      }

      .cls-7 {
        fill: #333;
      }

      .cls-4 {
        fill: #c02526;
      }

      .cls-5 {
        fill: #f79341;
      }
    </style>
  </defs>
  <g id="Layer_1-2" data-name="Layer 1">
    <g>
      <path class="cls-5" d="M10.86,68.49c.15-4.3,1.11-15.2,9-25,8.98-11.15,21.19-13.76,27-15,16.77-3.59,41.7-.74,57,18,2.45,3,15.67,19.2,11,40-3.97,17.67-18.19,26.88-24,30-26.16,14.06-54.15-2.53-60-6-16.43-9.74-22.16-22.51-23-27-.79-4.24,0-8,0-8,.68-3.25,2.07-5.64,3-7Z"/>
      <path class="cls-2" d="M47.86,28.49c.32-1.47.89-3.6,2-6,4.1-8.86,11.69-13.12,17-16,3.79-2.06,15.52-8.43,25-5,1.24.45,4.45,1.61,5,4,.36,1.54-.65,2.52-2,7-.65,2.15-.97,3.22-1,4-.11,2.81,1.78,5.04,7,10,7.13,6.77,8.24,7.01,10,10,1.33,2.27,3.78,6.45,2,10-1.45,2.88-4.9,3.76-6,4-2.87-4.02-11.04-14.38-26-20-15.11-5.68-28.21-3.16-33-2Z"/>
      <path class="cls-2" d="M112.86,61.49c.58-1.65,1.54-4.13,3-7,9.51-18.7,26.35-26.65,32-29,5.41-2.25,18.39-7.64,25-2,.73.63,1.24,1.26,1.57,1.73.15.27.35.7.43,1.27.06.4.04.74,0,1,.19.1.7.39,1,1,.47.95.06,1.87,0,2,.33,1.05.9,3.4,0,6-.28.8-.64,1.47-1,2-.21,2.56-.88,6.22-3,10-.64,1.14-1.32,2.14-2,3-1.21,3.42-3.29,7.81-7,12-1,1.13-2.01,2.12-3,3-1.9,2.55-5.71,6.94-12,10-3.86,1.88-7.42,2.66-10,3,1.23.33,3.03.92,5,2,.99.54,8.21,4.64,11,13,1.86,5.57-.29,6.92,2,14,1.22,3.78,1.94,6.01,4,8,5.03,4.86,11.53,2.03,14,6,1.71,2.74.31,6.83-1,9-4.95,8.23-19.35,7.19-22,7-16.54-1.2-27.31-13.04-30-16-7.39-8.13-10.57-16.8-12-22,2.12-3.14,6.23-10.15,7-20,.68-8.73-1.58-15.54-3-19Z"/>
      <path class="cls-2" d="M101.86,108.49c1.75.95,4.02,2.5,6,5,5.45,6.85,4.29,15.19,4,17,.46.78,1.45,2.72,1,5-.57,2.9-3.12,4.46-4,5-6.23,3.82-17.23-.25-24-6-2.28-1.94-6.33-5.97-9-13,3.73-.59,9.13-1.89,15-5,4.91-2.6,8.54-5.61,11-8Z"/>
      <path class="cls-2" d="M49.86,119.49c-.16,2.32-.04,6.12,2,10,2.28,4.33,7.46,9.7,13,9,1.26-.16,2.28-.6,3-1,1.48.48,2.41.29,3,0,2.83-1.39,3.27-7.78,1-16-2.91.22-6.28.28-10,0-4.63-.35-8.67-1.13-12-2Z"/>
      <path class="cls-1" d="M81.86,120.49c.25,1.77.93,4.83,3,8,2.72,4.17,6.32,6.19,8,7"/>
      <path class="cls-2" d="M24.86,106.49c-1.07.78-2.6,2.07-4,4-1.24,1.71-4.4,6.06-3,10,1.22,3.45,5.31,4.78,6,5,6.06,1.96,13.79-1.78,20-9-2.82-.8-6.27-2.04-10-4-3.75-1.97-6.74-4.12-9-6Z"/>
      <path class="cls-2" d="M64.86,103.49c-1.03,2.03-2.32,5.09-3,9-.82,4.71-1.58,9.15,1,13,2.59,3.87,8.21,6.63,13,5,4.04-1.37,5.78-5.28,7-8,1.11-2.48,3.38-7.57,1-13-2.69-6.12-9.15-7.79-10-8"/>
      <path class="cls-4" d="M28.86,65.49c-.13,1.72-.08,5.04,2,8,.72,1.02,2.21,3.15,4,3,1.83-.16,2.93-2.62,4-5,.78-1.75,1.73-4.44,2-8"/>
      <path class="cls-5" d="M27.86,61.49c-.82,1.58-.2,3.39,1,4,1.33.68,3.4-.09,4-2,1.2,1.52,3.11,2.29,5,2,2.72-.42,3.9-2.8,4-3"/>
      <path class="cls-1" d="M62.86,99.49c2.79.13,9.05,0,15-4,2.64-1.78,6.86-4.61,8-10,1.3-6.13-2.32-11.1-3-12"/>
      <path class="cls-1" d="M86.86,45.49c2.53.19,4.56,1.87,5,4,.43,2.05-.78,3.71-1,4,2.38.73,3.99,2.79,4,5,.01,2.32-1.74,3.79-2,4,.42.1,1.92.53,3,2,.91,1.24.99,2.53,1,3"/>
      <path class="cls-1" d="M95.86,69.49c.53.64,1.86,2.41,2,5,.22,4.02-2.6,6.64-3,7"/>
      <path class="cls-1" d="M92.86,79.49c.14.13,2.69,2.56,2,6-.5,2.47-2.46,4.44-5,5"/>
      <path class="cls-1" d="M87.86,101.49c3.16-.65,5.56-3.07,6-6,.5-3.29-1.71-5.69-2-6"/>
      <path class="cls-1" d="M95.86,46.49c1.8.16,3.35,1.33,4,3,.67,1.71.27,3.67-1,5"/>
      <path class="cls-1" d="M94.86,50.49c1.3.09,2.46.86,3,2,.69,1.44.09,2.8,0,3,.45.11,3.54.95,5,4,1.22,2.55.83,5.66-1,8,2.51,1.49,4.05,4.17,4,7-.07,3.56-2.62,5.7-3,6"/>
      <path class="cls-1" d="M99.86,79.49c2.72,1.25,4.33,4.09,4,7-.35,3.09-2.84,5.6-6,6"/>
      <path class="cls-1" d="M100.86,93.49c.12.23,1.58,3.18,0,6-1.31,2.34-4.15,3.58-7,3,0,.5-.03,3-2,5-2.4,2.43-5.63,2.05-6,2"/>
      <path class="cls-1" d="M106.86,62.49c.51.64,1.78,2.39,2,5,.2,2.43-.62,4.26-1,5,1.89,1.02,3.06,2.96,3,5-.07,2.34-1.72,3.77-2,4,.35.6,1.64,2.99,1,6-.88,4.11-4.6,5.83-5,6"/>
      <path class="cls-1" d="M81.86,103.49c.64.04,2.33.07,4-1,2.6-1.66,2.96-4.59,3-5"/>
      <path class="cls-1" d="M55.86,27.49c3.13-5.13,6.51-8.71,9-11,3.52-3.24,9.97-9.19,20-11,5-.9,9.24-.48,12,0"/>
      <path class="cls-1" d="M65.86,27.49c1.84-2.82,5.28-7.29,11-11,7.78-5.05,15.43-5.85,19-6"/>
      <path class="cls-1" d="M73.86,28.49c1.89-2,4.84-4.69,9-7,4.29-2.38,8.25-3.47,11-4"/>
      <path class="cls-1" d="M80.86,30.49c1.48-1.27,3.46-2.73,6-4,4.35-2.17,8.37-2.81,11-3"/>
      <path class="cls-1" d="M87.86,33.49c1.62-1.24,3.95-2.77,7-4,3.13-1.26,5.94-1.78,8-2"/>
      <path class="cls-1" d="M94.86,37.49c1.61-.99,3.61-2.06,6-3,2.62-1.03,5.01-1.63,7-2"/>
      <path class="cls-1" d="M99.86,41.49c1.43-.16,3.13-.45,5-1,1.99-.59,3.67-1.31,5-2"/>
      <path class="cls-1" d="M103.86,46.49c1.06.03,2.94-.06,5-1,1.35-.62,2.35-1.39,3-2"/>
      <path class="cls-1" d="M113.86,63.49c1.52-1.61,3.64-3.98,6-7,2.77-3.55,4.54-6.3,5-7,3.98-6.02,18.4-21.58,39-24,2.45-.29,6.25-.54,11,0"/>
      <path class="cls-1" d="M114.86,66.49c.63-.35,1.74-1.01,3-2,3.67-2.88,5.49-6.16,6-7,3.49-5.82,15.83-15.48,29-19,5.35-1.43,9.38-1.45,15-5,3.24-2.05,5.54-4.34,7-6"/>
      <path class="cls-1" d="M115.86,70.49c.92-.4,2.34-1.05,4-2,3.73-2.12,6.18-4.29,7-5,2.46-2.14,11.15-9.68,20-14,8.66-4.23,10.47-1.96,17-6,6.12-3.78,9.81-9.04,12-13"/>
      <path class="cls-1" d="M115.86,74.49c1.89-.27,4.73-.81,8-2,4.91-1.78,7.39-3.79,11-6,5.88-3.61,5.75-2.24,18-8,10.71-5.04,13.1-7.16,14-8,4.41-4.11,6.74-8.78,8-12"/>
      <path class="cls-1" d="M121.86,76.49c3.17-.89,7.67-2.21,13-4,8.77-2.94,13.26-4.45,18-7,4.4-2.37,10.68-6.53,17-14"/>
      <path class="cls-1" d="M125.86,78.49c4.28-.12,10.25-.75,17-3,7.68-2.56,13.36-6.23,17-9"/>
      <path class="cls-1" d="M115.86,79.49c2.36-.47,5.04-.84,8-1,5.49-.29,10.25.26,14,1"/>
      <path class="cls-1" d="M131.86,80.49c1.55.52,3.24,1.18,5,2,2.74,1.28,5.07,2.67,7,4"/>
      <path class="cls-1" d="M123.86,81.49c3.53,1.1,8.65,3.14,14,7,5.31,3.83,8.84,8.01,11,11"/>
      <path class="cls-1" d="M116.86,79.49c1.27,1.32,2.61,2.66,4,4,3.05,2.93,6.07,5.59,9,8"/>
      <path class="cls-1" d="M135.86,94.49c2,2.18,4.91,5.55,8,10,2.78,4,4.32,6.87,5,8,2.74,4.53,9.24,9.88,26,13"/>
      <path class="cls-1" d="M120.86,86.49c1.64,3.12,3.62,6.49,6,10,2.02,2.97,4.05,5.64,6,8"/>
      <path class="cls-1" d="M137.86,114.49c2.97,3.19,7.55,7.17,14,10,4.06,1.78,9.85,4.32,17,3,2.61-.48,4.66-1.34,6-2"/>
      <path class="cls-1" d="M114.86,86.49c1.15,2.17,2.85,5.3,5,9,6.64,11.42,9.95,17.13,15,22,7.28,7.03,14.72,10.12,17,11,4.76,1.85,8.99,2.64,12,3"/>
      <path class="cls-1" d="M113.86,90.49c1.31,5.8,3.69,12.44,8,19,7.52,11.44,23.97,27.26,41,24,5.11-.98,8.88-3.41,11-5"/>
      <path class="cls-1" d="M111.86,94.49c.7,3.72,1.9,8.19,4,13,3.87,8.88,9.12,15.13,13,19"/>
      <path class="cls-1" d="M31.86,111.49c-1.91,1.68-3.95,3.67-6,6-1.52,1.72-2.84,3.4-4,5"/>
      <path class="cls-1" d="M35.86,113.49c-.79,1.64-2.05,3.8-4,6-2.15,2.42-4.36,4-6,5"/>
      <path class="cls-1" d="M40.86,115.49c-1.33,2.33-2.67,4.67-4,7"/>
      <path class="cls-1" d="M54.86,120.49c.12,1.87.53,4.78,2,8,1.25,2.74,2.82,4.72,4,6"/>
      <path class="cls-1" d="M67.86,137.49c-.41-.32-1.53-1.29-2-3-.37-1.35-.14-2.48,0-3"/>
      <path class="cls-1" d="M66.86,105.49c-.17,3.34-.21,7.02,0,11,.19,3.61.55,6.96,1,10"/>
      <path class="cls-1" d="M69.86,104.49c.77,3.01,1.47,6.35,2,10,.69,4.76.96,9.13,1,13"/>
      <path class="cls-1" d="M71.86,103.49c1.51,1.75,3.68,4.76,5,9,2.1,6.79.72,12.61,0,15"/>
      <path class="cls-1" d="M74.86,104.49c1.43.85,4.06,2.69,6,6,3.08,5.25,2.28,10.51,2,12"/>
      <path class="cls-1" d="M96.86,112.49c.49.48,1.87,1.7,4,2,3.31.46,5.68-1.69,6-2"/>
      <path class="cls-1" d="M94.86,113.49c.13.41,1.58,4.6,6,6,4.92,1.55,8.82-1.84,9-2"/>
      <path class="cls-1" d="M100.86,122.49c.69.72,2.35,2.25,5,3,2.75.77,5.04.27,6,0"/>
      <path class="cls-1" d="M88.86,117.49c1.51,2.31,4.34,5.95,9,9,6.11,3.99,12.07,4.8,15,5"/>
      <path class="cls-1" d="M84.86,119.49c.67,1.7,6.3,15.51,19,18,1.99.39,4.7.61,8,0"/>
      <circle class="cls-3" cx="13.93" cy="51.59" r="13.43"/>
      <circle class="cls-7" cx="14.32" cy="51.29" r="10.34"/>
      <circle cx="13.57" cy="51.41" r="6.27"/>
      <circle class="cls-6" cx="20.25" cy="45.19" r="4.23"/>
      <circle class="cls-3" cx="55.27" cy="50.93" r="13.43"/>
      <circle class="cls-7" cx="55.67" cy="50.64" r="10.34"/>
      <circle cx="54.91" cy="50.75" r="6.27"/>
      <circle class="cls-6" cx="61.6" cy="44.53" r="4.23"/>
    </g>
  </g>
</svg>