<?xml version="1.0" encoding="UTF-8"?>
<svg id="Layer_2" data-name="Layer 2" xmlns="http://www.w3.org/2000/svg" viewBox="0 0 387.09 312.84">
  <defs>
    <style>
      .cls-1 {
        fill: none;
      }

      .cls-1, .cls-2, .cls-3, .cls-4, .cls-5, .cls-6, .cls-7, .cls-8 {
        stroke: #000;
        stroke-miterlimit: 10;
      }

      .cls-2 {
        fill: #ffd28c;
      }

      .cls-3 {
        fill: #291f10;
      }

      .cls-9, .cls-4 {
        fill: #fff;
      }

      .cls-5 {
        fill: #615221;
      }

      .cls-6 {
        fill: #f48270;
      }

      .cls-7 {
        fill: #623513;
      }

      .cls-8 {
        fill: #fbaa1d;
      }

      .cls-10 {
        fill: #333;
      }
    </style>
  </defs>
  <g id="Layer_1-2" data-name="Layer 1">
    <g>
      <path class="cls-8" d="M275.17,245.99c.9,4.26,2.07,10.42,3,18,.81,6.58.65,7.8,0,9-2.95,5.44-12.92,4.87-28,4-17.42-1-20.11-3.99-21-6-.65-1.46-.44-3.33,0-7,.66-5.51,1.94-9.95,3-13"/>
      <path class="cls-8" d="M107.17,192.99c-.99,2.42-2.22,6.29-2,11,.4,8.74,5.37,11.53,4,18-1.08,5.1-4.62,5.54-5,11-.3,4.33,1.88,4.64,2,9,.15,5.55-3.33,6.9-7,17-1.69,4.67-2.54,7-2,9,2.06,7.59,16.54,9.43,21,10,1.26.16,23.1,2.75,27-6,.31-.69.2-3.46,0-9-.34-9.37-.82-10.71,0-14,1.04-4.18,2.42-4.42,3-8,.72-4.41-.67-8.33-2-11"/>
      <path class="cls-5" d="M51.17,92.99c-.21.78-2.22,8.15-7,15-7.88,11.28-16.16,10.96-18,19-.91,3.98-.23,9.97,3,12,11.32,7.12,58.42-31.47,52-50-3.37-9.72-21.75-14.77-27-10-2.49,2.26-.78,5.61-3,14Z"/>
      <path class="cls-3" d="M77.17,88.99c-.9.91-2.6,2.94-6,7-5.48,6.55-8.21,9.85-8,11,1.12,6.05,28.66,14.34,39,1,7.03-9.07,4.3-25.79-3-29-6.86-3.02-17.86,5.84-22,10Z"/>
      <path class="cls-6" d="M96.17,107.99c-3.01-3.26-10.87-3.24-16-2-3.12.76-5.49,2.03-7,3-1.74-1.05-3.42-1.67-5-2-16.05-3.36-32.44,21.17-35,25-4.74,7.1-7.12,10.65-6,14,3.23,9.69,31.27,14.71,50,3,17.27-10.8,24.83-34.68,19-41Z"/>
      <path class="cls-4" d="M65.17,144.99c.32-.82,1.87-4.82,0-7-.89-1.04-3.61-1.04-9-1-5.45.04-8.19.08-9,1-1.9,2.16-.78,6.45,1,9,2.25,3.21,6.75,5.37,11,4,3.85-1.24,5.5-4.72,6-6Z"/>
      <path class="cls-4" d="M38.17,144.99c3.4-2.65,3.37-8.55,1-11-.37-.38-.87-.76-6-2-6-1.45-6.6-1.25-7-1-2.41,1.47-2.7,7.31,0,11,2.54,3.47,8.33,5.86,12,3Z"/>
      <path class="cls-4" d="M61.17,86.99c.58,1.85.5,4.52-1,6-.46.45-1.69,1.42-11,0-5.64-.86-6.44-1.41-7-2-2.37-2.49-2.33-7.64,0-10,4.19-4.25,16.94-.6,19,6Z"/>
      <path class="cls-4" d="M30.17,73.99c.51,2.05-.36,4.63-2,6-1.43,1.2-3.64,1.15-8,1-3.9-.13-5.85-.2-7-1-3.21-2.24-4.27-8.31-2-11,3.73-4.43,17.51-.96,19,5Z"/>
      <path class="cls-8" d="M157.17,62.99c11.67,6,23.33,12,35,18,5.01-.76,12.25-1.83,21-3,31.9-4.26,47.86-6.39,61-6,10.98.33,39.78,1.19,61,19,38.81,32.57,32.48,105.21,21,125,0,0-12.36,21.31-12,32,.03.86.25,4.49-1,9-.96,3.47-2.22,5.38-3,7-3.57,7.37.76,12.47,1,30,.07,5.33.09,8.04-1,10-4.59,8.28-19.01,8.08-25,8-4.95-.07-25.69-.35-30-11-1.62-4-.66-8.78,1-17,1.36-6.76,2.98-9.2,2-14-.96-4.7-3.06-5.05-3-9,.06-4.62,2.97-6.2,3-11,.02-3.02-1.11-5.47-2-7-13.77,3.97-34.53,8.42-60,8-10.08-.16-25.61-.52-45-6-10.71-3.02-36.52-10.61-57-31-2.89-2.88-7.29-7.26-12-14-6.74-9.65-7.35-14.45-15-27-8.06-13.22-9.58-11.49-10-15-1.99-16.47,35.02-24.43,56-56,9.45-14.22,12.72-28.83,14-39Z"/>
      <path class="cls-8" d="M26.17,70.99c-1.99.62-6.3,1.63-11,0-5.54-1.91-8.37-6.36-10-9C-2.12,50.17.69,36.25,3.17,23.99,6.46,7.73,11.26,4.18,13.17,2.99c1.34-.83,5.82-3.61,11-2,5.55,1.73,7.7,7.2,8,8,3.02-1.8,10.79-5.88,21-5,2.53.22,8.66,1.04,15,5,7.51,4.69,7.46,8.87,19,23,7.46,9.13,11.24,11.99,15,14,3.59,1.92,9.57,5.12,15,3,3.38-1.32,3.48-3.51,9-7,3.09-1.95,5.68-3.59,9-4,7.27-.9,14.41,4.55,18,10,2.51,3.81,2.45,6.34,4,13,2.26,9.73,4.13,11.79,8,23,4.93,14.3,7.54,21.87,8,31,.28,5.54,1.33,26.61-14,41-.67.63-14.11,12.9-31,12-8.85-.47-22.24-4.75-23-5-1.17-.38-4.86-1.6-10-3-3.36-.91-6.14-1.58-8-2-1.19,2.03-3.64,5.55-8,8-6.63,3.73-13.44,2.63-17,2-7.11-1.26-6.51-3.56-15-6-9.47-2.73-12.23-.44-18-4-1.19-.73-5.47-3.54-8-9-.76-1.63-4.31-9.88,0-17,1.59-2.62,3.69-4.18,5-5-.41,1.63-.78,4.19,0,7,1.85,6.64,8.72,9.59,12,11,10.14,4.36,19.92,1.84,23,1,12.78-3.48,20.23-12.37,24-17,13.46-16.53,14.13-35.77,14-43-5.97,1.67-13.42,3.04-22,3-25.03-.13-43.33-12.2-51-18Z"/>
      <path class="cls-8" d="M161.17,201.99c-6.89,11.95-7.15,20.39-6,26,1.06,5.15,3.65,9.55,2,16-1.05,4.09-2.95,5.66-3,10-.05,4.46,1.93,5.18,3,10,1.24,5.56-.18,10.37-3,20-2.45,8.36-3.64,8.76-3,11,2.16,7.59,17.54,9.21,25,10,8.88.94,23.37,2.47,28-5,1.57-2.53,1.38-5.68,1-12-.64-10.76-4.03-13.39-2-19,1.62-4.47,4.41-4.57,5-9,.54-4.06-1.58-5.62-2-10-.55-5.75,2.47-9.72,4-13,2.43-5.2,3.57-13.89-3-29"/>
      <path class="cls-1" d="M155.17,220.99c-1.73-1.96-4.24-5.28-6-10-1.85-4.97-2.07-9.34-2-12"/>
      <path class="cls-1" d="M212.17,226.99c1.73-1.49,3.99-3.77,6-7,2.42-3.89,3.49-7.56,4-10"/>
      <path class="cls-1" d="M286.17,242.99c13.85-4.24,23.84-10.46,30-15,7.37-5.42,19.53-14.37,27-31,5.46-12.16,6.13-23.33,6-30"/>
      <path class="cls-7" d="M368.17,234.99c4.12,3.69,9.15,9.23,13,17,3.2,6.46,6.64,13.4,5,22-1.73,9.06-8.09,14.74-11,17l-3-9c-.62,2.6-1.55,5.68-3,9-1.59,3.65-3.38,6.65-5,9-.05-2.89-.42-7.17-2-12-2.24-6.86-5.63-10.86-7-13-3.45-5.41-4.64-15.67,6-37,2.33-1,4.67-2,7-3Z"/>
      <path class="cls-8" d="M349.17,106.99c4.58,3.53,10.9,9.33,16,18,8.25,14.03,8.69,27.8,9,43,.37,17.9-2.16,34.76-3,40-1.88,11.71-4.5,22.28-1,36,1.2,4.72,2.79,8.47,4,11-1.67-1-3.33-2-5-3,.04,3.18-.1,6.84-1,7-1.77.3-6.2-12.92-8-24-2.8-17.23,1.85-22.53,4-46,1.13-12.37,2.72-31.41-3-53-3.35-12.62-8.23-22.46-12-29Z"/>
      <path class="cls-2" d="M332.17,309.99c-.99-9.79-5.24-16.51-10-17-2-.2-3.6.75-4,1-4.2,2.6-5.55,9.8-3,18,2.31.3,5.41.46,9,0,3.25-.42,5.95-1.22,8-2Z"/>
      <path class="cls-2" d="M315.17,311.99c-.18-1.95-.48-4.71-1-8-1.08-6.8-1.88-8.13-3-9-1.73-1.34-4.23-1.56-6-1-4.18,1.32-6.96,7.78-6,16,1.77.75,4.14,1.56,7,2,3.67.57,6.8.34,9,0Z"/>
      <path class="cls-2" d="M299.17,309.99c.34-2.94.19-5.35,0-7-.36-3.11-.77-6.21-3-9-.96-1.21-2.19-2.74-4-3-3.51-.5-7.77,3.11-8,7-.18,3.05,2.19,5.29,4,7,3.86,3.64,8.45,4.67,11,5Z"/>
      <path class="cls-2" d="M269.17,276.99c2.29-2.85-2.05-13-7-13s-9.29,10.15-7,13c.81,1,2.87,1,7,1s6.19,0,7-1Z"/>
      <path class="cls-2" d="M255.17,276.99c1.73-1.76,1.23-4.7,1-6-.14-.83-1.09-5.7-5-7-1.82-.6-3.46-.17-4,0-4.92,1.53-8.19,8.89-6,12,1.05,1.49,3.13,1.67,7,2,3.34.28,5.55.47,7-1Z"/>
      <path class="cls-2" d="M241.17,275.99c1.18-8.26-.96-14.26-4-15-2.13-.52-4.74,1.53-6,3-.12.14-2.98,3.57-2,7,1.04,3.63,6.12,6.36,12,5Z"/>
      <path class="cls-2" d="M192.17,305.99c.79-7.82-1.34-13.79-5-15-1.4-.46-2.66-.1-3,0-3.8,1.15-6.27,6.73-6,14,1.31.7,3.75,1.79,7,2,3.13.2,5.61-.5,7-1Z"/>
      <path class="cls-2" d="M178.17,304.99c1.87-6.64.63-12.64-3-15-.39-.25-2.05-1.33-4-1-3.76.63-6.86,6.19-7,14,.95.78,3.38,2.56,7,3,3.29.4,5.86-.51,7-1Z"/>
      <path class="cls-2" d="M164.17,302.99c.47-1.33,1.03-3.42,1-6-.03-2.18-.09-7.96-4-10-1.87-.98-4.21-.88-6,0-3.16,1.55-4.36,5.37-4,8,.61,4.36,5.93,8.28,13,8Z"/>
      <path class="cls-2" d="M137.17,276.99c-.55-7.58-3.07-12.68-6-13-1.62-.18-3.04,1.13-4,2-4.45,4.06-4.11,10.52-4,12,2.43.3,5.5.44,9,0,1.86-.24,3.53-.6,5-1Z"/>
      <path class="cls-2" d="M123.17,277.99c.46-.94,1.37-3.16,1-6-.13-.95-.55-3.82-3-6-.5-.45-2.22-1.97-4-2-3.21-.06-6.88,4.69-8,12,.95.78,3.38,2.56,7,3,3.29.4,5.86-.51,7-1Z"/>
      <path class="cls-2" d="M109.17,275.99c.6-2.29,1.51-7.3-1-12-.78-1.45-1.98-3.71-4-4-3.18-.46-7.22,4.11-7,8,.23,4.06,5.15,8.18,12,8Z"/>
      <path class="cls-8" d="M158.17,75.99c1.25-2.08,3.18-4.96,6-8,4.36-4.71,7.1-7.67,11-8,7.13-.6,12.47,8.1,13,9,2.63,4.42,5.03,12.4,1,18-2.24,3.11-5.53,4.19-8,5-7.8,2.56-14.93.24-18-1"/>
      <path class="cls-1" d="M73.17,108.99c-1.14.63-2.58,1.58-4,3-2.2,2.19-3.38,4.49-4,6"/>
      <path class="cls-1" d="M105.17,83.99c-2,.67-4,1.33-6,2"/>
      <path class="cls-1" d="M104.17,74.99c-.25,1.74-.5,5.16,1,9,.87,2.24,2.06,3.9,3,5"/>
      <path class="cls-1" d="M102.17,141.99c-2.43,2.92-5.09,5.93-8,9-2.37,2.5-4.71,4.83-7,7"/>
      <path class="cls-1" d="M212.17,95.99c-2.42-2.51-5.4-5.26-9-8-3.94-2.99-7.71-5.27-11-7"/>
      <path class="cls-1" d="M179.17,69.99c-1.79-.16-4.33-.1-7,1-8.16,3.35-9.86,13.14-10,14"/>
      <circle class="cls-4" cx="134.97" cy="61.28" r="16.21"/>
      <circle class="cls-10" cx="135.49" cy="60.99" r="12.48"/>
      <circle cx="134.98" cy="61.76" r="7.57"/>
      <circle class="cls-9" cx="145.19" cy="57.61" r="5.11"/>
    </g>
  </g>
</svg>