<?xml version="1.0" encoding="UTF-8"?>
<svg id="Layer_2" data-name="Layer 2" xmlns="http://www.w3.org/2000/svg" viewBox="0 0 166.84 136.89">
  <defs>
    <style>
      .cls-1 {
        fill: none;
      }

      .cls-1, .cls-2, .cls-3, .cls-4, .cls-5, .cls-6, .cls-7 {
        stroke: #000;
        stroke-miterlimit: 10;
      }

      .cls-8, .cls-2 {
        fill: #fff;
      }

      .cls-3 {
        fill: #ff7b5d;
      }

      .cls-4 {
        fill: #420;
      }

      .cls-9 {
        fill: #333;
      }

      .cls-5, .cls-10 {
        fill: #999;
      }

      .cls-6 {
        fill: #ffefc1;
      }

      .cls-7 {
        fill: #737373;
      }
    </style>
  </defs>
  <g id="Layer_1-2" data-name="Layer 1">
    <g>
      <path class="cls-7" d="M28.24,76.21c-.52-2.13-1.47-5.94-4-10-2.32-3.72-5.32-8.52-11-10-5.41-1.41-10.22.99-12,2,1.33.42,2.33,1.09,3,2,2.05,2.76-.05,6.24,2,9,.67.91,1.67,1.58,3,2-1.48.73-1.87,1.53-2,2-.59,2.22,2.5,5.55,8,8-1.89.64-4.87,2.02-7,5-2.23,3.12-3.46,7.92-2,9,.53.4,1.35.23,2,0-.68.37-1.54.98-2,2-.66,1.46.08,2.49,0,4-.19,3.43-4.41,4.95-4,6,.42,1.07,5.25.73,10-1,2.73-1,9.8-3.57,14-11,2.73-4.83,2.94-9.4,3-11,.12-3.38-.5-5.95-1-8Z"/>
      <path class="cls-4" d="M149.24,66.21c-.79-1.02-2.08-2.36-4-3-4.56-1.52-9.48,2.03-15,6-4.13,2.98-6.87,5.79-8,7-3.84,4.1-6.38,8.08-8,11,2,.67,4,1.33,6,2,.67.33,1.33.67,2,1,.48-.49,1.16-1.18,2-2,4.41-4.33,10-9,10-9,3.5-2.92,8.24-7.02,15-13Z"/>
      <path class="cls-1" d="M28.24,78.21c-.08-.94-1.13-10.99-10-16-6.19-3.49-12.34-2.36-14-2"/>
      <path class="cls-1" d="M28.24,78.21c-.44-1.77-1.97-7.02-7-11-6.82-5.4-14.69-4.22-16-4"/>
      <path class="cls-1" d="M28.24,77.21c-1.28-1.93-3.49-4.69-7-7-6.65-4.37-13.51-4.19-16-4"/>
      <path class="cls-1" d="M28.24,77.21c-1.9-1.59-4.56-3.46-8-5-5.66-2.53-10.81-2.98-14-3"/>
      <path class="cls-1" d="M26.24,78.21c-1.48-1.27-3.46-2.73-6-4-4.35-2.17-8.37-2.81-11-3"/>
      <path class="cls-1" d="M26.24,78.21c-2.67-.75-5.68-1.46-9-2-3.65-.6-7.01-.89-10-1"/>
      <path class="cls-1" d="M25.24,79.21c-1.77-.42-3.78-.78-6-1-3.43-.34-6.47-.25-9,0"/>
      <path class="cls-6" d="M146.24,68.21c1.3.33,1.82,2.29,2,3,1.14,4.37-1.9,8.6-3,10,.29-2.15.1-4.25-1-6-.91-1.45-1.91-1.81-2-3-.16-1.98,2.31-4.43,4-4Z"/>
      <path class="cls-1" d="M26.24,81.21c-1.35.93-3.73,2.31-7,3-3.47.73-6.36.34-8,0"/>
      <path class="cls-1" d="M28.24,83.21c-2.88,1.51-7.32,3.37-13,4-3.06.34-5.78.25-8,0"/>
      <path class="cls-1" d="M29.24,84.21c-2.04,1.58-5.04,3.54-9,5-5.8,2.14-10.93,2.2-14,2"/>
      <path class="cls-1" d="M29.24,87.21c-2.22,1.61-5.23,3.46-9,5-4.67,1.91-8.89,2.68-12,3"/>
      <path class="cls-1" d="M27.24,91.21c-1.96,1.97-5.25,4.81-10,7-4.37,2.02-8.33,2.73-11,3"/>
      <path class="cls-5" d="M113.24,1.21c-3.17,1.49-7.2,3.01-12,4-9.18,1.9-17.01,1.01-22,0-2.19,3.19-5.42,7.17-10,11-6.74,5.64-13.49,8.51-18,10-1.31,2.8-2.94,5.85-5,9-4.28,6.56-8.99,11.47-13,15,.81,2,1.79,5.1,2,9,.2,3.82-.42,6.95-1,9,3.39-4.2,8.44-10.19,15-17,9.25-9.59,13.87-14.39,21-19,6.35-4.11,17.72-11.25,33-11,5.5.09,10,1.12,13,2,.65-2.21,1.37-5.72,1-10-.49-5.68-2.67-9.85-4-12Z"/>
      <path class="cls-1" d="M26.24,92.21c-.99,1.9-3.08,5.26-7,8-5.84,4.08-11.91,4.09-14,4"/>
      <path class="cls-7" d="M68.24,33.21c-1.48-1.28-3.47-2.74-6-4-4.79-2.38-9.23-2.91-12-3,2.11.48,5.5,1.52,9,4,2.92,2.07,4.84,4.37,6,6l3-3Z"/>
      <path class="cls-7" d="M49.24,51.21c-1.79-.41-3.8-.77-6-1-3.81-.39-7.19-.29-10,0,1.99.37,4.38.97,7,2,2.39.94,4.39,2.01,6,3,1-1.33,2-2.67,3-4Z"/>
      <path class="cls-5" d="M150.24,51.21c-1.55-1.43-4.07-3.83-7-7-3.29-3.56-5.45-6.32-6-7-4.43-5.47-16.14-13.91-29-16-14.96-2.43-27.04,4.46-35,9-11.08,6.32-19.72,16.21-37,36-4.76,5.45-8.55,10.01-11,13,2.15,3.17,5.42,7.48,10,12,4.12,4.06,17.01,16.42,38,21,13.33,2.91,24.75,1.54,32,0,11.47,1.73,21.09,1.56,28,1,18.73-1.51,23.86-6.37,26-9,.95-1.16,1.59-2.24,2-3-5.61.16-12.01-.06-19-1-14.12-1.91-25.63-6.1-34-10,1.09-4.67,4.12-14.8,13-24,11.17-11.57,24.47-14.28,29-15Z"/>
      <path class="cls-6" d="M153.24,60.21c.56.82,2.55,3.9,2,8-.32,2.38-1.36,4.1-2,5-.26-1.25-.8-3.07-2-5-1.67-2.69-3.77-4.23-5-5,2.33-1,4.67-2,7-3Z"/>
      <path class="cls-6" d="M142.24,64.21c.09,1.51.11,3.19,0,5-.16,2.65-.54,5-1,7-.21-1.14-.71-3.02-2-5-1.37-2.1-3.01-3.35-4-4,2.33-1,4.67-2,7-3Z"/>
      <path class="cls-6" d="M138.24,74.21c1.01.79,1,2.25,1,4,0,2.21-.58,3.96-1,5-.32-.97-.91-2.44-2-4-1.71-2.44-3.23-3.06-3-4,.3-1.24,3.45-2.23,5-1Z"/>
      <path class="cls-6" d="M132.24,68.21c.55.63,1.6,1.98,2,4,.6,2.99-.63,5.35-1,6-.6-1.09-1.54-2.54-3-4-.88-.88-2.2-2.01-4-3l6-3Z"/>
      <path class="cls-6" d="M124.24,73.21c.58.71,1.52,2.06,2,4,.56,2.23.23,4.09,0,5-.68-.61-1.67-1.36-3-2-1.14-.55-2.19-.84-3-1,.27-.63.6-1.31,1-2,.96-1.68,2.03-3,3-4Z"/>
      <path class="cls-6" d="M119.24,80.21c.49.28,1.39.88,2,2,1.25,2.3.14,4.71,0,5-.1-.42-.53-1.92-2-3-1.24-.91-2.53-.99-3-1l3-3Z"/>
      <path class="cls-6" d="M131.24,80.21c1.08.74,1.02,2.47,1,3-.08,2.22-1.61,3.65-2,4-.16-1.3-.61-3.05-2-4-1.01-.69-1.92-.56-2-1-.17-.9,3.25-3.2,5-2Z"/>
      <path class="cls-6" d="M164.24,92.21c-.08-1.63-.34-3.69-1-6-.58-2.01-1.31-3.68-2-5-.17,1.47-.47,3.16-1,5-.83,2.89-1.97,5.23-3,7,.98-.4,2.34-.83,4-1,1.15-.12,2.17-.09,3,0Z"/>
      <path class="cls-6" d="M159.24,88.21c-.14-.77-.33-1.83-1-3-.9-1.59-2.17-2.51-3-3,.42.84.97,2.23,1,4,.05,3.85-2.43,6.44-3,7,2-.33,4-.67,6-1,.16-.91.3-2.32,0-4Z"/>
      <path class="cls-3" d="M114.24,75.21c-3.99-.3-10.31-.58-18,0-16.52,1.25-24.04,5.32-36,7-7.87,1.11-19.68,1.47-35-3,4.19,6.29,12.03,16.19,25,24,12.85,7.74,24.41,9.61,27,10,11.1,1.66,20.31.29,26-1,11.99,1.19,22.18,1.26,30,1,11.25-.37,17.65-1.44,23-6,2.46-2.1,4.04-4.36,5-6-7.93.37-18.71.02-31-3-8.84-2.17-16.22-5.16-22-8,.56-1.91,1.22-3.91,2-6,1.26-3.34,2.63-6.35,4-9Z"/>
      <circle class="cls-2" cx="112.54" cy="50.81" r="12.8"/>
      <circle class="cls-9" cx="112.16" cy="50.53" r="9.85"/>
      <circle cx="112.88" cy="50.64" r="5.97"/>
      <circle class="cls-8" cx="106.51" cy="44.71" r="4.04"/>
      <path class="cls-6" d="M149.24,94.21c.71-1.67,1.43-3.68,2-6,.55-2.22.85-4.25,1-6,.67,1.01,1.42,2.34,2,4,1,2.84,1.08,5.37,1,7-2,.33-4,.67-6,1Z"/>
      <path class="cls-6" d="M145.24,93.21c.18-.8.39-2.25,0-4-.45-2.01-1.45-3.36-2-4-.16,1.11-.45,2.49-1,4-.61,1.66-1.35,3-2,4h5Z"/>
      <path class="cls-6" d="M140.24,93.21c.17-.92.3-2.33,0-4-.23-1.26-.64-2.28-1-3-.25.92-.57,1.93-1,3-.62,1.56-1.33,2.89-2,4h4Z"/>
      <path class="cls-6" d="M136.24,93.21c.16-.97.27-2.36,0-4-.38-2.34-1.36-4.05-2-5,.19.85.38,2.29,0,4-.61,2.74-2.32,4.41-3,5h5Z"/>
      <path class="cls-6" d="M132.24,92.21c.19-.45-.27-1.05-1-2-.74-.96-1.49-1.61-2-2,.12.48.22,1.21,0,2-.34,1.2-1.15,1.55-1,2,.28.85,3.59,1,4,0Z"/>
      <path class="cls-6" d="M150.24,91.21c-.17-.76-.51-1.26-1-2-.36-.54-1.2-1.79-2-3,.13.7.23,1.76,0,3-.38,2.04-1.45,3.4-2,4h5c.1-.46.19-1.18,0-2Z"/>
      <path class="cls-6" d="M128.24,92.21c.14-.52.37-1.65,0-3-.47-1.71-1.59-2.68-2-3,.1.46.18,1.17,0,2-.37,1.74-1.62,2.72-2,3,1.33.33,2.67.67,4,1Z"/>
      <path class="cls-7" d="M150.24,51.21c1.1.05,3.77.18,5,2,.99,1.46.74,3.57,0,5-1.33,2.58-4.41,3.3-7,4-4.78,1.3-9.23,3.66-14,5-5.27,1.48-12.37,6.07-20,20,3.75,2.21,6.96,3.37,9,4,13.01,4.01,32.27,2.86,38,1,.42-.14,1.78-.6,3,0,1.55.77,2.43,3.07,2,5-.47,2.11-2.48,3.76-5,4-6.85.18-15.39-.19-25-2-11.55-2.18-21-5.74-28-9,.67-2.72,1.85-6.62,4-11,10.34-21.08,30.96-28.33,38-28Z"/>
      <g>
        <path class="cls-10" d="M101.24,38.21c3.77-.96,6.56-.41,8,0,5.71,1.64,9.1,6.67,10,8,1.98,2.93,1.83,4.25,4,6,.42.34,4.16,3.27,7,2,2.85-1.27,3.47-6.18,3-9-1.14-6.78-10.43-12.01-23-14"/>
        <path d="M101.24,38.21c9.11-2.9,16.95,3.75,20.56,11.67,1.12,1.91,3.2,3.17,5.23,3.89,3.29,1.21,5.24-1.52,5.68-4.49,2.12-11.71-13.58-16.25-22.47-18.07,8.19,1.13,20.78,4.32,23.33,13.43.74,3.6.14,9.6-4.32,10.34-3.23.16-6.54-1.97-8.21-4.65-3.5-7.83-10.67-14.39-19.79-12.12h0Z"/>
      </g>
      <path class="cls-7" d="M123.24,26.21c-.07-2.76-.48-6.64-2-11-1.97-5.66-4.95-9.66-7-12,1.27,2.57,3.08,7.15,3,13-.04,2.76-.49,5.13-1,7,.92.25,1.93.57,3,1,1.56.62,2.89,1.33,4,2Z"/>
      <path class="cls-7" d="M96.24,21.21c-.43-1.91-1.27-4.44-3-7-4.59-6.78-11.93-8.57-14-9,1.81,1.08,5.35,3.51,8,8,2.13,3.61,2.77,7,3,9,.66-.35,1.68-.79,3-1,1.24-.2,2.29-.11,3,0Z"/>
      <path class="cls-7" d="M35.24,91.21c-1.7,1.72-2,3.11-2,4,0,2.17,1.79,3.3,4,7,1,1.67,1.64,3.11,2,4,1,.33,2,.67,3,1-.33,1.33-.67,2.67-1,4,1.79.84,5.78,2.41,11,2,5.53-.43,9.39-2.85,11-4-3.76-1.29-8.24-3.18-13-6-6.67-3.96-11.59-8.4-15-12Z"/>
      <path class="cls-5" d="M81.24,103.21c-4.01,3.86-8.66,7.94-14,12-7.07,5.38-13.88,9.64-20,13,1.95,1.3,4.63,2.81,8,4,3.93,1.39,7.44,1.86,10,2,1.67-1.33,3.33-2.67,5-4v4c2.2-.58,5.5-1.71,9-4,2.94-1.92,6.1-3.98,8-8,2.15-4.53,1.46-8.97,1-11-.89-.44-1.94-1.07-3-2-2.41-2.12-3.51-4.6-4-6Z"/>
      <path class="cls-5" d="M103.24,112.21c3,7.67,6,15.33,9,23,1.33-1,2.67-2,4-3,.67,1.33,1.33,2.67,2,4,1.67-.9,4.52-2.72,7-6,2.7-3.56,3.64-7.1,4-9-2.67-2.67-5.33-5.33-8-8-2.21.08-4.55.09-7,0-3.98-.14-7.66-.51-11-1Z"/>
      <path d="M103.08,112.68c-8.34-2.87-15.65-8.4-20.84-15.48,5.41,6.81,12.84,12.01,21.16,14.52,0,0-.31.95-.31.95h0Z"/>
      <path class="cls-1" d="M59.24,108.21c-1.24.68-2.57,1.35-4,2-2.84,1.29-5.54,2.26-8,3"/>
      <path class="cls-1" d="M56.24,106.21c-1.2.69-2.54,1.37-4,2-4.08,1.76-7.89,2.6-11,3"/>
      <path class="cls-1" d="M53.24,105.21c-1.73.71-3.73,1.41-6,2-1.79.46-3.47.78-5,1"/>
      <path class="cls-1" d="M50.24,103.21c-1.6.36-3.26.69-5,1-2.44.43-4.78.76-7,1"/>
      <path class="cls-1" d="M46.24,100.21c-.91.36-1.91.7-3,1-2.23.61-4.27.89-6,1"/>
      <path class="cls-1" d="M41.24,97.21c-.5.35-1.17.73-2,1-2.19.72-4.13.27-5,0"/>
      <path class="cls-1" d="M38.24,94.21c-.25.24-.93.85-2,1-1.66.23-2.84-.85-3-1"/>
      <path class="cls-1" d="M26.24,80.21c-1.38.41-3.06.79-5,1-2.33.25-4.37.17-6,0"/>
      <path class="cls-1" d="M82.24,105.21c-3.29,3.5-7.26,7.27-12,11-7.54,5.95-14.86,10.1-21,13"/>
      <path class="cls-1" d="M83.24,107.21c-3.06,3.5-6.71,7.24-11,11-6.36,5.57-12.57,9.8-18,13"/>
      <path class="cls-1" d="M77.24,113.21c-1.15,1.94-2.47,3.95-4,6-4.61,6.18-9.63,10.73-14,14"/>
      <path class="cls-1" d="M84.24,108.21c-2,3.19-4.32,6.56-7,10-5.07,6.51-10.26,11.79-15,16"/>
      <path class="cls-1" d="M85.24,109.21c-2.27,3.3-4.6,6.64-7,10-2.67,3.75-5.34,7.42-8,11"/>
      <path class="cls-1" d="M86.24,110.21c-.58,2.62-1.5,5.7-3,9-3,6.57-7.02,11.16-10,14"/>
      <path class="cls-1" d="M87.24,110.21c-.51,2.51-1.17,5.19-2,8-1.21,4.09-2.6,7.76-4,11"/>
      <path class="cls-1" d="M105.24,112.21c3,7,6,14,9,21"/>
      <path class="cls-1" d="M106.24,112.21c3.33,6.67,6.67,13.33,10,20"/>
      <path class="cls-1" d="M109.24,113.21c4,7,8,14,12,21"/>
      <path class="cls-1" d="M111.24,113.21c4.33,6,8.67,12,13,18"/>
      <path class="cls-1" d="M114.24,113.21c4,5,8,10,12,15"/>
      <path class="cls-1" d="M117.24,113.21c3.67,4,7.33,8,11,12"/>
    </g>
  </g>
</svg>