<?xml version="1.0" encoding="UTF-8"?>
<svg id="Layer_2" data-name="Layer 2" xmlns="http://www.w3.org/2000/svg" viewBox="0 0 296.39 142.74">
  <defs>
    <style>
      .cls-1 {
        fill: #ffe7bc;
      }

      .cls-1, .cls-2, .cls-3, .cls-4 {
        stroke: #000;
        stroke-miterlimit: 10;
      }

      .cls-2 {
        fill: none;
      }

      .cls-5 {
        fill: #ff4a3f;
      }

      .cls-6, .cls-3 {
        fill: #fff;
      }

      .cls-7 {
        fill: #333;
      }

      .cls-8 {
        fill: #3f2200;
      }

      .cls-9 {
        fill: #ffbc3f;
      }

      .cls-10, .cls-4 {
        fill: #00aa6b;
      }
    </style>
  </defs>
  <g id="Layer_1-2" data-name="Layer 1">
    <g>
      <path class="cls-4" d="M46.45,63.23c.12-2.12.42-9.74-4-23C37.73,26.08,27.74,5.85,22.45,7.23c-3.48.91-.6,10.05-5,26C12.28,51.96,4.44,53.39,1.45,69.23c-3.16,16.76,2.29,32.8,6,33,2.97.16,3.11-9.91,11-15,6.65-4.29,15.22-2.74,21-1,2.57-4.44,6.4-12.45,7-23Z"/>
      <path class="cls-4" d="M187.45,17.23c-9.69-12.72-25.27-18.98-40-16-16.44,3.32-24.64,16.7-26,19,3.24,2.69,9.31,6.97,18,9,5.15,1.2,9.67,1.25,13,1"/>
      <path class="cls-4" d="M171.45,115.23c-5.68,7.74-10.1,13.92-13,18-4.57,6.44-6.21,8.86-9,9-5.36.28-11.52-8.02-10-13,.84-2.74,3.52-2.92,8-7,3.49-3.18,5.67-6.56,7-9"/>
      <path class="cls-4" d="M95.45,114.23c-6.54,3.06-11.61,5.95-15,8-7.37,4.46-10.63,7.26-14,6-2.6-.97-3.73-3.8-5-7-1.98-4.98-2.86-12.3,0-14,1.19-.71,2.04.13,5,0,3-.13,5.4-1.14,7-2"/>
      <path class="cls-1" d="M295.45,16.23c-3.55-9.51-24.76-10.13-36-10-65.54.78-112,27-112,27-32.9,18.56-39,32.84-59,31-7.41-.68-22.08-4.07-42-1-7.85,1.21-13.52,2.96-15,7-2.08,5.69,5.16,13.1,8,16,24.98,25.55,71,31,71,31,6.95.82,65.65,7.1,111-21,13.24-8.2,16.02-13.56,33-22,13.29-6.61,25.9-10.44,33-23,2.41-4.26,3.48-8.27,4-11-1.03,1.09-3,2.87-6,4-1.97.74-3.74.95-5,1,2.3-1.36,5.84-3.85,9-8,2.32-3.05,3.52-5.79,4-7,1.84-4.58,3.18-10.83,2-14Z"/>
      <path class="cls-10" d="M40.45,66.23c.24-1.98,6.55-2.7,13.5-3.5,25.62-2.94,33.79,5.67,49,0,3.16-1.18,8.11-4.45,18-11,8.5-5.63,11.44-8.21,17-12,11.5-7.85,21.42-12.15,28-15,8.94-3.88,23.05-9.12,45-13,19.83-3.5,76.22-13.46,84,4,2.22,4.98.11,11.37-3,15-8.29,9.69-26.04,2.59-47.5,2.5-13.33-.06-27.76,5.63-57,16-56.3,19.97-57.03,31.25-84,33-32.3,2.1-63.55-11.45-63-16Z"/>
      <path class="cls-9" d="M39.95,66.73c-1.44,3.15,10.61,13.27,24,19,27.72,11.86,55.79,2.58,69-2,23.53-8.15,18.43-13.62,43-22,26.8-9.14,49.54-8.34,52-19,.14-.6.81-3.84-1-6-5.13-6.13-24.55,3.05-54,16-34.96,15.37-52.44,23.06-58,24-40.23,6.82-72.71-15.02-75-10Z"/>
      <path class="cls-5" d="M39.95,68.73c-1.87,2.5,6.52,11.49,7,12,3.14,3.34,10.32,9.89,31,15,17.63,4.35,29.33,7.24,43,3,10.83-3.36,11.7-7.73,24-13,14.88-6.38,17.48-1.25,36-6,6.83-1.75,27.12-7.67,41-25,2.52-3.15,5.01-6.31,4-8-2.26-3.78-20.16,3.12-50,15-65.86,26.23-70.73,29.27-83,28-28.93-3-50.06-24.93-53-21Z"/>
      <path class="cls-2" d="M216.45,23.23c-2.28,3.36-10.3,16.01-7,31,.68,3.11,2.04,8.9,7,14,7.87,8.08,18.63,8.06,21,8"/>
      <path class="cls-2" d="M223.45,24.23c-.96,3.59-2.29,10.7,0,19,4.09,14.82,16.53,21.7,19,23"/>
      <path class="cls-4" d="M201.45,69.23c-15.4-.1-19.23,2.61-20,5-1.16,3.58,4.59,6.37,6,15,1.2,7.35-1.92,11.73,0,13,2.92,1.93,11.95-6.98,14-9,6.38-6.29,10.48-12.55,13-17"/>
      <path class="cls-8" d="M66.95,65.73c.27-.79,2.84-1.46,4,0,.78.99.68,2.62,0,3-1.13.64-4.36-1.95-4-3Z"/>
      <path class="cls-8" d="M78.95,68.73c.15-.66,1.39-.89,2-1,2.1-.38,4.89.1,5,1,.12.97-2.77,2.73-5,2-1.05-.34-2.16-1.3-2-2Z"/>
      <path class="cls-8" d="M93.95,68.73c-1.71-.32-3.2,1.33-3,2,.29.98,4.62,1.06,5,0,.22-.61-.79-1.77-2-2Z"/>
      <path class="cls-8" d="M84.95,73.73c.25-1.22,3.42-1.84,4-1,.48.7-.43,3.01-2,3-1.13,0-2.16-1.21-2-2Z"/>
      <path class="cls-8" d="M100.95,68.73c-.24-1.26,2.53-4.03,5-3,1.72.72,2.64,2.99,2,4-1.04,1.64-6.69.61-7-1Z"/>
      <path class="cls-8" d="M97.95,73.73c.29-.73,2.54-.9,3,0,.32.62-.2,1.79-1,2-1.08.28-2.27-1.33-2-2Z"/>
      <path class="cls-8" d="M108.95,60.73c.21-1.11,2.33-1.67,3-1s.11,2.79-1,3c-.95.18-2.18-1.05-2-2Z"/>
      <path class="cls-8" d="M111.95,67.73c.41-1,1.85-1.57,3-1,1.11.56,1.56,2,1,3-.4.72-1.26,1.08-2,1-1.35-.14-2.51-1.77-2-3Z"/>
      <path class="cls-8" d="M117.95,60.73c.71-1.38,2.99-2.01,4-1,.72.71.69,2.14,0,3-1,1.25-3.27,1.12-4,0-.41-.62-.28-1.46,0-2Z"/>
      <path class="cls-8" d="M124.95,52.73c-.43-.76,1.64-3.42,3-3,.7.22,1.21,1.25,1,2-.41,1.48-3.58,1.74-4,1Z"/>
      <path class="cls-8" d="M126.95,59.73c1.53-.86,4.01.71,4,2,0,1.02-1.58,2.05-3,2-.2,0-1.48-.06-2-1-.56-1.01.06-2.47,1-3Z"/>
      <path class="cls-8" d="M132.95,52.73c-.91.35-.91,3.65,0,4,.59.23,2-.63,2-2s-1.41-2.23-2-2Z"/>
      <path class="cls-8" d="M133.95,46.73c.3-1.32,3.83-2.37,5-1,.84.98.09,2.78,0,3-.08.2-.87,2.04-2,2-.62-.02-1.08-.68-2-2-.73-1.05-1.1-1.58-1-2Z"/>
      <path class="cls-8" d="M139.95,55.73c-.24-1.77,2.66-3.67,4-3s1.56,4.13,0,5c-1.33.74-3.8-.49-4-2Z"/>
      <path class="cls-8" d="M143.95,46.73c.57-1.04,2.12-1.66,3-1,.81.61.84,2.16,0,3-.84.84-2.38.82-3,0-.45-.6-.29-1.47,0-2Z"/>
      <path class="cls-8" d="M146.95,38.73c.21-.21,1.32-1.32,2-1,.68.33.91,2.09,0,3s-2.67.68-3,0c-.32-.68.79-1.79,1-2Z"/>
      <path class="cls-8" d="M153.95,45.73c.67,0,1.45,1.34,1,2-.38.56-1.62.56-2,0-.45-.66.33-2,1-2Z"/>
      <path class="cls-8" d="M154.95,38.73c.81-1.28,2.81-1.96,4-1,1.12.9,1.1,2.9,0,4-1.1,1.1-3.1,1.12-4,0-.7-.87-.52-2.18,0-3Z"/>
      <path class="cls-8" d="M159.95,47.73c1.28-1.01,3.53-.94,4,0,.43.86-.57,2.56-2,3-1.14.35-2.72-.06-3-1-.23-.77.51-1.62,1-2Z"/>
      <circle class="cls-3" cx="255.48" cy="23.83" r="8.94"/>
      <circle class="cls-7" cx="256.82" cy="23.61" r="6.88"/>
      <circle cx="258.58" cy="23.29" r="4.17"/>
      <circle class="cls-6" cx="252.96" cy="22.82" r="3.49"/>
      <g>
        <path class="cls-10" d="M187.45,76.23c1.66-.72,3.67-1.44,6-2,3.06-.73,5.8-.97,8-1"/>
        <path d="M187.45,76.23c4.12-2.55,9.2-3.64,14-3-4.8.77-9.31,1.73-14,3h0Z"/>
      </g>
      <g>
        <path class="cls-10" d="M190.45,82.23c1.88-1.01,3.88-2.01,6-3,2.42-1.13,4.76-2.12,7-3"/>
        <path d="M190.45,82.23c3.9-2.81,8.34-4.82,13-6-4.14,2.46-8.47,4.41-13,6h0Z"/>
      </g>
      <g>
        <path class="cls-10" d="M192.45,93.23c2.61-1.55,5.81-3.79,9-7,2.08-2.09,3.72-4.15,5-6"/>
        <path d="M192.45,93.23c5.18-3.87,9.76-8.12,14-13-3.07,5.67-8.13,10.35-14,13h0Z"/>
      </g>
      <g>
        <path class="cls-10" d="M192.45,86.23c2.33-1.33,4.67-2.67,7-4"/>
        <path d="M192.45,86.23c1.99-1.92,4.33-3.27,7-4-1.98,1.93-4.33,3.26-7,4h0Z"/>
      </g>
      <g>
        <path class="cls-10" d="M179.45,19.23c-2.42-2.44-7.4-6.77-15-9-12.04-3.53-22.16.69-25,2"/>
        <path d="M179.09,19.58c-10.05-10.68-26.4-13.4-39.65-7.35,13.29-6.45,29.92-3.94,40.35,6.65,0,0-.71.7-.71.7h0Z"/>
      </g>
      <g>
        <path class="cls-10" d="M168.45,23.23c-2.96-1.95-7.69-4.56-14-6-8.27-1.89-15.19-.86-19,0"/>
        <path d="M168.17,23.65c-9.42-6.49-21.52-8.83-32.72-6.42,11.23-2.76,23.53-.72,33.28,5.58,0,0-.55.83-.55.83h0Z"/>
      </g>
      <g>
        <path class="cls-10" d="M158.45,27.23c-3.72-1.16-8.08-2.24-13-3-4-.61-7.7-.9-11-1"/>
        <path d="M158.3,27.71c-7.68-2.56-15.72-4.08-23.85-4.48,8.14.07,16.29,1.25,24.15,3.52l-.3.96h0Z"/>
      </g>
      <g>
        <path class="cls-10" d="M166.45,115.23c-4.33,6.33-8.67,12.67-13,19"/>
        <polygon points="166.86 115.51 153.45 134.23 166.04 114.95 166.86 115.51 166.86 115.51"/>
      </g>
      <g>
        <path class="cls-10" d="M159.45,117.23l-12,15"/>
        <polygon points="159.84 117.54 147.45 132.23 159.06 116.92 159.84 117.54 159.84 117.54"/>
      </g>
      <g>
        <path class="cls-10" d="M89.45,113.23c-6.67,3-13.33,6-20,9"/>
        <polygon points="89.65 113.69 69.45 122.23 89.24 112.78 89.65 113.69 89.65 113.69"/>
      </g>
      <g>
        <path class="cls-10" d="M84.45,111.23c-5,1.33-10,2.67-15,4"/>
        <polygon points="84.58 111.72 69.45 115.23 84.32 110.75 84.58 111.72 84.58 111.72"/>
      </g>
      <polygon points="77.45 109.73 71.45 109.23 77.45 108.73 77.45 109.73 77.45 109.73"/>
      <g>
        <path class="cls-10" d="M40.45,64.23c-1.15-6.1-2.75-12.82-5-20-2.73-8.74-5.88-16.43-9-23"/>
        <path d="M40.45,64.23c-3.46-14.7-8.15-29.08-14-43,7.09,13.37,11.86,28.02,14,43h0Z"/>
      </g>
      <g>
        <path class="cls-10" d="M35.45,66.23c-.25-4.09-1.11-10.2-4-17-2.46-5.79-5.56-10.11-8-13"/>
        <path d="M35.45,66.23c-1.34-10.86-5.48-21.22-12-30,.97.98,1.85,2.03,2.72,3.1,5.93,7.61,9.35,17.23,9.28,26.9h0Z"/>
      </g>
      <g>
        <path class="cls-10" d="M32.45,68.23c-1.22-2.77-3.11-6.31-6-10-2.79-3.56-5.67-6.17-8-8"/>
        <path d="M32.45,68.23c-3.75-6.75-8.38-12.7-14-18,6.48,4.17,11.55,10.7,14,18h0Z"/>
      </g>
      <g>
        <path class="cls-10" d="M26.45,50.23c-1.11-1.57-2.43-3.26-4-5-1.37-1.52-2.72-2.85-4-4"/>
        <path d="M26.45,50.23c-2.89-2.89-5.48-5.79-8-9,3.44,2.17,6.25,5.33,8,9h0Z"/>
      </g>
      <g>
        <path class="cls-10" d="M31.45,71.23c-2.17-2.13-5.15-4.65-9-7-4.12-2.51-7.97-4.04-11-5"/>
        <path d="M31.45,71.23c-6.1-5-12.72-8.96-20-12,7.69,1.68,14.9,6.01,20,12h0Z"/>
      </g>
      <g>
        <path class="cls-10" d="M29.45,73.23c-1.94-1.11-7.16-3.75-14-3-4.08.45-7.17,1.93-9,3"/>
        <path d="M29.45,73.23c-7.28-3.41-15.7-3.53-23,0,6.61-4.88,16.39-4.75,23,0h0Z"/>
      </g>
      <g>
        <path class="cls-10" d="M31.45,78.23c-1.85-.3-7.24-.94-13,2-6.76,3.44-9.37,9.43-10,11"/>
        <path d="M31.45,78.23c-8.24-.78-16.61,3.02-21.18,9.95-.68.96-1.27,1.99-1.82,3.05.34-1.15.85-2.24,1.4-3.31,4.01-7.57,13.27-11.82,21.6-9.69h0Z"/>
      </g>
      <g>
        <path class="cls-10" d="M26.45,74.23c-2.9-.03-8.89.32-15,4-3.24,1.95-5.51,4.22-7,6"/>
        <path d="M26.45,74.23c-8.36.6-16.11,4.01-22,10,4.77-6.97,13.65-10.88,22-10h0Z"/>
      </g>
    </g>
  </g>
</svg>