<?xml version="1.0" encoding="UTF-8"?>
<svg id="Layer_2" data-name="Layer 2" xmlns="http://www.w3.org/2000/svg" viewBox="0 0 2412.92 1181.7">
  <defs>
    <style>
      .cls-1 {
        fill: #d8f0ff;
      }

      .cls-2, .cls-3 {
        fill: #fff;
      }

      .cls-4 {
        stroke: #fff;
        stroke-width: .5px;
      }

      .cls-4, .cls-5 {
        fill: none;
      }

      .cls-4, .cls-5, .cls-3, .cls-6 {
        stroke-miterlimit: 10;
      }

      .cls-7 {
        fill: #a4c2ff;
      }

      .cls-8 {
        fill: #c2e0ff;
      }

      .cls-9 {
        fill: #7f3300;
      }

      .cls-10 {
        fill: #503b00;
      }

      .cls-11 {
        fill: #c2feff;
      }

      .cls-12 {
        fill: #1ea700;
      }

      .cls-13 {
        fill: #999;
      }

      .cls-5, .cls-3 {
        stroke: #bfbfbf;
      }

      .cls-14 {
        fill: #528600;
      }

      .cls-15 {
        fill: #ccc;
      }

      .cls-16 {
        fill: #bcff35;
      }

      .cls-17 {
        fill: #c7dd60;
      }

      .cls-6 {
        fill: #9cd000;
        stroke: #60bf00;
      }

      .cls-18 {
        fill: #ff2714;
      }
    </style>
  </defs>
  <g id="Layer_1-2" data-name="Layer 1">
    <rect class="cls-11" width="2412.26" height="694.59"/>
    <path class="cls-2" d="M57.02,287.82c95.84,50.66,183.6,3.52,305.99-15.3,227.47-34.98,385.62,57.47,411.55,0,7.19-15.94,1.84-36.55-7.65-48.96-45.99-60.12-227.4,22.52-243.26-10.71-9.75-20.42,57-55.33,47.43-85.68-10.64-33.72-111.08-47.72-197.36-27.54-62.43,14.6-93.53,41.5-119.34,24.48-28.42-18.74-10.93-62.49-35.19-90.27C197.92,9.49,144.45-2.33,5,49.15v200.42c10.6,10.42,27.88,25.49,52.02,38.25Z"/>
    <rect class="cls-16" y="695.59" width="2412.26" height="480.4"/>
    <path class="cls-17" d="M2261.74,776.91c-93.95,44.7-170.13,52.18-222.59,50.64-116.19-3.42-159.17-52.37-288.81-44.1-42.44,2.71-145.46,9.28-168.74,65.33-18.99,45.71,32.91,81.34,12.98,135.56-20.98,57.09-92.81,56.5-102.22,104.53-6.04,30.81,17.22,63.23,47.05,91.46,210.51-1.23,421.03-2.46,631.54-3.68,135.46-66.76,203.29-192.39,176.46-290.3-15.01-54.78-56.73-90.26-85.69-109.44Z"/>
    <path class="cls-18" d="M343.79,417.67c42.07-56.86,84.15-113.73,126.22-170.59,45.64-30.85,91.29-61.71,136.93-92.56,54.57,34.17,109.14,68.34,163.7,102.51,39.27,56.1,78.54,112.2,117.81,168.29v344.24H345.32c-.51-117.3-1.02-234.59-1.53-351.89Z"/>
    <path class="cls-7" d="M2279.1,812.43c-88.71,36.83-160.63,43-210.16,41.72-109.71-2.82-150.29-43.15-272.68-36.33-40.07,2.23-137.34,7.65-159.32,53.83-17.93,37.66,31.07,67.02,12.26,111.69-21.22,50.39-92.22,47.64-96.51,86.12-3.5,31.34,42,61.26,63.83,75.62,33.24,21.86,65.73,29.58,85.79,32.68,159.61.04,319.22.08,478.83.12,139.38-66.91,206.45-188.59,178.87-275.29-4.81-15.12-21.06-56.1-80.9-90.17Z"/>
    <rect class="cls-2" x="466.19" y="550.01" width="296.81" height="219.65"/>
    <rect class="cls-2" x="554.92" y="214.19" width="106.33" height="108.5"/>
    <rect class="cls-2" x="414.17" y="413.08" width="74.97" height="76.5"/>
    <rect class="cls-2" x="732.4" y="413.08" width="74.97" height="76.5"/>
    <rect class="cls-2" x="573.28" y="413.08" width="74.97" height="76.5"/>
    <rect class="cls-9" x="563.6" y="222.87" width="41.23" height="41.23"/>
    <rect class="cls-9" x="611.34" y="222.87" width="41.23" height="41.23"/>
    <rect class="cls-9" x="563.6" y="272.78" width="41.23" height="41.23"/>
    <rect class="cls-9" x="611.34" y="272.78" width="41.23" height="41.23"/>
    <rect class="cls-9" x="579.4" y="419.2" width="29.07" height="29.07"/>
    <rect class="cls-9" x="613.06" y="419.2" width="29.07" height="29.07"/>
    <rect class="cls-9" x="579.4" y="454.39" width="29.07" height="29.07"/>
    <rect class="cls-9" x="613.06" y="454.39" width="29.07" height="29.07"/>
    <rect class="cls-9" x="738.52" y="419.2" width="29.07" height="29.07"/>
    <rect class="cls-9" x="772.18" y="419.2" width="29.07" height="29.07"/>
    <rect class="cls-9" x="738.52" y="454.39" width="29.07" height="29.07"/>
    <rect class="cls-9" x="772.18" y="454.39" width="29.07" height="29.07"/>
    <rect class="cls-9" x="420.29" y="419.2" width="29.07" height="29.07"/>
    <rect class="cls-9" x="453.95" y="419.2" width="29.07" height="29.07"/>
    <rect class="cls-9" x="420.29" y="454.39" width="29.07" height="29.07"/>
    <rect class="cls-9" x="453.95" y="454.39" width="29.07" height="29.07"/>
    <path class="cls-18" d="M484.55,563.25c18.34,29.11,36.68,58.22,55.02,87.33,18.13-29.11,36.25-58.22,54.38-87.33h-109.39Z"/>
    <path class="cls-18" d="M479.96,580.99c17.08,26.07,34.17,52.13,51.25,78.2-17.08,25.93-34.17,51.86-51.25,77.78,0-52,0-103.99,0-155.99Z"/>
    <path class="cls-5" d="M614.59,550.68v219.65"/>
    <path class="cls-18" d="M599.29,580.88c-17.08,26.07-34.17,52.13-51.25,78.2,17.08,25.93,34.17,51.86,51.25,77.78,0-52,0-103.99,0-155.99Z"/>
    <path class="cls-18" d="M483.91,756.43c18.34-29.11,36.68-58.22,55.02-87.33,18.13,29.11,36.25,58.22,54.38,87.33h-109.39Z"/>
    <path class="cls-18" d="M633.46,562.28c18.34,29.11,36.68,58.22,55.02,87.33,18.13-29.11,36.25-58.22,54.38-87.33h-109.39Z"/>
    <path class="cls-18" d="M628.87,580.02c17.08,26.07,34.17,52.13,51.25,78.2-17.08,25.93-34.17,51.86-51.25,77.78,0-52,0-103.99,0-155.99Z"/>
    <path class="cls-18" d="M748.2,579.91c-17.08,26.07-34.17,52.13-51.25,78.2,17.08,25.93,34.17,51.86,51.25,77.78,0-52,0-103.99,0-155.99Z"/>
    <path class="cls-18" d="M632.82,755.46c18.34-29.11,36.68-58.22,55.02-87.33,18.13,29.11,36.25,58.22,54.38,87.33h-109.39Z"/>
    <path class="cls-3" d="M470.78,246.32c-47.43,64.77-94.86,129.54-142.28,194.3-8.67-3.06-17.34-6.12-26.01-9.18,48.45-65.79,96.9-131.58,145.34-197.36,53.04-34.68,106.08-69.36,159.11-104.04,60.18,34.68,120.36,69.36,180.53,104.04,47.43,69.36,94.86,138.71,142.28,208.07-8.16,2.55-16.32,5.1-24.48,7.65-44.88-64.26-89.76-128.52-134.63-192.77-54.57-34.17-109.14-68.34-163.7-102.51-45.39,30.6-90.78,61.2-136.16,91.8Z"/>
    <path class="cls-6" d="M5,916.57c.94-12.61,8.55-23.76,19.89-29.07,12-5.62,26.29-3.83,36.72,4.59,1.74-4.04,5.68-11.45,13.77-16.83,18.16-12.07,39.8-2.25,41.31-1.53,5.84-10.6,17.07-17.11,29.07-16.83,18.16.43,27.17,16.16,27.54,16.83,9.96-9.72,24.14-13.31,36.72-9.18,14.54,4.77,20.47,17.72,21.42,19.89,9.24-8.19,22.16-9.96,32.13-4.59,11.2,6.03,13.5,18.28,13.77,19.89,1.02-1.43,11.26-15.24,29.07-15.3,13.37-.05,25.8,7.67,32.13,19.89,3.56-2.34,13.66-8.3,27.54-7.65,18.46.87,29.83,12.79,32.13,15.3,3.34-.67,18.69-3.39,33.66,6.12,12.28,7.8,16.98,19.17,18.36,22.95,13.81-.82,25.7,8.97,27.54,21.42,2.05,13.93-8.94,27.99-24.48,29.07.09,3.55.03,17.87-10.71,30.6-9.78,11.59-22.26,14.55-26.01,15.3,11.32-4.93,24.28-2.38,32.13,6.12,9.85,10.67,6.38,25,6.12,26.01,5.59-7.62,14.8-11.25,22.95-9.18,10.61,2.7,18.11,14.76,15.3,27.54,2.34-.31,11.27-1.19,18.36,4.59,11.88,9.68,6.4,28.13,6.12,29.07-4.63,15.58-21.32,20.93-22.95,21.42,6.82,11.77,3.76,26.41-6.12,33.66-8.2,6.02-19.93,6.1-29.07,0H5v-260.09Z"/>
    <path class="cls-5" d="M320.84,437.56c45.9-63.24,91.8-126.48,137.69-189.71,49.47-34.17,98.94-68.34,148.4-102.51,57.12,35.19,114.24,70.38,171.35,105.57,44.88,65.28,89.76,130.56,134.63,195.83"/>
    <path class="cls-6" d="M216.13,1077.21c-14.21,7.23-30.73,4.34-39.78-6.12-9.62-11.12-6.51-25.83-6.12-27.54-1.45-1.26-15.5-13.87-13.77-33.66,1.57-17.95,14.9-27.71,16.83-29.07-.23-.89-3.82-15.51,6.12-26.01,8.21-8.67,22.08-10.75,33.66-4.59.89-1.1,13.13-15.77,32.13-13.77,14.53,1.53,22.89,11.75,24.48,13.77,1.79-.18,13.48-1.15,22.95,7.65,10.41,9.67,9.33,22.95,9.18,24.48"/>
    <path class="cls-5" d="M447.83,234.08c3.57,4.59,7.14,9.18,10.71,13.77"/>
    <path class="cls-5" d="M606.94,130.05v15.3"/>
    <path class="cls-5" d="M787.48,234.08c-3.06,5.61-6.12,11.22-9.18,16.83"/>
    <path class="cls-6" d="M220.72,1176.66c-13.41-3.63-23.58-14.39-26.01-27.54-2.81-15.23,5.25-31.03,19.89-38.25-16.17-14.36-19.04-36.6-9.18-50.49,9.95-14.01,28.81-13.82,30.6-13.77-2.59-14.81,3.54-29.39,15.3-36.72,12.95-8.08,26.95-3.75,29.07-3.06-5.89-14.73-1.47-31.59,10.71-41.31,12.77-10.19,31.24-10.26,44.37,0,.61-2.53,5.52-21.66,24.48-30.6,14.7-6.93,32.29-5.12,45.9,4.59,14.7-11.27,33.74-13.71,48.96-6.12,14.44,7.2,20.01,20.72,21.42,24.48,2.59-.7,23.22-5.88,41.31,7.65,14.78,11.06,17.78,27.08,18.36,30.6,16.5-.77,31.94,7.52,39.78,21.42,10.12,17.95,2.43,36.2,1.53,38.25,15.21,6.5,25.4,20.2,26.01,35.19.55,13.46-6.81,23.14-9.18,26.01,13.01,5.96,21.41,18.56,21.42,32.13.01,16.36-12.17,26.28-13.77,27.54H220.72Z"/>
    <path class="cls-8" d="M2267.68,1109.18c-2.73,6.56-5.58,13.28-8.55,20.17-6.38,14.76-13.32,30.3-20.87,46.64-.26.59-.54,1.18-.81,1.77-47.2.22-94.39.44-141.59.67-82.17.38-164.33.77-246.5,1.16-15.66.07-31.31.15-46.97.22-2.82-.26-5.84-.57-9.02-.95h-.03c-2.59-.31-5.3-.67-8.1-1.08-3.48-.51-7.12-1.1-10.88-1.79-36.94-6.75-85.98-22.9-123.34-62.79-13.13-14.02-31.35-33.47-27.5-54.54,5.79-31.77,52.77-28.67,74.99-67.21,22.91-39.76-15.96-69.05,7.66-104,18.94-28.04,61.91-35.73,84.25-39.73,89.46-16.02,134.66,24.83,223.66,38.47,158.58,24.29,242.03-72.09,289.22-31.73,24.99,21.38,37.03,80.23-35.62,254.72Z"/>
    <path class="cls-2" d="M1107.16,60.34c-4.22-17.23-57.62-14.73-58.07-23.72-.11-2.32,2.92-7.49,71.15-25.35,16.42-4.3,29.97-7.6,39-9.74h226.43c-14.39,6.89-32.76,18.39-34.8,35.09-2.8,22.96,27.7,37.62,22.9,49.07-7.28,17.36-69.07-14.61-140.67,7.36-38.6,11.84-41.48,27.53-83.42,35.17-40.51,7.38-85.72,1.48-89.15-13.09-4-16.99,51.06-36.66,46.62-54.8Z"/>
    <path class="cls-2" d="M1896.68,514.06c24.34,2.68,59.71,7.25,102.51,15.3.51-47.43,1.02-94.86,1.53-142.28-16-16.99-43.08-41.72-82.62-61.2-23.4-11.53-67.66-32.67-126.99-29.07-65.5,3.97-111.39,35.8-130.05,50.49-6.33-5.41-43.85-36.43-97.92-30.6-47.62,5.14-76.01,35.4-82.62,42.84-21.87-12.28-70.14-35.12-130.05-27.54-61.65,7.8-135.41,47.78-133.11,87.21,1.67,28.64,42.96,47.9,55.08,53.55,45.06,21.01,67.77,5.52,142.28,7.65,77.53,2.22,84.54,19.9,186.65,24.48,26.99,1.21,15.92-.5,82.62,0,80.72.6,140.23,1.2,212.66,9.18Z"/>
    <path class="cls-14" d="M1688.43,192.6c-1.69-1.4-33.8-28.97-27.54-70.38,4.56-30.15,27.54-55.03,58.14-62.73-.84-7.34-1.24-16.75,0-27.54,1.45-12.63,4.66-23.01,7.65-30.6h685.41c-.51,53.55-1.02,107.1-1.53,160.64"/>
    <path class="cls-13" d="M888.45,662.47c3.26-2.59,8.4-6.21,15.3-9.18,25.44-10.95,51.34-2.96,68.85,3.06,63.9,21.99,120.14,41.35,117.81,62.73-1.66,15.18-31.94,23.23-59.67,30.6-55.04,14.63-104.9,12.22-142.28,6.12v-93.33Z"/>
    <path class="cls-15" d="M986.37,766.5c-8.2-8.62.98-33.34,13.77-48.96,24.52-29.93,79.68-47.55,110.16-21.42,17.52,15.01,27.22,44.77,16.83,58.14-11.83,15.21-38.88-4.69-94.86,6.12-26,5.02-39.34,13.02-45.9,6.12Z"/>
    <path class="cls-12" d="M2263.69,726.55c-11.72,9.04-28.09,18.64-48.96,22.95-72.68,15.01-131.41-48.26-136.16-53.55-55.95,48.92-134.78,60.9-200.42,30.6-91.78-42.36-104.95-142.98-105.57-148.4-73.4,12.84-138.13-34.78-146.87-93.33-6.52-43.65,18.48-90.63,62.73-116.28-37.04-59.26-33.75-134.76,7.65-188.18,36.85-47.56,98.41-70.54,159.11-59.67,11.94-20.14,44.6-68.78,107.1-94.86,111.54-46.55,215.84,21.42,224.9,27.54,48.15-30.27,107.67-32.85,154.52-6.12,52.1,29.73,66.31,83.03,68.85,93.33.51,189.2,1.02,378.41,1.53,567.61"/>
    <path class="cls-1" d="M2103.12,901.07c5.79-.56,29.43-2.57,66.01,5.17,6.7,1.42,70.48,14.92,69.57,29.35-.76,12-45.69,15.92-45.02,25.68.43,6.34,19.47,5.96,40.92,20.18,14.09,9.34,30.73,25.98,26.6,33.02-5.44,9.28-40.04-9.86-92.08-3.67-35.16,4.18-36.16,14.91-65.48,16.51-52.23,2.84-101.19-28.36-98.22-42.19,2.18-10.16,31.35-5.97,40.92-23.85,7.97-14.88-7.73-26.25,0-40.36,8.3-15.15,34.99-17.73,56.77-19.84Z"/>
    <path class="cls-13" d="M1640.25,765.99c-6,4.85-16.29,13.18-17.38,24.52-1.74,18.12,21.32,30.08,26.46,32.74,26,13.48,68.8,13.38,79.14-7.6,9.32-18.91-8.13-53.94-35.6-62.45-26.08-8.08-50.48,11.06-52.62,12.79Z"/>
    <path class="cls-15" d="M1586.01,835.99c5.91,13.5,29.24,14.07,43.36,9.06,12.4-4.4,30.58-17.65,27.03-32.62-3.39-14.31-26.02-27.55-42.47-24.72-21.01,3.61-34.25,33.82-27.92,48.28Z"/>
    <path class="cls-4" d="M1989.35,1000.38c-13.26,5.2-27.87,2.62-37.43-6.52-6.62-6.33-12.9-17.81-9.76-27.7,6.37-20.11,47.57-20.91,61.84-21.18,3.52-.07,62.98-.77,68.34,21.18,2.59,10.61-8.62,21.7-11.39,24.44-15.87,15.71-38.24,11.87-40.68,11.41"/>
    <path class="cls-4" d="M1995.6,991.82c-8.6,3.37-18.08,1.7-24.28-4.22-4.3-4.1-8.37-11.54-6.33-17.94,4.13-13.02,30.85-13.54,40.11-13.72,2.28-.04,40.85-.5,44.33,13.72,1.68,6.87-5.59,14.06-7.39,15.83-10.3,10.17-24.8,7.69-26.39,7.39"/>
    <path class="cls-1" d="M2092.87,1077.91c25.46-5.49,35.32,9.5,62.6,12.38,16.26,1.72,35.6-4.36,74.29-16.51,21.86-6.87,39.33-13.97,41.96-9.63,1.71,2.83-3.77,9.04-5.5,11.01-9.5,10.76-34.47,28.81-110.75,26.83-28.95-.75-82.12-4.83-82.55-13.76-.21-4.34,12.08-8.62,19.95-10.32Z"/>
    <path class="cls-4" d="M2000.52,984.48c-4.91,1.92-10.32.97-13.85-2.41-2.45-2.34-4.77-6.58-3.61-10.24,2.36-7.43,17.61-7.73,22.89-7.83,1.3-.03,23.31-.29,25.3,7.83.96,3.92-3.19,8.02-4.22,9.03-5.88,5.81-14.15,4.39-15.06,4.22"/>
    <path class="cls-1" d="M2198.05,1174.68s0,0,0,0c0,.07-.07.51-.16,1.09-.04.26-.08.51-.12.77-.03.19-.07.38-.1.57-82.17.38-164.33.77-246.5,1.16h0c3.92-4.33,10.26-10.5,19.26-15.94,36.52-22.06,69.5-3.58,115.57-4.13,69.58-.82,120.17-45.53,126.57-35.08,4.89,7.98-14.4,50.73-14.52,51.55Z"/>
    <path class="cls-1" d="M1692.74,1046.94c10.62-13.16,23.07-6.77,39.21-18.57,18.45-13.49,26.92-40.23,25.68-60.99-1.24-20.81-11.7-26.48-8.25-44.03,3.34-17.02,16.31-27.69,19.72-30.5,31.52-25.93,80.89-10.62,98.37-5.5,37.13,10.87,71.26,34.61,68.1,43.34-5.01,13.83-99.37-22.29-117.63,6.88-10.84,17.32,17.97,37.16,18.57,81.86.5,37.01-18.37,88.59-59.16,101.12-35.48,10.9-82.6-9.27-90.8-38.52-2.83-10.1-2.03-24.89,6.19-35.08Z"/>
    <path class="cls-10" d="M2412.26,1178.72h-235.46c19.5-34.29,39.18-75.92,54.83-124.76,9.02-28.18,25.09-92.79,32.13-175.94,7.46-88.13-2.98-109.68,11.47-193.54,7.34-42.61,11.34-44.63,10.71-65.79-2.48-82.79-66.45-141.47-85.68-159.11-48.72-44.7-102.06-62.65-134.64-70.38,43.19-3.19,103.67-.54,160.64,32.13,68.43,39.23,87.16,96.14,117.81,91.8,23.17-3.28,51.07-41.28,68.85-200.42-.22,288.67-.44,577.35-.66,866.02Z"/>
    <path class="cls-1" d="M1880.94,1154.4c-6.97-2.88-12.21-10.27-11.43-14.44.65-3.47,8.4-.48,11.52-5.15,2.86-4.27-1.64-9.76,1.18-12.23,3.19-2.8,13.34.38,16.48,5.65.4.66.63,1.28.74,1.91.53,3.21.16,6.26-4.31,14.57-5.1,9.48-6.83,10.33-8.1,10.65-2.26.58-4.23-.2-6.08-.97Z"/>
    <path class="cls-1" d="M2023.85,1093.43c2.34,3.05,14.68,1.48,19.86-5.06,2.4-3.03,1.64-5.08,5.05-8.77,3.79-4.09,7.4-4.44,7.22-6.07-.25-2.22-7.3-4.53-13.36-3.03-4.05,1-6.63,3.45-10.47,7.08-3.75,3.56-5.41,6.43-5.78,7.08-1.89,3.36-3.92,6.95-2.53,8.77Z"/>
  </g>
</svg>