<?xml version="1.0" encoding="UTF-8"?>
<svg id="Layer_2" data-name="Layer 2" xmlns="http://www.w3.org/2000/svg" viewBox="0 0 124.79 84.28">
  <defs>
    <style>
      .cls-1 {
        fill: #ffb864;
      }

      .cls-1, .cls-2, .cls-3, .cls-4 {
        stroke: #000;
        stroke-miterlimit: 10;
      }

      .cls-2 {
        fill: none;
      }

      .cls-3 {
        fill: #ffcb76;
      }

      .cls-5, .cls-4 {
        fill: #fff;
      }

      .cls-6 {
        fill: #333;
      }
    </style>
  </defs>
  <g id="Layer_1-2" data-name="Layer 1">
    <g>
      <path class="cls-3" d="M53.11,8.13C55.98,3.09,60.56.06,64.9.55c.87.1,4.24.48,5.89,3.37,1.75,3.05.16,6.41,0,6.74"/>
      <path class="cls-1" d="M7.51,32.12c.25-.86,2.07-6.56,5.78-11.56C24.55,5.4,54.48.26,75.23,13.12c11.87,7.36,17.41,18.57,19.82,24.77,21.67-20.37,27.93-24.26,29.06-23.24,1.04.94-2.83,5.57-4,15-.61,4.92.16,5.93,0,11-.37,11.65-4.7,13.78-5,22-.45,12.07,8.41,19.78,7,21-1.09.95-7.16-3.09-27.88-23.46-6.29,4.75-23.83,16.59-47.07,14.86-7.23-.54-30.02-2.23-38.04-18.4-5.37-10.83-1.86-23.61-1.59-24.54Z"/>
      <circle class="cls-4" cx="9.41" cy="29.25" r="8.91"/>
      <circle class="cls-4" cx="31.47" cy="30.25" r="8.91"/>
      <circle class="cls-6" cx="9.67" cy="29.06" r="6.86"/>
      <circle class="cls-6" cx="31.43" cy="30.06" r="6.86"/>
      <circle cx="9.17" cy="29.13" r="4.16"/>
      <circle cx="31.7" cy="30.13" r="4.16"/>
      <circle class="cls-5" cx="13.6" cy="25.01" r="2.81"/>
      <circle class="cls-5" cx="35" cy="26.01" r="2.81"/>
      <path class="cls-2" d="M14.11,49.66c0,2.19,1.81,4,4,4s4-1.81,4-4"/>
      <path class="cls-2" d="M58.11,33.66c1.05-3.45,3.87-5.41,6-5,2.7.52,4.22,4.86,3,8-1.2,3.08-4.64,3.92-5,4,.48.19,3.05,1.28,4,4,.83,2.38.43,6.08-2,7-1.9.72-4.6-.42-6-3"/>
      <path class="cls-2" d="M67.11,12.66c1.61,1.91,3.69,4.91,5,9,2.81,8.82.04,16.49-1,19,1.03,2.09,4.23,9.26,2,18-1.39,5.46-4.3,9.15-6,11"/>
      <path class="cls-2" d="M72.58,15.16c1.61,1.73,3.69,4.44,5,8.15,2.81,7.98.04,14.93-1,17.21,1.03,1.89,4.23,8.39,2,16.3-1.39,4.95-4.3,8.29-6,9.96"/>
      <path class="cls-2" d="M78.57,18.16c1.61,1.54,3.69,3.95,5,7.25,2.81,7.1.04,13.29-1,15.31,1.03,1.68,4.23,7.46,2,14.5-1.39,4.4-4.3,7.37-6,8.86"/>
      <polygon points="114.89 63.1 103.11 56.66 115.33 62.21 114.89 63.1 114.89 63.1"/>
      <polygon points="120.33 30.1 112.11 33.66 119.89 29.21 120.33 30.1 120.33 30.1"/>
      <polygon points="117.96 52.13 102.11 46.66 118.26 51.18 117.96 52.13 117.96 52.13"/>
    </g>
  </g>
</svg>