<?xml version="1.0" encoding="UTF-8"?>
<svg id="Layer_2" data-name="Layer 2" xmlns="http://www.w3.org/2000/svg" viewBox="0 0 192.74 217.8">
  <defs>
    <style>
      .cls-1 {
        fill: none;
      }

      .cls-1, .cls-2, .cls-3 {
        stroke: #000;
        stroke-miterlimit: 10;
      }

      .cls-4, .cls-2 {
        fill: #fff;
      }

      .cls-3 {
        fill: #f8981d;
      }

      .cls-5 {
        fill: #333;
      }
    </style>
  </defs>
  <g id="Layer_1-2" data-name="Layer 1">
    <g>
      <path class="cls-3" d="M66.09,188.74c.96,2.02,2.12,5.17,2,9-.22,7.15-4.69,10.79-3,14,.65,1.23,1.7,1.43,9,3,12.38,2.66,16.77,3.67,20,1,.48-.4.81-.77,1-1,3.74.34,6.49-.47,7-2,.1-.31.28-1.15-1-3-.78-1.13-2.92-3.82-9-6-2.28-.82-5.68-1.77-10-2-.13-1.37-.19-3.07,0-5,.19-1.97.59-3.66,1-5"/>
      <path class="cls-3" d="M111.09,191.74c.77,1.09,1.74,2.8,2,5,.47,4-1.84,5.76-1,8,.62,1.66,2.37,1.96,10,4,5.65,1.51,8.9,2.46,14,3,3.89.41,6.29.31,7-1,.35-.64.2-1.41,0-2,1.24.19,3.69.36,6-1,.88-.52,1.8-1.06,2-2,.42-1.97-2.66-4.08-4-5-2.68-1.84-5.26-2.58-7-3-2.86-.69-7.31-1.42-13-1-.79-.68-2.08-1.98-3-4-.72-1.6-.94-3.05-1-4"/>
      <path class="cls-2" d="M108.09,6.74c2.76,5.96,20.85,4.7,32,10,12.05,5.73,16.49,19.37,18,24,1.34,4.12,6.62,20.33-2,32-4.43,5.99-11.11,8.88-16,11-5.92,2.56-11.26,3.57-15,4,.8,1.69,2.1,4.19,4,7,5.48,8.11,11.17,11.66,15,15,8.57,7.46,13.87,19.04,15,29,1.81,16.01-7.12,28.4-9,31-12.25,16.98-31.78,20.4-41,22-3.4.59-42.89,6.87-64-18-3.45-4.06-5.63-8.04-7-11-6.17-2.45-10.38-5.63-13-8-2.96-2.68-8.36-7.56-7-11,.3-.75,1.24-2.26,5-3-3.5-2.45-8.32-6.31-13-12-1.51-1.84-12.19-14.82-9-19,.74-.97,2.93-2.38,11,0-1.82-2.58-4.27-6.62-6-12-1.34-4.17-2.98-9.25-1-11,2.07-1.83,7.1.82,13,4,7,3.78,16.18,8.81,27,15,.39-1.43,1.2-3.72,3-6,1.42-1.8,2.86-3.61,5-4,2.55-.46,4.74,1.35,9,5,1.87,1.6,4.35,3.91,7,7-.08-3.57,1.12-6.44,3-7,1.44-.43,2.93.56,5,2,1.74,1.21,3.95,3.1,6,6,1.46-2.62,2.4-3.09,3-3,.45.07.65.45,2,2,1.16,1.34,1.74,2,2,2,1.43-.03,2.72-5.48,3-10,.03-.44.15-2.39,0-4-.65-7.08-6.96-11.99-11-17-5.4-6.7-6.96-13.77-8-19-1.11-5.56-4.08-20.49,5-32,3.99-5.05,8.9-7.67,12-9-1.88.32-4.69.9-8,2-3.86,1.28-5.74,2.39-6,2-.4-.6,3.45-4.38,8-7,4.5-2.6,8.86-3.59,12-4-1.38-.62-3.43-1.43-6-2-4.78-1.07-7.96-.59-8-1-.06-.52,4.99-2.44,11-2,6.97.51,11.38,3.9,12,3,.86-1.26-7.85-7.73-7-9,.51-.76,4.42.32,7,3,1.29,1.34,1.85,2.68,2,3Z"/>
      <path class="cls-3" d="M136.09,58.74c.46-2.53,1.76-9.65,8-15,2.39-2.04,4.81-4.12,8-4,3.97.15,4.69,3.54,10,7,6.49,4.23,13.94,4.73,18,5,6.94.47,11.07-.88,12,1,.23.46.67,1.94-3,6-4.79,5.3-11.19,8.99-21,12-10.47,3.21-17.96,5.5-25,2-1.46-.73-5.52-2.75-7-7-.82-2.36-.48-4.34,0-7Z"/>
      <path class="cls-1" d="M136.09,64.74c3.29,1.18,8.08,2.55,14,3,8.49.64,14.92-.95,19-2,9.08-2.33,16.44-6.22,22-10"/>
      <path class="cls-1" d="M90.09,109.74c-.92,1.65-2.48,3.95-5,6-1.86,1.51-5.13,3.59-14,5-2.07.33-6.27.91-15,1-12.02.13-16.2-.85-17,1-.97,2.23,3.92,6.38,7,9,5.53,4.7,11.03,7.41,15,9-1.89-.18-5.46-.53-10-1-7.58-.78-9.34-1.03-10,0-1.34,2.09,3.19,7.39,6,10,3.63,3.38,7.46,5.1,10,6-1.5-.29-3.55-.65-6-1-3.02-.43-3.68-.42-4,0-.83,1.07,1.05,4.12,3,6,.74.71,2.09,1.84,5,3,2.09.83,5.48,1.89,10,2"/>
      <polygon points="12.34 109.3 19.09 113.74 11.84 110.17 12.34 109.3 12.34 109.3"/>
      <polygon points="23.37 140.32 32.09 146.74 22.81 141.15 23.37 140.32 23.37 140.32"/>
      <path class="cls-1" d="M45.09,105.74c4.47,2.6,9.17,5.58,14,9,2.83,2,5.49,4.01,8,6"/>
      <path d="M94.65,214.98c-3.14-6.31-9.76-10.07-16.56-11.24,6.97.85,13.92,4.44,17.44,10.76,0,0-.88.48-.88.48h0Z"/>
      <path d="M142.64,208.96c-3.31-7.29-12.26-9.09-19.55-8.22,1.9-.3,3.83-.42,5.76-.34,5.8.11,12,2.68,14.69,8.12,0,0-.9.44-.9.44h0Z"/>
      <circle class="cls-2" cx="119.41" cy="42.6" r="10.18"/>
      <circle class="cls-5" cx="121.71" cy="43.38" r="7.84"/>
      <circle cx="123.14" cy="43.46" r="4.75"/>
      <circle class="cls-4" cx="118.2" cy="39.75" r="3.21"/>
    </g>
  </g>
</svg>