<?xml version="1.0" encoding="UTF-8"?>
<svg id="Layer_2" data-name="Layer 2" xmlns="http://www.w3.org/2000/svg" viewBox="0 0 289.32 349.87">
  <defs>
    <style>
      .cls-1 {
        fill: #fecd96;
      }

      .cls-1, .cls-2, .cls-3, .cls-4, .cls-5, .cls-6, .cls-7 {
        stroke-miterlimit: 10;
      }

      .cls-1, .cls-3, .cls-5, .cls-6, .cls-7 {
        stroke: #231f20;
      }

      .cls-2 {
        fill: #ab6b28;
      }

      .cls-2, .cls-4 {
        stroke: #000;
      }

      .cls-3, .cls-8 {
        fill: #fff;
      }

      .cls-4 {
        fill: #3e2b12;
      }

      .cls-9 {
        fill: #333;
      }

      .cls-6 {
        fill: #2f2210;
      }

      .cls-7 {
        fill: none;
      }
    </style>
  </defs>
  <g id="Layer_1-2" data-name="Layer 1">
    <g>
      <path class="cls-2" d="M35.75,22.35c-4.74-5.3-9.48-10.59-14.23-15.89-1.23,1.62-3.83,5.48-4.47,11.13-.62,5.48.93,9.73,1.74,11.59"/>
      <path class="cls-6" d="M168.04,306.65c-1.21,2.61-2.78,6.14-4.47,10.39-2.87,7.21-3,8.68-2.48,9.98,1.76,4.43,10.22,4.85,12.42,4.96,13.59.68,24.65-8.26,29.8-13.14-1.99-4.4-3.97-8.79-5.96-13.19"/>
      <path class="cls-6" d="M82.24,311.12c-1.07,2.24-2.53,5.47-4.09,9.44-3.1,7.89-3.08,9.87-2.48,11.46.95,2.55,3.26,3.75,6.58,5.43,2.85,1.44,11.75,5.38,21.88,2.37,2.68-.8,6.32-1.93,7.4-4.85.84-2.27-.28-4.48-1.1-6.46-1.44-3.5-2.97-8.81-2.98-16.39"/>
      <path class="cls-6" d="M225.65,312.61c.55,2.4,1.19,5.8,1.51,9.93.36,4.7.55,7.05-.03,8.94-2.12,6.97-12.39,11.16-20.8,10.93-7.5-.21-12.97-3.94-15.5-5.96-.4-2.37-.65-5.65,0-9.43,1.37-7.99,5.87-13.23,7.99-15.4"/>
      <path class="cls-6" d="M136.25,320.56c1.29,1.86,3.68,5.89,4.02,11.46.14,2.34.41,6.6-2.01,10.4-4.44,6.97-14.42,6.95-17.41,6.94-5.59-.01-15.4-1.73-16.89-6.94-.55-1.93.36-3.21,3.48-10.4,2.03-4.68,3.54-8.52,4.47-10.96"/>
      <path class="cls-2" d="M174.5,249.04c.27.85,1.34,3.05,3.48,7.45,1.65,3.41,3.06,6.17,3.97,7.95-1.08,4.48-2.31,9.1-3.73,13.85-3.08,10.35-6.57,19.81-10.18,28.36,1.93,1.39,6.09,3.97,11.92,4.47,9.25.8,15.85-4.23,17.38-5.46-.07-3.85.06-8.01.5-12.42,1.46-14.89,5.64-22.68,8.5-32.7,2.93-10.25,8.23-35.82.34-40.34-9.25-5.3-35.31,19.17-32.19,28.84Z"/>
      <path class="cls-2" d="M82.24,239.51c1.48,11.31,2.34,20.96,2.86,28.4,1.2,17.03.74,23.8,0,29.3-.79,5.89-1.96,10.68-2.86,13.91.73.83,5.04,5.6,12.3,5.92,7.37.33,12.13-4.17,12.91-4.93-.22-6.45-.24-13.25,0-20.36.47-13.76,1.85-26.41,3.69-37.76"/>
      <path class="cls-2" d="M64.24,137.78c-1.49,1.12-3.6,3.03-4.97,5.96-1.76,3.78-.72,5.9-1.49,8.94-1.88,7.4-12.26,11.37-18.38,12.42-2.37.41-8.77,1.41-15.4-1.99-2.77-1.42-4.73-3.18-5.96-4.47-2.14-.89-5.34-2.53-8.44-5.46C1,145.04.68,134.02.66,131.82c-.03-4.96,1.3-8.51,3.97-15.4,6.19-15.96,9.97-15.36,12.42-24.83,3.08-11.92-2.28-15.35,1.49-27.32.61-1.93,3.26-9.83,9.44-15.89,13.67-13.42,40.31-13.37,56.8-2,9.76,6.73,13.57,15.91,21.18,34.28,3.59,8.68,6.89,18.93,18.11,50.16,2.34,6.5,4.77,13.01,11.19,17.38,7.28,4.96,15.68,4.46,22.35,3.97,15.3-1.12,17.03-6.83,33.28-9.44,7.49-1.2,17.18-2.75,27.81,1.49,13.37,5.34,20.07,16.72,21.85,19.87,12.67,22.28,4.8,51.3-1.49,60.59-.48.71-3.76,5.45-5.96,12.42-1.27,4.02-2.06,6.64-1.49,9.93.89,5.15,4.11,6.13,4.97,10.93.65,3.62-.6,6.31-1.99,9.93,0,0-5.19,13.53-7.95,33.28-.35,2.48-.81,6.44-.99,11.42-1.21.89-8.36,5.97-17.38,3.97-4.66-1.03-7.84-3.51-9.44-4.97,1.08-3.91,2.12-7.27,2.98-9.93,2.86-8.82,4.87-13.28,7.45-22.35,1.51-5.3,2.25-8,1.99-9.93-.86-6.21-5.52-8.32-9.93-15.4-1.91-3.06-4.29-7.88-5.46-14.9-5,2.92-12.22,6.69-21.36,9.93-11.7,4.16-37.83,13.45-66.55,3.97-8.67-2.86-22.7-7.49-32.28-20.86-10.57-14.75-10.47-32.8-10.43-40.73.07-12.29,2.83-17.3,1.99-32.78-.48-8.84-1.86-16.05-2.98-20.86Z"/>
      <path class="cls-2" d="M145.46,230.66c.52,3.85.95,9.59,0,16.39-1.07,7.65-3.04,10.7-5.23,17.88-2.75,9.03-3.16,16.12-3.97,30.3-.38,6.59-.58,15.2,0,25.33-1.57,1.1-5.97,3.89-12.26,3.97-6.09.08-10.45-2.43-12.07-3.48,1.43-4.25,3.12-10.37,3.97-17.88,1.01-8.92.4-16.13-.99-26.32-1.43-10.43-3.7-24.1-7.45-40.23"/>
      <path class="cls-4" d="M68.21,41.93c-2.99-.02-9.06.37-15.4,3.97-9.54,5.43-13.02,14.35-13.91,16.89-1-2.05-2.19-5.12-2.48-8.94-.36-4.66.93-6.39-.29-7.95-2.1-2.67-8.51-.96-15.6.99-6.19,1.71-11.22,3.76-14.9,5.46.55-3.78,2.41-12.85,9.93-20.36,14.33-14.31,35.49-9.26,36.75-8.94-1.75-1.87-3.89-3.92-6.46-5.96-2.27-1.81-4.46-3.28-6.46-4.47,2.89-.67,7.55-1.3,12.91,0,12.48,3.02,18.35,13.93,19.37,15.89,3.83.39,9.31,1.37,15.4,3.97,4.91,2.1,16.99,7.49,24.05,20.86,6.45,12.22,5,24.05,4.26,28.31,1.93-1.86,3.86-3.73,5.79-5.59,2.75,3.68,6.41,9.56,8.62,17.51,3.49,12.59,1.37,23.26,0,28.31,2.48-2.48,4.97-4.97,7.45-7.45,1.29,3.08,2.83,7.89,2.98,13.91.23,9.44-3.12,16.55-4.97,19.87-1.23-.91-3.02-2.36-4.81-4.47-4.49-5.27-5.85-10.86-6.38-12.91-.49-1.93-4.35-12.6-12.06-33.95-6.82-18.86-6.92-15.05-11.02-27.14-.85-2.5-2.55-7.69-6.61-13.49-2.3-3.29-4.61-5.7-6.26-7.26"/>
      <path class="cls-2" d="M85.1,51.86c2.96-3.02,7.15-8.17,9.55-15.58,5.67-17.54-3.45-32.94-5.08-35.58-3.62,2.38-11.43,8.22-16.61,18.87-4.59,9.44-4.89,18.05-4.74,22.35"/>
      <ellipse class="cls-3" cx="17.2" cy="83.81" rx="14.62" ry="14.46"/>
      <ellipse class="cls-3" cx="55.02" cy="84.72" rx="14.79" ry="14.98"/>
      <path class="cls-1" d="M7.24,110.32c3.28-1.45,10.31-4,19.09-2.84,14.05,1.86,22.05,11.84,24.5,14.9,2.45,3.06,8.63,10.77,8.44,21.36-.04,2.12-.09,5.08-1.59,8.46-3.88,8.75-14.55,13.61-24,13-8.11-.52-13.74-4.97-16-7-2.64-1.36-10.91-6.04-15-16-6.62-16.12,3.87-30.95,4.56-31.88Z"/>
      <ellipse class="cls-5" cx="32.45" cy="125.37" rx="2.98" ry="5.96"/>
      <path class="cls-7" d="M18.05,158.64c2.36.53,6.52,1.12,11.42,0,2.57-.59,10.28-2.77,15.4-10.41,4.91-7.33,4.22-14.89,3.97-16.91"/>
      <ellipse class="cls-5" cx="4.56" cy="129.13" rx="3.06" ry="5.71"/>
      <path class="cls-7" d="M64.24,137.78c1.15-1.74,3.05-4.21,5.96-6.46,4.72-3.65,8.25-3.74,12.13-5.96,5.18-2.96,7.45-7.68,10.22-13.41,6.24-12.95,4.93-25.95,3.93-31.91"/>
      <path class="cls-4" d="M70.69,57.49c.68-.72-4-10.42-11.42-10-4.54.25-7.42,4.14-7.95,4.87,2.02-.42,4.79-.73,7.95-.19,7.15,1.22,10.9,5.88,11.42,5.33Z"/>
      <path class="cls-4" d="M32.95,52.51c.31,1.58-5.46,4.09-9.93,5.03-1.42.3-5.68,1.2-6.23,0-.55-1.19,2.61-4.33,6.23-5.68,4.33-1.62,9.65-.79,9.93.65Z"/>
      <path class="cls-7" d="M74.17,44.91c2.53-1.91,5.75-4.94,8.16-9.44,6.97-13,1.06-26.86.1-29.01"/>
      <path class="cls-4" d="M223.85,146.76c.82-2.37,2.34-5.77,5.28-8.98,7.86-8.56,19.34-8.63,22.85-8.65,11.55-.07,24.36,5.5,31.29,16.17,6.38,9.84,5.63,20.72,4.97,30.34-.9,13-4.77,17.63-3.97,30.18.49,7.76,2.49,13.97,4.02,17.88-2.28-1.49-5.92-4.29-8.98-8.94-3.7-5.62-4.67-11.07-4.97-13.91-.89,4.02-1.94,11.24,0,19.87,2.49,11.05,8.48,18.25,11.42,21.36-3.5.54-10.16,1.02-16.39-2.57-8.42-4.85-10.94-14.21-13.1-22.26-2.99-11.1-2.89-21.54-2.79-31.45.09-9.83.95-19.98-3.97-24.18-.89-.76-3.08-2.63-5.96-2.34-2.26.22-3.82,1.66-4.47,2.35-1.46-2.33-3.53-5.15-6.39-8-3.16-3.16-6.3-5.36-8.82-6.87Z"/>
      <path class="cls-7" d="M195.85,239.1c-.35-3.74-.46-8.1,0-12.91,1.03-10.94,4.51-19.59,7.45-25.33"/>
      <circle class="cls-9" cx="17.47" cy="84.12" r="11.81"/>
      <circle class="cls-9" cx="55.55" cy="85.22" r="12.56"/>
      <circle cx="55.72" cy="85.37" r="6.99"/>
      <circle cx="18.01" cy="84.29" r="6.81"/>
      <circle class="cls-8" cx="20.92" cy="75.23" r="3.63"/>
      <circle class="cls-8" cx="60.39" cy="77" r="4.71"/>
    </g>
  </g>
</svg>