<?xml version="1.0" encoding="UTF-8"?>
<svg id="Layer_2" data-name="Layer 2" xmlns="http://www.w3.org/2000/svg" viewBox="0 0 237.05 196.28">
  <defs>
    <style>
      .cls-1 {
        fill: #919094;
      }

      .cls-2 {
        fill: #fff;
      }

      .cls-3, .cls-4 {
        fill: none;
      }

      .cls-5 {
        fill: #231f20;
      }

      .cls-4 {
        stroke: #000;
        stroke-miterlimit: 10;
        stroke-width: .25px;
      }

      .cls-6 {
        fill: #333;
      }

      .cls-7 {
        fill: #2a2929;
      }

      .cls-8 {
        fill: #d3d2d2;
      }

      .cls-9 {
        fill: #a7a5a6;
      }
    </style>
  </defs>
  <g id="Layer_1-2" data-name="Layer 1">
    <g>
      <path class="cls-9" d="M152.69,137.27c-.29,1.23-.83,1.22-3,4-3.02,3.88-2.77,4.93-5,7-1.1,1.02-2.63,2.44-5,3-3.58.85-8.07-.49-9-3-.56-1.49.59-2.23,0-4-.8-2.42-3.33-2.3-4-4-1.13-2.86,3.96-8.62,10-11,1.97-.78,7.58-2.99,12,0,2.55,1.72,4.68,5.14,4,8Z"/>
      <path class="cls-9" d="M46.69,115.27c-1.67,1.42.15,6.68,2,12,1.42,4.08,2.22,4.61,4,9,1.77,4.35,3.7,9.13,4,15,.38,7.48-2.24,9.87,0,14,.11.2,2.64,4.71,7,5,4.81.32,8.19-4.78,9-6,2.35-3.55,2.6-7.19,3-13,.22-3.21.17-6.35,0-8-1.52-14.88-25.13-31.29-29-28Z"/>
      <path class="cls-5" d="M167.69,58.27c4.76,1.02,11.58,2.97,19,7,5.03,2.73,18.12,10.06,27,26,4.09,7.34,11.34,20.35,8,34-1.3,5.31-3.81,9.11-3,16,.19,1.62.98,8.36,6,14,4.37,4.9,7.26,3.72,10,8,2.81,4.39,3.47,11.4,0,16-3.32,4.4-9.01,4.72-14,5-3.01.17-13.01.73-21-6-6.21-5.23-7.84-12.02-10-21-1-4.14-4.02-16.71-3-26,.14-1.3.68-5.38-1-10-.8-2.2-1.8-3.69-2-4-2.21-3.43-6.76-18.41-16-59Z"/>
      <path class="cls-9" d="M40.69,88.27c-1.45,4.45-.3,8.3,2,16,2.36,7.92,6.91,23.15,21,33,13.34,9.32,27.69,8.63,38,8,20.6-1.26,36.19-9.93,45-16,.72,1.43,1.98,3.66,4,6,4.89,5.68,8.32,5.2,10,9,2.16,4.89-2.43,8.15,0,13,1.46,2.9,4.82,5.16,8,5,3.78-.19,6.13-3.71,9-8,1.7-2.54,4.62-6.91,5-13,.34-5.42-1.69-6.35-2-12-.35-6.39,2.02-9.49,4-16,0,0,3.04-10.01,2-22-1.01-11.71-7.99-27.48-22-35-19.52-10.48-42.68.43-46,2-5.15,2.43-7.8,4.7-15,7-10.47,3.34-15.48,1.9-25,3-2.7.31-32.82,4.09-38,20Z"/>
      <path class="cls-9" d="M113.69,122.27c-1.76,2.7-3.87,6.85-4,12-.1,4.11,1.14,5.08,2,10,1.26,7.26-.09,12.98-2,21-2.1,8.83-4.13,11.12-5,12-1.11,1.13-4.57,4.66-9,4-3.62-.54-5.7-3.55-6-4-2.18-3.27-1.06-6.1-1-12,.02-1.54.02-10.96-4-20-1.95-4.37-2.7-3.85-5-9-1.36-3.04-3.68-8.25-4-14-.51-9.28,4.39-16.66,7-20"/>
      <path class="cls-3" d="M146.69,129.27c-1.91-2.4-6.11-8.33-7-17-.33-3.18-1.02-11.14,4-19,5.7-8.92,14.78-11.45,17-12"/>
      <path class="cls-7" d="M173.69,159.27c1.85,3.15-.13,7.19-2,11-.69,1.41-1.56,2.79-3,4-1.19,1-2.99,2.52-5,2-1.93-.5-2.82-2.55-3-3-.68,2.26-2.97,3.53-5,3-1.69-.44-2.95-2.08-3-4-.2.09-2.03.84-3,0-1.21-1.05-.11-3.74,0-4,1.23-2.9,3.68-2.82,7-6,2.81-2.7,2.01-3.68,4-5,3.68-2.44,10.7-1.91,13,2Z"/>
      <path class="cls-1" d="M69.89,90.84c.96-.63,1.86-1.3,3.37-2.09,2.79-1.45,4.88-1.76,12.63-5.91,7.72-4.13,14.4-9.31,14-10-.17-.29-1.49.31-1.7-.07-.36-.66,3.42-2.86,3-4-.33-.88-2.9-.48-3-1-.06-.32.82-.91,4-2-8.08,2.61-11.48,1.64-13,0-7.92-8.57,26.08-45.55,16.7-56.93-3.22-3.9-10.26-3.28-13-3-12.43,1.27-19.09,12.42-20,14-3.51-1.59-9.82-3.91-18-4-8.72-.1-15.42,2.38-19,4-2.43-3.21-7.21-8.59-15-12-1.19-.52-12.32-4.92-16-2-4.77,3.79-.27,22.47,35.3,82.93.86,1.69,2.93,5.1,7,7,1.3.61,2.38.86,3,1,5.04,1.15,9.36-.39,11-1,2.88-1.07,5.22-2.62,8.7-4.93Z"/>
      <path class="cls-7" d="M144.69,148.27c.65,1.83-2.88,2.93-4,8-.67,3.03.25,4.15-1,6-1.26,1.86-3.76,3.02-6,3-2.29-.02-2.7-1.25-5-1-2,.22-2.62,1.26-4,1-1.49-.28-2.45-1.82-3-3-.23.1-2.77,1.12-4,0-1.31-1.19-.6-4.3,1-6,2.15-2.28,4.73-.74,8-3,2.46-1.7,1.89-3.18,4-5,4.41-3.8,13.06-2.65,14,0Z"/>
      <path class="cls-7" d="M104.69,177.27c1.34,2.55.67,5.25,0,8-1.15,4.67-4.49,11.36-8,11-.62-.06-2.3-.46-4-4,0,2.19-1.81,4-4,4s-4-1.81-4-4c-1.54.71-3.12.77-4,0-1.28-1.12-.66-3.63,0-5,1.69-3.52,5.17-2.8,7-6,1.7-2.98-.51-5.03,1-7,2.58-3.37,13.06-2.61,16,3Z"/>
      <path class="cls-7" d="M70.69,167.27c1.6,3.36-.99,7.42-2,9-.83,1.31-2.57,4.03-6,5-2.14.6-4,.26-5,0-.65.22-2.68.83-5,0-1.53-.54-2.51-1.47-3-2-.67.07-3.22.29-4-1-.9-1.5.94-4.43,3-6,2.45-1.87,4.16-1.02,6-3,1.49-1.61.88-2.73,2-4,2.72-3.1,11.77-2.7,14,2Z"/>
      <path class="cls-9" d="M69.69,86.27c5.39-3.77,5.59-2.42,16-8,7.72-4.14,14.58-8.61,14-10-.33-.78-2.88-.35-3-1-.15-.85,4.09-1.85,4-3-.09-1.1-4.05-1.54-4-2,.06-.49,4.62.12,5-1,.29-.87-2.18-1.96-4-4-1.56-1.76-3.09-4.71-3-10,2.58-2.7,6.15-7,9-13,.88-1.85,10.4-21.9,2-30-4.06-3.91-10.47-3.26-13-3-12.43,1.27-19.09,12.42-20,14-3.51-1.59-9.82-3.91-18-4-8.72-.1-15.42,2.38-19,4-2.43-3.21-7.21-8.59-15-12C16.05,1.23,9.33-1.71,4.69,1.27-1.99,5.54.31,19.05.69,21.27c.83,4.9,2.89,9.27,7,18,1.59,3.39,3.01,6.14,4,8,.03,2.2-.29,5.17-2,8-1.51,2.5-3.45,3.79-3,5,.61,1.65,4.97,1.29,5,2,.03.69-4.01,1.19-4,2,.01.8,3.98,1.12,4,2,.02.72-2.65.82-3,2-.43,1.42,2.76,3.54,5,5,10.75,7.03,16,10,16,10,8.29,4.69,4.21,2.29,9,5,6.31,3.58,7.44,4.38,10,5,1.75.43,5.65,1.13,10,0,4.6-1.19,5.91-3.44,11-7Z"/>
      <path class="cls-3" d="M39.69,13.27c2.09,3.33,4.69,8.41,6,15,2.5,12.53-1.17,22.74-3,27"/>
      <path class="cls-3" d="M69.69,14.27c-2.16,1.86-4.26,4.16-6,7-8.65,14.09-2.23,30.94-1,34"/>
      <path class="cls-8" d="M14.69,39.27c1.22-2.77,3.11-6.31,6-10,2.79-3.56,5.67-6.17,8-8-1.04-2.55-3.31-7.12-8-11-3.12-2.58-7.47-6.17-12-5C3.29,6.66.63,14.01.69,19.27c.06,5.33,2.92,9.19,5,12,3.11,4.19,6.7,6.67,9,8Z"/>
      <path class="cls-8" d="M79.69,22.27c.45-2.52,1.51-5.87,4-9,.69-.86,6.48-7.92,14-7,1.14.14,3.27.4,5,2,3,2.78,2.49,7.47,2,12-.44,4.08-1.1,10.16-6,15-2.2,2.17-4.5,3.36-6,4-1.95-3.15-4.26-6.52-7-10-2.03-2.58-4.05-4.91-6-7Z"/>
      <path class="cls-5" d="M52.69,81.27c3.85-.27,8.23-3.33,8-7-.22-3.49-4.5-5.9-8-6-4.35-.12-9.22,3.26-9,7,.21,3.55,4.94,6.29,9,6Z"/>
      <path d="M35.69,75.27c-.83,9.3,9.35,15.35,17,9.85,3.02,2.23,7.25,2.84,10.59.95,3.33-1.77,5.53-5.19,6.41-8.8-.8,3.65-2.98,7.15-6.34,8.94-3.35,1.93-7.65,1.38-10.73-.84,0,0,.14,0,.14,0-7.72,5.48-18.13-.71-17.07-10.1h0Z"/>
      <path class="cls-4" d="M52.69,85.27v-4"/>
      <path class="cls-9" d="M196.69,72.27c.62,2.52,1.43,7.32,0,13-2.17,8.61-8.02,13.49-10,15v-6c1.58-1.89,3.66-4.89,5-9,2.5-7.67.83-14.33,0-17,1.67,1.33,3.33,2.67,5,4Z"/>
      <path class="cls-9" d="M185.69,121.27c1.48-.57,3.62-1.51,6-3,10.75-6.72,14.82-17.39,16-21,.88-2.7,1.91-6.8,2-12,2,3.67,4,7.33,6,11-.94,3.23-2.46,7.07-5,11-7.62,11.81-19.23,16.42-24,18-.33-1.33-.67-2.67-1-4Z"/>
      <path class="cls-9" d="M188.69,153.27c1.18-2.82,3.75-7.83,9-12,5.11-4.06,10.25-5.34,13-6,3.23-.77,6.02-.97,8-1,.67-2.33,1.33-4.67,2-7-1.66-.24-4.11-.44-7,0-5.81.88-9.69,3.74-14,7-3.22,2.44-7.65,6.29-12,12,.33,2.33.67,4.67,1,7Z"/>
      <path class="cls-9" d="M196.69,175.27c.33-3.12,1.27-7.52,4-12,1.54-2.53,4.71-7.73,11-10,1.92-.69,6.66-2.41,11,0,2.11,1.17,3.34,2.88,4,4-1.91-.34-6.17-.84-11,1-7.18,2.74-10.33,8.66-11,10-2.6,5.19-2.25,10.03-2,12-2-1.67-4-3.33-6-5Z"/>
      <path class="cls-3" d="M57.69,181.27c-.14-.52-.37-1.65,0-3,.47-1.71,1.59-2.68,2-3"/>
      <path class="cls-3" d="M49.69,179.27c-.03-.22-.18-1.81,1-3,.76-.76,1.66-.95,2-1"/>
      <path class="cls-3" d="M84.69,192.27c.06-.67.27-1.82,1-3,1.31-2.11,3.39-2.82,4-3"/>
      <path class="cls-3" d="M92.69,194.27c-.13-.7-.23-1.76,0-3,.38-2.04,1.45-3.4,2-4"/>
      <path class="cls-3" d="M121.69,162.27c-.1-.23-.63-1.54,0-3,.58-1.35,1.75-1.89,2-2"/>
      <path class="cls-3" d="M128.69,164.27c-.14-.37-.77-2.07,0-4,.84-2.09,2.68-2.87,3-3"/>
      <path class="cls-3" d="M152.69,172.27c-.1-.46-.18-1.17,0-2,.37-1.74,1.62-2.72,2-3"/>
      <path class="cls-3" d="M160.69,173.27c.05-.59.22-1.77,1-3,.68-1.07,1.51-1.69,2-2"/>
      <circle class="cls-2" cx="31.58" cy="49.22" r="12.89"/>
      <circle class="cls-6" cx="31.96" cy="48.94" r="9.92"/>
      <circle cx="31.24" cy="49.05" r="6.01"/>
      <circle class="cls-2" cx="37.65" cy="43.08" r="4.06"/>
      <circle class="cls-2" cx="73.58" cy="49.22" r="12.89"/>
      <circle class="cls-6" cx="73.96" cy="48.94" r="9.92"/>
      <circle cx="73.24" cy="49.05" r="6.01"/>
      <circle class="cls-2" cx="79.65" cy="43.08" r="4.06"/>
    </g>
  </g>
</svg>