<?xml version="1.0" encoding="UTF-8"?>
<svg id="Layer_2" data-name="Layer 2" xmlns="http://www.w3.org/2000/svg" viewBox="0 0 477.08 373.1">
  <defs>
    <style>
      .cls-1 {
        fill: #fff;
      }

      .cls-2 {
        fill: none;
      }

      .cls-3 {
        fill: #333;
      }

      .cls-4 {
        fill: #c5c4c0;
      }

      .cls-5 {
        fill: #7b7979;
      }

      .cls-6 {
        stroke: #dfdcb6;
        stroke-miterlimit: 10;
        stroke-width: .25px;
      }

      .cls-6, .cls-7 {
        fill: #d3d2d2;
      }

      .cls-8 {
        fill: #353434;
      }

      .cls-9 {
        fill: #dde0e4;
      }

      .cls-10 {
        fill: #f7a497;
      }
    </style>
  </defs>
  <g id="Layer_1-2" data-name="Layer 1">
    <g>
      <path class="cls-7" d="M444.08,206.08c1.02.13.18,8.4,1,17,.92,9.61,4.17,22.32,14,37-.68,1.41-1.69,2.92-3,3-2.76.17-5.07-6.11-8-13-2.25-5.3-5.51-12.51-10-21,2.23-11.48,4.77-23.16,6-23Z"/>
      <path class="cls-7" d="M326.08,282.08c-.09,5.45.3,13.62,3,23,3.09,10.74,6.75,14.61,9,24,1.4,5.85,2.41,14.53,0,26,2.53,1.4,7.85,3.89,15,4,1.94.03,10.41.16,16-4,10.09-7.51,7.6-26.63,4-52-1.79-12.64-4.17-22.95-6-30"/>
      <path class="cls-4" d="M328.58,293.58c1.07-.68,2.77-1.57,5-2,.77-.15,7.21-1.28,12,3,3.87,3.47,6.68,10.49,3,16-3.04,4.55-9.39,6.39-15,4-2.08-3.6-4.51-9.08-5-16-.13-1.79-.11-3.46,0-5Z"/>
      <path class="cls-1" d="M338.08,355.08c-1.12-4.28.2-8.32,3-10,2.94-1.76,6.4-.26,7,0,4.44,1.92,7.12,7.45,7,14-.07-.75-.46-5.5,3-9,.68-.69,3.22-3.26,7-3,3.41.24,7.09,2.73,7,5-.14,3.57-9.63,6.67-17,7-7.66.34-13.72-2.26-17-4Z"/>
      <path class="cls-7" d="M155.58,192.58c-.59,8.59,2.27,15.06,8,28,4.04,9.13,19.93,45.03,58,57,21.06,6.62,40.08,3.14,51,0,7.54,2.7,19.31,5.93,34,6,15.19.07,27.35-3.26,35-6-.94,3.67-1.74,9.13,0,15,2.24,7.55,6.8,9.48,14,18,4.79,5.67,13.41,15.89,15,29,.96,7.95-.91,14.92-3,20,4.95,1.7,11.77,3.49,20,4,8.54.53,25.94,1.61,32-8,1.86-2.95,1.93-5.77,2-11,.16-12.72-3.78-22.12-6-28-3.01-7.99-6.64-19.6-9-35,6.36-6.81,14.72-17.08,22-31,5.49-10.48,17.12-32.71,16-61-.09-2.31-3.14-57.03-47-83-24.18-14.31-48.9-12.88-64-12-17.76,1.03-32.25,5.3-56,15-69.42,28.36-119.65,48.88-122,83Z"/>
      <path class="cls-6" d="M197.58,177.58c-4.62,4.59-9.54,9.01-17,12-17.02,6.83-35.84,1.69-42,0-12.9-3.53-15.1-7.35-23-6-7.04,1.21-9.21,4.91-20,7-5.03.97-12.52,2.43-15-1-1.31-1.81-.58-4.1,2-13,1.87-6.44,3.28-11.45,4-14-6.17,1.91-17.76,4.49-31,1-19.91-5.25-30.43-20.78-36-29C.77,106.82-1.35,68.65,5.58,53.58c.18-.38,6.04-13.1,5-22,0,0-.01-.09-1-8-3.25,1.46-6.63,1.53-8,0-1.74-1.94-.9-7.14,4-11C1.08,8.3-.83,3.71.58,1.58,2.23-.91,8.19.27,11.58,1.58c9.82,3.8,13.88,14.82,15,18,4.82,13.68-.84,19.04-1,42-.11,15.35-.02,26.82,8,35,.79.81,8.5,8.44,19,8,5.01-.21,11.13-2.27,30-23,16.45-18.07,19.02-24.43,30-31,8.52-5.1,16.71-7.1,22-8-11.3.62-13.84-.15-14-1-.24-1.23,4.47-3.17,7-4,6.15-2.03,11.66-1.57,15-1l-9-6c1.27-.74,4.17-2.2,8-2,6.55.34,10.41,5.22,11,6l-3-9c2.02.33,7.32,1.48,12,6,3.92,3.78,5.43,8,6,10,5.64.51,13.38,1.75,22,5,21.79,8.22,52.28,30.41,54,61,1.29,23.01-14.47,38.67-46,70Z"/>
      <path class="cls-4" d="M186.82,86.96c2.12-3.41,5.89-8.53,12-13,12.49-9.14,25.89-9.09,31-9,4.45.08,19.68.36,32,11,3.96,3.42,2.63,3.61,14,21,11.78,18.02,17.51,24.41,15,31-1.17,3.06-2.56,2.08-6,7-5.22,7.46-3.3,11.54-8,22-2.9,6.46-4.37,9.72-8,12-6.82,4.29-11.77-.83-18,3-6.39,3.93-3.65,10.84-11,18-.33.32-6.47,6.15-15,7-10.52,1.05-21.38-5.8-28-17"/>
      <path class="cls-7" d="M182.08,78.08c2.12-3.41,5.89-8.53,12-13,12.49-9.14,25.89-9.09,31-9,4.45.08,19.68.36,32,11,3.96,3.42,2.63,3.61,14,21,11.78,18.02,17.51,24.41,15,31-1.17,3.06-2.56,2.08-6,7-5.22,7.46-3.3,11.54-8,22-2.9,6.46-4.37,9.72-8,12-6.82,4.29-11.77-.83-18,3-6.39,3.93-3.65,10.84-11,18-.33.32-6.47,6.15-15,7-10.52,1.05-21.38-5.8-28-17"/>
      <path class="cls-1" d="M182.08,114.08c2.53-5.15,6.39-12.21,12-20,6.71-9.32,10.17-14.13,16-18,10.56-7.02,29.01-11.04,40-3,7.55,5.53,5.68,12.44,19,33,2.79,4.3,5.28,7.73,7,10-.88,3.16-2.2,7.66-4,13-4.5,13.36-6.76,20.04-10,23-8.38,7.63-17.38,1.83-24,10-4.09,5.05-2.12,9.08-7,13-5.72,4.6-13.62,3.24-15,3-11.49-1.98-17.71-12.76-19-15-5.51-9.55-2.69-15.03-7-30-2.41-8.36-5.64-14.83-8-19Z"/>
      <path class="cls-7" d="M179.08,43.08c2.32-1.35,6.08-3.17,11-4,3.04-.51,6.16-1.03,9,0,5.29,1.92,8.53,8.84,9,17"/>
      <path class="cls-7" d="M198.08,266.08c1.33,3.64,3.05,9.14,4,16,1.46,10.58-.55,12.5,0,23,1.02,19.58,8.41,20.49,6,33-.78,4.03-2.71,9.98,0,16,1.44,3.2,3.37,4.58,4,5,4.02,2.67,9.08,1.69,11,1,10.57-3.77,10.92-28.92,11-35,.14-10.36-1.17-27.07-10-47"/>
      <path class="cls-4" d="M202.58,305.58c1.37-.66,3.41-1.49,6-2,1.84-.36,8.42-1.66,13,1,7.27,4.21,9.43,18.31,3,26-3.82,4.56-11.01,7.26-14,5-1.24-.94-.9-2.07-2-7-1.32-5.9-2.29-6.45-4-13-.59-2.26-1.39-5.68-2-10Z"/>
      <path class="cls-7" d="M208.08,247.08c8.05,16.56,10.39,30.34,11,40,.73,11.55-1.01,17.06,0,29,1.31,15.58,6.11,27.94,10,36-1.11.67-5.07,3.27-6,8-.06.32-.44,2.32,0,4,1.66,6.33,15.09,8.85,24,9,4.05.07,21.81.36,26-9,1.54-3.43,1.04-7.7,1-8-.55-4.31-2.74-6.99-4-9-2.74-4.37-2.83-9.58-3-20-.08-4.61.04-14.58,3-29,2.83-13.76,4.86-15.05,6-24,1.45-11.35-.35-20.89-2-27"/>
      <path class="cls-8" d="M125.08,65.08c.73,1.59,5.87-.76,12,0,7.62.94,13.57,6.28,18,12-.47-2.47-2.4-11.01-10-16-1.87-1.23-6.59-4.32-12-3-4.8,1.17-8.71,5.45-8,7Z"/>
      <path class="cls-2" d="M82.08,81.08c1.99-.44,4.82-.74,8,0,9.49,2.22,13.5,11.76,14,13"/>
      <path class="cls-2" d="M66.08,98.08c2.09,1.52,4.67,3.77,7,7,5.14,7.12,5.89,14.58,6,18"/>
      <path class="cls-2" d="M47.08,104.08c.92,2.49,1.99,6.29,2,11,.01,3.2-.47,5.93-1,8"/>
      <path class="cls-2" d="M33.08,96.08c-.13,1.35-.53,3.64-2,6-2.63,4.22-6.78,5.63-8,6"/>
      <path class="cls-2" d="M26.08,75.08c-.16.82-.76,3.32-3,5-2.7,2.03-6.69,2.05-10,0"/>
      <path class="cls-4" d="M342.08,289.08c.24-4.26,4.6-7.17,6-8,10.03-5.94,23.46,2.95,25,4,2.5,1.7,3.43,2.91,4,4,2.47,4.7.45,11.15-3,15-4.66,5.2-12.52,6.33-18,4-2.58-1.1-5.05-4.4-10-11-3.54-4.73-4.1-6.33-4-8Z"/>
      <path class="cls-2" d="M26.08,56.08c-.92.45-3.15,1.37-6,1-4.11-.53-6.48-3.35-7-4"/>
      <path class="cls-2" d="M341.08,277.08c.62-8.7,2.04-18.88,5-30,5.4-20.3,13.87-36.08,21-47"/>
      <path class="cls-2" d="M347.08,291.08c.45-.84,2.49-4.46,7-6,3.75-1.28,6.96-.35,8,0"/>
      <path class="cls-2" d="M351.08,294.08c1.03-.97,2.35-2.04,4-3,3.91-2.28,7.69-2.86,10-3"/>
      <path class="cls-4" d="M220.58,310.58c2.96-5.04,11.48-4.57,12.5-4.5,8.4.57,13.32,7.08,14,8,4.8,6.51,6.03,16.77,2,20-2.69,2.16-5.38-.89-15,0-5.76.53-7.39,1.86-9.5.5-1.34-.86-1.97-2.23-3.5-12.5-1.37-9.2-1.19-10.32-.5-11.5Z"/>
      <path class="cls-2" d="M354.08,300.08c1.57.2,3.62.3,6,0,2.98-.38,5.36-1.25,7-2"/>
      <path class="cls-2" d="M327.08,298.08c.64-.81,2.59-3.07,6-4,2.7-.74,4.96-.28,6,0"/>
      <path class="cls-2" d="M333.08,300.08c.46.53,1.44,1.51,3,2,3.03.96,5.63-.75,6-1"/>
      <path class="cls-2" d="M331.08,310.08c1.12.35,4.27,1.19,8,0,3.26-1.04,5.22-3.08,6-4"/>
      <path class="cls-2" d="M224.08,316.08c.83-.84,2.49-2.27,5-3,4.41-1.29,8.12.54,9,1"/>
      <circle class="cls-1" cx="130.54" cy="105.13" r="20.95"/>
      <circle class="cls-3" cx="131.31" cy="105.17" r="16.13"/>
      <circle cx="130.28" cy="104.57" r="9.78"/>
      <circle class="cls-1" cx="144.48" cy="103.54" r="6.6"/>
      <path class="cls-2" d="M229.08,322.08h5c2-.33,4-.67,6-1"/>
      <path class="cls-2" d="M224.08,326.08c1,.86,5.04,4.13,11,4,4.54-.1,7.76-2.12,9-3"/>
      <path class="cls-2" d="M203.08,313.08c.64-.69,2.29-2.31,5-3,2.23-.57,4.09-.23,5,0"/>
      <path class="cls-2" d="M205.08,321.08c.74-.61,2.09-1.55,4-2,3.43-.8,6.21.57,7,1"/>
      <path class="cls-10" d="M86.08,162.08c4.15-.74,10.88-2.47,18-7,6.4-4.07,10.57-8.78,13-12,1.67,1.33,3.33,2.67,5,4-1.91,4.78-5.69,12.52-13,20-7.83,8.02-16.11,12.05-21,14,1.67-7,3.33-14,5-21"/>
      <path class="cls-7" d="M108.08,125.08c2.84-1.3,9-3.66,17-3,9.23.76,15.54,5.1,18,7"/>
      <path class="cls-2" d="M187.08,72.08c-1.58-.01-5.8.16-10,3-3.58,2.42-5.31,5.54-6,7"/>
      <path class="cls-2" d="M182.08,114.08l-3,9"/>
      <path class="cls-2" d="M276.08,274.08c1.38-2.12,2.83-4.79,4-8,2.84-7.82,2.54-14.84,2-19"/>
      <path class="cls-5" d="M459.08,260.08c3.25-.47,6.89,7.55,8,10,2.16,4.76,6.19,13.66,5,24-.22,1.87-.63,4.03,0,7,.87,4.1,3.19,7.11,5,9-.61.16-1.73.36-3,0-2.84-.81-3.89-3.67-4-4,.27,2.15.39,4.88,0,8-.67,5.35-2.56,9.46-4,12-1-3.33-2-6.67-3-10,.47,1.84,1.68,7.56-1,14-2.89,6.94-8.39,10.14-10,11,2.12-3.51,4.53-8.81,4-15-.76-8.93-6.84-10.54-10-22-.97-3.53-3.39-12.31,0-21,1.84-4.72,3.9-5.57,6-12,.16-.49,1.31-4.06,4-8,1.85-2.72,2.62-2.95,3-3Z"/>
      <path class="cls-1" d="M208.08,354.08c.28-2.67,4.55-3.88,5-4,4.69-1.27,11.29.95,12,5,.34,1.92-.72,3.89-2,5-3.89,3.36-10.5-.68-11-1-1.28-.81-4.25-2.67-4-5Z"/>
      <path class="cls-1" d="M223.08,364.08c-.09-.26-.65-2.04,0-4,1.06-3.19,4.87-5.54,8-5,3.57.61,5.28,4.79,7,9,1.3,3.16,1.79,6,2,8,.49-6.55,3.6-11.67,8-13,2.17-.66,4.08-.22,5,0,7.54,1.82,10.62,10.85,11,12-10.41,2.38-18.74,1.81-24,1-5.1-.79-15.12-2.34-17-8Z"/>
      <path class="cls-1" d="M368.08,359.08c.42-1.92,1.55-5.81,5-9,1.09-1.01,1.94-1.8,3-2,3.71-.71,8.84,5.98,13,16,.46-1.52,3.45-11.12,10-12,.85-.11,1.52-.05,2,0,6.16.63,10.4,6.51,12,9-5.13,1.66-13.55,3.68-24,3-9.1-.59-16.33-3.01-21-5Z"/>
      <path class="cls-4" d="M276.08,278.08c.33-1,.67-2,1-3,.89-1.47,1.99-3.49,3-6,4.72-11.71,2.65-21.98,3-22,.34-.02,2.68,9.45,0,21-1.08,4.65-2.67,8.37-4,11-1-.33-2-.67-3-1Z"/>
      <path class="cls-4" d="M274.58,247.58c.73,2.53,1.64,6.32,2,11,.61,7.91-.76,12.81,0,13,.9.22,3.98-6.41,5-14,.61-4.53.35-8.37,0-11-.16,1.43-.45,3.13-1,5-.59,1.99-1.31,3.67-2,5-.14-1.1-.42-2.48-1-4-.88-2.28-2.08-3.94-3-5Z"/>
      <path class="cls-4" d="M87.08,182.08c3.83-1.29,8.83-3.4,14-7,16.43-11.45,21.15-28.4,22-28,.87.42-3.16,18.74-16.5,29.5-2,1.62-6.34,4.08-15,9-5.87,3.34-8.22,4.46-9.5,3.5-.87-.66-1.55-2.42,1-11,1.17-3.95,2.8-9.06,5-15,1-.33,2-.67,3-1-1.33,6.67-2.67,13.33-4,20Z"/>
      <path class="cls-9" d="M2.58,1.58c.21-.72,5.84-.7,11,2,8.27,4.33,11.58,13.59,11,14-.4.28-2.43-3.6-8-8C9.13,3.7,2.34,2.4,2.58,1.58Z"/>
      <path class="cls-9" d="M182.58,114.26c2.67-4.67,4.98-8.49,6.66-11.21,7.39-11.94,10.81-15.96,14.43-19.36,3.1-2.9,4.64-4.35,6.66-5.09,9.78-3.59,24.8,4.03,28.87,14.26,1.33,3.34.09,3.45,1.11,10.19,2.13,14.13,8.36,18.85,5.55,22.41-2.57,3.26-8.18-.2-17.76,4.08-2.16.96-5.86,2.61-8.88,6.11-5.22,6.05-2.85,11.22-6.66,13.24-3.97,2.11-11.33-.95-15.54-5.09-5.12-5.02-3.52-9.58-8.88-20.38-2-4.02-4.08-7.13-5.55-9.17Z"/>
      <path class="cls-4" d="M155.58,192.58c5.35.58,12.84.67,21-2,12.06-3.94,19.25-11.84,20-11,.67.75-4.32,7.89-12,13-10.86,7.22-22.68,7.43-29,7v-7Z"/>
    </g>
  </g>
</svg>