<?xml version="1.0" encoding="UTF-8"?>
<svg id="Layer_2" data-name="Layer 2" xmlns="http://www.w3.org/2000/svg" viewBox="0 0 46.14 61.14">
  <defs>
    <style>
      .cls-1 {
        fill: none;
      }

      .cls-1, .cls-2, .cls-3, .cls-4, .cls-5, .cls-6 {
        stroke: #000;
        stroke-miterlimit: 10;
      }

      .cls-2 {
        fill: gray;
      }

      .cls-7, .cls-3 {
        fill: #fff;
      }

      .cls-5 {
        fill: #ff7a56;
      }

      .cls-8 {
        fill: #333;
      }

      .cls-6 {
        fill: #fff4b7;
      }
    </style>
  </defs>
  <g id="Layer_1-2" data-name="Layer 1">
    <g>
      <path class="cls-3" d="M20.57,23.62c1.54-2.31,2.97-4.46,4-6,3.57-5.35,5.39-8.04,7-9,3.53-2.09,8.87-2.49,11,0,1.21,1.41,1.05,3.37,1,4-.68,8.52-20.9,15.9-24,17,.33-2,.67-4,1-6Z"/>
      <path class="cls-3" d="M25.57,30.62c1.98.36,3.59.65,6,2,3.13,1.74,4.9,2.73,6,5,1.56,3.2.53,6.36,0,8-.75,2.3-1.68,2.84-2,3-.95.47-2.15.39-3,0-2.8-1.29-1.18-5.69-4-11-2.15-4.05-5.59-6.17-5-7,.11-.15.38-.29,2,0Z"/>
      <path class="cls-6" d="M16.57,35.62c-.49,3.34-.28,6.12,0,8,.56,3.73,1.73,6.26,3,9,1.82,3.93,3.16,5.28,4,6,1.21,1.04,2.53,2.17,4,2,3.3-.39,4.8-7.1,5-8,1.87-8.39-2.53-15.28-3-16-2.03-3.07-4.44-4.96-6-6-.26.7-.82,1.92-2,3-1.97,1.8-4.3,1.98-5,2Z"/>
      <path class="cls-2" d="M11.57,28.62c-.19.5-.79,2.24,0,4,1.16,2.58,4.27,2.94,5,3,1.95.15,3.42-.64,4-1,2.17-1.34,2.84-3.46,3-4,.15-.63.32-1.72,0-3-.61-2.45-2.53-3.71-3-4-.2.63-.92,2.63-3,4-2.68,1.77-5.52,1.12-6,1Z"/>
      <path class="cls-2" d="M4.57,18.62c-.66,1.34-1.51,3.09-1,5,1.09,4.07,7.32,4.92,8,5,1.51.19,3.9.48,6-1,2.96-2.09,2.99-6.02,3-7,0-1.21.03-4.02-2-6-2.55-2.5-6.62-2.01-9-1-3.22,1.36-4.6,4.18-5,5Z"/>
      <path class="cls-3" d="M20.57,30.62c.87-1.26,2.3-3.36,4-6,4.58-7.13,5.19-9.07,8-11,.99-.69,5.03-3.47,9-2,.25.09,3.46,1.33,4,4,.54,2.68-1.96,5.08-5,8-2.06,1.98-4.63,4.44-9,6-4.77,1.7-8.93,1.33-11,1Z"/>
      <path class="cls-4" d="M18.57,33.62c.53.62-2.38,2.65-2,5,.21,1.32,1.34,1.91,1,3-.16.52-.62,1.05-1,1-.73-.11-1.04-2.41-1-4,.01-.6.1-4.3,2-5,.07-.02.77-.28,1,0Z"/>
      <path class="cls-4" d="M17.24,33.96c-.35-.31-2.28.84-3.43,2.5-1.64,2.36-1.63,5.67-.93,5.93.33.12.87-.42,1.14-.83.63-.99-.03-1.67.46-2.96.22-.57.58-.99,1.3-1.82.53-.61.99-1.02,1.3-1.82.14-.36.32-.84.15-.99Z"/>
      <path class="cls-4" d="M12.57,33.62c.22.33-.69.86-1,2-.4,1.45.54,2.54,0,3-.26.22-.73.19-1,0-.59-.42-.31-1.63,0-3,.37-1.62.8-1.9,1-2,.35-.17.86-.21,1,0Z"/>
      <path class="cls-4" d="M14.57,32.62c-1.64.02-2.51.53-3,1-.74.71-.96,1.66-2,2-.11.04-.79.26-1,0-.34-.43.68-2.02,2-3,1.42-1.06,3.5-1.64,4-1,.21.26.11.69,0,1Z"/>
      <path class="cls-1" d="M17.57,35.62c.25.45.62,1.13,1,2,1.45,3.34,1.37,5.57,2,9,.28,1.54.78,4.26,2,7,1.48,3.33,3.54,5.62,5,7"/>
      <path class="cls-1" d="M16.57,43.62c.29.28.98.85,2,1,.39.06.73.04,1,0"/>
      <path class="cls-1" d="M17.57,47.62h3"/>
      <path class="cls-1" d="M19.57,51.62c.15.05.54.15,1,0,.71-.24.97-.91,1-1"/>
      <path class="cls-1" d="M21.57,55.62l2-1"/>
      <path class="cls-1" d="M19.57,39.62c.79.13,1.46.09,2,0,4-.7,5.8-5.45,6-6"/>
      <path class="cls-1" d="M20.57,46.62c1.25.25,2.27.16,3,0,5.09-1.1,6.9-7.61,7-8"/>
      <path class="cls-1" d="M22.57,53.62c1.26.27,2.27.17,3,0,3.56-.84,6.26-4.83,7-10"/>
      <path class="cls-5" d="M8.57,23.62c.02.08.49,1.59,2,2,1.09.3,2.27-.1,3-1-.02.23-.11,1.34-1,2-1.12.84-2.88.48-3,0-.04-.18.12-.48,1-1"/>
      <path class="cls-4" d="M12.57,12.62c.63-.58-.41-3.22-2-5-2.06-2.31-4.92-3.04-7-3-.85.02-2.63.05-3,1-.28.72.3,1.84,1,2,.66.15.96-.65,2-1,1.46-.49,2.98.4,4,1,.96.56,2.41,1.41,3,3,.3.81.33,1.67,1,2,.29.14.76.22,1,0Z"/>
      <path class="cls-4" d="M16.57,13.62c-.7-.6,1.3-2.56,1-5-.23-1.91-1.9-4.29-4-5-.73-.25-1.54-.3-2-1-.42-.64-.45-1.67,0-2,.93-.68,3.73,1.76,4,2,1.02.9,2.31,2.03,3,4,.95,2.7.56,6.32-1,7-.04.02-.67.28-1,0Z"/>
      <path class="cls-1" d="M21.57,29.62c1.48-.25,3.64-.78,6-2,1.39-.72,4.52-2.39,7-6,2.16-3.15,2.79-6.27,3-8"/>
      <path class="cls-1" d="M29.57,26.62c.23-.91.55-1.92,1-3,.9-2.14,2.03-3.8,3-5"/>
      <path class="cls-1" d="M29.57,26.62c.32.02.65.02,1,0,1.63-.08,2.99-.53,4-1"/>
      <path class="cls-1" d="M33.57,23.62c.54.08,1.23.11,2,0,2.04-.3,3.41-1.44,4-2"/>
      <path class="cls-1" d="M35.57,19.62c.71-.09,1.82-.32,3-1,1.7-.97,2.61-2.32,3-3"/>
      <path class="cls-1" d="M28.57,35.62c.52-.14,1.65-.37,3,0,1.71.47,2.68,1.59,3,2"/>
      <path class="cls-1" d="M32.57,40.62c.39-.07.73-.05,1,0,2,.35,2.9,2.73,3,3"/>
      <path class="cls-1" d="M24.57,31.62c1.63.91,5.99,3.63,8,9,.7,1.88.94,3.62,1,5"/>
      <circle class="cls-3" cx="6.34" cy="18.07" r="4.13"/>
      <circle class="cls-8" cx="6.25" cy="17.94" r="3.18"/>
      <circle cx="6.28" cy="18.18" r="1.93"/>
      <circle class="cls-7" cx="4.45" cy="16.05" r="1.3"/>
      <circle class="cls-3" cx="15.36" cy="19.05" r="4.15"/>
      <circle class="cls-8" cx="15.27" cy="18.92" r="3.2"/>
      <circle cx="15.3" cy="19.16" r="1.94"/>
      <circle class="cls-7" cx="13.46" cy="17.02" r="1.31"/>
    </g>
  </g>
</svg>