<?xml version="1.0" encoding="UTF-8"?>
<svg id="Layer_2" data-name="Layer 2" xmlns="http://www.w3.org/2000/svg" viewBox="0 0 45.14 60.14">
  <defs>
    <style>
      .cls-1 {
        fill: #fff;
      }

      .cls-2 {
        fill: none;
      }

      .cls-3 {
        fill: #ff7a56;
      }

      .cls-4 {
        fill: #333;
      }

      .cls-5 {
        fill: #fff4b7;
      }

      .cls-6 {
        fill: gray;
      }

      .cls-7 {
        fill: #f1e8a7;
      }
    </style>
  </defs>
  <g id="Layer_1-2" data-name="Layer 1">
    <g>
      <path class="cls-1" d="M20.07,23.12c1.54-2.31,2.97-4.46,4-6,3.57-5.35,5.39-8.04,7-9,3.53-2.09,8.87-2.49,11,0,1.21,1.41,1.05,3.37,1,4-.68,8.52-20.9,15.9-24,17,.33-2,.67-4,1-6Z"/>
      <path class="cls-1" d="M25.07,30.12c1.98.36,3.59.65,6,2,3.13,1.74,4.9,2.73,6,5,1.56,3.2.53,6.36,0,8-.75,2.3-1.68,2.84-2,3-.95.47-2.15.39-3,0-2.8-1.29-1.18-5.69-4-11-2.15-4.05-5.59-6.17-5-7,.11-.15.38-.29,2,0Z"/>
      <path class="cls-5" d="M16.07,35.12c-.49,3.34-.28,6.12,0,8,.56,3.73,1.73,6.26,3,9,1.82,3.93,3.16,5.28,4,6,1.21,1.04,2.53,2.17,4,2,3.3-.39,4.8-7.1,5-8,1.87-8.39-2.53-15.28-3-16-2.03-3.07-4.44-4.96-6-6-.26.7-.82,1.92-2,3-1.97,1.8-4.3,1.98-5,2Z"/>
      <path class="cls-6" d="M11.07,28.12c-.19.5-.79,2.24,0,4,1.16,2.58,4.27,2.94,5,3,1.95.15,3.42-.64,4-1,2.17-1.34,2.84-3.46,3-4,.15-.63.32-1.72,0-3-.61-2.45-2.53-3.71-3-4-.2.63-.92,2.63-3,4-2.68,1.77-5.52,1.12-6,1Z"/>
      <path class="cls-6" d="M4.07,18.12c-.66,1.34-1.51,3.09-1,5,1.09,4.07,7.32,4.92,8,5,1.51.19,3.9.48,6-1,2.96-2.09,2.99-6.02,3-7,0-1.21.03-4.02-2-6-2.55-2.5-6.62-2.01-9-1-3.22,1.36-4.6,4.18-5,5Z"/>
      <path class="cls-1" d="M20.07,30.12c.87-1.26,2.3-3.36,4-6,4.58-7.13,5.19-9.07,8-11,.99-.69,5.03-3.47,9-2,.25.09,3.46,1.33,4,4,.54,2.68-1.96,5.08-5,8-2.06,1.98-4.63,4.44-9,6-4.77,1.7-8.93,1.33-11,1Z"/>
      <path d="M18.07,33.12c.53.62-2.38,2.65-2,5,.21,1.32,1.34,1.91,1,3-.16.52-.62,1.05-1,1-.73-.11-1.04-2.41-1-4,.01-.6.1-4.3,2-5,.07-.02.77-.28,1,0Z"/>
      <path d="M16.74,33.46c-.35-.31-2.28.84-3.43,2.5-1.64,2.36-1.63,5.67-.93,5.93.33.12.87-.42,1.14-.83.63-.99-.03-1.67.46-2.96.22-.57.58-.99,1.3-1.82.53-.61.99-1.02,1.3-1.82.14-.36.32-.84.15-.99Z"/>
      <path d="M12.07,33.12c.22.33-.69.86-1,2-.4,1.45.54,2.54,0,3-.26.22-.73.19-1,0-.59-.42-.31-1.63,0-3,.37-1.62.8-1.9,1-2,.35-.17.86-.21,1,0Z"/>
      <path d="M14.07,32.12c-1.64.02-2.51.53-3,1-.74.71-.96,1.66-2,2-.11.04-.79.26-1,0-.34-.43.68-2.02,2-3,1.42-1.06,3.5-1.64,4-1,.21.26.11.69,0,1Z"/>
      <path class="cls-2" d="M17.07,35.12c.25.45.62,1.13,1,2,1.45,3.34,1.37,5.57,2,9,.28,1.54.78,4.26,2,7,1.48,3.33,3.54,5.62,5,7"/>
      <path class="cls-2" d="M16.07,43.12c.29.28.98.85,2,1,.39.06.73.04,1,0"/>
      <path class="cls-2" d="M19.07,51.12c.15.05.54.15,1,0,.71-.24.97-.91,1-1"/>
      <path class="cls-2" d="M21.07,55.12l2-1"/>
      <path class="cls-7" d="M19.07,39.12c3.79-.07,6.08-3.02,8-6-.46,3.61-4.16,7.51-8,6h0Z"/>
      <path class="cls-7" d="M20.07,46.12c3.59.25,6.52-1.99,8.3-4.93.62-.97,1.18-2,1.7-3.07-.13,1.19-.49,2.36-1.02,3.45-1.43,3.33-5.35,6.05-8.98,4.55h0Z"/>
      <path class="cls-7" d="M22.07,53.12c4.12.44,7.14-2.8,8.64-6.29.53-1.18.98-2.42,1.36-3.71.25,5.12-4.14,12.16-10,10h0Z"/>
      <path class="cls-3" d="M10.07,25.12c1-.33,2-.67,3-1-.02.23-.11,1.34-1,2-1.12.84-2.88.48-3,0-.04-.18.12-.48,1-1"/>
      <path d="M12.07,12.12c.63-.58-.41-3.22-2-5-2.06-2.31-4.92-3.04-7-3-.85.02-2.63.05-3,1-.28.72.3,1.84,1,2,.66.15.96-.65,2-1,1.46-.49,2.98.4,4,1,.96.56,2.41,1.41,3,3,.3.81.33,1.67,1,2,.29.14.76.22,1,0Z"/>
      <path d="M16.07,13.12c-.7-.6,1.3-2.56,1-5-.23-1.91-1.9-4.29-4-5-.73-.25-1.54-.3-2-1-.42-.64-.45-1.67,0-2,.93-.68,3.73,1.76,4,2,1.02.9,2.31,2.03,3,4,.95,2.7.56,6.32-1,7-.04.02-.67.28-1,0Z"/>
      <path d="M21.05,29c8.02-1.2,15.16-7.61,16.02-15.88-.63,6.11-4.67,11.59-10.2,14.21-1.81.92-3.77,1.57-5.77,1.92l-.04-.25h0Z"/>
      <path d="M28.95,26.09c.77-2.92,2.2-5.66,4.12-7.97-1.86,2.36-3.2,5.12-3.88,8.03l-.24-.06h0Z"/>
      <path d="M29.08,25.99c1.71.11,3.42-.18,4.99-.88-1.55.77-3.28,1.16-5.01,1.12,0,0,.01-.25.01-.25h0Z"/>
      <path class="cls-2" d="M33.07,23.12c.54.08,1.23.11,2,0,2.04-.3,3.41-1.44,4-2"/>
      <path d="M35.06,18.99c2.45-.25,4.74-1.73,6.02-3.88-1.2,2.19-3.47,3.79-5.98,4.12l-.03-.25h0Z"/>
      <path d="M28.04,35c2.21-.58,4.68.29,6.03,2.12-1.4-1.75-3.83-2.53-5.97-1.88,0,0-.06-.24-.06-.24h0Z"/>
      <path d="M32.05,40c1.97-.33,3.45,1.44,4.02,3.12-.62-1.6-2.12-3.28-3.98-2.88,0,0-.04-.25-.04-.25h0Z"/>
      <path d="M24.13,31.01c5.1,2.82,8.84,8.2,8.94,14.11-.19-5.88-3.96-11.17-9.06-13.89,0,0,.12-.22.12-.22h0Z"/>
      <circle class="cls-1" cx="5.84" cy="17.57" r="4.13"/>
      <circle class="cls-4" cx="5.75" cy="17.44" r="3.18"/>
      <circle cx="5.78" cy="17.68" r="1.93"/>
      <circle class="cls-1" cx="3.95" cy="15.55" r="1.3"/>
      <circle class="cls-1" cx="14.86" cy="18.55" r="4.15"/>
      <circle class="cls-4" cx="14.77" cy="18.42" r="3.2"/>
      <circle cx="14.8" cy="18.66" r="1.94"/>
      <circle class="cls-1" cx="12.96" cy="16.52" r="1.31"/>
    </g>
  </g>
</svg>