<?xml version="1.0" encoding="UTF-8"?>
<svg id="Layer_2" data-name="Layer 2" xmlns="http://www.w3.org/2000/svg" viewBox="0 0 322.02 496.41">
  <defs>
    <style>
      .cls-1 {
        fill: #f79129;
      }

      .cls-2 {
        fill: #fff;
      }

      .cls-3 {
        fill: #995c25;
      }

      .cls-4 {
        fill: none;
      }

      .cls-5 {
        fill: #d86f27;
      }

      .cls-6 {
        fill: #f36f45;
      }

      .cls-7 {
        fill: #b9742a;
      }

      .cls-8 {
        fill: #333;
      }

      .cls-9 {
        fill: #fbad18;
      }
    </style>
  </defs>
  <g id="Layer_1-2" data-name="Layer 1">
    <g>
      <path class="cls-3" d="M302.02,367c3.33.02,5.73,2.07,8,4,1.21,1.03,6.38,5.43,7,12,.35,3.68-1.02,4.93,0,8,.97,2.91,3.2,4.82,5,6-.71.11-1.76.2-3,0-1.32-.21-2.34-.65-3-1,.33,2.28.84,7.88-2,14-3.59,7.75-10.1,11.1-12,12,.48-2.38.96-6.31,0-11-.71-3.46-1.96-6.16-3-8-.33,2.33-.67,4.67-1,7-1.2-1.36-2.94-3.69-4-7-1.75-5.45-.57-10.15,0-12-.76,1.41-1.65,3.45-2,6-.49,3.58.39,5.87,0,6-.65.21-4.5-5.62-5-13-.14-2.01-.33-8.66,4-15,1.71-2.5,5.49-8.04,11-8Z"/>
      <path class="cls-9" d="M264.02,261c3.39,1.85,8.05,4.73,13,9,10.06,8.69,15.19,17.86,18,23,4.22,7.71,7.92,14.48,9,24,1.05,9.26-1.87,7.98-3,27-.82,13.94-1.23,22.32,3,29,.78,1.24,2.79,4.09,2,5-.75.87-3.9-.21-6-2-3.09-2.64-3.69-6.66-4-9-1.71-12.76-2.56-19.15-2-26,.76-9.3,2.07-10.15,2-18-.05-5.27-.1-9.96-2-15-3.53-9.33-11.43-14.56-16-17-4.67-10-9.33-20-14-30Z"/>
      <path class="cls-3" d="M84.02,447c-5.17,2.65-8.04,6.63-9,8-2.41,3.43-5.78,8.22-4,13,1.46,3.92,5.89,6.49,11,7,1.09.87,2.77,2.05,5,3,6.57,2.81,12.72,1.46,19,0,6.12-1.42,9.2-2.14,11-5,1.58-2.51,1.36-5.36,1-10-.31-4.01-.56-7.27-2-10-4.57-8.67-20.99-11.64-32-6Z"/>
      <path class="cls-3" d="M126.02,465c-5.25,4.22-7.31,9.75-8,12-1.06,3.45-2.52,8.22,0,12,2.51,3.76,8.13,5.27,14,4,1.47.99,3.85,2.33,7,3,5.83,1.24,10.56-.6,14-2,5.1-2.06,9.58-3.88,11-8,.76-2.21-.15-5.5-2-12-1.52-5.32-2.27-7.98-3-9-5.35-7.52-22.78-8.21-33,0Z"/>
      <path class="cls-3" d="M201.02,440c-3.65,2.15-5.79,5.25-7,7-2.24,3.25-5.07,7.35-4,12,.85,3.69,3.76,6.01,5,7,2.27,1.81,4.57,2.62,6,3,3,.6,7.51,1.24,13,1,6.87-.3,11.48-.51,15-4,3.99-3.95,4.03-9.6,4-11-.12-4.76-2.36-8.08-3-9-5.84-8.41-19.96-11.33-29-6Z"/>
      <path class="cls-3" d="M239.02,459c-3.15,2.49-5.11,5.6-6,7-2.56,4.06-6.33,10.02-4,15,2.24,4.8,8.79,5.83,10,6,1.77,1.25,5.22,3.32,10,4,6.94.99,12.22-1.59,15-3,3.51-1.78,7.6-3.85,9-8,.78-2.31,0-3.09,0-8,.01-7.49,1.84-8.56,1-11-2.52-7.32-23.64-10.97-35-2Z"/>
      <path class="cls-9" d="M199.02,354c-.71,7.62,8.32,9.03,14,23,.51,1.26,7.78,19.89,0,37-5.74,12.62-15.39,15.04-14,22,1.35,6.8,11.68,10.15,17,11,7.84,1.25,18.33-.76,20-6,.88-2.78-1.4-4.3-3-9-2.97-8.71.19-17.2,4-27,4.95-12.74,8.14-13.38,11-21,5.91-15.75,2.98-41.6-12-48-14.14-6.04-35.94,6.56-37,18Z"/>
      <path class="cls-9" d="M90.02,267c-6.48,1.09-10.04,19.43-9,33,.86,11.29,4.63,15.74,9,29,6.03,18.31,6.57,33.31,7,45,1,27.35,1.52,41.63-8,53-3.71,4.44-8.38,7.74-8,13,.51,7.06,9.69,12.2,16,14,6.89,1.96,17.73,2.03,22-4,3.75-5.3.92-13.17,0-16-8.45-26.1,7.66-50.58,7-86-.8-42.82-25.78-82.72-36-81Z"/>
      <path class="cls-9" d="M119.02,114c-1.91,28.64,2.22,51.38,6,66,6.18,23.92,11.46,44.32,30,57,13.83,9.46,29.31,10.68,34,11,21.75,1.48,26.66-8.2,43-6,18.43,2.48,35.15,17.89,42,34,9.09,21.36,2.72,48.41,0,60-2.41,10.24-5.11,16.04-3,25,2.97,12.62,11.74,15.56,12,27,.13,5.62-1.97,5.41-7,20-5.04,14.62-7.55,21.93-6,30,2.07,10.76,8.85,13.2,7,19-2.21,6.93-14.01,10.21-23,9-8.61-1.15-18.16-6.71-18-12,.07-2.18,1.75-3.04,4-6,4.1-5.38,4.72-10.6,6-18,3.81-22.03,5.92-19.59,6-28,.1-11.21-3.93-19.81-12-37-4.84-10.3-9.57-18.46-13-24-12.93,8.95-24.95,13.01-33,15-8.33,2.06-38.91,9.11-68-8-5.44-3.2-15.82-9.46-24-22-14.82-22.72-10.36-47.56-9-54-4.39-6.36-10.26-16.54-13-30-2.4-11.79.03-14.15,0-42-.02-19.34-.03-29-2-41-2.32-14.12-4.57-16.63-3-22,2.35-8.03,11.82-17.52,44-23Z"/>
      <path class="cls-1" d="M80.02,137c-.63,2.62,1.23,5.48,3,7,.58.5,3.16,2.71,6,2,3.34-.84,4.48-5.07,5-7,.55-2.03,1.22-4.54,0-6-2.52-3-12.77-1.14-14,4Z"/>
      <path class="cls-9" d="M119.02,314c6.89,19.45,10.73,36.33,13,49,2.39,13.35,4.89,27.87,4,47-.9,19.22-1.35,28.83-7,37-2.98,4.31-7.12,8.34-6,13,1.52,6.29,11.42,8.63,13,9,10.42,2.45,24.17-1.14,27-9,1.57-4.36-1.44-6.65-4-15-4.66-15.19-1.54-29.96,1-42,1.88-8.9,3.98-13.5,4-23,0-4.34-.43-6.42,0-11,.87-9.33,4.09-15.94,5-18,3.02-6.88,5.04-19.55,0-45"/>
      <path class="cls-9" d="M60.02,18c-.16.9.23,1.94,1,4,1.56,4.15,2.34,6.22,4,7,2.91,1.36,7.52-.66,8-3,.38-1.85-2.09-2.52-3-6-.98-3.76,1.16-5.86,0-7-1.8-1.77-9.28.92-10,5Z"/>
      <path class="cls-9" d="M131.02,89c-11.81,32.26-22.84,41.18-31,43-1.61.36-9.06,1.77-19,5-7.08,2.3-10.69,3.5-14,6-6.54,4.93-5.51,8.84-12,16-3.63,4.01-10.78,11.9-19,11-7.05-.77-13.1-7.81-16-17-11.43-.35-19.59-7.6-20-15-.3-5.47,3.69-9.72,5-11-1.06-4.11-.55-7.16,0-9,2.55-8.59,12.95-14.71,26-15-1.53-3.28-3.28-8.04-4-14-1.06-8.79.67-15.93,2-20-4.43-2.4-12.02-7.25-18-16C-.71,35.84-.46,12.12,5.02,10c1.82-.7,2.93,1.46,10,5,8.04,4.02,12.03,3.94,17,6,5.07,2.1,11.82,6.69,18,18,4.83-2.76,13.09-6.68,24-8,8.7-1.05,20.16-2.39,29,4,10.4,7.51,9.9,20.88,16,21,3.83.08,4.17-5.19,12-9,4.26-2.07,8.02-2.4,15-3,5.03-.43,8.64-.27,14,0,11.54.58,17.31.86,19,3,5.02,6.33-5.53,21.84-7,24-3.28,4.82-11.3,16.6-26,19-6.37,1.04-11.76-.06-15-1Z"/>
      <path class="cls-3" d="M119.02,114c-.14,20.58,1.41,37.64,3,50,.24,1.84,4.54,33.62,18,57,5.11,8.88,9.65,13.26,14,13,1.68-.1,3.91-.93,4-2,.15-1.69-5.02-3.56-10-5,5.36-3.19,6.25-4.96,6-6-.3-1.22-2.18-1.42-5-3-2.82-1.59-4.77-3.54-6-5,3.24-1.12,3.92-2.24,4-3,.11-1.08-.95-2.02-6-6-4.05-3.18-5-3.86-5-5,0-2.28,3.88-2.76,4-5,.12-2.22-3.61-2.93-8-8-.82-.94-3.94-4.55-3-6,.72-1.11,3.11.12,4-1,.95-1.19-.75-3.83-4-10-3.1-5.9-3.82-7.82-3-9,.94-1.34,3-.5,4-2,.46-.69.68-1.86-1-6-1.56-3.85-2.52-4.73-4-8-1.42-3.14-2.87-7.49-2-8,.9-.53,3.38,3.59,5,3,1.81-.66,1.14-6.69,1-8-1.08-9.85-5.42-15.89-4-17,1.17-.91,4.54,2.88,6,2,1.53-.93.2-6.59-4-17-1.19,2.57-2.52,5.25-4,8-1.33,2.47-2.67,4.81-4,7Z"/>
      <path class="cls-6" d="M60.02,136c-.78,3.76-2.54,9.86-7,16-3.77,5.2-7.74,10.67-14,11-8.77.47-14.73-9.53-15-10"/>
      <path class="cls-9" d="M20.02,153c3.76-.4,8.98-1.21,15-3,8.37-2.48,16.5-4.89,23-12,3.89-4.25,5.91-8.78,7-12"/>
      <path class="cls-4" d="M115.02,71c.85.79,2.21,1.81,4,2,6.2.64,10.67-9.5,16-15,5.31-5.48,15.5-10.53,37-8"/>
      <path class="cls-4" d="M44.02,43c-3.24-6.59-7.13-10.06-10-12-4.18-2.82-7.25-3.1-14-6-5.85-2.52-10.28-5.21-13-7"/>
      <path class="cls-3" d="M102.02,73c-.09-2.14-.64-7.81-5-12-3.81-3.66-10.19-5.88-12-4-.86.9-.7,2.76,0,4,1.61,2.87,5.75,1.84,10,4,2.15,1.09,4.83,3.26,7,8Z"/>
      <path class="cls-3" d="M48.02,56c.89-.99.83-2.91,0-4-2.28-2.98-11.9-1.67-16,4-1.36,1.87-1.82,3.82-2,5,1.22-1.88,3.14-4.09,6-5,5.24-1.67,10.08,2.13,12,0Z"/>
      <path class="cls-4" d="M29.02,69c.08-3.18.64-7.91,3-13,5.13-11.06,15.01-15.72,18-17"/>
      <path class="cls-5" d="M36.02,126c-.41-1.6,1.77-3.31,3-4,2.34-1.32,6.02-1.66,7,0,.74,1.25-.35,3.16-1,4-1.49,1.9-4.03,2.44-6,2-.51-.11-2.64-.59-3-2Z"/>
      <path class="cls-4" d="M5.02,127c2.33-2,4.67-4,7-6"/>
      <path class="cls-5" d="M12.02,121c-.93-.43-.66-3.15,0-5,.23-.66,1.75-4.69,5-5,.92-.09,2.56.06,3,1,.6,1.28-1.38,3.31-4,6-2.06,2.11-3.26,3.35-4,3Z"/>
      <path class="cls-9" d="M96.02,41c.49,3.12,4.5,4.79,5,5,.48.2,4.31,1.8,7,0,1.95-1.3,1.6-3.26,3-8,2.26-7.68,5.09-9.02,4-12-1.02-2.78-4.65-4.77-7-4-1.99.65-1.88,2.91-4,7-3.83,7.39-8.56,8.43-8,12Z"/>
      <circle class="cls-7" cx="62.52" cy="8.5" r="8.5"/>
      <ellipse class="cls-7" cx="116.47" cy="16.3" rx="10.9" ry="9.13" transform="translate(71.86 125.12) rotate(-75.68)"/>
      <path class="cls-1" d="M119.02,139c-1.88-3.16-4.97-5.25-8-5-4.96.41-8.23,7-7,12,1.19,4.85,6.26,6.74,7,7,5.02,1.78,9.35-.62,10-1-.67-4.33-1.33-8.67-2-13Z"/>
      <path class="cls-1" d="M91.02,157c-3.14.68-4.62-1.02-6,0-2.03,1.5-.68,6.5,0,9,.23.87,2.76,10.17,6,10,1.05-.05,2.05-1.7,4-5,2.45-4.13,3.67-6.2,4-9,.36-3.03-.14-7.43-2-8-1.57-.48-2.47,2.24-6,3Z"/>
      <path class="cls-1" d="M103.02,180c-2.07-3.24-2.13-8.52,1-12,.24-.27,4.27-4.61,9-3,4.31,1.46,6.23,6.84,5,10-.44,1.12-.84.86-6,5-2.81,2.26-3.63,3.08-5,3-2.17-.13-3.62-2.41-4-3Z"/>
      <path class="cls-1" d="M90.02,186c2.29-.2,4.31,2.63,6,5,1.74,2.44,3.46,4.85,3,8-.67,4.57-5.34,6.71-6,7-.5.22-5.38,2.36-8,0-1.89-1.71-1.46-4.74-1-8,.15-1.08,1.73-11.63,6-12Z"/>
      <path class="cls-1" d="M110.02,198c1.25-1.77.7-2.19,2-5,1.07-2.31,1.99-4.29,4-5,.46-.16,1.87-.66,3,0,2.08,1.22.27,4.69,2,10,1.11,3.41,2.6,4.29,2,6-.84,2.39-4.57,2.94-5,3-3.85.57-6.71-1.9-8-3-.97-.84-2.04-1.78-2-3,.04-1.1.93-1.49,2-3Z"/>
      <path class="cls-1" d="M99.02,213c2.53-2.1,6.55-.8,9,0,2.11.69,8.01,2.6,9,7,.18.79.16,1.51-3,9-2.47,5.85-2.97,6.64-4,7-2.98,1.06-6.73-2.72-8-4-.66-.66-4.98-5.16-5-12,0-2.39-.02-5.32,2-7Z"/>
      <path class="cls-1" d="M130.02,220c-2.59.12-4.39,2.27-5,3-2.8,3.35-2.1,7.47-2,8,.73,3.94,3.68,6.05,5,7,.67.48,6.55,4.58,12,2,.84-.4,3.39-1.6,4-4,.65-2.56-1.56-5.07-6-10-5.38-5.96-7.29-6.03-8-6Z"/>
      <path class="cls-1" d="M79.02,228c1.2,1.02,2.97,2.17,5,2,2.28-.2,2.93-1.89,5-2,2.9-.16,5.22,2.96,6,4,.75,1.01,4.08,5.8,2,10-1.19,2.41-3.54,3.39-5,4-4.76,1.99-9.33.6-11,0-.84-2.65-1.65-6.03-2-10-.26-3.02-.2-5.72,0-8Z"/>
      <path class="cls-1" d="M108.02,247c-3.94,3.94-.32,12.29,0,13,2.9,6.47,9.87,11.58,13,10,.97-.49,1.4-1.54,2-3,1.43-3.5,0-5.01,1-8,1.2-3.56,3.94-3.51,4-6,.07-2.91-3.65-5.18-5-6-2.99-1.82-5.86-1.96-7-2-2.14-.08-5.79-.21-8,2Z"/>
      <path class="cls-1" d="M138.02,256c-1.41,1.69-2.96,3.55-3,6-.09,4.72,5.49,7.74,6,8,3.04,1.59,8.43,2.73,11,0,1.78-1.89,1.19-4.93,0-11-.86-4.42-1.64-8.39-4-9-1.15-.3-2.43.47-5,2-1.55.92-3.32,1.98-5,4Z"/>
      <path class="cls-1" d="M158.02,244c-2.11.59-3.97,2.76-4,5-.04,3.3,3.91,5.35,6,6,5.94,1.86,13.18-2.4,13-5-.06-.82-3.37-2.23-10-5-2.24-.94-3.49-1.42-5-1Z"/>
      <path class="cls-1" d="M182.02,254c-1.32,1.94.84,5.52,2,7,.68.87,3.09,3.96,7,4,3.53.03,7.61-2.43,8-6,.19-1.78-.55-3.8-2-5-.86-.71-1.83-1.02-7-1-7.16.02-7.74.62-8,1Z"/>
      <path class="cls-1" d="M204.02,247c.19.8,1.19,4.69,5,7,.58.35,4.63,2.72,9,1,.99-.39,4.45-1.75,5-5,.44-2.61-1.14-5.46-4-7-2.47,1.09-5.49,2.19-9,3-2.16.5-4.17.81-6,1Z"/>
      <path class="cls-1" d="M230.02,268c-2.65-1.24-4.03-5.57-3-9,1.36-4.51,6.38-5.85,7-6,1.3-.32,2.84-.43,15,5,4.67,2.08,6.61,3.07,7,5,.41,2.01-1.11,3.9-2,5-.24.3-3.87,4.68-8,4-3.45-.57-3.33-4-7-5-3.95-1.08-6.09,2.36-9,1Z"/>
      <path class="cls-1" d="M261.02,267c-1.88.47-1.25,2.95-5,7-2.66,2.88-4.04,2.78-5,5-1.05,2.43-.86,5.93,1,8,2.14,2.38,4.53.71,8,3,4.03,2.66,3.61,6.78,6,7,2.48.23,5.02-3.99,6-7,.27-.84,1.23-4.05,0-9-1.82-7.31-7.52-14.87-11-14Z"/>
      <path class="cls-1" d="M225.02,283c3.69-2.49,3.45-3.9,6-5,3.07-1.33,7.1-.87,10,1,5.16,3.33,6.14,10.74,4,16-.13.33-2.73,6.43-9,8-4,1-7.25-.39-11-2-3.2-1.37-5.55-2.38-7-5-1.45-2.62-1.79-6.46,0-9,1.48-2.1,3.02-1.31,7-4Z"/>
      <path class="cls-1" d="M214.02,282c2.57-.47,7.26-1.32,9-5,2.01-4.25-1.4-9.13-2-10-.74-1.06-3.08-4.41-7-5-3.26-.49-5.84,1.34-11,5-3.81,2.7-5.8,4.15-7,7-.86,2.04-1.9,6.18,0,8,1.44,1.38,3.24.16,10,0,4.98-.12,5.21.51,8,0Z"/>
      <path class="cls-1" d="M199.02,290c1.14-.39,1.53.03,5,0,3.08-.03,3.34-.36,4,0,2.22,1.21,1.97,6.45,1,10-.3,1.1-2.72,9.93-8,10-3.26.04-5.99-3.28-7-6-1.34-3.59.05-6.81,1-9,.83-1.94,1.84-4.26,4-5Z"/>
      <path class="cls-1" d="M210.02,311c3.76-2.69,9.68-1.36,12,2,.3.43,1.51,2.18,1,4-1.03,3.69-8.08,3.97-9,4-2.26.07-5.72.17-7-2-1.39-2.35.49-6.2,3-8Z"/>
      <path class="cls-1" d="M241.02,311c-4.6,1.83-6.22,6.67-7,9-.91,2.71-2.27,6.79,0,10,.16.23,2,2.75,5,3,4.47.38,7.75-4.59,10-8,2.01-3.05,3.8-5.76,3-9-.83-3.35-3.84-4.92-4-5-3.1-1.55-6.18-.33-7,0Z"/>
      <path class="cls-1" d="M192.02,334c1.96-2.21,3.27-1.66,6-4,2.59-2.23,2.33-3.51,4-4,2.37-.7,5.9,1.01,7,4,.78,2.12.18,4.47-1,6-.48.63-1.63,1.84-9,3-5.5.86-8.26,1.27-9,0-.8-1.36,1.04-3.92,2-5Z"/>
      <path class="cls-1" d="M183.02,322c1.81.33,2.95.54,4,0,3.14-1.6,3.63-8.84,1-14-.68-1.33-3.45-6.77-9-7-4.13-.17-8.17,2.61-10,7,.67,3,1.33,6,2,9,2.15.72,3.85,1.46,5,2,3.21,1.51,4.39,2.52,7,3Z"/>
      <path class="cls-1" d="M160.02,276c-.07,2.01-.19,5.4,2,8,1.68,1.99,3.13,1.64,11,4,6.2,1.86,7.04,2.6,9,2,4.18-1.27,5.78-6.28,6-7,.16-.53,1.49-5.17-1-9-1.21-1.86-2.1-1.64-5-4-5.24-4.27-4.88-7.07-8-8-3.97-1.19-8.12,2.27-9,3-4.76,3.95-4.96,9.82-5,11Z"/>
      <path class="cls-1" d="M137.02,277c3.2,2.54,2.11,9.06,0,13-1.63,3.05-5.68,7.91-10,7-3.72-.78-5.4-5.37-6-7-.6-1.63-2.08-5.66,0-9,1.55-2.49,4.22-3.23,7-4,3-.83,6.67-1.85,9,0Z"/>
      <path class="cls-1" d="M148.02,288c-3.68.57-6.59,6.76-6,12,.68,5.99,5.75,9.21,7,10,2.02,1.28,6.75,4.28,11,2,3.86-2.07,5.25-7.38,4-11-.49-1.43-2.33-2.97-6-6-8.04-6.64-8.75-7.19-10-7Z"/>
      <path class="cls-1" d="M126.02,308c3.29-2.02,7.65-2.03,11,0,3.1,1.88,5.55,5.63,5,9-.3,1.82-1.21,1.91-3,5-3.1,5.34-1.91,7.7-4,9-3,1.87-9.11-.73-12-5-1.91-2.82-1.99-5.73-2-7-.02-1.53-.09-7.88,5-11Z"/>
      <path class="cls-1" d="M146.02,323c-1.38,2.43.34,3.65,0,10-.2,3.77-.89,4.79,0,6,1.6,2.16,5.86,1.63,8,1,.5-.15,5.31-1.63,7-6,.43-1.12.24-1.34,0-8-.19-5.27-.11-6.2-1-7-1.64-1.48-4.6-.66-7,0-2.69.74-5.61,1.55-7,4Z"/>
      <path class="cls-1" d="M101.02,314c-1.39-1.35-.24-4.55,1-8,1.69-4.7,2.58-7.17,5-8,3.22-1.1,6.52,1.59,7,2,2.85,2.4,4.61,6.94,3,10-1.05,1.99-4.36,2.66-11,4-3.43.69-4.39.59-5,0Z"/>
      <path class="cls-1" d="M250.02,303c-.69,2.94,1.29,6.75,4,7,2.94.28,4.91-3.81,5-4,.23-.49,1.83-3.92,0-6-1.64-1.86-5.02-1.49-7,0-.37.28-1.59,1.27-2,3Z"/>
      <path class="cls-1" d="M260.02,315c-.3,1.62.13,3.41,1,7,1.05,4.35,1.58,6.53,3,7,1.77.59,3.22-1.77,9-5,1.64-.92,3.04-1.58,4-2,.33-4,.67-8,1-12-.85-1.32-2.46-3.29-5-4-5.48-1.54-12.01,3.73-13,9Z"/>
      <path class="cls-1" d="M250.02,338c.26-.43,2.63-4.24,6-4,2.88.21,4.6,3.23,5,4,1.76,3.38.62,6.93-1,12-1.16,3.62-2.19,6.86-4,7-1.61.13-2.99-2.26-4-4-1.15-1.98-5.42-9.35-2-15Z"/>
      <path class="cls-1" d="M234.02,352c-.15-2.22,1.09-4.24,3-5,1.76-.7,4-.31,5,1,.94,1.23.07,2.33,0,6-.08,4.26,1.02,6.24,0,7-.5.37-1.55.47-4-1-1.33-2.67-2.67-5.33-4-8Z"/>
      <path class="cls-1" d="M271.02,364c-1.08-1.58-2.72-3.99-5-4-2.58,0-4.34,3.08-6,6-1.58,2.78-3.15,5.54-2,8,.85,1.81,2.74,2.53,4,3,.47.18,5.75,2.09,9-1,1.47-1.4,1.83-3.15,2-4,.8-3.9-1.33-7.02-2-8Z"/>
      <path class="cls-1" d="M252.02,399c.69-2.22,2.13-3.45,4-5,2.88-2.39,5.71-4.74,9-4,.26.06,3.17.75,4,3,1.26,3.4-3.1,8.04-7,10-4.13,2.08-8.24,1.41-10,1-.28-1-.65-2.89,0-5Z"/>
      <path class="cls-1" d="M273.02,390c-1.19.89,1.32,3.84,0,8-.79,2.5-2.02,2.43-4,6-1.59,2.86-3.1,5.59-2,8,1.15,2.51,4.87,4.08,7,3,1.96-1,1.12-3.52,3-9,2.11-6.14,4.57-7.04,4-10-.8-4.16-6.55-7.08-8-6Z"/>
      <path class="cls-1" d="M249.02,417c.61-.52,2.41-1.93,5-2,2.52-.07,5.91,1.11,7,4,1.26,3.31-1.35,6.61-3,8-2.9,2.44-6.58,2.12-8,2-1.71-.15-3.08-.61-4-1,1-3.67,2-7.33,3-11Z"/>
      <path class="cls-1" d="M237.02,358c-2.57,1.33-3.57,2.84-4,4-.63,1.7.08,2.34,0,6-.08,3.74-.85,4.68,0,6,.88,1.36,2.56,1.7,4,2,3.39.69,6.33-.27,8-1-1.69-3.09-3.37-6.43-5-10-1.09-2.39-2.09-4.73-3-7Z"/>
      <path class="cls-1" d="M207.02,367c2.24-.72,4.69.11,6,2,1.23,1.78,1.24,4.17,0,6-1-1.33-2-2.67-3-4-1-1.33-2-2.67-3-4Z"/>
      <path class="cls-1" d="M215.02,383c.37-.09,3.06-.68,5,1,2.18,1.89,1.73,5.2,1,7-1.06,2.61-3.39,3.73-4,4-.33-2-.67-4-1-6-.33-2-.67-4-1-6Z"/>
      <path class="cls-1" d="M127.02,340c.33-.15,2.63-1.16,5,0,.27.13,2.81,1.43,3,4,.02.29.14,1.95-1,3-1.37,1.26-3.69.83-5,0-1.96-1.23-2.83-4.07-2-7Z"/>
      <path class="cls-1" d="M137.02,356c-.38.95-2,5.05,0,8,.61.89,2.08,1.61,5,3,3.3,1.58,4.98,2.36,6,2,2.31-.8,3.12-4.57,3-7-.24-5.03-4.6-7.76-5-8-.6-.36-4.38-2.64-7-1-1.08.68-1.49,1.73-2,3Z"/>
      <path class="cls-1" d="M146.02,381c-2.31,2.57-1.69,6.07-1,10,.48,2.71,1.31,7.44,4,8,1.45.3,3.26-.65,4-2,.93-1.69-.48-2.83,0-5,.7-3.2,4.28-3.14,5-6,.6-2.39-1.08-5.73-4-7-3.1-1.35-6.36.18-8,2Z"/>
      <path class="cls-1" d="M145.02,415c-2.16,1.81-1.34,6.49,1,9,1.4,1.5,3.86,2.78,5,2,.37-.26.59-.73,0-7-.26-2.73-.37-3.42-1-4-1.25-1.15-3.68-1.1-5,0Z"/>
      <path class="cls-1" d="M135.02,414c.9-.21,3.2-.88,5-3,.49-.57,3.02-3.55,2-7-.82-2.77-3.63-4.81-7-5v15Z"/>
      <path class="cls-1" d="M136.02,388c.59-.37,2.51-1.69,3-4,.63-2.97-1.34-6.42-5-8,.67,4,1.33,8,2,12Z"/>
      <path class="cls-1" d="M115.02,378c-2.49-.16-4.39,3.8-5,6-.15.54-1.43,5.39,1,7,1.52,1.01,3.59.17,4,0,2.48-1.01,3.85-3.67,4-6,.2-3.1-1.65-6.85-4-7Z"/>
      <path class="cls-1" d="M107.02,378c2.67-.44,3.89-4.46,4-7,.12-2.69-.85-7.24-4-8-1.82-.44-4.23.41-5,2-.87,1.8,1.08,3,1,7-.04,2.12-.62,2.85,0,4,.71,1.34,2.5,2.25,4,2Z"/>
      <path class="cls-1" d="M97.02,380c1.26.49,3.12,1.38,5,3,2,1.73,4.01,3.46,4,6-.02,2.98-2.79,4.87-3,5-2.18,1.43-4.46,1.09-5,1-.33-5-.67-10-1-15Z"/>
      <path class="cls-1" d="M95.02,348c.55.11,3.69.67,5-1,.61-.78.52-1.64,0-5-1.06-6.87-1.3-7.48-2-8-1.87-1.39-4.76-.48-6,0,1,4.67,2,9.33,3,14Z"/>
      <path class="cls-1" d="M82.02,308c.84.18,2.47.66,4,2,.36.32,3.23,2.93,3,7-.15,2.55-1.44,4.32-2,5-.62-1.96-1.28-3.96-2-6-.97-2.78-1.98-5.45-3-8Z"/>
      <path class="cls-4" d="M81.02,294c.4.32,1.56,1.15,3,1,2-.21,3.79-2.25,4-5"/>
      <path class="cls-4" d="M81.02,475c.17-1.51.47-3.2,1-5,1.48-5.03,4.04-8.7,6-11"/>
      <path class="cls-4" d="M132.02,493c-.29-1.98-.48-4.75,0-8,.59-3.98,1.95-7.05,3-9"/>
      <path class="cls-4" d="M201.02,469c-.31-1.51-.62-4.02,0-7,.83-4.04,2.91-6.76,4-8"/>
      <path class="cls-4" d="M239.02,487c-.24-1.57-.55-5.04,1-9,1.45-3.71,3.79-5.98,5-7"/>
      <path class="cls-3" d="M95.02,39c-3.49.05-8.28.73-12,4-4.34,3.82-5.04,9.25-7,9-1.96-.25-2.83-5.91-3-7-.37-2.43-.22-4.52,0-6-1.48,1.24-3.68,3.24-6,6-3.57,4.25-4.9,7.29-6,7-.68-.18-1.36-1.65-1-8-3.62,4.03-4.64,4.22-5,4-.72-.45.18-3.27,1-5,1.17-2.46,2.84-4.07,4-5-.73-.4-1.74-.83-3-1-3.55-.48-6.28,1.45-7,2,1.14-2.52,3.98-7.87,10-12,1.9-1.3,8.64-5.6,18-5,4.96.32,8.78,1.88,11,3-1.67-2.67-3.33-5.33-5-8,1.91.52,6.9,2.17,11,7,3.72,4.38,4.7,9.01,5,11-1.67,1.33-3.33,2.67-5,4Z"/>
      <circle class="cls-2" cx="35.75" cy="81.18" r="17.55"/>
      <circle class="cls-8" cx="35.39" cy="80.65" r="13.51"/>
      <circle cx="35.5" cy="81.64" r="8.19"/>
      <circle class="cls-2" cx="27.73" cy="72.6" r="5.53"/>
      <circle class="cls-2" cx="78.22" cy="89.27" r="20.16"/>
      <circle class="cls-8" cx="77.8" cy="88.66" r="15.52"/>
      <circle cx="77.93" cy="89.8" r="9.41"/>
      <circle class="cls-2" cx="69" cy="79.41" r="6.35"/>
    </g>
  </g>
</svg>