<?xml version="1.0" encoding="UTF-8"?>
<svg id="Layer_2" data-name="Layer 2" xmlns="http://www.w3.org/2000/svg" viewBox="0 0 71.69 51.38">
  <defs>
    <style>
      .cls-1 {
        fill: none;
      }

      .cls-1, .cls-2, .cls-3, .cls-4, .cls-5 {
        stroke: #000;
        stroke-miterlimit: 10;
      }

      .cls-2 {
        fill: #88a23c;
      }

      .cls-6, .cls-3 {
        fill: #fff;
      }

      .cls-4 {
        fill: #aed136;
      }

      .cls-7 {
        fill: #333;
      }

      .cls-5 {
        fill: #9dcb3b;
      }
    </style>
  </defs>
  <g id="Layer_1-2" data-name="Layer 1">
    <g>
      <path class="cls-2" d="M41.69,14.88l3,30c.71-.4,2.14-1.05,4-1,3.48.09,5.63,2.57,6,3h-13c-1-9.33-2-18.67-3-28,1-1.33,2-2.67,3-4Z"/>
      <path class="cls-2" d="M25.69,22.88c1.37.62,3.42,1.43,6,2,2.38.53,9.69,2.14,17-1,5.42-2.33,8.24-6.16,10-5,1.03.68,1.01,2.62,1,3-.06,1.76-1.11,3.07-2,4-4.46,4.68-11,7-11,7-4.9,1.74-9.41,3.34-15,2-3.76-.9-6.46-2.75-8-4,.66-.93,1.68-2.64,2-5,.16-1.17.11-2.2,0-3Z"/>
      <path class="cls-4" d="M57.69,25.88c-.78,1.99-2.26,5.02-5,8-1.3,1.41-4.88,5.2-11,7-1.79.53-8.66,2.31-16-1-2.78-1.25-4.76-2.85-6-4,.62-.52,1.31-1.18,2-2,.91-1.08,1.55-2.13,2-3,1.26,1.18,3.6,3.05,7,4,3.27.91,5.85.5,9,0,3.11-.49,7.97-1.72,13-5,2.23-1.46,3.89-2.93,5-4Z"/>
      <path class="cls-4" d="M14.69,27.88c.07,1.1.47,1.91,1,3,1.22,2.5,2.9,4.11,4,5,2-1.88,3.25-3.71,4-5,1.27-2.17,3.34-5.71,2-8-.4-.69-1.24-1.47-2-2-.28-.2-1.2-.83-2-1-2.78-.58-7.28,3.89-7,8Z"/>
      <path class="cls-4" d="M6.69,28.88c1.4.28,5.47,1.03,10-1,2.28-1.02,4.86-2.17,6-5,1.19-2.95.42-6.69-2-9-2.98-2.84-7.04-2.16-8-2-4.18.7-6.54,3.79-9,7C1.69,21.5-.11,23.85.69,25.88c.77,1.96,3.53,2.51,6,3Z"/>
      <path class="cls-5" d="M40.69,30.88c1.46.12,2.61-1.32,4-3,0,0,1.64-1.98,7-8,4-4.5,5.95-5.49,7-9,.26-.86.96-3.24,0-4-1.32-1.05-5.01,1.58-7,3-1.32.94-4.09,3.05-9,9-5.11,6.2-5.31,7.8-5,9,.37,1.44,1.63,2.89,3,3Z"/>
      <path class="cls-5" d="M26.69,22.88c1.59-2.16,3-3.85,4-5,4.48-5.14,6.85-6.44,8-7,.6-.29,4.16-2.01,5-1,.69.83-.79,3.12-2,5-.88,1.36-2.11,3.02-6,7-1.24,1.27-2.28,2.3-3,3-1.09-.11-2.48-.38-4-1-.76-.31-1.43-.66-2-1Z"/>
      <path class="cls-2" d="M54.69,16.88l3,33h13c-.49-.65-1.76-2.18-4-3-2.83-1.04-5.3-.25-6,0-1.33-10.67-2.67-21.33-4-32-.67.67-1.33,1.33-2,2Z"/>
      <path class="cls-2" d="M7.69,48.88c.14-.31,1.6-3.35,5-4,2.56-.49,4.54.71,5,1,.67-3.33,1.33-6.67,2-10,1,.67,2,1.33,3,2-.67,4-1.33,8-2,12-4.33-.33-8.67-.67-13-1Z"/>
      <path class="cls-2" d="M31.69,27.88c-1.33,7.67-2.67,15.33-4,23h-14c.4-.65,1.92-2.96,5-4,2.83-.96,5.24-.26,6,0,1.33-6.67,2.67-13.33,4-20,1,.33,2,.67,3,1Z"/>
      <path class="cls-2" d="M17.69,11.88c.32-.97.71-2.33,1-4,.45-2.61.67-3.94,0-5-.78-1.25-2.27-1.59-4-2-1.07-.25-3.71-.71-4,0-.27.67,1.59,2.18,3,3,1.15.67,1.52.59,2,1,.85.74,1.39,2.51,0,7h2Z"/>
      <path class="cls-2" d="M12.69,11.88c-.01-1.39-.23-3.14-1-5-.57-1.38-.97-2.36-2-3-1.72-1.08-3.83-.38-5,0-1.2.39-3.12,1.3-3,2,.12.72,2.39.94,3,1,1.72.17,2.21-.21,3,0,.95.25,2.15,1.28,3,5h2Z"/>
      <path class="cls-1" d="M2.69,27.88c.52.14,1.65.37,3,0,1.71-.47,2.68-1.59,3-2"/>
      <path class="cls-1" d="M23.69,38.88c.5-.14,1.25-.42,2-1,.44-.34.76-.7,1-1"/>
      <path class="cls-1" d="M29.69,40.88c.49-.31,1.32-.93,2-2,.78-1.23.95-2.41,1-3"/>
      <path class="cls-1" d="M37.69,41.88c.61-.68,1.36-1.67,2-3,.55-1.14.84-2.19,1-3"/>
      <path class="cls-1" d="M46.69,38.88c.25-.34,1-1.42,1-3,0-.42-.05-1.74-1-3"/>
      <circle class="cls-3" cx="14.07" cy="17.69" r="4.91"/>
      <circle class="cls-7" cx="13.97" cy="17.54" r="3.78"/>
      <circle cx="14" cy="17.82" r="2.29"/>
      <circle class="cls-6" cx="11.82" cy="15.29" r="1.55"/>
    </g>
  </g>
</svg>