<?xml version="1.0" encoding="UTF-8"?>
<svg id="Layer_2" data-name="Layer 2" xmlns="http://www.w3.org/2000/svg" viewBox="0 0 194.03 157.05">
  <defs>
    <style>
      .cls-1 {
        fill: #fff;
      }

      .cls-2 {
        fill: none;
      }

      .cls-3 {
        fill: #333;
      }
    </style>
  </defs>
  <g id="Layer_1-2" data-name="Layer 1">
    <g>
      <path class="cls-1" d="M103.03,107c-.33,2.73,1.71,6.91,3,9,.6.96,1.35,2,1,3-.34.99-1.57,1.43-4,2-6.08,1.43-7.13.72-9,2-2.5,1.71-3.78,5.15-3,6,.38.41,1.25.24,2,0-.16.54-.16.88,0,1,.26.2.92-.14,2-1,.39,2.46.74,2.99,1,3,.53.01.55-2.16,2-3,.96-.55,2.02-.23,3,0,4.47,1.03,8.42.3,10,0,2.51-.47,3.95-.74,5-2,1-1.2,1.16-2.72,1-6-.21-4.39-.73-6.7-1-9-.9-7.79,1.72-10.54,0-12-2.7-2.3-12.37,1.81-13,7Z"/>
      <path class="cls-1" d="M52.03,109c-.33,1.95-1.51,4.18-3,7-2.11,4.01-4.37,7.02-6,9,.21-1.62.12-1.97,0-2-.47-.13-2.64,4.69-4,10-1.33,5.2-.94,7.16-3,9-.34.31-2.43,2.17-5,2-1.05-.07-3.31-.55-5-1-.7-.18-1.49-.41-2,0-.64.52-.3,1.63-1,2-.39.21-.85.05-1,0-.71-.24-.97-.91-1-1-.57,1.01-1.58,1.29-2,1-.39-.26-.5-1.15,0-2-.5.14-1.73.44-2,0-.18-.3.2-.78,1-2,1.62-2.48,1.45-2.68,2-3,1.07-.63,1.76.09,4,0,.33-.01,2.52-.12,4-1,2.13-1.27,2.67-4.05,3-6,.85-4.99,2.79-18.72,1-19-.37-.06-.98.46-2,3,.15-1.59.28-4.04,0-7-.4-4.25-1.31-6.05-2-10-.96-5.52-1.68-9.7,0-11,4.32-3.35,25.84,11.29,24,22Z"/>
      <path class="cls-1" d="M25.03,74c-.53,3.65.62,6.98,2,11,1.8,5.24,4.78,10.37,6,10,.65-.2.37-1.83,1-2,1.15-.31,2.81,4.99,6,9,3.93,4.94,9.39,7.64,10,7,.21-.22-.22-.77,0-1,.65-.69,5.4,2.94,7,4,4.58,3.04,11.45,2.07,25,0,17-2.59,22.89-5.93,26-8,1.74-1.16,3.09-2.24,4-3,1.33,5.97,3.4,10.24,5,13,1.2,2.06,6.65,11.03,9,18,.24.71.68,2.12,0,3-.85,1.1-2.95.63-8,1-.6.04-1.85.15-3,1-.48.35-.8.73-1,1-.55.31-1.44.92-2,2-.82,1.59-.7,3.7,0,4,.31.13.54-.17,1,0,.57.21.58.81,1,1,.3.13.86.07,2-1-.3.94-.35,1.79,0,2,.46.29,1.57-.6,2-1,.57-.53.57-.77,1-1,.7-.37,1.46-.13,2,0,1.1.26,2.07.23,4,0,1.15-.14,1.2-.37,5-2,2.81-1.21,4.21-1.81,5-2,1.69-.41,2.44-.33,3-1,1.01-1.22.2-3.44,0-4-1.87-5.36-.48-11.35-1-17-.46-4.99.27-13.01,6-26,1.31.88,3.29,2.46,5,5,2.15,3.2,2.78,6.32,3,8,.27-1.46.64-3.02,1-3,.62.03.88,4.84,1,7,.15,2.73.24,6.48,0,11,.82-2.01,1.74-4.08,2-4,.4.13-.92,5.38-2,9-1.16,3.87-2.99,9.05-6,15,1.34-.4,1.82-.23,2,0,.76.97-3.07,3.83-4,9-.31,1.75-.52,2.89,0,4,2.07,4.42,13.66,4.12,22,1,5.58-2.09,9.21-6.74,10-6,.4.38-.28,1.77-1,3,2.09-1.71,4.76-4.3,7-8,4.42-7.31,4.81-15.1,6-15,.31.03.69.6,1,3,1.08-2.32,2.4-5.74,3-10,1.42-10.05-1.93-18.71-1-19,.24-.07.76.42,2,3-1.83-7-4.65-11.82-7-15-4.37-5.92-10.71-11.08-10-12,.31-.4,1.61.44,2,0,1.01-1.16-6.18-9.03-8-11-9.54-10.36-16.6-16.2-16-17,.15-.19.78-.15,3,1-3.89-5.85-13.85-18.93-31-24-8.72-2.57-16.45-2.24-21-2-11.77.61-20.23,3.9-28,7-7.22,2.88-19.25,11.63-43,29-3.78,2.77-9.1,6.77-10,13Z"/>
      <path class="cls-1" d="M56.03,92c-.04,3.73.19,8.13,1,13,1.15,6.9,3.12,12.63,5,17,.98-3.3,1.6-4.04,2-4,.94.09.46,4.48,2,11,1.2,5.08,2.33,5.99,3,11,.4,3.02.86,6.72-1,8-1.24.85-2.45-.11-5,1-.82.36-.74.48-3,2-3,2.03-4.09,2.46-4,3,.06.32.55.77,3,1-.16.54-.16.88,0,1,.26.2.92-.14,2-1,.38.79.74.97,1,1,.9.09,1.38-1.68,3-2,.38-.07.66-.04,1,0,3.05.38,5.48.98,7,1,.59,0,3.93,0,6-2,2.05-1.98,1.95-5.02,2-7,.14-5.5,2.72-10.65,4-16,2.21-9.21,7.01-26.33,9-26,.43.07.91,1,1,5,.36-1.82.82-4.59,1-8,.37-7.01-.71-11.82,0-12,.34-.08,1.09.88,3,6-.24-2.88-.31-6.26,0-10,.21-2.56.57-4.9,1-7"/>
      <path class="cls-1" d="M29.03,76c1.46-.11,3.54-.45,7-2,5.92-2.65,6.2-4.51,11-6,3.04-.95,5.48-.99,6-1,2.85-.03,2.93.6,7,1,4.17.41,5.54-.11,8,1,1.39.62,2.39,1.43,3,2,1.02-2.1,1.68-3.1,2-3,.29.09.29,1.09,0,3,.64-.4,1.43-1.02,2-2,.63-1.08.62-1.97,1-2,.42-.04,1.02,1.01,1,2-.02,1.11-.82,1.84-1,2,1.33-.84,3.14-2.13,5-4,1.72-1.73,3.73-3.75,5-7,1.2-3.07,1.22-5.95,1-8,.67,1,1.33,2,2,3,.44-2.09.81-5.29,0-9-1.84-8.39-8.31-12.9-10-14h3c-.96-1.11-2.58-2.72-5-4-3.3-1.75-6.38-1.99-8-2,1.27-.5,3.13-1.39,5-3,2.1-1.8,3.33-3.73,4-5l-2,1c.55-1.56,1.2-4.02,1-7C76.65,6.36,73.29-.04,70.03,0c-1.75.02-2.01,1.89-6,6-3.92,4.04-6.44,6.64-10,7-2.66.27-5.11-.82-10-3-1.71-.76-3.08-1.49-4-2,1.94,1.97,2.19,2.71,2,3-.25.37-1.25.01-5-1-3.54-.96-4.63-1.18-6-1-1.32.17-2.35.64-3,1-1.38-.25-3.5-.45-6,0-3.35.6-5.74,2.08-7,3-1.95-1.9-3.74-2.66-5-3-1.78-.48-2.64-.16-4-1-1.97-1.21-1.97-2.96-3-3-1.26-.05-2.73,2.52-3,5-.2,1.78.54,3.52,2,7,1.43,3.39,2.2,5.18,4,7,1.2,1.21,1.58,1.15,2,2,1.21,2.46-.65,5.67-2,8-.88,1.52-2.42,3.76-5,6,.69-.22,1.64-.43,2,0,.57.68-1.01,2.26-2,5-.32.89-1.71,5.02,0,9,.61,1.41,1.43,2.4,2,3,1.79,2.97,3.66,4.85,5,6,1.33,1.13,3.12,2.38,4,3,1.7,1.19,2.26,1.48,3,2,1.43,1.02,3.31,2.78,5,6v-3c.47.78,1.4,2.07,3,3,2.16,1.25,4.31,1.12,6,1Z"/>
      <path class="cls-2" d="M69.03,26c1.2.26,3.65.97,6,3,2.57,2.23,3.61,4.83,4,6-1.67-.67-3.33-1.33-5-2,1.64,1.22,4.18,3.46,6,7,3.66,7.12,1.73,14.28,1,17-.62,2.32-1.95,6.06-5,10"/>
      <path class="cls-2" d="M73.03,68c.39-2.05.63-4.83,0-8-1.8-9.09-9.25-13.93-11-15h2c-3.46-3.63-6.66-6.25-9-8-5.69-4.26-9.08-6.73-13-6-2.88.54-4.88,2.58-6,4-.08-.61-.31-1.78-1-2-.98-.31-2.49,1.39-3,3-.75,2.37.7,4.56,1,5-2,4.67-4,9.33-6,14,.55-3.54,1.08-9.19,0-15-.53-2.82-1.23-4.58-2-6-1.29-2.38-2.88-4.01-4-5-.02.51-.03,1.19,0,2,.07,2.04.32,2.82,0,3-.47.26-1.3-1.3-3-2-1.49-.61-3.01-.31-4,0,.21-.03,1.8-.19,3,1,.71.7,1.45,2.03,1,3-.54,1.17-2.25.55-4,2-1.17.97-.9,1.65-2,3-1.48,1.81-2.83,1.65-5,3-.98.61-3.93,2.65-5,6-1.14,3.58.42,6.91,1,8"/>
      <path class="cls-2" d="M27.03,39c-.17,1.11-.47,2.87-1,5-1.26,5.08-2.22,5.84-3,10-.53,2.83-.27,3.43-1,6-.62,2.18-1.41,3.88-2,5"/>
      <path class="cls-3" d="M20.03,65c-1.21,1.33-1.04,3.47-1,4,.02.3.14,1.57,1,3,1.99,3.32,6.31,4.81,7,4,.39-.46-.49-1.49,0-2,.45-.47,1.36.24,3,0,.27-.04,1.82-.27,2-1,.17-.71-1.11-1.17-1-2,.11-.84,1.46-.81,2-2,.43-.94.03-1.94,0-2-.44-1.04-1.65-1.53-4-2-5.07-1.02-7.6-1.53-9,0Z"/>
      <path class="cls-2" d="M33.03,41c-.17.93-.31,2.35,0,4,.49,2.63,1.86,4.5,3,6,2.25,2.98,3.51,3.15,4,5,.5,1.9-.28,3.75-1,5"/>
      <path class="cls-3" d="M33.03,45c.2-1.99,1.57-3.52,2-4,1.29-1.44,2.11-1.25,4-3,1.77-1.64,2.64-3.19,3-3,.38.2-.67,1.87,0,3,.65,1.1,2.46.88,5,1,3.5.16,8.33.39,10,3,.9,1.4,0,2.11,1,4,1.21,2.27,3.24,2.65,5,4,1.62,1.25,3.47,3.69,4,9-1.25-1.05-1.77-1.16-2-1-.57.39.77,2.26,0,4-.54,1.22-1.9,2.19-3,2-.99-.17-1.16-1.16-2-2-2.18-2.17-5.29.24-10-1-1.81-.48-3.54-1.65-7-4-1.4-.95-2.59-1.76-4-3-3.02-2.66-6.34-5.58-6-9Z"/>
      <path class="cls-3" d="M26.03,43c-.05-.95-.25-2.41-1-4-.84-1.77-2.68-4.33-4-4-.93.24-.55,1.64-2,3-1.42,1.33-2.49.63-4,2-1.19,1.08-.83,1.78-2,3-1.35,1.4-2.36,1.01-4,2-2.87,1.73-4.4,5.7-4,9,.15,1.21.26,2.17,1,3,1.89,2.13,5.46.78,7,3,.66.95.53,1.95,1,2,.63.06.96-1.75,2-3,.99-1.19,2.92-2.23,7-2-.08-.69-.16-1.74,0-3,.3-2.42,1.2-3.63,2-6,.38-1.13.83-2.81,1-5Z"/>
      <path class="cls-3" d="M65.03,25c-2.98-5.14-2.76-8.17-2-10,.75-1.8,1.89-2.09,3-5,.84-2.19.72-3.42,2-5,.52-.65,1.68-2.08,3-2,2.09.13,3.67,4.06,4,7,.66,5.82-3.3,10.24-4,11-2.18,2.36-4.62,3.48-6,4Z"/>
      <path class="cls-2" d="M1.03,15c1.32,1.05,3.39,2.98,5,6,1.24,2.34,1.76,4.5,2,6"/>
      <path class="cls-2" d="M53.03,67v9c-.62-.21-.88-.12-1,0-.55.56,1.21,2.53,2,6,.11.48.62,2.7,0,3-.56.27-1.57-1.24-2-1-.51.29.27,2.76,1,5,.77,2.39,1.36,3.77,1,4-.4.26-1.54-1.27-2-1-.48.29.03,2.38,1,4,.95,1.59,2.22,2.52,3,3"/>
      <path class="cls-2" d="M26.03,76c.99,1.57,2.3,3.3,4,5,5.35,5.33,11.58,7.25,15,8v-3c.52.32,2,1.15,4,1,1.43-.11,2.48-.67,3-1"/>
      <path class="cls-2" d="M19.03,143c.14-.52.41-1.27,1-2,1.42-1.75,3.52-1.96,4-2"/>
      <path class="cls-2" d="M21.03,144c.05-.34.24-1.24,1-2,1.19-1.18,2.78-1.03,3-1"/>
      <path class="cls-2" d="M59.03,155c.11-.44.55-1.92,2-3,1.73-1.29,3.62-1.05,4-1"/>
      <path class="cls-2" d="M61.03,155c.29-.33.62-.66,1-1,1.05-.94,2.11-1.57,3-2"/>
      <path class="cls-2" d="M93.03,129c.15-.54.63-1.94,2-3,2.13-1.65,4.65-1.08,5-1"/>
      <path class="cls-2" d="M95.03,129c.33-.52.96-1.34,2-2,1.68-1.06,3.36-1.04,4-1"/>
      <path class="cls-2" d="M114.03,138c.32-.27,1-.78,2-1,.87-.19,1.6-.09,2,0"/>
      <path class="cls-2" d="M113.03,144c.01-.55.11-1.83,1-3,1.73-2.29,4.8-2.02,5-2"/>
      <path class="cls-2" d="M116.03,144c.08-.43.29-1.28,1-2,1.53-1.57,3.85-1.04,4-1"/>
      <path class="cls-2" d="M143.03,92c.48-.7,1.19-1.73,2-3,2.03-3.17,4.48-7.01,6-11,.99-2.61,2.23-6.98,2-13"/>
      <path class="cls-3" d="M162.03,58c3.04,5.78,3.47,7.66,3,8-.55.39-2.14-1.49-3-1-1.47.83,1.12,7.5,0,8-.55.25-1.41-1.24-2-1-1.23.5.77,7.75,0,8-.44.14-1.22-2.13-2-2-1.2.19-1.12,5.95-2,6-.38.02-.57-1.02-1-1-.8.04-.79,3.75-2,4-.78.16-1.43-1.22-2-1-.81.32.16,3.29-1,4-.61.37-1.19-.24-2,0-.76.23-1.57,1.16-2,4-1-.67-2-1.33-3-2,1.94-2.58,4.1-5.91,6-10,1.34-2.89,2.3-5.6,3-8,.98.33,1.64.33,2,0,1.03-.96-.99-4.21,0-5,.56-.45,1.46.41,2,0,1.22-.92-1.79-6.53-1-7,.43-.26,1.55,1.26,2,1,.84-.48-2.04-6.33-1-7,.65-.42,2.41,1.48,3,1,.47-.37-.3-1.81,0-2,.21-.13.91.37,3,3Z"/>
      <path class="cls-3" d="M173.03,70c.44,2.34.71,4.71,0,5-.82.33-2.37-2.31-3-2-1,.49,1.72,7.69,1,8-.51.22-2.15-3.27-3-3-1.18.37.37,7.57-1,8-.65.2-1.52-1.26-2-1-.7.37.63,3.68,0,4-.57.29-1.96-2.29-3-2-1.27.36-.76,4.71-2,5-.72.17-1.27-1.19-2-1-1.07.28-.57,3.4-2,4-.77.32-1.34-.4-2,0-1.02.62-.45,2.84-1,3-.56.16-1.34-2.09-2-2-.42.06-.86,1.08-1,5,.33,1.33.67,2.67,1,4,.38-2.01.71-3.01,1-3,.44.02.77,2.35,1,7,.55-.97,1.48-2.22,3-3,1.06-.54,1.56-.43,2-1,1.16-1.5-.92-4.12,0-5,.82-.78,2.85.91,4,0,.93-.74.1-2.24,1-3,1.24-1.04,3.75,1.05,5,0,.94-.79.13-2.49,1-3,1.08-.63,2.96,1.63,4,1,.89-.54.16-2.59,1-3,.85-.42,2.14,1.42,3,1,.84-.41.11-2.44,1-3,1.09-.67,3.37,1.58,4,1,.41-.38-.4-1.46,0-2,.35-.47,1.59-.47,5,1-1.03-1.38-2.71-3.53-5-6-2.68-2.88-5.43-5.38-5-6,.28-.41,1.66.4,2,0,.42-.5-.91-2.6-6-8Z"/>
      <path class="cls-3" d="M155.03,118c.44-.9,1.12-1.97,2-2,.94-.03,1.38,1.15,2,1,1.1-.26.34-4.13,2-5,1-.52,1.86.59,3,0,1.32-.68.86-2.51,2-3,1.31-.56,2.65,1.54,4,1,1.25-.51.88-2.64,2-3,1.38-.44,3.01,2.45,4,2,.99-.45.15-3.7,1-4,.79-.28,2.09,2.31,3,2,.68-.23.42-1.83,1-2,1.02-.31,2.92,4.3,4,4,.64-.18.47-1.91,1-2,.84-.14,1.93,4.13,3,4,.5-.06.65-1.05,1-1,.44.06.26,1.59,1,3,.54,1.03,1.4,1.65,2,2,.22,1.9.32,4.28,0,7-.51,4.33-1.87,7.75-3,10-.45-3.28-.77-4-1-4-.5.01-.27,3.65-2,8-1.43,3.61-3.61,6.2-4,6-.52-.26,1.84-5.55,1-6-.46-.25-1.38,1.24-2,1-1.28-.51.55-7.86,0-8-.36-.09-1.27,3.1-2,3-.95-.13-.58-5.71-2-6-.67-.14-1.05,1.05-2,1-1.5-.08-2.2-3.15-3-3-.61.12-.58,1.97-1,2-.62.05-1.03-3.93-2-4-.97-.07-1.45,3.87-3,4-1.19.1-1.77-2.13-3-2-1.34.14-1.57,2.89-3,3-.8.06-.88-.78-2-1-1.56-.3-2.34,1.16-4,1-.69-.07-1.36-.4-2-1,.67-2.67,1.33-5.33,2-8Z"/>
      <path class="cls-3" d="M149.03,140c.6-.21,1.38-.36,2,0,.62.36.66.99,1,1,.7.02.75-2.6,2-3,.99-.32,1.61,1.12,3,1,1.56-.13,1.84-2.03,3-2,1.67.04,2.31,4.02,4,4,.93-.01,1.41-1.22,2-1,.81.3.25,2.7,1,3,.81.33,2-2.22,3-2,1.53.34,1.06,6.89,2,7,.66.08,1.22-3.06,2-3,.63.05,1.42,2.21,1,4-.74,3.12-5.04,4.49-10,6-5.35,1.63-10.53,3.13-16,1-1.59-.62-4.29-1.67-5-4-.56-1.85.37-3.71,2-7,1.07-2.15,2.17-3.84,3-5Z"/>
      <circle class="cls-1" cx="18.64" cy="45.1" r="6.59"/>
      <circle class="cls-3" cx="18.51" cy="44.9" r="5.07"/>
      <circle cx="18.55" cy="45.28" r="3.07"/>
      <circle class="cls-1" cx="15.63" cy="41.88" r="2.08"/>
      <circle class="cls-1" cx="40.95" cy="45.35" r="6.59"/>
      <circle class="cls-3" cx="40.81" cy="45.15" r="5.07"/>
      <circle cx="40.85" cy="45.53" r="3.07"/>
      <circle class="cls-1" cx="37.93" cy="42.13" r="2.08"/>
    </g>
  </g>
</svg>