<?xml version="1.0" encoding="UTF-8"?>
<svg id="Layer_2" data-name="Layer 2" xmlns="http://www.w3.org/2000/svg" viewBox="0 0 425.77 254.21">
  <defs>
    <style>
      .cls-1 {
        fill: #811717;
      }

      .cls-2 {
        fill: #906627;
      }

      .cls-3 {
        fill: #fff;
      }

      .cls-4 {
        fill: none;
      }

      .cls-5 {
        fill: #fbac2d;
      }

      .cls-6 {
        fill: #333;
      }

      .cls-7 {
        fill: #dfdcb6;
      }

      .cls-8 {
        fill: #de7226;
      }

      .cls-9 {
        fill: #fff6c4;
      }
    </style>
  </defs>
  <g id="Layer_1-2" data-name="Layer 1">
    <g>
      <path class="cls-5" d="M232.28,162.13c1.11,5.93,3.13,10.27,4,12,7.76,15.55,20,16.85,22,29,.58,3.54.14,7,0,8-1.22,9-5.74,10.94-5,16,.8,5.43,6.81,8.71,11,11,3.83,2.09,9.65,5.3,14,3,2.91-1.53,3.31-4.46,6-14,4.3-15.26,5.85-15.57,6-21,.17-6.08-1.28-10.63-3-16-3.09-9.69-6.08-11.56-8-21-.62-3.02-1.29-6.46-1-11,.56-8.69,3.98-10.9,3-14-3.01-9.51-42.62-12.1-49,2-2.12,4.69-.8,11.73,0,16Z"/>
      <path class="cls-5" d="M200.28,163.13c-3.24,23.12-4.38,28.21-5,34-1.27,11.78,1.17,11.85,0,32-.74,12.71-1.86,15.33-4,17-8.09,6.34-26.57-4.04-29-11-.3-.85-1.24-3.56,0-5,.86-.99,2.25-.79,3-1,1.96-.54,6.05-5.62,2-28-2.51-13.89-6.31-24.21-10-44-1.39-7.45-1.58-9.91,0-12,6.79-8.98,39.18-1.98,43,12,.54,1.99.35,3.54,0,6Z"/>
      <path class="cls-5" d="M301.28,53.13c3.87-.38,9.41-.65,16,0,6.72.67,17.53,1.74,27,8,1.72,1.14,9.4,6.41,16,20,9.48,19.52,6.51,35.14,12,76,.38,2.81,1.68,11.72,8,20,2.64,3.46,7.6,9.95,15,10,4.32.03,9.2-2.14,12-6,5.19-7.15.2-15.86,5-19,2.86-1.87,6.71-.13,7,0,6.09,2.85,6.02,12.91,6,15-.09,11.53-8.22,19.28-9,20-10.77,9.96-25.47,7.43-28,7-15.86-2.72-24.51-15.36-27-19-5.55-8.1-7.11-17.51-10-36-2.32-14.82-1.86-18.85-5-38-2.45-14.96-4.78-24.94-13-31-2.8-2.07-3.99-1.98-8-4-6.68-3.37-15.56-9.74-24-23Z"/>
      <path class="cls-5" d="M131.28,30.13c1.72.04,6.84,2.03,17,6,28.33,11.07,30.07,13.23,40,16,5.57,1.55,21.66,5.87,41,3,18.53-2.75,19.46-9.06,36-10,18.99-1.08,33.03,6.36,36,8,5.35,2.96,16.22,9.96,24,23,5.76,9.67,7.02,17.94,9,32,5.24,37.14-1.84,58.96,6,74,.89,1.71,3.58,6.42,4,13,.34,5.31-.92,10.04-2,14-1.64,6-2.6,6.32-4,11-3.58,11.98.52,17.25-3,20-4.44,3.46-13.98-2.56-21-7-3.19-2.02-6.18-4.38-6-7,.09-1.29.9-1.8,2-4,1.17-2.32,1.5-4.19,2-7,.41-2.33,2.51-14.09,0-23-2.94-10.45-10.86-12.21-26-26-5.27-4.8-12.45-12-20-22-9.78,8.5-18.96,12.76-25,15-19.79,7.33-38.26,4.92-53,3-10.39-1.36-8.45-2.09-21-4-28.75-4.38-35.82-.05-49-4-15.78-4.72-30.02-18.21-36-33-15.65-38.7,23.11-91.63,49-91Z"/>
      <path class="cls-9" d="M105.28,99.13c.73,4.22.73,6.05,2,9,.81,1.88,1.69,3.16,2.36,4.15,2.93,4.33,6.24,6.8,7.64,7.85,17.16,12.89,17.45,15.02,22,16,14.01,3.01,28.06-13.65,30-16,13.33,5.22,23.83,5.62,31,5,7.52-.65,11.73-2.45,26-5,8.89-1.59,16.22-2.49,21-3,1.26,3.09,2.89,6.47,5,10,4.52,7.55,9.69,13.11,14,17-13.65,11.87-26.46,16.2-34,18-13.65,3.26-25.41,1.91-42,0-16.94-1.95-15.41-3.74-30-5-21.6-1.87-25.27,2.02-39-2-13.58-3.98-22.12-11.34-25-14-9.64-8.9-13.3-18.16-14-20-2.63-6.9-5.43-14.26-2-21,4.78-9.38,19.21-12.76,23-9,.74.73,1.16,3.15,2,8Z"/>
      <path class="cls-8" d="M129.28,33.13c4.64.68,6.4,12.1,7,16,1.19,7.75,4.13,26.76-7,42-4.77,6.53-10.1,9.6-20,21-1.41,1.62-4.03,4.7-7,9-2.22,3.21-3.88,6-5,8,.48-2.97,1.52-7.33,4-12,4-7.52,8.88-10.41,13-15,8.6-9.58,9.68-21.83,10-25,1.74-17.52-8.9-25.5-3-37,1.67-3.25,5-7.44,8-7Z"/>
      <path class="cls-5" d="M34.28,105.13c.31,2.45,1.48,9.17,7,15,5.85,6.18,12.89,7.47,16,8,2.2.37,18.43,3.12,25-7,3.32-5.11,2.6-11.08,2-14,.95-.83,1.97-1.82,3-3,1.24-1.41,2.22-2.78,3-4-.33,2.33-.67,4.67-1,7,1.99-.8,5-2.28,8-5,3.22-2.92,5.03-6.02,6-8-.92,4.54-.54,5.76,0,6,1.65.74,6.61-6.87,8-9,2.35-3.6,3.97-6.78,5-9-.92,5.39-.55,6.8,0,7,1.07.39,3.71-3.38,5-7,1.14-3.2,1.16-6.1,1-8,2.31,3.66,3.97,5.33,5,5,1.65-.53,1.65-6.2,0-17,.59.53,1.95,1.6,4,2,1.42.28,2.43.48,3,0,2.06-1.7-2.81-10.88-5-15-2.29-4.32-4.46-7.72-6-10,2.34-1.91,5.85-5.16,9-10,3.12-4.79,7.75-11.9,5-17-1.98-3.67-6.87-4.6-9-5-4.76-.9-8.6.45-13,2-2.68.94-6.19,2.47-10,5-4.49-6.2-9.26-9.32-13-11-6.92-3.11-9.71-1.06-29-2-11.17-.55-13.53-1.4-19,0-6.78,1.73-11.79,5.25-15,8-2.85-.54-7.18-1.62-12-4C11.13,2.09,9.11-.63,6.28.13,1.54,1.41.41,10.9.28,12.13c-1.01,9.38,3.9,16.81,6,20,2.44,3.7,5.08,6.33,7,8-1.97,2.3-4.94,6.02-8,11-1.12,1.82-6.57,10.68-5,12,1.15.97,5.4-2.69,6-2,.68.78-5.08,4.91-6,11-.56,3.73.88,7.01,2,9,.67-1.67,1.33-3.33,2-5,.3,2.75,1.04,6.68,3,11,1.57,3.46,3.44,6.12,5,8,.67-2,1.33-4,2-6,.59,1.77,1.94,5.03,5,8,2.2,2.14,4.46,3.34,6,4,.33-1.67.67-3.33,1-5,1.14.63,2.58,1.58,4,3,2.2,2.19,3.38,4.49,4,6Z"/>
      <path class="cls-9" d="M165.28,229.13c.78,1.45,6.08,10.96,17,13,5.25.98,9.64-.17,12-1-1.08,2.35-3.16,5.87-7,8-3.62,2.01-4.58.44-18,1-5.07.21-9.29.62-15-1-1.28-.36-2.31-.73-3-1-1.07.31-2.54.53-4,0-4.65-1.7-7.06-10.22-4-16,1.5-2.83,4.83-6.01,9-6,1.74,0,3.14.56,4,1,1.6.28,3.27.61,5,1,1.39.32,2.72.65,4,1Z"/>
      <path class="cls-5" d="M117.28,120.13c-.41,4.83-.74,12.15,0,21,1.04,12.48,3.18,15.45,4,27,1.03,14.51-2.15,12.41-1,26,1.16,13.67,4.88,21.63,0,29-1.33,2.01-2.91,3.39-3,6-.09,2.61,1.36,5.13,9,12,6.78,6.1,10.18,9.14,12,9,4.1-.32,8.01-6.18,14-29,5.56-21.18,3.81-22.31,9-45,3.93-17.2,7.37-27.2,8-45,.16-4.6.09-8.41,0-11"/>
      <path class="cls-9" d="M253.28,223.13c3.27,3.15,7.25,6.59,12,10,4.63,3.32,9.05,5.94,13,8-.25,1.09-.77,2.64-2,4-2.09,2.3-4.58,2.22-13,3-8.9.82-11.2,1.37-15,0-1.78-.64-3.14-1.43-4-2-2.3,2.34-5.51,3.12-8,2-1.77-.8-2.66-2.32-3-3-1.11.37-2.63.65-4,0-3.68-1.74-3.11-8.69-3-10,.49-5.98,4.08-12.57,8-13,.61-.07.89.05,4,0,2.27-.04,2.88-.11,4,0,.98.1,2.36.35,4,1h7Z"/>
      <path class="cls-7" d="M243.86,246.4c-4.69-7.23-3.42-17.11,2.42-23.27-5.45,6.21-6.42,15.92-1.58,22.73,0,0-.84.54-.84.54h0Z"/>
      <path class="cls-7" d="M232.84,245.36c-4.17-7.88-1.69-18.04,5.44-23.23-6.76,5.31-8.89,15.34-4.56,22.77,0,0-.88.47-.88.47h0Z"/>
      <path class="cls-9" d="M335.28,240.13c.14,4.66-5.7,7.84-6,8-2.96,1.57-3.12.09-13,1-3.54.33-6.4.78-9-1-.97-.67-1.61-1.45-2-2-.15.2-1.55,2-4,2-.25,0-2.53-.04-4-2-.9.16-2.31.31-4,0,0,0-1.67-.3-3-1-3.78-1.98-6.09-11.5-2-18,.67-1.06,2.44-3.79,6-5,3.18-1.08,5.97-.33,7,0,.72-.19,4.08-.97,7,1,.93.63,1.57,1.38,2,2,1.43.12,3.53.38,6,1,8.26,2.06,13.06,6.18,14,7,2.9,2.55,4.92,4.32,5,7Z"/>
      <path class="cls-7" d="M304.79,246.21c-1.07-7.41.98-15.15,5.49-21.08-4.19,6.04-5.88,13.72-4.51,20.92,0,0-.99.16-.99.16h0Z"/>
      <path class="cls-7" d="M296.86,246.41c-5.25-7.94-3.1-18.68,4.42-24.28-7.15,5.75-8.95,16.23-3.58,23.72,0,0-.83.55-.83.55h0Z"/>
      <path class="cls-7" d="M150.79,248.23c-1.31-7.41.75-15.29,5.49-21.1-4.41,5.92-6.12,13.73-4.51,20.9,0,0-.98.19-.98.19h0Z"/>
      <path class="cls-9" d="M117.28,227.13c1.25-.37,3.95-.98,7,0,4.22,1.35,6.31,4.84,7,6,2.3,3.85,1.07,5.71,3,9,1.09,1.86,3.24,4.27,8,6-2.31,1.61-6.02,3.76-11,5-7.03,1.74-12.94.75-16,0-.88.43-3.11,1.36-6,1-2.48-.31-4.21-1.42-5-2-1.13.39-3.59,1.06-6,0-4.12-1.82-4.78-7.25-5-9-.98-7.98,4.06-17.54,10-18,1.56-.12,2.94.41,4,1,.65-.37,3.01-1.6,6-1,2.02.4,3.37,1.45,4,2Z"/>
      <path class="cls-7" d="M114.83,253.35c-3.94-8.27-4.75-19.48,2.45-26.22-6.84,6.86-5.71,17.8-1.55,25.78,0,0-.9.44-.9.44h0Z"/>
      <path class="cls-7" d="M103.86,252.39c-5.09-8.26-3.64-19.67,3.42-26.26-6.7,6.72-7.8,17.89-2.58,25.74,0,0-.85.53-.85.53h0Z"/>
      <path class="cls-8" d="M240.28,180.13c1.38-1.93,3.32-4.1,6-6,9.33-6.59,20.25-4.59,23-4-5.27-1.32-13.4-2.58-23-1-4.26.7-7.95,1.82-11,3,.47,1.18,1.11,2.55,2,4,1,1.64,2.06,2.97,3,4Z"/>
      <path class="cls-8" d="M241.28,182.13c1.1-.08,2.85-.15,5,0,3.43.25,5.75.92,13,3,1.01.29,3.51,1,7,2h-20c-1.67-1.67-3.33-3.33-5-5Z"/>
      <path class="cls-8" d="M257.28,200.13c1.55-.32,4.05-.61,7,0,4.78.99,7.81,3.77,9,5h-15c-.33-1.67-.67-3.33-1-5Z"/>
      <path class="cls-8" d="M163.28,185.13c1.94-1.66,3.94-3.33,6-5,4.4-3.57,8.74-6.9,13-10-1.82-.3-5.67-.68-10,1-6.3,2.45-9.23,7.54-10,9,.33,1.67.67,3.33,1,5Z"/>
      <path class="cls-8" d="M166.28,194.13c1.11-1.39,3.04-3.43,6-5,5.16-2.73,10.11-2.28,12-2-2.91,2.13-5.92,4.46-9,7-2.86,2.36-5.52,4.71-8,7-.33-2.33-.67-4.67-1-7Z"/>
      <path class="cls-8" d="M122.28,206.13c1.82-1.18,4.58-2.95,8-5,9.65-5.79,15.27-8.33,15-9-.28-.69-6.56,1.25-9,2-2.29.71-4.81,1.49-8,3-2.92,1.38-5.27,2.82-7,4,.33,1.67.67,3.33,1,5Z"/>
      <path class="cls-8" d="M121.28,176.13c1.59-1.93,3.98-4.74,7-8,15.38-16.6,28.74-24.88,28-26-.51-.77-7.13,2.82-13,6-12.23,6.63-15.52,10.23-17,12-2.52,3.03-4.07,5.95-5,8v8Z"/>
      <path class="cls-8" d="M118.28,148.13c1.26-2.96,3.42-7.35,7-12,6.23-8.09,12.1-10.89,22-19,3.76-3.08,9.05-7.71,15-14,.41,2.75,1.04,6.53,2,11,.2.94,3.71,17.19,5,17,1.06-.16-1.29-11.17,0-28,.8-10.46,2.86-21.25,3-22,1.78-9.25,3.22-13.16,3-20-.21-6.47-1.76-11.69-3-15-2.67-1.33-5.33-2.67-8-4,.85,3.39,1.78,8.19,2,14,.11,2.89.44,16.86-7,33-2.79,6.05-7.27,15.76-17,24-6.96,5.9-14.2,8.99-21,19-1.9,2.8-3.2,5.3-4,7,.33,3,.67,6,1,9Z"/>
      <path class="cls-8" d="M156.28,39.13c1,7.37.55,13.17,0,17-1.14,7.89-3.39,12.01-7,24-1.94,6.43-3.23,11.7-4,15-.6-1.35-1.41-3.41-2-6-2.4-10.6,1.49-18.82,3-25,1.65-6.77,1.83-16.83-5-31l15,6Z"/>
      <path class="cls-8" d="M182.28,50.13c2.41,10.95,2.45,19.82,2,26-.86,11.8-3.83,18.68-4,35-.06,5.73.22,12.95,1,13,.72.04,1.35-6.09,3-14,2.57-12.29,5.08-16.84,7-24,1.99-7.45,3.5-18.35,1-33-3.33-1-6.67-2-10-3Z"/>
      <path class="cls-8" d="M204.28,78.13c.55,3.26,1.14,8.11,1,14-.06,2.69-.46,13.15-5,26-2.6,7.36-4.18,8.76-6,16-1.34,5.33-1.81,9.89-2,13-1.84-4.3-3.77-10.63-3-18,.82-7.85,4.29-12.76,7-18,3.63-7,7.5-17.6,8-33Z"/>
      <path class="cls-8" d="M211.28,56.13c1.32,5.37,2.92,12.89,4,22,1.4,11.8,2.13,17.92,1,26-1.67,11.99-5.47,14.28-7,27-.86,7.15-.46,13.12,0,17,1-4.02,2.61-9.95,5-17,4.68-13.79,6.4-14.27,9-23,4.33-14.53,3.74-27.27,3-34-.84-7.64-2.58-13.82-4-18h-11Z"/>
      <path class="cls-8" d="M228.28,108.13c.75-.1,4.14,9.64,3,21-.1.99-.73,4.33-2,11-2.38,12.55-2.71,13-3,13-1.4.01-4.45-10.47-2-21,.97-4.15,1.97-4.79,3-10,1.68-8.47.44-13.93,1-14Z"/>
      <path class="cls-8" d="M243.28,51.13c-1.06,13.47-.62,24.4,0,32,1.78,21.79,4,34,4,34,1.5,8.23,3.14,15.06,1,24-1.26,5.28-3.39,9.36-5,12,.2-3.91.3-9.03,0-15-.34-6.81-1.1-12.59-2-18-2.51-15.06-5.13-21.16-7-30-1.74-8.21-3.15-20.28-1-36,1.43-.16,3.13-.45,5-1,1.99-.59,3.67-1.31,5-2Z"/>
      <path class="cls-8" d="M251.28,48.13c-1.63,8.83-.91,15.57,0,20,1.42,6.93,3.48,9,6,19,2.32,9.19,2.5,15.04,3,15,.72-.05.77-12.22,0-24-.58-8.87-1.36-13.45-1-22,.2-4.69.65-8.52,1-11l-9,3Z"/>
      <path class="cls-8" d="M275.28,85.13c.87.1.09,12.53,0,14-.81,12.84-1.21,19.27-4,27-1.37,3.79-3.73,9.12-8,15-2-2.33-4-4.67-6-7,1.29-1.84,3.09-4.57,5-8,11.67-21.02,11.89-41.13,13-41Z"/>
      <path class="cls-8" d="M273.28,153.13c.3-1.9.87-4.73,2-8,2.66-7.71,5.96-10.68,9-16,4.57-8.01,5.3-15.61,6-23,.76-8.04.11-15.18-1-21,2.55,3.82,6.12,8.41,11,13,6.16,5.79,12.28,9.57,17,12-5.09-6.09-9.15-11.28-12-15-16.63-21.75-19.71-29.98-21-34-2-6.23-2.71-11.58-3-15-5.33-.33-10.67-.67-16-1,.57,3.76,1.67,9.42,4,16,4.46,12.6,8.33,14.15,12,24,1.83,4.92,7.2,19.31,2,33-2.08,5.48-4.65,7.68-10,20-1.82,4.19-3.16,7.7-4,10,1.33,1.67,2.67,3.33,4,5Z"/>
      <path class="cls-8" d="M290.28,48.13c.49,2.98,1.53,7.33,4,12,2.78,5.26,5.71,7.77,11,14,2.54,2.99,6.07,7.36,10,13-2.52-8.71-5.59-14.38-8-18-1.15-1.74-3.75-5.41-6-11-1-2.48-1.62-4.59-2-6-3-1.33-6-2.67-9-4Z"/>
      <path class="cls-8" d="M283.28,163.13c1.97-2.1,4.93-5.48,8-10,5.44-8.02,6.05-12.03,10-17,2.71-3.41,7.42-7.81,16-11-2.26-.92-5.95-1.98-10-1-5.47,1.33-8.59,5.66-11,9-5.82,8.07-11.65,16.1-18,25,1.67,1.67,3.33,3.33,5,5Z"/>
      <path class="cls-8" d="M291.28,170.13c2.65-5.54,5.56-9.85,8-13,4.12-5.32,7.68-9.92,14-13,5.27-2.57,10.37-3.05,14-3-2.51,1.08-6.17,2.93-10,6-2.18,1.75-4.9,4.28-12,14-2.38,3.26-5.49,7.65-9,13-1.67-1.33-3.33-2.67-5-4Z"/>
      <path class="cls-8" d="M302.28,179.13c.87-2.28,2.38-5.56,5-9,1.99-2.61,5.57-7.31,12-10,7.4-3.09,14.27-1.71,17-1v6c-1.97-.4-5.21-.82-9,0-6.71,1.44-10.96,5.85-14,9-2.78,2.88-4.7,5.73-6,8-1.67-1-3.33-2-5-3Z"/>
      <path class="cls-8" d="M311.28,189.13c1.75-2.11,4.35-4.73,8-7,7.72-4.8,15.44-5.1,19-5,.67,1.67,1.33,3.33,2,5-2.74-.2-7.59-.19-13,2-8.3,3.35-12.56,9.65-14,12-.67-2.33-1.33-4.67-2-7Z"/>
      <path class="cls-8" d="M335.28,116.13c-1.38-1.18-3.44-2.92-6-5-6.15-5-6.81-5.17-7-5-.19.17-.22.95,4,7,2.28,3.26,5.59,7.77,10,13-.33-3.33-.67-6.67-1-10Z"/>
      <path class="cls-8" d="M330.28,89.13c-.9-2.24-2.4-5.19-5-8-3.93-4.24-8.4-6.04-8-7,.3-.71,3-.24,4,0,1.94.46,3.29,1.42,4,2,.67,1.64,1.34,3.31,2,5,1.06,2.71,2.06,5.37,3,8Z"/>
      <path class="cls-8" d="M330.28,55.13c.66,2.98,1.26,7.1,1,12-.24,4.49-1.12,8.23-2,11,1.01.31,2.47.89,4,2,1.43,1.04,2.4,2.17,3,3,2.59-2.66,5.29-5.65,8-9,2.23-2.75,4.22-5.43,6-8-.58-.65-1.25-1.32-2-2-1.4-1.26-2.77-2.24-4-3-2.67,4.33-5.33,8.67-8,13,.67-5.33,1.33-10.67,2-16-2.67-1-5.33-2-8-3Z"/>
      <path class="cls-8" d="M340.28,89.13c2.47-1.05,5.17-2.36,8-4,3.98-2.31,7.3-4.75,10-7,1.33,2.33,2.67,4.67,4,7-2.09,2.02-5.72,5-11,7-3.49,1.32-6.64,1.82-9,2-.67-1.67-1.33-3.33-2-5Z"/>
      <path class="cls-8" d="M344.28,102.13c2.14.13,4.48.16,7,0,5.97-.37,11.05-1.64,15-3,.33,3.67.67,7.33,1,11-2.51,1-6.27,2.28-11,3-3.47.53-9.73,1.1-10,0-.41-1.67,13.22-6.39,13-7-.11-.3-3.39,1.11-8,1-2.49-.06-4.55-.55-6-1-.33-1.33-.67-2.67-1-4Z"/>
      <path class="cls-8" d="M348.28,124.13c1.91.84,5.44,2.1,10,2,5.24-.11,9.13-1.95,11-3v7c-2.32,1.09-5.72,2.39-10,3-4.07.58-7.53.35-10,0-.33-3-.67-6-1-9Z"/>
      <path class="cls-8" d="M350.28,142.13c2.66.75,6.88,1.57,12,1,3.27-.37,5.98-1.2,8-2,.33,2.33.67,4.67,1,7-2.19.82-5.26,1.71-9,2-4.64.36-8.46-.33-11-1-.33-2.33-.67-4.67-1-7Z"/>
      <path class="cls-8" d="M353.28,163.13c2.22.41,5.39.71,9,0,6.08-1.2,9.62-4.51,10-4,.42.55-3.43,4.96-9,8-3.11,1.7-5.97,2.55-8,3-.67-2.33-1.33-4.67-2-7Z"/>
      <path class="cls-8" d="M357.28,176.13c2.13.42,8.09,1.28,14-2,2.23-1.24,3.87-2.74,5-4,1.33,2.33,2.67,4.67,4,7-1.88,1.56-4.54,3.43-8,5-4.32,1.96-8.25,2.7-11,3-1.33-3-2.67-6-4-9Z"/>
      <path class="cls-8" d="M372.28,197.13c1.56-.4,3.81-1.23,6-3,5.25-4.25,5.89-10.57,6-12,1.33,1,2.67,2,4,3,.13,1.18.57,6.36-3,11-2.48,3.22-5.63,4.53-7,5-2-1.33-4-2.67-6-4Z"/>
      <path class="cls-9" d="M16.28,23.13c-.98-.59-2.45-1.56-4-3-5.69-5.29-6.39-11.2-8-11-1.46.18-2.24,5.19-2,9,.36,5.63,3.02,9.58,4,11,2.07,2.99,4.42,4.9,6,6"/>
      <path class="cls-8" d="M395.28,187.13c.22,1.9.32,4.28,0,7-.51,4.33-1.87,7.75-3,10h9c.86-2.28,1.85-5.72,2-10,.13-3.72-.43-6.81-1-9-2.33.67-4.67,1.33-7,2Z"/>
      <path class="cls-4" d="M405.28,183.13c1.74.75,6.23,2.96,9,8,1.25,2.27,1.77,4.43,2,6,2.36-2.03,7.5-7.05,9-15,1.02-5.41.92-15.12-5-19-2.15-1.41-5.69-2.46-8-1-2.13,1.35-2.53,4.41-3,8-.57,4.39.29,6.08-1,9-.85,1.92-2.11,3.23-3,4Z"/>
      <path class="cls-9" d="M35.28,56.13c-3.46,3.32-9.78,6.31-15,4-4.53-2.01-6.09-7.06-7-10-4.35-14.07,2.35-32.38,11-34,2.76-.52,5.43.72,6,1,1.01.5,3.93,2.14,7,10,2.34,6,4.59,11.75,3,19-.53,2.44-1.44,6.58-5,10Z"/>
      <circle class="cls-3" cx="28.1" cy="41.42" r="12.89"/>
      <circle class="cls-6" cx="27.83" cy="41.03" r="9.92"/>
      <circle cx="27.91" cy="41.76" r="6.01"/>
      <circle class="cls-3" cx="22.2" cy="35.12" r="4.06"/>
      <path class="cls-4" d="M4.28,52.13c.47,1.89,1.51,4.99,4,8,4.35,5.26,10.12,6.63,12,7,.36-.74.98-1.86,2-3,0,0,.4-.45,1.1-1.05,0,0,1.32-1.13,2.9-1.95,3.84-2,30.58,3.17,40,2,1.03-.13,4.46-.66,8,1,1.36.64,2.36,1.42,3,2,3.84.79,9.78,1.62,17,1,5.28-.46,8.91-.77,13-3,6.59-3.6,9.74-9.65,12-14,2.28-4.38,3.4-8.32,4-11"/>
      <path class="cls-9" d="M68.28,28.13c.87-2.28,2.82-6.45,7-10,2.55-2.17,6.35-5.4,11-5,7.17.62,11.33,9.46,13,13,2.25,4.79,2.7,8.93,3,12,.68,6.93,1.21,12.27-2,17-4.12,6.06-12.69,8.64-20,7-6.92-1.55-10.86-6.46-12-8v-26Z"/>
      <path class="cls-1" d="M38.28,87.13c-2.63,4.69-4.94,8.82-4,13,1.43,6.36,9.56,9.16,12,10,1.03.35,12.55,4.11,22-3,.95-.71,4.66-3.63,7-9,.72-1.66,4.34-9.86,1-16-5.17-9.5-24.69-9.8-33-2-2.27,2.13-3.91,5.06-5,7Z"/>
      <path class="cls-9" d="M60.28,64.13c6.62-3.3,13.69-2.15,17,2,3.57,4.49,1.41,10.81,1,12-3.16,9.23-13.9,11.76-15,12-11.87,2.6-21.14-6.16-22-7-.35.69-3.19,6.04-9,7-5.98.99-10.92-3.36-13-7-3.46-6.07-1.66-14.9,5-21"/>
      <path class="cls-5" d="M47.28,40.13c-6.76,4.88-11.66,9.51-15,13-2.95,3.09-4.55,5.14-4,7,.81,2.73,5.8,3.5,9,4,7.27,1.13,8.39-1.11,14,0,6.81,1.35,8.88,5.39,12,4,2.23-1,2.96-3.87,4-8,1.26-4.98,1.22-9.24,1-12"/>
      <path class="cls-2" d="M44.28,64.13c-6.4.1-8.96.44-12-1-1.41-.67-2.41-1.47-3-2-3.81,3.19-4.35,4.96-4,6,.52,1.52,2.75.9,6,3,3.71,2.4,3.71,5.08,7,6,1.23.34,2.16.23,4,0,4.38-.54,5.27-1.99,9-3,5.83-1.58,9.03.47,11-2,.67-.85,1.46-2.54,1-3-.25-.25-.81-.06-1,0-2.75.82-7.14-2.95-12-4-.4-.09-2.27-.06-6,0Z"/>
      <path class="cls-8" d="M53.28,27.13l6,6v-5c-2-1.67-4-3.33-6-5v4Z"/>
      <path class="cls-8" d="M56.28,16.13c3.33,3.33,6.67,6.67,10,10v-7c-3.33-3-6.67-6-10-9v6Z"/>
      <path class="cls-8" d="M49.43,27.84c-2.4,1.49-4.8,2.99-7.21,4.48l1.14-4.87c2.33-1.17,4.65-2.34,6.98-3.51-.3,1.3-.61,2.6-.91,3.9Z"/>
      <path class="cls-8" d="M51.65,14.73c-4.18,2.17-8.37,4.34-12.55,6.51.71-2.22,1.41-4.45,2.12-6.67,4.08-1.85,8.17-3.7,12.25-5.56-.6,1.91-1.21,3.81-1.81,5.72Z"/>
      <path class="cls-8" d="M86.28,69.13c1.84.94,7.74,3.63,15,2,11.13-2.5,15.58-12.96,16-14v9c-.74,1.5-4.14,8-12,11-8.96,3.42-16.75-.37-18-1-.33-2.33-.67-4.67-1-7Z"/>
      <path class="cls-8" d="M117.28,73.13c-.96,1.63-4.57,7.27-12,10-7.67,2.81-14.27.63-16,0,.05,1.64-.06,4.14-1,7-1.1,3.35-2.85,5.69-4,7,.49.5,1.18.98,2,1,2.09.04,3.53-3,4-4,.69-1.46.93-2.86,1-4,4.99.52,8.8-.33,11-1,1.16-.35,13.69-4.33,15-13,.19-1.28.1-2.35,0-3Z"/>
      <path class="cls-8" d="M6.28,69.13c.66-.16,1.17,5.66,6,9,1.75,1.21,3.56,1.74,5,2,.35,2.29,1.25,5.7,4,8,4.43,3.71,10.96,2.27,11,3,.03.61-4.46,2.33-9,1-4.93-1.45-7.35-5.76-8-7-1.64-.58-4.03-1.71-6-4-4.24-4.91-3.7-11.83-3-12Z"/>
      <path class="cls-9" d="M110.28,28.13c.49-2.5,4.5-1.96,9-5,6.02-4.07,6.55-10.24,10-10,1.72.12,2.82,1.73,3,2,2,2.93-.17,7.32-1,9-.42.85-3.8,7.4-11,9-1.71.38-5.4,1.2-8-1-.26-.22-2.38-2.06-2-4Z"/>
      <path class="cls-8" d="M53.28,4.13c-1.82,1.15-3.84.17-7,0-1.69-.09-4.07.03-7,1,.67-1,1.33-2,2-3,1.31-.7,3.75-1.79,7-2,3.13-.2,5.61.5,7,1-.28.98-.82,2.26-2,3Z"/>
      <path class="cls-8" d="M63.28,5.13c1.15,1.32,3.84.38,7,0,2.6-.31,6.31-.34,11,1-.55-.64-1.21-1.32-2-2-1.8-1.53-3.6-2.44-5-3h-11c-.46,1.33-.84,3.04,0,4Z"/>
      <path class="cls-8" d="M103.28,41.13c.84-.27,6.18,6.61,4,13-2.3,6.76-11.57,8.7-12,8-.36-.59,5.68-2.83,8-9,2.31-6.14-.74-11.77,0-12Z"/>
      <path class="cls-8" d="M103.28,40.13c.47.41,3.77-1.63,5-5,.3-.82,1.08-2.98,0-4-.78-.74-2.36-.72-3,0-.58.66-.07,1.56,0,3,.17,3.49-2.45,5.61-2,6Z"/>
      <path class="cls-8" d="M19.28,59.13c-.34.83-4.02.98-6-1-3.12-3.11-.57-10.03,0-10,.32.02-.24,2.21,1,5,1.76,3.97,5.37,5.12,5,6Z"/>
      <circle class="cls-3" cx="83.14" cy="41.97" r="12.89"/>
      <circle class="cls-6" cx="82.88" cy="41.58" r="9.92"/>
      <circle cx="82.96" cy="42.31" r="6.01"/>
      <circle class="cls-3" cx="77.25" cy="35.66" r="4.06"/>
    </g>
  </g>
</svg>