<?xml version="1.0" encoding="UTF-8"?>
<svg id="Layer_2" data-name="Layer 2" xmlns="http://www.w3.org/2000/svg" viewBox="0 0 140.66 111.7">
  <defs>
    <style>
      .cls-1, .cls-2, .cls-3 {
        stroke: #000;
        stroke-miterlimit: 10;
      }

      .cls-1, .cls-4 {
        fill: #745500;
      }

      .cls-2 {
        fill: none;
      }

      .cls-5, .cls-3 {
        fill: #fff;
      }

      .cls-6 {
        fill: #ffd38a;
      }

      .cls-7 {
        fill: #333;
      }
    </style>
  </defs>
  <g id="Layer_1-2" data-name="Layer 1">
    <g>
      <path class="cls-1" d="M16.56,55.07c-1.63-1.12-3.94-.35-5,0-7.65,2.54-10.75,14.28-11,22-.16,4.96-.43,13.43,5,18,6.06,5.1,16.33,2.89,18,8,.42,1.29.04,2.26,1,4,1.7,3.07,5.42,4.62,6,4,.23-.24-.15-.71-1-3-.8-2.16-1.39-3.73-1-4,.5-.35,1.92,2.03,5,3,1.89.6,3.85.49,4,0,.15-.49-1.61-.99-3-3-.82-1.19-1.37-2.7-1-3,.54-.43,2.39,2.23,5,2,.68-.06,1.84-.35,2-1,.32-1.31-3.68-3.33-5-4-2.39-1.21-3.72-1.48-5-2-3.87-1.57-5.96-4.82-8-8-1.2-1.88-4.02-6.7-5-14-1.4-10.42,2.16-16.83-1-19Z"/>
      <path class="cls-1" d="M6.06,48.57c-1.61-1.98.04-5.79,1-8,1.09-2.52,3.51-6.93,9-11-.63-.91-2.22-3.51-2-7,.02-.35.54-6.8,6-9,4.45-1.79,8.56.72,9,1,.69-3.3,1.97-4.5,3-5,2.31-1.11,4.08,1.02,7,0,2.67-.93,2.4-3.14,5-4,2.74-.9,3.91,1.26,7,1,4.55-.38,4.94-5.33,9-6,4.39-.73,5.5,4.8,12,6,5.94,1.09,8.19-2.94,13-1,3.76,1.52,3.04,4.24,7,6,5.16,2.29,8.41-1.42,12,1,3.1,2.09,1.29,5.26,5,9,3.28,3.31,5.71,1.85,8,5,2.52,3.46.29,6.18,3,9,2.29,2.38,5.04,1.65,6,4,.79,1.93-.84,3.02,0,5,.92,2.19,3.34,1.91,5,4,.95,1.19,1.72,3.23,1,7,.54-.38,2.18-1.41,4-1,2.34.53,3.65,3.14,4,5,.58,3.12-1.42,4.75-6,13-2.17,3.91-3.25,5.86-4,8-2.01,5.71-1.76,9.88-3,10-.79.08-1.86-1.52-2-3-.2-2.08,1.46-3.51,1-4-.4-.43-1.98.33-3,1-1.68,1.1-1.92,2.02-4,4-1.08,1.03-2.45,2.33-3,2-.76-.46.6-3.73,0-4-.42-.19-1.09,1.05-3,2-.79.39-1.9.94-2.5.5-.57-.42-.55-1.66,0-3-1.44.74-3.11,1.44-5,2-7.08,2.09-13.39.98-17,0-2.54,1.96-6.58,4.72-12,7-3.31,1.4-26.29,11.07-44-1-1.15-.78-13.85-9.7-16-24-1.28-8.51,1.39-17.49-3-20-2.66-1.53-5.87.51-7.5-1.5Z"/>
      <path class="cls-6" d="M59.56,46.07c1.34.42,3.32,1.26,5,3,4.56,4.73,1.59,10.61,5,15,1.04,1.34,3.1,3.1,16,4,5.48.38,12.99.62,22,0,1,5.67,2,11.33,3,17-1.61,1.15-5.47,3.57-11,4-5.22.41-9.21-1.16-11-2-3.83,3.45-12.39,10.14-25,12-3.46.51-23.02,2.98-36.5-10.5-3.66-3.66-9.87-9.87-10-18-.01-.95-.02-6.91-.5-14.5-.15-2.4-.36-4.68-2-6-2.52-2.03-6.72-.18-7-1-.2-.57,1.67-1.97,4-3,4.99-2.21,9.66-1.63,19,0,12.83,2.23,16.84,3.37,23,2,2.62-.58,4.68-1.41,6-2Z"/>
      <path class="cls-1" d="M69.56,62.07c-.74,2.23-1.51,5.76,0,9,2.86,6.13,10.92,4.79,14,11,2.09,4.21,1.01,10.1-2,13-1.91,1.85-4.57,2.45-7,3-4.73,1.07-7.19.02-9,2-1.23,1.34-1.62,3.5-1,4,.45.37,1.33-.22,3-1,3.47-1.61,6.82-2.38,7-2,.16.33-2.22,1.27-4,4-.32.49-1.54,2.37-1,3,.56.65,2.77-.3,4-1,1.8-1.03,1.99-1.84,4-3,1.16-.66,2.74-1.35,3-1,.31.42-1.75,1.69-2,4-.14,1.28.28,2.83,1,3,.68.16,1.48-.92,3-3,1.14-1.56,1.45-2.23,2-3,1.55-2.18,3.45-3.08,5-4,0,0,3.71-2.2,8-7,1.12-1.26,5.78-6.46,6-14,.23-8.01-4.69-13.6-6-15"/>
      <path class="cls-3" d="M30.23,22.3c-.01-.18-.04-.36-.08-.54-.58-3.48-3.61-6.12-7.26-6.12-4.08,0-7.38,3.3-7.38,7.38,0,2.06.84,3.92,2.21,5.27.14.14.29.28.45.4"/>
      <path class="cls-7" d="M19.32,28.08c-.27-.12-.53-.26-.78-.41-1.6-1.01-2.66-2.79-2.66-4.81,0-3.14,2.54-5.69,5.68-5.69.24,0,.48.02.71.05,1.15.14,2.2.63,3.03,1.37,1.18,1.03,1.93,2.54,1.94,4.22v.05c0,.37-.04.73-.11,1.08l-7.81,4.14Z"/>
      <circle cx="19.59" cy="22.91" r="3.44"/>
      <circle class="cls-5" cx="22.91" cy="19.86" r="2.71"/>
      <g>
        <path class="cls-4" d="M132.56,68.07c-2.35,6.22-5.82,10.01-8,12-2.33,2.13-8.98,8.22-14,6-2.49-1.1-3.53-3.77-4-5-2.19-5.67.67-11.36,2-14,3.94-7.82,10.87-11.56,14-13"/>
        <path d="M132.56,68.07c-1.29,4.27-3.51,8.4-6.78,11.53-7.04,7.19-17.81,12.77-20.41-1.28-.58-4.61,1.36-9.07,3.56-12.96,3.02-5.25,7.99-9.22,13.63-11.28-8.54,4.63-16.89,13.88-16.2,24.12,3.54,18.89,22.78-1.21,26.2-10.12h0Z"/>
      </g>
      <path class="cls-2" d="M132.56,55.07c-.4,1.76-1.02,3.81-2,6-1.81,4.06-4.15,7.03-6,9"/>
      <g>
        <path class="cls-4" d="M15.56,30.07c1.55-1.5,3.85-3.41,7-5,4.41-2.23,8.48-2.83,11-3"/>
        <path d="M15.21,29.71c2.5-2.32,5.41-4.19,8.53-5.48,3.12-1.3,6.47-2.02,9.82-2.17-3.34.31-6.61,1.2-9.61,2.62-3.01,1.42-5.73,3.38-8.04,5.74l-.7-.72Z"/>
      </g>
      <path d="M7.16,48.77c2.74-4.03,7.97-5.08,12.5-4.55,9.07.41,17.69,3.7,26.72,4.28,4.49.14,9.01-.74,13.19-2.44-4.15,1.77-8.66,2.74-13.2,2.68-9.03-.4-17.71-3.53-26.75-3.78-2.24-.12-4.48-.1-6.55.58-2.06.67-3.86,2.03-5.1,3.8l-.81-.58h0Z"/>
      <path d="M63.06,18.57c4.45-3.16,11,.42,10,6-.65-5.04-5.32-7.46-10-6h0Z"/>
      <circle class="cls-3" cx="45.89" cy="22.01" r="7.38"/>
      <circle class="cls-7" cx="44.56" cy="21.85" r="5.68"/>
      <circle cx="42.59" cy="21.91" r="3.44"/>
      <circle class="cls-5" cx="45.91" cy="18.86" r="2.71"/>
      <path d="M79.56,20.07c5.62-.26,9.29,6.42,6,11,.35-1.19.5-2.4.44-3.56-.17-3.67-2.88-6.43-6.44-7.44h0Z"/>
      <path d="M95.56,25.07c5.91.61,10.02,7.42,8,13,.07-1.41-.06-2.8-.35-4.12-.83-4.08-3.84-7.3-7.65-8.88h0Z"/>
      <path d="M74.56,31.07c5.08.39,8.03,6.85,5,11,1.37-4.56-.63-9.07-5-11h0Z"/>
      <path d="M73.56,11.07c3.62-1.11,8.03,1.34,9,5-2.28-2.84-5.33-4.57-9-5h0Z"/>
      <path d="M90.56,36.07c4.24,1.58,6.02,7.52,3,11,1.49-4.11.22-8.14-3-11h0Z"/>
      <path d="M108.56,36.07c3.71,3.02,4.65,9.03,2,13,1.22-4.55.5-9.02-2-13h0Z"/>
      <path d="M90.56,15.07c3.25-.82,6.4,3,5,6-.26-2.95-2.08-5.17-5-6h0Z"/>
    </g>
  </g>
</svg>