<?xml version="1.0" encoding="UTF-8"?>
<svg id="Layer_2" data-name="Layer 2" xmlns="http://www.w3.org/2000/svg" viewBox="0 0 233.12 243.53">
  <defs>
    <style>
      .cls-1 {
        fill: #fff;
      }

      .cls-2 {
        fill: #f39800;
      }

      .cls-3 {
        fill: #db8800;
      }

      .cls-4 {
        fill: #1f201f;
      }

      .cls-5 {
        fill: none;
      }

      .cls-6 {
        fill: #c72b00;
      }

      .cls-7 {
        fill: #ffac3f;
      }

      .cls-8 {
        fill: #666;
      }

      .cls-9 {
        fill: #ff9321;
      }

      .cls-10 {
        fill: #682d00;
      }

      .cls-11 {
        fill: #333;
      }

      .cls-12 {
        fill: #582d00;
      }

      .cls-13 {
        fill: #632e00;
      }

      .cls-14 {
        fill: #502700;
      }
    </style>
  </defs>
  <g id="Layer_1-2" data-name="Layer 1">
    <g>
      <path class="cls-7" d="M99.67,193.9c.84,2.3-.28,3.22,0,9.31.22,4.7.96,5.69,1.55,6.2,1.11.97,1.97.51,5.43,1.55,2.65.8,3.98,1.2,4.65,2.33,1.08,1.82.33,4.93-1.55,6.2-2.25,1.52-6.36.59-8.53-3.1-.77,1.14-2,2.64-3.88,3.88-5.3,3.5-13.62,3.51-15.51,0-.85-1.57-.46-3.95.78-5.43,2.49-2.98,6.94-.52,9.31-3.1,1.06-1.15,1.09-2.64,0-10.86-1.29-9.72-1.86-11.67-.78-12.41,1.78-1.21,7.08,1.46,8.53,5.43Z"/>
      <path class="cls-7" d="M97.35,193.12c-1.37,1.8-3.3,4.44-5.43,7.76-4.96,7.73-7.9,12.43-6.2,15.51,1.07,1.94,3.98,3.23,5.43,3.88,2.38,1.06,3.73.98,4.65,2.33.92,1.34,1.02,3.52,0,4.65-1.33,1.48-4.15.74-6.98,0-2.97-.78-5.3-2.01-6.98-3.1-.37,1.04-1.05,2.52-2.33,3.88-2.39,2.54-4.44,2.1-7.76,3.88-5.32,2.84-4.66,6.44-9.31,7.76-.55.16-4.28,1.21-6.2-.78-1.8-1.86-.86-5.16-.78-5.43,1.17-3.88,6.11-6.53,12.41-6.98-6.35.49-11.27,1.08-14.73,1.55-2.35.32-4.98.71-6.2-.78-1.02-1.24-.73-3.36,0-4.65,1.55-2.74,6.22-3.76,11.63-2.33-1.42-1.11-2.04-2.74-1.55-3.88.68-1.6,3.26-1.56,3.88-1.55,1.97.03,2.75.95,4.65,1.55,1.37.43,3.4.72,6.2,0,2.34-2.16,5.17-5.21,7.76-9.31,3.77-5.98,5.43-11.67,6.2-15.51,1.4-4.21,5.72-5.96,8.53-4.65,2.01.94,3.28,3.45,3.1,6.2Z"/>
      <path class="cls-13" d="M81.06,72.92c-7.91-9.16-18.4-21.73-30.24-37.22-.41-4.65,1.66-9.14,5.43-11.63,4.4-2.91,10.37-2.63,14.73.78.21-1.82,1.14-7.82,6.2-12.41,8.27-7.5,19.63-4.05,20.16-3.88.92-1.11,6.85-8.06,17.06-8.53,10.26-.47,16.83,5.96,17.84,6.98,1.39-1.07,7.62-5.57,16.29-4.65,10.81,1.15,16.38,9.77,17.06,10.86,1.23-.5,9.67-3.77,18.61.78,9.02,4.59,11.33,13.46,11.63,14.73,1.17.02,9.31.26,14.73,6.98,4.48,5.55,5.36,13.36,2.33,20.16,1.24.21,9.96,1.85,14.73,10.08,5.83,10.04.29,20.42,0,20.94,1.23,1.34,4.93,5.71,5.43,12.41.65,8.62-4.49,14.48-5.43,15.51.42.85,4.08,8.6,0,16.29-2.64,4.97-7.02,7.1-8.53,7.76.23,2.11.47,7.14-2.33,12.41-4.32,8.16-12.5,10.47-13.96,10.86-.25,1.15-1.61,6.72-6.98,10.08-3.52,2.2-7.01,2.35-8.53,2.33-3.61-2.81-9.04-7.08-15.51-12.41-15.05-12.39-50.57-42.68-90.73-89.18Z"/>
      <path class="cls-13" d="M95.02,66.72c.44-1.4,1.3-3.52,3.1-5.43,2.58-2.73,5.53-3.41,12.41-5.43,7.51-2.21,8.44-2.71,10.08-3.1,13.67-3.26,39.06,10.14,54.29,30.24,6.38,8.43,8.84,15.2,10.86,20.94,3.49,9.92,2.95,14.45,2.33,17.06-1.12,4.72-3.64,8.1-5.43,10.08.27.78,3.39,10.39-2.33,17.06-1.74,2.03-3.8,3.2-5.43,3.88-.39,1.19-2.41,6.91-8.53,10.08-5.24,2.72-10.2,1.85-11.63,1.55-19.9-32.31-39.81-64.63-59.71-96.94Z"/>
      <path class="cls-9" d="M81.06,45.78c.75-2.1,2.62-6.43,6.98-10.08,5.99-5.01,12.66-5.39,14.73-5.43,2.37-1.53,6.33-3.64,11.63-4.65,6.91-1.32,12.58-.09,15.51.78,2.32-.67,7.98-1.95,14.73,0,6.08,1.76,9.94,5.25,11.63,6.98,2.44-.1,8.57-.02,14.73,3.88,4.07,2.58,6.49,5.78,7.76,7.76,1.79.32,7.67,1.62,12.41,6.98,5.06,5.72,5.39,12.22,5.43,13.96,2.22,1.74,5.77,4.97,8.53,10.08,3.3,6.1,3.82,11.78,3.88,14.73,1.09,1.51,3.54,5.34,3.88,10.86.32,5.26-1.46,9.2-2.33,10.86.31,2.74.57,8.5-2.33,14.73-1.66,3.57-3.79,6.12-5.43,7.76-.43,2.56-1.52,7.02-4.65,11.63-2.66,3.92-5.72,6.37-7.76,7.76-.85,1.77-2.67,4.98-6.2,7.76-2.99,2.34-5.94,3.39-7.76,3.88,1.55,1.29,3.1,2.58,4.65,3.88,1.54.01,5.83-.16,10.08-3.1,3.93-2.73,5.61-6.31,6.2-7.76,2.31-1.2,6.49-3.74,10.08-8.53,3.7-4.94,4.96-9.83,5.43-12.41,1.63-1.7,4.65-5.33,6.2-10.86,1.79-6.36.64-11.68,0-13.96,1.09-1.57,4.39-6.77,3.88-13.96-.38-5.36-2.7-9.17-3.88-10.86.15-3.25.03-10.87-4.65-18.61-2.79-4.6-6.18-7.57-8.53-9.31-.76-3.08-2.69-9.05-7.76-14.73-4.24-4.76-8.85-7.28-11.63-8.53-.96-2-3.82-7.27-10.08-10.86-6.81-3.9-13.37-3.37-15.51-3.1-1.57-1.8-6.17-6.61-13.96-8.53-7.28-1.79-13.22-.03-15.51.78-1.79-1.03-8.01-4.33-16.29-3.1-8.32,1.24-13.33,6.25-14.73,7.76-2.11-.32-8.18-.97-14.73,2.33-6.81,3.43-9.91,8.98-10.86,10.86,2.07,4.14,4.14,8.27,6.2,12.41Z"/>
      <path class="cls-9" d="M96.57,66.72c.58-1.21,1.94-3.58,4.65-5.43,3.95-2.7,8.08-2.45,9.31-2.33,1.02-.77,4.76-3.4,10.08-3.1,6.4.35,10.2,4.65,10.86,5.43,1.24-.77,5.44-3.17,10.86-2.33,8.55,1.34,12.17,9.52,12.41,10.08,1.72.28,7.12,1.4,11.63,6.2,4.36,4.64,5.22,9.88,5.43,11.63,1.59,1.15,5.57,4.32,7.76,10.08,2.29,6.04,1.25,11.3.78,13.18.54.46,4.99,4.44,4.65,10.86-.32,6.18-4.82,9.63-5.43,10.08,2.5,3.76,2.81,8.53.78,12.41-2.62,5-7.86,6.08-8.53,6.2-.16.77-1.43,6.39-6.98,9.31-5.12,2.7-10.04,1.06-10.86.78,1.29,2.07,2.58,4.14,3.88,6.2,1.15.34,5.53,1.46,10.08-.78,6.82-3.35,7.71-11.13,7.76-11.63,1.17-.32,6.3-1.86,9.31-6.98,4.3-7.32.23-15.08,0-15.51.8-.57,5.3-3.89,6.2-10.08,1.01-6.93-3.3-11.78-3.88-12.41.44-1.01,4.07-9.8-.78-17.84-2.45-4.07-5.97-6.11-7.76-6.98-.15-1.61-.98-8.56-6.98-13.96-5.33-4.79-11.39-5.33-13.18-5.43-.95-2.03-2.99-5.63-6.98-8.53-7.21-5.24-15.25-4.17-17.06-3.88-6.48-4.96-14.31-5.8-19.39-2.33-2.58,1.77-3.94,4.31-4.65,6.2-4.5-2.58-10.04-2.26-13.96.78-5.09,3.95-4.69,10.36-4.65,10.86,1.55-.26,3.1-.52,4.65-.78Z"/>
      <path class="cls-9" d="M126.82,76.8c.89-.44,5.1-2.4,10.08-.78,6.19,2.02,8.3,7.85,8.53,8.53,1.56.07,5.21.46,8.53,3.1,6.24,4.97,5.5,13.29,5.43,13.96,1.43,1.37,3.98,4.18,5.43,8.53,2.03,6.09.6,11.33,0,13.18.61,1.72,1.66,5.47.78,10.08-1.16,6.05-4.9,9.7-6.2,10.86-1.81,1.03-3.62,2.07-5.43,3.1-.52-1.55-1.03-3.1-1.55-4.65,1.42-.81,4.22-2.69,6.2-6.2,3.12-5.55,1.89-11.08,1.55-12.41.45-.72,3.12-5.21,1.55-10.86-1.58-5.68-6.23-8.15-6.98-8.53-.21-2.05-.85-5.59-3.1-9.31-3.08-5.11-7.39-7.58-9.31-8.53-.47-.96-2.03-3.8-5.43-5.43-4.82-2.31-9.41-.31-10.08,0v-4.65Z"/>
      <path class="cls-9" d="M134.57,89.21c.27-.09,5.37-1.74,9.31,1.55,3.2,2.68,4.23,7.47,2.33,11.63.95.42,4.94,2.31,6.98,6.98,2.31,5.28.35,10.05,0,10.86.64,2.21,1.44,6.09.78,10.86-.79,5.67-3.26,9.68-4.65,11.63-1.55-1.29-3.1-2.58-4.65-3.88,1.17-1.15,3.47-3.73,4.65-7.76,1.36-4.62.46-8.51,0-10.08.34-1.56.66-4.06,0-6.98-1.34-5.95-5.72-9.21-6.98-10.08.15-.45,1.21-3.75-.78-6.98-2.09-3.39-5.78-3.83-6.2-3.88-.26-1.29-.52-2.59-.78-3.88Z"/>
      <path class="cls-11" d="M102,193.9c5.07,10.14,19.05,16.98,27.14,20.94,10.88,5.33,25.03,9.54,26.37,6.98.69-1.32-1.66-5.1-18.61-17.06,6.84,3.69,12.77,5.76,17.06,6.98,6.45,1.83,7.43,1.24,7.76.78,1.53-2.21-6.07-9.92-7.76-11.63-4.28-4.34-8.47-7.33-11.63-9.31,3.03,1.81,6.92,3.61,11.63,4.65,2.93.65,6.8,1.51,7.76,0,1-1.57-1.67-4.96-3.88-7.76-2.53-3.21-5.09-5.49-6.98-6.98,6.29,2.8,9.91,3.58,10.86,2.33,1.29-1.7-2.33-7.13-10.86-16.29.43.22,8.42,4.33,10.08,2.33,1.25-1.5-1.25-6.25-6.2-11.63,3.13.8,4.94.8,5.43,0,.75-1.23-1.58-4.33-6.98-9.31,2.27-.16,3.56-.68,3.88-1.55.66-1.82-2.96-5.18-10.86-10.08,2.38-.55,3.67-1.33,3.88-2.33.43-2.11-3.96-5.21-13.18-9.31-29.83,22.63-43.14,51.77-34.9,68.24Z"/>
      <path class="cls-9" d="M70.98,24.84c6.98,14.48,13.96,28.95,20.94,43.43"/>
      <path class="cls-12" d="M3.51,124.11c-5.24,10.14-3.34,20.73-2.33,26.37.43,2.4,4.48,23.03,23.27,34.12,5.44,3.21,10.54,4.69,13.96,5.43,1.01,1.01,14.14,13.8,31.8,10.08,11.76-2.48,18.38-10.78,20.16-13.18,8.02-4.65,43.74-26.46,49.63-65.14,1.41-9.23,4.47-29.32-8.53-43.43-10.95-11.88-26.71-12.39-27.92-12.41-10.54-.18-18.24,4.28-25.59,8.53-10.15,5.87-13.86,10.91-20.94,17.06-25.57,22.22-44.34,14.82-53.51,32.57Z"/>
      <path class="cls-6" d="M45.78,126.04c2.26.79,5.32,1.42,7.76,0,5.54-3.23,2.18-13.57,3.88-25.59,2.52-17.85,13.18-17.83,19.78-39.94,3.07-10.29,6.46-21.66.39-29.86-7.22-9.76-24.73-10.81-35.67-4.65-1.6.9-6.33,3.64-9.31,9.31-.43.82-5.5,10.96,0,20.16,2.58,4.31,6.32,6.47,8.14,7.37-.56,8.1-2.65,13.89-4.27,17.45-7.29,16.08-24.02,28.86-24.82,29.47-5.25,3.98-10.35,6.79-10.08,10.86.18,2.81,2.9,5.84,6.2,6.98,2.83.97,5.31.29,6.2,0,.27.78,1.63,4.51,5.43,6.2,3.99,1.77,9.02.57,12.41-3.1.19.3,2.51,3.85,6.2,3.88,3.73.03,7.46-3.52,7.76-8.53Z"/>
      <path class="cls-10" d="M77.18,166.76c1.08,4.03,3.22,9.85,7.76,15.51,5.74,7.17,14.83,13.46,17.06,11.63.82-.68,1.01-2.71-1.55-8.53,2.99,4.93,6.91,7.1,8.53,6.2,1.53-.85,1.73-4.82,0-9.31,2.71,4.98,7.36,6.62,9.31,5.43,1.86-1.13,2.5-5.6,0-10.08,2.3,3.91,6.67,4.61,8.53,3.1,1.61-1.3,1.97-4.75,0-7.76,2,3.05,6.13,3.57,8.53,1.55,2.1-1.76,2.58-5.18.78-7.76,2.33,0,4.46-1.19,5.43-3.1,1.28-2.52.38-5.92-2.33-7.76.64-.54,2.04-1.87,2.33-3.88.43-2.98-1.72-6.27-5.43-7.76.75-.01,2.94-.14,3.88-1.55,1.26-1.89.12-5.82-3.88-8.53.19-.77.41-2.2,0-3.88-.66-2.68-2.49-4.19-3.1-4.65.72-.7,1.57-1.79,1.55-3.1-.02-1.82-1.71-3.36-5.43-5.43-3.06-1.7-7.68-3.87-13.96-5.43-.52,1.81-1.03,3.62-1.55,5.43,1.13.71,3.46,2.4,4.65,5.43,1.67,4.25.44,9.37-3.1,13.18.22.89,1.31,5.62-1.55,10.08-1.8,2.82-4.29,4.14-5.43,4.65-.06.47-.69,4.78-4.65,6.98-3.19,1.77-6.33.96-6.98.78-.13.58-.74,3.04-3.1,4.65-3.14,2.13-6.63.91-6.98.78-.37.58-1.57,2.25-3.88,3.1-2.59.95-4.83.22-5.43,0Z"/>
      <path class="cls-8" d="M57.02,218.72h-6.2c.56-.74,1.56-1.79,3.1-2.33.71-.25,2.39-.83,3.1,0,.66.76.05,2.2,0,2.33Z"/>
      <path class="cls-8" d="M110.53,219.49c1.55-.26,3.1-.52,4.65-.78-.07-.55-.32-2.01-1.55-3.1-.41-.36-.99-.88-1.55-.78-.93.18-1.56,2.05-1.55,4.65Z"/>
      <path class="cls-8" d="M46.94,224.92c-.95-.26-1.84.41-2.33.78-1.89,1.42-2.24,3.8-2.33,4.65.67-.51,1.71-1.17,3.1-1.55,1.74-.47,2.7-.13,3.1-.78.52-.83-.25-2.74-1.55-3.1Z"/>
      <path class="cls-8" d="M58.57,238.88c.29-.63.39-1.51,0-2.33-.43-.9-1.41-1.65-2.33-1.55-1.51.17-2.2,2.58-2.33,3.88-.22,2.32,1.09,4.09,1.55,4.65.33-1.64.99-2.56,1.55-3.1.65-.63,1.19-.78,1.55-1.55Z"/>
      <path class="cls-8" d="M95.8,222.59c1.08-.95,2.91-.09,3.1,0,1.81.85,2.26,2.81,2.33,3.1-1.81.26-3.62.52-5.43.78-.99-1.44-.87-3.12,0-3.88Z"/>
      <path class="cls-2" d="M46.16,47.33c-1.58-.08-3.81-.41-6.2-1.55-5.6-2.66-7.9-7.76-8.53-9.31-1.7-.21-4.12-.36-6.98,0-3.18.41-9.42,1.2-13.96,6.2-4.23,4.66-4.62,10.37-4.65,12.41,3.2-2.29,5.92-2.92,7.76-3.1,4.07-.4,6.46,1.2,17.06,4.65,5.42,1.77,6.48,1.9,7.76,1.55,4.58-1.25,6.77-7.26,7.76-10.86Z"/>
      <path class="cls-3" d="M45.78,46.94c-4.13,3.88-9.79,6.49-15.55,5.8-5.63-.41-10.41-4.65-16.09-4.23-3.73.36-6.69,3.15-8.69,6.18.86-1.67,1.99-3.22,3.41-4.5,11.39-9.14,18.75,10.38,36.91-3.26h0Z"/>
      <path class="cls-6" d="M28.33,33.37c-4.03,1.16-6.04,4.71-7.76,7.76-3.37,5.98-3.84,11.89-3.88,14.73-.08,5.29,1.23,5.33.78,10.08-.5,5.22-2.13,5.83-2.33,10.86-.07,1.68-.33,8.44,3.1,10.08,1.72.82,3.74.05,3.88,0,1.95-.77,2.82-2.53,3.1-3.1,1.82-3.68-1.34-8.16-3.1-13.18-3.48-9.94-1.3-21.52,3.88-28.69,1.88-2.61,3.96-4.35,5.43-5.43.78-1.03,1.55-2.07,2.33-3.1-1.28-.33-3.26-.62-5.43,0Z"/>
      <path class="cls-5" d="M77.18,166.76c-1.36-1.98-2.81-4.56-3.88-7.76-2.94-8.82-1.08-16.66,0-20.16"/>
      <path class="cls-5" d="M38.41,190.02c-2.68-1.11-7.36-3.54-10.86-8.53-8.22-11.71-1.99-26.16-1.55-27.14"/>
      <circle class="cls-1" cx="47.7" cy="35.75" r="7.38"/>
      <circle class="cls-11" cx="46.37" cy="35.59" r="5.68"/>
      <circle cx="44.4" cy="35.65" r="3.44"/>
      <circle class="cls-1" cx="47.71" cy="32.6" r="2.71"/>
      <path class="cls-9" d="M97.35,8.56c4.39,15.77,8.79,31.54,13.18,47.31"/>
      <path class="cls-9" d="M132.24,7c-1.55,13.7-3.1,27.4-4.65,41.1"/>
      <path class="cls-9" d="M165.59,13.21c-6.2,13.44-12.41,26.88-18.61,40.33"/>
      <path class="cls-9" d="M195.84,28.72c-12.41,11.89-24.82,23.78-37.22,35.67"/>
      <path class="cls-9" d="M212.9,55.86c-11.89,7.24-23.78,14.48-35.67,21.71"/>
      <path class="cls-9" d="M227.63,86.88c-12.93,2.59-25.85,5.17-38.78,7.76"/>
      <path class="cls-9" d="M227.63,114.8c-13.44-2.07-26.88-4.14-40.33-6.2"/>
      <path class="cls-9" d="M219.1,138.84c-11.37-2.58-22.75-5.17-34.12-7.76"/>
      <path class="cls-9" d="M202.81,162.1c-6.72-4.14-13.44-8.27-20.16-12.41"/>
      <path class="cls-9" d="M134.57,51.98c-2.07,7.76-4.14,15.51-6.2,23.27"/>
      <path class="cls-9" d="M158.61,64.39c-4.39,6.72-8.79,13.44-13.18,20.16"/>
      <path class="cls-9" d="M178.77,83.78c-6.98,2.84-13.96,5.69-20.94,8.53"/>
      <path class="cls-9" d="M187.3,108.6c-7.24,1.55-14.48,3.1-21.71,4.65"/>
      <path class="cls-9" d="M175.67,153.57c-4.65-4.14-9.31-8.27-13.96-12.41"/>
      <path class="cls-9" d="M145.43,84.55c-2.07,1.29-4.14,2.59-6.2,3.88"/>
      <path class="cls-9" d="M159.39,101.62c-2.58,1.55-5.17,3.1-7.76,4.65"/>
      <path class="cls-9" d="M153.18,120.23c-4.39.52-8.79,1.03-13.18,1.55"/>
      <path class="cls-9" d="M146.2,102.39c-1.55.52-3.1,1.03-4.65,1.55"/>
      <path class="cls-14" d="M100.45,185.37c-4.65-4.25-7.19-10.79-6.98-17.06,1.23,6.17,3.41,11.86,6.98,17.06h0Z"/>
      <path class="cls-14" d="M108.98,182.27c-3.71-4.96-6.16-10.92-6.98-17.06,2.18,5.81,4.45,11.39,6.98,17.06h0Z"/>
      <path class="cls-14" d="M118.29,177.61c-3.83-5-6.7-10.82-7.75-17.06,2.38,5.84,5.11,11.36,7.75,17.06h0Z"/>
      <path class="cls-14" d="M126.82,172.96c-3.97-4.28-6.71-9.77-7.75-15.51,2.38,5.35,4.9,10.4,7.75,15.51h0Z"/>
      <path class="cls-14" d="M136.12,166.76c-6.63-3.66-11.57-10.46-13.18-17.84,2.99,6.95,7.35,12.99,13.18,17.84h0Z"/>
      <path class="cls-14" d="M139.22,155.9c-5.38-1.08-10.37-4.59-13.18-9.31,3.95,3.84,8.24,6.87,13.18,9.31h0Z"/>
      <path class="cls-14" d="M136.12,144.27c-4.85-.78-9.5-2.96-13.18-6.2,4.46,2.08,8.73,4.1,13.18,6.2h0Z"/>
      <path class="cls-14" d="M136.12,134.19c-4.72-.09-9.46-1.75-13.18-4.65,4.43,1.69,8.67,3.19,13.18,4.65h0Z"/>
      <path class="cls-14" d="M133.02,125.66c-4.55.21-9.28-2.3-11.63-6.2,3.48,2.96,7.24,4.96,11.63,6.2h0Z"/>
      <path class="cls-4" d="M137.67,205.53c-7.75-4.26-14.49-10.46-19.39-17.84,0,0,2.28,2.4,2.28,2.4,5.26,5.62,11.04,10.69,17.11,15.43h0Z"/>
      <path class="cls-4" d="M142.33,191.57c-5.75-2.94-10.7-7.6-13.96-13.18,4.39,4.76,8.95,9.07,13.96,13.18h0Z"/>
      <path class="cls-4" d="M150.86,181.49c-5.81-3.88-11.01-8.79-14.73-14.73,4.81,5.08,9.8,9.8,14.73,14.73h0Z"/>
      <path class="cls-4" d="M150.86,167.53c-3.58-2.61-6.7-5.72-9.31-9.31,3.59,2.61,6.69,5.72,9.31,9.31h0Z"/>
      <path class="cls-4" d="M154.73,158.23c-5.64-4.41-10.82-9.32-15.51-14.73,5.64,4.41,10.81,9.33,15.51,14.73h0Z"/>
      <path class="cls-4" d="M153.18,148.92c-5.09-3.35-9.75-7.23-13.96-11.63,5.09,3.34,9.75,7.23,13.96,11.63h0Z"/>
      <path class="cls-4" d="M146.2,137.29c-3.21-1.23-6.06-3.04-8.53-5.43,3.21,1.22,6.06,3.04,8.53,5.43h0Z"/>
      <path class="cls-5" d="M74.86,162.1c.72.22,2.53.66,4.65,0,2.98-.93,4.36-3.34,4.65-3.88.65.13,2.98.53,5.43-.78,2.78-1.49,3.7-4.1,3.88-4.65.37.1,4.62,1.22,7.76-1.55,1.55-1.37,2.11-3.06,2.33-3.88.98-.55,3.12-1.94,4.65-4.65,1.7-3.01,1.63-5.88,1.55-6.98.67-.75,2.97-3.53,3.1-7.76.15-4.71-2.5-7.85-3.1-8.53"/>
      <path class="cls-5" d="M72.53,155.9c.49.19,2.46.87,4.65,0,3.04-1.21,3.81-4.36,3.88-4.65.4.17,2.83,1.18,5.43,0,3.35-1.52,3.85-5.23,3.88-5.43,2.23.68,4.63.08,6.2-1.55,2.14-2.22,1.6-5.16,1.55-5.43.37.04,2.94.25,4.65-1.55,1.78-1.88,1.9-5.18,0-7.76.36-.23,2.64-1.73,3.1-4.65.57-3.61-2.15-6.05-2.33-6.2"/>
      <path class="cls-1" d="M29.1,145.04c.34.42,1.63,1.92,3.88,2.33,2.97.53,5.14-1.3,5.43-1.55"/>
      <path class="cls-1" d="M38.41,151.25c.35.33,3.06,2.85,6.98,2.33,3.2-.43,5.03-2.61,5.43-3.1"/>
      <path class="cls-1" d="M36.86,160.55c.28.32,1.9,2.16,4.65,2.33,2.55.15,4.28-1.24,4.65-1.55"/>
      <path class="cls-1" d="M54.69,165.21c.63.44,3.02,1.98,6.2,1.55,1.85-.25,3.18-1.05,3.88-1.55"/>
      <path class="cls-1" d="M9.72,142.72c.56.59,1.85,1.78,3.88,2.33,3.08.82,5.6-.45,6.2-.78"/>
      <path class="cls-1" d="M16.69,152.02c.67.46,2.33,1.47,4.65,1.55,1.77.06,3.15-.45,3.88-.78"/>
      <path class="cls-1" d="M6.61,156.68c.39.39,2.35,2.3,5.43,2.33,2.42.02,4.1-1.14,4.65-1.55"/>
      <path class="cls-1" d="M13.59,167.53c.19.25,1.86,2.34,4.65,2.33,2.12-.01,3.53-1.23,3.88-1.55"/>
      <path class="cls-1" d="M26.78,162.88c.34.42,1.63,1.92,3.88,2.33,2.97.53,5.14-1.3,5.43-1.55"/>
      <path class="cls-1" d="M33.76,172.19c.17.23,1.8,2.33,4.65,2.33.29,0,2.94-.05,4.65-2.33"/>
      <path class="cls-1" d="M43.06,169.08c.17.23,1.8,2.33,4.65,2.33.29,0,2.94-.05,4.65-2.33"/>
      <path class="cls-1" d="M29.1,179.94c.59.45,1.94,1.36,3.88,1.55,2.85.29,4.92-1.17,5.43-1.55"/>
      <path class="cls-1" d="M43.06,185.37c.65.32,2.39,1.08,4.65.78,2.57-.34,4.17-1.83,4.65-2.33"/>
      <path class="cls-1" d="M52.37,177.61c.96,1.64,2.79,2.55,4.65,2.33,1.76-.21,3.26-1.42,3.88-3.1"/>
      <path class="cls-1" d="M58.57,156.68c.83.25,2.94.76,5.43,0,1.98-.6,3.26-1.71,3.88-2.33"/>
      <path class="cls-1" d="M50.82,143.49c.78.34,1.83.69,3.1.78,3.56.25,6.18-1.69,6.98-2.33"/>
      <path class="cls-1" d="M55.47,191.57c.61.31,2.03.94,3.88.78,2.63-.23,4.26-1.89,4.65-2.33"/>
      <path class="cls-1" d="M64,182.27c1.93,1.8,4.63,2.41,6.98,1.55,2.69-.99,3.72-3.47,3.88-3.88"/>
      <path class="cls-1" d="M66.33,172.19c.32.21,2.22,1.38,4.65.78,2.59-.64,3.72-2.78,3.88-3.1"/>
      <path class="cls-1" d="M74.08,190.02c.66.14,1.78.3,3.1,0,2.13-.48,3.42-1.8,3.88-2.33"/>
      <path class="cls-1" d="M64.78,195.45c.28.19,2.24,1.47,4.65.78,1.89-.54,2.85-1.94,3.1-2.33"/>
      <path class="cls-5" d="M13.98,127.59c1.02-.95,2.06-1.99,3.1-3.1,2.48-2.66,4.53-5.3,6.2-7.76"/>
      <path class="cls-5" d="M32.2,131.86c-.2-1.87-.3-4.25,0-6.98.3-2.81.93-5.17,1.55-6.98"/>
      <path class="cls-5" d="M46.16,127.21c-.84-1.68-1.79-4.04-2.33-6.98-.71-3.89-.38-7.17,0-9.31"/>
      <path class="cls-1" d="M38.41,135.74c.11.16,1.77,2.45,4.65,2.33,1.99-.08,3.78-1.28,4.65-3.1"/>
      <path class="cls-1" d="M61.67,115.57c.43.07,3.12.59,4.65,3.1,1.27,2.09,1.26,4.77,0,6.98"/>
      <path class="cls-1" d="M60.9,100.06c.7.15,1.95.53,3.1,1.55,2.29,2.03,2.33,4.92,2.33,5.43"/>
      <path class="cls-1" d="M70.98,108.6c.31.07,4.15,1.04,5.43,4.65.75,2.1.23,3.98,0,4.65"/>
      <path class="cls-1" d="M66.33,86.88c.44-.08,3.62-.63,6.2,1.55,2.17,1.83,3.08,4.86,2.33,7.76"/>
      <path class="cls-5" d="M71.76,146.59c.37.17,3.17,1.44,6.2,0,2.95-1.4,3.77-4.24,3.88-4.65.51.04,4.75.27,7.76-3.1,2.57-2.89,2.37-6.35,2.33-6.98.94-.5,3.19-1.88,4.65-4.65,2.06-3.91,1.02-7.7.78-8.53"/>
      <path class="cls-1" d="M71.76,100.06c.62.13,2.45.62,3.88,2.33,1.91,2.28,1.61,4.97,1.55,5.43"/>
      <path class="cls-1" d="M72.53,124.88c.57.93,1.79,3.21,1.55,6.2-.1,1.28-.45,2.34-.78,3.1"/>
      <path class="cls-1" d="M82.61,108.6c.69,1,1.99,3.15,2.33,6.2.31,2.84-.35,5.08-.78,6.2"/>
      <path class="cls-1" d="M78.73,86.88c.57.08,2,.36,3.1,1.55,1.44,1.54,1.74,3.99.78,6.2"/>
      <path class="cls-1" d="M76.41,75.25c2.26-.67,4.67-.08,6.2,1.55,1.76,1.87,1.59,4.26,1.55,4.65"/>
      <path class="cls-1" d="M91.92,92.31c.34.29,2.17,1.92,2.33,4.65.19,3.19-2.06,5.19-2.33,5.43"/>
      <path class="cls-1" d="M93.47,78.35c.51.06,3.63.44,5.43,3.1,1.79,2.65,1.53,6.46-.78,9.31"/>
      <path class="cls-1" d="M97.35,103.17c.34.29,2.17,1.92,2.33,4.65.19,3.19-2.06,5.19-2.33,5.43"/>
      <path class="cls-1" d="M105.88,94.64c2.37,2.02,3.28,5.14,2.33,7.76-.96,2.64-3.42,3.69-3.88,3.88"/>
      <path class="cls-1" d="M115.18,96.19c.53.93,1.65,3.17,1.55,6.2-.09,2.59-1.02,4.5-1.55,5.43"/>
      <path class="cls-1" d="M106.65,81.45c2.29.03,4.38,1.2,5.43,3.1,1.34,2.44.75,5.7-1.55,7.76"/>
      <path class="cls-1" d="M96.57,68.27c2.28-1.23,5.04-.43,6.2,1.55.97,1.66.68,3.9-.78,5.43"/>
      <path class="cls-1" d="M112.86,72.92c.25.06,4.28,1.04,5.43,4.65.53,1.67.21,3.16,0,3.88"/>
      <path class="cls-1" d="M122.94,88.43c3.45,2.83,4.52,6.83,3.1,9.31-.25.43-1.04,1.64-3.1,2.33"/>
      <path class="cls-1" d="M130.69,102.39c.33.64,1.32,2.75.78,5.43-.7,3.45-3.41,5.15-3.88,5.43"/>
      <path class="cls-1" d="M133.02,92.31c.64.42,2.28,1.63,3.1,3.88,1.27,3.49-.52,6.56-.78,6.98"/>
      <path class="cls-1" d="M122.94,78.35c1.5-.24,3.01.36,3.88,1.55.98,1.35.99,3.23,0,4.65"/>
      <path class="cls-1" d="M137.67,113.25c1.22,1.71,1.19,3.94,0,5.43-1.4,1.75-3.7,1.57-3.88,1.55"/>
    </g>
  </g>
</svg>