<?xml version="1.0" encoding="UTF-8"?>
<svg id="Layer_2" data-name="Layer 2" xmlns="http://www.w3.org/2000/svg" viewBox="0 0 277.25 298.05">
  <defs>
    <style>
      .cls-1 {
        fill: #4f4c4d;
      }

      .cls-2 {
        fill: #fff;
      }

      .cls-3 {
        fill: #231f20;
      }

      .cls-4 {
        fill: #666;
      }

      .cls-5 {
        fill: #333;
      }
    </style>
  </defs>
  <g id="Layer_1-2" data-name="Layer 1">
    <path d="M81,270c-.51,1.28-.34,2.89,0,6,.25,2.34.41,3.79,1,5,2.35,4.85,11.07,4.97,13,5,4.49.06,13.01-.99,14-5,.43-1.74-.71-3.49-3-7-1.54-2.37-2.92-4.48-5-6-6.46-4.73-18.13-2.67-20,2Z"/>
    <path class="cls-2" d="M68,228c-.92,3.18,1.69,5.55,4,10,2.97,5.73,3.41,11.03,4,18,.24,2.91.36,6.64,0,11,.85.77,7.2,6.39,16,5,6.08-.96,9.82-4.71,11-6-2.94-2.58-7.6-7.49-10-15-1.04-3.23-2.68-8.36-1-14,1.39-4.69,3.92-5.85,9-12,6.6-7.99,10.88-13.18,10-18-1.58-8.69-19.81-15.38-27-10-2.73,2.04-1.85,4.31-8,18-2.46,5.47-3.57,7.26-5,9-1.69,2.05-2.56,2.49-3,4Z"/>
    <path d="M175,273c-2.18,3.37-1.09,7.66-1,8,.13.49.82,2.93,3,5,5.22,4.98,13.81,2.98,18,2,3.05-.71,5.16-1.23,6-3,1.37-2.87-1.57-6.99-3-9-1.09-1.52-2.51-3.52-5-5-5.48-3.26-14.65-3.16-18,2Z"/>
    <path class="cls-2" d="M171,209c-.39,3.36,2.03,4.8,2,11-.03,5.14-1.7,6.07-2,11-.39,6.45,2.39,6.24,3,14,.77,9.85-2,18-2,18-.77,2.26-1.38,3.35-1,5,.97,4.27,7.35,7.41,13,7,4.32-.31,9.92-2.82,11-7,.79-3.06-1.57-4.22-4-12-1.25-4.02-2.22-7.11-2-11,.36-6.32,3.38-6.61,4-13,.57-5.88-1.88-6.8-1-13,.32-2.26.74-2.8,3-9,3.16-8.66,4.72-13.01,4-14-3.28-4.47-26.84,3.05-28,13Z"/>
    <path d="M58,276c3.22,2.69,4.72,6.29,5,7,.9,2.24,1.89,4.72,1,7-1.52,3.9-7.54,4.68-10,5-5.55.72-15.14-.12-18-6-1.18-2.42-1.08-5.42-1-8,.1-3.11.15-4.67,1-6,3.07-4.81,15.19-4.7,22,1Z"/>
    <path d="M146,279c-2.19,2.86-2.03,6.43-2,7,.21,3.67,2.23,6.1,3,7,4.65,5.44,12.36,5.11,15,5,3.39-.14,9.27-.39,11-4,1.62-3.38-1.19-8.02-3-11-1.17-1.92-2.16-3.56-4-5-5.58-4.35-15.86-4.42-20,1Z"/>
    <path class="cls-2" d="M218,118c-7.84,13.13-9.25,23.65-9,31,.32,9.3,3.44,17.51,0,30-.49,1.79-1.66,5.95-4,10-7.97,13.8-24.69,17.95-37,21-26.82,6.65-48.5,1.44-54,0-13.33-3.49-23.48-8.91-30-13-1.23,4.48-3.32,10.11-7,16-7.78,12.46-18.29,19.01-24,22-.72,4.17-1.31,10.5,0,18,1.63,9.33,5.45,16.16,8,20-.67.74-6.28,6.68-15,6-7.82-.61-12.28-6.08-13-7,2.49-8.59,2.47-15.39,2-20-1.17-11.41-5.86-16.75-3-25,1.57-4.51,3.4-4.15,6-10,2.87-6.45,3.14-12.51,3-18-.55-21.19-6.99-24.27-6-38,1.15-15.99,11.01-27.39,15-32,5.09-5.88,10.39-12.01,19-14,6.56-1.51,8.72.84,25,4,12.49,2.43,19.83,3.85,29,3,5.22-.49,15.64-1.45,25-8,7.12-4.98,9.57-10.35,20-31,15.14-29.97,17.33-33.21,20-33,5.82.46,6.36,16.75,18,44,4.54,10.63,9.06,18.91,12,24Z"/>
    <path class="cls-3" d="M229.5,34.5c2.93-5.79,9.03-15.74,20.5-23.5,5.05-3.42,9.94-5.59,14-7,2.02,2.68,5.63,8.31,6,16,.82,17.1-15.2,27.5-16,28"/>
    <path class="cls-2" d="M235.5,34.5c3.72-4.5,8.5-9.53,14.5-14.5,3.82-3.16,7.54-5.8,11-8,1.3,2.38,3.15,6.62,3,12-.36,12.86-11.82,20.27-13,21"/>
    <path class="cls-2" d="M188,50c-10.35,16.17-6.06,33.69-5,38,1.15,4.7,2.54,10.35,7,16,7.77,9.83,14.78,6.87,32,18,9.98,6.45,11.82,10.15,20,12,3.47.78,11.14,2.39,18-2,3.88-2.48,5.96-5.9,7-8,1.36-.61,6.53-3.11,9-9,2.51-6,.55-11.53,0-13-2.47-6.61-6.58-5.86-10-13-1.53-3.2-2.02-6.8-3-14-.8-5.9-.77-8.83-1-11-1.29-12.05-13.23-22.95-24-28-3.93-1.84-15.46-7.24-29-3-12.41,3.88-18.71,13.41-21,17Z"/>
    <path class="cls-1" d="M237,50c1.5-1.42,7.59-7.51,8-17,.4-9.16-4.64-17.98-13-23l3,9c-.83-1.79-3.43-6.76-9-9-1.44-.58-2.81-.87-4-1,3.47,4.67,4.14,5.88,4,6-.25.2-2.61-3.28-7-5-1.94-.76-3.72-.96-5-1,6.6,7.03,8.12,8.88,8,9-.17.17-3.11-3.62-8-5-3.04-.86-5.88-.52-8,0,1.33,1,2.67,2,4,3-6.65-2.85-10.63-2.12-13-1-9.92,4.68-13.53,26.44-19,27-.37.04-2.05.11-4,1-1.35.61-2.34,1.4-3,2,.81.16,1.86.45,3,1,1.33.64,2.32,1.39,3,2-1-.24-2.83-.53-5,0-3.45.85-5.4,3.21-6,4,.7-.13,1.76-.23,3,0,2.04.38,3.4,1.45,4,2-.99-.12-3.39-.26-6,1-3.16,1.53-4.58,4.15-5,5,1.13-.22,2.91-.42,5,0,1.22.24,2.23.63,3,1-1.11-.09-4.54-.21-8,2-3.22,2.06-4.57,4.94-5,6,.89-.42,2.68-1.11,5-1,1.79.08,3.17.61,4,1-1.54.49-3.72,1.37-6,3-2.43,1.74-4.03,3.65-5,5h7c-1.57.71-3.79,1.93-6,4-1.92,1.79-3.19,3.62-4,5,.69-.2,2.23-.54,4,0,.87.27,1.54.67,2,1-1.21.25-3.69.93-6,3-1.61,1.44-2.51,2.98-3,4h6c-1.14.21-3.02.71-5,2-2.1,1.37-3.35,3.01-4,4,.69-.2,2.23-.54,4,0,.87.27,1.54.67,2,1-1.14.21-3.02.71-5,2-2.1,1.37-3.35,3.01-4,4h6c-1.24.81-2.6,1.79-4,3-1.61,1.38-2.93,2.75-4,4h7c.95-.62,2.39-1.62,4-3,8.47-7.24,11.63-16.29,13-20,6.6-17.92,15.99-32.86,21-40,10.93-15.57,17.54-17.5,21-18,6.63-.95,12.49,1.82,15,3,8.73,4.12,13.26,10.99,15,14Z"/>
    <path class="cls-3" d="M205,38c.73-3.75,1.24-9.63-1-16C197.73,4.14,176.13.19,175,0c-1.6,2.39-3.69,6.1-5,11-.8,3.01-3.3,12.36,1,22,5.7,12.79,19.06,16.5,21,17"/>
    <path class="cls-2" d="M198,48c.88-3.75,1.73-9.89,0-17-.79-3.23-2.94-12.06-11-18-3.05-2.24-6.01-3.39-8-4-.88,1.15-2.02,2.82-3,5,0,0-3.06,6.81-2,14,1.3,8.76,10.8,17.42,24,20Z"/>
    <path d="M222,122c-.94-8.43.36-17.76,5.66-24.62,5.49-7.11,15.02-8.68,23.49-8.46,5.75-.07,11.51.99,16.85,3.09-5.38-2-11.12-2.99-16.85-2.92-8.42-.17-17.83,1.43-23.33,8.43-5.3,6.81-6.6,16.09-5.82,24.49h0Z"/>
    <path d="M174,71c.65,3.26,1.65,8.12,3,14,2.08,9.03,3.12,13.54,4,16,1.39,3.86,8.84,23.1,24,26,3.36.64,6.24.32,8,0-.33,1.33-.67,2.67-1,4-2.99.45-7.74.74-13-1-7.68-2.54-11.96-7.92-16-13-5.84-7.35-8.52-14.43-11-21-1.99-5.26-3.23-9.79-4-13l6-12Z"/>
    <path d="M163,97c1.08,4.61,2.67,9.69,5,15,8,18.2,20.63,29.71,29,36-3.33-.56-8.5-1.81-14-5-9.97-5.78-14.78-14.29-18-20-2.21-3.92-5.11-9.97-7-18,.67-.96,1.33-1.96,2-3,1.09-1.71,2.09-3.38,3-5Z"/>
    <path d="M155,107c.31,5.38,1.17,11.48,3,18,6.54,23.23,21.59,37.99,30,45-5.89-2.45-14.85-7.15-23-16-7.68-8.34-11.19-16.62-13-21-2.92-7.06-4.3-13.37-5-18,1.41-.83,3.22-2.1,5-4,1.34-1.42,2.31-2.83,3-4Z"/>
    <path d="M195,171c2.03-.88,4.47-2.15,7-4,3.75-2.74,6.33-5.72,8-8-.33-1.67-.67-3.33-1-5-1.78,2.57-3.77,5.25-6,8-2.71,3.35-5.41,6.34-8,9Z"/>
    <path d="M218,46c-2.28-3.73-6.09-6.14-10-6-5.65.2-10.95,5.7-11,13,.37-1.04,2.11-5.61,7-8,6.89-3.37,13.6.74,14,1Z"/>
    <circle class="cls-2" cx="256.71" cy="63.06" r="14.46"/>
    <circle class="cls-5" cx="256.41" cy="62.62" r="11.13"/>
    <circle cx="256.51" cy="63.44" r="6.75"/>
    <circle class="cls-2" cx="250.1" cy="55.99" r="4.56"/>
    <path d="M183,86c1.41-3.09,2.9-5.43,4-7,2.63-3.75,5.65-8.04,11-10,2.05-.75,3.86-.95,5-1-1.5-1.24-2.9-1.77-4-2-5.62-1.16-12.44,3.65-17,12-.13,1.04-.19,2.41,0,4,.2,1.64.61,3,1,4Z"/>
    <path d="M187,100c-.04-1.65.08-4.15,1-7,.71-2.19,2.08-6.43,6-9,5.52-3.63,12.1-1.33,13-1-2.1.9-5.92,2.9-9,7-5.71,7.6-4.3,16.33-4,18-1.25-1.07-2.62-2.39-4-4-1.21-1.4-2.19-2.76-3-4Z"/>
    <path d="M200,112c-.61-1.48-1.56-4.42-1-8,.87-5.57,4.99-10.13,10-12,5.03-1.88,9.54-.51,11,0-1.87.16-6.12.78-10,4-1.31,1.09-5.93,4.92-6,11-.04,3.24,1.23,5.74,2,7-2-.67-4-1.33-6-2Z"/>
    <path class="cls-3" d="M247,111c1.38-1.19-.94-5.86-2-8-1.35-2.73-3.63-7.33-6-7-1.69.23-2.92,2.89-3,5-.11,2.72,1.7,4.63,3,6,2.45,2.59,6.67,5.14,8,4Z"/>
    <path class="cls-3" d="M264,110c-.29-.36-.13-.94,2-5,2.9-5.52,3.43-6.05,4-6,1.12.1,1.91,2.4,2,4,.16,2.66-1.52,4.51-2,5-1.97,2.01-5.26,2.92-6,2Z"/>
    <path d="M267,124c-14.73,7.69-33.54,1.52-40-14,6.78,15.32,25.17,21.33,40,14h0Z"/>
    <path d="M209,142l-6,6c2.33-3.33,4.67-6.67,7-10-.33,1.33-.67,2.67-1,4Z"/>
    <path d="M208,181c-1.34,1.3-2.99,2.69-5,4-4.92,3.2-9.73,4.46-13,5,2.2.34,5.33.57,9,0,2.86-.44,5.23-1.25,7-2,.35-.94.68-1.94,1-3,.42-1.41.74-2.75,1-4Z"/>
    <path d="M143,117c-2.57,5.76-5.05,12.45-7,20-5.07,19.59-4.53,36.87-3,49-1.97-3.35-4.49-8.43-6-15-2.21-9.65-1.06-17.36,0-24,1.03-6.47,3.33-16.14,9-27,.92-.25,1.93-.57,3-1,1.56-.62,2.89-1.33,4-2Z"/>
    <path d="M126,122c-4.26,6.49-10.66,18.14-13,34-3.36,22.73,3.61,40.61,7,48-3.2-3.23-7.65-8.5-11-16-5.92-13.26-4.68-25.2-4-31,2.04-17.45,10.6-29.58,15-35h6Z"/>
    <path d="M108,122c-2.61,3.2-5.43,7.19-8,12-4.91,9.17-7.03,17.76-8,24-.98-3.58-2.14-9.65-1-17,1.68-10.86,7.38-18.06,10-21,2.33.67,4.67,1.33,7,2Z"/>
    <path d="M68,115c2.51,2.09,5.9,5.34,9,10,1.19,1.79,4.03,6.33,6,13,1.98,6.73.96,8.42,2,21,.82,9.96,1.36,15.94,4,23,2.16,5.77,4.93,10.14,7,13-2.68-1.35-6.62-3.78-10-8-1.9-2.37-4.62-6.56-7-19-2.44-12.75-.53-13.27-3-24-2.85-12.36-6.55-16.73-9-19-2.88-2.66-5.88-4.15-8-5,1.51-1,3.17-2.01,5-3,1.38-.75,2.72-1.41,4-2Z"/>
    <path d="M50,129c3.5,2.31,7.16,5.51,10,10,3.85,6.09,3.94,10.97,7,24,1.42,6.03,2.84,11.12,4,15-1.54-1.64-3.83-4.31-6-8-2.44-4.14-2.59-5.92-5-10-2.7-4.57-5.58-7.55-7-9-2.48-2.54-6.4-5.99-12-9,.94-2.06,2.24-4.47,4-7,1.7-2.45,3.45-4.43,5-6Z"/>
    <path d="M35,163c1.42.26,3.6.8,6,2,5.54,2.77,8.02,6.99,14,16,5.45,8.22,8.22,12.36,10,14,5.6,5.15,12.21,7.13,17,8l-3,6c-2.18-.41-5.42-1.23-9-3-5.83-2.89-9.42-6.76-16-14-4.6-5.06-5.55-6.79-10-11-2.84-2.68-5.33-4.71-7-6-.77-1.62-1.66-4-2-7-.22-1.94-.15-3.64,0-5Z"/>
    <path d="M41,192c1.84,3.96,4.66,8.62,9,13,2.54,2.57,5.73,5.79,11,8,6.23,2.61,11.93,2.37,15,2-1,1.33-2,2.67-3,4-2.8.28-7.08.34-12-1-2.39-.65-7.85-2.21-13-7-3.82-3.55-5.9-7.42-7-10v-9Z"/>
    <path d="M39,213c.68,2.28,2.07,5.73,5,9,6.27,7.01,14.82,7.85,17,8-2.33,1.33-4.67,2.67-7,4-2.25-.95-5.68-2.74-9-6-4.17-4.1-6.12-8.51-7-11,.33-1.33.67-2.67,1-4Z"/>
    <path d="M52,248c-2.22.1-5.38,0-9-1-4.67-1.28-8.03-3.48-10-5-.36-1.25-.7-2.58-1-4-.53-2.52-.84-4.88-1-7,1.25,2.27,5.52,9.34,14,12,2.62.82,5.04,1.03,7,1v4Z"/>
    <path d="M35,256c.67.74,4.64,4.96,11,5,4.64.03,7.9-2.18,9-3,.33,1.67.67,3.33,1,5-1.59.8-5.65,2.57-11,2-5.1-.54-8.58-2.91-10-4v-5Z"/>
    <path class="cls-2" d="M137,190c.19,7.86,1.64,13.87,3,18,1.84,5.6,3.48,7.71,4,13,.54,5.55-.89,7.05-1,13-.14,8.01,2.4,8.7,3,16,1.07,12.96-6.42,17.19-3,25,1.75,4,5.62,7.23,10,8,5.94,1.04,12.72-2.44,14-7,.99-3.52-2.06-4.94-4-13-.48-2-1.55-6.59-1-12,.82-8.09,4.3-8.53,5-16,.56-6-1.64-6.23-1-14,.55-6.68,2.47-10.1,3-11,1.71-2.89,2.92-3.25,5-6,1.83-2.41,3.97-6.19,5-12"/>
    <path d="M81,206c2.17,1.67,4.82,3.42,8,5,7.39,3.67,14.31,4.72,19,5-1,1.33-2,2.67-3,4-2.76.41-9.01.94-16-2-5.65-2.38-9.22-5.94-11-8,1-1.33,2-2.67,3-4Z"/>
    <path d="M75,218c1.95,2.23,6.55,6.88,14,9,4.01,1.14,7.54,1.19,10,1-1.33,1.33-2.67,2.67-4,4-2.19.18-5.4.14-9-1-7.56-2.39-11.65-7.97-13-10,.67-1,1.33-2,2-3Z"/>
    <path d="M69,232c1.62,1.88,4.54,4.79,9,7,5.41,2.69,10.37,3.01,13,3v3c-1.54.56-3.99,1.21-7,1-5.89-.41-9.78-3.83-11-5-.27-.95-.6-1.96-1-3-.9-2.35-1.97-4.35-3-6Z"/>
    <path d="M76,253c1.39.92,5,3.04,10,3,3.71-.03,6.54-1.24,8-2,.67,1.33,1.33,2.67,2,4-2.3.56-5.37,1.07-9,1-4.65-.09-8.44-1.09-11-2v-4Z"/>
    <path d="M139,183c3.22-1.63,9.65-4.3,18-4,12.96.46,21.55,7.76,24,10-1.76-3.35-5.62-9.56-13-14-3.06-1.84-6.96-4.19-12-4-10.17.38-16.3,10.77-17,12Z"/>
    <path d="M140,196c3.96-6.15,10.92-9.65,18-9,8.09.74,14.99,6.77,17,15-.33.67-.67,1.33-1,2-2.13-1.72-4.79-3.49-8-5-10.73-5.03-21.04-3.91-26-3Z"/>
    <path d="M144,209c1.71-2.91,3.72-4.31,5-5,5.83-3.15,14.24-1.19,21,5-.67,1.33-1.33,2.67-2,4-3.34-1.13-7.37-2.24-12-3-4.49-.74-8.55-.99-12-1Z"/>
    <path d="M143,217c2.78.43,5.79.78,9,1,5.12.34,9.82.28,14,0v6c-.9-.03-2.3-.06-4,0-5.26.19-7.29,1.01-11,1-1.65,0-4.06-.18-7-1,.17-.92.3-2.33,0-4-.23-1.26-.64-2.28-1-3Z"/>
    <path d="M144,228c1.75,1.19,5.58,3.47,11,4,5.69.55,10.07-1.12,12-2,.22,1.13.42,2.91,0,5-.24,1.22-.63,2.23-1,3-5.08,1.22-9.25,1.21-12,1-2.82-.21-10.02-.76-11-4-.24-.79-.13-1.8,0-3,.19-1.73.64-3.1,1-4Z"/>
    <path d="M144,243c1.41.42,3.49,1.08,6,2,3.59,1.32,4.47,1.86,6,2,1.85.17,4.53-.24,8-3-.42.98-.87,2.34-1,4-.06.74-.05,1.41,0,2-1.47.75-3.5,1.57-6,2-4.9.85-8.93-.26-11-1,.11-.8.16-1.83,0-3-.32-2.36-1.34-4.07-2-5Z"/>
    <path d="M144,263c1.27.96,3.67,2.48,7,3,6.19.98,10.91-2.22,12-3,.33,1,.67,2,1,3-1.33.89-4.94,3.05-10,3-5.86-.06-9.83-3.05-11-4,.33-.67.67-1.33,1-2Z"/>
    <path d="M198,203c-1.53,1.74-3.82,3.97-7,6-3.44,2.2-6.67,3.36-9,4,1.98.17,4.34.24,7,0,2.27-.2,4.29-.58,6-1,.23-1.22.55-2.57,1-4,.6-1.92,1.31-3.59,2-5Z"/>
    <path d="M173,220c1.6.78,4.8,2.09,9,2,4.92-.1,8.48-2.04,10-3v3c-1.52.96-5.08,2.9-10,3-4.2.09-7.4-1.22-9-2v-3Z"/>
    <path d="M171,231c2.05.63,5.19,1.3,9,1,6.48-.51,11.04-3.52,13-5,.22,1.13.42,2.91,0,5-.24,1.22-.63,2.23-1,3-2.26.89-6.11,2.09-11,2-4.37-.08-7.84-1.15-10-2v-4Z"/>
    <path d="M174,243c1,.82,3.43,2.56,7,3,4.56.57,7.98-1.37,9-2v2c-1.33.71-4.18,2-8,2-1.51,0-4.63-.2-8-2v-3Z"/>
    <path class="cls-4" d="M20,177c-.92.2-3.14.85-6,4-1.38,1.52-4.99,5.6-6,12-.75,4.74.61,6.41-1,10-1.07,2.38-2.73,3.99-4,5,.59-.05,1.77-.22,3-1,1.07-.68,1.69-1.51,2-2,.18,1.09.49,3.94-1,7-2.11,4.32-6.2,5.74-7,6,2.79.37,7.54.64,13-1,2.55-.76,9.6-2.88,14-9,7.98-11.1,2.87-29.26-3-31-.91-.27-2.49-.34-4,0Z"/>
    <path d="M173,258c1.3.73,4.17,2.1,8,2,5.39-.14,8.98-3.1,10-4,.33,1,.67,2,1,3-1.1.96-4.22,3.44-9,4-5,.58-8.75-1.3-10-2v-3Z"/>
    <path class="cls-3" d="M54,125c-2.55.69-6.1,1.87-10,4-9.8,5.34-15.06,12.9-17,16-1.44,2.29-6.31,10.5-7,22-.55,9.18,1.65,19.03,3,19,.4,0,.69-.88,1-2,2.12-7.64,1.52-13.36,2-18,.53-5.15,2.39-8.81,4-12,1.76-3.48,5.47-9.51,13-15,3.67-4.67,7.33-9.33,11-14Z"/>
    <path d="M22,184c.4,2.99.72,7.54,0,13-.66,4.96-1.19,8.97-4,13-3.34,4.78-8.08,6.99-11,8,.76-1.05,1.91-2.76,3-5,4.08-8.39,2.44-14.11,5-23,.78-2.69,2.2-6.57,5-11,.34.59.68,1.25,1,2,.47,1.09.78,2.11,1,3Z"/>
    <circle class="cls-2" cx="220.23" cy="63.92" r="14.91"/>
    <circle class="cls-5" cx="219.92" cy="63.47" r="11.48"/>
    <circle cx="220.02" cy="64.31" r="6.96"/>
    <circle class="cls-2" cx="213.41" cy="56.63" r="4.7"/>
  </g>
</svg>