<?xml version="1.0" encoding="UTF-8"?>
<svg id="Layer_2" data-name="Layer 2" xmlns="http://www.w3.org/2000/svg" viewBox="0 0 2409.82 1178.84">
  <defs>
    <style>
      .cls-1 {
        fill: #609eff;
      }

      .cls-2 {
        fill: #00227c;
      }

      .cls-3 {
        fill: #e4e0de;
      }

      .cls-4 {
        fill: #ffca97;
      }

      .cls-5 {
        fill: #376fff;
      }

      .cls-6 {
        fill: #a0a2a4;
      }

      .cls-7 {
        fill: #ff7959;
      }

      .cls-8 {
        fill: #ff4c22;
      }

      .cls-9 {
        fill: #ccc;
      }

      .cls-10 {
        fill: #670e00;
      }

      .cls-11 {
        fill: #6ec9ff;
      }

      .cls-12 {
        fill: #fff;
        opacity: .68;
      }
    </style>
  </defs>
  <g id="Layer_1-2" data-name="Layer 1">
    <rect class="cls-11" y="0" width="2409.82" height="724.49"/>
    <path class="cls-1" d="M2409.82,628.52c-97.43,5.85-245.47,11.21-425.16,3.07-333.05-15.09-376.6-58.5-698.6-87.49-120-10.8-480.66-37.86-929.7,21.49-148.26,19.6-270.52,43.87-356.36,62.93v-328.48c138.71-45.1,351.79-100.26,615.69-109.71,438.21-15.68,502.3,113.1,852.08,58.33,283.38-44.37,412.62-155.72,679.2-112.05,116.93,19.16,206.88,59.39,262.86,89.03v402.88Z"/>
    <path class="cls-5" d="M2409.82,876.92c-97.43,5.85-245.47,11.21-425.16,3.07-333.05-15.09-376.6-58.5-698.6-87.49-120-10.8-480.66-37.86-929.7,21.49-148.26,19.6-270.52,43.87-356.36,62.93.59-141.37,1.18-282.74,1.76-424.11,37.95-4.89,96.3-10.96,167.59-12.28,229.35-4.24,381.98,44.65,480.73,65.7,356.35,75.95,398.6-141.91,851.2-88.72,198.46,23.32,310.8,74.39,605.1,84.42,126.84,4.32,231.66-.88,301.67-6.14.59,127.04,1.18,254.09,1.76,381.13Z"/>
    <path class="cls-2" d="M2409.82,1051.44c-97.43,5.85-245.47,11.21-425.16,3.07-333.05-15.09-376.6-58.5-698.6-87.49-120-10.8-480.66-37.86-929.7,21.49-148.26,19.6-270.52,43.87-356.36,62.93v-328.48c271.88-33.59,495.24-41.39,650.09-42.21,408.54-2.16,430.3,43.81,841.5,33.77,198.68-4.85,345.92-19.31,626.27-9.21,123.53,4.45,224.89,11.94,291.97,17.65v328.48Z"/>
    <circle class="cls-12" cx="775.92" cy="388.34" r="46.05"/>
    <path class="cls-4" d="M2409.82,1178.84H0v-267.27c128.25-14.52,322.54-30.74,559.23-26.85,293.28,4.82,317.65,35.02,605.1,43.94,327.21,10.15,399.71-25.76,832.68-26.85,179.35-.45,324.34,5.31,412.81,9.76v267.27Z"/>
    <circle class="cls-12" cx="939.39" cy="254.03" r="28.4"/>
    <ellipse class="cls-12" cx="1543.39" cy="525.72" rx="39.91" ry="39.14"/>
    <circle class="cls-12" cx="1732.19" cy="629.33" r="46.05"/>
    <circle class="cls-12" cx="1685.38" cy="329.25" r="39.14"/>
    <circle class="cls-12" cx="436.31" cy="569.08" r="28.78"/>
    <path class="cls-8" d="M394.12,985.43c16.77-12.03,11.81-25.81,27.63-47.58,19.51-26.85,36.56-19,59.86-44.51,18.57-20.34,38.48-58.98,23.02-79.82-10.75-14.49-38.06-19.64-52.19-9.21-19.71,14.56-3.67,52.01-23.02,62.93-10.14,5.72-25.31,1.52-33.77-6.14-5.29-4.79-9.52-12.35-10.74-30.7-2.81-42,15.68-57.08,7.67-72.14-10.29-19.36-57.09-25.07-75.21-6.14-18.97,19.81-3.57,63.52,9.21,99.77,14.35,40.71,26.07,45.81,26.09,72.14.03,34.82-20.46,52.36-10.74,64.47,8.81,10.99,35.55,8.86,52.19-3.07Z"/>
    <path class="cls-10" d="M312.77,759.8c.82,5.85,15.21,8.21,30.7,10.74,7.68,1.26,46.57,7.63,50.65-3.07,2.85-7.46-11.38-22.82-27.63-27.63-25.48-7.55-54.96,11.11-53.72,19.95Z"/>
    <circle class="cls-7" cx="344.23" cy="823.5" r="18.42"/>
    <circle class="cls-7" cx="394.12" cy="953.2" r="18.42"/>
    <path class="cls-7" d="M441.81,826.11c2.99-2.13,6.66-3.38,10.64-3.38,10.18,0,18.42,8.24,18.42,18.42s-8.24,18.42-18.42,18.42c-5.43,0-10.3-2.35-13.68-6.08l3.04-27.38Z"/>
    <path class="cls-7" d="M352,914.06c4.68,1.73,9.13,1.47,11.79-1.18,4.45-4.45,2.23-13.88-4.97-21.07-5.82-5.82-13.09-8.38-18-6.78l11.19,29.04Z"/>
    <path class="cls-7" d="M409.47,868.58v.2c0,8.47-6.88,15.35-15.35,15.35s-15.35-6.88-15.35-15.35c0-7.11,4.84-13.09,11.4-14.83l19.29,14.63Z"/>
    <path class="cls-7" d="M438.93,921.2c-3.04-3.27-4.9-7.67-4.9-12.51,0-10.18,8.24-18.42,18.42-18.42,8.49,0,15.63,5.73,17.76,13.54l-31.28,17.39Z"/>
    <path class="cls-10" d="M451.68,803.54c-1.61,6.86,22.06,17.31,24.56,18.42,9.26,4.09,30.34,11.64,33.77,6.14,3.17-5.09-8.61-21.55-24.56-27.63-14.48-5.52-32.46-2.51-33.77,3.07Z"/>
    <path class="cls-9" d="M2409.82,761.33c-73.01,19.03-132.7,22.23-174.31,21.49-72.95-1.29-104.55-14.93-192.4-12.28-73.08,2.21-124.59,4.35-141.42,33.77-9.99,17.44,1.59,28.13,1.64,118.19.01,16.5-.2,28.74-.62,35.44-1.79,28.38-6.17,44.1-5.96,75.08.24,33.87,7.49,82.68,41.11,142.75,157.32.51,314.64,1.02,471.96,1.53v-415.97Z"/>
    <path class="cls-3" d="M1901.68,804.18c1.12,10.09,35,16.27,55.91,20.09,85.69,15.65,120.72-5.44,198.98,6.03,51.02,7.48,47.36,18.08,105.25,28.13,59.48,10.32,112.8,7.71,148,4.02v-97.44c-26.38,5.39-70.17,12.77-124.98,14.06-115.55,2.74-161.75-24.36-263.12-13.06-57.54,6.41-121.63,23.94-120.05,38.17Z"/>
    <path class="cls-6" d="M2075.23,830.65c-13.71,11.32-32.32,30.27-40.66,58.09-8.58,28.61-.62,44.53,0,90.56.39,29.15-3.09,86.6-16.88,89.03-16.35,2.88-49.63-62.84-58.33-128.94-6.08-46.17.82-85.18,7.62-110.78,13.28,2.9,29.09,5.34,46.98,6.13,23.97,1.06,44.78-1.13,61.28-4.08Z"/>
    <circle class="cls-12" cx="1155.05" cy="410.6" r="28.78"/>
    <circle class="cls-12" cx="2066.81" cy="155.8" r="28.78"/>
  </g>
</svg>