<?xml version="1.0" encoding="UTF-8"?>
<svg id="Layer_2" data-name="Layer 2" xmlns="http://www.w3.org/2000/svg" viewBox="0 0 126.28 133.29">
  <defs>
    <style>
      .cls-1 {
        fill: none;
      }

      .cls-1, .cls-2, .cls-3, .cls-4, .cls-5, .cls-6 {
        stroke: #000;
        stroke-miterlimit: 10;
      }

      .cls-2 {
        fill: #fef2f7;
      }

      .cls-7, .cls-4 {
        fill: #fff;
      }

      .cls-3, .cls-8 {
        fill: #e9e5f2;
      }

      .cls-5 {
        fill: #f9f0f6;
      }

      .cls-6 {
        fill: #f6d4e5;
      }

      .cls-9 {
        fill: #333;
      }
    </style>
  </defs>
  <g id="Layer_1-2" data-name="Layer 1">
    <g>
      <path class="cls-6" d="M37.45,84.68c-1.27-1.52-3.25-3.72-6-6-11.95-9.91-20.75-6.92-27-15-3.33-4.3-5.2-10.99-3-17,2.37-6.49,8.43-9.32,10-10-2.58-6.92-.51-14.63,5-19,4.72-3.75,11.29-4.5,17-2,.52-6.26,4.39-11.69,10-14,6.51-2.68,14.27-.69,19,5,.29-.3,7.31-7.36,17-5,6.38,1.55,11.4,6.58,13,13,.89-.12,10.32-1.23,17,6,5.69,6.16,5.11,13.77,5,15,.83.39,9.17,4.43,11,14,1.99,10.38-5.54,17.57-6,18-5.24.52-16.16,2.44-25,11-2.05,1.99-3.69,4.04-5,6,7,3.33,14,6.67,21,10,2.56-.1,7.4.08,11,3,1.83,1.48,1.98,2.57,2,3,.1,2.31-2.81,3.9-3,4-.11,1.08-.96,8.26-7,12-2.24,1.38-4.46,1.84-6,2-.36.93-2.69,6.6-9,9-5.23,1.99-9.81.44-11,0-.95.96-4.84,4.64-11,5-7.39.44-12.24-4.24-13-5-.71.71-6.15,5.93-14,5-5.47-.65-8.93-3.91-10-5-.96.34-6.96,2.34-13-1-4.64-2.56-6.49-6.72-7-8-.92.02-5.97.01-10-4-4.46-4.43-4.07-10.19-4-11-.56-.4-1.86-1.45-2-3-.23-2.61,3.04-4.46,4-5,3.24-1.83,6.63-1.3,8-1,7.33-3.33,14.67-6.67,22-10Z"/>
      <path class="cls-5" d="M41.45,84.68c.56-3.64-5.03-7.36-9-10-10.05-6.69-15.71-4.07-21-10-.37-.42-6.06-6.99-4-15,1.58-6.15,6.73-9.27,8-10-.08-.83-.69-9.19,6-15,6.36-5.53,14.07-4.18,15-4,.57-5.96,4.48-11.05,10-13,6.03-2.14,12.9-.14,17,5,4.19-4.31,10.44-5.87,16-4,7.78,2.61,9.87,10.47,10,11,.76-.14,9.56-1.55,16,5,5.55,5.66,5.09,12.91,5,14,1.08.65,6.68,4.19,8,11,1.43,7.4-3.25,13.11-4,14-4.78,5.65-9.55,3.72-19,10-3.89,2.58-10.43,6.94-10,11,.76,7.17,22.86,9.76,25,10,4.43-.14,7.44,1.16,9,2,1.64.89,3.91,2.12,4,4,.09,1.84-1.96,3.27-3,4-3.3,2.3-7.08,2.21-9,2-.1.92-.74,5.89-5,9-4.18,3.05-10.16,3.08-15,0-.96,1.19-4.99,5.92-12,7-8.87,1.36-15.18-4.25-16-5-.97.85-7.15,6.08-16,5-7.53-.92-11.96-5.79-13-7-4.1,2.33-9.08,2.34-13,0-4.93-2.95-5.88-8.23-6-9-1.19.28-4.68.92-8-1-.99-.57-4-2.3-4-5,0-2.85,3.37-4.66,4-5,3.33-1.79,6.86-1.17,8-1,10.12,1.48,25.15-4.49,26-10Z"/>
      <path class="cls-3" d="M11.45,101.68c1.9-3.33,5.29-8.2,11-12,1.85-1.23,6.81-4.26,24-6,6.28-.64,18.22-1.51,34,0,15.05,1.44,19.71,3.72,22,5,6.51,3.64,10.62,8.57,13,12-2.08.25-4.82.95-7,3-3.16,2.97-2.28,6.09-5,8-2.93,2.06-5.35-.57-11,0-7.3.74-7.82,5.6-14,6-6.36.41-7.04-4.66-14-5-7.9-.39-9.82,6.01-17,5-5.57-.79-5.39-4.77-12-6-6.72-1.25-9.44,2.4-13,0-3.38-2.28-2.68-6.75-7-9-1.57-.82-3.09-.97-4-1Z"/>
      <path class="cls-1" d="M49.45,83.68c-1.08-5.38-3.44-13.52-9-22-8.43-12.87-19.5-19.29-25-22"/>
      <path class="cls-1" d="M55.45,82.68c.09-6.3-.37-13.77-2-22-3.58-18.04-11.2-31.57-17-40"/>
      <path class="cls-1" d="M63.45,82.68V12.68"/>
      <path class="cls-1" d="M70.45,82.68c.2-6.93.99-15.07,3-24,3.8-16.89,10.44-30.04,16-39"/>
      <path class="cls-1" d="M76.45,83.68c1.03-5.16,3-11.89,7-19,8.45-15.04,20.87-22.75,27-26"/>
      <circle class="cls-2" cx="62.95" cy="80.18" r="15.5"/>
      <g>
        <path class="cls-8" d="M46.45,96.18c1.86-1.73,8.16-7.14,17-6.49,7.05.52,12,4.61,14,6.49"/>
        <path d="M46.45,96.18c7.18-7.86,19.19-9.46,27.77-2.88,1.15.88,2.26,1.82,3.23,2.88-9.47-8.03-21.52-7.93-31,0h0Z"/>
      </g>
      <path d="M49.26,88.14c-2.07-1.02-4.43-1.55-6.81-1.46,2.35-.41,4.85-.24,7.19.54l-.38.93h0Z"/>
      <path d="M76.22,87.23c2-.87,4.22-1.05,6.23-.56-2.07-.16-4.12.38-5.77,1.44l-.47-.88h0Z"/>
      <path class="cls-1" d="M19.45,118.68c-.33-1-.67-2-1-3"/>
      <path class="cls-1" d="M39.45,127.68c-.92-.91-2.05-2.22-3-4-1.74-3.25-1.99-6.31-2-8"/>
      <polygon points="62.95 127.68 63.45 120.68 63.95 127.68 62.95 127.68 62.95 127.68"/>
      <path class="cls-1" d="M87.45,127.68c.87-.78,2.09-2.08,3-4,1.65-3.47,1.23-6.73,1-8"/>
      <path class="cls-1" d="M107.45,118.68c.33-1,.67-2,1-3"/>
      <path class="cls-1" d="M61.45,79.68c-.22,1.72,1,3,2,3s2.22-1.28,2-3"/>
      <circle class="cls-4" cx="54.38" cy="71.76" r="6.59"/>
      <circle class="cls-9" cx="54.58" cy="71.62" r="5.07"/>
      <circle cx="54.21" cy="71.67" r="3.07"/>
      <circle class="cls-7" cx="57.48" cy="68.62" r="2.08"/>
      <circle class="cls-4" cx="72.06" cy="72.09" r="6.59"/>
      <circle class="cls-9" cx="72.25" cy="71.94" r="5.07"/>
      <circle cx="71.88" cy="72" r="3.07"/>
      <circle class="cls-7" cx="75.16" cy="68.95" r="2.08"/>
    </g>
  </g>
</svg>