<?xml version="1.0" encoding="UTF-8"?>
<svg id="Layer_2" data-name="Layer 2" xmlns="http://www.w3.org/2000/svg" viewBox="0 0 302.61 246.21">
  <defs>
    <style>
      .cls-1 {
        fill: none;
      }

      .cls-1, .cls-2, .cls-3 {
        stroke: #000;
        stroke-miterlimit: 10;
      }

      .cls-4, .cls-3 {
        fill: #fff;
      }

      .cls-2 {
        fill: #a5d6f3;
      }

      .cls-5 {
        fill: #333;
      }
    </style>
  </defs>
  <g id="Layer_1-2" data-name="Layer 1">
    <g>
      <path class="cls-2" d="M69.4,127.58c-.34,4.9-.13,12.87,4,21,8.39,16.53,28.12,24.16,31,21,2.02-2.21-5.63-8.16-6-19-.32-9.53,5.16-17.78,11-24"/>
      <path class="cls-2" d="M20.4,110.58c-1.58-3.74-3.42-9.23-4-16-2.42-28.22,19.6-49.71,24-54,35.04-34.19,90.85-22.68,99-21,36.35,7.5,60.09,28.78,70,39,50.53,52.13,40.58,125.56,39,136,2.42.28,5.92.83,10,2,2.95.84,25.98,7.83,38,30,4.34,8.01,7.09,17.71,5,19-1.86,1.14-5.08-5.84-13-9-12.45-4.96-21.25,5.61-36,3-4.63-.82-11.44-3.22-19-11-7.39,6.81-13.74,8.57-18,9-10.91,1.09-15.2-5.87-26-4-9.69,1.68-14.87,8.79-17,7-2.16-1.82,2.03-10.14,3-12,4.03-7.72,14.38-22.33,44-35-2.64-6.05-6.96-14.39-14-23-16.94-20.72-37.82-28.63-52-34-8.39-3.18-32.13-11.34-63-10-24.44,1.06-37.14,1.61-51,10-8.52,5.16-18.08,13.64-29,11-1.12-.27-6.84-1.65-9-6-3.53-7.09,3.42-19.95,19-31Z"/>
      <path class="cls-3" d="M56.4,96.58c21.67-11.34,32.51-17.01,41-19,8.31-1.95,26.27-5.96,47-1,29.72,7.11,46.73,28.26,61,46,25.35,31.52,29.23,59.4,30,66,.4,3.42,3.06,23.24-2,25-2.92,1.01-7.41-4.31-8-5-3.77-4.46-3.2-7.82-6-15-1.53-3.91-3.72-7.25-8-14-2.52-3.98-5.83-9.2-10-14-7.27-8.37-14.79-12.75-24-18-9.26-5.28-17.59-8.71-24-11-25.36-9.07-46.19-9.52-68-10,0,0-26.91-.59-39,6-5.38,2.93-9,5-9,5-5.36,3.06-5.42,3.25-7,4-7.19,3.42-14.79,3.79-15,3-.15-.55,3.44-1.27,8-4,4.91-2.94,7.61-6.29,13-13,6.7-8.33,10.05-12.5,11-17,.58-2.75.67-5.74,3-9,2.08-2.91,4.73-4.34,6-5Z"/>
      <path class="cls-2" d="M144.4,20.58c7.17-5.63,18.58-13.03,34-17,25.17-6.48,51.64-1.41,52,3,.14,1.66-3.53,2.08-13,8-9.44,5.91-15.41,9.65-18,16-.92,2.25-3.17,9.14,2,20-6.69-5.85-15.98-12.83-28-19-10.88-5.58-20.93-8.93-29-11Z"/>
      <path class="cls-2" d="M110.4,96.58c-.38,4.38-.41,11.9,3,20,9.23,21.91,34.56,26.44,38,27,15.63,2.54,31.8-2.21,32-6,.11-2.16-5.05-2.54-12-8-8.01-6.3-9.19-12.13-14-18-4.33-5.28-12.24-11.39-28-14"/>
      <path class="cls-1" d="M4.4,144.58c2.1.34,5.28.63,9,0,9.83-1.67,16.03-8.5,20-13,5.59-6.33,12.53-14.19,15-25,.55-2.4,1.42-7.32,5-9,2.08-.98,4.37-.54,6,0"/>
      <path class="cls-1" d="M233.4,213.58c1.82-.25,5.58-1.05,9-4,6.41-5.54,6.06-13.89,6-15"/>
      <circle class="cls-3" cx="66.52" cy="83.63" r="11.38"/>
      <circle class="cls-5" cx="66.84" cy="83.35" r="8.76"/>
      <circle cx="66.21" cy="83.5" r="5.31"/>
      <circle class="cls-4" cx="71.46" cy="77.82" r="3.59"/>
    </g>
  </g>
</svg>