<?xml version="1.0" encoding="UTF-8"?>
<svg id="Layer_2" data-name="Layer 2" xmlns="http://www.w3.org/2000/svg" viewBox="0 0 276.71 244.76">
  <defs>
    <style>
      .cls-1 {
        fill: none;
      }

      .cls-1, .cls-2, .cls-3 {
        stroke: #000;
        stroke-miterlimit: 10;
      }

      .cls-4, .cls-2 {
        fill: #fff;
      }

      .cls-5 {
        fill: #333;
      }

      .cls-3 {
        fill: #520055;
      }
    </style>
  </defs>
  <g id="Layer_1-2" data-name="Layer 1">
    <g>
      <ellipse class="cls-3" cx="131.09" cy="117.67" rx="70" ry="59.5"/>
      <path class="cls-3" d="M109.59,79.67c-4.33-18.33-8.67-36.67-13-55,8.33,15.67,16.67,31.33,25,47"/>
      <path class="cls-3" d="M131.59,64.67V4.67c4.33,20,8.67,40,13,60"/>
      <path class="cls-3" d="M94.59,74.67c-5.67-18-11.33-36-17-54,8.67,14.67,17.33,29.33,26,44"/>
      <path class="cls-3" d="M158.59,71.67c14-12.33,28-24.67,42-37l-27,45"/>
      <path class="cls-3" d="M92.59,79.67c-13.67-8.33-27.33-16.67-41-25l30,39"/>
      <path class="cls-3" d="M85.59,72.67l-21-48c11.67,16.67,23.33,33.33,35,50"/>
      <path class="cls-3" d="M99.59,77.67c-1.33-12.67-2.67-25.33-4-38,4.67,12.67,9.33,25.33,14,38"/>
      <path class="cls-3" d="M151.59,65.67c5.33-18,10.67-36,16-54-.67,18-1.33,36-2,54"/>
      <path class="cls-3" d="M121.59,64.67c-2-14.67-4-29.33-6-44,5.33,14.67,10.67,29.33,16,44"/>
      <path class="cls-3" d="M144.59,70.67c3.67-16.67,7.33-33.33,11-50v57"/>
      <path class="cls-3" d="M175.59,87.67c7.33-9.67,14.67-19.33,22-29-4,11.67-8,23.33-12,35"/>
      <path class="cls-3" d="M181.59,93.67l42-6c-12,6.33-24,12.67-36,19"/>
      <path class="cls-3" d="M77.59,101.67c-12.33-2.67-24.67-5.33-37-8,10.67,8,21.33,16,32,24"/>
      <path class="cls-3" d="M197.59,100.67c26.33-2,52.67-4,79-6-26.33,6.33-52.67,12.67-79,19"/>
      <path class="cls-3" d="M73.59,88.67c-19.67-7.67-39.33-15.33-59-23l51,33"/>
      <path class="cls-3" d="M64.59,121.67c-11.67,6.67-23.33,13.33-35,20,14.33-3.33,28.67-6.67,43-10"/>
      <path class="cls-3" d="M63.59,112.67c-19.67,4.33-39.33,8.67-59,13h61"/>
      <path class="cls-3" d="M64.59,136.67c-10,12.33-20,24.67-30,37,13.67-7.67,27.33-15.33,41-23"/>
      <path class="cls-3" d="M72.59,141.67c-2.67,13-5.33,26-8,39,8.67-11.33,17.33-22.67,26-34"/>
      <path class="cls-3" d="M83.59,155.67c-6.33,17-12.67,34-19,51,11.33-13.33,22.67-26.67,34-40"/>
      <path class="cls-3" d="M92.59,164.67c2,13.33,4,26.67,6,40,1.67-15.33,3.33-30.67,5-46"/>
      <path class="cls-3" d="M115.59,168.67c2.67,17.33,5.33,34.67,8,52,2.67-19,5.33-38,8-57"/>
      <path class="cls-3" d="M188.59,150.67c19,8.67,38,17.33,57,26-17.33-14-34.67-28-52-42"/>
      <path class="cls-3" d="M144.59,166.67c15,17.67,30,35.33,45,53-10.33-21.33-20.67-42.67-31-64"/>
      <path class="cls-3" d="M173.59,164.67c13.67,17.33,27.33,34.67,41,52-10-20.67-20-41.33-30-62"/>
      <path class="cls-3" d="M197.59,121.67c17.33,13,34.67,26,52,39-20.33-8.33-40.67-16.67-61-25"/>
      <path class="cls-3" d="M160.59,160.67c8.67,10.33,17.33,20.67,26,31-3.67-12-7.33-24-11-36"/>
      <path class="cls-3" d="M167.59,154.67c18.67,5.67,37.33,11.33,56,17-14.67-8.67-29.33-17.33-44-26"/>
      <path class="cls-3" d="M189.59,112.67c15.33,3.67,30.67,7.33,46,11-15.33.67-30.67,1.33-46,2"/>
      <path class="cls-3" d="M131.59,170.67c4.33,24.67,8.67,49.33,13,74v-90"/>
      <path class="cls-3" d="M115.59,165.67c-4,17.67-8,35.33-12,53-1.33-21-2.67-42-4-63"/>
      <circle class="cls-2" cx="111.05" cy="107.54" r="14.13"/>
      <circle class="cls-5" cx="111.46" cy="107.23" r="10.88"/>
      <circle cx="110.67" cy="107.35" r="6.6"/>
      <circle class="cls-4" cx="117.7" cy="100.81" r="4.46"/>
      <circle class="cls-2" cx="142.5" cy="105.99" r="14.13"/>
      <circle class="cls-5" cx="142.92" cy="105.68" r="10.88"/>
      <circle cx="142.12" cy="105.8" r="6.6"/>
      <circle class="cls-4" cx="149.16" cy="99.26" r="4.46"/>
      <path class="cls-1" d="M123.59,130.67c.21,2.31,2.07,3.99,4,4,2.26.01,4.37-2.27,4-5"/>
    </g>
  </g>
</svg>