<?xml version="1.0" encoding="UTF-8"?>
<svg id="Layer_2" data-name="Layer 2" xmlns="http://www.w3.org/2000/svg" viewBox="0 0 92.11 143.74">
  <defs>
    <style>
      .cls-1 {
        fill: none;
      }

      .cls-1, .cls-2, .cls-3, .cls-4 {
        stroke: #000;
        stroke-miterlimit: 10;
      }

      .cls-5, .cls-2 {
        fill: #fff;
      }

      .cls-6 {
        fill: #333;
      }

      .cls-3 {
        fill: #fbaf34;
      }

      .cls-4 {
        fill: #f9a147;
      }
    </style>
  </defs>
  <g id="Layer_1-2" data-name="Layer 1">
    <g>
      <path class="cls-3" d="M83.58,59.03c1.19.43,3.27.95,5,0,2.59-1.42,2.91-5.32,3-8,.37-11.28-2.77-22.11-4-27-1.37-5.44-2.82-13.2-3-23-8.03,6.43-15.12,10.5-20,13-4.85,2.48-21.24,10.41-27,18-1.56,2.06-2.35,4.02-2,6,.49,2.8,3.06,4.45,4,5"/>
      <path class="cls-3" d="M36.58,74.03c-.84-.34-1.99-.93-3-2-2.93-3.11-2.4-7.8-2-11,.88-6.98,3.82-12.05,5-14,5.51-9.13,11.61-14.94,17-20,13.07-12.28,21.54-15.74,25-17,1.24-.45,2.28-.78,3-1,.25.69.61,1.73,1,3,3.05,9.88,2.97,17.53,2,36-.28,5.27-1.2,21.52-5,28-.89,1.52-3.44,5.86-8,7h0c-.37.23-1.37.78-2.71.7-1.93-.12-3.08-1.45-3.29-1.7.33-1,.67-2,1-3-1.41-.7-3.37-1.92-5-4-2.07-2.65-1.6-4.14-3-6-2.87-3.82-10.47-5.07-16-2-3.73,2.08-5.39,5.5-6,7Z"/>
      <path class="cls-3" d="M34.58,77.03c-.87-.98-4.1,2.08-10,3-2.31.36-7.85,1.23-12-2-1.58-1.23-4.3-4.09-5-8-.36-1.99-.03-3.39-1-4-1.25-.79-3.73.32-5,2-1.28,1.7-1.12,3.72-1,5,.47,4.99,4.13,8.23,5,9,3.14,2.78,6.52,3.49,9,4,2.15.44,11.37,2.33,17-3,2.21-2.09,3.74-5.17,3-6Z"/>
      <ellipse class="cls-4" cx="19.59" cy="83.73" rx="1" ry="1.5" transform="translate(-65.37 96.96) rotate(-85.68)"/>
      <path class="cls-3" d="M64.58,102.03c.33,2.06.15,3.44,1,6,1.32,3.96,3.16,4.84,5,8,2.95,5.07,3.97,12.65,1,15-1.5,1.19-4.23,1.2-6,0-.22-.15-1.77-1.23-2-3-.21-1.57.86-1.95,1-4,.13-1.94-.69-3.45-1-4-.99-1.77-2.45-2.63-3-3-4.67-3.16-6.01-13.05-5-20,.25-1.7.77-4.16,2-7,4.95,4.78,6.51,8.98,7,12Z"/>
      <ellipse class="cls-4" cx="59.87" cy="112.3" rx="1" ry="1.5" transform="translate(-30.76 22.95) rotate(-17.34)"/>
      <path class="cls-3" d="M36.58,74.03c-.92,1.66-2.47,3.97-5,6-5.88,4.72-10.4,2.57-17,6-8.63,4.49-11.62,13.77-12,15-2.03,6.62-.76,12.38,0,15-.37.79-.76,1.8-1,3-1.28,6.33,2.29,13.23,4,13,1.59-.22,2.98-6.83,1-12-.74-1.94-1.29-1.93-2-4-1.31-3.85-.59-7.34,0-10,.68-3.06,1.62-7.32,5-11,2.78-3.03,6.56-4.39,14-7,4.09-1.43,7.56-2.39,10-3-1.05,1.05-2.71,2.56-5,4-4.29,2.7-5.97,2.13-9,4-4.54,2.8-6.3,7.49-8,12-1.45,3.87-2.95,7.85-1,10,1.16,1.28,3.48,1.83,5,1,2.17-1.18,1.05-4.23,3-9,1.7-4.16,4.53-6.71,6-8,3.29-2.9,6.72-4.3,9-5-4.34,3.69-6.72,7.5-8,10-.8,1.56-6.29,12.27-2,19,.47.73,1.9,2.97,4,3,1.74.02,3.32-1.48,4-3,1.06-2.37-.59-3.67-1-8-.14-1.43-.59-6.14,2-10,.74-1.1,1.83-2.07,4-4,2-1.78,3.77-3.11,5-4-.62,1.77-1.46,4.53-2,8-1.08,6.92.45,7.73-1,12-.91,2.68-2.28,4.65-4,10-.35,1.09-.89,2.87,0,4,.89,1.14,2.74,1.02,3,1,3.54-.27,5.86-4.79,7-7,2.64-5.14,2.91-10.1,3-12,.16-3.61-.38-4.45,0-8,.37-3.45,1.28-6.2,2-8-1.22,6.94-.2,11.8,1,15,1.48,3.96,3.26,5.45,3,9-.22,3.01-1.67,4.2-2,9-.26,3.69.48,4.6,1,5,1.09.84,2.84.63,4,0,1.43-.77,2.22-2.31,3-6,.91-4.27,1.54-7.28,1-12-.61-5.26-1.95-6.31-3-11-.76-3.39-1.31-8.4,0-15,.57,2.03,1.68,5.05,4,8,2.88,3.66,5.4,4.38,14,10,8.14,5.32,9.34,6.93,10,8,2.75,4.44,2.56,9.53,2,13-1.13.25-2.66.78-4,2-3.64,3.3-3.99,9.85-2,11,1.81,1.04,6.41-1.92,8-6,1.18-3.03.38-5.88,0-7,.62-6.37-1.01-10.84-2-13-3.08-6.74-8.95-10.86-12-13-1.82-1.28-1.78-1.03-3-2-1.59-1.26-7.19-5.69-8-13-.49-4.42.97-8.03,2-10-1.83-.82-4.34-2.3-6-5-1.43-2.32-.89-3.36-2-5-2.62-3.86-10.42-5.11-16-2-3.64,2.03-5.32,5.37-6,7Z"/>
      <ellipse class="cls-4" cx="4.58" cy="70.53" rx="1" ry="1.5"/>
      <ellipse class="cls-4" cx="5.58" cy="74.53" rx="1" ry="1.5" transform="translate(-22.51 5.27) rotate(-17.8)"/>
      <ellipse class="cls-4" cx="8.59" cy="78.73" rx="1" ry="1.5" transform="translate(-55.87 32.72) rotate(-48.26)"/>
      <ellipse class="cls-4" cx="11.59" cy="81.73" rx="1" ry="1.5" transform="translate(-67.75 58.95) rotate(-65.91)"/>
      <ellipse class="cls-4" cx="15.59" cy="82.73" rx="1" ry="1.5" transform="translate(-68.59 82.48) rotate(-79.16)"/>
      <ellipse class="cls-4" cx="1.58" cy="72.53" rx="1" ry="1.5"/>
      <ellipse class="cls-4" cx="2.59" cy="76.73" rx="1" ry="1.5" transform="translate(-12.09 1.37) rotate(-9.09)"/>
      <ellipse class="cls-4" cx="5.59" cy="80.73" rx="1" ry="1.5" transform="translate(-42.26 15.47) rotate(-32.29)"/>
      <ellipse class="cls-4" cx="8.59" cy="83.73" rx="1" ry="1.5" transform="translate(-68.22 49.3) rotate(-60)"/>
      <ellipse class="cls-4" cx="12.7" cy="85.46" rx="1.29" ry="1.5" transform="translate(-71.52 66.16) rotate(-68.64)"/>
      <ellipse class="cls-4" cx="59.58" cy="99.53" rx="1" ry="1.5"/>
      <ellipse class="cls-4" cx="59.58" cy="103.53" rx="1" ry="1.5"/>
      <ellipse class="cls-4" cx="60.58" cy="107.53" rx="1" ry="1.5"/>
      <ellipse class="cls-4" cx="62.58" cy="111.53" rx="1" ry="1.5" transform="translate(-18.08 12.29) rotate(-9.81)"/>
      <ellipse class="cls-4" cx="64.87" cy="115.3" rx="1" ry="1.5" transform="translate(-18.69 12.73) rotate(-9.81)"/>
      <ellipse class="cls-4" cx="66.87" cy="119.3" rx="1" ry="1.5" transform="translate(-32.52 25.36) rotate(-17.34)"/>
      <ellipse class="cls-4" cx="67.58" cy="123.53" rx="1" ry="1.5"/>
      <ellipse class="cls-4" cx="67.58" cy="127.53" rx="1" ry="1.5"/>
      <ellipse class="cls-4" cx="64.58" cy="127.53" rx="1" ry="1.5"/>
      <ellipse class="cls-4" cx="64.58" cy="123.53" rx="1" ry="1.5"/>
      <ellipse class="cls-4" cx="63.58" cy="119.53" rx="1" ry="1.5" transform="translate(-32.74 24.39) rotate(-17.34)"/>
      <ellipse class="cls-4" cx="61.58" cy="116.53" rx="1" ry="1.5" transform="translate(-31.94 23.65) rotate(-17.34)"/>
      <path class="cls-1" d="M44.58,84.03c-.27.82.18,1.73,1,2s1.73-.18,2-1"/>
      <circle class="cls-2" cx="60.94" cy="74.42" r="8.11"/>
      <circle class="cls-6" cx="61.23" cy="74.34" r="6.24"/>
      <circle cx="60.78" cy="74.24" r="3.78"/>
      <circle class="cls-5" cx="65.9" cy="72.22" r="2.56"/>
      <circle class="cls-2" cx="43.32" cy="68.48" r="8.11"/>
      <circle class="cls-6" cx="43.6" cy="68.4" r="6.24"/>
      <circle cx="43.15" cy="68.3" r="3.78"/>
      <circle class="cls-5" cx="48.28" cy="66.28" r="2.56"/>
    </g>
  </g>
</svg>