<?xml version="1.0" encoding="UTF-8"?>
<svg id="Layer_2" data-name="Layer 2" xmlns="http://www.w3.org/2000/svg" viewBox="0 0 189.17 182.87">
  <defs>
    <style>
      .cls-1 {
        fill: none;
      }

      .cls-1, .cls-2, .cls-3, .cls-4, .cls-5 {
        stroke: #000;
        stroke-miterlimit: 10;
      }

      .cls-6, .cls-2 {
        fill: #fff;
      }

      .cls-3 {
        fill: #fef4f8;
      }

      .cls-7 {
        fill: #333;
      }

      .cls-4 {
        fill: #faf0f6;
      }

      .cls-5 {
        fill: #f9cadf;
      }
    </style>
  </defs>
  <g id="Layer_1-2" data-name="Layer 1">
    <g>
      <path class="cls-5" d="M157.46,176.52c-6.63,5.28-31.46-11.75-59.9-39.58-25.86,30.24-49.08,49.41-56.16,44.73-7.07-4.67,1.45-33.55,19.14-69.2C23.78,97.22-1.62,81.06.64,72.89s32.36-8.99,71.73-3.18C75.51,30.04,83.03.88,91.5.5c8.47-.38,18.55,28,25.19,67.23,38.7-9.27,68.75-11.12,71.73-3.18s-20.9,26.29-56.16,44.73c20.77,33.94,31.82,61.95,25.19,67.23Z"/>
      <path class="cls-4" d="M141.67,156.33c-4.86,3.87-23.07-8.61-43.91-29.02-18.96,22.17-35.98,36.22-41.17,32.8-5.19-3.43,1.06-24.6,14.03-50.73-26.95-11.18-45.57-23.03-43.91-29.02s23.72-6.59,52.58-2.33c2.3-29.08,7.82-50.46,14.03-50.73,6.21-.28,13.6,20.53,18.47,49.29,28.37-6.8,50.4-8.15,52.58-2.33,2.18,5.82-15.32,19.28-41.17,32.8,15.23,24.88,23.33,45.42,18.47,49.29Z"/>
      <path class="cls-1" d="M89.02,106.18c.2.23,3.35,3.73,8,3,3.77-.59,5.7-3.53,6-4"/>
      <circle class="cls-3" cx="52.52" cy="86.68" r="2.5"/>
      <circle class="cls-3" cx="37.18" cy="83.17" r="3.84"/>
      <circle class="cls-3" cx="22.68" cy="79.67" r="5.34"/>
      <circle class="cls-3" cx="94.25" cy="56.89" r="2.5"/>
      <circle class="cls-3" cx="93.73" cy="41.16" r="3.84"/>
      <circle class="cls-3" cx="93.41" cy="26.25" r="5.34"/>
      <circle class="cls-3" cx="137.57" cy="84.97" r="2.5"/>
      <circle class="cls-3" cx="152.22" cy="79.23" r="3.84"/>
      <circle class="cls-3" cx="166.17" cy="73.95" r="5.34"/>
      <circle class="cls-3" cx="72.92" cy="134.06" r="2.5"/>
      <circle class="cls-3" cx="64.51" cy="147.36" r="3.84"/>
      <circle class="cls-3" cx="56.39" cy="159.87" r="5.34"/>
      <circle class="cls-3" cx="125.24" cy="131.42" r="2.5"/>
      <circle class="cls-3" cx="133.65" cy="144.72" r="3.84"/>
      <circle class="cls-3" cx="141.78" cy="157.23" r="5.34"/>
      <circle class="cls-2" cx="77.94" cy="85.55" r="14.13"/>
      <circle class="cls-7" cx="78.36" cy="85.24" r="10.88"/>
      <circle cx="77.56" cy="85.36" r="6.6"/>
      <circle class="cls-6" cx="84.6" cy="78.82" r="4.46"/>
      <circle class="cls-2" cx="109.4" cy="84" r="14.13"/>
      <circle class="cls-7" cx="109.81" cy="83.69" r="10.88"/>
      <circle cx="109.02" cy="83.82" r="6.6"/>
      <circle class="cls-6" cx="116.05" cy="77.27" r="4.46"/>
    </g>
  </g>
</svg>