<?xml version="1.0" encoding="UTF-8"?>
<svg id="Layer_2" data-name="Layer 2" xmlns="http://www.w3.org/2000/svg" viewBox="0 0 97 42">
  <defs>
    <style>
      .cls-1 {
        fill: #ffc86e;
      }

      .cls-2 {
        fill: #845600;
      }

      .cls-3 {
        fill: #bfbfbf;
      }
    </style>
  </defs>
  <g id="Layer_1-2" data-name="Layer 1">
    <g>
      <g>
        <path class="cls-2" d="M38.87,40.44H7.4c-2,0-3.62-1.62-3.62-3.62-2.24-8.81-1.32-14.38,0-17.88.54-1.44,1.73-4.07,1.72-7.74-.01-3.22-.94-5.85-1.72-7.56,0-.25.03-1.53,1.06-2.56C5.79.11,6.94.02,7.22,0h31.65c2,0,3.62,1.62,3.62,3.62-.84,1.76-1.79,4.38-1.72,7.56.07,3.39,1.26,5.83,1.72,6.88,1.49,3.43,2.46,9.09,0,18.75,0,.24-.02,1.53-3.62,3.62Z"/>
        <path class="cls-1" d="M36.72,37.72H10.05c-1.7,0-3.07-1.38-3.07-3.07-1.74-5.91-1.35-10.23-.61-13.14.63-2.52,1.74-4.84,1.72-8.6-.01-2.7-.6-4.92-1.11-6.39,0-.2.02-1.29.9-2.17.56-.56,1.32-.9,2.17-.9h26.67c1.7,0,3.07,1.38,3.07,3.07-.75,1.43-1.67,3.67-1.6,6.39.09,3.44,1.64,5.59,2.58,7.74,1.27,2.9,2.15,7.47,0,14.63-.23.39-.76,1.14-1.72,1.72-.97.58-1.88.7-2.33.72Z"/>
      </g>
      <rect class="cls-2" x="45" y="1" width="4" height="39" rx="1.07" ry="1.07" transform="translate(3.47 -6.6) rotate(8.34)"/>
      <rect class="cls-2" x="50.72" y=".82" width="4" height="39" rx="1.07" ry="1.07" transform="translate(6.73 -12.5) rotate(14.43)"/>
      <rect class="cls-2" x="71.5" y="17.5" width="4" height="39" rx="1.07" ry="1.07" transform="translate(110.5 -36.5) rotate(90)"/>
      <rect class="cls-2" x="71.5" y="13.5" width="4" height="39" rx="1.07" ry="1.07" transform="translate(106.5 -40.5) rotate(90)"/>
      <rect class="cls-2" x="71.5" y="9.5" width="4" height="39" rx="1.07" ry="1.07" transform="translate(102.5 -44.5) rotate(90)"/>
      <rect class="cls-2" x="71.5" y="5.5" width="4" height="39" rx="1.07" ry="1.07" transform="translate(98.5 -48.5) rotate(90)"/>
      <rect class="cls-2" x="71.5" y="1.5" width="4" height="39" rx="1.07" ry="1.07" transform="translate(94.5 -52.5) rotate(90)"/>
      <rect class="cls-2" x="71.5" y="-2.5" width="4" height="39" rx="1.07" ry="1.07" transform="translate(90.5 -56.5) rotate(90)"/>
      <rect class="cls-3" y="38" width="97" height="4"/>
    </g>
  </g>
</svg>