<?xml version="1.0" encoding="UTF-8"?>
<svg id="Layer_2" data-name="Layer 2" xmlns="http://www.w3.org/2000/svg" viewBox="0 0 254.02 144.55">
  <defs>
    <style>
      .cls-1 {
        fill: #9ae7ff;
      }

      .cls-2 {
        fill: #dfefff;
      }

      .cls-3 {
        fill: #9adaff;
      }
    </style>
  </defs>
  <g id="Layer_1-2" data-name="Layer 1">
    <g>
      <path class="cls-1" d="M59.18,104.76c-2.93-3.76-9.69-12.26-21-19C18.35,73.95,2.16,78.09.18,70.76c-1.91-7.08,11.65-16.64,15-19,13.97-9.85,21.34-5.75,30-14,10.4-9.91,3.5-19.38,13-29C70.21-3.4,92.75.13,103.18,1.76c18.43,2.89,17.95,8.46,35,12,30.61,6.36,42.92-9.36,57,0,13.49,8.97,3.1,24.02,19,46,13.85,19.14,28.77,17.47,36,36,.89,2.28,8.18,20.96,0,31-15.18,18.65-60.04-21.54-114-5-28.76,8.82-44.17,28.86-57,21-9.35-5.73-4.94-18.69-20-38Z"/>
      <path class="cls-3" d="M117.21,9.76c2.19-2.36,15.18,11.16,36.57,12,18.54.73,31.59-8.53,33.25-6,1.31,1.99-6,9.04-14.41,13-1.48.7-18.1,8.22-35.46,1-13.58-5.65-21.87-17.93-19.95-20Z"/>
      <path class="cls-2" d="M170.18,110.76c.05-1.43,11.85-3.25,24-2,24.17,2.49,42.73,16.39,42,18-.5,1.09-9.73-3.93-31-9-21.58-5.15-35.06-5.46-35-7Z"/>
      <path class="cls-3" d="M12.18,69.76c.86,6.38,21.24,1.02,38,13,22.63,16.18,17.01,48.52,33,52,4.92,1.07,6.73-1.71,20-8,28.63-13.56,49.35-14.42,49-18-.37-3.77-22.99.23-49-13-4.87-2.48-8.58-4.98-16-10-18.88-12.76-28.32-19.14-28-26,.4-8.51,13.96-15.58,24-18,18.15-4.37,29.14,5.43,34,0,5.15-5.76-.42-24.37-14-32-11.08-6.23-25.27-3.91-33,3-6.29,5.62-3.63,10.11-11,20-2.8,3.76-5.62,6.38-21,17-21.73,15.02-26.42,16.91-26,20Z"/>
    </g>
  </g>
</svg>