<?xml version="1.0" encoding="UTF-8"?>
<svg id="Layer_2" data-name="Layer 2" xmlns="http://www.w3.org/2000/svg" viewBox="0 0 80.31 75.91">
  <defs>
    <style>
      .cls-1 {
        fill: #fffe99;
      }

      .cls-2 {
        fill: none;
        stroke: #33a545;
        stroke-miterlimit: 10;
      }

      .cls-3 {
        fill: #ff8f67;
      }
    </style>
  </defs>
  <g id="Layer_1-2" data-name="Layer 1">
    <g>
      <circle class="cls-1" cx="43.95" cy="20.24" r="5.5"/>
      <path class="cls-3" d="M49.81,20.38c1.53.58,3.95,1.74,6.02,4.09,2.63,2.98,4.75,7.9,3.2,9.47-1.38,1.4-5.26-.27-6.96-1.24-3.78-2.15-5.43-5.69-6.04-7.25.49-.18,1.86-.75,2.84-2.22.77-1.17.91-2.31.94-2.85Z"/>
      <path class="cls-3" d="M45.52,14.94c.98-1.31,2.77-3.32,5.59-4.66,3.59-1.71,8.9-2.39,9.99-.46.97,1.72-1.71,4.98-3.11,6.35-3.11,3.04-6.97,3.65-8.63,3.8-.04-.52-.21-2-1.36-3.34-.91-1.06-1.97-1.51-2.48-1.69Z"/>
      <path class="cls-3" d="M39.85,16.78c-1.03-1.35-2.52-3.7-3.09-6.86-.73-4.01.01-9.41,2.19-9.89,1.94-.43,4.43,3.17,5.4,4.94,2.16,3.95,1.73,7.9,1.44,9.57-.51-.12-2.01-.4-3.63.32-1.28.57-2,1.47-2.31,1.92Z"/>
      <path class="cls-3" d="M39.25,23.44c-1.6.38-4.25.76-7.28-.02-3.85-1-8.35-3.89-7.95-6.07.36-1.94,4.52-2.71,6.47-2.86,4.34-.33,7.68,1.69,9.06,2.64-.3.42-1.12,1.66-1.11,3.43.01,1.4.54,2.43.81,2.89Z"/>
      <path class="cls-2" d="M39.45,69.74c.54-4.04.86-9.56,0-16-.83-6.22-2.48-11.3-4-15"/>
      <circle class="cls-1" cx="33.95" cy="33.24" r="5.5"/>
      <path class="cls-2" d="M42.45,69.74c.04-2.54.07-6.76,0-12-.16-11.19-.64-14.86,0-21,.33-3.19,1.08-8.06,3-14"/>
      <path class="cls-2" d="M46.45,69.74c-.28-1.58-.69-5.14,1-9,3-6.84,10.04-8.76,11-9"/>
      <path class="cls-3" d="M35.45,38.74c-.07,1.64-.42,4.3-2,7-2,3.43-6.02,6.98-8,6-1.77-.88-1.39-5.08-1-7,.86-4.27,3.71-6.93,5-8,.32.41,1.29,1.53,3,2,1.35.37,2.48.14,3,0Z"/>
      <path class="cls-3" d="M39.81,33.38c1.53.58,3.95,1.74,6.02,4.09,2.63,2.98,4.75,7.9,3.2,9.47-1.38,1.4-5.26-.27-6.96-1.24-3.78-2.15-5.43-5.69-6.04-7.25.49-.18,1.86-.75,2.84-2.22.77-1.17.91-2.31.94-2.85Z"/>
      <path class="cls-3" d="M35.52,27.94c.98-1.31,2.77-3.32,5.59-4.66,3.59-1.71,8.9-2.39,9.99-.46.97,1.72-1.71,4.98-3.11,6.35-3.11,3.04-6.97,3.65-8.63,3.8-.04-.52-.21-2-1.36-3.34-.91-1.06-1.97-1.51-2.48-1.69Z"/>
      <path class="cls-3" d="M29.85,29.78c-1.03-1.35-2.52-3.7-3.09-6.86-.73-4.01.01-9.41,2.19-9.89,1.94-.43,4.43,3.17,5.4,4.94,2.16,3.95,1.73,7.9,1.44,9.57-.51-.12-2.01-.4-3.63.32-1.28.57-2,1.47-2.31,1.92Z"/>
      <path class="cls-3" d="M29.25,36.44c-1.6.38-4.25.76-7.28-.02-3.85-1-8.35-3.89-7.95-6.07.36-1.94,4.52-2.71,6.47-2.86,4.34-.33,7.68,1.69,9.06,2.64-.3.42-1.12,1.66-1.11,3.43.01,1.4.54,2.43.81,2.89Z"/>
      <circle class="cls-1" cx="62.95" cy="48.24" r="5.5"/>
      <path class="cls-3" d="M64.45,53.74c-.07,1.64-.42,4.3-2,7-2,3.43-6.02,6.98-8,6-1.77-.88-1.39-5.08-1-7,.86-4.27,3.71-6.93,5-8,.32.41,1.29,1.53,3,2,1.35.37,2.48.14,3,0Z"/>
      <path class="cls-3" d="M68.81,48.38c1.53.58,3.95,1.74,6.02,4.09,2.63,2.98,4.75,7.9,3.2,9.47-1.38,1.4-5.26-.27-6.96-1.24-3.78-2.15-5.43-5.69-6.04-7.25.49-.18,1.86-.75,2.84-2.22.77-1.17.91-2.31.94-2.85Z"/>
      <path class="cls-3" d="M64.52,42.94c.98-1.31,2.77-3.32,5.59-4.66,3.59-1.71,8.9-2.39,9.99-.46.97,1.72-1.71,4.98-3.11,6.35-3.11,3.04-6.97,3.65-8.63,3.8-.04-.52-.21-2-1.36-3.34-.91-1.06-1.97-1.51-2.48-1.69Z"/>
      <path class="cls-3" d="M58.85,44.78c-1.03-1.35-2.52-3.7-3.09-6.86-.73-4.01.01-9.41,2.19-9.89,1.94-.43,4.43,3.17,5.4,4.94,2.16,3.95,1.73,7.9,1.44,9.57-.51-.12-2.01-.4-3.63.32-1.28.57-2,1.47-2.31,1.92Z"/>
      <path class="cls-3" d="M58.25,51.44c-1.6.38-4.25.76-7.28-.02-3.85-1-8.35-3.89-7.95-6.07.36-1.94,4.52-2.71,6.47-2.86,4.34-.33,7.68,1.69,9.06,2.64-.3.42-1.12,1.66-1.11,3.43.01,1.4.54,2.43.81,2.89Z"/>
      <circle class="cls-1" cx="19.95" cy="57.24" r="5.5"/>
      <path class="cls-3" d="M21.45,62.74c-.07,1.64-.42,4.3-2,7-2,3.43-6.02,6.98-8,6-1.77-.88-1.39-5.08-1-7,.86-4.27,3.71-6.93,5-8,.32.41,1.29,1.53,3,2,1.35.37,2.48.14,3,0Z"/>
      <path class="cls-3" d="M25.81,57.38c1.53.58,3.95,1.74,6.02,4.09,2.63,2.98,4.75,7.9,3.2,9.47-1.38,1.4-5.26-.27-6.96-1.24-3.78-2.15-5.43-5.69-6.04-7.25.49-.18,1.86-.75,2.84-2.22.77-1.17.91-2.31.94-2.85Z"/>
      <path class="cls-3" d="M21.52,51.94c.98-1.31,2.77-3.32,5.59-4.66,3.59-1.71,8.9-2.39,9.99-.46.97,1.72-1.71,4.98-3.11,6.35-3.11,3.04-6.97,3.65-8.63,3.8-.04-.52-.21-2-1.36-3.34-.91-1.06-1.97-1.51-2.48-1.69Z"/>
      <path class="cls-3" d="M15.85,53.78c-1.03-1.35-2.52-3.7-3.09-6.86-.73-4.01.01-9.41,2.19-9.89,1.94-.43,4.43,3.17,5.4,4.94,2.16,3.95,1.73,7.9,1.44,9.57-.51-.12-2.01-.4-3.63.32-1.28.57-2,1.47-2.31,1.92Z"/>
      <path class="cls-3" d="M15.25,60.44c-1.6.38-4.25.76-7.28-.02-3.85-1-8.35-3.89-7.95-6.07.36-1.94,4.52-2.71,6.47-2.86,4.34-.33,7.68,1.69,9.06,2.64-.3.42-1.12,1.66-1.11,3.43.01,1.4.54,2.43.81,2.89Z"/>
      <path class="cls-2" d="M38.45,69.74c.07-.6.59-5.35-3-9-4.04-4.12-9.6-3.08-10-3"/>
    </g>
  </g>
</svg>