<?xml version="1.0" encoding="UTF-8"?>
<svg id="Layer_2" data-name="Layer 2" xmlns="http://www.w3.org/2000/svg" viewBox="0 0 38.59 64.86">
  <defs>
    <style>
      .cls-1 {
        fill: #4eab70;
      }

      .cls-2 {
        fill: #e6e4cc;
      }

      .cls-3 {
        fill: #d6d4c0;
      }
    </style>
  </defs>
  <g id="Layer_1-2" data-name="Layer 1">
    <g>
      <g>
        <path class="cls-1" d="M9.9,24.79C4.58,22.33,1.45,15.59,1.9,7.79c.67-.67,1.33-1.33,2-2,2.33,4.33,4.67,8.67,7,13,.67-.33,1.33-.67,2-1-2-4.33-4-8.67-6-13,1.67-.67,3.33-1.33,5-2,2,4.33,4,8.67,6,13,.67-.33,1.33-.67,2-1-1.67-4.33-3.33-8.67-5-13,1-.33,2-.67,3-1,5.94,5.21,8.79,12.19,7,18-.4,1.3-1.21,3.12-3,5,4.31,7.65,8.3,15,12,22,3.7,7.01,5.88,11.35,4,15-1.29,2.49-4.36,4.46-7,4-3.35-.59-5.12-4.95-8-14-2.01-6.32-4.51-14.78-7-25-2.81.21-4.81-.45-6-1Z"/>
        <path class="cls-1" d="M19.82,6.05c1.02-.28,6.15,9.38,3,14-.59.87-1.41,1.46-2,3-.85,2.22-.47,4.44,0,6-.45-1.22-1.3-2.94-3-4-2.18-1.35-3.97-.53-6-1-6.04-1.4-8.27-12.89-8-13,.15-.06,1.09,4.08,5,7,1.8,1.34,4.96,2.96,6,2,1.96-1.8-4.53-11.68-4-12,.55-.33,6.77,10.84,9,10,2.11-.79-1.05-11.71,0-12Z"/>
        <path class="cls-1" d="M25.82,55.05c.22,4,2.23,7.19,5,8,.61.18,1.63.35,3,0"/>
      </g>
      <g>
        <path class="cls-2" d="M8.04,24C2.72,21.53-.4,14.8.04,7c.67-.67,1.33-1.33,2-2,2.33,4.33,4.67,8.67,7,13l2-1c-2-4.33-4-8.67-6-13,1.67-.67,3.33-1.33,5-2,2,4.33,4,8.67,6,13l2-1c-1.67-4.33-3.33-8.67-5-13,1-.33,2-.67,3-1,5.94,5.21,8.79,12.19,7,18-.4,1.3-1.21,3.12-3,5,4.31,7.65,8.3,15,12,22,3.7,7.01,5.88,11.35,4,15-1.29,2.49-4.36,4.46-7,4-3.35-.59-5.12-4.95-8-14-2.01-6.32-4.51-14.78-7-25-2.81.21-4.81-.45-6-1Z"/>
        <path class="cls-3" d="M17.96,5.26c1.02-.28,6.15,9.38,3,14-.59.87-1.41,1.46-2,3-.85,2.22-.47,4.44,0,6-.45-1.22-1.3-2.94-3-4-2.18-1.35-3.97-.53-6-1C3.91,21.85,1.69,10.37,1.96,10.26c.15-.06,1.09,4.08,5,7,1.8,1.34,4.96,2.96,6,2,1.96-1.8-4.53-11.68-4-12,.55-.33,6.77,10.84,9,10,2.11-.79-1.05-11.71,0-12Z"/>
        <path class="cls-3" d="M23.96,54.26c.22,4,2.23,7.19,5,8,.61.18,1.63.35,3,0"/>
      </g>
    </g>
  </g>
</svg>