<?xml version="1.0" encoding="UTF-8"?>
<svg id="Layer_2" data-name="Layer 2" xmlns="http://www.w3.org/2000/svg" viewBox="0 0 340.7 519.94">
  <defs>
    <style>
      .cls-1 {
        fill: #484200;
      }

      .cls-1, .cls-2 {
        stroke: #534741;
        stroke-miterlimit: 10;
      }

      .cls-3 {
        fill: #ff5610;
      }

      .cls-4 {
        fill: #e6cecc;
      }

      .cls-5 {
        fill: #fff;
      }

      .cls-6 {
        opacity: .78;
      }

      .cls-7 {
        fill: #3c342d;
      }

      .cls-8 {
        fill: #9f8066;
      }

      .cls-9 {
        fill: #f0d0b4;
      }

      .cls-2 {
        fill: #605800;
      }

      .cls-10 {
        fill: #e6e4cc;
      }

      .cls-11 {
        fill: #ff9a70;
      }
    </style>
  </defs>
  <g id="Layer_1-2" data-name="Layer 1">
    <g>
      <g class="cls-6">
        <path class="cls-8" d="M313.26,326.28c-6.43,7.33-13.38,15.35-30.72,21.45-21.41,7.52-42.9,7.18-58.01,6.94-14.74-.23-36.64-.54-46.14-8.73-7.92-6.83-2.4-15.25,1.19-20.69,2.68-4.06,14.31-21.67,45.26-29.71,14.93-3.88,27.56-3.76,48.22-3.57,22.42.21,37.21.34,45.65,5.28,13.24,7.74,1.12,21.55-5.44,29.03Z"/>
        <path class="cls-8" d="M103.2,500.1c-1.41,2.27-3.64,5.48-7.07,9.34-3.66,4.11-4.96,4.77-5.64,5.08-5.82,2.69-14.7,2.6-32.22,2.31-16.12-.27-17.68-1.21-18.31-1.85-2.71-2.69,2.63-8.2,11.92-11.01,8.44-2.55,16.23-1.7,17.32-1.57,2.05-1.12,4.09-2.25,6.14-3.37,9.29.36,18.58.71,27.87,1.07Z"/>
        <path class="cls-8" d="M129.66,501.78c-2.02,2.26-4.66,5.47-7.07,9.34-2.57,4.12-2.27,4.79-2.08,5.11,1.7,2.75,10.61,2.8,28.36,2.78,16.33-.01,19.3-.93,20.89-1.55,6.73-2.62,9.75-8.14,4.79-11.06-4.49-2.65-13.48-1.93-14.75-1.82-.33-1.14-.66-2.28-.99-3.42-9.72.21-19.44.42-29.15.63Z"/>
        <path class="cls-8" d="M226.2,322.4c-2.77,3.65-11.22,6.57-18.89,6.51-7.67-.06-11.64-3.07-8.87-6.72s11.22-6.57,18.89-6.51c7.67.06,11.64,3.07,8.87,6.72Z"/>
        <path class="cls-8" d="M225.46,323.38c-2.15,2.84-8.73,5.11-14.69,5.06-5.96-.05-9.05-2.39-6.9-5.23,2.15-2.84,8.73-5.11,14.69-5.06s9.05,2.39,6.9,5.23Z"/>
        <path class="cls-8" d="M266.97,323.21c-2.77,3.65,1.21,6.66,8.87,6.72,7.67.06,16.13-2.85,18.89-6.51,2.77-3.65-1.21-6.66-8.87-6.72-7.67-.06-16.13,2.85-18.89,6.51Z"/>
        <path class="cls-8" d="M266.23,324.19c-2.15,2.84.94,5.18,6.9,5.23s12.54-2.22,14.69-5.06-.94-5.18-6.9-5.23c-5.96-.05-12.54,2.22-14.69,5.06Z"/>
        <path class="cls-8" d="M182.54,321.33c-.55-.72-1.94-2.05-5.34-2.51-6.56-.88-16.52,2.04-21.56,5.25-3.87,2.47-4.26,4.75-4.45,5.88-.9,5.31,7.39,7.66,8.46,7.95,5.47,1.47,11.73,1.28,14.68,1.1-.09-2.74.48-6.42,3.02-10.82,1.48-2.56,3.33-4.88,5.19-6.86Z"/>
        <path class="cls-8" d="M316.19,323.1c.96-.34,8.09-2.79,15.22-2.35,8.82.55,9.26,5,9.29,5.49.28,4.74-9.84,9.04-11.53,9.77-2.64,1.12-9.24,3.63-17.74,4.3-6.01.47-10.12-.2-11.97-.59,3.24-2.63,6.57-5.57,9.76-8.79,2.78-2.8,5.07-5.43,6.97-7.83Z"/>
        <path class="cls-8" d="M176.78,320.05c28.75-2.83,47.83-8.04,60.04-12.35,11.57-4.08,19.4-8.21,27.9-8.16,9.62.05,10.81,5.38,16.89,10.48,5.53,4.64,16.45,10.22,40.37,13.62,2-1.67,24.24-20.91,6.11-34.7-11.11-8.44-31.31-10.24-40.54-10.66-9.91-.46-37.87-.75-67.07,9.34-37.12,12.83-43.29,31.06-43.7,32.43Z"/>
        <path class="cls-8" d="M266.57,279.35c-4.76-1.76-1.78-9.36,10.02-13.23,11.16-3.66,24.28-2.49,27.68,1.69,3.23,3.97-3.12,10.14-9.93,11.75-3.44.81-4.69-.09-15.43-.12-8.78-.02-10.54.57-12.34-.1Z"/>
        <path class="cls-8" d="M183.01,504.41c-5.65-.52-14.15-1.12-24.97-1.18-15.26-.08-19.88,1-30.94,1.24-29.67.63-32.63-6.38-58.36-4.89-10.83.63-20.58,2.46-28.02,4.22,8.65-11.92,19.38-25.05,32.77-39.17,15.76-16.62,32.41-31.68,48.53-44.96,35.65.28,71.3.55,106.95.83-.82,11.17-4.18,25.65-13.77,42.77-9,16.05-21.03,30.05-32.2,41.15Z"/>
        <path class="cls-8" d="M200.54,354.24c-8.42.36-21.87,1.52-36.33,5.63-16.11,4.58-23.58,10.1-44.63,24.79-41.1,28.67-47.46,32.02-45.68,37.1,2.58,7.4,20.46,12.79,33.06,9.62,10.12-2.55,14.19-9.95,15.08-11.71,13.49,1.13,29.12,2.02,46.85,2.33,21.02.37,40.55-.14,57.67-1.03-6.06,6.19-6.46,11.72-.11,13.8,8.13,2.65,25.98-.78,36.99-5.13,18.3-7.24,18.91-24.16,20.13-58,.09-2.46.11-7.1-6.23-10.89-8.23-4.92-22.48-5.58-29.85-5.65-8.07,4.37-19.8,6.98-29.88,6.67-9.6-.3-16.19-3.21-17.06-7.52Z"/>
        <path class="cls-8" d="M217.6,361.76c-16.45,21.72-32.9,43.44-49.35,65.16,6.35.24,15.34.24,26.45-.78,13.28-1.22,24.4-3.44,31.85-5.17"/>
        <path class="cls-8" d="M167.6,378.62c-15.19,13.68-30.38,27.36-45.56,41.04"/>
        <path class="cls-8" d="M243.37,379.39c-5.59,13.76-11.18,27.51-16.77,41.27"/>
        <path class="cls-8" d="M260.35,334c.67.88,1.3,2.03,1.52,3.46.16,1.08.05,2.09-.17,2.96"/>
        <path class="cls-8" d="M220.1,333.63c-1.75.7-3.97,1.69-6.2,2.97-2.23,1.28-3.76,2.45-4.79,3.35"/>
        <path class="cls-8" d="M219.82,341.08c2.07.6,6.11,1.52,12.26,1.57,7.44.06,13.91-1.18,16.91-1.84"/>
        <path class="cls-8" d="M200.92,353.75c.03.52.15,1.21.57,1.98,1.71,3.07,7.43,5.64,16.11,6.04,8.75.4,21.36-1.37,27.73-5.21,1.23-.74,2.01-1.43,2.51-1.95-6.98.29-14.73.44-23,.31-9.12-.14-17.11-.59-23.94-1.17Z"/>
      </g>
      <g>
        <path class="cls-9" d="M164.29,126.17c-.85,14.97-1.7,31.36-14,44-15.19,15.61-36.22,15.25-51,15-14.42-.24-35.81-.51-51-17-12.66-13.74-13.49-30.91-14-42-.38-8.28-2.04-44.2,22-61,11.6-8.1,23.89-8.06,44-8,21.82.07,36.22.11,48,10,18.46,15.49,16.86,43.72,16,59Z"/>
        <path class="cls-7" d="M88.48,482.17c.29,4.63.5,11.18,0,19.06-.53,8.39-1.31,9.75-1.73,10.4-3.65,5.55-12.31,5.51-29.46,5.2-15.78-.29-17.98-2.19-19.06-3.47-4.59-5.42-3.46-16.67,3.47-22.53,6.29-5.31,14.44-3.71,15.59-3.47,1.16-2.31,2.31-4.62,3.47-6.93,9.24.58,18.48,1.16,27.72,1.73Z"/>
        <path class="cls-7" d="M115.28,485.17c-.29,4.63-.5,11.18,0,19.06.53,8.39,1.31,9.75,1.73,10.4,3.65,5.55,12.31,5.51,29.46,5.2,15.78-.29,17.98-2.19,19.06-3.47,4.59-5.42,3.46-16.67-3.47-22.53-6.29-5.31-14.44-3.71-15.59-3.47-1.16-2.31-2.31-4.62-3.47-6.93-9.24.58-18.48,1.16-27.72,1.73Z"/>
        <circle class="cls-5" cx="63.79" cy="119.67" r="13.5"/>
        <circle cx="66.79" cy="121.67" r="10.5"/>
        <circle class="cls-5" cx="130.79" cy="120.67" r="13.5"/>
        <circle cx="127.79" cy="122.67" r="10.5"/>
        <path class="cls-9" d="M34.29,118.17c-1.06-1.45-3.37-4.13-7-5-6.98-1.68-14.48,4.39-17,11-1.93,5.07-.64,9.7,0,12,3.01,10.79,12.76,15.43,14,16,6.37,2.91,12.27,2.42,15,2-2.1-5.56-4.23-13.03-5-22-.45-5.23-.35-9.95,0-14Z"/>
        <path class="cls-9" d="M164.79,119.67c.68-.7,5.78-5.79,13-5,8.93.98,12.61,10.01,13,11,3.74,9.62-2.89,18.51-4,20-1.73,2.32-6.28,7.51-14,9-5.46,1.05-9.93-.25-12-1,1.2-5.39,2.27-11.41,3-18,.64-5.73.93-11.09,1-16Z"/>
        <path class="cls-4" d="M27.79,115.67c25.72-6.19,40.35-17.07,49-26,8.2-8.46,12.75-16.96,21-17,9.33-.05,14.39,10.75,24,21,8.74,9.32,23.39,20.48,49,27,.7-3.43,8.12-42.82-19.5-70.5-16.92-16.95-37.76-20.28-47-21-9.92-.77-37.16-.93-58,20-26.49,26.62-19.11,63.7-18.5,66.5Z"/>
        <path class="cls-4" d="M84.79,31.67c-5.89-3.5-8.57-18.96,0-27,8.11-7.61,21.65-5.44,28,3,6.02,8,4.41,20.63-1,24-2.73,1.7-4.6-.11-15,0-8.51.09-9.77,1.32-12,0Z"/>
        <path class="cls-10" d="M168.79,489.67c-5.84-.97-14.5-2.06-25-2-14.81.08-18.48,2.35-29,3-28.22,1.75-36.21-12.43-60-9-10.01,1.44-18.09,5.32-24,9-.36-24.33.4-51.14,3-80,3.06-33.97,8.14-64.79,14-92h104c7.39,22.68,14.75,52.12,18,87,3.05,32.71,1.66,61.3-1,84Z"/>
        <path class="cls-2" d="M75.79,184.67c-7.88.86-20.03,3.43-31,12-12.22,9.55-15.4,20.87-25,51C1.05,306.49-2.64,313.39,2.79,323.67c7.92,14.98,29.14,25.63,39,19,7.92-5.33,6.43-20.41,6-24,13.87,2.08,29.64,3.64,47,4,20.59.42,39.1-.93,55-3-1.32,12.66,2.34,23.89,10,28,9.8,5.25,24.54-2,32-11,12.4-14.97.6-49.31-23-118-1.72-5-5.1-14.41-14-22-11.56-9.85-25.82-10.98-33-11-4.6,8.99-14.02,14.48-24,14-9.5-.46-18.01-6.27-22-15Z"/>
        <path class="cls-2" d="M97.79,199.67v133c6.32.39,15.01.25,25-2,11.94-2.69,21.07-7.36,27-11"/>
        <path class="cls-1" d="M61.79,234.67c-4.67,28-9.33,56-14,84"/>
        <path class="cls-1" d="M135.61,235.04c4.67,28,9.33,56,14,84"/>
        <path class="cls-11" d="M118.79,142.67c1.29,1.78,2.75,4.11,4,7,.95,2.2,1.58,4.24,2,6"/>
        <path class="cls-11" d="M79.61,142.54c-1.18,1.45-2.6,3.49-3.82,6.13-1.22,2.64-1.84,5.04-2.18,6.87"/>
        <path class="cls-3" d="M84.79,157.67c2.43,1.18,7.02,2.99,13,3,7.24.01,12.59-2.62,15-4"/>
        <path class="cls-9" d="M75.79,183.67c.4,1.05,1.03,2.46,2,4,3.9,6.2,11.31,11.33,20,12,8.75.67,19.65-3.11,23-11,.65-1.52.9-2.93,1-4-6.53.7-13.91,1.13-22,1-8.92-.14-16.98-.94-24-2Z"/>
      </g>
    </g>
  </g>
</svg>