<?xml version="1.0" encoding="UTF-8"?>
<svg id="Layer_2" data-name="Layer 2" xmlns="http://www.w3.org/2000/svg" viewBox="0 0 49 87">
  <defs>
    <style>
      .cls-1 {
        stroke: #ff0;
      }

      .cls-1, .cls-2 {
        fill: none;
        stroke-miterlimit: 10;
      }

      .cls-2 {
        stroke: #c1272d;
      }

      .cls-3 {
        fill: #55351c;
      }

      .cls-4 {
        fill: #ccc;
      }

      .cls-5 {
        fill: gray;
      }
    </style>
  </defs>
  <g id="Layer_1-2" data-name="Layer 1">
    <g>
      <path class="cls-5" d="M0,59c-.02.92,3.82.79,7,3,6.3,4.38,6.29,15.43,5,25h26c-1.3-9.53-1.32-20.54,5-25,2.83-1.99,6.04-2.06,6-3-.09-1.96-14.06-3.13-26-3C12.06,56.12.04,57.37,0,59Z"/>
      <path class="cls-3" d="M10,58c0,1.02,8.53,2.05,16,2,6.8-.05,15-1,15-2,0-1.02-8.53-2.05-16-2-6.8.05-15,1-15,2Z"/>
      <path class="cls-2" d="M25,3v55"/>
      <path class="cls-4" d="M2,60c14.58,4.65,30.42,4.65,45,0-1.76.76-3.57,1.4-5.41,1.98-12.89,3.88-27.17,3.29-39.59-1.97h0Z"/>
      <path class="cls-1" d="M25.5,0v3"/>
    </g>
  </g>
</svg>