<?xml version="1.0" encoding="UTF-8"?>
<svg id="Layer_2" data-name="Layer 2" xmlns="http://www.w3.org/2000/svg" viewBox="0 0 79.91 38.26">
  <defs>
    <style>
      .cls-1 {
        fill: #e0d6c8;
      }

      .cls-2 {
        fill: #4eab70;
      }

      .cls-3 {
        fill: #e6e4cc;
      }

      .cls-4 {
        fill: #d6d4c0;
      }
    </style>
  </defs>
  <g id="Layer_1-2" data-name="Layer 1">
    <g>
      <ellipse class="cls-2" cx="42.91" cy="22.26" rx="37" ry="16"/>
      <ellipse class="cls-3" cx="39" cy="17.5" rx="39" ry="17.5"/>
      <path class="cls-4" d="M36.91,5.26c.03-1.15,10.21-3.7,20,0,7.18,2.72,12.51,8.18,12,9-.39.63-4.05-1.6-11-4-12.94-4.48-21.03-3.97-21-5Z"/>
      <path class="cls-1" d="M5.91,27.26c6.01,2.5,19.17,7.01,36,5,18.41-2.2,30.9-10.97,36-15,.06,1.12.01,3.04-1,5-1.12,2.17-2.87,3.32-4,4-9.01,5.46-16,7-16,7-9.21,2.03-20.13,4.45-34,1-7.52-1.87-13.29-4.8-17-7Z"/>
      <path class="cls-4" d="M25.91,11.26c.17.22-2.58,1.52-3,4-.73,4.37,6.47,8.31,6,9-.51.75-10.25-2.24-10-7,.2-3.84,6.75-6.33,7-6Z"/>
    </g>
  </g>
</svg>