<?xml version="1.0" encoding="UTF-8"?>
<svg id="Layer_2" data-name="Layer 2" xmlns="http://www.w3.org/2000/svg" viewBox="0 0 40.83 62.22">
  <defs>
    <style>
      .cls-1 {
        fill: #4eab70;
      }

      .cls-2 {
        fill: #e6e4cc;
      }

      .cls-3 {
        fill: #d6d4c0;
      }
    </style>
  </defs>
  <g id="Layer_1-2" data-name="Layer 1">
    <g>
      <g>
        <path class="cls-1" d="M21.44,21.96c-3.36-5.27-3.33-11.71,0-16C24.62,1.85,31.26-.88,35.44,1.96c3.59,2.44,3.7,7.86,3,11-1.17,5.28-5.83,9.5-12,11-1.65,8.56-3.48,15.67-5,21-3.33,11.68-5.07,14.49-8,16-4.47,2.31-11.19,1.32-13-2-1.44-2.64.57-6.11,7-16,3.55-5.46,8.27-12.62,14-21Z"/>
        <path class="cls-1" d="M22.8,24.34c1.73-2.71,3.3-3.44,4.45-3.56.74-.08,1,.11,1.78,0,2.14-.31,3.51-2.29,4.15-3.21.39-.57,4.3-6.19,1.72-9.69-1.29-1.75-3.52-2.05-4.29-2.15-4.01-.54-6.79,2.44-6.92,2.58-2.05,2.27-2.57,5.59-1.78,8.02.58,1.8,1.67,2.46,1.78,4.45.08,1.5-.44,2.75-.89,3.56Z"/>
        <path class="cls-1" d="M8.36,59.21c.83,0,2.38-.11,4-1,2.85-1.56,3.79-4.33,4-5"/>
      </g>
      <g>
        <path class="cls-2" d="M23.49,21.17c-3.36-5.27-3.33-11.71,0-16,3.18-4.11,9.82-6.84,14-4,3.59,2.44,3.7,7.86,3,11-1.17,5.28-5.83,9.5-12,11-1.65,8.56-3.48,15.67-5,21-3.33,11.68-5.07,14.49-8,16-4.47,2.31-11.19,1.32-13-2-1.44-2.64.57-6.11,7-16,3.55-5.46,8.27-12.62,14-21Z"/>
        <path class="cls-3" d="M24.85,23.54c1.73-2.71,3.3-3.44,4.45-3.56.74-.08,1,.11,1.78,0,2.14-.31,3.51-2.29,4.15-3.21.39-.57,4.3-6.19,1.72-9.69-1.29-1.75-3.52-2.05-4.29-2.15-4.01-.54-6.79,2.44-6.92,2.58-2.05,2.27-2.57,5.59-1.78,8.02.58,1.8,1.67,2.46,1.78,4.45.08,1.5-.44,2.75-.89,3.56Z"/>
        <path class="cls-3" d="M10.41,58.42c.83,0,2.38-.11,4-1,2.85-1.56,3.79-4.33,4-5"/>
      </g>
    </g>
  </g>
</svg>