<?xml version="1.0" encoding="UTF-8"?>
<svg id="Layer_2" data-name="Layer 2" xmlns="http://www.w3.org/2000/svg" viewBox="0 0 594 156.02">
  <defs>
    <style>
      .cls-1 {
        fill: #4eab70;
      }

      .cls-2 {
        fill: #66bd82;
      }
    </style>
  </defs>
  <g id="Layer_1-2" data-name="Layer 1">
    <g>
      <path class="cls-2" d="M0,152c3.71-3.93,9.97-9.69,19-14,25.55-12.18,47.35-.37,84,2,33.44,2.16,30.51-6.69,65-6,52.31,1.05,54.62,21.32,97,22,51.74.83,60.74-29.18,108-22,31.55,4.8,31.98,18.85,64,21,33.76,2.27,44.6-12.59,80-15,17.37-1.18,43.63.43,77,16V0H0v152Z"/>
      <path class="cls-1" d="M5.91,28.26c-.95-.11-1.65-5.06-1-24,20.6-1.07,25.93-.7,26,0,.1.92-9.05.66-16,7-7.56,6.9-7.63,17.15-9,17Z"/>
      <path class="cls-1" d="M183.91,132.26c10.54,1.3,19.22,3.65,26,6,12.9,4.48,16.19,8.02,28,11,13.79,3.48,25.89,2.84,26,2,.1-.83-11.48-1.3-28-7-12.89-4.44-15.09-7.35-25-10-10.91-2.92-20.52-2.68-27-2Z"/>
      <path class="cls-1" d="M444.91,151.26c4.69-1.72,11.95-4.27,21-7,9.53-2.87,11.6-3.09,26-7,21.9-5.95,21.78-6.71,27-7,15.68-.86,29.29,5.36,29,7-.28,1.59-13.22-2.66-34,0-9.27,1.19-26.95,4.62-41,10-1.57.6-5.06,1.98-10,3-7.49,1.55-13.86,1.37-18,1Z"/>
      <path class="cls-1" d="M38.91,5.26c85.33,1.51,170.66,2.18,256,2,98.68-.21,197.34-1.54,296-4"/>
    </g>
  </g>
</svg>