<?xml version="1.0" encoding="UTF-8"?>
<svg id="Layer_2" data-name="Layer 2" xmlns="http://www.w3.org/2000/svg" viewBox="0 0 72.13 98.26">
  <defs>
    <style>
      .cls-1 {
        fill: #4eab70;
      }

      .cls-2 {
        fill: #80002b;
      }
    </style>
  </defs>
  <g id="Layer_1-2" data-name="Layer 1">
    <g>
      <ellipse class="cls-1" cx="37.57" cy="95.26" rx="32" ry="3"/>
      <g>
        <rect class="cls-2" x="17.66" y="90" width="37" height="5" rx="1.39" ry="1.39"/>
        <path class="cls-2" d="M24.66,0c8.63,27.93,5.57,39.28,0,44-6.62,5.61-15.39.68-21,7-7.5,8.46-2.96,29.89,9,37,3.26,1.94,10.22,1.98,24,2,13.84.02,20.82-.02,24-2,11.64-7.27,15.23-29.41,7-38-6.37-6.65-15.88-1.05-23-7-6.16-5.16-8.48-17.27-1-43-1.91.84-5.44,2.1-10,2-4.03-.09-7.17-1.19-9-2Z"/>
      </g>
    </g>
  </g>
</svg>