<?xml version="1.0" encoding="UTF-8"?>
<svg id="Layer_2" data-name="Layer 2" xmlns="http://www.w3.org/2000/svg" viewBox="0 0 125.28 132.29">
  <defs>
    <style>
      .cls-1 {
        fill: #fff;
      }

      .cls-2 {
        fill: #f9f0f6;
      }

      .cls-3, .cls-4 {
        fill: none;
      }

      .cls-5 {
        fill: #e9e5f2;
      }

      .cls-4 {
        stroke: #e8c0d7;
        stroke-miterlimit: 10;
        stroke-width: .5px;
      }

      .cls-6 {
        fill: #f6d4e5;
      }

      .cls-7 {
        fill: #333;
      }

      .cls-8 {
        fill: #fef2f7;
      }

      .cls-9 {
        fill: #e8c0d7;
      }
    </style>
  </defs>
  <g id="Layer_1-2" data-name="Layer 1">
    <g>
      <path class="cls-6" d="M36.95,84.18c-1.27-1.52-3.25-3.72-6-6-11.95-9.91-20.75-6.92-27-15-3.33-4.3-5.2-10.99-3-17,2.37-6.49,8.43-9.32,10-10-2.58-6.92-.51-14.63,5-19,4.72-3.75,11.29-4.5,17-2,.52-6.26,4.39-11.69,10-14,6.51-2.68,14.27-.69,19,5,.29-.3,7.31-7.36,17-5,6.38,1.55,11.4,6.58,13,13,.89-.12,10.32-1.23,17,6,5.69,6.16,5.11,13.77,5,15,.83.39,9.17,4.43,11,14,1.99,10.38-5.54,17.57-6,18-5.24.52-16.16,2.44-25,11-2.05,1.99-3.69,4.04-5,6,7,3.33,14,6.67,21,10,2.56-.1,7.4.08,11,3,1.83,1.48,1.98,2.57,2,3,.1,2.31-2.81,3.9-3,4-.11,1.08-.96,8.26-7,12-2.24,1.38-4.46,1.84-6,2-.36.93-2.69,6.6-9,9-5.23,1.99-9.81.44-11,0-.95.96-4.84,4.64-11,5-7.39.44-12.24-4.24-13-5-.71.71-6.15,5.93-14,5-5.47-.65-8.93-3.91-10-5-.96.34-6.96,2.34-13-1-4.64-2.56-6.49-6.72-7-8-.92.02-5.97.01-10-4-4.46-4.43-4.07-10.19-4-11-.56-.4-1.86-1.45-2-3-.23-2.61,3.04-4.46,4-5,3.24-1.83,6.63-1.3,8-1,7.33-3.33,14.67-6.67,22-10Z"/>
      <path class="cls-2" d="M40.95,84.18c.56-3.64-5.03-7.36-9-10-10.05-6.69-15.71-4.07-21-10-.37-.42-6.06-6.99-4-15,1.58-6.15,6.73-9.27,8-10-.08-.83-.69-9.19,6-15,6.36-5.53,14.07-4.18,15-4,.57-5.96,4.48-11.05,10-13,6.03-2.14,12.9-.14,17,5,4.19-4.31,10.44-5.87,16-4,7.78,2.61,9.87,10.47,10,11,.76-.14,9.56-1.55,16,5,5.55,5.66,5.09,12.91,5,14,1.08.65,6.68,4.19,8,11,1.43,7.4-3.25,13.11-4,14-4.78,5.65-9.55,3.72-19,10-3.89,2.58-10.43,6.94-10,11,.76,7.17,22.86,9.76,25,10,4.43-.14,7.44,1.16,9,2,1.64.89,3.91,2.12,4,4,.09,1.84-1.96,3.27-3,4-3.3,2.3-7.08,2.21-9,2-.1.92-.74,5.89-5,9-4.18,3.05-10.16,3.08-15,0-.96,1.19-4.99,5.92-12,7-8.87,1.36-15.18-4.25-16-5-.97.85-7.15,6.08-16,5-7.53-.92-11.96-5.79-13-7-4.1,2.33-9.08,2.34-13,0-4.93-2.95-5.88-8.23-6-9-1.19.28-4.68.92-8-1-.99-.57-4-2.3-4-5,0-2.85,3.37-4.66,4-5,3.33-1.79,6.86-1.17,8-1,10.12,1.48,25.15-4.49,26-10Z"/>
      <path class="cls-5" d="M10.95,101.18c1.9-3.33,5.29-8.2,11-12,1.85-1.23,6.81-4.26,24-6,6.28-.64,18.22-1.51,34,0,15.05,1.44,19.71,3.72,22,5,6.51,3.64,10.62,8.57,13,12-2.08.25-4.82.95-7,3-3.16,2.97-2.28,6.09-5,8-2.93,2.06-5.35-.57-11,0-7.3.74-7.82,5.6-14,6-6.36.41-7.04-4.66-14-5-7.9-.39-9.82,6.01-17,5-5.57-.79-5.39-4.77-12-6-6.72-1.25-9.44,2.4-13,0-3.38-2.28-2.68-6.75-7-9-1.57-.82-3.09-.97-4-1Z"/>
      <path class="cls-6" d="M48.95,83.18c-4.34-18.75-17.04-34.98-34-44,2.2.97,4.33,2.11,6.4,3.34,14.49,8.73,24.98,23.91,27.6,40.66h0Z"/>
      <path class="cls-6" d="M54.95,82.18c-.31-21.97-7.09-43.57-19-62,1.65,2.2,3.17,4.49,4.62,6.83,10.06,16.44,15.33,35.89,14.38,55.17h0Z"/>
      <path class="cls-6" d="M62.95,82.18c-.67-23.28-.67-46.71,0-70,.67,23.29.67,46.72,0,70h0Z"/>
      <path class="cls-6" d="M69.95,82.18c-.11-19.48,5.13-38.92,14.63-55.91,1.38-2.41,2.81-4.8,4.37-7.09-11.13,19.18-17.74,40.85-19,63h0Z"/>
      <path class="cls-6" d="M75.95,83.18c2.95-19.43,16.34-36.61,34-45-2.09,1.24-4.15,2.53-6.11,3.95-13.96,9.67-24.05,24.49-27.89,41.05h0Z"/>
      <circle class="cls-8" cx="62.45" cy="79.68" r="15.5"/>
      <g>
        <path class="cls-5" d="M45.95,95.68c1.86-1.73,8.16-7.14,17-6.49,7.05.52,12,4.61,14,6.49"/>
        <path class="cls-9" d="M45.95,95.68c7.18-7.86,19.19-9.46,27.77-2.88,1.15.88,2.26,1.82,3.23,2.88-9.47-8.03-21.52-7.93-31,0h0Z"/>
      </g>
      <path class="cls-3" d="M48.95,87.18c-.98-.4-2.34-.83-4-1-1.15-.12-2.17-.09-3,0"/>
      <path class="cls-3" d="M75.95,87.18c.66-.35,1.68-.79,3-1,1.24-.2,2.29-.11,3,0"/>
      <path class="cls-3" d="M18.95,118.18c-.33-1-.67-2-1-3"/>
      <path class="cls-3" d="M38.95,127.18c-.92-.91-2.05-2.22-3-4-1.74-3.25-1.99-6.31-2-8"/>
      <path class="cls-3" d="M86.95,127.18c.87-.78,2.09-2.08,3-4,1.65-3.47,1.23-6.73,1-8"/>
      <path class="cls-3" d="M106.95,118.18c.33-1,.67-2,1-3"/>
      <path class="cls-4" d="M60.95,79.18c-.22,1.72,1,3,2,3s2.22-1.28,2-3"/>
      <circle class="cls-1" cx="53.88" cy="71.26" r="6.59"/>
      <circle class="cls-7" cx="54.08" cy="71.12" r="5.07"/>
      <circle cx="53.71" cy="71.17" r="3.07"/>
      <circle class="cls-1" cx="56.98" cy="68.12" r="2.08"/>
      <circle class="cls-1" cx="71.56" cy="71.59" r="6.59"/>
      <circle class="cls-7" cx="71.75" cy="71.44" r="5.07"/>
      <circle cx="71.38" cy="71.5" r="3.07"/>
      <circle class="cls-1" cx="74.66" cy="68.45" r="2.08"/>
    </g>
  </g>
</svg>