<?xml version="1.0" encoding="UTF-8"?>
<svg id="Layer_2" data-name="Layer 2" xmlns="http://www.w3.org/2000/svg" viewBox="0 0 117.12 161.04">
  <defs>
    <style>
      .cls-1 {
        fill: #fff;
      }

      .cls-2 {
        fill: #cbbbdb;
      }

      .cls-3 {
        fill: #a1a2d1;
      }

      .cls-4 {
        fill: #333;
      }
    </style>
  </defs>
  <g id="Layer_1-2" data-name="Layer 1">
    <g>
      <path class="cls-3" d="M47.04,78.04c-.06,2.38-.55,5.83-3,8-4.48,3.96-11.36-.04-15,4-2.71,3.01-.93,7.5-4,9-1.94.95-3.79-.34-5,1-1.44,1.59.1,4.22-1,5-1.39.99-4.02-3.09-8-3-3.6.08-7.39,3.57-8,7-.36,2.03.62,2.71,0,5-.85,3.13-3.38,4.43-3,5,.37.57,3.31-.01,5-2,1.67-1.96-.15-3.9,1-7,.71-1.91,2.53-4.51,5-5,3.87-.77,6.66,4.15,9,3,1.79-.88.74-4.06,3-6,1.94-1.67,3.92.33,6-1,3.14-2.01,1.26-7.68,4-9,1.57-.76,2.77.84,6,1,3.43.17,6.06-1.44,7-2,6.07-3.6,6.91-11.09,7-12"/>
      <path class="cls-3" d="M53.04,118.04c-3.25,2.47-3.96,4.55-4,6-.07,2.78,2.31,3.76,3,8,.25,1.49.73,4.46-1,6-1.98,1.76-5.9.8-6,0-.06-.47,2.65-.17,4-2,1.52-2.06.26-5.33,0-6-.86-2.22-2.32-2.22-3-4-.46-1.22-.57-3.1,1-6"/>
      <path class="cls-2" d="M50.04,79.04c-.78,9.61-3.98,13.9-7,16-4.09,2.85-7.76,1.62-10,5-2.85,4.3,1.22,9.07-2,13-2.19,2.67-6.12,2.96-7,3-4.49.2-5.71-2.77-9-2-2.97.7-5.53,3.96-6,7-.45,2.91,1.14,4.7,0,6-1.37,1.56-4.63.09-5,1-.33.82,1.8,3.17,4,3,2.45-.19,3.76-3.42,4-4,1.12-2.75-.01-4.16,1-6,.65-1.19,2.17-2.51,6-3-2.76,2.34-3.23,3.93-3,5,.4,1.91,3.07,2.45,3,4-.08,1.66-3.18,2.36-3,3,.2.71,4.4,1.08,6-1,1.03-1.34.03-2.44,1-5,.09-.23.95-2.43,3-4,2.41-1.84,3.79-.76,6-2,3.69-2.07,2.23-6.46,6-10,2.19-2.06,3.97-1.79,7-3,6.6-2.64,9.84-8.56,12-12,2.69-4.28,4.18-8.49,5-12"/>
      <path class="cls-2" d="M57.04,80.04c1.36,5.24,2.63,13.63,0,23-1.45,5.18-2.51,8.96-6,12-4.94,4.31-9.53,2.59-15,8-1.06,1.05-5.06,5.01-4,8,1.08,3.03,6.65,3.04,7,6,.11.9-.31,1.7-1,3-1.41,2.66-3.25,3.47-3,4,.28.6,2.98.43,5-1,1.7-1.2,3.43-3.66,3-6-.7-3.81-6.49-3.8-7-7-.53-3.3,5.05-6.78,7-8,6.03-3.76,8.68-2.32,13-5,5.36-3.32,7.2-9.22,9-15,2.79-8.96,2-16.99,1-22"/>
      <path class="cls-3" d="M67.04,91.04c1.01,2.23,2.23,5.75,2,10-.33,5.99-3.21,7.24-4,14-.71,6.1,1.41,6.93,0,12-1.2,4.32-3.81,7.56-5,9-3.97,4.83-7.05,5.42-7,8,.06,3.03,4.34,4.06,4,7-.25,2.14-2.63,2.58-3,5-.41,2.65,1.65,5.13,2,5,.36-.13-1.21-2.8,0-5,.89-1.61,2.28-1.2,4-3,1.31-1.38,2.72-3.95,2-6-.83-2.35-3.87-2.3-4-4-.12-1.5,2.15-2.88,4-4,2.94-1.78,3.91-1.31,6-3,.74-.6,2.3-1.89,3-4,.56-1.68.25-2.87,0-5-.36-3.1-.71-6.13,0-9,.87-3.54,2.59-3.76,4-8,.78-2.36.89-4.25,1-6,.59-9.76-3.59-14.25-1-20,.67-1.49,1.55-2.52,2-3h-11c.41,1.34.81,3.03,1,5,.19,1.93.13,3.63,0,5Z"/>
      <path class="cls-2" d="M71.04,81.04c-1.38,6.84.12,11.75,1,14,2.85,7.28,9.03,11.7,11,13,5.02,3.31,7.96,3.05,9,6,1.36,3.86-2.11,8.75-3,10-2.96,4.17-5.47,4.05-6,7-.66,3.64,2.51,7.43,3,8,2.11,2.45,3.77,2.42,4,4,.38,2.6-3.99,3.81-4,7,0,2.92,3.63,5.28,4,5,.29-.22-1.57-2.05-1-4,.43-1.49,1.88-1.68,3-3,1.58-1.85,1.76-4.88,1-7-1.15-3.22-4.07-2.92-5-6-.71-2.33.34-4.59,1-6,1.79-3.84,4.11-3.77,6-7,1.89-3.22,1.88-7.24,1-10-1.52-4.76-5.68-5.88-9-9-3.43-3.22-6.96-9.48-6-23"/>
      <path class="cls-2" d="M114.04,41.04c.98,13.43-6.77,23.46-8,25-13.45,16.87-37.25,14.77-46,14-8.91-.79-25.85-2.28-36-16-1.47-1.99-7.19-10.16-7-21C17.4,22.47,38.89,1.07,63.54.04c25.08-1.05,48.91,19.19,50.5,41Z"/>
      <path class="cls-3" d="M82.04,94.04c6.76,4.12,10.76,8.83,13,12,2.44,3.46,5.45,7.72,4,11-1.27,2.86-4.85,2.48-6,6-.73,2.23.32,3.57-1,6-.96,1.76-1.95,1.86-2,3-.07,1.74,2.2,2.12,4,5,1.71,2.74,1.23,4.93,2,5,.97.09,2.89-3.3,2-6-.68-2.07-2.43-1.98-3-4-.77-2.74,1.67-5.61,2-6,1.56-1.84,2.62-1.54,4-3,2.03-2.14,2.01-5.16,2-8,0-2.06-.09-6.75-3-12-3.29-5.94-6.49-5.72-10-11-1.68-2.53-3.64-6.62-4-13-1.67.33-3.33.67-5,1-.14,2.04-.18,4.39,0,7,.19,2.63.56,4.99,1,7Z"/>
      <path class="cls-2" d="M91.04,77.04c.5,5.32,2.39,7.76,4,9,3.47,2.68,6.85.72,12,4,1.56,1,4.69,2.98,5,6,.34,3.23-2.83,4.9-2,7,1.01,2.53,6.19,1.53,7,4,.52,1.58-1.44,2.44-2,6-.47,2.98.52,4.79,0,5-.65.26-3.03-2.23-3-5,.02-2.05,1.34-2.58,1-4-.51-2.13-3.64-1.62-5-4-1.33-2.33.92-4.15,0-8-.16-.66-.82-3.44-3-5-3.57-2.55-7.48.81-12-1-4.02-1.61-5.67-6.16-6-7-.81-2.02-.98-3.83-1-5,.89-.22,1.91-.53,3-1,.75-.32,1.41-.66,2-1Z"/>
      <path d="M49.04,68.04c1.12,3.71,5.82,3.61,7,0-.07.84-.48,1.66-1.11,2.27-2.08,2.1-5.73.63-5.89-2.27h0Z"/>
      <circle class="cls-1" cx="71.21" cy="56.85" r="8.11"/>
      <circle class="cls-4" cx="71.45" cy="56.67" r="6.24"/>
      <circle cx="71" cy="56.74" r="3.78"/>
      <circle class="cls-1" cx="75.03" cy="52.99" r="2.56"/>
      <circle class="cls-1" cx="37.21" cy="55.85" r="8.11"/>
      <circle class="cls-4" cx="37.45" cy="55.67" r="6.24"/>
      <circle cx="37" cy="55.74" r="3.78"/>
      <circle class="cls-1" cx="41.03" cy="51.99" r="2.56"/>
    </g>
  </g>
</svg>