<?xml version="1.0" encoding="UTF-8"?>
<svg id="Layer_2" data-name="Layer 2" xmlns="http://www.w3.org/2000/svg" viewBox="0 0 253.25 254.27">
  <defs>
    <style>
      .cls-1 {
        fill: none;
      }

      .cls-1, .cls-2, .cls-3, .cls-4, .cls-5 {
        stroke: #000;
        stroke-miterlimit: 10;
      }

      .cls-6, .cls-3 {
        fill: #fff;
      }

      .cls-2 {
        fill: #fad0dd;
      }

      .cls-4 {
        fill: #e6cae1;
      }

      .cls-5 {
        fill: #a87db7;
      }

      .cls-7 {
        fill: #333;
      }
    </style>
  </defs>
  <g id="Layer_1-2" data-name="Layer 1">
    <g>
      <path class="cls-1" d="M73.33,135.6c4.65-2.9,7.99-3.85,11.01-5.98"/>
      <path class="cls-4" d="M51.08,164.51c-3.43-.22-6.61-.98-6.61-.98-8.56-2.04-9.76-5.41-16-6-1.49-.14-7.13-.65-11,3-1.85,1.74-2.55,3.74-3,5-.22.62-2.62,7.73,1,13,2.15,3.12,5.1,3.69,5,6-.05,1.23-.94,2.49-2,3-3.95,1.91-13.96-4.88-17-14-3.3-9.92,2.77-19.14,4-21,7.48-11.35,20.84-13.49,24-14,5.22-.84,6.22.15,18,0,7.59-.09,13.81-.58,18-1-.05-.03-.1-.07-.15-.1h-.01c-1.58-1.05-3.09-2.08-4.53-3.1-22.11-15.7-27.16-28.58-27.31-37.8-.12-7.74,3.14-16.83-2-28-1.26-2.73-5.09-11.06-11-11-3.33.03-7.18,2.73-8,6-.97,3.89,2.71,7.15,1,10-.71,1.19-2.02,1.73-3,2-1.02-1.2-3.46-4.38-3.7-8.94-.33-6.32,3.77-11.67,8-14,6.52-3.6,15.49-1.21,21,3,14.85,11.33,1.8,33.68,18,53,1.5,1.79,10.79,12.86,22,12,11.86-.91,18.27-14.6,21-13,2.74,1.6-1.56,16.71-10,30-8.51,13.4-22.99,27.75-35.69,26.92Z"/>
      <path class="cls-1" d="M10.57,194.8c-.22-.63-.26-1.08-.1-1.27.02.36.05.78.1,1.27Z"/>
      <path class="cls-1" d="M73.28,135.63c-.89.55-1.82,1.18-2.81,1.9-3.28,2.38-10.12,7.95-15,17-2.14,3.97-3.33,7.55-4,10-.12-.01-.25-.01-.39-.02,3.43-10.47,10.8-23.04,22.2-28.88Z"/>
      <path class="cls-4" d="M164.69,164.83c.3.95.58,1.92.58,1.92.2.7.37,1.32.5,1.84,5.25,3.24,12.8,8.62,20,17,9.84,11.45,9.59,17.51,18,23,8.53,5.56,23.13,8.68,32,1,5.25-4.55,6.55-11.19,6.9-14.73-2.78,2.72-11.4,10.44-20.9,8.73-10.77-1.94-16.51-14.88-21-25-4.54-10.23-3.09-12.56-6-19-10.39-22.97-45.5-30.19-48-26-2.33,3.9,17.09,28.59,17.92,31.24Z"/>
      <path class="cls-1" d="M92.47,117.53c-.23.78-.54,1.68-.96,2.67-.68,1.63-1.65,3.47-3.04,5.33-1.31,1.75-2.59,2.98-3.94,3.95.98-.83,1.99-1.81,2.94-2.95,1.85-2.19,3.12-4.44,3.99-6.4.42-.94.75-1.82,1.01-2.6Z"/>
      <ellipse class="cls-2" cx="167.4" cy="166.58" rx="3.75" ry="3.8"/>
      <path class="cls-1" d="M106.47,133.53c-.83.91-1.69,1.9-2.58,2.97"/>
      <path class="cls-4" d="M10.57,194.8c.33,3.24,1.52,10.09,6.9,14.73,8.81,7.61,23.41,4.6,32-1,8.42-5.49,8.16-11.55,18-23,7.16-8.33,14.67-13.7,19.91-16.94,20.27-25.87,21.29-32.92,19.39-35-3.88-4.27-27.42,4.05-40,22-11.35,16.19-5.8,28.82-20,41-2.95,2.53-12.27,10.53-23,8-7.2-1.7-11.53-7.32-13.2-9.79Z"/>
      <ellipse class="cls-2" cx="85.27" cy="166.98" rx="3.75" ry="3.8"/>
      <path class="cls-4" d="M202.16,164.57c1.49.06,3.23-.07,6.61-.98,9.45-2.55,10.19-5.49,16-6,1.49-.13,7.13-.65,11,3,1.85,1.74,2.56,3.74,3,5,.22.63,2.62,7.73-1,13-2.15,3.12-5.1,3.69-5,6,.05,1.23.95,2.49,2,3,3.95,1.92,13.96-4.88,17-14,3.31-9.92-2.77-19.14-4-21-7.48-11.35-20.83-13.49-24-14-5.22-.84-6.22.15-18,0-7.58-.09-13.81-.58-18-1,26.11-17.15,31.84-31.16,32-41,.12-7.74-3.14-16.83,2-28,1.26-2.73,5.09-11.06,11-11,3.33.03,7.18,2.73,8,6,.97,3.89-2.71,7.15-1,10,.72,1.19,2.03,1.73,3,2,1.32-1.46,3.37-4.18,4-8,1.27-7.74-3.98-15.85-10-18-8.93-3.19-20.37,6.47-26,15-11.37,17.23.08,31.13-11,43-7.93,8.49-22.28,10.48-32,9-9.86-1.5-15.6-6.69-17-5-1.54,1.85,5.35,8.12,18,25,3.03,4.05,14.32,19.28,24,25,4.43,2.62,7.98,2.93,9.39,2.98Z"/>
      <path class="cls-5" d="M237.77,47.59c-11.54-5.41-23.24,4.35-24,5-2.54,2.18-4.04,4.43-5,6-10.04,16.43-2.9,28.19-11,41-5.79,9.16-17.58,16.43-27,14-3.15-.81-5.48-2.57-7-4,3.1-3.12,23.24-24.01,20-53C180.54,27.66,154.91-1.33,122.77.59c-33.19,1.98-52.89,35.69-54,63-1.02,24.95,13.54,42.89,18,48,.06.14.12.28.18.42-1.27.63-2.77,1.19-4.48,1.52-9.82,1.86-21.33-5.03-27-14-8.1-12.81-.96-24.57-11-41-.96-1.57-2.46-3.82-5-6-.75-.65-12.45-10.42-24-5-6.35,2.98-11.42,9.97-11,17,.39,6.43,5.28,11.35,6,11,.79-.39-4.13-6.8-2-13,2.17-6.3,11.1-10.92,18-9,3.76,1.04,6.05,3.78,7,5,11.72,14.93,4.98,33.37,16,52,1.85,3.13,10.71,18.09,24,18,8.11-.06,14.34-5.7,17.47-9.18.65-.72,1.16-1.35,1.53-1.82-.23.78-.54,1.68-.96,2.67-.68,1.63-1.65,3.47-3.04,5.33-1.31,1.75-2.59,2.98-3.94,3.95t-.02.02s-.03.03-.05.04t-.02,0s-.03.03-.05.04-.03.02-.05.03c-3.72,3.05-7.56,4.24-10.87,5.91-.05.02-.09.05-.14.07-.01,0-.03,0-.04.02,0,.01-.01.01-.01.01-.89.55-1.82,1.18-2.81,1.9-3.28,2.38-10.12,7.95-15,17-2.14,3.97-3.33,7.55-4,10-.12-.01-.25-.01-.39-.02-.7,2.12-1.24,4.15-1.61,6.02-1.62,8.11.26,10.76-3,17-.57,1.1-6.2,11.53-16,13-10.53,1.58-19-8.23-20-7,.02.36.05.78.1,1.27,1.04,3,6.24,10.02,13.9,11.73,11.95,2.67,24.78-8.74,31-18,6.62-9.84,3.06-13.2,10-22,5.97-7.56,11.03-8.17,23-17,8.25-6.09,14.25-12,18-16,.08.05.16.09.24.12-.99.95-1.93,1.9-2.82,2.85-3.4,4.11-7.13,9.43-10.42,16.03-2.93,5.9-4.79,11.4-6,16-.03.02-.06.04-.09.06-2.51,13.54-.61,25-.61,25,1.67,10.1,4.92,14.78,2,21-2.06,4.4-7.12,9.39-13,10-5,.52-7.93-2.41-15-1-2.37.47-5.07,1.41-5,2,1.94-.54,3.95-.07,7.27,1.05,3.02.55,4.73,1.44,6.21,2.35,2.59,1.18,3.51,2.02,5.52,2.6,2.95.7,6.01.48,8.9-.33.02-.01.04-.01.06-.02,4.36-1.35,8.4-4.1,11.04-6.65,2.25-2.37,3.39-4.69,4-6,.95-2.05,1.74-4.04,2.39-5.98,0-.02.02-.05.03-.08.63-2.13,1.25-4.56,1.94-7.34,2.47-12.36,1.05-22.72,7.64-33.6,4.89-8.07,9.27-8.32,13-18,2.08-5.4,2.72-10.54,3.25-13.17.04-.21.08-.4.12-.58.12-.55.24-.93.4-1.12h.01s.02-.04.04-.05c.05-.06.11-.08.17-.08h.01s.06.01.09.03c.03.01.05.03.08.06.01,0,.02.01.04.03.12.17.21.51.27,1.01.01.07.02.14.03.22.01.1.02.21.04.33.01.1.02.19.03.3.29,2.8.51,8.24,2.42,14.02,2.25,6.83,5.35,9.54,8.7,13.31,2.24,2.09,4.41,4.27,6.3,8.69.82,1.91,1.27,3.5,1.5,4.97h0c1.59,6.2.36,11.41,1.1,18.09,0,.03,0,.05,0,.07.12.6.25,1.22.39,1.87.48,2.16.97,4.36,1.6,6.57,0,.02,0,.04.02.07.39,1.07.85,2.19,1.38,3.36.86,1.86,4.21,9.17,9.37,14.65,3.01,2.9,7.44,6.15,12.6,6.35,2.11-.07,3.99-.7,5.82-1.49.01,0,.01-.01.02-.01,1.04-.57,2.21-1.23,3.99-1.85,2.67-1.2,5.58-2.2,9.28-1.9,3.89-.28,8.23.23,10.92,3.25.6-.87-2.94-5.6-8-7-3.42-.95-5.25.26-10,1-4.51.7-12.94,2.01-18-2-4.8-3.8-4.92-11.08-5-16-.12-6.98,1.75-10.28,3-16,2.31-10.53.5-19.85-1.08-25.76,0-.02-.01-.03-.01-.05-1.17-3.71-2.74-7.84-4.91-12.19-4.14-8.32-9-14.6-13-19,.73.72,1.51,1.53,2.33,2.42l.02.02c3.73,3.78,8.95,8.61,15.65,13.56,11.98,8.83,17.04,9.44,23,17,6.94,8.8,3.38,12.16,10,22,6.23,9.26,19.05,20.67,31,18,7.66-1.71,12.86-8.73,13.9-11.73t.01-.02c.04-.48.07-.9.09-1.25-1-1.23-9.46,8.58-20,7-9.8-1.47-15.42-11.9-16-13-3.25-6.24-1.38-8.89-3-17-.37-1.87-.91-3.9-1.61-6.02-.14.01-.27.01-.39.02-.67-2.45-1.86-6.03-4-10-4.88-9.05-11.72-14.62-15-17-.99-.72-1.92-1.35-2.81-1.9,0,0-.01,0-.01-.01-.01-.01-.03-.01-.04-.02-.05-.02-.09-.05-.14-.07-3.31-1.67-7.14-2.86-10.87-5.91,0-.01-.03-.02-.05-.03s-.03-.03-.05-.04t-.02,0c-1.37-.99-2.68-2.23-4.01-4.01-2.14-2.86-3.29-5.71-3.93-7.75h0c-.02-.09-.05-.17-.07-.25l.12.15c2.29,2.86,9.26,10.78,18.88,10.85,13.29.09,22.15-14.87,24-18,11.02-18.63,4.28-37.07,16-52,.95-1.22,3.25-3.96,7-5,6.91-1.92,15.84,2.71,18,9,2.13,6.2-2.79,12.61-2,13,.72.35,5.61-4.57,6-11,.42-7.03-4.65-14.02-11-17Z"/>
      <path class="cls-3" d="M92.47,117.53c-.23.78-.54,1.68-.96,2.67-.02-.02-.04-.05-.05-.07-.18-.26-.36-.52-.52-.78.65-.72,1.16-1.35,1.53-1.82Z"/>
      <path class="cls-3" d="M127.98,138.71s-.01.01-.01.01c-.01,0-.01-.01-.01-.01-.14.01-.27.01-.41.01.01-.03.02-.04.04-.05.05-.06.11-.08.17-.08h.01s.06.01.09.03c.03.01.05.03.08.06.01,0,.02.01.04.03Z"/>
      <path class="cls-3" d="M160.89,117.74s-.03.05-.04.08h-.01c-.02-.07-.05-.15-.07-.23l.12.15Z"/>
      <path class="cls-1" d="M168.9,129.68c3.02,2.13,6.36,3.08,11.01,5.98"/>
      <path class="cls-1" d="M149.1,136.01c-.85-.87-1.63-1.68-2.33-2.42.73.72,1.51,1.53,2.33,2.42Z"/>
      <path class="cls-1" d="M168.78,129.6c-1.37-.99-2.68-2.23-4.01-4.01-2.14-2.86-3.29-5.71-3.93-7.75h0c-.02-.09-.05-.17-.07-.25.02.08.05.15.08.23.82,2.37,2.27,5.62,4.92,8.77.98,1.17,2,2.16,3.01,3.01Z"/>
      <path class="cls-1" d="M202.16,164.57c-.14.01-.27.01-.39.02-.67-2.45-1.86-6.03-4-10-4.88-9.05-11.72-14.62-15-17-.99-.72-1.92-1.35-2.81-1.9,11.4,5.84,18.77,18.41,22.2,28.88Z"/>
      <path class="cls-1" d="M242.68,194.84c.04-.48.07-.9.09-1.25.16.19.12.63-.09,1.25Z"/>
      <path class="cls-1" d="M63.04,226.64c-.09-.02-.18-.03-.27-.05-3.7-.64-6.92-.37-7-1,1.94-.54,3.95-.07,7.27,1.05Z"/>
      <path class="cls-1" d="M74.77,231.59c-2.52-.6-3.88-1.61-5.52-2.6,2.59,1.18,3.51,2.02,5.52,2.6Z"/>
      <path class="cls-1" d="M94.77,224.59c-2.68,2.82-6.68,5.41-11.04,6.65,4.36-1.35,8.4-4.1,11.04-6.65Z"/>
      <path class="cls-1" d="M103.89,136.5c-3.4,4.11-7.13,9.43-10.42,16.03-2.93,5.9-4.79,11.4-6,16-.03.02-.06.04-.09.06.36-1.96.82-3.97,1.39-6,1.57-5.56,5.29-15.58,15.12-26.09Z"/>
      <path class="cls-1" d="M103.13,205.19c-.48,2.36-1.1,4.81-1.94,7.34.63-2.13,1.25-4.56,1.94-7.34Z"/>
      <path class="cls-1" d="M127.55,138.72c-.15.19-.28.57-.41,1.12.12-.55.24-.93.4-1.12h.01Z"/>
      <path class="cls-1" d="M128.25,139.72c-.08-.49-.16-.83-.28-1-.01,0-.01-.01-.01-.01-.01-.01-.02-.02-.02-.03.01,0,.02.01.04.03.12.17.21.51.27,1.01Z"/>
      <path class="cls-1" d="M147.27,181.56c-.63-2.45-1.7-5.06-3.5-7.97-1.45-2.34-2.9-4.11-4.3-5.69,2.24,2.09,4.41,4.27,6.3,8.69.82,1.91,1.27,3.5,1.5,4.97Z"/>
      <path class="cls-1" d="M150.37,208.16c-1.14-3.12-1.71-5.89-1.99-8.44.12.6.25,1.22.39,1.87.48,2.16.97,4.36,1.6,6.57Z"/>
      <path class="cls-1" d="M164.68,164.78c-1.17-3.71-2.74-7.84-4.91-12.19-4.14-8.32-9-14.6-13-19,.73.72,1.51,1.53,2.33,2.42l.02.02c4.99,5.42,11.22,13.92,14.65,25.56.27.91.58,1.97.91,3.19Z"/>
      <path class="cls-1" d="M173.74,232.59c-.32.02-.64.02-.97,0-4.48-.22-8.41-2.93-11.63-6.35,3.01,2.9,7.44,6.15,12.6,6.35Z"/>
      <path class="cls-1" d="M183.57,229.24c-1.36.61-2.67,1.27-3.99,1.85,1.04-.57,2.21-1.23,3.99-1.85Z"/>
      <path class="cls-1" d="M203.77,230.59c-.52.76-3.86-2.03-9-3-.67-.12-1.3-.21-1.92-.25,3.89-.28,8.23.23,10.92,3.25Z"/>
      <path class="cls-4" d="M201.77,249.59c-2.47,2.87-6.07,4.79-7,4-1.15-.98,2.78-5.39,2-12-.21-1.76-.46-3.88-2-5-2.5-1.81-6.31.5-11,2-8.23,2.64-15.86,1.73-19,1-9.47-2.21-14.87-11.39-17-15-8.8-14.96-3.35-27.81-13-42-1.89-2.78-4.55-5.89-8-6-1.4-.04-4.26.36-8,5-10.91,13.52-4.11,31.76-15,46-4.98,6.51-14.95,13.87-25,13-9.13-.79-15.53-8.11-20-5-2.87,2-2.98,6.93-3,8-.13,5.9,3.69,9.42,3,10-.91.77-9.54-3.81-11-12-1.2-6.75,2.71-14.53,8-16,1.94-.54,3.95-.07,7.27,1.05.82.28,1.73.6,2.73.95,1.45.51,2.57.97,3.48,1.4,2.59,1.18,3.51,2.02,5.52,2.6,2.89.84,5.96.57,8.9-.33.02-.01.04-.01.06-.02,4.36-1.35,8.4-4.1,11.04-6.65,3.07-2.96,4.77-6.54,6.39-11.98,0-.02.02-.05.03-.08.63-2.13,1.25-4.56,1.94-7.34.21-.83.42-1.7.64-2.6,4.35-17.77,1.69-19.77,6-28,4.67-8.91,8.67-8.26,13-18,3.07-6.9,3.7-13.18,4.25-16.17.04-.21.08-.4.12-.58.12-.55.24-.93.4-1.12h.01s.02-.04.04-.05c.05-.06.11-.08.17-.08h.01s.06.01.09.03c.03.01.05.03.08.06.01,0,.02.01.04.03.12.17.21.51.27,1.01.01.07.02.14.03.22.01.1.02.21.04.33.01.1.02.19.03.3.25,3.19.34,9.86,3.42,17.02,2.41,5.58,5.09,7.88,7.7,10.31,2.24,2.09,4.41,4.27,6.3,8.69.82,1.91,1.27,3.5,1.5,4.97h0c.77,4.84-.76,8.4,1.1,18.09,0,.03,0,.05,0,.07.12.6.25,1.22.39,1.87.48,2.16.97,4.36,1.6,6.57,0,.02,0,.04.02.07,1.38,4.83,3.42,9.69,7.38,14.36.72.85,1.87,2.2,3.37,3.65,3.01,2.9,7.44,6.15,12.6,6.35.34.01.68.01,1.03,0,2.18-.09,3.37-.7,4.79-1.49.01,0,.01-.01.02-.01,1.04-.57,2.21-1.23,3.99-1.85.65-.23,1.37-.44,2.2-.65,1.52-.37,4.17-1.04,7.08-1.25,3.89-.28,8.23.23,10.92,3.25,4.4,4.94,2.19,14.12-2,19Z"/>
      <path class="cls-1" d="M115.77,91.59c1.66,4.72,6.07,7.92,11,8,4.69.08,9.03-2.68,11-7"/>
      <circle class="cls-2" cx="27.77" cy="60.59" r="3"/>
      <circle class="cls-2" cx="32.77" cy="66.59" r="3"/>
      <circle class="cls-2" cx="35.77" cy="74.59" r="3"/>
      <circle class="cls-2" cx="35.77" cy="83.59" r="3"/>
      <circle class="cls-2" cx="35.27" cy="94.09" r="3.5"/>
      <circle class="cls-2" cx="37.27" cy="105.09" r="4.5"/>
      <ellipse class="cls-2" cx="42.52" cy="114.29" rx="4.25" ry="4.3"/>
      <circle class="cls-2" cx="48.27" cy="122.09" r="3.5"/>
      <circle class="cls-2" cx="56.27" cy="129.09" r="3.5"/>
      <circle class="cls-2" cx="64.27" cy="134.09" r="3.5"/>
      <circle class="cls-2" cx="11.27" cy="162.09" r="3.5"/>
      <circle class="cls-2" cx="18.77" cy="156.59" r="4"/>
      <circle class="cls-2" cx="27.77" cy="154.59" r="4"/>
      <ellipse class="cls-2" cx="36.77" cy="155.79" rx="4" ry="3.8"/>
      <circle class="cls-2" cx="45.27" cy="159.09" r="3.5"/>
      <circle class="cls-2" cx="36.77" cy="211.59" r="4"/>
      <circle class="cls-2" cx="45.77" cy="207.59" r="4"/>
      <circle class="cls-2" cx="54.27" cy="202.09" r="4.5"/>
      <circle class="cls-2" cx="59.27" cy="194.09" r="3.5"/>
      <circle class="cls-2" cx="65.77" cy="186.59" r="4"/>
      <circle class="cls-2" cx="70.27" cy="178.09" r="3.5"/>
      <ellipse class="cls-2" cx="77.02" cy="172.79" rx="3.75" ry="3.8"/>
      <ellipse class="cls-2" cx="78.27" cy="238.98" rx="3.75" ry="3.8"/>
      <ellipse class="cls-2" cx="88.27" cy="236.98" rx="3.75" ry="3.8"/>
      <ellipse class="cls-2" cx="97.27" cy="232.98" rx="3.75" ry="3.8"/>
      <ellipse class="cls-2" cx="102.27" cy="223.98" rx="3.75" ry="3.8"/>
      <ellipse class="cls-2" cx="106.27" cy="215.98" rx="3.75" ry="3.8"/>
      <ellipse class="cls-2" cx="109.27" cy="205.98" rx="3.75" ry="3.8"/>
      <ellipse class="cls-2" cx="110.27" cy="195.98" rx="3.75" ry="3.8"/>
      <ellipse class="cls-2" cx="114.27" cy="186.98" rx="3.75" ry="3.8"/>
      <ellipse class="cls-2" cx="174.27" cy="237.98" rx="3.75" ry="3.8"/>
      <ellipse class="cls-2" cx="164.27" cy="235.98" rx="3.75" ry="3.8"/>
      <ellipse class="cls-2" cx="155.27" cy="231.98" rx="3.75" ry="3.8"/>
      <ellipse class="cls-2" cx="150.27" cy="222.98" rx="3.75" ry="3.8"/>
      <ellipse class="cls-2" cx="146.27" cy="214.98" rx="3.75" ry="3.8"/>
      <ellipse class="cls-2" cx="143.27" cy="204.98" rx="3.75" ry="3.8"/>
      <ellipse class="cls-2" cx="142.27" cy="194.98" rx="3.75" ry="3.8"/>
      <ellipse class="cls-2" cx="138.27" cy="185.98" rx="3.75" ry="3.8"/>
      <circle class="cls-2" cx="214.9" cy="211.19" r="4"/>
      <circle class="cls-2" cx="205.9" cy="207.19" r="4"/>
      <circle class="cls-2" cx="197.4" cy="201.69" r="4.5"/>
      <circle class="cls-2" cx="192.4" cy="193.69" r="3.5"/>
      <circle class="cls-2" cx="185.9" cy="186.19" r="4"/>
      <circle class="cls-2" cx="181.4" cy="177.69" r="3.5"/>
      <ellipse class="cls-2" cx="174.65" cy="172.39" rx="3.75" ry="3.8"/>
      <circle class="cls-2" cx="241.27" cy="161.98" r="3.5"/>
      <circle class="cls-2" cx="233.77" cy="156.48" r="4"/>
      <circle class="cls-2" cx="224.77" cy="154.48" r="4"/>
      <ellipse class="cls-2" cx="215.77" cy="155.68" rx="4" ry="3.8"/>
      <circle class="cls-2" cx="207.27" cy="158.98" r="3.5"/>
      <circle class="cls-2" cx="224.77" cy="60.98" r="3"/>
      <circle class="cls-2" cx="219.77" cy="66.98" r="3"/>
      <circle class="cls-2" cx="216.77" cy="74.98" r="3"/>
      <circle class="cls-2" cx="216.77" cy="83.98" r="3"/>
      <circle class="cls-2" cx="217.27" cy="94.48" r="3.5"/>
      <circle class="cls-2" cx="215.27" cy="105.48" r="4.5"/>
      <ellipse class="cls-2" cx="210.02" cy="114.68" rx="4.25" ry="4.3"/>
      <circle class="cls-2" cx="204.27" cy="122.48" r="3.5"/>
      <circle class="cls-2" cx="196.27" cy="129.48" r="3.5"/>
      <circle class="cls-2" cx="188.27" cy="134.48" r="3.5"/>
      <circle class="cls-3" cx="149.26" cy="72.18" r="10.99"/>
      <circle class="cls-7" cx="149.59" cy="71.94" r="8.46"/>
      <circle cx="148.97" cy="72.04" r="5.13"/>
      <circle class="cls-6" cx="154.44" cy="66.95" r="3.47"/>
      <circle class="cls-3" cx="106.15" cy="72.07" r="10.99"/>
      <circle class="cls-7" cx="106.47" cy="71.83" r="8.46"/>
      <circle cx="105.86" cy="71.93" r="5.13"/>
      <circle class="cls-6" cx="111.33" cy="66.84" r="3.47"/>
    </g>
  </g>
</svg>