<?xml version="1.0" encoding="UTF-8"?>
<svg id="Layer_2" data-name="Layer 2" xmlns="http://www.w3.org/2000/svg" viewBox="0 0 93.24 149.51">
  <defs>
    <style>
      .cls-1 {
        fill: none;
      }

      .cls-1, .cls-2, .cls-3, .cls-4, .cls-5, .cls-6 {
        stroke: #000;
        stroke-miterlimit: 10;
      }

      .cls-7, .cls-2 {
        fill: #fff;
      }

      .cls-3 {
        fill: #f99f4c;
      }

      .cls-4 {
        fill: #f68632;
      }

      .cls-5 {
        fill: #ffca6c;
      }

      .cls-8 {
        fill: #333;
      }

      .cls-6 {
        fill: #ffeab6;
      }
    </style>
  </defs>
  <g id="Layer_1-2" data-name="Layer 1">
    <g>
      <path class="cls-4" d="M65.14,10.88c-.48-1.45-1.68-4.33-4.49-6.74-.95-.81-5.5-4.69-11.23-3.37-3.7.85-5.91,3.42-6.74,4.49-3.4-2.96-8.15-3.82-12.35-2.25-4.3,1.61-7.34,5.53-7.86,10.11-6.53,1.37-10.59,6.55-10.11,11.23.39,3.85,3.74,6.23,4.49,6.74-3.39,3.22-4.7,8.02-3.37,12.35,1.78,5.77,7.33,7.69,7.86,7.86-.12.44-.99,3.73,1.12,6.74,2.38,3.39,6.41,3.38,6.74,3.37-1.17,2.05-2.31,4.3-3.37,6.74-4.19,9.69-5.42,18.82-5.61,25.83-1.23.64-3.97,2.31-5.61,5.61-3.21,6.47.85,13.05,1.12,13.48-2.98,2.66-3.86,6.85-2.25,10.11,1.93,3.92,6.44,4.46,6.74,4.49-2.38,5.42-.89,10.69,2.25,12.35,2.14,1.13,4.63.37,5.61,0,.35,3.2,2.58,5.88,5.61,6.74,2.8.79,5.84-.08,7.86-2.25,1.26,2.64,3.86,4.37,6.74,4.49,4.17.17,6.58-3.14,6.74-3.37.14.16,2.88,3.02,6.74,2.25,2.78-.56,4.99-2.77,5.61-5.61.27.08,3.17.85,5.61-1.12,2.62-2.12,2.27-5.42,2.25-5.61,1.99-.58,3.37-2.42,3.37-4.49,0-2.25-1.69-4.12-3.37-4.49-2.6-.57-4.9,2.46-7.18,4.46-6.44,5.63-17.93,7.57-24,4-6.58-3.87-9.23-15.64-5-28"/>
      <path class="cls-5" d="M92.09,51.3c-1.18-1.5-3.11-.42-5.61-2.25-1.73-1.27-2.64-3.13-3.37-5.61-2.09-7.09-.39-11.19-1.12-15.72-1.26-7.82-9.18-13.45-14.6-15.72-10.64-4.46-22.26-.42-29.2,5.61-10.07,8.75-12.76,23.82-8.98,33.69,1.78,4.67,4.73,7.43,7.86,16.84,1.77,5.31,2.71,8.03,2.25,11.23-1.12,7.64-7.38,9.47-12.35,16.84-5.06,7.5-8.28,19.99-3.37,30.32,5.99,12.6,20.85,15.24,23.58,15.72,3.6.64,17.31,3.07,24.7-5.61,5.79-6.8,3.51-16.25,3.37-16.84-.59-2.42-1.66-6.77-5.61-8.98-4.28-2.39-10.48-1.47-13.48,2.25-2.16,2.67-3.1,7.33-1.12,8.98,1.11.93,3.25.99,4.49,0,2.04-1.63.26-4.96,2.25-6.74,1.44-1.29,4.25-1.24,5.61,0,2.3,2.08.9,7.95-2.25,11.23-3.23,3.36-8.99,4.72-13.48,2.25-5.78-3.19-5.63-10.66-5.61-11.23.24-6.69,5.79-11.32,11.23-15.72,11.15-9.03,16.65-6.97,20.21-13.48,4.42-8.07-.19-18.26-1.12-20.21-3.03-6.31-7.8-9.78-10.11-11.23,1.24-.25,3.24-.47,5.61,0,1.29.26,4.43.89,6.74,3.37,1.99,2.14,1.7,3.87,3.37,4.49,1.68.63,3.55-.53,4.49-1.12,4.71-2.93,7.65-9.76,5.61-12.35Z"/>
      <path class="cls-6" d="M66.26,56.92c-1.28.11-2.8.15-4.49,0-2.23-.19-4.13-.65-5.61-1.12,1.17,2.19,2.75,5.26,4.49,8.98,4.4,9.42,6.57,14.21,5.61,17.97-.69,2.69-3.45,5.16-8.98,10.11-6.73,6.02-10.03,7.17-11.23,11.23-1,3.39.07,6.71,1.12,8.98,3.46-5.51,7.12-8.93,9.89-11.07,4.87-3.75,11-7,11-7,4.51-2.39,6.17-2.74,8-5,2.55-3.16,2.84-6.85,3-9,.46-6.03-1.8-10.63-3-13-2.96-5.84-7.24-9.33-9.8-11.08Z"/>
      <path class="cls-4" d="M43.8,76.01c-.98-2.8-3.26-3.2-8.98-6.74-6.09-3.76-12.03-7.44-16.84-13.48-3.31-4.15-4.5-7.43-7.86-7.86-2.19-.28-4.37.78-5.61,2.25-2.29,2.69-2.07,7.49,1.12,11.23-.95.28-3.36,1.15-4.49,3.37-1.64,3.21-.06,8.18,4.49,11.23-3.7,1.23-5.72,5.29-4.49,8.98,1.23,3.7,5.29,5.72,8.98,4.49-.88.96-2.95,3.47-2.25,5.61,1.09,3.31,8.02,3.36,10.11,3.37.85,0,14.76-.13,22.46-11.23,1.62-2.34,4.85-7,3.37-11.23Z"/>
      <path class="cls-1" d="M59.52,62.53c1.17.14,2.71.22,4.49,0,1.85-.22,3.37-.69,4.49-1.12"/>
      <path class="cls-1" d="M64.01,71.52c1.87-.37,3.74-.75,5.61-1.12s3.74-.75,5.61-1.12"/>
      <path class="cls-1" d="M66.26,80.5c1.86.5,4.13.95,6.74,1.12,1.64.11,3.15.09,4.49,0"/>
      <path class="cls-1" d="M60.64,89.48c1.12.73,2.63,1.57,4.49,2.25,1.7.62,3.24.95,4.49,1.12"/>
      <path class="cls-1" d="M52.78,96.22c1.87.75,3.74,1.5,5.61,2.25"/>
      <path class="cls-1" d="M46.05,104.08c1.5.37,2.99.75,4.49,1.12"/>
      <path d="M44.45,12.97c1.03-2.6.31-5.77-1.77-7.71,1.15.87,2.06,2.11,2.55,3.52.49,1.41.55,2.99.17,4.49l-.95-.3h0Z"/>
      <path d="M33.25,22.33c-2.01-4.44-6.06-7.89-10.78-9.21,2.42.51,4.75,1.56,6.76,3.07,2.02,1.5,3.7,3.46,4.92,5.69l-.89.45h0Z"/>
      <path d="M29.26,32.71c-4.22.29-8.46-.28-12.41-1.62,4.04,1.02,8.24,1.23,12.3.63l.11.99h0Z"/>
      <polygon points="28.3 48.38 21.34 51.3 27.86 47.49 28.3 48.38 28.3 48.38"/>
      <polygon points="33.92 59.61 29.2 61.41 33.47 58.72 33.92 59.61 33.92 59.61"/>
      <polygon points="21.34 113.57 15.73 113.07 21.34 112.57 21.34 113.57 21.34 113.57"/>
      <polygon points="22.82 125.77 20.22 127.66 22.11 125.06 22.82 125.77 22.82 125.77"/>
      <polygon points="31.85 135.82 28.08 140.02 31.05 135.22 31.85 135.82 31.85 135.82"/>
      <polygon points="43.15 141.3 41.55 144.51 42.2 140.98 43.15 141.3 43.15 141.3"/>
      <polygon points="55.53 143.38 55.03 145.63 54.53 143.38 55.53 143.38 55.53 143.38"/>
      <path d="M5.98,61.06c9.65,10.19,23.87,15.46,37.82,14.95-14.09.84-28.51-4.16-38.53-14.25,0,0,.71-.7.71-.7h0Z"/>
      <path d="M5.76,75.53c11.87,3.6,24.57,4.49,36.92,2.73-12.29,2.09-25.09,1.56-37.19-1.77l.28-.96h0Z"/>
      <path d="M10.08,88.99c10.9-.58,21.7-3.48,31.48-8.48-9.62,5.3-20.39,8.56-31.41,9.48l-.07-1h0Z"/>
      <ellipse class="cls-3" cx="87.19" cy="57.74" rx="6.08" ry="2.14" transform="translate(-6.41 104.38) rotate(-60)"/>
      <circle class="cls-2" cx="62.47" cy="34.83" r="10.67"/>
      <circle class="cls-8" cx="64.79" cy="35.6" r="8.21"/>
      <circle cx="67.19" cy="36.69" r="4.98"/>
      <circle class="cls-7" cx="62.5" cy="31.75" r="3.36"/>
    </g>
  </g>
</svg>