<?xml version="1.0" encoding="UTF-8"?>
<svg id="Layer_2" data-name="Layer 2" xmlns="http://www.w3.org/2000/svg" viewBox="0 0 92.24 148.51">
  <defs>
    <style>
      .cls-1 {
        fill: #da7232;
      }

      .cls-2 {
        fill: #fff;
      }

      .cls-3 {
        fill: #e7d4a4;
      }

      .cls-4 {
        fill: #f68632;
      }

      .cls-5 {
        fill: #333;
      }

      .cls-6 {
        fill: #f99f4c;
      }

      .cls-7 {
        fill: #ffeab6;
      }

      .cls-8 {
        fill: #ffca6c;
      }
    </style>
  </defs>
  <g id="Layer_1-2" data-name="Layer 1">
    <g>
      <path class="cls-4" d="M64.64,10.38c-.48-1.45-1.68-4.33-4.49-6.74-.95-.81-5.5-4.69-11.23-3.37-3.7.85-5.91,3.42-6.74,4.49-3.4-2.96-8.15-3.82-12.35-2.25-4.3,1.61-7.34,5.53-7.86,10.11-6.53,1.37-10.59,6.55-10.11,11.23.39,3.85,3.74,6.23,4.49,6.74-3.39,3.22-4.7,8.02-3.37,12.35,1.78,5.77,7.33,7.69,7.86,7.86-.12.44-.99,3.73,1.12,6.74,2.38,3.39,6.41,3.38,6.74,3.37-1.17,2.05-2.31,4.3-3.37,6.74-4.19,9.69-5.42,18.82-5.61,25.83-1.23.64-3.97,2.31-5.61,5.61-3.21,6.47.85,13.05,1.12,13.48-2.98,2.66-3.86,6.85-2.25,10.11,1.93,3.92,6.44,4.46,6.74,4.49-2.38,5.42-.89,10.69,2.25,12.35,2.14,1.13,4.63.37,5.61,0,.35,3.2,2.58,5.88,5.61,6.74,2.8.79,5.84-.08,7.86-2.25,1.26,2.64,3.86,4.37,6.74,4.49,4.17.17,6.58-3.14,6.74-3.37.14.16,2.88,3.02,6.74,2.25,2.78-.56,4.99-2.77,5.61-5.61.27.08,3.17.85,5.61-1.12,2.62-2.12,2.27-5.42,2.25-5.61,1.99-.58,3.37-2.42,3.37-4.49,0-2.25-1.69-4.12-3.37-4.49-2.6-.57-4.9,2.46-7.18,4.46-6.44,5.63-17.93,7.57-24,4-6.58-3.87-9.23-15.64-5-28"/>
      <path class="cls-8" d="M91.59,50.8c-1.18-1.5-3.11-.42-5.61-2.25-1.73-1.27-2.64-3.13-3.37-5.61-2.09-7.09-.39-11.19-1.12-15.72-1.26-7.82-9.18-13.45-14.6-15.72-10.64-4.46-22.26-.42-29.2,5.61-10.07,8.75-12.76,23.82-8.98,33.69,1.78,4.67,4.73,7.43,7.86,16.84,1.77,5.31,2.71,8.03,2.25,11.23-1.12,7.64-7.38,9.47-12.35,16.84-5.06,7.5-8.28,19.99-3.37,30.32,5.99,12.6,20.85,15.24,23.58,15.72,3.6.64,17.31,3.07,24.7-5.61,5.79-6.8,3.51-16.25,3.37-16.84-.59-2.42-1.66-6.77-5.61-8.98-4.28-2.39-10.48-1.47-13.48,2.25-2.16,2.67-3.1,7.33-1.12,8.98,1.11.93,3.25.99,4.49,0,2.04-1.63.26-4.96,2.25-6.74,1.44-1.29,4.25-1.24,5.61,0,2.3,2.08.9,7.95-2.25,11.23-3.23,3.36-8.99,4.72-13.48,2.25-5.78-3.19-5.63-10.66-5.61-11.23.24-6.69,5.79-11.32,11.23-15.72,11.15-9.03,16.65-6.97,20.21-13.48,4.42-8.07-.19-18.26-1.12-20.21-3.03-6.31-7.8-9.78-10.11-11.23,1.24-.25,3.24-.47,5.61,0,1.29.26,4.43.89,6.74,3.37,1.99,2.14,1.7,3.87,3.37,4.49,1.68.63,3.55-.53,4.49-1.12,4.71-2.93,7.65-9.76,5.61-12.35Z"/>
      <path class="cls-7" d="M65.76,56.42c-1.28.11-2.8.15-4.49,0-2.23-.19-4.13-.65-5.61-1.12,1.17,2.19,2.75,5.26,4.49,8.98,4.4,9.42,6.57,14.21,5.61,17.97-.69,2.69-3.45,5.16-8.98,10.11-6.73,6.02-10.03,7.17-11.23,11.23-1,3.39.07,6.71,1.12,8.98,3.46-5.51,7.12-8.93,9.89-11.07,4.87-3.75,11-7,11-7,4.51-2.39,6.17-2.74,8-5,2.55-3.16,2.84-6.85,3-9,.46-6.03-1.8-10.63-3-13-2.96-5.84-7.24-9.33-9.8-11.08Z"/>
      <path class="cls-4" d="M43.3,75.51c-.98-2.8-3.26-3.2-8.98-6.74-6.09-3.76-12.03-7.44-16.84-13.48-3.31-4.15-4.5-7.43-7.86-7.86-2.19-.28-4.37.78-5.61,2.25-2.29,2.69-2.07,7.49,1.12,11.23-.95.28-3.36,1.15-4.49,3.37-1.64,3.21-.06,8.18,4.49,11.23-3.7,1.23-5.72,5.29-4.49,8.98,1.23,3.7,5.29,5.72,8.98,4.49-.88.96-2.95,3.47-2.25,5.61,1.09,3.31,8.02,3.36,10.11,3.37.85,0,14.76-.13,22.46-11.23,1.62-2.34,4.85-7,3.37-11.23Z"/>
      <path class="cls-3" d="M59.02,62.03c3.12-.33,5.88-.68,8.98-1.12-2.57,1.76-6.06,2.19-8.98,1.12h0Z"/>
      <path class="cls-3" d="M63.51,71.02c3.6-1.42,7.36-2.18,11.23-2.25-3.6,1.42-7.36,2.17-11.23,2.25h0Z"/>
      <path class="cls-3" d="M65.76,80c3.83.32,7.41.67,11.23,1.12-3.71.95-7.78.53-11.23-1.12h0Z"/>
      <path class="cls-3" d="M60.14,88.98c3.09,1.18,5.89,2.22,8.98,3.37-3.28.25-6.68-1.03-8.98-3.37h0Z"/>
      <path class="cls-3" d="M52.28,95.72c2.12.11,4.01.86,5.61,2.25-2.12-.1-4.01-.87-5.61-2.25h0Z"/>
      <path class="cls-3" d="M45.55,103.58c1.65-.29,3.17.08,4.49,1.12-1.65.3-3.17-.09-4.49-1.12h0Z"/>
      <path class="cls-1" d="M44.42,12.63c.16-2.98-.53-5.41-2.25-7.86,2.77,1.28,3.9,5.31,2.25,7.86h0Z"/>
      <path class="cls-1" d="M33.19,21.61c-2.86-4.11-6.59-7.09-11.23-8.98,5,.45,9.69,4.21,11.23,8.98h0Z"/>
      <path class="cls-1" d="M28.7,31.72c-4.05,1.14-8.58.73-12.35-1.12,4.19.51,8.13.87,12.35,1.12h0Z"/>
      <path class="cls-1" d="M27.58,47.44c-1.93,1.73-4.19,2.87-6.74,3.37,1.93-1.74,4.19-2.86,6.74-3.37h0Z"/>
      <path class="cls-1" d="M33.19,58.67c-1.18,1.36-2.7,2.12-4.49,2.25,1.18-1.36,2.7-2.11,4.49-2.25h0Z"/>
      <path class="cls-1" d="M20.84,112.57c-1.86.68-3.75.69-5.61,0,1.86-.69,3.75-.68,5.61,0h0Z"/>
      <path class="cls-1" d="M21.97,124.92c-.25,1.22-1.02,2-2.25,2.25.25-1.22,1.03-1.99,2.25-2.25h0Z"/>
      <path class="cls-1" d="M30.95,135.02c-.57,1.9-1.7,3.42-3.37,4.49.56-1.9,1.7-3.41,3.37-4.49h0Z"/>
      <path class="cls-1" d="M42.18,140.64c.28,1.32-.1,2.48-1.12,3.37-.28-1.33.1-2.48,1.12-3.37h0Z"/>
      <path class="cls-1" d="M54.53,142.88c.68.73.69,1.52,0,2.25-.69-.73-.68-1.52,0-2.25h0Z"/>
      <path class="cls-1" d="M5.12,60.91c10.3,9.59,24.18,14.56,38.18,14.6-1.75.18-3.51.22-5.27.21-12.36-.22-24.7-5.47-32.91-14.81h0Z"/>
      <path class="cls-1" d="M5.12,75.51c12.14,2.79,24.66,3.48,37.06,2.25-12.23,2.62-25.24,1.88-37.06-2.25h0Z"/>
      <path class="cls-1" d="M9.61,88.98c10.88-1.44,21.45-4.46,31.44-8.98-9.38,5.77-20.43,8.92-31.44,8.98h0Z"/>
      <ellipse class="cls-6" cx="86.69" cy="57.24" rx="6.08" ry="2.14" transform="translate(-6.23 103.7) rotate(-60)"/>
      <circle class="cls-2" cx="61.97" cy="34.33" r="10.67"/>
      <circle class="cls-5" cx="64.29" cy="35.1" r="8.21"/>
      <circle cx="66.69" cy="36.19" r="4.98"/>
      <circle class="cls-2" cx="62" cy="31.25" r="3.36"/>
    </g>
  </g>
</svg>