<?xml version="1.0" encoding="UTF-8"?>
<svg id="Layer_2" data-name="Layer 2" xmlns="http://www.w3.org/2000/svg" viewBox="0 0 167.13 170.83">
  <defs>
    <style>
      .cls-1 {
        fill: none;
      }

      .cls-1, .cls-2, .cls-3, .cls-4, .cls-5, .cls-6, .cls-7, .cls-8 {
        stroke: #000;
        stroke-miterlimit: 10;
      }

      .cls-2 {
        fill: #8c5b24;
      }

      .cls-3 {
        fill: #592c0e;
      }

      .cls-9, .cls-4 {
        fill: #fff;
      }

      .cls-5 {
        fill: #e9eeaa;
      }

      .cls-6 {
        fill: #54662e;
      }

      .cls-10 {
        fill: #333;
      }

      .cls-7 {
        fill: #851619;
      }

      .cls-8 {
        fill: #dce8a4;
      }
    </style>
  </defs>
  <g id="Layer_1-2" data-name="Layer 1">
    <g>
      <path class="cls-8" d="M127.16,80.35c-4.34.95-23.89,5.23-41-7-3.36-2.4-13.88-9.92-17-24-4.21-18.97,8.62-33.49,10-35,8.97-9.81,20.15-12.09,25-13,16.7-3.15,32.38,2.87,42,11,4.78,4.04,7.35,7.98,8,9,5.31,8.36,5.97,16.77,6,21,1.24,2.71,2.49,6.57,2,11-1.69,15.37-22.78,24.33-35,27Z"/>
      <path class="cls-2" d="M70.16,54.35c-2.25.05-5.93.37-10,2-6.7,2.69-8.55,6.57-23,21-6.61,6.6-8.36,7.93-11,9-3.6,1.47-6.3,1.42-8,4-1.52,2.31-1.66,5.84,0,8,1.26,1.64,3.54,2.5,4,2,.42-.45-1.02-1.67-1-3,.04-3.23,8.62-4.95,17-8,4.36-1.59,13.11-4.77,22-11,3.94-2.76,8.02-6.19,15-8,2.47-.64,4.57-.89,6-1-1.89-1.9-3.95-4.22-6-7-2.1-2.86-3.73-5.59-5-8Z"/>
      <path class="cls-2" d="M137.16,77.35c.64,1.37,1.45,3.42,2,6,.65,3.06,1.04,4.91,0,6-1.14,1.19-3.58,1.07-6,0,.2-.52.92-2.61,0-5-1.08-2.8-3.58-3.84-4-4,1-.65,2.34-1.39,4-2,1.51-.55,2.89-.84,4-1Z"/>
      <path class="cls-8" d="M69.16,119.35c-.12,1.38,3.88,2.1,4,4,.09,1.5-2.34,2.01-4,4-3.66,4.39-.59,12.46,0,14,.96,2.51,3.91,10.25,10,11,5.06.62,9.16-3.95,11-6,6.08-6.78,6.02-15.64,6-19-.02-3.41-.56-6.19-1-8-3.55.54-8.39.87-14,0-3.07-.48-5.75-1.22-8-2-3.23.7-3.95,1.44-4,2Z"/>
      <path class="cls-8" d="M32.16,93.35c-.57.98-1.53,2.46-3,4-4.36,4.55-8.85,5-13,7-8.28,3.98-11.92,12.48-13,15-3.74,8.72-3.36,19.7,0,21,1.53.59,2.36-1.33,7-3,5.77-2.08,7.79-.3,12-2,4.09-1.65,3.11-3.71,9-9,5.85-5.25,8.41-4.65,13-10,2.37-2.76,4.34-5.12,4-8-.21-1.79-1.26-3.24-7-8-2.44-2.02-5.45-4.41-9-7Z"/>
      <path class="cls-8" d="M82.16,82.35c-.6-1.54-2.29-5.88-6-7-1.17-.35-4.94-1.1-15,8-4.06,3.68-6.92,6.95-14,16-11.97,15.31-13.33,18.18-14,22-.17.95-.11,4.97,0,13,.16,11.82.57,13.66,2,15,3.42,3.2,10.89,1.89,16-1,7.6-4.31,6.94-10.44,17-27,5.27-8.69,6.66-8.98,10-16,6.9-14.49,4.74-21.09,4-23Z"/>
      <path class="cls-2" d="M82.16,94.35c9.22-2.87,16.97-3.18,22-3,10.09.37,15.17,2.97,17,4,3.28,1.85,7.72,4.35,8,8,.51,6.65-13.13,12.23-15,13-9.81,4.02-19.01,3.55-28,3-6.39-.39-11.58-1.29-15-2,2.27-3.14,4.77-7.14,7-12,1.84-4.01,3.11-7.75,4-11Z"/>
      <path class="cls-8" d="M31.16,91.35c.94,1.5,2.24,3.25,4,5,3.25,3.22,6.65,5.01,9,6,1.86-2.05,4.65-5.15,8-9,6.27-7.2,6.65-8.01,9-10,6.38-5.4,12.35-6.91,12-8-.25-.78-3.47-.56-6,0-4.32.95-6.69,2.89-10,5-5.74,3.66-10.72,5.58-17,8-3.76,1.45-6.92,2.41-9,3Z"/>
      <path class="cls-8" d="M127.16,89.35c2.39-.75,10.23-2.86,18,1,5.74,2.86,8.56,7.54,10,10,10.81,18.51-.58,42.82-3,48-3.34,7.13-8.55,17.86-19,21-4.21,1.27-10.46,1.65-12-1-1.23-2.12,1.55-4.46,4-11,.72-1.91,1.49-7.3,3-18,1.55-10.93,1.62-12.53,1-15-.78-3.11-1.83-4.38-2-8-.16-3.45.59-7.02,1-9,.35-1.66.72-3.03,1-4-.8-1.34-2.07-3.18-4-5-7.27-6.84-17.15-6.94-24-7-4.44-.04-11.13.41-19,3,.58-1.59,2.24-6.71,0-12-.62-1.48-1.87-4.41-5-6-1.56-.79-3.04-.97-4-1,1.15-.68,2.48-1.37,4-2,2.61-1.08,5.02-1.67,7-2,3.07,2.66,9.85,7.79,20,10,10.53,2.29,19.11.2,23-1-3.51,2.04-4.16,3.25-4,4,.14.67.89.86,2,2,1.04,1.06,1.64,2.18,2,3Z"/>
      <path class="cls-8" d="M127.16,89.35c2.42-.88,9.59-3.12,17,0,8.17,3.44,11.41,11.19,13,15,6.49,15.54.09,30.94-7,48-2.24,5.38-4.49,9.68-9,13-7.44,5.47-18.2,6.19-20,3-1.06-1.87,1.86-3.51,4-11,1.06-3.7.51-3.86,2-12,1.41-7.67,1.76-6.76,2-10,.42-5.58-.43-10.69-1-14-.58-3.35-.78-3.24-1-5-.43-3.48-.17-8.5,3-15"/>
      <circle class="cls-6" cx="123.16" cy="47.35" r="2"/>
      <ellipse class="cls-6" cx="140.16" cy="45.35" rx="1" ry="2"/>
      <path class="cls-1" d="M112.16,92.35c-.72,5.01-2.46,8.61-4,11-10.55,16.43-35.71,14.14-37,14"/>
      <path class="cls-1" d="M80.16,99.35c5.78,3.41,10.99,5.59,15,7,6.07,2.13,4.24.7,16,4,3.86,1.08,5.24,1.57,7,1,4.98-1.61,6.51-9.59,7-13"/>
      <path class="cls-1" d="M74.16,112.35c2.29,1.01,4.62,2.01,7,3,3.39,1.41,6.72,2.74,10,4"/>
      <path class="cls-1" d="M112.16,117.35c.59-.08,2.42-.42,4-2,.42-.42,1.68-1.79,2-4"/>
      <path class="cls-1" d="M66.16,54.35c-1.95.95-4.52,2.5-7,5-4.8,4.84-6.42,10.36-7,13"/>
      <path class="cls-1" d="M55.16,67.35c.5.43,2.2-2.4,6-3,3.1-.49,4.4,1.01,6,0,2.07-1.31,2.69-5.61,1-7-1.6-1.32-4.82.37-6,1-5.18,2.74-7.68,8.42-7,9Z"/>
      <path class="cls-1" d="M46.16,68.35c2.11-.45,5.53-1.04,6,0,.13.29.16.96-2,3-4.08,3.85-10.19,7.08-11,6-.47-.63.75-2.81,7-9Z"/>
      <path class="cls-1" d="M49.16,66.35c.76.25,1.92.48,3,0,1.43-.63,1.56-1.97,3-4,1.93-2.71,4.16-3.77,4-4-.15-.22-2.15.74-4,2-2.96,2.01-4.86,4.34-6,6Z"/>
      <path class="cls-1" d="M27.16,86.35c-.35.45-.77,1.12-1,2-.65,2.48.72,4.59,1,5"/>
      <path class="cls-1" d="M42.16,77.35c-.48.35-1.71,1.37-2,3-.4,2.27,1.18,4.83,4,6"/>
      <path class="cls-1" d="M54.16,71.35c-1.71,3.17-1.65,6.41,0,8,.35.33.96.78,2,1"/>
      <path class="cls-1" d="M60.16,67.35c.37,1.45.97,2.65,2,3,1.14.39,2.1-.5,3,0,.63.35,1.01,1.27,1,3"/>
      <path class="cls-3" d="M78.16,79.35c-.12-1.1-1.91-1.81-3-2-2.08-.37-4.79.52-5,2-.17,1.23,1.42,2.67,3,3,2.43.5,5.15-1.55,5-3Z"/>
      <path class="cls-3" d="M66.16,83.35c-2.81-.42-6.12,1.51-6,3,.09,1.14,2.2,2.18,4,2,2.46-.25,4.46-2.79,4-4-.28-.74-1.47-.92-2-1Z"/>
      <path class="cls-3" d="M71.16,84.35c.25-.31.75.05,2,0,2.28-.09,3-1.39,4-1,1.07.41,1.9,2.52,1,4-.92,1.52-3.01,1.31-4,1-2.23-.69-3.51-3.35-3-4Z"/>
      <path class="cls-3" d="M68.16,88.35c.38-.04,1.99-.19,3,1,.99,1.17.95,3.08,0,4-1.3,1.26-3.82.16-5-1-.35-.34-1.12-1.1-1-2,.16-1.21,1.85-1.89,3-2Z"/>
      <path class="cls-3" d="M74.16,90.35c1.09-.95,2.89-.63,4,0,.14.08,1.91,1.13,2,3,.11,2.25-2.26,4.36-4,4-1.08-.23-1.66-1.35-2-2-.58-1.12-1.45-3.73,0-5Z"/>
      <path class="cls-3" d="M60.16,89.35c.87.21,1.91.95,2,2,.09.98-.69,1.71-1,2-1.05.98-2.4,1-3,1-.5,0-2.61.02-3-1-.45-1.18,1.75-2.82,2-3,.74-.54,1.76-1.29,3-1Z"/>
      <path class="cls-3" d="M63.16,93.35c.96-.37,2.26.12,3,1,.99,1.18.88,2.97,0,4-.68.8-1.65.95-2,1-2.6.37-5.29-2.05-5-3,.14-.46.87-.2,2-1,1.21-.85,1.11-1.66,2-2Z"/>
      <path class="cls-3" d="M69.16,96.35c.57-.55,2.69.52,4,2,.56.64,1.1,1.25,1,2-.15,1.13-1.7,1.96-3,2-.91.03-1.1-.35-3-1-1.91-.65-3-.7-3-1,0-.53,3.36-.38,4-2,.35-.89-.39-1.62,0-2Z"/>
      <path class="cls-3" d="M74.16,103.35c-.27.67.92,2.28,2,2,.8-.21,1.32-1.37,1-2-.46-.9-2.71-.73-3,0Z"/>
      <path class="cls-3" d="M54.16,95.35c-.8-.08-1.83.31-2,1-.2.83.89,1.89,2,2,.8.08,1.83-.31,2-1,.2-.83-.89-1.89-2-2Z"/>
      <path class="cls-3" d="M58.16,99.35c-.35-.5-3.4,2.19-6,1-.96-.44-1.35-1.17-2-1-.88.24-1.54,1.95-1,3,.77,1.5,3.68,1.05,4,1,3.2-.53,5.33-3.54,5-4Z"/>
      <path class="cls-3" d="M60.16,100.35c-1.41.56-2.55,2.39-2,4,.73,2.16,3.84,2.01,4,2,2.01-.12,4.12-1.64,4-3-.07-.84-.99-1.4-2-2-1.23-.74-2.6-1.56-4-1Z"/>
      <path class="cls-3" d="M70.16,105.35c1.28-.09,3.23-.22,4,1,.74,1.18-.03,3.02-1,4-1.73,1.74-4.42,1.13-5,1-1.65-.38-4.04-1.61-4-3,.05-1.68,3.59-2.84,6-3Z"/>
      <path class="cls-3" d="M62.16,110.35c-1.15.51-1.65,2.56-1,4,.86,1.9,3.35,1.98,4,2,.27,0,2.62.06,3-1,.33-.92-1.01-2.11-2-3-1.36-1.22-2.82-2.52-4-2Z"/>
      <path class="cls-3" d="M56.16,105.35c-1.06.12-1.68,1.35-2,2-.17.35-1.57,3.13,0,5,1,1.18,2.97,1.74,4,1,.71-.51.83-1.55,1-3,.1-.83.16-1.35,0-2-.35-1.45-1.66-3.16-3-3Z"/>
      <path class="cls-3" d="M46.16,101.35c.89-.05,1.87,1.59,2,3,0,.09.14,1.75-1,3-.45.49-.91.73-1.08.8-.2.09-1.35.62-1.92.2-.62-.46-.29-1.81,0-3,.4-1.63.96-3.94,2-4Z"/>
      <path class="cls-3" d="M50.16,109.35c.97.67,1.32,1.97,1,3-.53,1.73-2.69,1.97-3,2-.19.02-2.32.23-3-1-.69-1.24.49-3.25,2-4,.25-.12,1.75-.86,3,0Z"/>
      <path class="cls-3" d="M59.16,115.35c-1.62.08-2.89,2.18-3,4-.08,1.3.39,3.28,2,4,1.65.74,3.84-.12,4-1,.13-.75-1.23-1.37-1-2,.23-.63,1.69-.31,2-1,.26-.58-.5-1.43-1-2-.9-1.02-1.82-2.06-3-2Z"/>
      <path class="cls-3" d="M40.16,109.35c1.35.16,1.87.82,2,1,1.05,1.48-.2,4.26-2,5-.25.1-1.17.48-2,0-1-.58-1-1.92-1-2,1-1.33,2-2.67,3-4Z"/>
      <path class="cls-3" d="M36.16,118.35c1.35-.95,4.19-.04,5,2,.49,1.23.31,3-1,4-1.2.92-2.95.89-4,0-1-.85-1-2.18-1-3,0-.71,0-2.3,1-3Z"/>
      <path class="cls-3" d="M48.16,116.35c-1.11.33-2.98,1.34-3,3,0,.73.35,1.53,1,2,.96.7,2.24.46,3,0,1.79-1.08,2.07-4.18,1-5-.55-.42-1.39-.18-2,0Z"/>
      <path class="cls-3" d="M42.16,116.35c-1.03,1.03-.62,2.73,0,3,.94.42,3.42-2.06,3-3-.27-.62-1.97-1.03-3,0Z"/>
      <path class="cls-3" d="M53.16,115.35c.6-.3,1.66.24,2,1,.62,1.39-1.28,3.22-2,3-.83-.25-1.07-3.47,0-4Z"/>
      <path class="cls-3" d="M50.16,123.35c-1.13-1.1-5.09-.48-6,2-.71,1.93.85,3.83,1,4,1.72,2.02,5.2,2.59,7,1,1.2-1.06,1.71-3.15,1-4-.48-.58-1.22-.25-2-1-.77-.74-.46-1.47-1-2Z"/>
      <path class="cls-3" d="M53.16,121.35c.82-.27,1.73.18,2,1s-.18,1.73-1,2-1.73-.18-2-1,.18-1.73,1-2Z"/>
      <path class="cls-3" d="M55.16,125.35c.8-1.06,4.28-.76,5,1,.73,1.78-1.85,3.88-2,4-.8.64-2.36,1.51-3,1-.54-.44.13-1.42,0-4-.07-1.33-.27-1.64,0-2Z"/>
      <path class="cls-3" d="M41.16,126.35c-.48-.33-1.16.73-3,1-1.71.25-2.39-.47-3,0-1.05.81-.77,4.28,1,5,1.53.62,3.32-1.13,4-2,1.15-1.47,1.6-3.58,1-4Z"/>
      <path class="cls-3" d="M33.16,135.35c1.32-.75,2.88-.76,4,0,1.62,1.09,1.83,3.41,1,5-.89,1.69-2.98,2.57-5,2v-7Z"/>
      <path class="cls-3" d="M40.16,135.35c.52-1.53,3.09-2.23,5-2,3.41.42,4.93,3.82,5,4,.96,2.25.68,5.06-1,7-1.64,1.89-4.67,3.02-6,2-1.17-.89.04-2.61-1-6-.91-2.97-2.46-3.66-2-5Z"/>
      <path class="cls-3" d="M34.16,147.35c.13-.29.68-1.43,2-2,1.42-.61,2.72-.11,3,0,1.75.68,2.93,2.66,3,5-.36.16-2.58,1.1-5,0-1.96-.89-2.79-2.54-3-3Z"/>
      <path class="cls-3" d="M51.16,133.35c.33-.68,2.09-.91,3,0s.68,2.67,0,3c-.68.32-1.79-.79-2-1s-1.32-1.32-1-2Z"/>
      <path class="cls-3" d="M50.16,105.35c.48-.28,1.43-.56,2,0,.53.53.41,1.48,0,2-.74.95-2.62.77-3,0-.29-.58.26-1.57,1-2Z"/>
      <path class="cls-3" d="M31.16,100.35c.44-.49,1.56-.14,2,0,1.58.5,3.32,1.97,3,3-.21.68-1.26,1.01-2,1-1.03-.01-1.68-.68-2-1-.86-.87-1.53-2.41-1-3Z"/>
      <path class="cls-3" d="M31.16,105.35c-2.35-1.29-3.1-2.36-4-2-.68.27-1.09,1.22-1,2,.22,1.89,3.5,3.08,6,3,1.31-.04,2.97-.45,3-1,.03-.53-1.51-.64-4-2Z"/>
      <path class="cls-3" d="M33.16,109.35c-1.29-.01-2.86,2.47-2,4,.53.94,1.99,1.56,3,1,.94-.52.99-1.8,1-2,.05-1.42-.98-2.99-2-3Z"/>
      <path class="cls-3" d="M34.16,116.35c-.46-.48-1.41-.35-2,0-.7.41-1.07,1.24-1,2,.09.98.91,1.82,2,2,.3-.39.74-1.06,1-2,.21-.78.42-1.55,0-2Z"/>
      <path class="cls-3" d="M25.16,108.35c-.3-.29-1-.98-2-1-1.6-.03-3.2,1.63-3,3,.13.88.98,1.39,2,2,.8.48,3.01,1.8,4,1,1-.81.48-3.54-1-5Z"/>
      <path class="cls-3" d="M16.16,107.35c.7.21.98,1.31,1,2,.04,1.4-.96,2.91-2,3-.52.04-.62-.31-2-1-1.4-.7-1.96-.66-2-1-.06-.45.95-.66,3-2,1.17-.77,1.52-1.14,2-1Z"/>
      <path class="cls-3" d="M18.16,113.35c-1.12.01-1.84.82-2,1-1.21,1.36-1.35,4.03,0,5,1.78,1.27,5.14-1.11,5-2-.06-.37-.7-.34-1-1-.35-.77.31-1.29,0-2-.3-.7-1.29-1.01-2-1Z"/>
      <path class="cls-3" d="M23.16,115.35c1.14-1.02,3.62-.38,5,1,1.08,1.08,2.14,3.27,1,5-1.12,1.7-3.74,1.99-5,1-.54-.42-.71-.98-1-2-.49-1.69-1.15-3.97,0-5Z"/>
      <path class="cls-3" d="M12.16,113.35c-.64-.34-1.29-.18-2,0-.18.05-4.11,1.08-4,3,.05.93,1.04,1.82,2,2,.57.11.76-.11,3-1,1.54-.61,1.79-.64,2-1,.51-.88.03-2.45-1-3Z"/>
      <path class="cls-3" d="M7.16,120.35c-1.21.11-2.37.21-3,1-.97,1.22-.4,3.67,1,5,1.59,1.51,3.85,1.17,5,1,1.03-.15,4.18-.63,5-3,.73-2.11-.7-4.85-2-5-.67-.08-.78.59-2,1-1.42.48-2.03-.17-4,0Z"/>
      <path class="cls-3" d="M18.16,122.35c.76-.74,2.1-1.43,3-1,1.18.57,1.09,2.85,1,5-.13,3.19-.22,5.47-2,7-1.02.88-3.14,1.98-5,1-1.46-.76-2.36-2.59-2-4,.37-1.43,1.74-1.18,3-3,1.43-2.06.48-3.53,2-5Z"/>
      <path class="cls-3" d="M25.16,125.35c-1.39.36-1.99,3.15-1,4,.52.45,1.44.3,2,0,1.01-.54,1.59-1.95,1-3-.39-.7-1.28-1.18-2-1Z"/>
      <path class="cls-3" d="M1.16,130.35c.69.03,1.73.06,3,0,1.97-.09,2.35-.28,3,0,1.37.6,2.03,2.53,2,4-.03,1.99-1.31,3.3-2,4-.58.59-2.48,2.54-4,2-1.37-.49-1.69-2.76-2-5-.29-2.08-.16-3.83,0-5Z"/>
      <path class="cls-3" d="M18.16,105.35c.17-.54.65-.81,1-1,1.57-.85,3.81-.67,4,0,.12.4-.59.93-2,2-1.46,1.11-1.85,1.04-2,1-.71-.2-1.24-1.22-1-2Z"/>
      <path class="cls-3" d="M76.16,124.35c.98-1.23,2.76-1.13,5-1,1.67.1,2.85.17,4,1,1.87,1.36,2.8,4.17,2,5-.75.78-2.32-.9-6-1-2.84-.08-4.06.86-5,0-.93-.86-.9-2.87,0-4Z"/>
      <path class="cls-3" d="M70.16,130.35c.46-1.34.96-2.84,2-3,1.24-.2,2.54,1.61,3,3,.57,1.69.23,3.75-1,5-.3.3-.99,1-2,1-1.15,0-1.91-.89-2-1-1.2-1.45-.42-3.75,0-5Z"/>
      <path class="cls-3" d="M78.16,131.35c2.26-1.21,5.17-.51,7,1,.55.45,1.71,1.41,2,3,.45,2.44-1.32,5.38-4,6-3.27.75-5.63-2.47-6-3-.33-.48-1.96-2.81-1-5,.53-1.22,1.61-1.79,2-2Z"/>
      <path class="cls-3" d="M90.16,123.35c-1.3,1.2-1.85,3.33-1,5,.52,1.01,1.76,2.27,3,2,1.34-.29,1.79-2.15,2-3,.38-1.55.46-4.36-1-5-1.28-.56-2.91.92-3,1Z"/>
      <path class="cls-3" d="M88.16,131.35c.57-.55,2.79.37,4,2,1.16,1.56,1.05,3.31,1,4-.13,1.67-.99,4.77-3,5-1.25.14-2.78-.84-3-2-.26-1.39,1.57-1.9,2-4,.52-2.54-1.64-4.38-1-5Z"/>
      <path class="cls-3" d="M78.16,152.35c-1.34-.75-3.21-2-5-4-2.36-2.64-3.47-5.35-4-7,.29-.52.89-1.43,2-2,2.05-1.05,4.57-.3,6,1,.75.69,1.17,1.79,2,4,.72,1.92,1.08,2.88,1,4-.14,1.84-1.22,3.22-2,4Z"/>
      <path class="cls-3" d="M84.16,143.35c-1.23.47-1.55,1.95-2,4-.21.97-.58,2.68,0,3,.34.18.81-.19,3-2,2.73-2.26,3.03-2.53,3-3-.08-1.25-2.41-2.61-4-2Z"/>
      <path class="cls-3" d="M138.16,93.35c1.74-.87,4.64.86,6,3,1.29,2.03,1.9,5.53,0,7-1.65,1.27-4.48.45-6-1-2.67-2.55-2.21-7.9,0-9Z"/>
      <path class="cls-3" d="M147.16,97.35c-.42.38.09,1.31,1,4,1.29,3.8,1.25,4.81,2,5,1.05.26,2.69-1.32,3-3,.46-2.56-2.33-4.53-3-5-.73-.51-2.43-1.52-3-1Z"/>
      <path class="cls-3" d="M143.16,91.35c-.38.49,1.01,2.14,2,3,.45.39,1.5,1.31,2,1,.41-.26.32-1.29,0-2-.82-1.81-3.58-2.55-4-2Z"/>
      <path class="cls-3" d="M134.16,104.35c-.68.49-.39,2.8,1,4,1.4,1.22,3.7,1.11,5,0,.51-.43,1.27-1.37,1-2-.31-.72-1.63-.28-4-1-1.95-.59-2.54-1.33-3-1Z"/>
      <path class="cls-3" d="M144.16,107.35c1.27-1.1,4.89-.36,6,2,1.04,2.21-.7,4.61-1,5-1.82,2.38-5.38,3.24-8,2-1.87-.89-3.47-2.95-3-4,.55-1.24,3.6-.15,5-2,.89-1.18.15-2.26,1-3Z"/>
      <path class="cls-3" d="M154.16,108.35c.97-.02,1.85,1.63,2,3,.17,1.62-.59,3.8-2,4-.77.11-1.58-.39-2-1-.62-.91-.3-1.97,0-3,.21-.7.88-2.98,2-3Z"/>
      <path class="cls-3" d="M131.16,110.35c-1.32.19-1.9,2.65-2,4-.1,1.41.14,4.41,2,5,1.06.34,2.31-.21,3-1,1.47-1.67.3-4.31,0-5-.08-.18-1.46-3.23-3-3Z"/>
      <path class="cls-3" d="M137.16,115.35c1.05-.12,2.76,3.08,2,4-.37.46-1.37.37-2,0-1-.59-1-1.81-1-2,0-.83.41-1.93,1-2Z"/>
      <path class="cls-3" d="M146.16,119.35c1.06-2.27,3.84-3.7,5-3,.71.43.25,1.31,1,3,1.1,2.49,3.02,2.65,3,4-.03,1.43-2.19,2.72-4,3-.39.06-2.43.37-4-1-1.74-1.52-1.85-4.18-1-6Z"/>
      <path class="cls-3" d="M154.16,117.35c.66-.89,2.33-.88,3,0,.72.95.11,2.71-1,3-.75.2-1.6-.31-2-1-.32-.56-.44-1.41,0-2Z"/>
      <path class="cls-3" d="M131.16,121.35c.49-.63,2.58-.13,4,1,1.17.93,2.85,3.06,2,5-.75,1.7-2.89,1.99-3,2-1.02.12-2.64-.1-3-1-.34-.86.81-1.4,1-3,.25-2.11-1.51-3.34-1-4Z"/>
      <path class="cls-3" d="M139.16,121.35c1.24-.85,2.72-.13,3,0,1.22.59,2.39,2.03,2,3-.41,1-2.28,1-3,1-1.04,0-2.47,0-3-1-.5-.95.04-2.35,1-3Z"/>
      <path class="cls-3" d="M141.16,128.35c2.23-1.31,5.88-1.58,7,0,1.14,1.6-.73,4.57-1,5-.24.39-3.05,4.7-7,4-3.48-.62-5.75-4.75-5-6,.35-.59,1.19-.23,3-1,1.58-.67,1.85-1.33,3-2Z"/>
      <path class="cls-3" d="M151.16,128.35c.58-.37,1.45-.38,2,0,1.03.72.93,2.79,0,4-1.13,1.46-3.52,1.68-4,1-.24-.34.18-.66,1-3,.43-1.23.5-1.68,1-2Z"/>
      <path class="cls-3" d="M152.16,135.35c1.1.48,2,1.63,2,3,0,1.21-.7,2.62-2,3-1.52.45-2.82-.81-3-1-.7-.71-.9-1.55-1-2-.15-.65-.31-1.37,0-2,.57-1.15,2.52-1.65,4-1Z"/>
      <path class="cls-3" d="M132.16,135.35c2.12-.8,4.41,1.06,5,3,.36,1.18.29,3.02-1,4-1.58,1.2-3.72.14-4,0-.36-.18-1.5-.75-2-2-.69-1.74.08-4.27,2-5Z"/>
      <path class="cls-3" d="M132.16,131.35c.48-.02,1.02.52,1,1-.03.81-1.64,1.36-2,1s.19-1.97,1-2Z"/>
      <path class="cls-3" d="M144.16,139.35c-1.18-.14-2.57,2.1-3,4-.11.48-.31,1.6,0,3,.05.22,1.13,4.91,4,5,1.99.06,3.97-2.12,4-4,.02-1.4-1.05-1.6-3-5-1.19-2.09-1.31-2.92-2-3Z"/>
      <path class="cls-3" d="M130.16,144.35c.73-.93,3.6-.64,5,1,1.64,1.93.87,5.31-1,7-1.16,1.04-3.44,2.09-5,1-1.3-.91-1.74-3.05-1-4,.56-.71,1.43-.29,2-1,.92-1.15-.73-3.06,0-4Z"/>
      <path class="cls-3" d="M139.16,153.35c-.08.76-.14,1.3,0,2,.11.58.5,2.53,2,3,1.49.47,2.88-.88,3-1,.68-.68,1.42-1.98,1-3-.4-.98-1.45-.67-3-2-1.3-1.11-1.49-2.1-2-2-.69.14-.9,2.07-1,3Z"/>
      <path class="cls-3" d="M138.16,145.35c.12-.04.62-.21,1,0,.87.48.74,2.7,0,3-.68.27-2.24-.95-2-2,.1-.45.53-.84,1-1Z"/>
      <path class="cls-3" d="M125.16,159.35c1.5-1.69,2.43-2.74,4-3,2.52-.41,4.56,1.57,5,2,.63.61,2.15,2.09,2,4-.12,1.52-1.24,2.48-3,4-1.71,1.47-2.98,2.57-5,3-2.79.6-6.45-.2-7-2-.17-.56.22-1.38,1-3,1.09-2.26,1.71-3.54,3-5Z"/>
      <path class="cls-3" d="M138.16,165.35c-.73-.62-.22-2.79,1-4,.78-.77,2.25-1.56,3-1,.72.53.49,2.06,0,3-.88,1.69-3.22,2.66-4,2Z"/>
      <path class="cls-3" d="M135.16,154.35c.68-.16,1.32-.31,2,0,.18.08.82.37,1,1,.22.76-.36,1.65-1,2-1.53.82-4.16-1.09-4-2,.09-.54,1.18-.8,2-1Z"/>
      <path class="cls-1" d="M123.16,84.35c-.19.87-.67,2.48-2,4-2.24,2.55-5.24,2.93-6,3"/>
      <path class="cls-1" d="M89.16,76.35c.47,1.6,1.52,4.42,4,7,2.02,2.11,4.05,3.08,6,4,2.74,1.29,8.67,4.06,15,2,1.79-.59,3.15-1.41,4-2"/>
      <ellipse class="cls-7" cx="133.66" cy="63.85" rx="4.5" ry="6.5"/>
      <path class="cls-1" d="M27.16,86.35c4.37-2.37,8.1-4.41,11-6,12.54-6.87,14.33-7.95,16-9,5.24-3.29,5.38-3.79,8-5,5.43-2.5,10.55-2.98,14-3"/>
      <path class="cls-8" d="M22.16,100.35c.35.47.72.79,1,1,1.27-.5,3.13-1.39,5-3,2.1-1.8,3.33-3.73,4-5-.33-.67-.67-1.33-1-2-2.03.63-3.7,1.36-5,2-3.01,1.49-4.81,2.41-5,4-.12,1,.41,2.21,1,3Z"/>
      <path class="cls-5" d="M73.16,75.35c1.47-1,3.47-2.14,6-3,1.46-.5,2.81-.81,4-1-.67-.67-1.33-1.33-2-2-2.88.34-6.75,1.13-11,3-2.85,1.25-5.18,2.69-7,4,1.34-.41,3.03-.81,5-1,1.93-.19,3.63-.13,5,0Z"/>
      <path class="cls-2" d="M123.16,84.35c-.27-1.4,1.75-2.83,2-3,.39-.28,1.47-1.01,3-1,2.34.01,3.78,1.73,4,2,1.72,2.13,1.08,4.72,1,5-1,.33-2,.67-3,1s-2,.67-3,1c-.33-.8-.91-1.95-2-3-1.08-1.04-1.85-1.21-2-2Z"/>
      <circle class="cls-4" cx="98.55" cy="35.74" r="16.11"/>
      <circle class="cls-10" cx="99.03" cy="35.38" r="12.4"/>
      <circle cx="98.12" cy="35.52" r="7.52"/>
      <circle class="cls-9" cx="106.14" cy="28.06" r="5.08"/>
      <circle class="cls-4" cx="153.03" cy="27.25" r="13.61"/>
      <circle class="cls-10" cx="153.43" cy="26.95" r="10.47"/>
      <circle cx="152.66" cy="27.06" r="6.35"/>
      <circle class="cls-9" cx="159.43" cy="20.76" r="4.29"/>
    </g>
  </g>
</svg>