<?xml version="1.0" encoding="UTF-8"?>
<svg id="Layer_2" data-name="Layer 2" xmlns="http://www.w3.org/2000/svg" viewBox="0 0 439.68 320">
  <defs>
    <style>
      .cls-1 {
        fill: #fff;
      }

      .cls-2 {
        fill: #f1f8fd;
      }

      .cls-3 {
        fill: #333;
      }

      .cls-4 {
        fill: #015576;
      }

      .cls-5 {
        fill: #0b121b;
      }

      .cls-6 {
        fill: #022b46;
      }
    </style>
  </defs>
  <g id="Layer_1-2" data-name="Layer 1">
    <g>
      <path class="cls-4" d="M2.68,36c1.91-2.69,4.36-4.16,6-5C52.65,8.49,105.68,15,105.68,15c68.46,8.4,117.53,45.41,135,65,11.53,12.93,16,18,16,18,24.97,28.32,26.84,31.54,34,37,6.77,5.16,20.92,15.96,40,17,28.95,1.58,49.76-20.35,54-25-2.9-7.08-7.55-21.34-5-39,4.54-31.45,28.32-48.74,33-52-1.96,7.26-2.69,13.19-3,17-1.72,20.98,4.61,31.48,2,53-.59,4.87-1.45,8.74-2,11,2.94,2.36,5.97,5.01,9,8,9.71,9.58,16.4,19.53,21,28-3.83,2.21-9.61,4.87-17,6-15.4,2.35-27.53-3.53-32-6-1.96,7.96-5.44,19-12,31-27.9,51.07-82.78,67.13-96,71-67.76,19.83-124.66-7.32-138.99-14.48-18.28-9.13-31.93-19.6-41.01-27.52-43.53-39.57-58.75-59.8-64-71-1.03-2.19-10.14-22.05-19-40-1.78-3.61-7.97-15.99-14-33C-.4,51.85-1.91,42.47,2.68,36Z"/>
      <path class="cls-2" d="M3.68,63c.98-1.32,2.6-3.24,5-5,12.09-8.83,29.53-2.89,75,15,47.71,18.77,53.91,22.23,61,27,17.16,11.56,29.27,23.98,37,33-.49,21.58-11.56,37.26-24,39-2.35.33-7.82.6-15-4,3.05,5.27,7.85,12.54,15,20,42.44,44.26,110.48,35.26,119,34,39.09-5.77,65.15-25.39,75-33,20.06-15.49,32.68-32.45,40-44-.15,1.94-.44,4.71-1,8-8.6,50.09-59.46,85.05-97,99-48.05,17.86-91.11,7.71-110,3-82.45-20.57-126.21-85.17-141-107C20.44,115.18,9.42,83.94,3.68,63Z"/>
      <path class="cls-4" d="M207.68,53c5.47-8.27,14.07-19.11,27-29C258.16,6.02,282.51,1.42,294.68,0c-7.37,7.63-16.5,18.83-24,34-12.98,26.24-14.31,50.6-14,64-6.32-8.44-14.82-18.27-26-28-8.08-7.03-15.95-12.61-23-17Z"/>
      <path class="cls-4" d="M101.68,212c.31,11.68,2.46,33.5,15,57,15.38,28.81,37.74,43.93,48,50-4.08-6.82-9.25-17.32-12-31-3.76-18.71-1.16-34.28,1-43-7.58-3.27-16.07-7.51-25-13-10.86-6.68-19.82-13.66-27-20Z"/>
      <path class="cls-4" d="M210.68,185c-1.5,6.41-11,50.23,18,90,31.39,43.05,81.3,44.89,87,45-9.34-6.54-22.96-17.96-34-36-20.39-33.32-18.33-66.93-17-79"/>
      <path class="cls-6" d="M189.68,85c.42,9.73-.13,23.88-5,40-6.99,23.1-19.39,38.77-27,47,4.29-1.69,24.01-9.98,34-32,12.24-26.98-.4-51.96-2-55Z"/>
      <path class="cls-6" d="M208.68,106c-.43,9.32-2.36,25.35-11,43-8.26,16.88-19.09,27.93-26,34,4.55-1.44,22.15-7.59,33-26,13.89-23.58,5.22-47.78,4-51Z"/>
      <path class="cls-6" d="M182.68,194c7.42-6.54,17.27-16.66,26-31,8.13-13.35,12.53-25.81,15-35,1.01,5.65,2.63,19.24-4,34-10.5,23.38-33.23,30.83-37,32Z"/>
      <path class="cls-4" d="M317.68,150c2.29-3.59,5.86-8.64,11-14,5.17-5.39,13.18-12.41,15-11,1.34,1.04-2.35,5.39-2,12,.29,5.46,3.21,9.88,6,13-4.12,1.13-9.97,2.25-17,2-5.17-.18-9.58-1.06-13-2Z"/>
      <path class="cls-4" d="M349.68,220c-.19,3.2-.11,9.32,3,16,4.74,10.16,13.28,14.69,16,16-4.21,1.57-14.84,4.89-28,2-11.91-2.61-19.68-8.94-23-12,5.08-2.89,10.45-6.2,16-10,5.91-4.04,11.23-8.09,16-12Z"/>
      <path class="cls-1" d="M11.68,85c14.22-3.76,41.06-8.27,66,5,10.11,5.38,26.22,17.04,24,25-2.73,9.77-31.95,9.94-42,10-12.79.08-23.22-1.59-30-3-3.35-6.48-6.68-13.15-10-20-2.78-5.74-5.44-11.41-8-17Z"/>
      <path class="cls-5" d="M11.68,85c4.86,6.33,9.72,12.67,14.58,19v-18c3.89,5.67,7.78,11.33,11.67,17,1.94-5.33,3.89-10.67,5.83-16,3.24,5.33,6.48,10.67,9.72,16,1.94-4.33,3.89-8.67,5.83-13,2.92,4.33,5.83,8.67,8.75,13,2.59-2.33,5.19-4.67,7.78-7,1.62,3.33,3.24,6.67,4.86,10,1.94-1.67,3.89-3.33,5.83-5,1.3,3,2.59,6,3.89,9,2.92.33,5.83.67,8.75,1-2.92.67-5.83,1.33-8.75,2-.65,3-1.3,6-1.94,9-1.94-2.67-3.89-5.33-5.83-8-1.62,3.33-3.24,6.67-4.86,10-.97-3.33-1.94-6.67-2.92-10-2.59,3.67-5.19,7.33-7.78,11-1.94-5-3.89-10-5.83-15-1.62,5-3.24,10-4.86,15-4.21-7.33-8.43-14.67-12.64-22-.32,7-.65,14-.97,21-4.21-5.67-8.43-11.33-12.64-17-.32,5-.65,10-.97,15-5.83-12.33-11.67-24.67-17.5-37Z"/>
      <circle class="cls-1" cx="114.33" cy="65.92" r="23.15"/>
      <circle class="cls-3" cx="115.01" cy="65.41" r="17.82"/>
      <circle cx="113.71" cy="65.61" r="10.81"/>
      <circle class="cls-1" cx="125.23" cy="54.89" r="7.3"/>
    </g>
  </g>
</svg>