<?xml version="1.0" encoding="UTF-8"?>
<svg id="Layer_2" data-name="Layer 2" xmlns="http://www.w3.org/2000/svg" viewBox="0 0 91.11 142.21">
  <defs>
    <style>
      .cls-1 {
        fill: #e7a334;
      }

      .cls-2 {
        fill: #fff;
      }

      .cls-3 {
        fill: #f9a147;
      }

      .cls-4 {
        fill: #333;
      }

      .cls-5 {
        fill: #fbaf34;
      }
    </style>
  </defs>
  <g id="Layer_1-2" data-name="Layer 1">
    <g>
      <path class="cls-1" d="M83.08,58c1.19.43,3.27.95,5,0,2.59-1.42,2.91-5.32,3-8,.37-11.28-2.77-22.11-4-27-1.37-5.44-2.82-13.2-3-23-8.03,6.43-15.12,10.5-20,13-4.85,2.48-21.24,10.41-27,18-1.56,2.06-2.35,4.02-2,6,.49,2.8,3.06,4.45,4,5"/>
      <path class="cls-5" d="M36.08,73c-.84-.34-1.99-.93-3-2-2.93-3.11-2.4-7.8-2-11,.88-6.98,3.82-12.05,5-14,5.51-9.13,11.61-14.94,17-20,13.07-12.28,21.54-15.74,25-17,1.24-.45,2.28-.78,3-1,.25.69.61,1.73,1,3,3.05,9.88,2.97,17.53,2,36-.28,5.27-1.2,21.52-5,28-.89,1.52-3.44,5.86-8,7h0c-.37.23-1.37.78-2.71.7-1.93-.12-3.08-1.45-3.29-1.7.33-1,.67-2,1-3-1.41-.7-3.37-1.92-5-4-2.07-2.65-1.6-4.14-3-6-2.87-3.82-10.47-5.07-16-2-3.73,2.08-5.39,5.5-6,7Z"/>
      <path class="cls-5" d="M34.08,76c-.87-.98-4.1,2.08-10,3-2.31.36-7.85,1.23-12-2-1.58-1.23-4.3-4.09-5-8-.36-1.99-.03-3.39-1-4-1.25-.79-3.73.32-5,2-1.28,1.7-1.12,3.72-1,5,.47,4.99,4.13,8.23,5,9,3.14,2.78,6.52,3.49,9,4,2.15.44,11.37,2.33,17-3,2.21-2.09,3.74-5.17,3-6Z"/>
      <ellipse class="cls-3" cx="19.09" cy="82.7" rx="1" ry="1.5" transform="translate(-64.81 95.51) rotate(-85.68)"/>
      <path class="cls-5" d="M64.08,101c.33,2.06.15,3.44,1,6,1.32,3.96,3.16,4.84,5,8,2.95,5.07,3.97,12.65,1,15-1.5,1.19-4.23,1.2-6,0-.22-.15-1.77-1.23-2-3-.21-1.57.86-1.95,1-4,.13-1.94-.69-3.45-1-4-.99-1.77-2.45-2.63-3-3-4.67-3.16-6.01-13.05-5-20,.25-1.7.77-4.16,2-7,4.95,4.78,6.51,8.98,7,12Z"/>
      <ellipse class="cls-3" cx="59.37" cy="111.28" rx="1" ry="1.5" transform="translate(-30.47 22.76) rotate(-17.34)"/>
      <path class="cls-5" d="M36.08,73c-.92,1.66-2.47,3.97-5,6-5.88,4.72-10.4,2.57-17,6-8.63,4.49-11.62,13.77-12,15-2.03,6.62-.76,12.38,0,15-.37.79-.76,1.8-1,3-1.28,6.33,2.29,13.23,4,13,1.59-.22,2.98-6.83,1-12-.74-1.94-1.29-1.93-2-4-1.31-3.85-.59-7.34,0-10,.68-3.06,1.62-7.32,5-11,2.78-3.03,6.56-4.39,14-7,4.09-1.43,7.56-2.39,10-3-1.05,1.05-2.71,2.56-5,4-4.29,2.7-5.97,2.13-9,4-4.54,2.8-6.3,7.49-8,12-1.45,3.87-2.95,7.85-1,10,1.16,1.28,3.48,1.83,5,1,2.17-1.18,1.05-4.23,3-9,1.7-4.16,4.53-6.71,6-8,3.29-2.9,6.72-4.3,9-5-4.34,3.69-6.72,7.5-8,10-.8,1.56-6.29,12.27-2,19,.47.73,1.9,2.97,4,3,1.74.02,3.32-1.48,4-3,1.06-2.37-.59-3.67-1-8-.14-1.43-.59-6.14,2-10,.74-1.1,1.83-2.07,4-4,2-1.78,3.77-3.11,5-4-.62,1.77-1.46,4.53-2,8-1.08,6.92.45,7.73-1,12-.91,2.68-2.28,4.65-4,10-.35,1.09-.89,2.87,0,4,.89,1.14,2.74,1.02,3,1,3.54-.27,5.86-4.79,7-7,2.64-5.14,2.91-10.1,3-12,.16-3.61-.38-4.45,0-8,.37-3.45,1.28-6.2,2-8-1.22,6.94-.2,11.8,1,15,1.48,3.96,3.26,5.45,3,9-.22,3.01-1.67,4.2-2,9-.26,3.69.48,4.6,1,5,1.09.84,2.84.63,4,0,1.43-.77,2.22-2.31,3-6,.91-4.27,1.54-7.28,1-12-.61-5.26-1.95-6.31-3-11-.76-3.39-1.31-8.4,0-15,.57,2.03,1.68,5.05,4,8,2.88,3.66,5.4,4.38,14,10,8.14,5.32,9.34,6.93,10,8,2.75,4.44,2.56,9.53,2,13-1.13.25-2.66.78-4,2-3.64,3.3-3.99,9.85-2,11,1.81,1.04,6.41-1.92,8-6,1.18-3.03.38-5.88,0-7,.62-6.37-1.01-10.84-2-13-3.08-6.74-8.95-10.86-12-13-1.82-1.28-1.78-1.03-3-2-1.59-1.26-7.19-5.69-8-13-.49-4.42.97-8.03,2-10-1.83-.82-4.34-2.3-6-5-1.43-2.32-.89-3.36-2-5-2.62-3.86-10.42-5.11-16-2-3.64,2.03-5.32,5.37-6,7Z"/>
      <ellipse class="cls-3" cx="4.08" cy="69.5" rx="1" ry="1.5"/>
      <ellipse class="cls-3" cx="5.08" cy="73.5" rx="1" ry="1.5" transform="translate(-22.22 5.07) rotate(-17.8)"/>
      <ellipse class="cls-3" cx="8.09" cy="77.7" rx="1" ry="1.5" transform="translate(-55.27 32) rotate(-48.26)"/>
      <ellipse class="cls-3" cx="11.09" cy="80.7" rx="1" ry="1.5" transform="translate(-67.11 57.88) rotate(-65.91)"/>
      <ellipse class="cls-3" cx="15.09" cy="81.7" rx="1" ry="1.5" transform="translate(-67.99 81.15) rotate(-79.16)"/>
      <ellipse class="cls-3" cx="1.08" cy="71.5" rx="1" ry="1.5"/>
      <ellipse class="cls-3" cx="2.09" cy="75.7" rx="1" ry="1.5" transform="translate(-11.93 1.28) rotate(-9.09)"/>
      <ellipse class="cls-3" cx="5.09" cy="79.7" rx="1" ry="1.5" transform="translate(-41.79 15.05) rotate(-32.29)"/>
      <ellipse class="cls-3" cx="8.09" cy="82.7" rx="1" ry="1.5" transform="translate(-67.58 48.36) rotate(-60)"/>
      <ellipse class="cls-3" cx="12.2" cy="84.43" rx="1.29" ry="1.5" transform="translate(-70.88 65.04) rotate(-68.64)"/>
      <ellipse class="cls-3" cx="59.08" cy="98.5" rx="1" ry="1.5"/>
      <ellipse class="cls-3" cx="59.08" cy="102.5" rx="1" ry="1.5"/>
      <ellipse class="cls-3" cx="60.08" cy="106.5" rx="1" ry="1.5"/>
      <ellipse class="cls-3" cx="62.08" cy="110.5" rx="1" ry="1.5" transform="translate(-17.91 12.19) rotate(-9.81)"/>
      <ellipse class="cls-3" cx="64.37" cy="114.28" rx="1" ry="1.5" transform="translate(-18.52 12.63) rotate(-9.81)"/>
      <ellipse class="cls-3" cx="66.37" cy="118.28" rx="1" ry="1.5" transform="translate(-32.24 25.16) rotate(-17.34)"/>
      <ellipse class="cls-3" cx="67.08" cy="122.5" rx="1" ry="1.5"/>
      <ellipse class="cls-3" cx="67.08" cy="126.5" rx="1" ry="1.5"/>
      <ellipse class="cls-3" cx="64.08" cy="126.5" rx="1" ry="1.5"/>
      <ellipse class="cls-3" cx="64.08" cy="122.5" rx="1" ry="1.5"/>
      <ellipse class="cls-3" cx="63.08" cy="118.5" rx="1" ry="1.5" transform="translate(-32.46 24.19) rotate(-17.34)"/>
      <ellipse class="cls-3" cx="61.08" cy="115.5" rx="1" ry="1.5" transform="translate(-31.65 23.46) rotate(-17.34)"/>
      <path d="M44.08,83c-.38,1.9,2.16,2.75,3,1-.09.41-.36.79-.75,1-1.24.76-2.89-.68-2.25-2h0Z"/>
      <circle class="cls-2" cx="60.44" cy="73.39" r="8.11"/>
      <circle class="cls-4" cx="60.73" cy="73.32" r="6.24"/>
      <circle cx="60.28" cy="73.22" r="3.78"/>
      <circle class="cls-2" cx="65.4" cy="71.19" r="2.56"/>
      <circle class="cls-2" cx="42.82" cy="67.46" r="8.11"/>
      <circle class="cls-4" cx="43.1" cy="67.38" r="6.24"/>
      <circle cx="42.65" cy="67.28" r="3.78"/>
      <circle class="cls-2" cx="47.78" cy="65.25" r="2.56"/>
    </g>
  </g>
</svg>