<?xml version="1.0" encoding="UTF-8"?>
<svg id="Layer_2" data-name="Layer 2" xmlns="http://www.w3.org/2000/svg" viewBox="0 0 188.17 181.87">
  <defs>
    <style>
      .cls-1 {
        fill: #fff;
      }

      .cls-2 {
        fill: #fef4f8;
      }

      .cls-3 {
        fill: #faf0f6;
      }

      .cls-4 {
        fill: #333;
      }

      .cls-5 {
        fill: #f9cadf;
      }
    </style>
  </defs>
  <g id="Layer_1-2" data-name="Layer 1">
    <g>
      <path class="cls-5" d="M156.96,176.02c-6.63,5.28-31.46-11.75-59.9-39.58-25.86,30.24-49.08,49.41-56.16,44.73-7.07-4.67,1.45-33.55,19.14-69.2C23.28,96.72-2.12,80.56.14,72.39s32.36-8.99,71.73-3.18C75.01,29.54,82.53.38,91,0c8.47-.38,18.55,28,25.19,67.23,38.7-9.27,68.75-11.12,71.73-3.18s-20.9,26.29-56.16,44.73c20.77,33.94,31.82,61.95,25.19,67.23Z"/>
      <path class="cls-3" d="M141.17,155.83c-4.86,3.87-23.07-8.61-43.91-29.02-18.96,22.17-35.98,36.22-41.17,32.8-5.19-3.43,1.06-24.6,14.03-50.73-26.95-11.18-45.57-23.03-43.91-29.02s23.72-6.59,52.58-2.33c2.3-29.08,7.82-50.46,14.03-50.73,6.21-.28,13.6,20.53,18.47,49.29,28.37-6.8,50.4-8.15,52.58-2.33,2.18,5.82-15.32,19.28-41.17,32.8,15.23,24.88,23.33,45.42,18.47,49.29Z"/>
      <path d="M88.52,105.68c4.12,4.04,10.57,3.74,14-1-2.83,5.33-10.38,5.72-14,1h0Z"/>
      <circle class="cls-2" cx="52.02" cy="86.18" r="2.5"/>
      <circle class="cls-2" cx="36.68" cy="82.67" r="3.84"/>
      <circle class="cls-2" cx="22.18" cy="79.17" r="5.34"/>
      <circle class="cls-2" cx="93.75" cy="56.39" r="2.5"/>
      <circle class="cls-2" cx="93.23" cy="40.66" r="3.84"/>
      <circle class="cls-2" cx="92.91" cy="25.75" r="5.34"/>
      <circle class="cls-2" cx="137.07" cy="84.47" r="2.5"/>
      <circle class="cls-2" cx="151.72" cy="78.73" r="3.84"/>
      <circle class="cls-2" cx="165.67" cy="73.45" r="5.34"/>
      <circle class="cls-2" cx="72.42" cy="133.56" r="2.5"/>
      <circle class="cls-2" cx="64.01" cy="146.86" r="3.84"/>
      <circle class="cls-2" cx="55.89" cy="159.37" r="5.34"/>
      <circle class="cls-2" cx="124.74" cy="130.92" r="2.5"/>
      <circle class="cls-2" cx="133.15" cy="144.22" r="3.84"/>
      <circle class="cls-2" cx="141.28" cy="156.73" r="5.34"/>
      <circle class="cls-1" cx="77.44" cy="85.05" r="14.13"/>
      <circle class="cls-4" cx="77.86" cy="84.74" r="10.88"/>
      <circle cx="77.06" cy="84.86" r="6.6"/>
      <circle class="cls-1" cx="84.1" cy="78.32" r="4.46"/>
      <circle class="cls-1" cx="108.9" cy="83.5" r="14.13"/>
      <circle class="cls-4" cx="109.31" cy="83.19" r="10.88"/>
      <circle cx="108.52" cy="83.32" r="6.6"/>
      <circle class="cls-1" cx="115.55" cy="76.77" r="4.46"/>
    </g>
  </g>
</svg>