<?xml version="1.0" encoding="UTF-8"?>
<svg id="Layer_2" data-name="Layer 2" xmlns="http://www.w3.org/2000/svg" viewBox="0 0 286.49 216.53">
  <defs>
    <style>
      .cls-1 {
        fill: none;
      }

      .cls-1, .cls-2, .cls-3, .cls-4, .cls-5, .cls-6 {
        stroke: #000;
        stroke-miterlimit: 10;
      }

      .cls-7, .cls-2 {
        fill: #fff;
      }

      .cls-8, .cls-3 {
        fill: #303030;
      }

      .cls-5 {
        fill: #404040;
      }

      .cls-9 {
        fill: #333;
      }

      .cls-6 {
        fill: #c2c0b4;
      }
    </style>
  </defs>
  <g id="Layer_1-2" data-name="Layer 1">
    <g>
      <path class="cls-5" d="M117.9,145.71c1.22,3.33,1.08,8.19,1,11-.12,4.12-.68,5.13-1,9-.47,5.71.53,6.37,1,15,.41,7.58-.36,7.17,0,16,.34,8.43,1.06,9.29,0,11-4.31,6.99-23.75,4.86-25,0-.65-2.54,4.21-3.62,8-11,.51-.99,3.83-7.66,3-16-.37-3.71-1.18-3.94-5-14-1.22-3.22-2.81-8.15-6-18-3.57-11.05-3.71-12.06-3-13,3.6-4.76,23.27-.21,27,10Z"/>
      <path class="cls-5" d="M226.9,127.71c3.54,3.19.94,6.78,6,19,2.52,6.09,4.04,7.32,4,11-.06,4.91-2.8,6.19-7,14-6.01,11.17-2.59,12.6-8,20-3.21,4.39-6.58,6.85-7,12-.26,3.21.88,4.27,0,6-2.72,5.37-18.73,5.24-21,0-.81-1.88.52-3.54,5-11,3.4-5.66,7.89-13.13,11-20,4.13-9.12,6.2-13.69,5-19-1.2-5.33-5.03-9.53-10-15-5.75-6.31-8.1-6.78-8-9,.3-6.71,22.3-14.95,30-8Z"/>
      <path class="cls-5" d="M75.9,40.71c3.78-10.5,7.7-16.16,11-20,.76-.89,15.75-17.86,38-20,22.48-2.16,26.81,13.26,59,23,34.35,10.39,42.64-3.18,61,9,19.54,12.96,34.15,44.25,29,69-2.67,12.81-10.83,24.86-5,37,1.68,3.5,5.53,9.11,5,17-.28,4.1-1.46,4.73-3,10-3.29,11.29-2.1,23.06-1,34,.65,6.5,1.2,7.89,0,10-4.76,8.35-25.55,7.82-28,2-1.44-3.41,3.25-9.09,4-10,2.42-2.93,4.61-3.9,6-5,5.4-4.29,4.54-15.39,1-31-5.26-23.2-7.89-34.8-14-38-9.06-4.75-14.34,4.33-42,8-11.97,1.59-25.61,1.83-35,2-11.53.21-18.4-.13-28,3-9.46,3.08-10.37,5.88-16,7-14.21,2.81-29.67-10.8-37-20-25.01-31.4-8.25-77.96-5-87Z"/>
      <path class="cls-5" d="M103.9,79.71c2.06-.79,3.75,2.47,8,5,7.9,4.71,13.26.12,20,5,2.4,1.74,5.79,5.26,5,8-1.11,3.86-10.51,6.02-17,3-3.9-1.81-2.95-3.72-9-8-5.07-3.59-8.17-3.96-9-7-.64-2.34.3-5.35,2-6Z"/>
      <path class="cls-5" d="M43.48,79.38c-2.06-.79-3.75,2.47-8,5-7.9,4.71-13.26.12-20,5-2.4,1.74-5.79,5.26-5,8,1.11,3.86,10.51,6.02,17,3,3.9-1.81,2.95-3.72,9-8,5.07-3.59,8.17-3.96,9-7,.64-2.34-.3-5.35-2-6Z"/>
      <path class="cls-5" d="M106.9,69.71c1.58,6.05-5.9,10.3-7,26-.28,3.94-.04,7.04-2,11-1.66,3.36-3.74,4.99-7,11-1.28,2.36-1.54,3.18-2,4-5.46,9.72-34.01,10.85-38,2-.89-1.98-.92-5.27,3-11-4.64-1.86-6.33-4.18-7-6-1.32-3.62,1.08-6.21,0-11-.76-3.4-2.65-5.13-4-7-5.18-7.17-4.46-19-2-24,8.25-16.76,62.11-9.9,66,5Z"/>
      <path class="cls-6" d="M70.9,64.71c-1.29-2.36-.86-5.57,0-12,.84-6.25,1.26-9.38,3-11,4.33-4.04,14.06-1.16,20,2,10.7,5.7,10.51,13.1,21,17,1.87.7,10.05,3.74,14,0,3.73-3.53,2.02-11.51,0-16-2.55-5.65-6.64-8.06-6-9,.74-1.09,7.3.71,12,5,6.53,5.96,10.85,17.96,6,28-5.36,11.11-18.97,13.69-27,13-10.33-.89-10.23-7.11-26-11-8.9-2.2-14.59-1.62-17-6Z"/>
      <path class="cls-5" d="M53.9,132.71c-2.78-2.08-3.41-6.16-3-9,.65-4.49,4.22-8.15,8-9,4.28-.96,5.58,2.41,11,2,5.25-.4,6.3-3.74,10-3,3.67.73,6.19,4.73,7,8,.92,3.74.11,8.62-3,11-3.52,2.7-6.58-.43-17,0-7.54.31-10.15,2.13-13,0Z"/>
      <path class="cls-5" d="M58.9,133.71c-1.06,1.88.87,5.24,3,7,2.6,2.15,5.7,2.06,7,2,6.53-.3,12.75-5.62,12-8-.41-1.31-3.94-1.54-11-2-9.79-.64-10.71.49-11,1Z"/>
      <path d="M70.15,63.21c10.73-1.83,21.62,1.19,30.59,7.14,9.6,6.64,19.33,7.28,29.91,2.36-2.34,1.28-4.82,2.31-7.41,3.04-21.61,5.5-24.54-14.81-53.09-12.54h0Z"/>
      <path d="M73.15,58.21c7.68-.59,15.65.41,22.5,4.14,6.38,4.31,13.72,6.88,21.5,5.86-1.88.42-3.81.58-5.74.59-5.89.06-11.39-2.51-16.25-5.57-6.67-3.74-14.44-4.8-22.01-5.01h0Z"/>
      <path d="M74.15,51.21c5.99-.95,12.27.21,17.51,3.26,5.2,2.97,10.68,5.23,16.49,6.74-1.49-.18-2.96-.48-4.43-.81-4.39-1.06-8.62-2.84-12.53-5.05-5.17-3.04-11.06-4.29-17.04-4.14h0Z"/>
      <path d="M78.15,46.21c6.43-.85,13.36,1.47,18,6-5.54-3.39-11.53-5.41-18-6h0Z"/>
      <path class="cls-6" d="M72.23,65.06c1.42-2.28,1.16-5.52.63-11.98-.51-6.29-.76-9.43-2.41-11.14-4.11-4.26-13.98-1.91-20.08.94-10.98,5.13-11.19,12.52-21.87,15.87-1.91.6-10.23,3.2-13.98-.74-3.54-3.72-1.41-11.6.85-15.98,2.84-5.51,7.05-7.7,6.47-8.67-.68-1.13-7.32.32-12.25,4.36-6.84,5.61-11.78,17.36-7.47,27.64,4.76,11.38,18.22,14.68,26.28,14.41,10.36-.35,10.59-6.56,26.54-9.61,9-1.72,14.66-.84,17.29-5.09Z"/>
      <path class="cls-4" d="M278.26,120.59c-1.08.02-1.83,2.83-2.06,3.69-.44,1.66-1.27,4.78-.32,8.08.17.6.42,1.28.38,2.28-.06,1.38-.65,2.48-1.14,3.2.21.02.58.02.98-.16.88-.42,1.06-1.4,1.08-1.52.03.71.14,1.61.43,2.6.51,1.7,1.34,2.94,1.95,3.69.14-1.14.29-2.28.43-3.42-.05.63-.14,2.55,1.08,4.5,1.32,2.1,3.28,2.84,3.85,3.04-.88-1.03-1.95-2.62-2.11-4.66-.24-2.95,1.65-3.8,2.06-7.7.12-1.2.43-4.19-1.14-6.83-.86-1.44-1.57-1.6-2.6-3.58-.08-.15-.65-1.25-1.74-2.39-.75-.78-1.01-.82-1.14-.81Z"/>
      <path class="cls-5" d="M167.9,113.71c-3.69,9.92-5.26,18.18-6,24-1.16,9.1-.12,10.76-2,18-2.36,9.07-5.25,11.28-5,18,.14,3.78,1.12,4.75,4,13,4.38,12.54,6.57,18.81,5,22-4.52,9.17-29.8,8.24-32,2-.68-1.92,1.39-2.8,5-10,3.83-7.64,4.95-13.51,6-19,1.54-8.07.65-10,0-11-1.78-2.74-4.59-2.86-6-6-1.3-2.88-.32-5.85,0-7,1.18-4.25,1.39-12.85-3-32"/>
      <path class="cls-5" d="M261.9,49.71c1.31-.7,3.08-1.34,5-1,8.32,1.46,12.46,20.15,13,33,.32,7.5-.79,8.27-1,20-.17,9.83.45,17.84,1,23h-3c-2.19-19.79-2.54-32.38-2-41,.2-3.18.82-10.47-3-18-1.64-3.24-3.62-5.56-5-7-1.67-3-3.33-6-5-9Z"/>
      <path class="cls-3" d="M55.9,120.71c.54-1.23,3.94-2.06,6,0s1.23,5.46,0,6c-1.89.83-6.83-4.11-6-6Z"/>
      <path class="cls-3" d="M72.9,124.71c-.54-1.89,5.89-6.37,8-5,1.17.76,1.14,3.42,0,5-2.1,2.9-7.56,1.53-8,0Z"/>
      <path class="cls-1" d="M53.9,112.71c.33-4.33.67-8.67,1-13"/>
      <path class="cls-1" d="M87.9,122.71c1.06-4.08.63-7.02,0-9-.89-2.79-2.26-3.91-3-7-.67-2.79-.38-5.29,0-7"/>
      <circle class="cls-2" cx="60.81" cy="88.56" r="7.34"/>
      <circle class="cls-9" cx="60.66" cy="88.34" r="5.65"/>
      <circle cx="60.7" cy="88.75" r="3.43"/>
      <circle class="cls-7" cx="57.45" cy="84.97" r="2.31"/>
      <circle class="cls-2" cx="80.32" cy="88.44" r="7.34"/>
      <circle class="cls-9" cx="80.53" cy="88.28" r="5.65"/>
      <circle cx="80.12" cy="88.34" r="3.43"/>
      <circle class="cls-7" cx="83.77" cy="84.94" r="2.31"/>
      <path d="M71.9,61.71c-28.56-2.28-31.46,18.04-53.09,12.54-2.58-.73-5.07-1.75-7.41-3.04,7.18,3.36,15.56,4.56,22.97,1.41,4.89-2.05,9.11-5.46,13.98-7.65,7.28-3.45,15.62-4.51,23.55-3.26h0Z"/>
      <path d="M68.9,56.71c-7.57.21-15.35,1.27-22.01,5.01-4.86,3.06-10.36,5.63-16.25,5.57-1.93,0-3.86-.17-5.74-.59,7.79,1.01,15.12-1.55,21.5-5.86,6.85-3.73,14.82-4.73,22.5-4.14h0Z"/>
      <path d="M67.9,49.71c-5.98-.15-11.87,1.1-17.04,4.14-3.91,2.21-8.14,3.99-12.53,5.05-1.47.33-2.94.63-4.43.81,5.8-1.51,11.29-3.77,16.49-6.74,5.24-3.05,11.53-4.21,17.51-3.26h0Z"/>
      <path d="M63.9,44.71c-6.47.59-12.46,2.61-18,6,4.64-4.53,11.57-6.85,18-6h0Z"/>
      <path class="cls-8" d="M39.9,84.71c-.27-.47-3.3,1.79-9,3-4.98,1.06-6.91.24-11,2-1.32.57-5.15,2.22-5,4,.14,1.68,3.78,3.2,7,3,2.42-.15,3.84-1.22,9-5,7.54-5.52,9.2-6.66,9-7Z"/>
      <path class="cls-8" d="M104.93,82.08c.37-.4,2.86,2.44,8.17,4.82,4.65,2.09,6.71,1.68,10.33,4.27,1.17.83,4.56,3.25,4.05,4.96-.49,1.61-4.37,2.33-7.47,1.46-2.34-.65-3.5-2-7.75-6.78-6.21-6.98-7.59-8.44-7.33-8.74Z"/>
      <path d="M97.91,211.27c-.48-4.3,3.13-8.38,7.5-8.07-1.01.04-1.99.29-2.88.72-2.69,1.23-4.12,4.37-3.62,7.21,0,0-.99.13-.99.13h0Z"/>
      <path d="M136.42,214.82c-.98-4.48,1.65-9.64,6.49-10.12-1.07.23-2.09.67-2.96,1.31-2.67,1.9-3.35,5.56-2.56,8.57,0,0-.97.24-.97.24h0Z"/>
      <path d="M199.45,213.93c-2.13-4.54.54-10.21,5.45-11.22-4.55,1.27-6.83,6.69-4.55,10.78,0,0-.9.44-.9.44h0Z"/>
      <path d="M243.4,213.67c.39-3.97,3.6-7.38,7.5-7.96-3.67.89-6.46,4.3-6.5,8.04,0,0-1-.07-1-.07h0Z"/>
    </g>
  </g>
</svg>