<?xml version="1.0" encoding="UTF-8"?>
<svg id="Layer_2" data-name="Layer 2" xmlns="http://www.w3.org/2000/svg" viewBox="0 0 150.06 158.17">
  <defs>
    <style>
      .cls-1 {
        fill: #a46728;
      }

      .cls-1, .cls-2 {
        stroke: #000;
        stroke-miterlimit: 10;
      }

      .cls-3, .cls-2 {
        fill: #fff;
      }

      .cls-4 {
        fill: #333;
      }
    </style>
  </defs>
  <g id="Layer_1-2" data-name="Layer 1">
    <g>
      <path class="cls-1" d="M26.5,46.09c-.18-1.54-.62-2.43-1-3-1.54-2.3-4.35-2.82-5-3C13.7,38.18,6.94,5.81,16.5,1.09c7.16-3.53,21.27,9.51,24,17,2.52,6.93,2,10,2,10-.07.41-.19.98-.23,1.66,0,0-.05,1.2.23,2.34.34,1.39,1.65,4.53,4,5,1.12.22,1.13-.43,4-1,2.44-.49,3.41-.21,4-1,.32-.42.36-.92,0-3-.66-3.86-1-5.78-2-6-.58-.12-.76.44-2,1-.15.07-3.39,1.42-5,0-1.01-.89-1.02-3.21,0-4,1.37-1.07,4.13,2.13,6,1,.66-.4,1.17-1.3,1-2-.4-1.63-4.18-1.04-5-3-.44-1.05.09-2.57,1-3,1.14-.54,2.66.72,3,1,1.99,1.64,2.08,4.02,3,4,.48,0,.83-.68,1-1,.76-1.47-.14-2.56,0-5,.06-1.09.15-2.62,1-3,.97-.43,2.78.72,3,2,.18,1.04-.81,1.38-1,3-.14,1.21.21,2.75,1,3,.59.18,1.27-.39,2-1,1.26-1.05,1.2-1.68,2-2,.96-.38,2.49-.04,3,1,.51,1.04-.16,2.41-1,3-.86.61-1.62.18-3,1-.4.24-1.05.63-1,1,.07.48,1.27.53,3,1,1.65.45,3.91,1.06,4,2,.08.84-1.54,2.06-3,2-1.04-.04-1.35-.7-3-1-1.04-.19-1.58-.28-2,0-.93.62-.43,2.53,0,7,.4,4.19.16,4.71,0,5-1.57,2.76-6.59,1.59-7,3-.48,1.66,6.31,3.83,13,9,7.8,6.02,12.18,13.56,13,13,.57-.39-2.17-3.62-1-7,.73-2.11,2.91-4.04,5-4,1.6.03,1.89,1.2,5,3,2.29,1.33,5.52,2.66,6,2,.27-.37-.29-1.42-1-2-.84-.69-1.45-.39-2-1-.62-.68-.85-2.15,0-3,.85-.85,2.3-.59,3,0,.55.46.37.89,1,2,.53.94,1.53,2.18,2,2,.46-.18.46-1.74,0-3-.41-1.13-.9-1.21-1-2-.14-1.16.68-2.77,2-3,1.61-.28,3.1,1.68,3,3-.06.73-.57.84-1,2-.39,1.05-.58,2.65,0,3,.62.37,2.2-.64,3-2,.78-1.33.25-2.04,1-3,.77-.98,2.56-1.85,4-1,1.45.86,1.73,3.01,1,4-.55.75-1.34.36-3,1-.41.16-3.68,1.46-4,4-.11.88.1,2.19,1,3,1.48,1.32,3.25-.11,6,1,1.2.49,3.14,1.68,3,3-.12,1.11-1.69,2.13-3,2-1.1-.11-1.22-.95-3-2-1.07-.63-2.53-1.49-4-1-.87.29-1.71,1.04-2,2-.11.38-.19.98,1,4,.79,2.01,1.03,2.26,1,3-.04.99-.57,2.7-2,3-1.35.28-2.73-.87-3-2-.25-1.05.63-1.43,1-3,.5-2.13-.32-4.8-2-6-.84-.6-1.13-.29-3-1-2.75-1.05-3.57-2.29-4-2-.8.53,1.11,5.47,4,10,2.05,3.21,4.21,6.6,8,9,4.51,2.85,8.22,2.33,13,3,10.84,1.51,18.5,7.91,21,10,6.78,5.66,14.85,16.87,14,31-.63,10.47-6.34,25.3-20,30-8.97,3.08-22.18,2.08-29-7-4.08-5.43-5.51-13.26-3-20,.75-2.01,3.71-9.96,11-11,6.55-.94,11.48,4.42,12,5-1.07-.72-3.19-1.92-6-2-4.97-.13-9.1,3.35-11,7-3.36,6.46.47,13.12,1,14,3.92,6.56,11.99,8.63,18,8,11.21-1.17,16.44-11.81,17-13,5.6-11.87-1.6-23.8-3-26-5.95-9.33-15.35-12.29-24-15-6.23-1.96-16.97-5.17-29-1-4.92,1.7-8.59,4.13-11,6,1.18.94,3.46,2.42,6,2,2.02-.34,4.48-1.93,6-4,.65-.89,1.02-1.72,2-2,1.01-.29,2.26.12,3,1,1.04,1.24.82,3.09,0,4-.65.71-1.25.38-3,1-.97.35-3.16,1.12-4,3-.07.17-.82,1.88,0,3,.58.79,1.64.88,3,1,2.38.21,2.9-.47,4,0,1.47.62,2.65,2.71,2,4-.62,1.22-2.69,1.36-4,1-.62-.17-1.42-.78-3-2-1.97-1.53-2.23-1.87-3-2-1-.16-2.25.15-3,1-1.23,1.4-.62,3.76,0,5,.83,1.66,1.88,1.75,2,3,.11,1.17-.67,2.74-2,3-1.37.27-2.57-1-3-2-.32-.73-.18-1.23,0-3,.32-3.03.5-4.8,0-5-.46-.18-1.46.96-2,2-.8,1.51-.33,2.22-1,3-1.04,1.21-3.91,1.5-5,0-.61-.84-.65-2.22,0-3,.64-.77,1.48-.37,3-1,1.75-.72,3.28-2.33,3-3-.24-.57-1.92-.69-3,0-.54.34-.51.62-1,1-1,.78-3.07,1.14-4,0-1.05-1.27-.07-3.7,1-4,.88-.25,1.45,1.03,3,1,.91-.02,1.94-.47,2-1,.08-.77-1.92-1.57-3-2-3.99-1.59-5.31-.71-7-2-1.74-1.32-2.73-4.08-2-6,.45-1.19,1.38-1.58,6-4,4.97-2.6,6.06-3.27,6-4-.09-1.15-2.98-1.76-4-2-4.72-1.43-11.01-4-17-9-11.33-9.45-16.19-23.03-19-22-1.81.67,0,6.25-3,8-3.04,1.78-8.59-1.81-12,0-.83.44-.97.9-1,1-.35,1.27,1.92,2.12,2,4,.06,1.24-.77,2.75-2,3-1.23.25-2.61-.82-3-2-.69-2.07,1.76-4.09,1-5-.39-.46-1.4-.37-2,0-.73.46-.89,1.36-1,2-.3,1.71.44,2.33,0,3-.58.88-2.7,1.09-4,0-.86-.72-1.43-2.05-1-3,.47-1.05,1.75-.68,3-2,.87-.91,1.48-2.38,1-3-.49-.63-2.02-.25-3,0-1.73.44-1.93,1.01-3,1-1.34,0-2.97-.92-3-2-.03-.87.98-1.78,2-2,1.41-.31,1.97.89,4,1,1.04.05,2.7-.17,3-1,.38-1.06-1.61-2.69-2-3-1.58-1.25-2.58-1.04-3-2-.41-.94.02-2.32,1-3,1.45-1.01,3.55-.07,4,1,.28.67-.23,1.04,0,2,.26,1.09,1.28,2.15,2,2,.78-.16,1.31-1.76,1-3-.27-1.09-1.04-1.25-1-2,.05-1.02,1.52-2.28,3-2,1.02.19,1.88,1.08,2,2,.12.98-.69,1.34-1,3-.07.36-.25,1.38,0,2,.58,1.42,3.86,1.79,8,1,.93-1.78,3.57-7.17,3-12Z"/>
      <circle class="cls-2" cx="14.17" cy="18.88" r="7.46"/>
      <circle class="cls-4" cx="14.02" cy="18.65" r="5.74"/>
      <circle cx="14.07" cy="19.07" r="3.48"/>
      <circle class="cls-3" cx="10.76" cy="15.23" r="2.35"/>
      <circle class="cls-2" cx="33.28" cy="11.78" r="7.56"/>
      <circle class="cls-4" cx="33.13" cy="11.55" r="5.82"/>
      <circle cx="33.17" cy="11.98" r="3.53"/>
      <circle class="cls-3" cx="29.82" cy="8.08" r="2.38"/>
    </g>
  </g>
</svg>