<?xml version="1.0" encoding="UTF-8"?>
<svg id="Layer_2" data-name="Layer 2" xmlns="http://www.w3.org/2000/svg" viewBox="0 0 248.86 387.1">
  <defs>
    <style>
      .cls-1 {
        fill: #88231a;
      }

      .cls-1, .cls-2, .cls-3, .cls-4, .cls-5, .cls-6, .cls-7, .cls-8 {
        stroke: #000;
        stroke-miterlimit: 10;
      }

      .cls-2 {
        fill: none;
      }

      .cls-9, .cls-7 {
        fill: #d07628;
      }

      .cls-10, .cls-3 {
        fill: #fff;
      }

      .cls-4 {
        fill: #1b0f0a;
      }

      .cls-5 {
        fill: #fddac9;
      }

      .cls-11 {
        fill: #fde6dd;
      }

      .cls-6 {
        fill: #f7922b;
      }

      .cls-12 {
        fill: #333;
      }

      .cls-13 {
        fill: #b86628;
      }

      .cls-8 {
        fill: #febf10;
      }

      .cls-14 {
        fill: #de8436;
      }
    </style>
  </defs>
  <g id="Layer_1-2" data-name="Layer 1">
    <g>
      <path class="cls-5" d="M90.58,248.59c-6.24,6.86-1.49,12.4-8,23-7.96,12.95-19.24,11.48-22,22-1.21,4.6.81,5.4,4,20,1.42,6.49,3.63,16.6,4,28,.58,17.73-3.75,24.11,1,29,2.56,2.63,5.1,2.11,18,3,24.29,1.67,27.2,4.35,33,1,8.64-4.98,13.67-17.53,10-23-3.59-5.35-15.46-3.83-22-3-11.63,1.48-15.09,5.39-20,3-4.66-2.27-5.95-7.94-8-17-2.6-11.47-2.4-25.31,3-30,.49-.43,1.68-1.35,3-3,2.77-3.47,2.91-6.17,4-8,2.8-4.7,11.24-2.62,17-4,14.7-3.51,27.32-33.23,18-44-6.9-7.98-26.51-6.35-35,3Z"/>
      <path class="cls-7" d="M48.58,236.59c1.49,7.14.43,12.24,0,14-2.27,9.3-9.41,18.11-13,17-1.27-.39-2.58-2.17-3-8-4.64,6.78-9.55,10.21-12,9-1.97-.97-2.09-4.8-2-7-1.05,1.56-3.19,4.39-5,4-2.11-.46-3.35-5.22-3-12-1.73,4.84-4.07,8.22-6,8-2.5-.28-3.72-6.53-4-10-.3-3.71-.07-10.67,7-22,7.29-11.68,12.45-19.95,20-20,10.74-.08,18.81,16.53,21,27Z"/>
      <path class="cls-13" d="M6.08,233.09c.62,1.24,1.33,1.79,2,2,4.96,1.57,13.53-13.4,15-16-.58,14.76.42,22.42,3,23,1.48.33,3.48-1.67,6-6,.54,2.68,2.58,4.69,5,5,.16.02,3.2.36,5-2,1.28-1.68,1.06-3.59,1-4,.28,1.97,1.44,3.54,3,4,.78.23,1.5.13,2,0,.03-2.69-.12-6.52-1-11-1.52-7.73-2.5-12.68-6-15-7.34-4.86-22.78,3.82-31,14-1.91,2.36-3.2,4.53-4,6Z"/>
      <path class="cls-5" d="M176.58,59.59c-1.51,6.23-2.56,14.79,0,24,8.62,30.97,49.56,38.63,47,52-1.46,7.63-16.45,13.75-22,10-2.41-1.63-2.61-4.81-3-7-2.85-15.79-23.56-22.11-35-33-7.49-7.13-15.32-20.33-15-47,9.33.33,18.67.67,28,1Z"/>
      <path class="cls-5" d="M161.58,58.59c3.43.7,25.56,4.94,36-6,2-2.09,5.83-6.1,5-11-.64-3.79-3.74-6.15-5-7,.93-3.02,3.98-14.16-2-24-1-1.64-6.76-11.14-14-10-3.51.55-5.87,3.37-7,5-.76-.76-5.61-5.44-13-5-6.16.36-10.05,4.04-11,5-.74-.78-5.64-5.82-12-5-8.55,1.1-11.6,11.61-12,13-2.6,9,2.12,16.63,3,18-.74.27-7.98,2.99-9,9-.69,4.06,1.89,7.38,3,9,8.52,12.45,36.63,9.17,38,9Z"/>
      <path class="cls-3" d="M126.58,354.59c1.68-1.58,4.3-1.12,5-1,5.43.95,9.13,7.46,8,9-.6.82-2.11-.39-6,0-3.7.37-4.59,1.69-6,1-2.36-1.15-3.51-6.63-1-9Z"/>
      <path class="cls-7" d="M223.58,135.59c4.66,3.38,12.49,10.04,18,21,2.8,5.56,11.06,22,4,40-8.08,20.59-29.62,26.4-32,27-.85,2.09-7.56,17.77-25,23-20.77,6.23-37.17-8.24-38-9-19.06,4.66-30.19,9.85-37,14-1.87,1.14-6.14,3.86-12,4-7.82.19-13.84-4.33-16-6-13.75-10.62-10.4-25.05-23-31-1.62-.77-6.18-2.92-9-1-5.02,3.42.37,16.45-4,19-1.33.77-3.83.74-9-3,.24,3.67-1.28,6.61-3,7-1.95.44-5.26-2.17-6-7-2,4.2-3.67,6.2-5,6-2.48-.37-3.82-8.38-4-24-4.22,7.69-10.38,17.96-13,17-2.73-1-2.02-13.03,2-23,1.12-2.78,4.55-10.5,15-20,11.51-10.46,17.24-10.09,30-19,15.4-10.75,12.67-15.2,25-24,3.59-2.56,25.92-17.97,51-13,11.82,2.34,30.68,10.34,43,26,4.36,5.54,9.39,13.93,17,14,3.55.03,7.68-1.75,10-5,4.77-6.68-2.12-14.4,1-22,1.7-4.15,6.54-8.71,20-11Z"/>
      <path class="cls-13" d="M91.08,154.09c.02.64.16,1.87,1,3,1.27,1.7,3.61,2.46,6,2-3.81.84-10.6,3-15,9-.91,1.24-4.97,6.77-3,10,.71,1.16,1.93,1.61,3,2,4.32,1.58,8.54-.27,10-1,13.08-1.58,15.92-1.44,16-1,.15.82-9.39,1.27-14,8-2.89,4.21-3.78,10.79-1,13,2.26,1.8,6.38.24,7,0,2.78-1.07,4.36-3.07,5-4,3.33-1.67,6.67-3.33,10-5-1.98,3.51-3.21,6.62-4,9-1.06,3.21-2.32,7.02-1,8,.78.58,2.24.01,4-1,5.9-3.39,10.54-9.11,12-12,4.56-9.04-2.71-28.47-21-46l-15,6Z"/>
      <path class="cls-5" d="M151.58,231.59c5.84,6-3.4,23.77-7,31-5.99,12.05-13.46,20.59-19,26,.23,1.96.3,4.93-1,8-1.83,4.33-4.93,5.48-7,8-1.19,1.45-3.09,4.64,1,24,4.21,19.91,8,24.99,11,28,2.11,2.11,4.43,4.38,8,5,6.02,1.05,8.52-3.81,16-5,5.06-.81,13.94-.18,18,6,3.36,5.1,2.28,12.24-1,17-.2.3-5.18,7.32-12,7-5.72-.27-7.31-5.45-13-5-3.58.28-3.64,2.39-8,3-4.18.59-5.58-1.15-11-2-7.9-1.24-9.75,1.7-13,0-4.24-2.22-4.55-9.03-5-22-.97-28.33-.7-27.23-1-29-3.3-19.52-13.84-20.78-13-34,.79-12.48,10.28-12.78,14-28,4.41-18.04-7.41-29.59-1-36,2.77-2.77,5.3-1.03,23-2,15.63-.86,18.58-2.48,21,0Z"/>
      <path class="cls-2" d="M94.58,152.59c-8.88,2.68-13.92,7.79-24,18-3.79,3.84-11.87,12.02-10,15,.78,1.24,3.06,1.23,5,1-1.28.49-3.54,1.61-5,4-.6.98-1.62,2.66-1,4,.67,1.45,2.91,1.73,5,2,1.7.22,3.1.11,4,0-1.15,1.49-1.15,2.45-1,3,.64,2.38,5.8,3.54,13,3-1.92.71-3.99,1.74-4,3-.01,2.37,7.34,4.33,11,5,2.47.45,16.2,2.67,27-5,16.2-11.51,19.37-40.75,7-51-8.97-7.44-23.8-2.97-27-2Z"/>
      <path class="cls-13" d="M205.08,164.09c.78.84,2.09,2.05,4,3,1.54.77,2.88,1.43,4,1,1.65-.63,2.49-3.49,2-7,3.34.94,6.11,1.06,8,1,3.06-.1,3.72-.69,4-1,1.19-1.35.75-4.1-1-7,.59.36,3.11,1.84,6,1,.68-.2,2.19-.63,3-2,.98-1.65.59-4.04-1-6l3,3c-1.83-5.47-4.69-7.33-6-8-8.6-4.4-23.78,4.96-26,16-.51,2.52-.25,4.69,0,6Z"/>
      <path class="cls-3" d="M167.58,374.59c-.75-2.65.04-5.41,2-7,2.49-2.02,5.6-1.12,6-1,2.51.77,3.71,2.81,5,5,1.08,1.83,3.48,6.63,2,8-1.03.95-2.64-.96-7-1-3.13-.03-4.48.95-6,0-1.37-.85-1.83-2.62-2-4Z"/>
      <path class="cls-3" d="M158.58,384.59c-.97-.68-.99-2.19-1-3,0-.4.01-4.06,3-6,.53-.34,1.66-1.08,3-1,4.5.26,7.79,9.39,6,11-1.16,1.04-3.57-1.84-8-1-1.06.2-2.14.6-3,0Z"/>
      <path class="cls-7" d="M161.58,164.59c.53.14,6.18,1.75,8,7,1.71,4.91-.66,10.94-6,14-.71,2.36-3.11,9.21-10,14-10.6,7.36-22.63,3.47-24,3-1.47.62-3.24,1.55-5,3-1.95,1.6-2.52,2.71-4,3-2.47.49-4.82-1.82-5-2-2.93-2.96-2.47-9.36,1-16-2.13,1.47-5.5,3.51-10,5-4.22,1.4-9.19,3.05-11,1-2.05-2.32.99-8.19,3-11,2.96-4.15,6.87-6.12,9-7-3.33.54-8.15,1.11-14,1-6.01-.11-9.03-.21-10-2-2.11-3.93,7.45-12.51,8-13,4.39-3.88,8.91-5.91,12-7-4.79-.1-8.32-1.63-9-4-.48-1.65.55-3.29,1-4,3.62-5.63,13.71-8.61,23-9,4.91-.2,18.61-.78,31,9,6.69,5.28,10.26,11.41,12,15Z"/>
      <path class="cls-6" d="M197.58,134.59c-.8.4-1.88,1.03-3,2-.32.28-6.38,5.73-5,13,.5,2.64,1.82,4.64,3,6,.14,1.03.77,4.91,4,7,.73.48,2.48,1.61,4,1,1.75-.7,2.76-3.55,2-7,2.99,6.36,6.94,9.76,9,9,1.79-.66,2.44-4.57,2-9,.8.82,2.47,2.29,5,3,1.26.35,3.67,1.03,5,0,1.74-1.34,1.56-5.49-1-10,4.44,3.33,8.72,3.6,10,2,1.41-1.77-.87-5.77-1-6,.39.02,3.19.1,5-2,1.78-2.07,1.85-5.4,0-8,.74-.09,1.61-.33,2-1,1.22-2.12-3.22-7.13-7-10-2.83-2.15-7.64-5.81-12-4-2.11.87-3.34,2.71-4,4,1.02.49,2.56,1.4,4,3,.97,1.09,1.6,2.16,2,3-.61.34-2.01,1.24-3,3-.95,1.7-1.01,3.3-1,4-.25-.12-2.55-1.22-5,0-.25.12-2.51,1.31-3,4-.39-.29-1.48-1.01-3-1-2.36,0-3.8,1.75-4,2-.47-1.18-1.11-2.55-2-4-1-1.64-2.06-2.97-3-4Z"/>
      <path d="M192.09,155.68c-.5-3.58.44-7.27,2.49-10.09-1.78,3.01-2.29,6.64-1.51,9.91l-.98.18h0Z"/>
      <g>
        <path class="cls-9" d="M103.58,229.59c-.79.27-2.69,1.05-4,3-.4.6-2.16,3.22-1,5,1.01,1.54,3.55,1.43,5,1,2.81-.84,3.87-3.63,4-4,.2.86.73,2.47,2,3,1.89.79,5.17-.94,7-5,.17,2.5,1.42,4.58,3,5,2.11.56,5.45-1.7,6-6,.11,2.62,1.84,4.17,3,4,.93-.13,1.79-1.39,2-3,1.41,5.39,5.61,7.85,8,7,1.76-.62,2.89-3.17,3-6,1.2,1.52,3.11,2.29,5,2,2.72-.42,3.9-2.8,4-3,.43.8,1.8,3.2,3,3,1.21-.2,2.02-2.99,2-7"/>
        <path d="M103.58,229.59c-2.57.91-4.51,3.19-5.13,5.8-.18.85-.06,1.77.54,2.37,1.25,1.17,3.38.98,4.89.42,1.6-.63,2.8-2.1,3.38-3.71l.38-1.05s.28,1.09.28,1.09c1.39,5.89,6.94,1.41,8.26-2.1,0,0,.71-1.59.71-1.59l.13,1.74c.74,7.51,7.34,4.82,8.06-1.03,0,0,.99.04.99.04.04.71.19,1.42.52,2.04,1.47,2.67,3.17,1.39,3.52-1.08,0,0,.32-2.33.32-2.33l.6,2.27c1.6,6.71,9.55,10.67,10.19,1.1,0,0,.06-.97.06-.97,2.18,3.62,7.05,3.69,9.09-.11,0,0,.21-.4.21-.4l.2.39c3.52,6.87,4.77-.02,4.79-3.89.26,4.4-1.24,11.12-5.21,4.11,0,0,.42-.01.42-.01-1.69,3.74-6.98,4.39-9.49,1.12,0,0,.64-.21.64-.21.02,3.12-1.86,7.72-5.76,6.35-3.22-1.05-5.2-4.14-6.05-7.25,0,0,.92-.06.92-.06-.87,5.6-5.78,3.56-5.96-1.04,0,0,.99.04.99.04-.36,3.26-3.26,7.38-6.98,6.26-2.01-.93-2.8-3.28-2.96-5.29,0,0,.85.15.85.15-1.63,4.28-8.2,8.65-9.74,1.9,0,0,.66.04.66.04-.97,2.71-3.69,4.68-6.61,4.41-.93-.06-1.93-.33-2.62-1.07-1.37-1.58-.35-3.75.61-5.23.98-1.56,2.56-2.69,4.29-3.23h0Z"/>
      </g>
      <path class="cls-8" d="M129.58,54.59c-.22-.24-2.85-3.3-2-7,.88-3.85,4.87-5.52,6-6,5.07-2.13,7.36.77,13,0,8.06-1.11,8.42-7.74,15-8,6.05-.24,6.45,5.33,15,7,7.46,1.46,10.82-2.07,15,1,2.54,1.86,4.35,5.4,4,9-.08.79-.48,3.82-3,6-2.83,2.45-7.16,2.83-11,1-1.71,2.36-4.33,5.61-8,9-4.98,4.59-7.47,6.88-11,7-4.16.14-7.37-2.79-12-7-3.3-3-5.57-5.94-7-8-3.46.09-6.19-.48-8-1-2.68-.77-4.48-1.29-6-3Z"/>
      <path class="cls-1" d="M147.58,53.59c-1,3.04,4.58,7.89,7,10,2.54,2.21,4.31,3.75,7,4,4.37.41,7.8-2.89,10-5,2.35-2.25,5.71-5.48,5-8-1.73-6.11-27.11-6.73-29-1Z"/>
      <path class="cls-8" d="M134.58,48.59c.45,1.09,1.32,2.74,3,4,4.3,3.23,8.62-.15,14,2,6.12,2.44,6.05,9,10,9,3.54,0,3.42-5.27,9-8,6.31-3.08,12.16.88,16-3,1.31-1.32,1.79-2.96,2-4"/>
      <path class="cls-4" d="M158.58,47.59c.02-.45.02-1.89-1-3-.59-.64-1.62-1.29-2-1-.44.34-.02,2,1,3,.7.69,1.53.91,2,1Z"/>
      <path class="cls-4" d="M165.32,47.59c-.02-.45-.02-1.89,1-3,.59-.64,1.62-1.29,2-1,.44.34.02,2-1,3-.7.69-1.53.91-2,1Z"/>
      <path d="M151,5.32c1.89,3.11,2.78,6.75,2.58,10.28-.14-3.54-1.36-6.96-3.42-9.72l.83-.56h0Z"/>
      <path d="M174.91,5.97c-2.89,2.24-4.54,5.94-4.33,9.62-.26-1.85-.08-3.78.55-5.58.63-1.8,1.71-3.46,3.12-4.8l.65.76h0Z"/>
      <path d="M166.13,375.81c-1.21-2.59-3.21-4.83-5.75-6.18-2.55-1.36-5.53-1.68-8.46-1.77-2.94-.14-5.89,0-8.8.47-2.91.46-5.77,1.24-8.54,2.26,2.74-1.11,5.59-1.96,8.5-2.51,2.91-.56,5.89-.78,8.86-.72,2.94.01,6.03.23,8.79,1.6,2.74,1.35,4.94,3.69,6.31,6.4l-.9.44h0Z"/>
      <circle class="cls-3" cx="139.5" cy="24.37" r="13.62"/>
      <circle class="cls-12" cx="139.22" cy="23.95" r="10.48"/>
      <circle cx="139.31" cy="24.73" r="6.36"/>
      <circle class="cls-10" cx="133.27" cy="17.71" r="4.29"/>
      <circle class="cls-3" cx="186.02" cy="25" r="13.62"/>
      <circle class="cls-12" cx="185.73" cy="24.59" r="10.48"/>
      <circle cx="185.82" cy="25.36" r="6.36"/>
      <circle class="cls-10" cx="179.79" cy="18.34" r="4.29"/>
      <path d="M65.42,186.12l3.97-1.46c1.35-.45,2.61-1.08,3.89-1.69,2.54-1.26,4.98-2.73,7.3-4.38-2.22,1.78-4.58,3.4-7.06,4.82-1.25.69-2.5,1.41-3.83,1.94l-3.95,1.71-.32-.95Z"/>
      <path d="M68.48,196.1c7.63-1.39,14.92-4.7,21.1-9.51-5.97,5.07-13.18,8.74-20.9,10.49l-.2-.98h0Z"/>
      <path d="M80.48,202.1c5.29-.87,10.44-2.74,15.1-5.51-4.48,3.05-9.56,5.27-14.9,6.49l-.19-.98h0Z"/>
      <path d="M103.42,157.12c17.8-5.94,37.95-2.31,53.16,8.47-15.27-10.42-35.3-13.73-52.84-7.53,0,0-.31-.95-.31-.95h0Z"/>
      <path d="M107.44,178.11c15.97-4.54,33.01-5.04,49.14-1.52-16.2-3.2-33.14-2.33-48.86,2.48l-.28-.96h0Z"/>
      <path d="M116.29,190.19c11.26-8.09,25.62-11.48,39.29-9.6-13.62-1.54-27.77,2.13-38.71,10.4,0,0-.59-.81-.59-.81h0Z"/>
      <path d="M129.15,202.34c5.9-10.06,16.15-17.13,27.43-19.75-11.06,2.9-21.05,10.17-26.57,20.25,0,0-.87-.5-.87-.5h0Z"/>
      <path d="M221.45,130.11c3.54-.8,7.41.12,10.13,2.48-2.84-2.03-6.59-2.59-9.87-1.52,0,0-.26-.97-.26-.97h0Z"/>
      <path d="M217.82,137.16c2.32,1.55,5.59,3.74,7.76,5.44-2.32-1.45-5.79-3.28-8.24-4.56,0,0,.49-.87.49-.87h0Z"/>
      <path d="M210.08,141.56c.07,3.66.7,7.45,1.5,11.04-1.13-3.54-2.09-7.27-2.5-10.96,0,0,1-.08,1-.08h0Z"/>
      <path d="M203.02,142.83c-1.07,1.65-1.6,3.7-1.44,5.77-.49-2.01-.31-4.24.56-6.23l.88.47h0Z"/>
      <path d="M222.25,149.97c-2.62-2.47-4.87-5.31-6.67-8.38,2.08,2.89,4.56,5.46,7.33,7.62l-.65.76h0Z"/>
      <g>
        <path class="cls-9" d="M22.58,215.59c1.47-3.2,3.67-7.08,7-11,7.04-8.28,15.29-12.21,20-14"/>
        <path d="M22.13,215.39c5.38-11.51,15.54-20.5,27.45-24.79-11.67,4.55-21.54,13.7-26.55,25.21,0,0-.91-.42-.91-.42h0Z"/>
      </g>
      <g>
        <path class="cls-9" d="M31.58,233.59c-.35-3.26-.5-7.34,0-12,.41-3.87,1.18-7.24,2-10"/>
        <path d="M31.08,233.65c-.63-7.45.23-14.99,2.5-22.05-1.95,7.15-2.45,14.66-1.5,21.95l-.99.11h0Z"/>
      </g>
      <g>
        <path class="cls-9" d="M40.58,233.59c-.73-1.37-1.46-3.04-2-5-1.51-5.51-.7-10.31,0-13"/>
        <path d="M40.14,233.83c-2.86-5.6-3.32-12.26-1.56-18.24-1.41,5.97-.64,12.46,2.44,17.76,0,0-.88.47-.88.47h0Z"/>
      </g>
      <g>
        <path class="cls-9" d="M32.58,259.59c1.67-6.33,3.33-12.67,5-19"/>
        <polygon points="32.1 259.47 37.58 240.59 33.06 259.72 32.1 259.47 32.1 259.47"/>
      </g>
      <g>
        <path class="cls-9" d="M18.58,261.59c2.67-7.33,5.33-14.67,8-22"/>
        <polygon points="18.11 261.42 26.58 239.59 19.05 261.77 18.11 261.42 18.11 261.42"/>
      </g>
      <path d="M10.08,253.57c.79-12.74,4.82-25.2,11.5-35.97-6.4,10.94-10.06,23.43-10.5,36.03l-1-.05h0Z"/>
      <path class="cls-11" d="M150.68,240.16c.51.17-1.31,9.97-6.03,19.71-6.77,13.97-16.86,22.4-17.17,22.14-.23-.19,5.24-5.38,10.81-15.46,2.15-3.9,4.06-8.14,7.87-16.62,3.37-7.5,4.25-9.87,4.51-9.78Z"/>
      <path class="cls-14" d="M234.08,211.09c-.96-.52,7.81-12,9-30,.86-13.01-2.74-21.82-2-22,.9-.22,7.81,12.34,6,27-1.86,15.03-12.05,25.51-13,25Z"/>
      <path class="cls-14" d="M86.08,176.09c-.77-.82,4.04-8.79,12-14,18.76-12.28,45.09-2.79,45-2-.07.61-15.79-4.85-34,2-13.93,5.24-22.08,14.98-23,14Z"/>
      <path class="cls-14" d="M95.08,152.09c-.33-.72,2.44-2.61,3-3,8.17-5.6,24.8-11.11,41-4,14.65,6.43,21.91,20.09,21,21-1.14,1.14-13.92-19-34.5-20.5-15.08-1.1-29.76,8.14-30.5,6.5Z"/>
      <path class="cls-13" d="M104.08,230.09c-.74.3-1.92.88-3,2-1.07,1.1-2.86,3.58-2,5,.44.72,1.39.89,2,1,1.96.35,3.56-.71,4-1,2.43-1.61,2.91-4.41,3-5-.24,2.52.66,4.57,2,5,1.41.45,2.97-1.03,4-2,1.87-1.77,2.66-3.82,3-5-.06.2-.86,3.17,1,5,.28.27,1,.99,2,1,2.26.03,3.82-3.58,4-4,.49-1.15,1-3,1-3h0s1.5,4.91,3,5c.74.04,1.72-1.07,3-5-.05.74-.28,5.62,3,8,.38.28,2.36,1.71,4,1,.99-.43,1.4-1.45,2-3,.42-1.08.92-2.78,1-5,.12.47.56,1.94,2,3,.43.31,1.6,1.18,3,1,2.2-.28,3.98-2.99,4-3h0c2.3,4.02,3,4,3,4,1.16-.04,1.91-2.69,2-3,.49-1.73.21-3.23,0-4-.05.69-.24,1.84-1,3-.34.53-.6.91-1,1-.86.2-2.05-1.02-3-3-.2.48-1.09,2.39-3,3-2.39.76-5.53-.77-7-4,.95,3.37-.17,6.27-2,7-1.77.71-3.74-.8-4-1-2.07-1.62-2.82-4.75-2-8-1.94,4.27-3.2,5.11-4,5,0,0-.62-.08-3-4h0c-2.39,5.41-4,6-4,6-.28.1-1.28.47-2,0-.92-.6-.95-2.31-1-5,0-.42,0-.76,0-1-1.14,2.04-2.17,3.72-3,5-1.34,2.08-2.03,2.95-3,3-.83.04-1.47-.53-2-1-1.5-1.33-1.88-3.14-2-4,.01.54.04,3.3-2,5-1.31,1.09-3.4,1.68-4,1-.5-.57.1-1.95,1-4,.36-.82.72-1.5,1-2Z"/>
    </g>
  </g>
</svg>